<?xml version="1.0" encoding="UTF-8"?>
<svg version="1.1" xmlns="http://www.w3.org/2000/svg" width="500" height="500">
<path d="M0 0 C3.31539597 2.16665828 6.71285831 4.13943185 10.16796875 6.0703125 C29.30044907 16.81479149 29.30044907 16.81479149 32.16796875 22.0703125 C32.03841797 23.50890625 32.03841797 23.50890625 31.90625 24.9765625 C31.84787415 28.01183053 31.84787415 28.01183053 33.48193359 29.51953125 C35.37793575 30.99540537 37.32166478 32.29138089 39.35546875 33.5703125 C40.02900391 34.03695312 40.70253906 34.50359375 41.39648438 34.984375 C43.29648858 36.22262165 45.04397769 37.27374349 47.16796875 38.0703125 C49.75664602 37.3536168 49.75664602 37.3536168 52.16796875 36.0703125 C58.91855002 36.0703125 63.22891767 39.33239002 68.54296875 43.0703125 C69.36152344 43.62976563 70.18007813 44.18921875 71.0234375 44.765625 C76.89341518 48.79575893 76.89341518 48.79575893 78.16796875 50.0703125 C78.30912036 52.74090101 78.21043982 55.39463488 78.16796875 58.0703125 C78.895 58.32296875 79.62203125 58.575625 80.37109375 58.8359375 C83.34981282 60.1505677 85.4042137 61.76659105 87.91796875 63.8203125 C91.37002293 66.46282595 91.37002293 66.46282595 95.5 66.90625 C96.95075804 66.44383676 98.39627313 65.96452091 99.83496094 65.46582031 C102.76118077 64.96974705 103.7102475 65.51627395 106.2265625 67.03125 C107.01023193 67.49901855 107.79390137 67.96678711 108.60131836 68.44873047 C114.33305206 72.069978 119.99166193 75.79431389 125.640625 79.54296875 C130.66885862 82.85718398 135.7068074 85.99812723 141.00097656 88.86767578 C144.86059271 91.00968447 148.57002949 93.38859873 152.29296875 95.7578125 C153.11627686 96.27964111 153.93958496 96.80146973 154.7878418 97.33911133 C160.50413691 100.97584913 166.16597017 104.68710481 171.78417969 108.47338867 C174.88891217 110.5634389 178.00992092 112.61839539 181.171875 114.62109375 C181.82115967 115.03270752 182.47044434 115.44432129 183.1394043 115.8684082 C184.37908359 116.65113761 185.6213199 117.42983645 186.86645508 118.20385742 C191.05863635 120.8516477 191.05863635 120.8516477 192.16796875 123.0703125 C192.62462111 129.34928246 192.62462111 129.34928246 190.98046875 131.9453125 C188.55074822 133.4534149 187.05236656 133.93920351 184.16796875 134.0703125 C178.27594385 131.89250077 173.11205383 128.75573174 167.79296875 125.4453125 C166.97441406 124.94257813 166.15585937 124.43984375 165.3125 123.921875 C159.3269582 120.22930195 159.3269582 120.22930195 158.16796875 119.0703125 C148.26796875 118.7403125 138.36796875 118.4103125 128.16796875 118.0703125 C128.16796875 173.8403125 128.16796875 229.6103125 128.16796875 287.0703125 C138.72796875 287.0703125 149.28796875 287.0703125 160.16796875 287.0703125 C166.1354137 290.65077947 166.1354137 290.65077947 167.16796875 294.0703125 C167.36039097 296.87441248 167.44827404 299.57590192 167.43359375 302.37890625 C167.4355072 303.18264175 167.43742065 303.98637726 167.43939209 304.81446838 C167.44075083 306.51148797 167.43707609 308.20851806 167.42871094 309.90551758 C167.41802084 312.49519363 167.42860933 315.08417379 167.44140625 317.67382812 C167.44008433 319.32552236 167.43752125 320.97721616 167.43359375 322.62890625 C167.43764221 323.39988144 167.44169067 324.17085663 167.44586182 324.9651947 C167.41018897 329.0816188 167.19465495 332.43994112 165.16796875 336.0703125 C154.89103416 342.92160223 140.51930696 338.0703125 128.16796875 338.0703125 C128.16796875 368.4303125 128.16796875 398.7903125 128.16796875 430.0703125 C139.38796875 430.0703125 150.60796875 430.0703125 162.16796875 430.0703125 C166.97442036 434.87676411 166.97442036 434.87676411 167.16796875 438.0703125 C166.08767438 441.8513428 165.52490612 442.83235425 162.16796875 445.0703125 C159.23516423 445.3221615 159.23516423 445.3221615 155.56305027 445.32478809 C154.88543765 445.32799457 154.20782503 445.33120105 153.50967869 445.33450469 C151.22255944 445.3428541 148.93569871 445.33686331 146.64857483 445.33100891 C144.99891452 445.33402735 143.34925562 445.33791527 141.69959921 445.34260148 C137.15344625 445.35292992 132.60737172 445.35068739 128.06121218 445.34642088 C123.16338338 445.34396242 118.26557389 445.35295683 113.36775208 445.36045837 C103.76749561 445.37323188 94.16726708 445.37499578 84.56700356 445.37265811 C76.76676199 445.37087778 68.96652893 445.37261845 61.16628838 445.37688255 C60.05770524 445.37747774 58.94912211 445.37807293 57.80694554 445.37868616 C55.55513307 445.37989786 53.30332059 445.38111199 51.05150812 445.38232853 C29.9164245 445.39321424 8.78135682 445.39103668 -12.35372771 445.38494369 C-31.70516849 445.37977335 -51.05655896 445.39103124 -70.40798979 445.41004191 C-90.26016671 445.42939557 -110.11231979 445.43768067 -129.96450621 445.43391865 C-141.11716687 445.43200288 -152.26978468 445.43453068 -163.42243767 445.44863319 C-172.91647516 445.4605165 -182.41044344 445.46198628 -191.90448182 445.44984303 C-196.751506 445.44393288 -201.5984034 445.44291355 -206.44541931 445.45484543 C-210.87858704 445.46563202 -215.31152103 445.46268778 -219.74467749 445.44858374 C-221.35231981 445.44591676 -222.95998003 445.44836548 -224.56760489 445.45631961 C-226.7457798 445.46635246 -228.92313064 445.45806761 -231.10127163 445.44504261 C-232.91921157 445.44512513 -232.91921157 445.44512513 -234.77387756 445.44520932 C-238.10310813 445.03708138 -239.47568944 444.41367846 -241.83203125 442.0703125 C-242.94425841 439.05141022 -242.94853915 437.48779915 -242.08203125 434.3828125 C-240.83203125 432.0703125 -240.83203125 432.0703125 -237.83203125 430.0703125 C-226.61203125 430.0703125 -215.39203125 430.0703125 -203.83203125 430.0703125 C-203.83203125 399.7103125 -203.83203125 369.3503125 -203.83203125 338.0703125 C-215.05203125 338.0703125 -226.27203125 338.0703125 -237.83203125 338.0703125 C-241.83203125 335.0703125 -241.83203125 335.0703125 -242.57196045 333.11851501 C-243.00920965 329.67493382 -243.01610283 326.22729702 -243.03515625 322.76171875 C-243.04085632 321.95798325 -243.0465564 321.15424774 -243.0524292 320.32615662 C-243.06185797 318.62915353 -243.06840473 316.93213231 -243.07226562 315.23510742 C-243.08198422 312.64534546 -243.11303208 310.05637321 -243.14453125 307.46679688 C-243.15106073 305.81510886 -243.15631142 304.1634152 -243.16015625 302.51171875 C-243.17250305 301.74074356 -243.18484985 300.96976837 -243.1975708 300.1754303 C-243.17877128 295.61834393 -242.69218975 292.66896828 -239.83203125 289.0703125 C-236.18898261 286.64161341 -233.52480786 286.81355575 -229.3203125 286.875 C-228.59208786 286.8778299 -227.86386322 286.88065979 -227.11357117 286.88357544 C-224.79038988 286.89475993 -222.46759578 286.91986084 -220.14453125 286.9453125 C-218.56836495 286.95534456 -216.9921926 286.96447002 -215.41601562 286.97265625 C-211.55453858 286.99469354 -207.69335054 287.02921109 -203.83203125 287.0703125 C-203.87130737 285.32959473 -203.87130737 285.32959473 -203.91137695 283.55371094 C-204.00192735 279.24515082 -204.05929775 274.93667463 -204.10668945 270.62744141 C-204.13182272 268.76303969 -204.16593508 266.8987364 -204.20922852 265.03466797 C-204.26993477 262.35359419 -204.29825183 259.67382348 -204.3203125 256.9921875 C-204.34611893 256.15975525 -204.37192535 255.327323 -204.39851379 254.46966553 C-204.4013173 248.67559421 -204.4013173 248.67559421 -201.42651367 245.51269531 C-198.83203125 244.0703125 -198.83203125 244.0703125 -196.83203125 244.0703125 C-196.83203125 237.1403125 -196.83203125 230.2103125 -196.83203125 223.0703125 C-198.15203125 222.7403125 -199.47203125 222.4103125 -200.83203125 222.0703125 C-202.89297682 220.51897669 -203.71705021 219.67660887 -204.20117474 217.12381458 C-204.19702667 216.01074955 -204.19702667 216.01074955 -204.1927948 214.87519836 C-204.19691879 214.02124481 -204.20104279 213.16729126 -204.20529175 212.28746033 C-204.19450592 211.35382156 -204.18372009 210.4201828 -204.17260742 209.45825195 C-204.17326454 207.97992889 -204.17326454 207.97992889 -204.17393494 206.47174072 C-204.17184218 203.20882468 -204.14848778 199.94642021 -204.125 196.68359375 C-204.11940579 194.42343934 -204.11513487 192.16328129 -204.11213684 189.90312195 C-204.10067435 183.95016461 -204.07119491 177.99742635 -204.0380249 172.04455566 C-204.00735437 165.97179122 -203.99363795 159.89899142 -203.97851562 153.82617188 C-203.9463267 141.90745575 -203.89511326 129.98890233 -203.83203125 118.0703125 C-207.8972147 118.05394571 -211.95982622 118.08057061 -216.02456665 118.14393616 C-217.40180284 118.15972348 -218.77921646 118.16455958 -220.15652466 118.15742493 C-232.62001135 118.10552446 -240.14799638 121.36905768 -249.73046875 129.06640625 C-253.69048576 132.20421435 -256.83840272 133.32635284 -261.83203125 134.0703125 C-264.76953125 133.3203125 -264.76953125 133.3203125 -266.83203125 132.0703125 C-268.37790001 128.97857498 -268.12562646 126.47601698 -267.83203125 123.0703125 C-265.36133338 120.17648126 -262.65199224 118.1477954 -259.4375 116.14453125 C-258.14453003 115.33145508 -258.14453003 115.33145508 -256.82543945 114.50195312 C-255.43651489 113.63860352 -255.43651489 113.63860352 -254.01953125 112.7578125 C-252.03691504 111.51306424 -250.05517283 110.26692302 -248.07421875 109.01953125 C-246.53652832 108.05152588 -246.53652832 108.05152588 -244.96777344 107.06396484 C-238.88197397 103.19471551 -232.86849506 99.21254975 -226.86206055 95.22143555 C-221.50250092 91.69317599 -216.05894481 88.51739561 -210.40209961 85.49121094 C-206.68561284 83.43649896 -203.20443488 81.09848813 -199.70703125 78.6953125 C-185.04733578 68.77869414 -170.12061848 59.24106863 -155.01171875 50.0234375 C-136.32897147 38.54754851 -117.71734851 26.82975171 -99.58203125 14.5078125 C-94.18186145 10.84215661 -88.59582561 7.72424071 -82.80859375 4.7109375 C-80.01287071 3.16998779 -77.47895295 1.5016777 -74.89453125 -0.3671875 C-48.26971869 -19.54571102 -26.743628 -18.19812203 0 0 Z M-161.83203125 338.0703125 C-162.16203125 348.6303125 -162.49203125 359.1903125 -162.83203125 370.0703125 C-165.83203125 373.0703125 -165.83203125 373.0703125 -167.83203125 374.0703125 C-167.97749908 377.31983998 -168.06614805 380.56852963 -168.14453125 383.8203125 C-168.18642578 384.74070312 -168.22832031 385.66109375 -168.27148438 386.609375 C-168.28759766 387.49882812 -168.30371094 388.38828125 -168.3203125 389.3046875 C-168.34649658 390.12163086 -168.37268066 390.93857422 -168.3996582 391.78027344 C-167.88233519 394.86050938 -167.88233519 394.86050938 -162.83203125 398.0703125 C-162.50203125 408.6303125 -162.17203125 419.1903125 -161.83203125 430.0703125 C-138.73203125 430.0703125 -115.63203125 430.0703125 -91.83203125 430.0703125 C-91.83203125 399.7103125 -91.83203125 369.3503125 -91.83203125 338.0703125 C-114.93203125 338.0703125 -138.03203125 338.0703125 -161.83203125 338.0703125 Z M-77.83203125 338.0703125 C-77.83203125 344.6703125 -77.83203125 351.2703125 -77.83203125 358.0703125 C-51.43203125 358.0703125 -25.03203125 358.0703125 2.16796875 358.0703125 C2.16796875 351.4703125 2.16796875 344.8703125 2.16796875 338.0703125 C-24.23203125 338.0703125 -50.63203125 338.0703125 -77.83203125 338.0703125 Z M16.16796875 338.0703125 C16.16796875 368.4303125 16.16796875 398.7903125 16.16796875 430.0703125 C39.26796875 430.0703125 62.36796875 430.0703125 86.16796875 430.0703125 C86.16796875 399.7103125 86.16796875 369.3503125 86.16796875 338.0703125 C63.06796875 338.0703125 39.96796875 338.0703125 16.16796875 338.0703125 Z M-77.83203125 374.0703125 C-77.83203125 380.6703125 -77.83203125 387.2703125 -77.83203125 394.0703125 C-51.43203125 394.0703125 -25.03203125 394.0703125 2.16796875 394.0703125 C2.16796875 387.4703125 2.16796875 380.8703125 2.16796875 374.0703125 C-24.23203125 374.0703125 -50.63203125 374.0703125 -77.83203125 374.0703125 Z M-77.83203125 410.0703125 C-77.83203125 416.6703125 -77.83203125 423.2703125 -77.83203125 430.0703125 C-51.43203125 430.0703125 -25.03203125 430.0703125 2.16796875 430.0703125 C2.16796875 423.4703125 2.16796875 416.8703125 2.16796875 410.0703125 C-24.23203125 410.0703125 -50.63203125 410.0703125 -77.83203125 410.0703125 Z " fill="#0C0A0A" transform="translate(287.83203125,34.9296875)"/>
<path d="M0 0 C21.12 0 42.24 0 64 0 C63.17807888 3.28768447 62.60771803 4.91092048 60.8984375 7.64453125 C60.49109375 8.32193359 60.08375 8.99933594 59.6640625 9.69726562 C58.80775356 11.10239075 57.94059079 12.50096102 57.0625 13.89257812 C54.82874204 17.65226309 53.97701797 19.44678979 54.1640625 23.94921875 C54.68949738 26.85453211 54.68949738 26.85453211 56 28 C60.10920134 29.03437637 60.10920134 29.03437637 64 28 C68.1470056 23.06425019 71.40168069 17.22295828 73.25022888 11.04393005 C74.87866058 6.40516388 76.82371569 2.76938925 81 0 C90.36496651 -2.69161468 100.72098172 -1.79178847 110.38454747 -1.52090907 C114.31192632 -1.42673477 118.23949775 -1.41829796 122.16783142 -1.40052795 C129.59586052 -1.35401809 137.02055347 -1.23110067 144.44711727 -1.08028561 C152.90618394 -0.9122557 161.36541542 -0.83006224 169.82573712 -0.75485408 C187.21908372 -0.59832368 204.60918851 -0.33472658 222 0 C222.37809814 0.70608398 222.75619629 1.41216797 223.14575195 2.13964844 C224.86460166 5.34493554 226.58849157 8.54748486 228.3125 11.75 C229.20485352 13.41675781 229.20485352 13.41675781 230.11523438 15.1171875 C230.69208984 16.18710938 231.26894531 17.25703125 231.86328125 18.359375 C232.39219971 19.34389648 232.92111816 20.32841797 233.46606445 21.34277344 C235.87710088 25.98631921 235.87710088 25.98631921 240.04296875 28.609375 C240.75066406 28.65578125 241.45835937 28.7021875 242.1875 28.75 C243.445625 28.8325 244.70375 28.915 246 29 C247.76698555 26.40149184 248.00071136 25.01442286 247.84375 21.83203125 C246.83499976 17.25062391 244.97782983 14.13246427 242.4375 10.25 C238 3.36817147 238 3.36817147 238 0 C259.12 0 280.24 0 302 0 C302 56.43 302 112.86 302 171 C291.11 171 280.22 171 269 171 C268.9906543 167.56231201 268.98130859 164.12462402 268.97167969 160.58276367 C268.93795994 149.24312618 268.88264125 137.90366345 268.81609726 126.5641737 C268.77626937 119.68690277 268.74389608 112.8097469 268.72900391 105.93237305 C268.71461972 99.2992212 268.6795517 92.6663894 268.63169098 86.03338051 C268.61681769 83.49879359 268.6089556 80.9641558 268.60811615 78.42952538 C268.60576268 74.88776718 268.57881249 71.34700711 268.54589844 67.80541992 C268.5509288 66.75022156 268.55595917 65.69502319 268.56114197 64.60784912 C268.54027275 63.16284279 268.54027275 63.16284279 268.51898193 61.68864441 C268.51529476 60.85073459 268.51160759 60.01282476 268.50780869 59.14952374 C268.16526305 56.85079941 268.16526305 56.85079941 266.2114439 55.23034859 C262.73302332 53.29511078 259.14931901 53.59191872 255.27172852 53.62768555 C253.95153717 53.62220955 253.95153717 53.62220955 252.60467529 53.61662292 C249.69588919 53.60851847 246.78766039 53.62212784 243.87890625 53.63671875 C241.85635885 53.63723742 239.83381094 53.63671947 237.81126404 53.63520813 C233.57193477 53.63529785 229.33279567 53.64572646 225.09350586 53.66381836 C219.66165199 53.6864909 214.23007636 53.68705219 208.79818821 53.68030071 C204.62116528 53.6769575 200.44420567 53.68359774 196.26719475 53.69342995 C194.26453928 53.69727723 192.26187675 53.69843212 190.25921822 53.6968441 C187.4585646 53.69647285 184.65826622 53.70911093 181.85766602 53.7253418 C181.03100937 53.72286438 180.20435272 53.72038696 179.35264587 53.71783447 C178.58586517 53.72491928 177.81908447 53.73200409 177.02906799 53.73930359 C176.36780694 53.74135646 175.70654589 53.74340933 175.02524662 53.74552441 C172.42533834 53.98555059 172.42533834 53.98555059 168 56 C168 93.95 168 131.9 168 171 C156.78 171 145.56 171 134 171 C133.67 133.05 133.34 95.1 133 56 C128.48464467 53.74232233 125.05294534 53.71089637 120.14819336 53.7253418 C118.80855278 53.7176754 118.80855278 53.7176754 117.44184875 53.70985413 C114.49111219 53.6959587 111.54060913 53.69691449 108.58984375 53.69921875 C106.54008395 53.69533255 104.49032496 53.69099804 102.44056702 53.68623352 C98.14581693 53.67877197 93.85114907 53.67906269 89.55639648 53.68432617 C84.04582638 53.69012881 78.53559151 53.67317025 73.02507687 53.6499815 C68.79323857 53.63527145 64.5614816 53.63436859 60.32962227 53.63749123 C58.29739275 53.63697691 56.26515881 53.6317185 54.23295403 53.62167931 C51.39588277 53.60938147 48.5594723 53.6160658 45.72241211 53.62768555 C44.87921417 53.62004181 44.03601624 53.61239807 43.16726685 53.60452271 C38.98139271 53.54006617 38.98139271 53.54006617 35.28576279 55.23034859 C33.62437825 57.51698461 33.61675301 58.87430298 33.60127258 61.68864441 C33.58873444 62.65198196 33.57619629 63.61531952 33.5632782 64.60784912 C33.56471329 65.66304749 33.56614838 66.71824585 33.56762695 67.80541992 C33.5574353 68.91776505 33.54724365 70.03011017 33.53674316 71.17616272 C33.50649552 74.86098185 33.49732905 78.54554153 33.48828125 82.23046875 C33.47144334 84.7820981 33.45329431 87.33371912 33.43388367 89.8853302 C33.39114945 95.92010436 33.36166153 101.95480332 33.33856028 107.98967296 C33.31152286 114.86030874 33.26761054 121.73080411 33.22227156 128.6013397 C33.12938694 142.73416652 33.05995157 156.86699708 33 171 C22.11 171 11.22 171 0 171 C-0.03738281 168.21949219 -0.07476562 165.43898438 -0.11328125 162.57421875 C-0.15948295 159.88346454 -0.21072147 157.1928502 -0.26245117 154.50219727 C-0.29572002 152.63118986 -0.32374585 150.76008162 -0.34643555 148.88891602 C-0.37994588 146.20024617 -0.43225865 143.51250202 -0.48828125 140.82421875 C-0.49467117 139.98662521 -0.5010611 139.14903168 -0.50764465 138.28605652 C-0.49050844 134.00700871 -0.49050844 134.00700871 -2.32780457 130.29792786 C-4.71898126 128.44193975 -7.04325407 128.32852733 -10 128 C-9.01 127.505 -9.01 127.505 -8 127 C-8 120.07 -8 113.14 -8 106 C-4.04 105.01 -4.04 105.01 0 104 C0 69.68 0 35.36 0 0 Z " fill="#B97402" transform="translate(99,152)"/>
<path d="M0 0 C24.75 0 49.5 0 75 0 C75 34.32 75 68.64 75 104 C50.25 104 25.5 104 0 104 C0 69.68 0 35.36 0 0 Z " fill="#73DDF1" transform="translate(280,219)"/>
<path d="M0 0 C24.75 0 49.5 0 75 0 C75 34.32 75 68.64 75 104 C50.25 104 25.5 104 0 104 C0 69.68 0 35.36 0 0 Z " fill="#73DDF1" transform="translate(145,219)"/>
<path d="M0 0 C2.98152075 1.10374729 3.69466706 1.98623706 5.33398438 4.671875 C5.83929688 5.48914062 6.34460938 6.30640625 6.86523438 7.1484375 C7.40148437 8.06367187 7.93773437 8.97890625 8.49023438 9.921875 C9.06773437 10.89898437 9.64523437 11.87609375 10.24023438 12.8828125 C12.18204574 16.21515827 14.09020204 19.56563695 15.99023438 22.921875 C16.69558966 24.16190397 17.40115994 25.40181066 18.10693359 26.64160156 C23.22798429 35.64820318 28.28133262 44.69225349 33.32666016 53.74145508 C37.4280271 61.07720003 41.62122795 68.35530985 45.86523438 75.609375 C46.44821289 76.60638428 47.03119141 77.60339355 47.63183594 78.63061523 C49.70960133 82.18087615 51.78807555 85.73067738 53.87695312 89.27441406 C55.04528195 91.25787692 56.20621506 93.24546369 57.36523438 95.234375 C57.98140625 96.28238281 58.59757812 97.33039063 59.23242188 98.41015625 C60.49023438 100.921875 60.49023438 100.921875 60.49023438 103.921875 C20.23023438 103.921875 -20.02976563 103.921875 -61.50976562 103.921875 C-60.60170047 99.38154925 -59.66350087 97.05167485 -57.40429688 93.15234375 C-56.75726807 92.02795898 -56.11023926 90.90357422 -55.44360352 89.74511719 C-54.73664306 88.53311435 -54.0295267 87.32120244 -53.32226562 86.109375 C-52.59698679 84.85483199 -51.87230322 83.59994466 -51.14819336 82.34472656 C-48.94516803 78.53138701 -46.72881524 74.72590593 -44.50976562 70.921875 C-43.85556641 69.7992627 -43.20136719 68.67665039 -42.52734375 67.52001953 C-40.13001994 63.40827242 -37.73087564 59.29760326 -35.32739258 55.18945312 C-29.58828314 45.37231523 -23.96646648 35.4957727 -18.57226562 25.484375 C-15.90697819 20.58054559 -13.13016004 15.74501917 -10.32226562 10.921875 C-9.89373291 10.17881104 -9.4652002 9.43574707 -9.02368164 8.67016602 C-8.61303467 7.96947998 -8.2023877 7.26879395 -7.77929688 6.546875 C-7.41425049 5.92039062 -7.0492041 5.29390625 -6.6730957 4.6484375 C-3.46830949 -0.10796294 -3.46830949 -0.10796294 0 0 Z " fill="#FCD72E" transform="translate(250.509765625,34.078125)"/>
<path d="M0 0 C4.5996923 1.61299422 8.47416048 4.02759275 12.5625 6.625 C13.26705322 7.06432861 13.97160645 7.50365723 14.69750977 7.95629883 C18.00773852 10.03443065 21.25640828 12.14672629 24.3984375 14.47265625 C30.62520413 19.21571804 30.62520413 19.21571804 38.125 20.125 C41.03063709 19.53961524 41.84700692 19.15299308 44 17 C44.65226562 17.45890625 45.30453125 17.9178125 45.9765625 18.390625 C47.77841992 19.65564585 49.58459068 20.91454023 51.39453125 22.16796875 C52.89387471 23.22222975 54.38008877 24.29707152 55.82421875 25.42578125 C57.44096338 26.72361528 57.44096338 26.72361528 60 28 C62.49552484 27.21869929 62.49552484 27.21869929 65 26 C71.7475605 26.11145907 75.97383396 29.20080055 81.375 33 C82.19355469 33.55945313 83.01210938 34.11890625 83.85546875 34.6953125 C89.72544643 38.72544643 89.72544643 38.72544643 91 40 C91.14115161 42.67058851 91.04247107 45.32432238 91 48 C91.72058594 48.25652344 92.44117188 48.51304688 93.18359375 48.77734375 C97.07517597 50.46675462 100.20296423 52.92546347 103.59765625 55.44140625 C105.82394934 56.88578177 107.41124407 57.56355847 110 58 C109.34 58.99 108.68 59.98 108 61 C108.11693622 64.54082876 108.38921347 66.3637109 110.87109375 68.94921875 C111.71800781 69.52285156 112.56492187 70.09648438 113.4375 70.6875 C114.42363281 71.35910156 115.40976562 72.03070313 116.42578125 72.72265625 C122.14101052 76.40624233 127.96009395 79.92476541 133.78125 83.4375 C143.46803964 89.29422919 143.46803964 89.29422919 147 92 C147 92.33 147 92.66 147 93 C134.83053823 93.18532575 122.66141185 93.32748962 110.49082661 93.41449738 C104.8394876 93.45625658 99.18911361 93.512899 93.53833008 93.60351562 C88.08528855 93.69041439 82.63317531 93.73826861 77.17949486 93.75901794 C75.09853687 93.77380484 73.01762997 93.80268155 70.93706703 93.84584045 C68.02243788 93.90389869 65.11164717 93.91191455 62.1965332 93.90820312 C60.90504364 93.95134644 60.90504364 93.95134644 59.58746338 93.99536133 C57.14339142 93.96167106 55.29371043 93.85175688 53 93 C50.75036581 90.58241295 49.38898809 87.97505052 48 85 C47.16142456 83.54799194 47.16142456 83.54799194 46.3059082 82.06665039 C45.56087036 80.72074829 45.56087036 80.72074829 44.80078125 79.34765625 C44.23665527 78.3328418 43.6725293 77.31802734 43.09130859 76.27246094 C42.50430176 75.21317383 41.91729492 74.15388672 41.3125 73.0625 C36.85955637 65.06694072 32.35450432 57.11386017 27.68432617 49.2434082 C22.88477386 41.14520121 18.242194 32.95792649 13.58496094 24.77734375 C11.91929058 21.85857203 10.24569165 18.94445874 8.5703125 16.03125 C8.01456543 15.06348633 7.45881836 14.09572266 6.88623047 13.09863281 C5.81133503 11.22726904 4.73488499 9.3567972 3.65673828 7.48730469 C3.1770459 6.65102539 2.69735352 5.81474609 2.203125 4.953125 C1.77676758 4.21223633 1.35041016 3.47134766 0.91113281 2.70800781 C0 1 0 1 0 0 Z " fill="#F7BC05" transform="translate(275,45)"/>
<path d="M0 0 C-1.28489762 3.42475796 -2.77479612 6.45348476 -4.703125 9.55859375 C-8.2115976 15.30717294 -11.48222891 21.17468972 -14.75 27.0625 C-18.75782454 34.25473858 -22.78789505 41.4252565 -27 48.5 C-35.69720753 63.12263695 -43.85410912 78.06586672 -52 93 C-83.35 93 -114.7 93 -147 93 C-144.60139572 90.60139572 -142.78582893 89.10617969 -139.97265625 87.36328125 C-139.18673096 86.87263184 -138.40080566 86.38198242 -137.59106445 85.87646484 C-136.75663818 85.36035645 -135.92221191 84.84424805 -135.0625 84.3125 C-129.59776891 80.90018033 -124.15163895 77.48113114 -118.8125 73.875 C-112.32731274 69.50944974 -105.69322891 65.39441817 -99.05126953 61.2734375 C-69.67623511 43.09002086 -69.67623511 43.09002086 -40.78125 24.16015625 C-40.10288086 23.7027002 -39.42451172 23.24524414 -38.72558594 22.77392578 C-37.44977021 21.91087397 -36.17676421 21.04364722 -34.90722656 20.17138672 C-32.41420595 18.48295098 -30.06875176 17.02740249 -27.265625 15.91015625 C-24.83177146 14.93241853 -23.78051154 13.87727848 -22 12 C-20.69303964 11.20493245 -19.35611668 10.45797268 -18 9.75 C-13.25528114 7.20234307 -8.77891278 4.31970477 -4.28515625 1.35546875 C-2 0 -2 0 0 0 Z " fill="#F7BC03" transform="translate(225,45)"/>
<path d="M0 0 C44.55 0 89.1 0 135 0 C135 6.93 135 13.86 135 21 C90.45 21 45.9 21 0 21 C0 14.07 0 7.14 0 0 Z " fill="#44528A" transform="translate(304,337)"/>
<path d="M0 0 C44.55 0 89.1 0 135 0 C135 6.93 135 13.86 135 21 C90.45 21 45.9 21 0 21 C0 14.07 0 7.14 0 0 Z " fill="#44528A" transform="translate(61,337)"/>
<path d="M0 0 C26.4 0 52.8 0 80 0 C80 6.93 80 13.86 80 21 C53.6 21 27.2 21 0 21 C0 14.07 0 7.14 0 0 Z " fill="#45528A" transform="translate(210,337)"/>
<path d="M0 0 C4.29 0 8.58 0 13 0 C13.01458252 0.95366455 13.02916504 1.9073291 13.04418945 2.88989258 C13.10217792 6.42933585 13.17940958 9.96814324 13.26245117 13.50708008 C13.29569818 15.03855059 13.32373093 16.57014356 13.34643555 18.10180664 C13.37998718 20.30407887 13.4322991 22.50522912 13.48828125 24.70703125 C13.49467117 25.39150833 13.5010611 26.07598541 13.50764465 26.78120422 C13.5949828 29.60701858 13.69225131 31.55830537 15.33276367 33.9128418 C17.76050141 35.49590171 20.15728541 35.68414282 23 36 C22.01 36.495 22.01 36.495 21 37 C21.10959718 40.29237055 21.24028931 43.58356887 21.375 46.875 C21.4059375 47.81214844 21.436875 48.74929688 21.46875 49.71484375 C21.50742188 50.61074219 21.54609375 51.50664062 21.5859375 52.4296875 C21.63306885 53.67081299 21.63306885 53.67081299 21.68115234 54.93701172 C21.82599137 57.21986085 21.82599137 57.21986085 24 59 C22.3603125 58.9071875 22.3603125 58.9071875 20.6875 58.8125 C17.18972333 58.69202767 17.18972333 58.69202767 15.30151367 60.0559082 C13.35293122 62.96653699 13.51993579 65.90219101 13.48828125 69.29296875 C13.47033005 69.99899734 13.45237885 70.70502594 13.43388367 71.43244934 C13.37976822 73.68407241 13.34588278 75.93548343 13.3125 78.1875 C13.27932781 79.71552431 13.24483823 81.24352063 13.20898438 82.77148438 C13.12404175 86.51416989 13.05723752 90.25679241 13 94 C8.71 94 4.42 94 0 94 C0 62.98 0 31.96 0 0 Z " fill="#B87403" transform="translate(99,372)"/>
<path d="M0 0 C4.29 0 8.58 0 13 0 C13 31.02 13 62.04 13 94 C8.71 94 4.42 94 0 94 C0 62.98 0 31.96 0 0 Z " fill="#B97403" transform="translate(388,372)"/>
<path d="M0 0 C0.90924225 0.00303635 1.8184845 0.00607269 2.75527954 0.00920105 C5.76687674 0.02250495 8.77808041 0.05116785 11.78955078 0.08154297 C13.88078573 0.09756 15.9720232 0.11325184 18.06326294 0.12863159 C22.44982676 0.16364952 26.83622005 0.2070273 31.22265625 0.25537109 C36.84389202 0.31603191 42.46492032 0.34930937 48.08640862 0.37542915 C52.40683637 0.39967806 56.72695244 0.44188645 61.04718399 0.48916245 C63.11956839 0.50902662 65.19202419 0.52250357 67.26449203 0.5294838 C70.16385942 0.54127164 73.06188849 0.57805567 75.9609375 0.62109375 C76.81721741 0.61920547 77.67349731 0.6173172 78.5557251 0.6153717 C82.23847423 0.6933606 84.75037352 1.03679691 88.14045715 2.56387329 C91.26472401 6.74381203 90.81176801 10.84708667 90.76928711 15.93408203 C90.77977081 17.02706604 90.79025452 18.12005005 90.80105591 19.24615479 C90.82986987 22.86084154 90.82350649 26.47457415 90.81689453 30.08935547 C90.83000562 32.59471847 90.84530801 35.10007089 90.86271667 37.60540771 C90.89856592 43.52686629 90.91230507 49.448115 90.91534108 55.36965728 C90.92049134 62.77373974 90.95995476 70.17757228 90.99853516 77.58154297 C91.06319409 90.78730278 91.09377083 103.99282206 91.10986328 117.19873047 C100.67986328 117.52873047 110.24986328 117.85873047 120.10986328 118.19873047 C120.10986328 80.90873047 120.10986328 43.61873047 120.10986328 5.19873047 C120.76986328 5.19873047 121.42986328 5.19873047 122.10986328 5.19873047 C122.10986328 43.14873047 122.10986328 81.09873047 122.10986328 120.19873047 C110.88986328 120.19873047 99.66986328 120.19873047 88.10986328 120.19873047 C87.77986328 82.24873047 87.44986328 44.29873047 87.10986328 5.19873047 C82.59126119 2.93942942 79.165379 2.91632309 74.25805664 2.93994141 C73.36496292 2.93643677 72.4718692 2.93293213 71.55171204 2.92932129 C68.60096454 2.92052187 65.65045695 2.92634635 62.69970703 2.93310547 C60.64994765 2.93175842 58.60018858 2.92981756 56.5504303 2.92730713 C52.25567583 2.92435839 47.96100457 2.92864596 43.66625977 2.93798828 C38.15575263 2.94938982 32.64544016 2.94281728 27.13494015 2.93084335 C22.90310696 2.92362416 18.67132011 2.92591284 14.43948555 2.93109894 C12.40726257 2.9324349 10.37503541 2.9307896 8.34281731 2.92613983 C5.50585623 2.92107289 2.66921275 2.92878694 -0.16772461 2.93994141 C-1.01092255 2.93589294 -1.85412048 2.93184448 -2.72286987 2.92767334 C-6.62795706 2.9561845 -8.56644642 2.98293694 -11.89013672 5.19873047 C-11.89013672 4.20873047 -11.89013672 3.21873047 -11.89013672 2.19873047 C-7.93927712 -0.43517593 -4.58088401 -0.05461477 0 0 Z " fill="#936216" transform="translate(144.89013671875,202.80126953125)"/>
<path d="M0 0 C21.12 0 42.24 0 64 0 C64 56.43 64 112.86 64 171 C53.11 171 42.22 171 31 171 C30.970271 165.84346802 30.970271 165.84346802 30.93994141 160.58276367 C30.87312881 149.24316738 30.79558853 137.90366157 30.71247292 126.5641737 C30.66232782 119.68692949 30.61588519 112.80969732 30.578125 105.93237305 C30.54169552 99.29929787 30.49499284 92.66634701 30.44193649 86.03338051 C30.42335881 83.49878527 30.40826343 80.96416212 30.39665604 78.42952538 C30.37985139 74.88802043 30.35083011 71.34681568 30.31884766 67.80541992 C30.31668747 66.75022156 30.31452728 65.69502319 30.31230164 64.60784912 C30.30113815 63.64451157 30.28997467 62.68117401 30.2784729 61.68864441 C30.27294214 60.85073459 30.26741138 60.01282476 30.26171303 59.14952374 C30.12756238 56.70376653 30.12756238 56.70376653 28 54 C29.32 54.33 30.64 54.66 32 55 C32 92.62 32 130.24 32 169 C41.9 169 51.8 169 62 169 C62 113.56 62 58.12 62 1 C42.2 1 22.4 1 2 1 C2.99 2.98 3.98 4.96 5 7 C4.67 7.99 4.34 8.98 4 10 C0 3.375 0 3.375 0 0 Z " fill="#A46D14" transform="translate(337,152)"/>
<path d="M0 0 C1.71638168 -0.00422974 1.71638168 -0.00422974 3.46743774 -0.00854492 C4.73397186 -0.00652069 6.00050598 -0.00449646 7.30541992 -0.00241089 C8.64382983 -0.00376492 9.98223937 -0.00554486 11.32064819 -0.00772095 C14.96517722 -0.01229505 18.60967807 -0.01050582 22.25420761 -0.00734186 C26.06009754 -0.00481814 29.86598498 -0.00715583 33.671875 -0.00872803 C40.06437617 -0.01054969 46.45686581 -0.00814351 52.84936523 -0.00338745 C60.2503327 0.00205516 67.65127262 0.0002925 75.05223942 -0.00521386 C81.39532489 -0.00974509 87.73840204 -0.01039549 94.08148861 -0.00777519 C97.87485646 -0.00621247 101.66821134 -0.00601851 105.46157837 -0.00931168 C109.02705811 -0.01219054 112.59250219 -0.01021443 116.15797806 -0.00441742 C118.0984314 -0.00245432 120.03888774 -0.00544361 121.9793396 -0.00854492 C123.12359406 -0.0057251 124.26784851 -0.00290527 125.44677734 0 C126.4474675 0.00037703 127.44815765 0.00075405 128.47917175 0.0011425 C130.72338867 0.12698364 130.72338867 0.12698364 131.72338867 1.12698364 C131.82255438 2.74955909 131.85418644 4.37638195 131.85620117 6.00198364 C131.85749023 6.98682739 131.8587793 7.97167114 131.86010742 8.98635864 C131.85624023 10.02276489 131.85237305 11.05917114 131.84838867 12.12698364 C131.85225586 13.16338989 131.85612305 14.19979614 131.86010742 15.26760864 C131.85817383 16.74487427 131.85817383 16.74487427 131.85620117 18.25198364 C131.85507324 19.16206177 131.85394531 20.07213989 131.8527832 21.00979614 C131.72338867 23.12698364 131.72338867 23.12698364 130.72338867 24.12698364 C128.96676843 24.22548352 127.20615691 24.25330441 125.44677734 24.25396729 C123.73039566 24.25819702 123.73039566 24.25819702 121.9793396 24.26251221 C120.71280548 24.26048798 119.44627136 24.25846375 118.14135742 24.25637817 C116.80294751 24.25773221 115.46453798 24.25951215 114.12612915 24.26168823 C110.48160012 24.26626234 106.83709928 24.2644731 103.19256973 24.26130915 C99.3866798 24.25878543 95.58079236 24.26112312 91.77490234 24.26269531 C85.38240117 24.26451697 78.98991153 24.26211079 72.59741211 24.25735474 C65.19644464 24.25191212 57.79550472 24.25367478 50.39453793 24.25918114 C44.05145246 24.26371237 37.7083753 24.26436277 31.36528873 24.26174247 C27.57192089 24.26017975 23.778566 24.25998579 19.98519897 24.26327896 C16.41971923 24.26615782 12.85427516 24.26418171 9.28879929 24.2583847 C7.34834594 24.2564216 5.4078896 24.25941089 3.46743774 24.26251221 C2.32318329 24.25969238 1.17892883 24.25687256 0 24.25396729 C-1.00069016 24.25359026 -2.00138031 24.25321323 -3.03239441 24.25282478 C-5.27661133 24.12698364 -5.27661133 24.12698364 -6.27661133 23.12698364 C-6.37577703 21.5044082 -6.4074091 19.87758533 -6.40942383 18.25198364 C-6.41071289 17.26713989 -6.41200195 16.28229614 -6.41333008 15.26760864 C-6.40946289 14.23120239 -6.4055957 13.19479614 -6.40161133 12.12698364 C-6.40741211 10.57237427 -6.40741211 10.57237427 -6.41333008 8.98635864 C-6.41204102 8.00151489 -6.41075195 7.01667114 -6.40942383 6.00198364 C-6.4082959 5.09190552 -6.40716797 4.18182739 -6.40600586 3.24417114 C-6.15065473 -0.93395152 -3.6051845 0.00135831 0 0 Z M-4.27661133 1.12698364 C-4.27661133 8.05698364 -4.27661133 14.98698364 -4.27661133 22.12698364 C40.27338867 22.12698364 84.82338867 22.12698364 130.72338867 22.12698364 C130.72338867 15.19698364 130.72338867 8.26698364 130.72338867 1.12698364 C86.17338867 1.12698364 41.62338867 1.12698364 -4.27661133 1.12698364 Z " fill="#151C34" transform="translate(65.276611328125,335.8730163574219)"/>
<path d="M0 0 C4.05373803 1.21850969 7.42073492 3.64213564 10.90551758 5.98535156 C11.67637695 6.48035156 12.44723633 6.97535156 13.24145508 7.48535156 C18.89676523 11.20909451 18.89676523 11.20909451 20.03051758 14.61035156 C20.59141501 20.89240284 20.59141501 20.89240284 18.46801758 23.61035156 C15.10305132 24.99085054 12.43483255 24.61154844 9.03051758 23.61035156 C5.90881657 22.03120915 3.04783778 20.13514121 0.15551758 18.17285156 C-0.6153418 17.66947266 -1.38620117 17.16609375 -2.18041992 16.64746094 C-7.82004714 12.90922212 -7.82004714 12.90922212 -8.96948242 10.61035156 C-9.32700735 6.74908237 -9.4899524 4.44310352 -7.40698242 1.11035156 C-4.61970733 -0.60489465 -3.1711775 -0.54100693 0 0 Z " fill="#0F0C08" transform="translate(344.969482421875,71.3896484375)"/>
<path d="M0 0 C0.66 0.33 1.32 0.66 2 1 C1.67 38.62 1.34 76.24 1 115 C-9.89 115 -20.78 115 -32 115 C-32.06058594 112.21949219 -32.12117188 109.43898438 -32.18359375 106.57421875 C-32.24538876 103.8835174 -32.30877414 101.1928579 -32.37231445 98.50219727 C-32.41564622 96.63114134 -32.45732257 94.76004631 -32.49731445 92.88891602 C-32.55505949 90.20056369 -32.61874181 87.51240785 -32.68359375 84.82421875 C-32.70030624 83.98662521 -32.71701874 83.14903168 -32.73423767 82.28605652 C-32.81914061 78.96326712 -32.94250673 76.17247982 -34 73 C-33.34 73 -32.68 73 -32 73 C-30.36054037 76.27891925 -30.87969822 79.90613534 -30.90234375 83.5078125 C-30.90446617 84.76874222 -30.90446617 84.76874222 -30.90663147 86.05514526 C-30.91223763 88.74513275 -30.92479114 91.43503759 -30.9375 94.125 C-30.94251421 95.94661338 -30.94707725 97.76822807 -30.95117188 99.58984375 C-30.961359 104.05995344 -30.98093315 108.52988399 -31 113 C-21.1 113 -11.2 113 -1 113 C-1.00523682 110.03878174 -1.01047363 107.07756348 -1.01586914 104.02661133 C-1.03249565 94.20388303 -1.04350739 84.38115409 -1.05181217 74.55841541 C-1.05701378 68.60737674 -1.06406159 62.65635259 -1.07543945 56.70532227 C-1.08636556 50.95408169 -1.09229731 45.202855 -1.09487724 39.45160484 C-1.09671406 37.26576201 -1.10030064 35.07991988 -1.10573006 32.89408302 C-1.1581055 10.91898731 -1.1581055 10.91898731 0 0 Z " fill="#9F6A0F" transform="translate(131,208)"/>
<path d="M0 0 C4.29 0 8.58 0 13 0 C13.01458252 0.95366455 13.02916504 1.9073291 13.04418945 2.88989258 C13.10217792 6.42933585 13.17940958 9.96814324 13.26245117 13.50708008 C13.29569818 15.03855059 13.32373093 16.57014356 13.34643555 18.10180664 C13.37998718 20.30407887 13.4322991 22.50522912 13.48828125 24.70703125 C13.49467117 25.39150833 13.5010611 26.07598541 13.50764465 26.78120422 C13.5949828 29.60701858 13.69225131 31.55830537 15.33276367 33.9128418 C17.76050141 35.49590171 20.15728541 35.68414282 23 36 C22.01 36.495 22.01 36.495 21 37 C21.10959718 40.29237055 21.24028931 43.58356887 21.375 46.875 C21.4059375 47.81214844 21.436875 48.74929688 21.46875 49.71484375 C21.50742188 50.61074219 21.54609375 51.50664062 21.5859375 52.4296875 C21.63306885 53.67081299 21.63306885 53.67081299 21.68115234 54.93701172 C21.82599137 57.21986085 21.82599137 57.21986085 24 59 C21.36 59 18.72 59 16 59 C16 58.34 16 57.68 16 57 C16.99 57 17.98 57 19 57 C19 50.4 19 43.8 19 37 C17.68 37 16.36 37 15 37 C12.34740412 34.64396531 12.01531883 33.15255139 11.65942383 29.60839844 C11.67513428 28.2887207 11.69084473 26.96904297 11.70703125 25.609375 C11.71127609 24.90476135 11.71552094 24.20014771 11.71989441 23.47418213 C11.73663462 21.23239288 11.77427596 18.99151569 11.8125 16.75 C11.82755296 15.22657552 11.8412403 13.70313689 11.85351562 12.1796875 C11.88652209 8.45283059 11.93827146 4.72650437 12 1 C8.37 1 4.74 1 1 1 C1.33 31.03 1.66 61.06 2 92 C5.3 92.33 8.6 92.66 12 93 C12 82.11 12 71.22 12 60 C12.99 60.33 13.98 60.66 15 61 C14.505 61.495 14.505 61.495 14 62 C13.84028023 64.37338639 13.7407567 66.72118272 13.68359375 69.09765625 C13.66281265 69.80651474 13.64203156 70.51537323 13.62062073 71.24571228 C13.55505402 73.51787305 13.4962077 75.79015264 13.4375 78.0625 C13.39432151 79.59962183 13.35070745 81.1367315 13.30664062 82.67382812 C13.19936551 86.4490959 13.09811863 90.2244836 13 94 C8.71 94 4.42 94 0 94 C0 62.98 0 31.96 0 0 Z " fill="#A8721E" transform="translate(99,372)"/>
<path d="M0 0 C4.29 0 8.58 0 13 0 C13 31.02 13 62.04 13 94 C8.71 94 4.42 94 0 94 C0 62.98 0 31.96 0 0 Z M3 3 C0.43254346 5.56745654 0.76006781 7.25931039 0.74005127 10.75886536 C0.74567078 11.56361801 0.75129028 12.36837067 0.75708008 13.19750977 C0.75518173 14.04475616 0.75328339 14.89200256 0.75132751 15.7649231 C0.74761367 18.57384404 0.75833175 21.38250817 0.76953125 24.19140625 C0.77072272 26.13671335 0.77117628 28.08202104 0.7709198 30.02732849 C0.77248567 34.10704136 0.78078384 38.1866666 0.79418945 42.26635742 C0.8111907 47.50803517 0.81500354 52.74961662 0.81424427 57.9913187 C0.81451557 62.0086103 0.81999008 66.02588065 0.82724571 70.04316521 C0.83043811 71.97656023 0.83240111 73.90995766 0.83313942 75.84335518 C0.83529632 78.53957386 0.84402605 81.2356883 0.85473633 83.93188477 C0.85428314 84.73866165 0.85382996 85.54543854 0.85336304 86.37666321 C0.53618505 89.98613809 0.53618505 89.98613809 2 93 C5.3 93 8.6 93 12 93 C12 62.64 12 32.28 12 1 C8.80906156 1 6.01884759 2.02965613 3 3 Z " fill="#A9741D" transform="translate(388,372)"/>
<path d="M0 0 C0.66 0 1.32 0 2 0 C2 31.02 2 62.04 2 94 C1.01 94 0.02 94 -1 94 C-0.67 62.98 -0.34 31.96 0 0 Z " fill="#2B1400" transform="translate(97,372)"/>
<path d="M0 0 C21.78 0 43.56 0 66 0 C65.67 0.99 65.34 1.98 65 3 C65 2.34 65 1.68 65 1 C43.88 1 22.76 1 1 1 C1.33 35.32 1.66 69.64 2 105 C-2.85213172 106.61737724 -5.18201244 107.22942798 -10 107 C-7.03145514 105.46075452 -4.13384992 104.25353997 -1 103 C-0.67 69.01 -0.34 35.02 0 0 Z " fill="#4E2E02" transform="translate(98,151)"/>
<path d="M0 0 C11.8130765 -0.06943466 23.62610464 -0.12277803 35.43934345 -0.15543652 C40.92439786 -0.17110899 46.40931291 -0.19237618 51.89428711 -0.22631836 C57.1851406 -0.2588553 62.47585985 -0.27684109 67.76680565 -0.28463173 C69.78788556 -0.29018543 71.80895792 -0.30103011 73.82998085 -0.31719017 C76.65545296 -0.3388891 79.48036652 -0.34197008 82.3059082 -0.34057617 C83.56610527 -0.35675491 83.56610527 -0.35675491 84.85176086 -0.3732605 C90.65784352 -0.34215648 90.65784352 -0.34215648 94 3 C47.47 2.505 47.47 2.505 0 2 C0 1.34 0 0.68 0 0 Z " fill="#321900" transform="translate(272,205)"/>
<path d="M0 0 C1.03701711 0.00460896 2.07403421 0.00921793 3.14247608 0.01396656 C4.92825565 0.00365658 4.92825565 0.00365658 6.75011158 -0.00686169 C8.05777988 0.01111469 9.36544819 0.02909107 10.71274281 0.04761219 C12.10232969 0.04902241 13.4919203 0.04823119 14.88150501 0.04539967 C18.65632575 0.04396303 22.43035467 0.07339157 26.2049911 0.10826945 C30.14876257 0.13949243 34.09255151 0.14246046 38.0364275 0.14839649 C45.50573048 0.16394698 52.97466824 0.20499142 60.44381028 0.25514394 C68.94668942 0.3110002 77.44958586 0.33851449 85.95260274 0.36362112 C103.44488229 0.41590648 120.93680618 0.50387182 138.42880726 0.61523914 C141.42880726 6.36523914 141.42880726 6.36523914 141.42880726 8.61523914 C139.42880726 8.61523914 139.42880726 8.61523914 137.80380726 7.36523914 C136.42880726 5.61523914 136.42880726 5.61523914 136.42880726 1.61523914 C119.19130457 1.69915934 101.95390517 1.79430019 84.71654034 1.90276623 C76.71277111 1.95286885 68.709012 1.99931203 60.70517445 2.03711414 C53.72830124 2.07007522 46.75150713 2.10992916 39.77472126 2.1580292 C36.08123285 2.18325332 32.38779662 2.2050466 28.69424534 2.21858311 C24.56902946 2.23383085 20.44406452 2.26446839 16.31894398 2.29639149 C14.48582912 2.29963177 14.48582912 2.29963177 12.61568165 2.30293751 C11.48835117 2.31410099 10.3610207 2.32526447 9.19952869 2.33676624 C8.22427172 2.342297 7.24901474 2.34782776 6.24420452 2.35352612 C3.04066652 2.65131984 0.40269822 3.39611426 -2.57119274 4.61523914 C-2.90119274 5.27523914 -3.23119274 5.93523914 -3.57119274 6.61523914 C-4.23119274 6.28523914 -4.89119274 5.95523914 -5.57119274 5.61523914 C-3.33538815 0.79809705 -3.33538815 0.79809705 0 0 Z " fill="#9E6A11" transform="translate(182.57119274139404,151.38476085662842)"/>
<path d="M0 0 C0.66 0.33 1.32 0.66 2 1 C1.01 2.485 1.01 2.485 0 4 C-0.66 4 -1.32 4 -2 4 C-2 40.3 -2 76.6 -2 114 C-1.34 114.33 -0.68 114.66 0 115 C-1.485 115.99 -1.485 115.99 -3 117 C-3.07001752 102.0404421 -3.12295249 87.08089687 -3.15543652 72.1212101 C-3.17091895 65.17547765 -3.19203455 58.22984688 -3.22631836 51.28417969 C-3.25936323 44.58633392 -3.27683304 37.88861583 -3.28463173 31.19068527 C-3.29019228 28.63010363 -3.30104998 26.06952805 -3.31719017 23.50899124 C-3.33883837 19.93376205 -3.34197218 16.35897515 -3.34057617 12.78369141 C-3.351362 11.71554703 -3.36214783 10.64740265 -3.3732605 9.54689026 C-3.36913651 8.57651321 -3.36501251 7.60613617 -3.36076355 6.60635376 C-3.36352893 5.7601478 -3.36629431 4.91394184 -3.36914349 4.04209328 C-3.24732614 3.3682025 -3.12550879 2.69431171 -3 2 C-2.01 1.34 -1.02 0.68 0 0 Z " fill="#100100" transform="translate(270,206)"/>
<path d="M0 0 C0.99 0.33 1.98 0.66 3 1 C3 38.95 3 76.9 3 116 C2.67 116 2.34 116 2 116 C1.99576806 115.42646915 1.99153612 114.85293831 1.98717594 114.26202774 C1.88387576 100.30740193 1.77517739 86.35282716 1.66066074 72.39828873 C1.60538036 65.6499834 1.55190692 58.90167278 1.50268555 52.15332031 C1.45519872 45.64347268 1.4026787 39.13367704 1.34705925 32.62389374 C1.32664457 30.13756376 1.30793002 27.65121923 1.29092598 25.16486359 C1.26686251 21.68830598 1.2368103 18.21184873 1.20532227 14.73535156 C1.1995668 13.70244995 1.19381134 12.66954834 1.18788147 11.60534668 C1.17809265 10.65746277 1.16830383 9.70957886 1.15821838 8.73297119 C1.15176583 7.91073185 1.14531328 7.08849251 1.1386652 6.24133682 C1.00262576 4.04244187 0.60764828 2.1128825 0 0 Z " fill="#0B0000" transform="translate(230,207)"/>
<path d="M0 0 C4.29 0 8.58 0 13 0 C13.01458252 0.95366455 13.02916504 1.9073291 13.04418945 2.88989258 C13.10217792 6.42933585 13.17940958 9.96814324 13.26245117 13.50708008 C13.29569818 15.03855059 13.32373093 16.57014356 13.34643555 18.10180664 C13.37998718 20.30407887 13.4322991 22.50522912 13.48828125 24.70703125 C13.49467117 25.39150833 13.5010611 26.07598541 13.50764465 26.78120422 C13.5949828 29.60701858 13.69225131 31.55830537 15.33276367 33.9128418 C17.76050141 35.49590171 20.15728541 35.68414282 23 36 C22.01 36.495 22.01 36.495 21 37 C21.10959718 40.29237055 21.24028931 43.58356887 21.375 46.875 C21.4059375 47.81214844 21.436875 48.74929688 21.46875 49.71484375 C21.50742188 50.61074219 21.54609375 51.50664062 21.5859375 52.4296875 C21.63306885 53.67081299 21.63306885 53.67081299 21.68115234 54.93701172 C21.82599137 57.21986085 21.82599137 57.21986085 24 59 C21.36 59 18.72 59 16 59 C16 58.34 16 57.68 16 57 C16.99 57 17.98 57 19 57 C19 50.4 19 43.8 19 37 C17.68 37 16.36 37 15 37 C12.34740412 34.64396531 12.01531883 33.15255139 11.65942383 29.60839844 C11.67513428 28.2887207 11.69084473 26.96904297 11.70703125 25.609375 C11.71127609 24.90476135 11.71552094 24.20014771 11.71989441 23.47418213 C11.73663462 21.23239288 11.77427596 18.99151569 11.8125 16.75 C11.82755296 15.22657552 11.8412403 13.70313689 11.85351562 12.1796875 C11.88652209 8.45283059 11.93827146 4.72650437 12 1 C8.04 1 4.08 1 0 1 C0 0.67 0 0.34 0 0 Z " fill="#AE853F" transform="translate(99,372)"/>
<path d="M0 0 C2.375 0.3125 2.375 0.3125 5 1 C7.62202981 4.93304472 7.25148527 8.26625069 7.1953125 12.82421875 C7.1924826 13.68561966 7.18965271 14.54702057 7.18673706 15.43452454 C7.17554237 18.18565769 7.15043921 20.93646525 7.125 23.6875 C7.11496927 25.55272967 7.10584359 27.41796445 7.09765625 29.28320312 C7.07560538 33.8555942 7.04108049 38.42774189 7 43 C6.34 43 5.68 43 5 43 C3.71763659 39.15290977 3.98498659 35.60987329 4.12109375 31.61328125 C4.14470474 30.79627243 4.16831573 29.97926361 4.19264221 29.13749695 C4.26919218 26.52898407 4.35325372 23.92077456 4.4375 21.3125 C4.49072937 19.54363462 4.54346972 17.77475445 4.59570312 16.00585938 C4.72479559 11.67038094 4.86062511 7.33515957 5 3 C3.35 2.67 1.7 2.34 0 2 C0 1.34 0 0.68 0 0 Z " fill="#2D1500" transform="translate(92,280)"/>
<path d="M0 0 C1.24546405 2.49092811 0.7767578 3.41080733 0 6 C-0.66 6 -1.32 6 -2 6 C-1.80470703 6.88751953 -1.80470703 6.88751953 -1.60546875 7.79296875 C-1.17328233 10.26895264 -0.89068998 12.48586946 -1 15 C-3.3125 18.0625 -3.3125 18.0625 -6 20 C-6.66 20 -7.32 20 -8 20 C-8.33 20.66 -8.66 21.32 -9 22 C-9.66 21.67 -10.32 21.34 -11 21 C-9.34788061 16.5366827 -7.18875815 12.43033267 -4.9375 8.25 C-4.57333984 7.56550781 -4.20917969 6.88101563 -3.83398438 6.17578125 C-1.13267924 1.13267924 -1.13267924 1.13267924 0 0 Z " fill="#F2D133" transform="translate(233,58)"/>
<path d="M0 0 C0.33 0 0.66 0 1 0 C1.45717704 4.87655513 -0.14885052 8.59776392 -2 13 C-2.309375 13.804375 -2.61875 14.60875 -2.9375 15.4375 C-4 17 -4 17 -6.125 17.75 C-7.053125 17.87375 -7.053125 17.87375 -8 18 C-7.47291846 13.12449577 -6.02199308 9.81109507 -3.5 5.625 C-2.8709375 4.56539063 -2.241875 3.50578125 -1.59375 2.4140625 C-1.0678125 1.61742188 -0.541875 0.82078125 0 0 Z " fill="#E7C63A" transform="translate(198,119)"/>
<path d="M0 0 C-1.64178265 4.77609498 -4.26546702 8.79382904 -7 13 C-7.2475 12.38125 -7.495 11.7625 -7.75 11.125 C-9.20628639 8.64931313 -10.37812506 8.04874998 -13 7 C-11.21190303 5.82786955 -9.41940875 4.66244474 -7.625 3.5 C-6.62726563 2.8503125 -5.62953125 2.200625 -4.6015625 1.53125 C-2 0 -2 0 0 0 Z " fill="#E4B112" transform="translate(225,45)"/>
<path d="M0 0 C3.33820566 1.3027144 4.61382141 3.04089548 6.5625 6 C6.5625 6.66 6.5625 7.32 6.5625 8 C5.9025 8 5.2425 8 4.5625 8 C4.2325 6.68 3.9025 5.36 3.5625 4 C2.5725 4 1.5825 4 0.5625 4 C0.2325 4.66 -0.0975 5.32 -0.4375 6 C-3.4375 8 -3.4375 8 -7.4375 8 C-4.62668919 0 -4.62668919 0 0 0 Z " fill="#E0C73B" transform="translate(250.4375,34)"/>
<path d="M0 0 C1.051875 0.67095703 1.051875 0.67095703 2.125 1.35546875 C7.73407926 4.92973257 13.3539018 8.4845049 19 12 C18.67 12.66 18.34 13.32 18 14 C17.01 13.67 16.02 13.34 15 13 C15 12.34 15 11.68 15 11 C13.68 11.33 12.36 11.66 11 12 C10.67 10.68 10.34 9.36 10 8 C9.071875 7.87625 8.14375 7.7525 7.1875 7.625 C3.37573291 6.87759469 1.2094615 5.139641 -2 3 C-1.34 2.01 -0.68 1.02 0 0 Z " fill="#EDC242" transform="translate(318,62)"/>
<path d="M0 0 C-1.05166468 3.15499404 -1.4757517 3.98060136 -4 6 C-6.32481174 7.01965427 -8.65794699 8.02059602 -11 9 C-11.66 9.66 -12.32 10.32 -13 11 C-14.32 11 -15.64 11 -17 11 C-17 11.66 -17 12.32 -17 13 C-18.32 12.67 -19.64 12.34 -21 12 C-18.77144622 10.56154242 -16.54218143 9.12420781 -14.3125 7.6875 C-13.68666016 7.28337891 -13.06082031 6.87925781 -12.41601562 6.46289062 C-2.38014482 0 -2.38014482 0 0 0 Z " fill="#D1A514" transform="translate(119,112)"/>
<path d="M0 0 C1.0625 1.8125 1.0625 1.8125 2 4 C1.67 4.99 1.34 5.98 1 7 C0.34 7 -0.32 7 -1 7 C-0.9175 7.7425 -0.835 8.485 -0.75 9.25 C-1 12 -1 12 -2.8125 14.3125 C-5 16 -5 16 -8 16 C-6.57250019 12.20950293 -4.83763458 8.72877544 -2.875 5.1875 C-2.33617187 4.21167969 -1.79734375 3.23585938 -1.2421875 2.23046875 C-0.83226562 1.49441406 -0.42234375 0.75835937 0 0 Z " fill="#EDCD39" transform="translate(221,79)"/>
<path d="M0 0 C2.70734849 2.39771039 4.05748434 4.92101506 5.6875 8.125 C7.71750366 11.79092224 7.71750366 11.79092224 11.16796875 13.875 C13.60571332 14.20579974 13.60571332 14.20579974 17 14 C17.33 13.01 17.66 12.02 18 11 C18.33 11.66 18.66 12.32 19 13 C18.67 13.66 18.34 14.32 18 15 C16.41753293 15.08153933 14.83383727 15.13943557 13.25 15.1875 C12.36828125 15.22230469 11.4865625 15.25710937 10.578125 15.29296875 C7.4928302 14.94236707 6.2011999 14.16117809 4 12 C3.25 8.8125 3.25 8.8125 3 6 C2.34 6 1.68 6 1 6 C0.67 4.02 0.34 2.04 0 0 Z " fill="#956511" transform="translate(328,167)"/>
<path d="M0 0 C0.66 0.33 1.32 0.66 2 1 C0.36012756 3.83682399 -1.28786691 6.66884252 -2.9375 9.5 C-3.40607422 10.31082031 -3.87464844 11.12164062 -4.35742188 11.95703125 C-5.0293457 13.10751953 -5.0293457 13.10751953 -5.71484375 14.28125 C-6.33540649 15.34956055 -6.33540649 15.34956055 -6.96850586 16.43945312 C-7.47909546 17.21192383 -7.47909546 17.21192383 -8 18 C-8.33 18 -8.66 18 -9 18 C-9.125 15.625 -9.125 15.625 -9 13 C-8.34 12.34 -7.68 11.68 -7 11 C-6.731875 10.071875 -6.46375 9.14375 -6.1875 8.1875 C-4.80105395 4.46598692 -2.9308665 2.62235423 0 0 Z " fill="#E2B619" transform="translate(210,68)"/>
<path d="M0 0 C3.54997152 1.41998861 6.18729934 2.6121589 9.3125 4.625 C10.00988281 5.07101563 10.70726562 5.51703125 11.42578125 5.9765625 C11.94527344 6.31429687 12.46476562 6.65203125 13 7 C11.02 7.99 11.02 7.99 9 9 C9 8.34 9 7.68 9 7 C8.01 7 7.02 7 6 7 C5.67 7.99 5.34 8.98 5 10 C3.35 6.7 1.7 3.4 0 0 Z " fill="#E1B116" transform="translate(275,45)"/>
<path d="M0 0 C0.33 0 0.66 0 1 0 C1 2.64 1 5.28 1 8 C7.31268603 8.37552165 7.31268603 8.37552165 13 6 C12 8.5 12 8.5 10 11 C7.21795276 11.70130774 4.79354579 11.61562548 2 11 C-0.0625 9.4375 -0.0625 9.4375 -1 7 C-0.6875 3.25 -0.6875 3.25 0 0 Z " fill="#2C1200" transform="translate(153,170)"/>
<path d="M0 0 C0.66 1.32 1.32 2.64 2 4 C1.071875 4.8353125 1.071875 4.8353125 0.125 5.6875 C-2.11730911 8.12765992 -2.8332656 9.9373222 -4 13 C-6 16.3125 -6 16.3125 -8 19 C-8.66 19 -9.32 19 -10 19 C-8.40376856 14.60616294 -6.21975667 10.71004193 -3.875 6.6875 C-3.50246094 6.04232422 -3.12992188 5.39714844 -2.74609375 4.73242188 C-1.83367787 3.15324055 -0.91724491 1.57638136 0 0 Z " fill="#DAC23C" transform="translate(212,95)"/>
<path d="M0 0 C1 3 1 3 0.0625 5.1875 C-0.288125 5.785625 -0.63875 6.38375 -1 7 C-2.4370809 7.05422947 -3.87475462 7.09289723 -5.3125 7.125 C-6.11300781 7.14820313 -6.91351563 7.17140625 -7.73828125 7.1953125 C-10 7 -10 7 -13 5 C-12.67 4.34 -12.34 3.68 -12 3 C-11.67 3.33 -11.34 3.66 -11 4 C-6.9685726 4.33136144 -6.9685726 4.33136144 -3 4 C-0.94729537 2.15811388 -0.94729537 2.15811388 0 0 Z " fill="#9C6A10" transform="translate(166,176)"/>
<path d="M0 0 C0 0.66 0 1.32 0 2 C-0.99 2 -1.98 2 -3 2 C-3.33 2.99 -3.66 3.98 -4 5 C-4.99 5 -5.98 5 -7 5 C-7 5.99 -7 6.98 -7 8 C-9.31 8.33 -11.62 8.66 -14 9 C-11.69806101 6.53522288 -9.24011346 4.68244803 -6.4375 2.8125 C-5.65246094 2.28269531 -4.86742187 1.75289063 -4.05859375 1.20703125 C-2 0 -2 0 0 0 Z " fill="#C89E13" transform="translate(188,68)"/>
<path d="M0 0 C1.24546405 2.49092811 0.7767578 3.41080733 0 6 C-0.66 6 -1.32 6 -2 6 C-2.28875 6.9075 -2.5775 7.815 -2.875 8.75 C-3.76531776 11.32202908 -4.71494413 13.61346766 -6 16 C-6.66 16 -7.32 16 -8 16 C-6.42986223 10.03347646 -3.24970218 5.17090975 0 0 Z " fill="#BDA533" transform="translate(233,58)"/>
<path d="M0 0 C4.29 0 8.58 0 13 0 C9.70572237 2.19618509 6.79781593 2.96423202 3 4 C2.01 4.495 2.01 4.495 1 5 C0.67 3.35 0.34 1.7 0 0 Z " fill="#9C6609" transform="translate(388,372)"/>
<path d="M0 0 C4 4.5 4 4.5 4 9 C1.69 9 -0.62 9 -3 9 C-2.505 8.62875 -2.01 8.2575 -1.5 7.875 C0.59755514 5.25305607 0.21743835 3.26157528 0 0 Z " fill="#E6C93B" transform="translate(306,128)"/>
<path d="M0 0 C-1.1858237 3.37503669 -2.27573689 5.64722731 -5 8 C-5 7.01 -5 6.02 -5 5 C-5.99 4.67 -6.98 4.34 -8 4 C-2.25 0 -2.25 0 0 0 Z " fill="#C9A321" transform="translate(225,45)"/>
<path d="M0 0 C0.66 0.99 1.32 1.98 2 3 C1.360625 3.28875 0.72125 3.5775 0.0625 3.875 C-2.15206079 4.82823451 -2.15206079 4.82823451 -3 7 C-4.98 7 -6.96 7 -9 7 C-6.24479785 4.04070881 -3.53372712 1.96318174 0 0 Z " fill="#E1B317" transform="translate(92,128)"/>
<path d="M0 0 C0.66 1.32 1.32 2.64 2 4 C1.67 4.99 1.34 5.98 1 7 C0.34 7 -0.32 7 -1 7 C-1.33 7.99 -1.66 8.98 -2 10 C-2.99 9.67 -3.98 9.34 -5 9 C-3.35 6.03 -1.7 3.06 0 0 Z " fill="#E1C23D" transform="translate(221,79)"/>
<path d="M0 0 C0.99 0.33 1.98 0.66 3 1 C2.19152271 2.16945792 1.37810888 3.33550461 0.5625 4.5 C0.11003906 5.1496875 -0.34242187 5.799375 -0.80859375 6.46875 C-1.20175781 6.9740625 -1.59492187 7.479375 -2 8 C-2.33 8 -2.66 8 -3 8 C-3.36923077 3.44615385 -3.36923077 3.44615385 -1.5 1.1875 C-1.005 0.795625 -0.51 0.40375 0 0 Z " fill="#210D00" transform="translate(116,430)"/>
<path d="M0 0 C0.99 0.33 1.98 0.66 3 1 C3 6.28 3 11.56 3 17 C2.67 17 2.34 17 2 17 C1.93941406 16.10796875 1.87882813 15.2159375 1.81640625 14.296875 C1.73261719 13.12640625 1.64882812 11.9559375 1.5625 10.75 C1.48128906 9.58984375 1.40007812 8.4296875 1.31640625 7.234375 C1.06752213 4.69022624 0.71885058 2.44046752 0 0 Z " fill="#1E0A01" transform="translate(230,207)"/>
<path d="M0 0 C1.98 0.99 3.96 1.98 6 3 C3.36095629 4.41377341 0.92879371 5.37240135 -2 6 C-1.34 4.02 -0.68 2.04 0 0 Z " fill="#E8B211" transform="translate(388,116)"/>
<path d="M0 0 C4.875 1.75 4.875 1.75 6 4 C6.039992 5.99960012 6.04346799 8.00047242 6 10 C3.47650757 6.87567603 1.72743854 3.61939504 0 0 Z " fill="#E2AF15" transform="translate(311,108)"/>
<path d="M0 0 C0 0.66 0 1.32 0 2 C-1.64333504 3.03789581 -3.31243867 4.03567924 -5 5 C-5.66 5.66 -6.32 6.32 -7 7 C-7.99 6.34 -8.98 5.68 -10 5 C-8.71186658 4.16121545 -7.41936744 3.32913217 -6.125 2.5 C-5.40570313 2.0359375 -4.68640625 1.571875 -3.9453125 1.09375 C-2 0 -2 0 0 0 Z " fill="#C69B11" transform="translate(138,100)"/>
<path d="M0 0 C2.97 0 5.94 0 9 0 C9.33 0.99 9.66 1.98 10 3 C7.03 3 4.06 3 1 3 C0.67 2.01 0.34 1.02 0 0 Z " fill="#D0A20E" transform="translate(307,65)"/>
<path d="M0 0 C0 0.99 0 1.98 0 3 C-0.99 3 -1.98 3 -3 3 C-3 3.66 -3 4.32 -3 5 C-4.98 5.33 -6.96 5.66 -9 6 C-3.2 0 -3.2 0 0 0 Z " fill="#C19611" transform="translate(197,62)"/>
<path d="M0 0 C0.66 0.33 1.32 0.66 2 1 C1.67 1.99 1.34 2.98 1 4 C-2.63 4.33 -6.26 4.66 -10 5 C-6 3 -6 3 -3.3125 1.9375 C-1.07564034 1.20552034 -1.07564034 1.20552034 0 0 Z " fill="#6D4A1A" transform="translate(98,253)"/>
<path d="M0 0 C0.33 0 0.66 0 1 0 C1.375 2.1875 1.375 2.1875 1 5 C-0.83961648 6.99022836 -2.79186148 8.38989899 -5 10 C-3.66654496 6.40992874 -2.1056769 3.20429093 0 0 Z " fill="#2C1800" transform="translate(159,160)"/>
<path d="M0 0 C1.875 0.5 1.875 0.5 4 2 C4.98494554 4.65177645 5.45912382 7.20547307 6 10 C3.38275905 7.63202009 1.67138271 5.10399646 0 2 C0 1.34 0 0.68 0 0 Z " fill="#DBAC15" transform="translate(281,55)"/>
<path d="M0 0 C4.875 1.75 4.875 1.75 6 4 C2.37 4 -1.26 4 -5 4 C-5 3.67 -5 3.34 -5 3 C-3.35 2.67 -1.7 2.34 0 2 C0 1.34 0 0.68 0 0 Z " fill="#E9B716" transform="translate(414,133)"/>
<path d="M0 0 C0.33 0.66 0.66 1.32 1 2 C0.22265625 4.1640625 0.22265625 4.1640625 -0.9375 6.625 C-1.31777344 7.44226562 -1.69804687 8.25953125 -2.08984375 9.1015625 C-2.39019531 9.72804688 -2.69054687 10.35453125 -3 11 C-3.66 11 -4.32 11 -5 11 C-3.77472971 6.94718288 -2.30119506 3.55639236 0 0 Z " fill="#3A2501" transform="translate(220,53)"/>
<path d="M0 0 C2.74277578 3.19990508 4.6302836 6.00499382 6 10 C4.68 9.34 3.36 8.68 2 8 C2 6.68 2 5.36 2 4 C1.34 4 0.68 4 0 4 C0 2.68 0 1.36 0 0 Z " fill="#D0B738" transform="translate(299,116)"/>
<path d="M0 0 C2.2477975 2.05233685 3.0022242 3.00667261 4 6 C2.35 6.33 0.7 6.66 -1 7 C-0.67 4.69 -0.34 2.38 0 0 Z " fill="#A16A0B" transform="translate(324,160)"/>
<path d="M0 0 C1.125 3.75 1.125 3.75 0 6 C-0.66 6 -1.32 6 -2 6 C-2.33 7.32 -2.66 8.64 -3 10 C-4 7 -4 7 -3.22265625 5.17578125 C-2.1484375 3.45052083 -1.07421875 1.72526042 0 0 Z " fill="#311D00" transform="translate(179,125)"/>
<path d="M0 0 C0.66 0.33 1.32 0.66 2 1 C-0.25 3.5625 -0.25 3.5625 -3 6 C-4.32 5.67 -5.64 5.34 -7 5 C-4.69 3.35 -2.38 1.7 0 0 Z " fill="#747474" transform="translate(64,128)"/>
<path d="M0 0 C0.33 0 0.66 0 1 0 C1.25 2.25 1.25 2.25 1 5 C-1 7.3125 -1 7.3125 -3 9 C-3.33 8.34 -3.66 7.68 -4 7 C-3.22265625 5.2734375 -3.22265625 5.2734375 -2.0625 3.375 C-1.381875 2.26125 -0.70125 1.1475 0 0 Z " fill="#CFB536" transform="translate(198,119)"/>
<path d="M0 0 C0 0.66 0 1.32 0 2 C-0.66 2 -1.32 2 -2 2 C-2 2.66 -2 3.32 -2 4 C-3.98 4.33 -5.96 4.66 -8 5 C-3.16129032 0 -3.16129032 0 0 0 Z " fill="#D5A716" transform="translate(146,95)"/>
<path d="M0 0 C1.98 0.99 1.98 0.99 4 2 C4 2.66 4 3.32 4 4 C6.31 4 8.62 4 11 4 C11 4.33 11 4.66 11 5 C5.62694301 5.44041451 5.62694301 5.44041451 3 5 C1 2.5 1 2.5 0 0 Z " fill="#2A1100" transform="translate(334,176)"/>
<path d="M0 0 C0.66 0 1.32 0 2 0 C2.33 1.32 2.66 2.64 3 4 C3.66 4 4.32 4 5 4 C5.33 5.32 5.66 6.64 6 8 C5.01 8.495 5.01 8.495 4 9 C2.68 6.03 1.36 3.06 0 0 Z " fill="#1C0800" transform="translate(320,151)"/>
<path d="M0 0 C2.97 1.65 5.94 3.3 9 5 C8.01 5.495 8.01 5.495 7 6 C4.375 5.0625 4.375 5.0625 2 4 C2 3.34 2 2.68 2 2 C1.34 2 0.68 2 0 2 C0 1.34 0 0.68 0 0 Z " fill="#DEB31B" transform="translate(394,120)"/>
<path d="M0 0 C0.66 0.33 1.32 0.66 2 1 C0.68 3.31 -0.64 5.62 -2 8 C-2.33 8 -2.66 8 -3 8 C-3 6.35 -3 4.7 -3 3 C-2.34 3 -1.68 3 -1 3 C-0.67 2.01 -0.34 1.02 0 0 Z " fill="#DFAD17" transform="translate(196,92)"/>
<path d="M0 0 C2.91517292 1.07401108 4.77810176 1.77810176 7 4 C6.01 4 5.02 4 4 4 C3.67 4.66 3.34 5.32 3 6 C2.01 4.02 1.02 2.04 0 0 Z " fill="#C6A320" transform="translate(275,45)"/>
</svg>
