<?xml version="1.0" encoding="UTF-8"?>
<svg version="1.1" xmlns="http://www.w3.org/2000/svg" width="500" height="500">
<path d="M0 0 C1.29704865 -0.00956978 1.29704865 -0.00956978 2.62030029 -0.01933289 C4.03269989 -0.02100212 4.03269989 -0.02100212 5.47363281 -0.02270508 C6.43698547 -0.02603348 7.40033813 -0.02936188 8.3928833 -0.03279114 C10.43737306 -0.03786608 12.48187114 -0.04019929 14.52636719 -0.04003906 C17.6495543 -0.04221735 20.77238366 -0.06034439 23.89550781 -0.0793457 C25.8798816 -0.08228117 27.86425707 -0.08426494 29.84863281 -0.08520508 C31.24888702 -0.09598335 31.24888702 -0.09598335 32.6774292 -0.10697937 C42.70969692 -0.07179722 42.70969692 -0.07179722 45.92675781 3.14526367 C46.24599273 5.20255537 46.43837133 7.26139888 46.64550781 9.33276367 C46.74673825 11.16201697 46.74673825 11.16201697 47.92675781 12.14526367 C52.50317168 12.43226796 57.09245108 12.37730361 61.67675781 12.39526367 C62.94648438 12.41588867 64.21621094 12.43651367 65.52441406 12.45776367 C75.01028092 12.49652104 85.45165426 12.25518887 93.67675781 6.95776367 C97.88316986 4.61188003 101.20616626 4.38852762 105.92675781 5.14526367 C107.62792158 6.08538049 109.29180074 7.09421984 110.92675781 8.14526367 C121.29551227 11.79322483 128.67830919 11.8285407 138.92675781 8.14526367 C147.81305585 5.11065271 157.52295642 1.83123925 166.92675781 4.14526367 C168.96041666 6.31563908 170.09618729 8.42111589 171.41894531 11.07495117 C172.78483072 13.37896858 172.78483072 13.37896858 175.49707031 13.96557617 C178.00538098 14.18217124 180.41348429 14.26943726 182.92675781 14.14526367 C183.04148437 13.54069336 183.15621094 12.93612305 183.27441406 12.31323242 C184.34571901 8.75290758 186.76424377 6.84815585 189.92675781 5.14526367 C193.26116837 4.36535069 196.51096753 4.21761021 199.92675781 4.14526367 C200.70664062 4.1065918 201.48652344 4.06791992 202.29003906 4.02807617 C208.49430292 3.8351975 214.48876421 4.18297614 219.48925781 8.20776367 C222.74957864 10.79930074 224.771615 11.07601129 228.92675781 11.14526367 C234.70103768 9.94574992 234.70103768 9.94574992 239.29394531 6.55932617 C241.81269906 4.37801312 244.03800087 4.74785802 247.30175781 4.77026367 C248.42324219 4.7625293 249.54472656 4.75479492 250.70019531 4.74682617 C255.18460823 5.30059145 257.77227385 6.99077971 260.92675781 10.14526367 C263.05696715 10.78620234 263.05696715 10.78620234 265.42675781 11.20776367 C269.75028722 12.05702838 269.75028722 12.05702838 271.92675781 13.14526367 C274.691311 13.08000598 277.41961767 12.9533197 280.17675781 12.77026367 C280.97855469 12.72063477 281.78035156 12.67100586 282.60644531 12.61987305 C284.25049798 12.51679355 285.89438193 12.41098769 287.53808594 12.30249023 C289.74540557 12.15720059 291.95308443 12.02111282 294.16113281 11.88745117 C300.22882786 11.7896165 300.22882786 11.7896165 305.92675781 10.14526367 C306.75853405 8.32759236 306.75853405 8.32759236 307.42675781 6.20776367 C308.35078245 3.44071163 308.81813151 2.25388998 310.92675781 0.14526367 C312.9515686 -0.09524536 312.9515686 -0.09524536 315.46826172 -0.08178711 C316.87949814 -0.08156052 316.87949814 -0.08156052 318.31924438 -0.08132935 C319.33698944 -0.07100677 320.3547345 -0.0606842 321.40332031 -0.05004883 C322.44370453 -0.04721893 323.48408875 -0.04438904 324.55599976 -0.04147339 C327.88803475 -0.03025336 331.21980368 -0.00514547 334.55175781 0.02026367 C336.80696227 0.03029112 339.06217093 0.03941737 341.31738281 0.04760742 C346.85393236 0.06969189 352.39032608 0.10318729 357.92675781 0.14526367 C363.44728084 10.57407282 368.93752923 21.00918085 374.17675781 31.58276367 C374.65371094 32.54118164 375.13066406 33.49959961 375.62207031 34.48706055 C376.57818677 36.4083378 377.53328143 38.33012391 378.48730469 40.25244141 C379.97470994 43.2416315 381.4742539 46.22456454 382.97363281 49.20776367 C384.83130786 52.92041192 386.65437152 56.64506874 388.42675781 60.39916992 C388.83240967 61.25671875 389.23806152 62.11426758 389.65600586 62.99780273 C390.54794608 64.89992308 391.42865961 66.80732896 392.30102539 68.71850586 C394.78613657 74.06080816 397.4021899 78.9906231 400.75097656 83.84448242 C411.09289715 99.57514253 412.19618535 113.10435813 412.05175781 131.64526367 C412.04502045 132.77234741 412.03828308 133.89943115 412.03134155 135.06066895 C411.99292243 138.33049001 411.91326149 141.59565272 411.80957031 144.86401367 C411.78567734 145.83715515 411.76178436 146.81029663 411.73716736 147.81292725 C411.29618432 157.11776465 409.00110966 165.89123394 402.36425781 172.70776367 C401.21763672 173.91625977 401.21763672 173.91625977 400.04785156 175.14916992 C397.92675781 177.14526367 397.92675781 177.14526367 394.92675781 179.14526367 C394.46156799 181.91664406 394.46156799 181.91664406 394.5280304 185.23220825 C394.51549225 186.5307373 394.5029541 187.82926636 394.49003601 189.16714478 C394.4912102 190.61444117 394.49266941 192.06173735 394.49438477 193.5090332 C394.48537287 195.02655845 394.47504708 196.54407639 394.46350098 198.06158447 C394.43583727 202.18945258 394.42663383 206.31718295 394.42064691 210.44513178 C394.4112875 214.75602879 394.3850862 219.06682191 394.36064148 223.37765503 C394.31690556 231.54448997 394.28840225 239.71130483 394.2653181 247.87822139 C394.23830433 257.17440194 394.19439056 266.47047833 394.14902937 275.76658463 C394.05608157 294.89275794 393.98504685 314.01895551 393.92675781 333.14526367 C399.53675781 333.14526367 405.14675781 333.14526367 410.92675781 333.14526367 C410.92675781 388.25526367 410.92675781 443.36526367 410.92675781 500.14526367 C256.48675781 500.14526367 102.04675781 500.14526367 -57.07324219 500.14526367 C-57.07324219 445.03526367 -57.07324219 389.92526367 -57.07324219 333.14526367 C-51.46324219 333.14526367 -45.85324219 333.14526367 -40.07324219 333.14526367 C-39.97225245 313.22143949 -39.92432397 293.29833729 -39.9462719 273.37425327 C-39.95513497 264.1225886 -39.94541667 254.87164712 -39.89160156 245.62011719 C-39.8447306 237.55420753 -39.83308368 229.48913782 -39.86332428 221.42313522 C-39.87811123 217.15382216 -39.87553842 212.88614451 -39.8307457 208.6170063 C-39.78908693 204.59342767 -39.79474324 200.57261368 -39.83576393 196.5490551 C-39.84259872 195.07732286 -39.83255215 193.60539386 -39.80381203 192.13392639 C-39.57424026 183.68651428 -39.57424026 183.68651428 -43.27374649 176.3973217 C-45.88692087 174.01600072 -45.88692087 174.01600072 -48.62980843 172.09989834 C-53.48934852 168.21248969 -55.7837484 162.12246551 -57.07324219 156.14526367 C-57.20959481 154.55266249 -57.301806 152.95596148 -57.36132812 151.35864258 C-57.3967572 150.40889557 -57.43218628 149.45914856 -57.46868896 148.48062134 C-57.59471455 144.07495874 -57.68360757 139.6693574 -57.75292969 135.26245117 C-57.79916695 132.9660007 -57.86691635 130.66986479 -57.95800781 128.37475586 C-58.60835306 111.66476577 -56.15661482 99.93489327 -47.50564575 85.55477905 C-45.1689818 81.6241635 -43.07166104 77.56872568 -40.94824219 73.52026367 C-40.29988403 72.29951645 -40.29988403 72.29951645 -39.63842773 71.05410767 C-36.7011789 65.52095223 -34.09481215 59.877969 -31.57324219 54.14526367 C-28.34107297 46.79858631 -24.82982786 39.68154752 -21.03442383 32.6105957 C-16.82708334 24.75765551 -12.86632876 16.78710052 -8.91967773 8.80053711 C-8.18938354 7.32762207 -8.18938354 7.32762207 -7.44433594 5.82495117 C-7.01048584 4.94564941 -6.57663574 4.06634766 -6.12963867 3.16040039 C-4.40649623 -0.12659238 -3.61688818 0.01803726 0 0 Z M-1.63574219 175.39526367 C-8.0129469 180.85922791 -14.92392957 182.33430531 -23.07324219 184.14526367 C-23.07324219 233.31526367 -23.07324219 282.48526367 -23.07324219 333.14526367 C-15.15324219 333.14526367 -7.23324219 333.14526367 0.92675781 333.14526367 C-0.72324219 329.84526367 -2.37324219 326.54526367 -4.07324219 323.14526367 C-6.06170498 317.01166697 -6.40969026 311.38063754 -6.38574219 304.95776367 C-6.40185547 304.0818457 -6.41796875 303.20592773 -6.43457031 302.3034668 C-6.43899248 296.47063307 -5.76088982 292.91690029 -1.57324219 288.59838867 C2.8836612 285.02358074 6.00501074 284.04470167 11.61425781 283.58276367 C12.608125 283.49897461 13.60199219 283.41518555 14.62597656 283.32885742 C15.38523438 283.26827148 16.14449219 283.20768555 16.92675781 283.14526367 C16.57742187 282.39760742 16.22808594 281.64995117 15.86816406 280.87963867 C15.413125 279.89479492 14.95808594 278.90995117 14.48925781 277.89526367 C14.03679687 276.92073242 13.58433594 275.94620117 13.11816406 274.94213867 C11.18977089 270.41515666 10.80582951 266.78206485 10.82910156 261.84838867 C10.83232422 260.64311523 10.83554688 259.4378418 10.83886719 258.19604492 C10.85143555 256.3146582 10.85143555 256.3146582 10.86425781 254.39526367 C10.86876953 253.12553711 10.87328125 251.85581055 10.87792969 250.54760742 C10.88971225 247.41344531 10.90616365 244.27937826 10.92675781 241.14526367 C11.58675781 241.14526367 12.24675781 241.14526367 12.92675781 241.14526367 C13.54550781 240.36151367 14.16425781 239.57776367 14.80175781 238.77026367 C17.38198474 235.58292453 19.22616187 234.36465593 23.30175781 233.83886719 C45.82606232 233.28372017 45.82606232 233.28372017 55.92675781 239.14526367 C57.17373744 239.75563993 58.42316485 240.36108784 59.67675781 240.95776367 C60.41925781 241.34963867 61.16175781 241.74151367 61.92675781 242.14526367 C62.64863281 241.19651367 63.37050781 240.24776367 64.11425781 239.27026367 C66.38311643 236.2883352 68.3020986 235.15423873 71.92675781 234.14526367 C75.32630776 233.83570138 78.70243429 233.82074174 82.11425781 233.83276367 C83.00951172 233.81665039 83.90476562 233.80053711 84.82714844 233.78393555 C93.1161306 233.77795072 101.00276455 235.1919026 107.80175781 240.20776367 C109.88854221 241.72087487 111.80300715 243.08492972 114.12207031 244.21557617 C116.51335527 245.44745024 116.8199327 246.72408374 117.92675781 249.14526367 C118.54550781 249.84651367 119.16425781 250.54776367 119.80175781 251.27026367 C125.46060612 258.92635256 126.94672746 267.66359618 127.48925781 276.95776367 C127.53244141 277.65063477 127.575625 278.34350586 127.62011719 279.05737305 C127.72537234 280.75315054 127.82648645 282.44918419 127.92675781 284.14526367 C128.46042969 284.3644043 128.99410156 284.58354492 129.54394531 284.80932617 C143.11124484 290.58364396 152.03032266 296.83564577 157.98144531 310.62963867 C159.81768868 315.51617061 160.20945537 320.2092431 160.48925781 325.39526367 C160.70582031 329.23151367 160.70582031 329.23151367 160.92675781 333.14526367 C171.48675781 333.14526367 182.04675781 333.14526367 192.92675781 333.14526367 C192.92675781 311.03526367 192.92675781 288.92526367 192.92675781 266.14526367 C201.17675781 266.14526367 209.42675781 266.14526367 217.92675781 266.14526367 C217.96414063 264.06084961 218.00152344 261.97643555 218.04003906 259.82885742 C218.08637019 257.78993781 218.13756118 255.75119341 218.18920898 253.71240234 C218.22227775 252.30528587 218.25036485 250.89804251 218.27319336 249.49072266 C218.3070758 247.45705543 218.35939999 245.42453233 218.41503906 243.39135742 C218.44122314 242.1711792 218.46740723 240.95100098 218.49438477 239.69384766 C218.99212869 235.60874998 220.23427029 232.87447824 221.92675781 229.14526367 C221.92675781 228.15526367 221.92675781 227.16526367 221.92675781 226.14526367 C222.58675781 226.14526367 223.24675781 226.14526367 223.92675781 226.14526367 C224.62800781 225.40276367 225.32925781 224.66026367 226.05175781 223.89526367 C228.66480842 221.39582396 229.72071227 220.73353848 232.88769531 219.50854492 C236.23499867 217.88883265 237.59962316 216.58623605 239.02050781 213.14135742 C239.51982066 211.63159305 239.98819588 210.111281 240.42675781 208.58276367 C240.67683594 207.81512695 240.92691406 207.04749023 241.18457031 206.2565918 C242.19871681 203.0609159 242.92675781 200.52217554 242.92675781 197.14526367 C248.20675781 198.79526367 253.48675781 200.44526367 258.92675781 202.14526367 C257.80175781 211.14526367 257.80175781 211.14526367 256.86425781 215.14526367 C256.68765625 215.90838867 256.51105469 216.67151367 256.32910156 217.45776367 C256.19632812 218.01463867 256.06355469 218.57151367 255.92675781 219.14526367 C257.57675781 220.13526367 259.22675781 221.12526367 260.92675781 222.14526367 C261.85488281 221.50588867 262.78300781 220.86651367 263.73925781 220.20776367 C266.92675781 218.14526367 266.92675781 218.14526367 269.92675781 217.14526367 C270.89442262 215.48918749 270.89442262 215.48918749 271.53222656 213.43432617 C271.9237793 212.30897461 271.9237793 212.30897461 272.32324219 211.16088867 C272.71479492 209.9775293 272.71479492 209.9775293 273.11425781 208.77026367 C273.38689453 207.9890918 273.65953125 207.20791992 273.94042969 206.40307617 C275.49093075 201.88149588 275.49093075 201.88149588 275.92675781 197.14526367 C277.05855469 197.50620117 278.19035156 197.86713867 279.35644531 198.23901367 C280.83816874 198.70791349 282.31994218 199.17665531 283.80175781 199.64526367 C284.548125 199.88374023 285.29449219 200.1222168 286.06347656 200.36791992 C289.91917848 201.67296782 289.91917848 201.67296782 293.92675781 202.14526367 C293.56582031 203.20487305 293.20488281 204.26448242 292.83300781 205.35620117 C292.36409988 206.74416866 291.89535851 208.13219243 291.42675781 209.52026367 C291.06904297 210.56827148 291.06904297 210.56827148 290.70410156 211.63745117 C289.38939869 215.30929446 289.38939869 215.30929446 288.92675781 219.14526367 C291.39002493 220.78993107 291.39002493 220.78993107 293.92675781 222.14526367 C298.56052898 220.55183248 302.65067897 218.60828349 304.98925781 214.09448242 C307.05541549 208.90326125 308.53305745 203.55010165 309.92675781 198.14526367 C315.61706828 199.39748536 321.28018892 200.70795523 326.92675781 202.14526367 C326.56582031 203.20487305 326.20488281 204.26448242 325.83300781 205.35620117 C325.36409988 206.74416866 324.89535851 208.13219243 324.42675781 209.52026367 C324.06904297 210.56827148 324.06904297 210.56827148 323.70410156 211.63745117 C322.38939869 215.30929446 322.38939869 215.30929446 321.92675781 219.14526367 C323.123627 220.0243537 324.36111452 220.84844058 325.61425781 221.64526367 C330.60584349 225.34652704 333.00689999 229.25037186 334.92675781 235.14526367 C335.63543808 240.52769913 335.71871101 245.8483992 335.73925781 251.27026367 C335.76244972 252.71821723 335.78782465 254.16613753 335.81542969 255.61401367 C335.88171606 259.12518292 335.9032826 262.63251894 335.92675781 266.14526367 C344.17675781 266.14526367 352.42675781 266.14526367 360.92675781 266.14526367 C360.92675781 288.25526367 360.92675781 310.36526367 360.92675781 333.14526367 C366.20675781 333.14526367 371.48675781 333.14526367 376.92675781 333.14526367 C376.92675781 283.97526367 376.92675781 234.80526367 376.92675781 184.14526367 C369.50175781 182.16526367 369.50175781 182.16526367 361.92675781 180.14526367 C357.23925781 176.89526367 357.23925781 176.89526367 355.54003906 175.31713867 C353.71970507 173.75345989 353.71970507 173.75345989 349.92675781 174.14526367 C348.07150062 175.34285629 348.07150062 175.34285629 346.30175781 176.95776367 C339.15571923 182.5554939 330.86214561 184.14736324 321.92675781 183.14526367 C315.38707923 181.95261712 310.71894461 179.72736745 305.71582031 175.35229492 C303.733802 173.77240612 303.733802 173.77240612 299.92675781 174.14526367 C298.07150062 175.34285629 298.07150062 175.34285629 296.30175781 176.95776367 C289.14888005 182.56085125 280.86809066 184.13564531 271.92675781 183.14526367 C264.09678304 181.80608463 258.8277753 178.34785155 252.92675781 173.14526367 C250.19545131 174.42815006 248.22765454 175.69056423 245.80175781 177.58276367 C238.86299006 182.58341079 230.34812065 184.28259492 221.92675781 183.14526367 C214.50269164 181.30741792 208.70324675 178.11072694 202.92675781 173.14526367 C200.54065026 174.26872264 198.87087934 175.19764974 196.92675781 177.02026367 C190.04050153 181.89802854 181.31908859 184.30926845 172.92675781 183.14526367 C166.01487491 181.94362886 160.95645427 180.03555577 155.68066406 175.35229492 C153.73242678 173.76731828 153.73242678 173.76731828 149.92675781 174.14526367 C147.81597795 175.34239701 147.81597795 175.34239701 145.73925781 176.95776367 C137.88824642 182.39307925 130.32260329 184.2798536 120.86425781 182.82885742 C113.98541426 181.33754564 107.57157282 178.56421452 102.92675781 173.14526367 C100.18504987 174.35161517 98.19339404 175.71728742 95.80175781 177.58276367 C88.77360497 182.64782905 80.43529357 184.09949198 71.92675781 183.14526367 C65.38707923 181.95261712 60.71894461 179.72736745 55.71582031 175.35229492 C53.733802 173.77240612 53.733802 173.77240612 49.92675781 174.14526367 C48.07150062 175.34285629 48.07150062 175.34285629 46.30175781 176.95776367 C39.14888005 182.56085125 30.86809066 184.13564531 21.92675781 183.14526367 C14.87465186 181.93912537 10.13343818 179.22352548 4.73925781 174.57104492 C1.74566463 172.21617098 1.23138786 172.87778363 -1.63574219 175.39526367 Z " fill="#070504" transform="translate(73.0732421875,-0.145263671875)"/>
<path d="M0 0 C143.22 0 286.44 0 434 0 C434 43.89 434 87.78 434 133 C290.78 133 147.56 133 0 133 C0 89.11 0 45.22 0 0 Z " fill="#FDD90C" transform="translate(33,350)"/>
<path d="M0 0 C3.63303084 1.69586126 5.94549046 3.73800488 8.75 6.625 C9.94882812 7.85089844 9.94882812 7.85089844 11.171875 9.1015625 C11.77515625 9.72804688 12.3784375 10.35453125 13 11 C9.28245198 15.52134218 5.35952636 19.77415761 1.25 23.9375 C0.5242981 24.68253784 0.5242981 24.68253784 -0.21606445 25.44262695 C-1.43848364 26.66847329 -2.71551743 27.83934827 -4 29 C-4.66 29 -5.32 29 -6 29 C-6 29.66 -6 30.32 -6 31 C0.93 31 7.86 31 15 31 C15 36.28 15 41.56 15 47 C9.39 47 3.78 47 -2 47 C-2 49.64 -2 52.28 -2 55 C-2.59375 57.87109375 -2.59375 57.87109375 -3.5 60.4375 C-3.7784375 61.28183594 -4.056875 62.12617188 -4.34375 62.99609375 C-9.15802717 71.72764834 -15.72995535 76.58399307 -24.5625 80.8125 C-26.59791673 81.83020837 -28.63306493 82.84845396 -30.66796875 83.8671875 C-32.229104 84.63627441 -32.229104 84.63627441 -33.82177734 85.42089844 C-39.04607572 88.01659378 -44.20780329 90.73043093 -49.375 93.4375 C-50.30642822 93.92130127 -51.23785645 94.40510254 -52.19750977 94.90356445 C-56.42328032 97.10182076 -60.60190937 99.33969758 -64.7265625 101.72265625 C-77.45228303 108.74735451 -95.58324392 107.7782973 -109.4375 104.375 C-115.56412055 102.40622081 -120.79147037 99.76026176 -126 96 C-126.84175781 95.41347656 -127.68351562 94.82695312 -128.55078125 94.22265625 C-138.41975866 86.89954554 -144.66117757 77.40584381 -149 66 C-149.3196875 65.20851563 -149.639375 64.41703125 -149.96875 63.6015625 C-152.14111662 57.22526418 -152.33840632 50.86286286 -152.4375 44.1875 C-152.45981689 43.2795166 -152.48213379 42.3715332 -152.50512695 41.43603516 C-152.48264217 34.85710957 -151.05782274 31.21835844 -146.4375 26.35546875 C-138.87536677 20.2112355 -129.97298366 21.57534732 -120.6484375 22.23828125 C-104.23103353 24.21555983 -90.44216165 33.50021023 -79 45 C-78.65332275 44.49662109 -78.30664551 43.99324219 -77.94946289 43.47460938 C-68.6367889 30.03750926 -60.97733181 19.32577727 -45 14 C-37.34676606 13.52281995 -30.04041934 13.2287262 -22.9296875 16.44140625 C-20.26844077 17.21176715 -18.65414486 16.76713094 -16 16 C-13.8933952 14.43956096 -13.8933952 14.43956096 -12.01171875 12.40234375 C-11.30595703 11.68369141 -10.60019531 10.96503906 -9.87304688 10.22460938 C-9.15181641 9.46986328 -8.43058594 8.71511719 -7.6875 7.9375 C-6.94693359 7.17888672 -6.20636719 6.42027344 -5.44335938 5.63867188 C-3.61956166 3.76780841 -1.80575696 1.88825508 0 0 Z " fill="#060501" transform="translate(335,361)"/>
<path d="M0 0 C44.22 0 88.44 0 134 0 C134 16.83 134 33.66 134 51 C89.78 51 45.56 51 0 51 C0 34.17 0 17.34 0 0 Z " fill="#F2A206" transform="translate(283,283)"/>
<path d="M0 0 C11.22 0 22.44 0 34 0 C34 33.33 34 66.66 34 101 C22.78 101 11.56 101 0 101 C0 67.67 0 34.34 0 0 Z " fill="#F1B804" transform="translate(283,16)"/>
<path d="M0 0 C11.22 0 22.44 0 34 0 C34 33.33 34 66.66 34 101 C23.11 101 12.22 101 1 101 C-0.94297324 99.05702676 -0.12020298 96.11495819 -0.12442017 93.52944946 C-0.12082489 92.59797089 -0.11722961 91.66649231 -0.11352539 90.70678711 C-0.11367142 89.73128403 -0.11381744 88.75578094 -0.1139679 87.75071716 C-0.11326833 84.50957047 -0.10547391 81.26848046 -0.09765625 78.02734375 C-0.09579222 75.78674857 -0.09436825 73.54615298 -0.09336853 71.30555725 C-0.08954213 65.3954049 -0.0797108 59.48527695 -0.06866455 53.57513428 C-0.05845306 47.54944183 -0.05387147 41.52374547 -0.04882812 35.49804688 C-0.03808864 23.66535211 -0.02049086 11.8326819 0 0 Z " fill="#FBBE00" transform="translate(183,16)"/>
<path d="M0 0 C4.68139254 -0.02465288 9.36274759 -0.04283739 14.04418945 -0.05493164 C15.63794614 -0.05997157 17.23169819 -0.0668035 18.82543945 -0.07543945 C21.11150253 -0.08751999 23.39750467 -0.09323155 25.68359375 -0.09765625 C26.40026718 -0.10281754 27.11694061 -0.10797882 27.85533142 -0.11329651 C29.57063672 -0.11349263 31.28581266 -0.06192007 33 0 C34.94297324 1.94297324 34.12020298 4.88504181 34.12442017 7.47055054 C34.11902725 8.8677684 34.11902725 8.8677684 34.11352539 10.29321289 C34.11367142 11.26871597 34.11381744 12.24421906 34.1139679 13.24928284 C34.11326833 16.49042953 34.10547391 19.73151954 34.09765625 22.97265625 C34.09579222 25.21325143 34.09436825 27.45384702 34.09336853 29.69444275 C34.08954213 35.6045951 34.0797108 41.51472305 34.06866455 47.42486572 C34.05845306 53.45055817 34.05387147 59.47625453 34.04882812 65.50195312 C34.03808864 77.33464616 34.02101076 89.16732106 34 101 C29.31860746 101.02465288 24.63725241 101.04283739 19.95581055 101.05493164 C18.36205386 101.05997157 16.76830181 101.0668035 15.17456055 101.07543945 C12.88849747 101.08751999 10.60249533 101.09323155 8.31640625 101.09765625 C7.59973282 101.10281754 6.88305939 101.10797882 6.14466858 101.11329651 C4.42936328 101.11349263 2.71418734 101.06192007 1 101 C-0.94297324 99.05702676 -0.12020298 96.11495819 -0.12442017 93.52944946 C-0.12082489 92.59797089 -0.11722961 91.66649231 -0.11352539 90.70678711 C-0.11367142 89.73128403 -0.11381744 88.75578094 -0.1139679 87.75071716 C-0.11326833 84.50957047 -0.10547391 81.26848046 -0.09765625 78.02734375 C-0.09579222 75.78674857 -0.09436825 73.54615298 -0.09336853 71.30555725 C-0.08954213 65.3954049 -0.0797108 59.48527695 -0.06866455 53.57513428 C-0.05845306 47.54944183 -0.05387147 41.52374547 -0.04882812 35.49804688 C-0.03808864 23.66535384 -0.02101076 11.83267894 0 0 Z " fill="#DC0316" transform="translate(233,16)"/>
<path d="M0 0 C5.28 0 10.56 0 16 0 C21.04458705 9.4046268 25.99599287 18.82270342 30.5 28.5 C33.34924613 34.60933977 36.32387121 40.61667587 39.5 46.5625 C44.04799843 55.13473684 48.53873635 63.73638098 52.94506836 72.3822937 C53.72618454 73.90834307 54.51306023 75.43145928 55.3059082 76.95144653 C56.43041963 79.10979541 57.53361111 81.27789395 58.6328125 83.44921875 C58.97293365 84.09134308 59.31305481 84.73346741 59.66348267 85.39505005 C62.23676918 90.56321626 62 92.64257397 62 99 C50.45 99 38.9 99 27 99 C23.75255953 87.88653704 20.50938296 76.77204088 17.296875 65.6484375 C16.58396813 63.18049718 15.87104747 60.71256084 15.15811157 58.24462891 C14.67705246 56.57928793 14.1960753 54.91392328 13.71517944 53.24853516 C11.02678966 43.94178863 8.31599441 34.64412315 5.5 25.375 C0 7.19917391 0 7.19917391 0 0 Z " fill="#D80518" transform="translate(404,17)"/>
<path d="M0 0 C5.28 0 10.56 0 16 0 C15.45609002 8.80145246 12.90924627 16.96642788 10.4375 25.375 C9.98347294 26.93944868 9.53002936 28.50406681 9.07714844 30.06884766 C7.72925387 34.71586269 6.3672291 39.35864084 5 44 C4.80392151 44.66580078 4.60784302 45.33160156 4.40582275 46.01757812 C2.86896246 51.23221684 1.32516128 56.44476853 -0.22729492 61.65478516 C-3.00692765 70.98483155 -5.69811693 80.33872361 -8.34912109 89.70605469 C-9.22847996 92.80525047 -10.11497633 95.90241714 -11 99 C-22.55 99 -34.1 99 -46 99 C-46 89.99974661 -46 89.99974661 -43.84448242 85.76489258 C-43.13825996 84.3485125 -43.13825996 84.3485125 -42.41777039 82.90351868 C-41.64443108 81.4140699 -41.64443108 81.4140699 -40.85546875 79.89453125 C-40.32987869 78.85229904 -39.80428864 77.81006683 -39.26277161 76.73625183 C-37.58590783 73.42052716 -35.88691321 70.11671395 -34.1875 66.8125 C-33.05521281 64.57949947 -31.92433801 62.34578216 -30.79492188 60.11132812 C-28.7195282 56.01888611 -26.64063341 51.92837766 -24.54370117 47.84692383 C-23.91415779 46.62070061 -23.91415779 46.62070061 -23.27189636 45.3697052 C-21.9257577 42.86167713 -20.47569645 40.43361002 -19 38 C-18.33871796 36.76072476 -17.69163227 35.51371442 -17.0625 34.2578125 C-16.72476563 33.58363281 -16.38703125 32.90945312 -16.0390625 32.21484375 C-15.69617188 31.52519531 -15.35328125 30.83554687 -15 30.125 C-14.65710938 29.44308594 -14.31421875 28.76117188 -13.9609375 28.05859375 C-12.38292303 24.89654185 -10.89154936 21.74410203 -9.51171875 18.48828125 C-7.80800225 14.55696644 -5.85461564 10.82545811 -3.8125 7.0625 C-3.26045898 6.03672852 -3.26045898 6.03672852 -2.69726562 4.99023438 C-1.80081596 3.32539928 -0.90078477 1.66249351 0 0 Z " fill="#DA0417" transform="translate(80,17)"/>
<path d="M0 0 C5.94 0 11.88 0 18 0 C18 33.33 18 66.66 18 101 C7.44 101 -3.12 101 -14 101 C-13.33879379 92.40431922 -12.51673244 84.14954849 -11.125 75.6875 C-9.59518135 66.08021114 -8.25261494 56.47036845 -7.08129883 46.81323242 C-5.83275426 36.52670316 -4.42662691 26.26315091 -3 16 C-2.34 16 -1.68 16 -1 16 C-1.01160156 15.34773438 -1.02320313 14.69546875 -1.03515625 14.0234375 C-1.04417969 13.14945313 -1.05320313 12.27546875 -1.0625 11.375 C-1.07410156 10.51648437 -1.08570313 9.65796875 -1.09765625 8.7734375 C-1 6 -1 6 0 0 Z " fill="#DC0417" transform="translate(149,16)"/>
<path d="M0 0 C6.27 0 12.54 0 19 0 C19.34933594 2.94808594 19.69867188 5.89617188 20.05859375 8.93359375 C20.39845845 11.7765742 20.73980539 14.61937299 21.08129883 17.4621582 C21.31852974 19.44374363 21.55421007 21.42551532 21.78833008 23.4074707 C22.12437654 26.25001169 22.46592459 29.09184452 22.80859375 31.93359375 C22.91280136 32.82525742 23.01700897 33.71692108 23.12437439 34.63560486 C23.26170017 38.64715753 23.26170017 38.64715753 25 42 C25.31438783 44.45907314 25.57596236 46.90802179 25.8125 49.375 C26.76479807 58.68753339 28.13440323 67.92155042 29.59106445 77.16748047 C29.75823975 78.25303223 29.92541504 79.33858398 30.09765625 80.45703125 C30.24726807 81.40553955 30.39687988 82.35404785 30.55102539 83.33129883 C31.22850556 88.8671849 31.57224929 94.43924076 32 100 C21.44 100 10.88 100 0 100 C0 67 0 34 0 0 Z " fill="#DB0417" transform="translate(333,17)"/>
<path d="M0 0 C5.94 0 11.88 0 18 0 C16.66243155 12.615324 15.04055142 25.14785633 13.1796875 37.6953125 C12.91322833 39.50800611 12.64704937 41.32074093 12.38113403 43.1335144 C11.69017173 47.83877031 10.99547898 52.54346759 10.29992676 57.24804688 C9.58695787 62.07518013 8.87763034 66.90284837 8.16796875 71.73046875 C6.78214856 81.15416483 5.39203764 90.57722033 4 100 C-6.23 100 -16.46 100 -27 100 C-25.87528345 91.00226757 -25.87528345 91.00226757 -24.6171875 86.8125 C-24.34076416 85.87978271 -24.06434082 84.94706543 -23.77954102 83.98608398 C-23.48104248 83.00067627 -23.18254395 82.01526855 -22.875 81 C-22.56296631 79.94820557 -22.25093262 78.89641113 -21.92944336 77.81274414 C-20.95851167 74.54014612 -19.98011625 71.26985779 -19 68 C-14.62713054 53.39080512 -10.55848704 38.73371032 -6.84008789 23.94506836 C-4.7990295 15.87622121 -2.50835139 7.93662401 0 0 Z " fill="#F5BB04" transform="translate(114,16)"/>
<path d="M0 0 C5.94 0 11.88 0 18 0 C18.763125 2.619375 19.52625 5.23875 20.3125 7.9375 C21.67826778 12.61956411 23.05137301 17.27866386 24.6875 21.875 C25.77673487 25.02167851 26.40207945 28.08862557 26.9375 31.375 C27.56265947 35.13937518 28.46526876 38.49228136 29.85546875 42.04296875 C32.16412853 48.23762056 33.78670654 54.52649431 35.375 60.9375 C37.74909964 70.34385769 40.28512635 79.66093841 43.22216797 88.90795898 C44.33444873 92.46580696 45 95.2364218 45 99 C34.77 99 24.54 99 14 99 C11.66235006 83.76985644 9.34934071 68.54004545 7.1796875 53.28515625 C7.02506546 52.19809891 6.87044342 51.11104156 6.71113586 49.99104309 C5.94089453 44.56821012 5.17448434 39.14485716 4.41186523 33.72094727 C4.12485748 31.69156615 3.83783032 29.66218777 3.55078125 27.6328125 C3.36036758 26.26715904 3.36036758 26.26715904 3.16610718 24.87391663 C2.39274733 19.4192335 1.46690585 14.02048302 0.38298035 8.61837769 C0 6 0 6 0 0 Z " fill="#F8BD03" transform="translate(368,17)"/>
<path d="M0 0 C14.02322087 -0.99507743 25.47008272 0.91512567 36.5625 10.25 C44.8345465 18.46708273 49.63530788 28.09833736 50.17578125 39.80859375 C50.18606382 43.21212541 50.13403934 46.59937239 50 50 C36.31594109 50.59591869 24.8418867 48.91047275 14 40 C5.34691888 31.33364729 0.25402479 21.92135046 -0.09765625 9.5703125 C-0.08605469 8.43335938 -0.07445312 7.29640625 -0.0625 6.125 C-0.05347656 4.97257812 -0.04445312 3.82015625 -0.03515625 2.6328125 C-0.02355469 1.76398438 -0.01195312 0.89515625 0 0 Z " fill="#78D20E" transform="translate(200,400)"/>
<path d="M0 0 C33 0 66 0 100 0 C100 5.61 100 11.22 100 17 C67 17 34 17 0 17 C0 11.39 0 5.78 0 0 Z " fill="#0C0600" transform="translate(300,300)"/>
<path d="M0 0 C4.6557291 2.62319065 8.00714051 5.94823331 9.59375 11.1171875 C10.41541821 17.06719866 10.10925963 22.07829037 6.59375 27.1171875 C1.91586305 31.79507445 -3.47319499 34.30910954 -9.40625 37.1171875 C-11.03332401 37.92552618 -12.6583427 38.7380155 -14.28125 39.5546875 C-22.84375 43.8359375 -22.84375 43.8359375 -31.40625 48.1171875 C-33.00726563 48.94863281 -33.00726563 48.94863281 -34.640625 49.796875 C-37.40625 51.1171875 -37.40625 51.1171875 -39.40625 51.1171875 C-39.74590474 48.93066011 -40.07767477 46.74290725 -40.40625 44.5546875 C-40.591875 43.33652344 -40.7775 42.11835938 -40.96875 40.86328125 C-42.20397631 30.28665596 -42.20397631 30.28665596 -38.65625 25.7421875 C-36.18563516 22.49480734 -33.79837698 19.24043868 -31.55078125 15.8359375 C-31.04321289 15.07974121 -30.53564453 14.32354492 -30.01269531 13.54443359 C-29.003703 12.03987991 -28.00638626 10.5274125 -27.02246094 9.00634766 C-20.74330132 -0.18497753 -10.85672808 -3.98315024 0 0 Z " fill="#FA6437" transform="translate(306.40625,392.8828125)"/>
<path d="M0 0 C11.22 0 22.44 0 34 0 C34.0825 3.135 34.165 6.27 34.25 9.5 C34.28641602 10.47130859 34.32283203 11.44261719 34.36035156 12.44335938 C34.43640407 18.47358733 33.47122392 22.99397873 30 28 C24.6796216 32.94035137 21.09164261 33.3538574 13.984375 33.27734375 C9.95984118 32.90333603 7.91990837 31.77391295 5 29 C1.54878703 24.42947471 -0.13402228 21.04149867 -0.09765625 15.33203125 C-0.09515869 14.52741455 -0.09266113 13.72279785 -0.09008789 12.89379883 C-0.08098389 11.87697021 -0.07187988 10.8601416 -0.0625 9.8125 C-0.041875 6.574375 -0.02125 3.33625 0 0 Z " fill="#FD411D" transform="translate(433,133)"/>
<path d="M0 0 C1.39120471 0.00015906 2.78241534 0.00585033 4.17358398 0.01586914 C4.90463852 0.01728409 5.63569305 0.01869904 6.38890076 0.02015686 C8.73253406 0.02577131 11.07607313 0.03832617 13.41967773 0.05102539 C15.00496282 0.05603853 16.59024939 0.06060176 18.17553711 0.06469727 C22.06945383 0.07574542 25.96329979 0.09301967 29.85717773 0.11352539 C30.00402959 3.44638465 30.09175422 6.77839884 30.16967773 10.11352539 C30.21157227 11.0480957 30.2534668 11.98266602 30.29663086 12.94555664 C30.41405441 19.66218388 29.16846455 23.9147136 24.85717773 29.11352539 C21.06086963 32.81724061 18.00039377 33.41008545 12.85717773 33.61352539 C7.7399678 33.42352997 4.67647945 32.74186202 0.85717773 29.11352539 C-2.50458931 24.66145552 -4.26751258 21.27244518 -4.27563477 15.69946289 C-4.27692383 14.85641602 -4.27821289 14.01336914 -4.27954102 13.14477539 C-4.27567383 12.26821289 -4.27180664 11.39165039 -4.26782227 10.48852539 C-4.27168945 9.60422852 -4.27555664 8.71993164 -4.27954102 7.80883789 C-4.27825195 6.96836914 -4.27696289 6.12790039 -4.27563477 5.26196289 C-4.27450684 4.49029785 -4.27337891 3.71863281 -4.2722168 2.92358398 C-4.04367018 -0.27348134 -3.26690078 0.11800737 0 0 Z " fill="#FD411D" transform="translate(237.142822265625,132.886474609375)"/>
<path d="M0 0 C11.22 0 22.44 0 34 0 C34.0825 3.135 34.165 6.27 34.25 9.5 C34.28641602 10.47130859 34.32283203 11.44261719 34.36035156 12.44335938 C34.43640407 18.47358733 33.47122392 22.99397873 30 28 C24.68070769 32.93934286 21.08899056 33.36295268 13.98046875 33.26953125 C9.88274528 32.89896386 7.94331936 31.87153109 5 29 C-0.06513714 22.89214965 -0.65711453 17.74864254 -0.3125 10 C-0.209375 6.7 -0.10625 3.4 0 0 Z " fill="#FDD90C" transform="translate(183,133)"/>
<path d="M0 0 C11.22 0 22.44 0 34 0 C34.12375 3.650625 34.2475 7.30125 34.375 11.0625 C34.42962402 12.19953369 34.48424805 13.33656738 34.54052734 14.50805664 C34.62249055 19.52059144 34.55407895 23.08347283 31.2890625 27.05859375 C26.8636607 31.34384805 23.33615255 33.4294258 17.0625 33.4375 C11.89904393 33.28544731 8.81759129 32.72215151 5 29 C1.97904961 24.61033422 -0.13143836 20.76726034 -0.09765625 15.4296875 C-0.09515869 14.62257324 -0.09266113 13.81545898 -0.09008789 12.98388672 C-0.08098389 11.9579541 -0.07187988 10.93202148 -0.0625 9.875 C-0.041875 6.61625 -0.02125 3.3575 0 0 Z " fill="#FDDA0B" transform="translate(83,133)"/>
<path d="M0 0 C11.22 0 22.44 0 34 0 C34.84160492 22.30253041 34.84160492 22.30253041 29.80078125 28.4765625 C24.54887311 32.91960843 20.63419349 33.53829626 13.87890625 33.34765625 C9.94334069 32.87239799 7.86578343 31.72249426 5 29 C1.54878703 24.42947471 -0.13402228 21.04149867 -0.09765625 15.33203125 C-0.09515869 14.52741455 -0.09266113 13.72279785 -0.09008789 12.89379883 C-0.08098389 11.87697021 -0.07187988 10.8601416 -0.0625 9.8125 C-0.041875 6.574375 -0.02125 3.33625 0 0 Z " fill="#FD411D" transform="translate(33,133)"/>
<path d="M0 0 C11.22 0 22.44 0 34 0 C34.061875 2.990625 34.12375 5.98125 34.1875 9.0625 C34.22846802 10.45480835 34.22846802 10.45480835 34.27026367 11.87524414 C34.34739912 19.63772458 32.45378934 25.21567797 27 31 C22.11372324 34.08778022 16.56706163 33.58954138 11 33 C5.51529977 30.55147311 3.55444676 27.20350266 1 22 C0.05862745 19.17588235 -0.11725382 17.47081968 -0.09765625 14.55078125 C-0.09515869 13.78677002 -0.09266113 13.02275879 -0.09008789 12.2355957 C-0.07643188 10.78866333 -0.07643188 10.78866333 -0.0625 9.3125 C-0.041875 6.239375 -0.02125 3.16625 0 0 Z " fill="#FDDA0C" transform="translate(383,133)"/>
<path d="M0 0 C11.22 0 22.44 0 34 0 C34.61297481 21.91384937 34.61297481 21.91384937 30 28 C24.96071489 32.91637572 20.517077 33.3479122 13.73046875 33.28515625 C9.00784776 32.79194977 6.38744163 30.4865446 3.25 27.125 C-0.20623748 21.24939629 -0.2533118 15.73021905 -0.125 9.125 C-0.08375 6.11375 -0.0425 3.1025 0 0 Z " fill="#FD411D" transform="translate(333,133)"/>
<path d="M0 0 C4.68139254 -0.02465288 9.36274759 -0.04283739 14.04418945 -0.05493164 C15.63794614 -0.05997157 17.23169819 -0.0668035 18.82543945 -0.07543945 C21.11150253 -0.08751999 23.39750467 -0.09323155 25.68359375 -0.09765625 C26.40026718 -0.10281754 27.11694061 -0.10797882 27.85533142 -0.11329651 C29.57063672 -0.11349263 31.28581266 -0.06192007 33 0 C35.12976722 2.12976722 34.23150478 6.68888421 34.25 9.625 C34.270625 10.42035156 34.29125 11.21570313 34.3125 12.03515625 C34.35722478 18.84450436 33.13349253 23.53827785 28.5625 28.8125 C23.68841707 32.9733025 20.00463232 33.44700282 13.69140625 33.3125 C9.84991923 32.86646377 7.81932214 31.61303028 5 29 C1.54878703 24.42947471 -0.13402228 21.04149867 -0.09765625 15.33203125 C-0.09443359 14.43935547 -0.09121094 13.54667969 -0.08789062 12.62695312 C-0.07951172 11.69818359 -0.07113281 10.76941406 -0.0625 9.8125 C-0.05798828 8.87212891 -0.05347656 7.93175781 -0.04882812 6.96289062 C-0.03704626 4.64186288 -0.02059558 2.32096356 0 0 Z " fill="#FDDA0C" transform="translate(283,133)"/>
<path d="M0 0 C10.89 0 21.78 0 33 0 C33.061875 2.97 33.12375 5.94 33.1875 9 C33.22846802 10.37865234 33.22846802 10.37865234 33.27026367 11.78515625 C33.33025231 17.80208164 32.86056938 23.92356581 28.54736328 28.56225586 C23.28990989 33.05349561 19.72974245 33.34167149 12.98828125 33.28515625 C8.00698805 32.80981716 5.39058927 30.58239469 2.1875 26.9375 C0.10558615 23.5406932 -0.12013295 20.78300046 -0.09765625 16.89453125 C-0.09515869 16.00870361 -0.09266113 15.12287598 -0.09008789 14.21020508 C-0.08098389 13.0889624 -0.07187988 11.96771973 -0.0625 10.8125 C-0.041875 7.244375 -0.02125 3.67625 0 0 Z " fill="#FD411D" transform="translate(134,133)"/>
<path d="M0 0 C10.18177253 -0.45817976 16.75192133 0.096487 24.75 6.625 C30.13491149 11.75880163 32.76154511 16.18876337 33.23046875 23.68359375 C33.24784077 27.13367687 33.1764217 30.5548762 33 34 C23.39629502 34.30487952 14.52517452 33.57662311 7 27 C1.45472982 20.2492363 -0.14294271 15.43781232 -0.0625 6.75 C-0.05347656 5.48671875 -0.04445312 4.2234375 -0.03515625 2.921875 C-0.02355469 1.95765625 -0.01195312 0.9934375 0 0 Z " fill="#34BA02" transform="translate(184,300)"/>
<path d="M0 0 C10.36839028 -0.57691198 17.52479739 0.33710538 25.8125 6.75 C30.61383638 11.27218891 32.82520939 15.1775614 33.23828125 21.84765625 C33.28800207 25.57231742 33.17439345 29.27960646 33 33 C23.97749063 33.58503303 16.3952445 33.70791599 9 28 C4.03192913 22.88390467 0.2051589 17.72978883 -0.1953125 10.44921875 C-0.17210937 9.20785156 -0.14890625 7.96648437 -0.125 6.6875 C-0.10695312 5.43324219 -0.08890625 4.17898437 -0.0703125 2.88671875 C-0.03550781 1.45779297 -0.03550781 1.45779297 0 0 Z " fill="#78D30D" transform="translate(150,250)"/>
<path d="M0 0 C9.45252498 -0.53281456 17.5046172 0.8371297 25 7 C31.59266139 13.81399774 33.06677949 20.85338357 33.125 30.125 C33.08375 31.40375 33.0425 32.6825 33 34 C23.73759176 34.53209579 15.04167461 33.37958657 7.53515625 27.5234375 C2.66580083 22.69125274 0.09509757 17.36265022 -0.09765625 10.546875 C-0.08605469 9.29390625 -0.07445312 8.0409375 -0.0625 6.75 C-0.05347656 5.48671875 -0.04445312 4.2234375 -0.03515625 2.921875 C-0.02355469 1.95765625 -0.01195312 0.9934375 0 0 Z " fill="#018001" transform="translate(134,300)"/>
<path d="M0 0 C10.25432776 -0.57056538 16.75785436 0.47163274 25.25 6.1875 C30.6217352 11.68132009 33.22503198 16.11385067 33.33837891 23.98681641 C33.3008575 26.99631631 33.17811583 29.99577968 33 33 C23.42436501 33.39411912 16.10990339 33.33146873 8.3125 27.4375 C3.18109055 22.62386132 0.26695776 17.29247907 -0.3046875 10.2421875 C-0.3116165 6.8123333 -0.22189263 3.42207747 0 0 Z " fill="#34BB02" transform="translate(100,250)"/>
<path d="M0 0 C8.89857364 -0.43763477 17.30849472 0.38358864 24.4375 6.1875 C30.10117253 11.81628338 32.1577125 16.3007473 32.26367188 24.26977539 C32.24375915 27.51803872 32.1417839 30.7547241 32 34 C22.80239274 34.4379813 15.34077694 32.87262155 8 27 C3.21761138 22.19467426 0.16664084 18.21616816 -0.1953125 11.23046875 C-0.18216327 9.88267285 -0.1585249 8.53494305 -0.125 7.1875 C-0.11597656 6.49462891 -0.10695313 5.80175781 -0.09765625 5.08789062 C-0.07426157 3.39177605 -0.03839641 1.69584129 0 0 Z " fill="#035802" transform="translate(84,300)"/>
<path d="M0 0 C11.22 0 22.44 0 34 0 C34 33.33 34 66.66 34 101 C23.11 101 12.22 101 1 101 C-0.94297324 99.05702676 -0.12020298 96.11495819 -0.12442017 93.52944946 C-0.12082489 92.59797089 -0.11722961 91.66649231 -0.11352539 90.70678711 C-0.11367142 89.73128403 -0.11381744 88.75578094 -0.1139679 87.75071716 C-0.11326833 84.50957047 -0.10547391 81.26848046 -0.09765625 78.02734375 C-0.09579222 75.78674857 -0.09436825 73.54615298 -0.09336853 71.30555725 C-0.08954213 65.3954049 -0.0797108 59.48527695 -0.06866455 53.57513428 C-0.05845306 47.54944183 -0.05387147 41.52374547 -0.04882812 35.49804688 C-0.03808864 23.66535211 -0.02049086 11.8326819 0 0 Z M2 3 C2 34.68 2 66.36 2 99 C11.9 99 21.8 99 32 99 C32 67.32 32 35.64 32 3 C22.1 3 12.2 3 2 3 Z " fill="#BF9718" transform="translate(183,16)"/>
<path d="M0 0 C4.1643855 0.19520557 7.01045194 0.36503809 10 3.59375 C11.09911549 6.89109646 11.1139456 9.32333745 11.09765625 12.79296875 C11.09443359 14.00146484 11.09121094 15.20996094 11.08789062 16.45507812 C11.07951172 17.71771484 11.07113281 18.98035156 11.0625 20.28125 C11.05798828 21.55548828 11.05347656 22.82972656 11.04882812 24.14257812 C11.03702883 27.2929887 11.01909318 30.44337519 11 33.59375 C5.39 33.59375 -0.22 33.59375 -6 33.59375 C-6.10786127 29.03061907 -6.18726757 24.47003403 -6.25 19.90625 C-6.28351563 18.61267578 -6.31703125 17.31910156 -6.3515625 15.98632812 C-6.36445313 14.73916016 -6.37734375 13.49199219 -6.390625 12.20703125 C-6.41157227 11.06016846 -6.43251953 9.91330566 -6.45410156 8.73168945 C-5.86224842 4.64185696 -4.17441686 1.23928 0 0 Z " fill="#FD411D" transform="translate(381,233.40625)"/>
<path d="M0 0 C4.68139254 -0.02465288 9.36274759 -0.04283739 14.04418945 -0.05493164 C15.63794614 -0.05997157 17.23169819 -0.0668035 18.82543945 -0.07543945 C21.11150253 -0.08751999 23.39750467 -0.09323155 25.68359375 -0.09765625 C26.40026718 -0.10281754 27.11694061 -0.10797882 27.85533142 -0.11329651 C29.57063672 -0.11349263 31.28581266 -0.06192007 33 0 C34.94297324 1.94297324 34.12020298 4.88504181 34.12442017 7.47055054 C34.11902725 8.8677684 34.11902725 8.8677684 34.11352539 10.29321289 C34.11367142 11.26871597 34.11381744 12.24421906 34.1139679 13.24928284 C34.11326833 16.49042953 34.10547391 19.73151954 34.09765625 22.97265625 C34.09579222 25.21325143 34.09436825 27.45384702 34.09336853 29.69444275 C34.08954213 35.6045951 34.0797108 41.51472305 34.06866455 47.42486572 C34.05845306 53.45055817 34.05387147 59.47625453 34.04882812 65.50195312 C34.03808864 77.33464616 34.02101076 89.16732106 34 101 C29.31860746 101.02465288 24.63725241 101.04283739 19.95581055 101.05493164 C18.36205386 101.05997157 16.76830181 101.0668035 15.17456055 101.07543945 C12.88849747 101.08751999 10.60249533 101.09323155 8.31640625 101.09765625 C7.59973282 101.10281754 6.88305939 101.10797882 6.14466858 101.11329651 C4.42936328 101.11349263 2.71418734 101.06192007 1 101 C-0.94297324 99.05702676 -0.12020298 96.11495819 -0.12442017 93.52944946 C-0.12082489 92.59797089 -0.11722961 91.66649231 -0.11352539 90.70678711 C-0.11367142 89.73128403 -0.11381744 88.75578094 -0.1139679 87.75071716 C-0.11326833 84.50957047 -0.10547391 81.26848046 -0.09765625 78.02734375 C-0.09579222 75.78674857 -0.09436825 73.54615298 -0.09336853 71.30555725 C-0.08954213 65.3954049 -0.0797108 59.48527695 -0.06866455 53.57513428 C-0.05845306 47.54944183 -0.05387147 41.52374547 -0.04882812 35.49804688 C-0.03808864 23.66535384 -0.02101076 11.83267894 0 0 Z M2 2 C2 34.01 2 66.02 2 99 C11.9 99 21.8 99 32 99 C32 66.99 32 34.98 32 2 C22.1 2 12.2 2 2 2 Z " fill="#9A0C18" transform="translate(233,16)"/>
<path d="M0 0 C2.66479492 1.59863281 2.66479492 1.59863281 5 4 C5.56762695 7.11621094 5.56762695 7.11621094 5.48828125 10.734375 C5.47216797 12.02988281 5.45605469 13.32539063 5.43945312 14.66015625 C5.39767939 16.02345428 5.3553547 17.38673552 5.3125 18.75 C5.2874091 20.12886624 5.26459729 21.50777597 5.24414062 22.88671875 C5.18519726 26.25827944 5.09551796 29.62927721 5 33 C-0.28 33 -5.56 33 -11 33 C-11.05385301 28.41651041 -11.09360513 23.83365106 -11.125 19.25 C-11.14175781 17.94804687 -11.15851563 16.64609375 -11.17578125 15.3046875 C-11.18222656 14.05429688 -11.18867188 12.80390625 -11.1953125 11.515625 C-11.20578613 10.36352539 -11.21625977 9.21142578 -11.22705078 8.02441406 C-11.00488034 5.0650082 -10.70832517 3.40599183 -9 1 C-5.66660588 -0.11113137 -3.49519344 -0.34951934 0 0 Z " fill="#FD8701" transform="translate(320,234)"/>
<path d="M0 0 C0 0.66 0 1.32 0 2 C0.639375 2.309375 1.27875 2.61875 1.9375 2.9375 C4 4 4 4 5 5 C5.08767112 7.07262076 5.10695873 9.14820294 5.09765625 11.22265625 C5.09443359 12.48271484 5.09121094 13.74277344 5.08789062 15.04101562 C5.07953403 16.38151109 5.07106907 17.72200588 5.0625 19.0625 C5.0574866 20.40689942 5.05292342 21.7513006 5.04882812 23.09570312 C5.03699497 26.39715433 5.01905886 29.6985826 5 33 C-0.28 33 -5.56 33 -11 33 C-11.08078296 28.41631522 -11.14040362 23.83404807 -11.1875 19.25 C-11.21263672 17.94804687 -11.23777344 16.64609375 -11.26367188 15.3046875 C-11.27333984 14.05429688 -11.28300781 12.80390625 -11.29296875 11.515625 C-11.31653442 9.78747559 -11.31653442 9.78747559 -11.34057617 8.02441406 C-10.96448626 4.68462782 -10.36613664 3.34641019 -8 1 C-5.07175348 0.02391783 -3.04386724 -0.08226668 0 0 Z " fill="#FA6639" transform="translate(353,233)"/>
<path d="M0 0 C5.94 0 11.88 0 18 0 C18 33.33 18 66.66 18 101 C7.44 101 -3.12 101 -14 101 C-12.875 86.375 -12.875 86.375 -12.02734375 81.04296875 C-11.85009766 79.91181641 -11.67285156 78.78066406 -11.49023438 77.61523438 C-11.21663086 75.91850586 -11.21663086 75.91850586 -10.9375 74.1875 C-10.75123047 73.00607422 -10.56496094 71.82464844 -10.37304688 70.60742188 C-9.91990567 67.73752759 -9.46217672 64.86845049 -9 62 C-8.67 62 -8.34 62 -8 62 C-7.65853966 70.21164697 -8.71760806 78.02792186 -10 86.125 C-10.66 90.37375 -11.32 94.6225 -12 99 C-2.76 99 6.48 99 16 99 C16 67.32 16 35.64 16 3 C10.06 3.495 10.06 3.495 4 4 C1.22133679 8.63110535 0.50606416 10.83814555 0 16 C-0.33 16 -0.66 16 -1 16 C-1.02741912 14.4584364 -1.04658248 12.91672526 -1.0625 11.375 C-1.07410156 10.51648437 -1.08570313 9.65796875 -1.09765625 8.7734375 C-1 6 -1 6 0 0 Z " fill="#9E0D1A" transform="translate(149,16)"/>
<path d="M0 0 C6.27 0 12.54 0 19 0 C19.34933594 2.94808594 19.69867188 5.89617188 20.05859375 8.93359375 C20.39845845 11.7765742 20.73980539 14.61937299 21.08129883 17.4621582 C21.31852974 19.44374363 21.55421007 21.42551532 21.78833008 23.4074707 C22.12437654 26.25001169 22.46592459 29.09184452 22.80859375 31.93359375 C22.91280136 32.82525742 23.01700897 33.71692108 23.12437439 34.63560486 C23.26170017 38.64715753 23.26170017 38.64715753 25 42 C25.31438814 44.45907552 25.57626272 46.90798877 25.8125 49.375 C26.78266687 58.95701813 28.22996792 68.45226262 29.7668457 77.95849609 C29.94046631 79.07305176 30.11408691 80.18760742 30.29296875 81.3359375 C30.4530542 82.33157715 30.61313965 83.3272168 30.77807617 84.35302734 C30.99090689 86.89154295 30.79309771 88.6011374 30 91 C27.85663839 87.5233662 27.78722374 84.78770805 27.875 80.75 C27.89304687 79.67234375 27.91109375 78.5946875 27.9296875 77.484375 C27.95289063 76.66453125 27.97609375 75.8446875 28 75 C27.34 75 26.68 75 26 75 C25.92483154 74.18958252 25.84966309 73.37916504 25.7722168 72.54418945 C25.48280815 69.47007022 25.185435 66.39684316 24.88305664 63.32397461 C24.69279287 61.36694186 24.51130921 59.40906175 24.33007812 57.45117188 C23.59589386 50.05285346 22.42928517 42.9966622 20.64868164 35.77954102 C19.91143235 32.62049578 19.54286328 29.55049424 19.375 26.3125 C19.23984023 22.50780442 19.23984023 22.50780442 18 19 C17.92805131 16.11629667 17.90708292 13.25760336 17.9375 10.375 C17.94201172 9.57320312 17.94652344 8.77140625 17.95117188 7.9453125 C17.96296832 5.96350994 17.98090395 3.98174567 18 2 C12.72 1.67 7.44 1.34 2 1 C1.67 33.34 1.34 65.68 1 99 C11.23 99 21.46 99 32 99 C32 99.33 32 99.66 32 100 C21.44 100 10.88 100 0 100 C0 67 0 34 0 0 Z " fill="#970D18" transform="translate(333,17)"/>
<path d="M0 0 C11.22 0 22.44 0 34 0 C34.0825 3.135 34.165 6.27 34.25 9.5 C34.28641602 10.47130859 34.32283203 11.44261719 34.36035156 12.44335938 C34.43640407 18.47358733 33.47122392 22.99397873 30 28 C24.6796216 32.94035137 21.09164261 33.3538574 13.984375 33.27734375 C9.95984118 32.90333603 7.91990837 31.77391295 5 29 C1.54878703 24.42947471 -0.13402228 21.04149867 -0.09765625 15.33203125 C-0.09515869 14.52741455 -0.09266113 13.72279785 -0.09008789 12.89379883 C-0.08098389 11.87697021 -0.07187988 10.8601416 -0.0625 9.8125 C-0.041875 6.574375 -0.02125 3.33625 0 0 Z M2 2 C1.938125 5.01125 1.87625 8.0225 1.8125 11.125 C1.78518799 12.06230957 1.75787598 12.99961914 1.72973633 13.96533203 C1.66705167 20.29446057 3.09511278 24.14266917 6.625 29.4375 C9.9246941 31.60835138 12.26309276 31.06616431 16.07421875 30.5546875 C16.70972656 30.37164062 17.34523438 30.18859375 18 30 C18.33 29.34 18.66 28.68 19 28 C19.556875 28.185625 20.11375 28.37125 20.6875 28.5625 C23.55336132 29.10468998 25.24678815 28.98833246 28 28 C29.78969026 25.57327433 29.78969026 25.57327433 31 23 C31.33 22.67 31.66 22.34 32 22 C32.08669432 20.5112814 32.10703494 19.018555 32.09765625 17.52734375 C32.09515869 16.71773193 32.09266113 15.90812012 32.09008789 15.07397461 C32.08098389 14.03893799 32.07187988 13.00390137 32.0625 11.9375 C32.041875 8.658125 32.02125 5.37875 32 2 C22.1 2 12.2 2 2 2 Z " fill="#BD3C21" transform="translate(433,133)"/>
<path d="M0 0 C11.22 0 22.44 0 34 0 C34.061875 2.990625 34.12375 5.98125 34.1875 9.0625 C34.22846802 10.45480835 34.22846802 10.45480835 34.27026367 11.87524414 C34.3403063 18.92394292 33.20327767 23.59176627 28.3125 28.9375 C27.549375 29.618125 26.78625 30.29875 26 31 C25.79913557 27.28400809 25.8480563 26.22791555 28 23 C28.66 23 29.32 23 30 23 C31.14654482 20.70691037 31.19729117 19.20090344 31.31640625 16.6484375 C31.35451416 15.88192871 31.39262207 15.11541992 31.43188477 14.32568359 C31.49653931 12.86509521 31.49653931 12.86509521 31.5625 11.375 C31.706875 8.28125 31.85125 5.1875 32 2 C22.1 2 12.2 2 2 2 C2 8.27 2 14.54 2 21 C2.66 21 3.32 21 4 21 C5.42944945 23.35438733 6.08661261 24.48032433 5.625 27.25 C5.41875 27.8275 5.2125 28.405 5 29 C-0.13570205 20.21960616 -0.13570205 20.21960616 -0.09765625 14.55078125 C-0.09515869 13.78677002 -0.09266113 13.02275879 -0.09008789 12.2355957 C-0.07643188 10.78866333 -0.07643188 10.78866333 -0.0625 9.3125 C-0.041875 6.239375 -0.02125 3.16625 0 0 Z " fill="#C2AC25" transform="translate(383,133)"/>
<path d="M0 0 C4.1643855 0.19520557 7.01045194 0.36503809 10 3.59375 C11.09911549 6.89109646 11.1139456 9.32333745 11.09765625 12.79296875 C11.09443359 14.00146484 11.09121094 15.20996094 11.08789062 16.45507812 C11.07951172 17.71771484 11.07113281 18.98035156 11.0625 20.28125 C11.05798828 21.55548828 11.05347656 22.82972656 11.04882812 24.14257812 C11.03702883 27.2929887 11.01909318 30.44337519 11 33.59375 C5.39 33.59375 -0.22 33.59375 -6 33.59375 C-6.10786127 29.03061907 -6.18726757 24.47003403 -6.25 19.90625 C-6.28351563 18.61267578 -6.31703125 17.31910156 -6.3515625 15.98632812 C-6.36445313 14.73916016 -6.37734375 13.49199219 -6.390625 12.20703125 C-6.41157227 11.06016846 -6.43251953 9.91330566 -6.45410156 8.73168945 C-5.86224842 4.64185696 -4.17441686 1.23928 0 0 Z M2 2.59375 C1.67 3.91375 1.34 5.23375 1 6.59375 C0.67 5.93375 0.34 5.27375 0 4.59375 C-1.32 4.59375 -2.64 4.59375 -4 4.59375 C-4 13.50375 -4 22.41375 -4 31.59375 C0.29 31.59375 4.58 31.59375 9 31.59375 C9.08057875 27.13505934 9.14030229 22.67780944 9.1875 18.21875 C9.21263672 16.94773438 9.23777344 15.67671875 9.26367188 14.3671875 C9.27333984 13.15546875 9.28300781 11.94375 9.29296875 10.6953125 C9.3086792 9.57463379 9.32438965 8.45395508 9.34057617 7.29931641 C9.22818604 6.40647949 9.1157959 5.51364258 9 4.59375 C6.04622502 2.22394987 6.04622502 2.22394987 2 2.59375 Z " fill="#CC4127" transform="translate(381,233.40625)"/>
<path d="M0 0 C1.39120471 0.00015906 2.78241534 0.00585033 4.17358398 0.01586914 C4.90463852 0.01728409 5.63569305 0.01869904 6.38890076 0.02015686 C8.73253406 0.02577131 11.07607313 0.03832617 13.41967773 0.05102539 C15.00496282 0.05603853 16.59024939 0.06060176 18.17553711 0.06469727 C22.06945383 0.07574542 25.96329979 0.09301967 29.85717773 0.11352539 C29.94442479 3.53003059 29.99765099 6.94624852 30.04467773 10.36352539 C30.06981445 11.33161133 30.09495117 12.29969727 30.12084961 13.29711914 C30.13051758 14.23168945 30.14018555 15.16625977 30.15014648 16.12915039 C30.16585693 16.98798828 30.18156738 17.84682617 30.19775391 18.73168945 C29.85717773 21.11352539 29.85717773 21.11352539 26.85717773 25.11352539 C27.18717773 17.52352539 27.51717773 9.93352539 27.85717773 2.11352539 C17.95717773 2.11352539 8.05717773 2.11352539 -2.14282227 2.11352539 C-2.01907227 5.33102539 -1.89532227 8.54852539 -1.76782227 11.86352539 C-1.73382324 12.87125 -1.69982422 13.87897461 -1.66479492 14.91723633 C-1.62918457 15.71935547 -1.59357422 16.52147461 -1.55688477 17.34790039 C-1.52546387 18.16484375 -1.49404297 18.98178711 -1.46166992 19.82348633 C-0.81578666 24.46237226 1.50544609 26.98524252 4.85717773 30.11352539 C3.86717773 30.11352539 2.87717773 30.11352539 1.85717773 30.11352539 C-3.96922962 23.93400244 -4.44592813 18.48027382 -4.33032227 10.36352539 C-4.32967773 9.48825195 -4.3290332 8.61297852 -4.32836914 7.71118164 C-4.27564773 0.15444544 -4.27564773 0.15444544 0 0 Z " fill="#B83B24" transform="translate(237.142822265625,132.886474609375)"/>
<path d="M0 0 C11.22 0 22.44 0 34 0 C34.1546875 4.95 34.1546875 4.95 34.3125 10 C34.35802002 11.02351562 34.40354004 12.04703125 34.45043945 13.1015625 C34.55007007 19.7453179 33.13403467 23.79493809 29 29 C27.8828125 25.28125 27.8828125 25.28125 28.9375 22.75 C29.4634375 21.88375 29.4634375 21.88375 30 21 C30.66 21 31.32 21 32 21 C32 14.73 32 8.46 32 2 C22.1 2 12.2 2 2 2 C2 8.93 2 15.86 2 23 C-0.13604308 19.79593538 -0.24208908 19.00399253 -0.1953125 15.33203125 C-0.19031738 14.52741455 -0.18532227 13.72279785 -0.18017578 12.89379883 C-0.16196777 11.87697021 -0.14375977 10.8601416 -0.125 9.8125 C-0.063125 4.9553125 -0.063125 4.9553125 0 0 Z " fill="#B43922" transform="translate(33,133)"/>
<path d="M0 0 C11.22 0 22.44 0 34 0 C34 7.59 34 15.18 34 23 C33.01 23.495 33.01 23.495 32 24 C32 16.74 32 9.48 32 2 C22.1 2 12.2 2 2 2 C2 8.27 2 14.54 2 21 C2.66 21 3.32 21 4 21 C4 22.65 4 24.3 4 26 C2 25 2 25 0.8828125 23.08203125 C-0.39912413 18.60659761 -0.20936282 14.31438996 -0.125 9.6875 C-0.08375 6.490625 -0.0425 3.29375 0 0 Z " fill="#C0A921" transform="translate(83,133)"/>
<path d="M0 0 C11.22 0 22.44 0 34 0 C34.04125 3.238125 34.0825 6.47625 34.125 9.8125 C34.14320801 10.82932861 34.16141602 11.84615723 34.18017578 12.89379883 C34.1851709 13.69841553 34.19016602 14.50303223 34.1953125 15.33203125 C34.21102295 16.56530151 34.21102295 16.56530151 34.22705078 17.82348633 C34 20 34 20 32 23 C32 16.07 32 9.14 32 2 C22.1 2 12.2 2 2 2 C2 8.6 2 15.2 2 22 C2.66 22.33 3.32 22.66 4 23 C3.34 23.66 2.68 24.32 2 25 C0.16930097 21.87070822 -0.23931181 19.62356854 -0.1953125 16.015625 C-0.19031738 15.17290039 -0.18532227 14.33017578 -0.18017578 13.46191406 C-0.16196777 12.40198242 -0.14375977 11.34205078 -0.125 10.25 C-0.063125 5.17625 -0.063125 5.17625 0 0 Z " fill="#C1AA22" transform="translate(183,133)"/>
<path d="M0 0 C4.68139254 -0.02465288 9.36274759 -0.04283739 14.04418945 -0.05493164 C15.63794614 -0.05997157 17.23169819 -0.0668035 18.82543945 -0.07543945 C21.11150253 -0.08751999 23.39750467 -0.09323155 25.68359375 -0.09765625 C26.40026718 -0.10281754 27.11694061 -0.10797882 27.85533142 -0.11329651 C29.57063672 -0.11349263 31.28581266 -0.06192007 33 0 C35.12829898 2.12829898 34.18519809 6.747964 34.1875 9.6875 C34.19974609 10.49123047 34.21199219 11.29496094 34.22460938 12.12304688 C34.23613377 16.82115993 33.80574228 20.58199814 32 25 C31.67 25 31.34 25 31 25 C31.33 17.41 31.66 9.82 32 2 C22.1 2 12.2 2 2 2 C2 8.93 2 15.86 2 23 C-0.13604308 19.79593538 -0.24208908 19.00399253 -0.1953125 15.33203125 C-0.18564453 13.99301758 -0.18564453 13.99301758 -0.17578125 12.62695312 C-0.15902344 11.69818359 -0.14226562 10.76941406 -0.125 9.8125 C-0.11597656 8.87212891 -0.10695313 7.93175781 -0.09765625 6.96289062 C-0.07409056 4.64167032 -0.04119116 2.32096356 0 0 Z " fill="#C4AD22" transform="translate(283,133)"/>
<path d="M0 0 C0 0.99 0 1.98 0 3 C-6.27 3 -12.54 3 -19 3 C-19 35.67 -19 68.34 -19 102 C-19.33 102 -19.66 102 -20 102 C-20.023121 88.9788936 -20.04091384 75.95779205 -20.05181217 62.93666935 C-20.05704153 56.89112183 -20.06414014 50.8455883 -20.07543945 44.80004883 C-20.08626645 38.97105712 -20.09227643 33.14207891 -20.09487724 27.31307793 C-20.09673183 25.0838239 -20.10035308 22.85457065 -20.10573006 20.62532234 C-20.11293799 17.51460266 -20.11399105 14.40393951 -20.11352539 11.29321289 C-20.11712067 10.36173431 -20.12071594 9.43025574 -20.12442017 8.47055054 C-20.11405216 2.11405216 -20.11405216 2.11405216 -19 1 C-12.69110458 0.10189714 -6.36276245 -0.12005212 0 0 Z " fill="#220000" transform="translate(352,14)"/>
<path d="M0 0 C2.66479492 1.59863281 2.66479492 1.59863281 5 4 C5.56762695 7.11621094 5.56762695 7.11621094 5.48828125 10.734375 C5.47216797 12.02988281 5.45605469 13.32539063 5.43945312 14.66015625 C5.39767939 16.02345428 5.3553547 17.38673552 5.3125 18.75 C5.2874091 20.12886624 5.26459729 21.50777597 5.24414062 22.88671875 C5.18519726 26.25827944 5.09551796 29.62927721 5 33 C-0.28 33 -5.56 33 -11 33 C-11 23.76 -11 14.52 -11 5 C-10.67 5 -10.34 5 -10 5 C-10 13.58 -10 22.16 -10 31 C-5.71 31 -1.42 31 3 31 C3 22.09 3 13.18 3 4 C-2.42507684 3.22498902 -4.99931969 2.90228969 -10 4 C-9.67 3.01 -9.34 2.02 -9 1 C-5.66660588 -0.11113137 -3.49519344 -0.34951934 0 0 Z " fill="#D37C1A" transform="translate(320,234)"/>
<path d="M0 0 C11.22 0 22.44 0 34 0 C34 6.27 34 12.54 34 19 C33.67 19 33.34 19 33 19 C33 13.06 33 7.12 33 1 C22.44 1 11.88 1 1 1 C1.33 7.6 1.66 14.2 2 21 C2.66 21 3.32 21 4 21 C4.061875 21.7425 4.12375 22.485 4.1875 23.25 C5.28129718 26.95208276 6.68378516 28.08396476 10 30 C13.19235272 29.77426109 13.19235272 29.77426109 16 29 C16.33 29.33 16.66 29.66 17 30 C20.83319229 30.17423601 24.26835686 29.87803368 28 29 C25.38927547 31.85936496 23.44299808 32.86181651 19.51171875 33.23828125 C13.4616352 33.39727376 9.70433066 33.23389759 5 29 C-0.33683659 23.2819608 -0.26812749 16.49289939 -0.125 9.125 C-0.08375 6.11375 -0.0425 3.1025 0 0 Z " fill="#B33721" transform="translate(333,133)"/>
<path d="M0 0 C5.44285807 4.65468463 5.0383481 12.79891951 5.5625 19.5 C5.62566406 20.5003125 5.68882812 21.500625 5.75390625 22.53125 C5.85204492 25.0009966 5.85204492 25.0009966 7 27 C7.23296698 30.53887942 7.39433488 34.0712395 7.51757812 37.61523438 C7.55173828 38.35708984 7.58589844 39.09894531 7.62109375 39.86328125 C7.6461499 40.53657471 7.67120605 41.20986816 7.69702148 41.90356445 C7.92402528 44.09399497 7.92402528 44.09399497 8.98413086 46.34521484 C10.19299986 49.50436924 10.41716022 52.2398634 10.6328125 55.61328125 C10.71660156 56.86044922 10.80039062 58.10761719 10.88671875 59.39257812 C10.96535156 60.68615234 11.04398437 61.97972656 11.125 63.3125 C11.21136719 64.62541016 11.29773438 65.93832031 11.38671875 67.29101562 C11.5985248 70.52694133 11.80267453 73.76316432 12 77 C9.94281527 73.9142229 9.64596932 72.65981952 9.25390625 69.08984375 C9.14030762 68.10862549 9.02670898 67.12740723 8.90966797 66.11645508 C8.79510254 65.0673999 8.68053711 64.01834473 8.5625 62.9375 C7.68317723 55.35546847 6.71190882 47.82787279 5.375 40.3125 C4.27435292 34.10042021 3.63123636 27.98345026 3.24609375 21.6796875 C2.93580844 18.30102523 1.94625824 15.25276271 1 12 C0.54511875 8.0071535 0.25024089 4.01043951 0 0 Z " fill="#390102" transform="translate(354,40)"/>
<path d="M0 0 C0.33 0 0.66 0 1 0 C1.02690104 2.79173055 1.04679053 5.58320348 1.0625 8.375 C1.07087891 9.1690625 1.07925781 9.963125 1.08789062 10.78125 C1.11328125 16.7734375 1.11328125 16.7734375 0 19 C-5.28 18.67 -10.56 18.34 -16 18 C-16 20.64 -16 23.28 -16 26 C-16.62109375 28.6796875 -16.62109375 28.6796875 -17.4375 30.875 C-17.70433594 31.61492187 -17.97117187 32.35484375 -18.24609375 33.1171875 C-19 35 -19 35 -20 37 C-20.99 37 -21.98 37 -23 37 C-24.20628008 39.33214148 -25.1654738 41.49642139 -26 44 C-27.48828125 45.203125 -27.48828125 45.203125 -29.3125 46.25 C-30.20388672 46.78367187 -30.20388672 46.78367187 -31.11328125 47.328125 C-33.4491564 48.15994803 -34.69274206 47.7945524 -37 47 C-36.41992188 46.6596875 -35.83984375 46.319375 -35.2421875 45.96875 C-27.20324592 40.98089186 -22.41902025 35.53266986 -19.54296875 26.46875 C-18.78529857 23.02380358 -18.43750551 19.50004412 -18 16 C-12.06 16 -6.12 16 0 16 C0 10.72 0 5.44 0 0 Z " fill="#DFC520" transform="translate(351,392)"/>
<path d="M0 0 C10.33858339 -0.35245171 16.65241447 0.01526351 24.75 6.625 C30.13491149 11.75880163 32.76154511 16.18876337 33.23046875 23.68359375 C33.24784077 27.13367687 33.1764217 30.5548762 33 34 C26.79277259 34.19705484 20.93145185 34.03149091 15 32 C14.34 31.34 13.68 30.68 13 30 C18.94 30.66 24.88 31.32 31 32 C30.77541733 20.80580345 30.77541733 20.80580345 26 11 C23.04150073 8.66585353 23.04150073 8.66585353 20 7 C19.505 6.46375 19.01 5.9275 18.5 5.375 C13.95074327 1.204848 6.81070618 1.47113834 1 1 C1 5.29 1 9.58 1 14 C0.67 14 0.34 14 0 14 C0 9.38 0 4.76 0 0 Z " fill="#378D14" transform="translate(184,300)"/>
<path d="M0 0 C10.89 0 21.78 0 33 0 C33.061875 2.97 33.12375 5.94 33.1875 9 C33.22846802 10.37865234 33.22846802 10.37865234 33.27026367 11.78515625 C33.32771165 17.54725063 32.32621246 21.72480953 30 27 C29.67 27 29.34 27 29 27 C29 25.35 29 23.7 29 22 C29.66 22 30.32 22 31 22 C31 15.4 31 8.8 31 2 C21.1 2 11.2 2 1 2 C1 8.6 1 15.2 1 22 C0.67 22 0.34 22 0 22 C0 14.74 0 7.48 0 0 Z " fill="#BF3E25" transform="translate(134,133)"/>
<path d="M0 0 C4.88101124 2.11299188 7.40920014 5.43562025 10 10 C12.11918863 16.22761564 12.21017211 22.48466468 12 29 C1.52798304 29.60158395 -6.86226172 27.80912794 -15 21 C-18 17.61290323 -18 17.61290323 -18 15 C-17.34 15 -16.68 15 -16 15 C-15.401875 15.94875 -14.80375 16.8975 -14.1875 17.875 C-11.89535212 21.14949697 -10.75819708 21.95605637 -7 23 C-7 23.66 -7 24.32 -7 25 C-6.03900391 25.09087891 -6.03900391 25.09087891 -5.05859375 25.18359375 C-4.19363281 25.26738281 -3.32867187 25.35117187 -2.4375 25.4375 C-1.59058594 25.51871094 -0.74367187 25.59992188 0.12890625 25.68359375 C3.43145781 26.04754841 6.71302361 26.51650162 10 27 C9.77028802 24.45503311 9.51701591 21.9161014 9.25 19.375 C9.188125 18.66214844 9.12625 17.94929688 9.0625 17.21484375 C8.51284943 12.22218436 7.29629241 8.96775938 4 5 C3.01 4.67 2.02 4.34 1 4 C0.3125 1.9375 0.3125 1.9375 0 0 Z " fill="#11670D" transform="translate(155,305)"/>
<path d="M0 0 C0.33 0 0.66 0 1 0 C1 3.3 1 6.6 1 10 C0.01 10.33 -0.98 10.66 -2 11 C-2 12.65 -2 14.3 -2 16 C-7.10863896 16.0246501 -12.21724359 16.04283607 -17.32592773 16.05493164 C-19.06519168 16.05997204 -20.80445136 16.0668043 -22.54370117 16.07543945 C-25.03825937 16.08751792 -27.53276173 16.09323108 -30.02734375 16.09765625 C-30.80963852 16.10281754 -31.59193329 16.10797882 -32.39793396 16.11329651 C-34.26567114 16.11349226 -36.13329204 16.06199694 -38 16 C-39 15 -39 15 -39.0625 11.4375 C-39.041875 10.303125 -39.02125 9.16875 -39 8 C-38.67 8 -38.34 8 -38 8 C-38 9.98 -38 11.96 -38 14 C-26.45 14 -14.9 14 -3 14 C-2.67 11.69 -2.34 9.38 -2 7 C-1.42632073 4.62572156 -0.71570691 2.33797592 0 0 Z " fill="#4E0409" transform="translate(72,102)"/>
<path d="M0 0 C0.33 0 0.66 0 1 0 C0.42382943 8.50693238 -0.6584982 16.84297992 -2.0625 25.25 C-2.701875 29.1275 -3.34125 33.005 -4 37 C6.23 37 16.46 37 27 37 C27 37.33 27 37.66 27 38 C16.44 38 5.88 38 -5 38 C-4.67 30.74 -4.34 23.48 -4 16 C-3.34 16 -2.68 16 -2 16 C-1.93941406 15.01257813 -1.87882813 14.02515625 -1.81640625 13.0078125 C-1.73261719 11.72648437 -1.64882812 10.44515625 -1.5625 9.125 C-1.48128906 7.84882812 -1.40007812 6.57265625 -1.31640625 5.2578125 C-1 2 -1 2 0 0 Z " fill="#3B0001" transform="translate(139,80)"/>
<path d="M0 0 C10.56 0 21.12 0 32 0 C32.061875 3.34125 32.12375 6.6825 32.1875 10.125 C32.22846802 11.68758545 32.22846802 11.68758545 32.27026367 13.28173828 C32.31815787 18.63661858 31.98366859 22.34829621 29 27 C28.67 27 28.34 27 28 27 C28 24.69 28 22.38 28 20 C28.99 20 29.98 20 31 20 C31 13.73 31 7.46 31 1 C21.1 1 11.2 1 1 1 C1 4.63 1 8.26 1 12 C0.67 12 0.34 12 0 12 C0 8.04 0 4.08 0 0 Z " fill="#E84B2C" transform="translate(334,134)"/>
<path d="M0 0 C4.7769834 2.32024908 7.35254203 5.51968651 10 10 C11.25433458 13.76300374 11.10695422 17.27210909 11.0625 21.1875 C11.05798828 21.93708984 11.05347656 22.68667969 11.04882812 23.45898438 C11.03706354 25.30602383 11.01912865 27.15302213 11 29 C4.28299653 29.31985731 -0.75726932 28.4793824 -7 26 C-7 25.67 -7 25.34 -7 25 C-5.33388095 24.957279 -3.66617115 24.95936168 -2 25 C-1.67 25.33 -1.34 25.66 -1 26 C0.85287502 26.07226502 2.70833878 26.0838122 4.5625 26.0625 C5.57441406 26.05347656 6.58632812 26.04445313 7.62890625 26.03515625 C8.41136719 26.02355469 9.19382812 26.01195312 10 26 C9.51784264 15.63287541 9.51784264 15.63287541 6 6 C4.00829209 4.87125876 4.00829209 4.87125876 2 4 C0.75 1.875 0.75 1.875 0 0 Z " fill="#0E4D0B" transform="translate(105,305)"/>
<path d="M0 0 C1.18239258 0.01353516 1.18239258 0.01353516 2.38867188 0.02734375 C4.32174666 0.05077496 6.2546638 0.08664162 8.1875 0.125 C8.1875 0.785 8.1875 1.445 8.1875 2.125 C8.90035156 2.07859375 9.61320312 2.0321875 10.34765625 1.984375 C16.97004156 1.73481001 20.7643349 2.26852704 26.1875 6.125 C24.1875 7.125 24.1875 7.125 22.0859375 6.6015625 C21.25320312 6.32054687 20.42046875 6.03953125 19.5625 5.75 C9.07900993 2.47950951 -3.40598732 1.12371169 -13.8125 5.125 C-13.8125 4.135 -13.8125 3.145 -13.8125 2.125 C-9.18433267 -0.23082065 -5.05715865 -0.11021469 0 0 Z " fill="#D6C21F" transform="translate(204.8125,380.875)"/>
<path d="M0 0 C0.33 0 0.66 0 1 0 C1.33 4.62 1.66 9.24 2 14 C12.56 13.67 23.12 13.34 34 13 C34 13.66 34 14.32 34 15 C17.665 15.99 17.665 15.99 1 17 C0.67 11.39 0.34 5.78 0 0 Z " fill="#5B4308" transform="translate(380,102)"/>
<path d="M0 0 C3.41158256 1.13719419 4.11854601 2.04342944 6 5 C6 5.66 6 6.32 6 7 C12.19874164 7.33076289 16.52219494 7.28668304 22 4 C22.66 4 23.32 4 24 4 C24 4.66 24 5.32 24 6 C24.66 6.33 25.32 6.66 26 7 C20.47713542 10.82040357 15.53091977 10.80530312 9 10 C4.98763627 8.02901431 2.30749747 5.84582912 0 2 C0 1.34 0 0.68 0 0 Z " fill="#EB4328" transform="translate(35,156)"/>
<path d="M0 0 C5.94 0 11.88 0 18 0 C18.33 2.31 18.66 4.62 19 7 C17 4 17 4 16 2 C13.45058627 1.68758629 10.99638487 1.48696579 8.4375 1.375 C7.72658203 1.33632813 7.01566406 1.29765625 6.28320312 1.2578125 C4.52257575 1.16328217 2.76132272 1.08054183 1 1 C1.33 2.19625 1.66 3.3925 2 4.625 C2.89265823 8.15791497 3.18296045 11.34079109 3 15 C3.66 15 4.32 15 5 15 C5 20.28 5 25.56 5 31 C4.67 31 4.34 31 4 31 C3.32555232 26.959592 2.66182413 22.91749334 2 18.875 C1.80921875 17.73289062 1.6184375 16.59078125 1.421875 15.4140625 C1.15117187 13.75117188 1.15117187 13.75117188 0.875 12.0546875 C0.70742188 11.03874512 0.53984375 10.02280273 0.3671875 8.97607422 C0 6 0 6 0 0 Z " fill="#C49E22" transform="translate(368,17)"/>
<path d="M0 0 C2.45391569 3.68087353 2.22802759 6.44355588 2.125 10.6875 C2.11597656 11.38939453 2.10695312 12.09128906 2.09765625 12.81445312 C2.07413704 14.54311525 2.03826713 16.27160145 2 18 C-12.78132118 18.55353075 -12.78132118 18.55353075 -19 15 C-15.82240197 13.97195358 -13.83203771 14.07666356 -10.625 14.9375 C-6.74381271 15.97294043 -4.28696193 16 0 16 C0 10.72 0 5.44 0 0 Z " fill="#76B922" transform="translate(181,265)"/>
<path d="M0 0 C0.66 0 1.32 0 2 0 C2.22468318 7.19735122 1.39541458 13.86011948 0.125 20.9375 C-0.04902344 21.97712891 -0.22304687 23.01675781 -0.40234375 24.08789062 C-0.57636719 25.07853516 -0.75039062 26.06917969 -0.9296875 27.08984375 C-1.08679199 27.98566162 -1.24389648 28.88147949 -1.40576172 29.80444336 C-2 32 -2 32 -4 34 C-4.16004883 28.69055391 -3.57792705 23.89060708 -2.5625 18.6875 C-1.40056907 12.46233833 -0.50156071 6.31966493 0 0 Z " fill="#AA0A17" transform="translate(146,32)"/>
<path d="M0 0 C0 0.66 0 1.32 0 2 C-0.66 2.66 -1.32 3.32 -2 4 C-2.99 5.485 -2.99 5.485 -4 7 C-5.175625 6.9690625 -5.175625 6.9690625 -6.375 6.9375 C-7.24125 6.958125 -8.1075 6.97875 -9 7 C-9.598125 7.66 -10.19625 8.32 -10.8125 9 C-13.33839784 11.30939231 -13.96373913 11.27310201 -17.25 11.25 C-18.4875 11.1675 -19.725 11.085 -21 11 C-17.39750049 8.0718145 -13.4592011 5.97587472 -9.375 3.8125 C-8.694375 3.44447266 -8.01375 3.07644531 -7.3125 2.69726562 C-2.24824617 0 -2.24824617 0 0 0 Z " fill="#DCBF1C" transform="translate(302,446)"/>
<path d="M0 0 C0.33 1.32 0.66 2.64 1 4 C1.99 3.67 2.98 3.34 4 3 C5.5 4.1875 5.5 4.1875 7 6 C7.1875 8.6875 7.1875 8.6875 7 11 C6.54109375 10.566875 6.0821875 10.13375 5.609375 9.6875 C4.99578125 9.130625 4.3821875 8.57375 3.75 8 C3.14671875 7.443125 2.5434375 6.88625 1.921875 6.3125 C-0.162653 4.62402557 -0.162653 4.62402557 -4 5 C-5.74668165 6.0551021 -5.74668165 6.0551021 -7.25 7.5 C-8.1575 8.325 -9.065 9.15 -10 10 C-9.67 8.35 -9.34 6.7 -9 5 C-8.01 5 -7.02 5 -6 5 C-6 3.68 -6 2.36 -6 1 C-4.02 0.67 -2.04 0.34 0 0 Z " fill="#F3D81A" transform="translate(338,358)"/>
<path d="M0 0 C7.19270351 -0.48764092 7.19270351 -0.48764092 10.609375 1.57617188 C13 4 13 4 13.56762695 7.29980469 C13.54144287 8.57758789 13.51525879 9.85537109 13.48828125 11.171875 C13.47766914 12.1955014 13.47766914 12.1955014 13.46684265 13.23980713 C13.43894021 15.41100561 13.37622253 17.57958668 13.3125 19.75 C13.28741117 21.22522306 13.264599 22.70048671 13.24414062 24.17578125 C13.18913137 27.78469904 13.10289307 31.39209391 13 35 C12.67 35 12.34 35 12 35 C11.9906543 34.13721436 11.98130859 33.27442871 11.97167969 32.38549805 C11.92764278 29.1813816 11.86602106 25.97822272 11.79248047 22.7746582 C11.76427203 21.38871604 11.74305667 20.00261304 11.72900391 18.61645508 C11.70757579 16.62292596 11.65882986 14.62974954 11.609375 12.63671875 C11.58842773 11.43748779 11.56748047 10.23825684 11.54589844 9.00268555 C11.28028766 5.91822707 11.28028766 5.91822707 9.09570312 4.10351562 C5.65557747 2.29207947 2.83551944 2.80822403 -1 3 C-0.67 2.01 -0.34 1.02 0 0 Z " fill="#3B1300" transform="translate(313,232)"/>
<path d="M0 0 C0.33 0 0.66 0 1 0 C1.21222719 4.56288469 0.77997029 6.55007426 -1 11 C9.56 11 20.12 11 31 11 C31.33 10.01 31.66 9.02 32 8 C32.495 9.98 32.495 9.98 33 12 C21.45 12 9.9 12 -2 12 C-2 3 -2 3 0 0 Z " fill="#C10D20" transform="translate(36,104)"/>
<path d="M0 0 C0.33 0.99 0.66 1.98 1 3 C0.67 3.66 0.34 4.32 0 5 C-0.66 5 -1.32 5 -2 5 C-1.9278125 5.61746094 -1.855625 6.23492187 -1.78125 6.87109375 C-1.1511141 12.62108387 -0.90671719 18.21646559 -1 24 C-0.38640625 23.66226562 0.2271875 23.32453125 0.859375 22.9765625 C3.4056713 21.81493098 4.42143135 22.07908262 7 23 C4.3144406 25.6855594 1.62378672 26.06049974 -2 27 C-2.33965474 24.81347261 -2.67142477 22.62571975 -3 20.4375 C-3.2784375 18.61025391 -3.2784375 18.61025391 -3.5625 16.74609375 C-4.39242729 9.63984132 -4.51086091 5.77954054 0 0 Z " fill="#D66440" transform="translate(269,417)"/>
<path d="M0 0 C0.66 0 1.32 0 2 0 C2 0.66 2 1.32 2 2 C2.99 2.33 3.98 2.66 5 3 C6.14077657 6.42232972 6.09815117 9.08673217 6.0625 12.6875 C6.05347656 13.86699219 6.04445313 15.04648437 6.03515625 16.26171875 C6.02355469 17.16535156 6.01195312 18.06898438 6 19 C5.34 19 4.68 19 4 19 C3.7525 19.969375 3.505 20.93875 3.25 21.9375 C2.8375 22.948125 2.425 23.95875 2 25 C-0.125 25.875 -0.125 25.875 -2 26 C-0.99088542 24.2421875 0.01822917 22.484375 1.02734375 20.7265625 C3.57360809 16.20668764 3.45860463 12.12872848 3 7 C2.22562532 4.44726488 1.24121908 2.37900323 0 0 Z " fill="#3B1107" transform="translate(312,397)"/>
<path d="M0 0 C0 0.99 0 1.98 0 3 C1.2684375 2.938125 1.2684375 2.938125 2.5625 2.875 C6.42213269 3.01535028 9.33688013 3.82780164 13 5 C12.67 5.66 12.34 6.32 12 7 C8.82031328 6.53467999 5.85472499 5.95486602 2.78125 5 C-1.19501548 3.94842566 -4.83536113 3.59281268 -8.9375 3.375 C-9.62134766 3.33632813 -10.30519531 3.29765625 -11.00976562 3.2578125 C-12.67279513 3.16477588 -14.33635847 3.08136213 -16 3 C-15.67 2.34 -15.34 1.68 -15 1 C-12.63671875 0.5859375 -12.63671875 0.5859375 -9.6875 0.375 C-8.72199219 0.30023438 -7.75648438 0.22546875 -6.76171875 0.1484375 C-4.51051884 0.02743948 -2.25444928 0 0 0 Z " fill="#EDCE2E" transform="translate(306,372)"/>
<path d="M0 0 C5.28 0 10.56 0 16 0 C16.66 1.65 17.32 3.3 18 5 C17.01 4.67 16.02 4.34 15 4 C15 3.34 15 2.68 15 2 C10.71 2 6.42 2 2 2 C2.33 2.99 2.66 3.98 3 5 C3.03954234 7.33299825 3.04401732 9.66708189 3 12 C0.2884971 7.93274566 0.42132512 4.8452389 0 0 Z " fill="#BB0E1E" transform="translate(404,17)"/>
<path d="M0 0 C5.94 0 11.88 0 18 0 C19.28485596 5.13942384 18.22194431 6.37835584 16 11 C14.77403961 7.32211882 15.15689923 6.21550387 16 2 C10.72 2 5.44 2 0 2 C0 1.34 0 0.68 0 0 Z " fill="#3A0003" transform="translate(80,15)"/>
<path d="M0 0 C9.11752404 -0.31082468 15.31811497 -0.21879596 23 5.0625 C23.99 6.0215625 23.99 6.0215625 25 7 C25 7.66 25 8.32 25 9 C22.20264131 8.60037733 21.12684334 8.13107145 19.125 6.0625 C14.23501173 1.31633492 7.45452036 1.52333949 1 1 C1 5.29 1 9.58 1 14 C0.67 14 0.34 14 0 14 C0 9.38 0 4.76 0 0 Z " fill="#3AA214" transform="translate(184,300)"/>
<path d="M0 0 C5.13805236 4.70988133 8.77888795 8.59908607 9.24609375 15.78515625 C9.29000879 19.52991178 9.17330484 23.25950397 9 27 C4.71 27 0.42 27 -4 27 C-4 26.67 -4 26.34 -4 26 C-0.04 26 3.92 26 8 26 C7.67 21.05 7.34 16.1 7 11 C6.34 11 5.68 11 5 11 C4.71125 10.195625 4.4225 9.39125 4.125 8.5625 C3.26737432 5.8673532 3.26737432 5.8673532 1 5 C0.375 2.4375 0.375 2.4375 0 0 Z " fill="#3D9E16" transform="translate(124,256)"/>
<path d="M0 0 C0 0.66 0 1.32 0 2 C0.639375 2.309375 1.27875 2.61875 1.9375 2.9375 C4 4 4 4 5 5 C5.08758003 6.99964982 5.10696576 9.0023611 5.09765625 11.00390625 C5.09443359 12.21884766 5.09121094 13.43378906 5.08789062 14.68554688 C5.07951172 15.96494141 5.07113281 17.24433594 5.0625 18.5625 C5.05798828 19.84576172 5.05347656 21.12902344 5.04882812 22.45117188 C5.03699545 25.63416022 5.02051068 28.81705762 5 32 C4.67 32 4.34 32 4 32 C3.67 23.42 3.34 14.84 3 6 C-2.95088398 2.98582623 -2.95088398 2.98582623 -9 3 C-7.14340032 -0.71319936 -3.69365381 -0.09982848 0 0 Z " fill="#CA5B3C" transform="translate(353,233)"/>
<path d="M0 0 C4.875 4.625 4.875 4.625 6 8 C7.32 8 8.64 8 10 8 C10 8.66 10 9.32 10 10 C13.3 10 16.6 10 20 10 C20 9.34 20 8.68 20 8 C21.32 8 22.64 8 24 8 C24 7.34 24 6.68 24 6 C24.99 6.33 25.98 6.66 27 7 C22.20734515 11.26013764 18.18538369 11.61052137 11.84765625 11.390625 C6.96023305 10.72019658 4.3469573 8.48165303 1.125 4.9375 C0 3 0 3 0 0 Z " fill="#D44329" transform="translate(135,155)"/>
<path d="M0 0 C17.6273717 -0.83608087 17.6273717 -0.83608087 24 4 C24.33 4.99 24.66 5.98 25 7 C24.44699219 6.70222656 23.89398438 6.40445312 23.32421875 6.09765625 C16.33244136 2.79565718 8.63885282 1.62613548 1 1 C1 4.96 1 8.92 1 13 C0.67 13 0.34 13 0 13 C0 8.71 0 4.42 0 0 Z " fill="#022001" transform="translate(83,299)"/>
<path d="M0 0 C0 0.99 0 1.98 0 3 C-6.27 3 -12.54 3 -19 3 C-19.33 3.99 -19.66 4.98 -20 6 C-19.67 4.35 -19.34 2.7 -19 1 C-12.63849395 0.34513908 -6.39628979 -0.12068471 0 0 Z " fill="#360000" transform="translate(352,14)"/>
<path d="M0 0 C2.74054368 3.32486381 4.42376049 6.83057886 6.1875 10.75 C6.71730469 11.92046875 7.24710938 13.0909375 7.79296875 14.296875 C8.19128906 15.18890625 8.58960938 16.0809375 9 17 C8.34 17 7.68 17 7 17 C7 16.34 7 15.68 7 15 C6.34 15 5.68 15 5 15 C5 14.34 5 13.68 5 13 C4.01 13.33 3.02 13.66 2 14 C0.09391902 10.78817851 -0.22266247 8.46117397 -0.125 4.75 C-0.09792969 3.41195313 -0.09792969 3.41195313 -0.0703125 2.046875 C-0.04710937 1.37140625 -0.02390625 0.6959375 0 0 Z " fill="#EAD116" transform="translate(186,427)"/>
<path d="M0 0 C8.48595008 -0.35730316 14.58802886 -0.29013317 22 4 C19.48488179 5.25755911 18.68793008 4.85468264 16 4.1875 C11.02118166 2.99744098 6.0224263 1.99033758 1 1 C1 5.29 1 9.58 1 14 C0.67 14 0.34 14 0 14 C0 9.38 0 4.76 0 0 Z " fill="#389B11" transform="translate(100,250)"/>
<path d="M0 0 C0.99 0.33 1.98 0.66 3 1 C2.67 1.99 2.34 2.98 2 4 C2.99 4.33 3.98 4.66 5 5 C5 5.66 5 6.32 5 7 C6.175625 7.4640625 6.175625 7.4640625 7.375 7.9375 C10 9 10 9 12 10 C12 10.66 12 11.32 12 12 C16.455 12.99 16.455 12.99 21 14 C20.67 14.66 20.34 15.32 20 16 C12.32649192 14.22063581 6.60310113 10.51836614 1 5 C-0.28515625 2.74609375 -0.28515625 2.74609375 -1 1 C-0.67 0.67 -0.34 0.34 0 0 Z " fill="#74B71F" transform="translate(210,432)"/>
<path d="M0 0 C0.66 0 1.32 0 2 0 C1.67 4.95 1.34 9.9 1 15 C0.34 15 -0.32 15 -1 15 C-0.98839844 15.65226562 -0.97679687 16.30453125 -0.96484375 16.9765625 C-0.91529006 21.7761914 -1.00586249 26.27784685 -2 31 C-2.33 31 -2.66 31 -3 31 C-2.55362542 20.53369067 -1.8785366 10.32283217 0 0 Z " fill="#4B0106" transform="translate(147,17)"/>
<path d="M0 0 C1.32 0.66 2.64 1.32 4 2 C-0.79216074 6.25969844 -4.80647873 6.59532899 -11.140625 6.40625 C-15.09744904 5.84407828 -17.04346305 4.62803284 -20 2 C-19.34 1.67 -18.68 1.34 -18 1 C-17.195625 1.474375 -16.39125 1.94875 -15.5625 2.4375 C-10.66538926 4.58535559 -6.26924484 4.25314877 -1 4 C-0.67 2.68 -0.34 1.36 0 0 Z " fill="#E3CB28" transform="translate(108,160)"/>
<path d="M0 0 C0.99 0.33 1.98 0.66 3 1 C2.67 1.66 2.34 2.32 2 3 C2.66 3 3.32 3 4 3 C4 3.99 4 4.98 4 6 C2.04196493 6.05389087 0.08351091 6.09274217 -1.875 6.125 C-2.96554687 6.14820313 -4.05609375 6.17140625 -5.1796875 6.1953125 C-8 6 -8 6 -10 4 C-5.545 3.505 -5.545 3.505 -1 3 C-0.67 2.01 -0.34 1.02 0 0 Z " fill="#EE4226" transform="translate(452,160)"/>
<path d="M0 0 C1.89492187 0.01353516 1.89492187 0.01353516 3.828125 0.02734375 C4.79234375 0.03894531 5.7565625 0.05054688 6.75 0.0625 C6.75 0.3925 6.75 0.7225 6.75 1.0625 C5.58082031 1.14886719 4.41164062 1.23523438 3.20703125 1.32421875 C1.65874699 1.46497186 0.11057507 1.60696445 -1.4375 1.75 C-2.20642578 1.80349609 -2.97535156 1.85699219 -3.76757812 1.91210938 C-9.23350731 2.45166462 -11.60516767 3.71046139 -15.25 8.0625 C-17.5625 9.375 -17.5625 9.375 -19.25 10.0625 C-17.68795274 5.84497239 -14.79865748 3.68850654 -11.25 1.0625 C-7.58123937 -0.28655099 -3.86790506 -0.03581394 0 0 Z " fill="#3F3801" transform="translate(204.25,382.9375)"/>
<path d="M0 0 C0.33 0 0.66 0 1 0 C1.04898438 1.21816406 1.09796875 2.43632812 1.1484375 3.69140625 C1.22352273 5.31512437 1.29906802 6.93882126 1.375 8.5625 C1.4059375 9.36236328 1.436875 10.16222656 1.46875 10.98632812 C1.71188916 15.95041938 2.54591943 20.21808464 4 25 C4 26.32 4 27.64 4 29 C3.01 28.67 2.02 28.34 1 28 C0.07840421 21.78829926 -0.12177385 15.77390894 -0.0625 9.5 C-0.05798828 8.5821875 -0.05347656 7.664375 -0.04882812 6.71875 C-0.03716326 4.47909609 -0.02079614 2.23958455 0 0 Z " fill="#DEC722" transform="translate(182,398)"/>
<path d="M0 0 C2.28057705 1.93849049 3.56085162 3.95067698 4.9375 6.5625 C6.5275935 9.47255528 7.72636462 10.94776006 11 12 C11 12.66 11 13.32 11 14 C11.78375 14.12375 12.5675 14.2475 13.375 14.375 C16 15 16 15 18 17 C12.02145106 16.70107255 8.21016713 14.02205328 4 10 C1.58410456 6.80804876 0 4.10253482 0 0 Z " fill="#3AA113" transform="translate(102,265)"/>
<path d="M0 0 C0 3 0 3 -1 5 C1.70183055 6.35091528 4.11808206 6.33858058 7.125 6.5625 C8.76855469 6.68818359 8.76855469 6.68818359 10.4453125 6.81640625 C11.28835938 6.87699219 12.13140625 6.93757813 13 7 C13 7.33 13 7.66 13 8 C6.4 8 -0.2 8 -7 8 C-1 1 -1 1 0 0 Z " fill="#EED629" transform="translate(337,383)"/>
<path d="M0 0 C1.32 0.66 2.64 1.32 4 2 C-0.91055775 6.36494022 -4.93409092 6.41624265 -11.390625 6.3359375 C-14 6 -14 6 -16 4 C-11.71 4 -7.42 4 -3 4 C-3 3.34 -3 2.68 -3 2 C-2.01 2 -1.02 2 0 2 C0 1.34 0 0.68 0 0 Z " fill="#DB4529" transform="translate(258,160)"/>
<path d="M0 0 C1.37095624 3.69037278 0.60010967 5.70883835 -0.9375 9.25 C-1.31777344 10.14203125 -1.69804688 11.0340625 -2.08984375 11.953125 C-2.54037109 12.96632813 -2.54037109 12.96632813 -3 14 C-3.66 14 -4.32 14 -5 14 C-5.66 15.32 -6.32 16.64 -7 18 C-7 11.72565421 -2.79858237 5.50066191 0 0 Z " fill="#B30B1A" transform="translate(76,24)"/>
<path d="M0 0 C4.95 0 9.9 0 15 0 C15 0.33 15 0.66 15 1 C14.16855469 1.01417969 13.33710938 1.02835938 12.48046875 1.04296875 C11.39378906 1.09066406 10.30710938 1.13835938 9.1875 1.1875 C8.10855469 1.22230469 7.02960938 1.25710937 5.91796875 1.29296875 C2.83289099 1.72481518 2.83289099 1.72481518 1.15625 4.3125 C-0.22975494 7.534025 -0.65904065 10.52221458 -1 14 C-1.33 14 -1.66 14 -2 14 C-2.05437607 12.41705218 -2.09296271 10.83355744 -2.125 9.25 C-2.14820313 8.36828125 -2.17140625 7.4865625 -2.1953125 6.578125 C-2 4 -2 4 0 0 Z " fill="#CC081D" transform="translate(150,18)"/>
<path d="M0 0 C0.33 0.66 0.66 1.32 1 2 C-1.6181387 7.89081208 -4.06049333 10.45449714 -10 13 C-12.21875 12.59375 -12.21875 12.59375 -14 12 C-13.40832031 11.63648438 -12.81664062 11.27296875 -12.20703125 10.8984375 C-7.21785577 7.72424755 -3.51413477 4.76108581 0 0 Z " fill="#DBC125" transform="translate(328,427)"/>
<path d="M0 0 C10.71428571 -0.14285714 10.71428571 -0.14285714 15 1 C15 1.33 15 1.66 15 2 C11.04 2 7.08 2 3 2 C1.78306124 4.43387753 1.68040104 6.41838846 1.4375 9.125 C1.35371094 10.03507812 1.26992187 10.94515625 1.18359375 11.8828125 C1.12300781 12.58148438 1.06242188 13.28015625 1 14 C0.67 14 0.34 14 0 14 C0 9.38 0 4.76 0 0 Z " fill="#0B700F" transform="translate(134,300)"/>
<path d="M0 0 C0.66 0 1.32 0 2 0 C-0.3525361 7.50809392 -2.82163916 13.92881832 -8 20 C-7.42770134 15.99390935 -6.06310411 13.43850685 -4 10 C-3.29329272 7.30745009 -3.29329272 7.30745009 -3 5 C-2.34 5 -1.68 5 -1 5 C-0.67 3.35 -0.34 1.7 0 0 Z " fill="#420104" transform="translate(64,44)"/>
<path d="M0 0 C0.625 1.8125 0.625 1.8125 1 4 C0.01 5.485 0.01 5.485 -1 7 C-1.28875 8.175625 -1.5775 9.35125 -1.875 10.5625 C-3 14 -3 14 -5.125 15.4375 C-5.74375 15.623125 -6.3625 15.80875 -7 16 C-5.35433477 10.31497465 -2.70967216 5.23318364 0 0 Z " fill="#B70C1A" transform="translate(44,88)"/>
<path d="M0 0 C0.33 0 0.66 0 1 0 C1 1.98 1 3.96 1 6 C1.66 6 2.32 6 3 6 C3 11.28 3 16.56 3 22 C2.67 22 2.34 22 2 22 C-0.29612756 7.40318907 -0.29612756 7.40318907 0 0 Z " fill="#DBAC1B" transform="translate(370,26)"/>
<path d="M0 0 C3.33333333 3.33333333 6.66666667 6.66666667 10 10 C7.03 10 4.06 10 1 10 C1.020625 9.0925 1.04125 8.185 1.0625 7.25 C1.0110245 4.57327412 0.7784983 2.53011948 0 0 Z " fill="#E7CD1C" transform="translate(195,444)"/>
<path d="M0 0 C1.32 0.33 2.64 0.66 4 1 C4.33 2.98 4.66 4.96 5 7 C-0.2734375 10.22265625 -0.2734375 10.22265625 -2 11 C-2.66 10.67 -3.32 10.34 -4 10 C-2.02 7.69 -0.04 5.38 2 3 C1.34 2.01 0.68 1.02 0 0 Z " fill="#EFD621" transform="translate(345,369)"/>
<path d="M0 0 C1.5324882 5.21278182 1.01087132 10.02220828 -1.4375 14.8125 C-1.953125 15.534375 -2.46875 16.25625 -3 17 C-3.66 17.99 -4.32 18.98 -5 20 C-4.35346673 13.04976736 -2.13972752 6.61822697 0 0 Z " fill="#3E0103" transform="translate(81,72)"/>
<path d="M0 0 C0.33 0 0.66 0 1 0 C1 3.3 1 6.6 1 10 C0.67 10 0.34 10 0 10 C-0.28875 10.94875 -0.5775 11.8975 -0.875 12.875 C-2 16 -2 16 -4 18 C-3.41632611 11.69632197 -1.95928381 6.01339937 0 0 Z " fill="#2E0002" transform="translate(86,54)"/>
<path d="M0 0 C1.38860736 3.80928776 0.64452584 6.73995148 -0.25 10.625 C-0.50265625 11.77226563 -0.7553125 12.91953125 -1.015625 14.1015625 C-2 17 -2 17 -5 19 C-4.54729698 16.76968311 -4.08760374 14.54078437 -3.625 12.3125 C-3.36976562 11.07113281 -3.11453125 9.82976562 -2.8515625 8.55078125 C-2.12613946 5.52596682 -1.24868779 2.83940745 0 0 Z " fill="#D1A415" transform="translate(103,57)"/>
<path d="M0 0 C4.29 0 8.58 0 13 0 C13 0.33 13 0.66 13 1 C9.7 1 6.4 1 3 1 C2.34 5.29 1.68 9.58 1 14 C0.67 14 0.34 14 0 14 C0 9.38 0 4.76 0 0 Z " fill="#6CAD1C" transform="translate(150,250)"/>
<path d="M0 0 C1.1684996 3.4824363 1.00352498 3.99133442 -0.5 7.6875 C-2.43832175 10.88163584 -2.83077653 10.95769413 -6.75 11.9375 C-7.8225 11.958125 -8.895 11.97875 -10 12 C-8.9171875 11.2575 -8.9171875 11.2575 -7.8125 10.5 C-4.34111489 7.41432434 -2.2836532 4.00368136 0 0 Z " fill="#250200" transform="translate(266,154)"/>
<path d="M0 0 C0.578125 1.8828125 0.578125 1.8828125 1 4 C-0.25 5.875 -0.25 5.875 -2 8 C-3.03041427 9.98450156 -4.03685937 11.98199105 -5 14 C-5.66 14 -6.32 14 -7 14 C-5.53967505 8.68972746 -3.01679014 4.53669968 0 0 Z " fill="#B50B19" transform="translate(60,58)"/>
<path d="M0 0 C-0.99 0.33 -1.98 0.66 -3 1 C-3.33 1.99 -3.66 2.98 -4 4 C-8.455 4.495 -8.455 4.495 -13 5 C-11.5977422 2.1954844 -9.93929378 1.9557882 -7.0625 0.8125 C-6.16660156 0.44769531 -5.27070313 0.08289063 -4.34765625 -0.29296875 C-2 -1 -2 -1 0 0 Z " fill="#330D06" transform="translate(296,432)"/>
<path d="M0 0 C3.85714286 3.85714286 3.85714286 3.85714286 5 7 C4.625 9.25 4.625 9.25 4 11 C2.68 10.34 1.36 9.68 0 9 C0 6.03 0 3.06 0 0 Z " fill="#74C01D" transform="translate(242,418)"/>
<path d="M0 0 C2.97 0 5.94 0 9 0 C9 0.33 9 0.66 9 1 C6.69 1.66 4.38 2.32 2 3 C2 7.95 2 12.9 2 18 C-0.45391569 14.31912647 -0.22802759 11.55644412 -0.125 7.3125 C-0.11597656 6.61060547 -0.10695313 5.90871094 -0.09765625 5.18554688 C-0.07413704 3.45688475 -0.03826713 1.72839855 0 0 Z " fill="#0C4C0D" transform="translate(84,300)"/>
<path d="M0 0 C0.99 0.33 1.98 0.66 3 1 C5.22587586 5.79079242 5.24625113 10.21716342 5.125 15.375 C5.11597656 16.11105469 5.10695312 16.84710938 5.09765625 17.60546875 C5.07430144 19.4037888 5.03843836 21.20193911 5 23 C4.67 23 4.34 23 4 23 C3.96261719 21.98679687 3.92523438 20.97359375 3.88671875 19.9296875 C3.82101612 18.57809061 3.75457029 17.22652971 3.6875 15.875 C3.66494141 15.20984375 3.64238281 14.5446875 3.61914062 13.859375 C3.36871415 9.21510213 2.23583268 6.04008372 0 2 C0 1.34 0 0.68 0 0 Z " fill="#153200" transform="translate(179,260)"/>
<path d="M0 0 C2.375 1.5 2.375 1.5 4 3 C3.67 3.66 3.34 4.32 3 5 C2.01 4.34 1.02 3.68 0 3 C-3.70544587 2.80149397 -6.47005387 2.82335129 -10 4 C-9.67 3.01 -9.34 2.02 -9 1 C-5.70952793 -0.09682402 -3.44927034 -0.28157309 0 0 Z " fill="#D87F14" transform="translate(320,234)"/>
<path d="M0 0 C1.57159226 3.14318453 0.04018399 5.92933389 -0.9375 9.125 C-1.13279297 9.78371094 -1.32808594 10.44242188 -1.52929688 11.12109375 C-2.01304986 12.74933552 -2.50569075 14.37493182 -3 16 C-3.93619813 12.84493858 -4.1057123 10.03413498 -4.0625 6.75 C-4.05347656 5.85796875 -4.04445313 4.9659375 -4.03515625 4.046875 C-4.02355469 3.37140625 -4.01195313 2.6959375 -4 2 C-2.68 1.34 -1.36 0.68 0 0 Z " fill="#BC0B1D" transform="translate(78,80)"/>
<path d="M0 0 C3 3 3 3 3.29296875 6.57421875 C3.27309338 7.94561913 3.23741111 9.31686405 3.1875 10.6875 C3.17396484 11.38939453 3.16042969 12.09128906 3.14648438 12.81445312 C3.11120182 14.54329829 3.05739583 16.27174765 3 18 C2.67 18 2.34 18 2 18 C1.34 12.06 0.68 6.12 0 0 Z " fill="#590208" transform="translate(354,40)"/>
<path d="M0 0 C3.3 1.65 6.6 3.3 10 5 C6.68024318 5.8299392 4.35107416 6.18113914 1 6 C0.67 5.67 0.34 5.34 0 5 C0 3.35 0 1.7 0 0 Z " fill="#F2D61F" transform="translate(209,457)"/>
<path d="M0 0 C3 1 3 1 4.421875 3.6171875 C4.86015625 4.69226563 5.2984375 5.76734375 5.75 6.875 C6.19859375 7.94492188 6.6471875 9.01484375 7.109375 10.1171875 C8 13 8 13 7 16 C5.82845707 13.71070947 4.66261926 11.41881638 3.5 9.125 C3.16613281 8.47402344 2.83226562 7.82304688 2.48828125 7.15234375 C0 2.2265625 0 2.2265625 0 0 Z " fill="#2F0000" transform="translate(457,90)"/>
<path d="M0 0 C0.33 0 0.66 0 1 0 C1 3.3 1 6.6 1 10 C1.99 9.34 2.98 8.68 4 8 C6.1875 8.375 6.1875 8.375 8 9 C6.8125 10.5625 6.8125 10.5625 5 12 C3.35 11.67 1.7 11.34 0 11 C0 7.37 0 3.74 0 0 Z " fill="#501E0C" transform="translate(266,434)"/>
<path d="M0 0 C0.78375 0.04125 1.5675 0.0825 2.375 0.125 C-1.16852618 4.43885796 -5.57692247 6.0971398 -10.625 8.125 C-10.625 7.135 -10.625 6.145 -10.625 5.125 C-8.645 4.795 -6.665 4.465 -4.625 4.125 C-4.625 3.465 -4.625 2.805 -4.625 2.125 C-2.625 0.125 -2.625 0.125 0 0 Z " fill="#DB613E" transform="translate(308.625,420.875)"/>
<path d="M0 0 C6.93 0.495 6.93 0.495 14 1 C11 4 11 4 8.6875 4.3125 C5.59250298 3.95261663 2.91414533 3.08433315 0 2 C0 1.34 0 0.68 0 0 Z " fill="#310903" transform="translate(442,165)"/>
<path d="M0 0 C6.05537521 0.30276876 9.51483458 3.27754038 14 7 C13.34 7.66 12.68 8.32 12 9 C11.55269531 8.59007812 11.10539063 8.18015625 10.64453125 7.7578125 C7.26255515 4.74359926 4.420332 2.33949455 0 1 C0 0.67 0 0.34 0 0 Z " fill="#77BE22" transform="translate(163,251)"/>
<path d="M0 0 C1.59373901 2.39060851 2.65297076 4.30828179 3.6875 6.9375 C3.95949219 7.60652344 4.23148437 8.27554688 4.51171875 8.96484375 C5.0787676 11.32830338 4.76024003 12.7192799 4 15 C2 14 2 14 1.3671875 12.109375 C0.51436547 8.02124399 -0.27121668 4.20385856 0 0 Z " fill="#D3A416" transform="translate(395,54)"/>
<path d="M0 0 C1.65 0.33 3.3 0.66 5 1 C2.14723863 3.93200474 -0.65079784 6.64315404 -4 9 C-3.67 7.35 -3.34 5.7 -3 4 C-2.01 4 -1.02 4 0 4 C0 2.68 0 1.36 0 0 Z " fill="#E0CC22" transform="translate(332,359)"/>
<path d="M0 0 C0.99 0.33 1.98 0.66 3 1 C2.52433594 2.01126953 2.52433594 2.01126953 2.0390625 3.04296875 C0.81297609 6.53224473 0.58180931 9.62440058 0.375 13.3125 C0.30023438 14.56675781 0.22546875 15.82101563 0.1484375 17.11328125 C0.09945313 18.06589844 0.05046875 19.01851562 0 20 C-0.33 20 -0.66 20 -1 20 C-1.22295635 17.60472566 -1.42874063 15.20998659 -1.625 12.8125 C-1.68945312 12.13896484 -1.75390625 11.46542969 -1.8203125 10.77148438 C-2.14362111 6.62909282 -1.89095265 3.71694891 0 0 Z " fill="#1E0300" transform="translate(341,236)"/>
<path d="M0 0 C-3.92826365 2.77675038 -6.53124892 3.34512366 -11.3125 3.1875 C-12.91544922 3.14689453 -12.91544922 3.14689453 -14.55078125 3.10546875 C-15.35902344 3.07066406 -16.16726562 3.03585938 -17 3 C-17 2.67 -17 2.34 -17 2 C-13.7 2 -10.4 2 -7 2 C-7 1.34 -7 0.68 -7 0 C-3.86650268 -1.04449911 -3.01031744 -0.93423645 0 0 Z " fill="#E4C926" transform="translate(211,163)"/>
<path d="M0 0 C0.33 0 0.66 0 1 0 C1 3.3 1 6.6 1 10 C0.01 10.33 -0.98 10.66 -2 11 C-2.33 11.99 -2.66 12.98 -3 14 C-2.40380045 9.13103697 -1.43023178 4.67209049 0 0 Z " fill="#460105" transform="translate(72,102)"/>
<path d="M0 0 C-0.66 1.32 -1.32 2.64 -2 4 C-4.97 4 -7.94 4 -11 4 C-7.04396675 0.96704118 -5.03239385 -0.13243142 0 0 Z " fill="#F1CF22" transform="translate(292,453)"/>
<path d="M0 0 C2.9719385 1.12451727 5.33440687 2.22293791 8 4 C10.50896686 4.45601261 10.50896686 4.45601261 13.1875 4.625 C14.08855469 4.69976562 14.98960937 4.77453125 15.91796875 4.8515625 C16.60503906 4.90054688 17.29210937 4.94953125 18 5 C18 5.33 18 5.66 18 6 C7.24899957 6.68867618 7.24899957 6.68867618 3.375 4.125 C1 2 1 2 0 0 Z " fill="#E0C931" transform="translate(287,160)"/>
<path d="M0 0 C0.33 0 0.66 0 1 0 C1.43177893 6.26079448 0.92739438 9.09075703 -3 14 C-3.93065133 11.39417629 -4.14917407 10.35801776 -3.0625 7.75 C-2.5365625 6.88375 -2.5365625 6.88375 -2 6 C-1.34 6 -0.68 6 0 6 C0 4.02 0 2.04 0 0 Z " fill="#D84324" transform="translate(65,148)"/>
<path d="M0 0 C0.99 0.33 1.98 0.66 3 1 C3 5.29 3 9.58 3 14 C2.67 14 2.34 14 2 14 C1.66179834 12.4176994 1.32964061 10.83410625 1 9.25 C0.814375 8.36828125 0.62875 7.4865625 0.4375 6.578125 C0 4 0 4 0 0 Z " fill="#D6AA1E" transform="translate(376,74)"/>
<path d="M0 0 C1.14897419 4.59589675 0.7140729 5.26171852 -1.4375 9.25 C-1.91058594 10.14203125 -2.38367188 11.0340625 -2.87109375 11.953125 C-3.24363281 12.62859375 -3.61617187 13.3040625 -4 14 C-4.66 13.67 -5.32 13.34 -6 13 C-4.02 8.71 -2.04 4.42 0 0 Z " fill="#B30B1B" transform="translate(67,42)"/>
<path d="M0 0 C2.77203973 -0.15840227 4.71898146 -0.11392643 7.3125 0.9375 C10.87868446 2.34738688 14.18797763 2.61233671 18 3 C18 3.33 18 3.66 18 4 C11.28299653 4.31985731 6.24273068 3.4793824 0 1 C0 0.67 0 0.34 0 0 Z " fill="#174510" transform="translate(98,330)"/>
<path d="M0 0 C0.66 0 1.32 0 2 0 C2 0.66 2 1.32 2 2 C3.98 2 5.96 2 8 2 C7.67 3.65 7.34 5.3 7 7 C3.17053157 5.54744301 1.87949705 3.57104439 0 0 Z " fill="#75BF17" transform="translate(155,272)"/>
<path d="M0 0 C2 3 2 3 2.875 5.4375 C4.13765013 8.31353641 5.68267387 9.91440648 8 12 C5 12 5 12 2.875 9.9375 C0.71175849 6.54842163 0.31155212 3.97228948 0 0 Z " fill="#C93E29" transform="translate(434,151)"/>
<path d="M0 0 C0.33 0 0.66 0 1 0 C0.50769231 6.52307692 0.50769231 6.52307692 -2.0625 8.9375 C-2.701875 9.288125 -3.34125 9.63875 -4 10 C-4.20086443 6.28400809 -4.1519437 5.22791555 -2 2 C-1.34 2 -0.68 2 0 2 C0 1.34 0 0.68 0 0 Z " fill="#EAD11D" transform="translate(413,154)"/>
<path d="M0 0 C0.33 0 0.66 0 1 0 C1.31563182 5.26053037 0.66590937 8.44573816 -2 13 C-2.33 13 -2.66 13 -3 13 C-3 10.69 -3 8.38 -3 6 C-2.01 6 -1.02 6 0 6 C0 4.02 0 2.04 0 0 Z " fill="#DE4424" transform="translate(365,148)"/>
<path d="M0 0 C2 2 2 2 2.125 5.625 C2.08375 6.73875 2.0425 7.8525 2 9 C0.68 9.33 -0.64 9.66 -2 10 C-1.46274105 6.62294375 -0.88935377 3.303314 0 0 Z " fill="#D4A70C" transform="translate(106,45)"/>
<path d="M0 0 C0.33 0 0.66 0 1 0 C1.29341888 5.67276511 1.00559652 8.99067246 -2 14 C-3.25127906 10.45332822 -2.72285053 8.27746562 -1.5625 4.75 C-1.27503906 3.85796875 -0.98757812 2.9659375 -0.69140625 2.046875 C-0.46324219 1.37140625 -0.23507813 0.6959375 0 0 Z " fill="#2D0001" transform="translate(92,34)"/>
<path d="M0 0 C0.66 0 1.32 0 2 0 C1.8125 2.3125 1.8125 2.3125 1 5 C-1.5625 6.8125 -1.5625 6.8125 -4 8 C-4 4.06830895 -2.60580385 2.83572772 0 0 Z " fill="#C65434" transform="translate(285,395)"/>
<path d="M0 0 C0.66 0.33 1.32 0.66 2 1 C1.07038578 2.15224028 0.1309875 3.29659176 -0.8125 4.4375 C-1.59560547 5.39462891 -1.59560547 5.39462891 -2.39453125 6.37109375 C-4 8 -4 8 -7 9 C-5.44499019 5.18315774 -2.96404505 2.80804268 0 0 Z " fill="#312101" transform="translate(275,382)"/>
<path d="M0 0 C0.99 0.33 1.98 0.66 3 1 C3.33 4.96 3.66 8.92 4 13 C1.12420019 8.68630028 0 5.19265239 0 0 Z " fill="#543E03" transform="translate(394,47)"/>
<path d="M0 0 C5.28 0 10.56 0 16 0 C16 0.33 16 0.66 16 1 C14.77023437 1.09087891 14.77023437 1.09087891 13.515625 1.18359375 C11.89914062 1.30927734 11.89914062 1.30927734 10.25 1.4375 C9.18265625 1.51871094 8.1153125 1.59992188 7.015625 1.68359375 C4.56320038 1.94090773 2.36078709 2.31812218 0 3 C0 2.01 0 1.02 0 0 Z " fill="#441506" transform="translate(288,391)"/>
<path d="M0 0 C0.928125 0.4640625 0.928125 0.4640625 1.875 0.9375 C6.18802294 2.4039278 10.4759996 2.66619026 15 3 C15 3.33 15 3.66 15 4 C12.89646505 4.0810206 10.79204048 4.13919907 8.6875 4.1875 C7.51574219 4.22230469 6.34398437 4.25710937 5.13671875 4.29296875 C2 4 2 4 0.08203125 2.48828125 C-0.27503906 1.99714844 -0.63210938 1.50601563 -1 1 C-0.67 0.67 -0.34 0.34 0 0 Z " fill="#3A2C06" transform="translate(389,163)"/>
<path d="M0 0 C3.41158256 1.13719419 4.11854601 2.04342944 6 5 C6 5.66 6 6.32 6 7 C6.99 7.33 7.98 7.66 9 8 C8.01 8.495 8.01 8.495 7 9 C1.21538462 4.56923077 1.21538462 4.56923077 0.125 1.6875 C0.08375 1.130625 0.0425 0.57375 0 0 Z " fill="#CF412B" transform="translate(35,156)"/>
<path d="M0 0 C2.96052484 3.36423277 3.92289822 6.69159287 5 11 C4.34 11 3.68 11 3 11 C3 10.34 3 9.68 3 9 C2.34 9 1.68 9 1 9 C0.67 6.03 0.34 3.06 0 0 Z " fill="#C1B21E" transform="translate(186,427)"/>
<path d="M0 0 C0.66 0 1.32 0 2 0 C1.34 3.3 0.68 6.6 0 10 C-0.66 10 -1.32 10 -2 10 C-2.25 3.375 -2.25 3.375 0 0 Z " fill="#200000" transform="translate(33,106)"/>
<path d="M0 0 C1.97566188 1.97566188 2.89579072 3.52337094 4.125 6 C4.47820312 6.70125 4.83140625 7.4025 5.1953125 8.125 C6 10 6 10 6 12 C3 11 3 11 1.3125 7.6875 C0 4 0 4 0 0 Z " fill="#AF0B1A" transform="translate(432,42)"/>
<path d="M0 0 C3.72114571 2.31537955 6.61229661 4.28579473 9 8 C8.01 8.495 8.01 8.495 7 9 C7 8.34 7 7.68 7 7 C6.01 6.67 5.02 6.34 4 6 C3.67 5.34 3.34 4.68 3 4 C2.01 3.67 1.02 3.34 0 3 C0 2.01 0 1.02 0 0 Z " fill="#73B91E" transform="translate(232,408)"/>
<path d="M0 0 C0.99 0.66 1.98 1.32 3 2 C1.35 3.65 -0.3 5.3 -2 7 C-2.66 5.68 -3.32 4.36 -4 3 C-2.68 3 -1.36 3 0 3 C0 2.01 0 1.02 0 0 Z " fill="#E6CB2A" transform="translate(257,400)"/>
<path d="M0 0 C1.65 0 3.3 0 5 0 C4.19152271 1.16945792 3.37810888 2.33550461 2.5625 3.5 C2.11003906 4.1496875 1.65757812 4.799375 1.19140625 5.46875 C0.79824219 5.9740625 0.40507812 6.479375 0 7 C-0.33 7 -0.66 7 -1 7 C-0.67 4.69 -0.34 2.38 0 0 Z " fill="#EAC91B" transform="translate(267,385)"/>
<path d="M0 0 C1.2065625 0.0309375 1.2065625 0.0309375 2.4375 0.0625 C0.79580472 2.08304804 -0.87161778 4.08293058 -2.5625 6.0625 C-2.8925 6.0625 -3.2225 6.0625 -3.5625 6.0625 C-3.605221 4.39638095 -3.60313832 2.72867115 -3.5625 1.0625 C-2.5625 0.0625 -2.5625 0.0625 0 0 Z " fill="#E5CC1C" transform="translate(324.5625,368.9375)"/>
<path d="M0 0 C6.625 -0.125 6.625 -0.125 10 1 C9.67 2.32 9.34 3.64 9 5 C8.01 4.34 7.02 3.68 6 3 C6 2.34 6 1.68 6 1 C3.69 1.33 1.38 1.66 -1 2 C-0.67 1.34 -0.34 0.68 0 0 Z " fill="#2F0B06" transform="translate(347,232)"/>
<path d="M0 0 C0.66 0.33 1.32 0.66 2 1 C-2.625 5.875 -2.625 5.875 -6 7 C-4.60667426 3.63279613 -3.0210714 2.0140476 0 0 Z " fill="#787676" transform="translate(303,219)"/>
<path d="M0 0 C2.64465038 3.1254959 3.84414715 6.08788267 5 10 C4.34 10 3.68 10 3 10 C3 9.34 3 8.68 3 8 C2.34 8 1.68 8 1 8 C0.67 5.36 0.34 2.72 0 0 Z " fill="#B00B1F" transform="translate(442,62)"/>
<path d="M0 0 C2.31 0 4.62 0 7 0 C4.44008376 2.01136276 1.95409701 3.62845496 -1 5 C-0.67 3.35 -0.34 1.7 0 0 Z " fill="#E9C720" transform="translate(277,377)"/>
<path d="M0 0 C0.66 0 1.32 0 2 0 C0.84414715 3.91211733 -0.35534962 6.8745041 -3 10 C-3 8.35 -3 6.7 -3 5 C-2.34 5 -1.68 5 -1 5 C-0.67 3.35 -0.34 1.7 0 0 Z " fill="#2B0000" transform="translate(46,80)"/>
<path d="M0 0 C4.26086957 6.39130435 4.26086957 6.39130435 3.625 10.3125 C3.41875 10.869375 3.2125 11.42625 3 12 C3 11.34 3 10.68 3 10 C2.34 10 1.68 10 1 10 C0.67 6.7 0.34 3.4 0 0 Z " fill="#B79013" transform="translate(388,28)"/>
<path d="M0 0 C0.99 0.33 1.98 0.66 3 1 C1.68 3.64 0.36 6.28 -1 9 C-1.33 9 -1.66 9 -2 9 C-2 7.02 -2 5.04 -2 3 C-1.34 3 -0.68 3 0 3 C0 2.01 0 1.02 0 0 Z " fill="#2B0001" transform="translate(77,17)"/>
<path d="M0 0 C-2.85306797 2.32472205 -5.54074837 3.7508258 -9 5 C-9 4.34 -9 3.68 -9 3 C-8.34 3 -7.68 3 -7 3 C-7 2.34 -7 1.68 -7 1 C-4.53721199 -0.231394 -2.7204945 -0.07159196 0 0 Z " fill="#382601" transform="translate(273,460)"/>
<path d="M0 0 C3.71888239 0.50712033 6.73454239 1.11608215 10 3 C10 3.66 10 4.32 10 5 C5 3 5 3 0 1 C0 0.67 0 0.34 0 0 Z " fill="#AFA01A" transform="translate(231,388)"/>
<path d="M0 0 C0.33 0.66 0.66 1.32 1 2 C0.67 2.99 0.34 3.98 0 5 C-2.5625 6.1875 -2.5625 6.1875 -5 7 C-5.66 6.34 -6.32 5.68 -7 5 C-6.030625 4.360625 -5.06125 3.72125 -4.0625 3.0625 C-1.23963731 1.3034741 -1.23963731 1.3034741 0 0 Z " fill="#270100" transform="translate(463,160)"/>
<path d="M0 0 C0.33 1.32 0.66 2.64 1 4 C0.01 4.33 -0.98 4.66 -2 5 C-2.33 5.99 -2.66 6.98 -3 8 C-3.99 7.34 -4.98 6.68 -6 6 C-4 4 -2 2 0 0 Z " fill="#310600" transform="translate(64,158)"/>
<path d="M0 0 C0 0.66 0 1.32 0 2 C0.66 2.33 1.32 2.66 2 3 C0.35 3.66 -1.3 4.32 -3 5 C-3 4.34 -3 3.68 -3 3 C-3.66 2.67 -4.32 2.34 -5 2 C-2 0 -2 0 0 0 Z " fill="#E4421E" transform="translate(59,160)"/>
<path d="M0 0 C0.99 0 1.98 0 3 0 C4.42944945 2.35438733 5.08661261 3.48032433 4.625 6.25 C4.41875 6.8275 4.2125 7.405 4 8 C0 1.125 0 1.125 0 0 Z " fill="#E2CC1F" transform="translate(384,154)"/>
<path d="M0 0 C0.556875 0.226875 1.11375 0.45375 1.6875 0.6875 C-2.74326923 3.76442308 -2.74326923 3.76442308 -5.625 3.375 C-6.4603125 3.0346875 -6.4603125 3.0346875 -7.3125 2.6875 C-2.88173077 -0.38942308 -2.88173077 -0.38942308 0 0 Z " fill="#D2B620" transform="translate(321.3125,436.3125)"/>
<path d="M0 0 C0.66 0 1.32 0 2 0 C2.33 2.31 2.66 4.62 3 7 C2.01 6.67 1.02 6.34 0 6 C0 4.02 0 2.04 0 0 Z " fill="#D4BB1E" transform="translate(183,420)"/>
<path d="M0 0 C-1.45255699 3.82946843 -3.42895561 5.12050295 -7 7 C-3.86206897 0 -3.86206897 0 0 0 Z " fill="#636363" transform="translate(142,235)"/>
<path d="M0 0 C3.3 0 6.6 0 10 0 C10.33 1.32 10.66 2.64 11 4 C10.484375 3.690625 9.96875 3.38125 9.4375 3.0625 C6.33334577 1.70940713 3.34884993 1.38640576 0 1 C0 0.67 0 0.34 0 0 Z " fill="#4C1107" transform="translate(380,233)"/>
<path d="M0 0 C1.31223496 3.93670488 0.24296256 6.12488144 -1 10 C-1.33 10 -1.66 10 -2 10 C-2 7.03 -2 4.06 -2 1 C-1.34 0.67 -0.68 0.34 0 0 Z " fill="#B50B1E" transform="translate(87,48)"/>
</svg>
