<?xml version="1.0" encoding="UTF-8"?>
<svg version="1.1" xmlns="http://www.w3.org/2000/svg" width="500" height="500">
<path d="M0 0 C0.86625 0.01289063 1.7325 0.02578125 2.625 0.0390625 C3.924375 0.01972656 3.924375 0.01972656 5.25 0 C7.625 0.6640625 7.625 0.6640625 9.42578125 2.55859375 C11.16166474 7.05379692 10.94398318 11.20608298 10.8125 15.9765625 C10.79896484 16.90791016 10.78542969 17.83925781 10.77148438 18.79882812 C10.73626882 21.08783896 10.68702099 23.37564708 10.625 25.6640625 C11.72199219 25.62925781 12.81898438 25.59445313 13.94921875 25.55859375 C15.40363045 25.53044385 16.8580588 25.50314498 18.3125 25.4765625 C19.03373047 25.45142578 19.75496094 25.42628906 20.49804688 25.40039062 C25.08646874 25.33753553 27.99434474 25.79702498 31.625 28.6640625 C33.05162219 31.51730687 32.93533868 33.49860799 32.625 36.6640625 C31.18359375 39.34375 31.18359375 39.34375 28.625 41.6640625 C25.51547242 42.28114879 22.52931072 42.1355159 19.375 41.9765625 C16.4875 41.8734375 13.6 41.7703125 10.625 41.6640625 C10.625 52.5540625 10.625 63.4440625 10.625 74.6640625 C12.275 75.3240625 13.925 75.9840625 15.625 76.6640625 C27.9363513 84.99920881 39.47633245 97.02222458 48.625 108.6640625 C49.80188742 109.7612916 51.01045754 110.82564331 52.25 111.8515625 C55.53264901 114.65218684 58.59476011 117.59186545 61.625 120.6640625 C65.20110493 124.28397882 68.87356066 127.6851014 72.73046875 131 C75.83132844 133.72364171 78.95934515 136.50692753 81.625 139.6640625 C81.625 140.3240625 81.625 140.9840625 81.625 141.6640625 C82.285 141.6640625 82.945 141.6640625 83.625 141.6640625 C84.859375 142.921875 84.859375 142.921875 86.375 144.7890625 C94.45121494 154.2617896 103.35853519 162.81289618 113.11328125 170.53125 C116.52312219 173.42669814 119.37982298 176.67304596 122.29296875 180.05859375 C124.42033307 182.43539777 126.65081242 184.63392469 128.9675293 186.82446289 C136.08030586 193.60883024 139.69025225 198.81431369 140.125 208.7265625 C139.78221435 216.92225574 137.19981167 221.43305582 131.3125 227.0390625 C124.81978363 232.41270906 119.54723181 232.94622749 111.37109375 232.24609375 C105.55362865 231.01308906 101.59745039 228.03141385 97.3125 224.0390625 C96.45011719 223.24242187 95.58773438 222.44578125 94.69921875 221.625 C92.625 219.6640625 92.625 219.6640625 91.625 218.6640625 C91.3512427 223.91063074 91.15268896 229.15297696 91.02075195 234.4050293 C90.96572538 236.18734177 90.89086851 237.96916419 90.79516602 239.74975586 C89.96783951 250.31442626 89.96783951 250.31442626 93.89624023 259.70385742 C96.6946926 261.98895462 99.51094805 263.84038288 102.625 265.6640625 C103.8153105 266.61140334 104.98605915 267.5847445 106.12109375 268.59765625 C107.09175781 269.42394531 108.06242187 270.25023437 109.0625 271.1015625 C109.59254639 271.55329834 110.12259277 272.00503418 110.66870117 272.47045898 C113.46306571 274.84680477 116.27132101 277.20107176 119.1171875 279.515625 C119.6747876 279.97138916 120.2323877 280.42715332 120.80688477 280.89672852 C122.35348706 282.15804649 123.90511968 283.41318902 125.45703125 284.66796875 C126.17246094 285.32667969 126.88789063 285.98539062 127.625 286.6640625 C127.625 287.3240625 127.625 287.9840625 127.625 288.6640625 C128.17929687 288.92058594 128.73359375 289.17710937 129.3046875 289.44140625 C137.03637836 293.51551271 143.68831572 299.46091688 150.06640625 305.359375 C153.67445771 308.60937555 157.46777999 311.61181245 161.27734375 314.62109375 C163.47804985 316.53618408 165.14628488 318.15322407 166.625 320.6640625 C166.521875 321.9221875 166.41875 323.1803125 166.3125 324.4765625 C166.18318772 327.36453668 166.37075202 328.34999147 168.21875 330.6328125 C171.7459122 333.738821 175.46601071 336.45459944 179.625 338.6640625 C179.955 338.3340625 180.285 338.0040625 180.625 337.6640625 C185.3512278 337.14062007 188.30550942 336.975241 192.1171875 339.97265625 C193.26282155 340.99578752 194.38996137 342.03991792 195.5 343.1015625 C196.10368408 343.64852783 196.70736816 344.19549316 197.3293457 344.7590332 C199.11060997 346.37756877 200.86838474 348.01887241 202.625 349.6640625 C204.35101996 351.23003782 206.07980999 352.79297053 207.8125 354.3515625 C208.59625 355.06441406 209.38 355.77726562 210.1875 356.51171875 C212.83638259 358.85071603 215.56088593 361.0720691 218.3125 363.2890625 C232.91713491 375.16694804 232.91713491 375.16694804 234.05859375 384.03125 C234.06800757 392.48486168 233.65279845 398.26199959 227.859375 404.59375 C222.36555125 409.8063938 216.88731846 412.76241899 209.25 412.9140625 C205.625 412.6640625 205.625 412.6640625 203.625 411.6640625 C203.625 435.7540625 203.625 459.8440625 203.625 484.6640625 C218.25420038 484.83448505 218.25420038 484.83448505 232.88378906 484.96191406 C234.71942661 484.99128174 236.55504166 485.02210716 238.390625 485.0546875 C239.34179199 485.05581543 240.29295898 485.05694336 241.27294922 485.05810547 C247.99701378 485.20404864 247.99701378 485.20404864 251.23364258 487.57495117 C253.60735707 491.13906329 253.0934605 493.44791799 252.625 497.6640625 C251.60239029 499.38656104 251.60239029 499.38656104 249.625 500.6640625 C246.85834331 500.95823459 244.31689601 501.06638602 241.54925537 501.04158592 C240.71263603 501.04594624 239.87601668 501.05030657 239.01404524 501.05479902 C236.18596016 501.06582392 233.35835567 501.05529975 230.53027344 501.04501343 C228.49216841 501.04846713 226.45406525 501.05322975 224.41596603 501.05919516 C218.79610808 501.07177427 213.17640201 501.06550349 207.55654335 501.05623651 C201.5033017 501.04947453 195.45008696 501.05991303 189.39685059 501.06817627 C178.21750853 501.08077277 167.03821539 501.07964243 155.85887432 501.07144186 C145.53233514 501.06390379 135.20581382 501.06192107 124.87927246 501.0655098 C124.19505874 501.06573895 123.51084503 501.06596811 122.80589756 501.06620421 C120.02865325 501.06713818 117.25140894 501.06809337 114.47416465 501.0690835 C88.40607531 501.07826648 62.338017 501.06993064 36.26993245 501.05379281 C13.09530292 501.03955533 -10.07927716 501.04082918 -33.25390625 501.05517578 C-59.27343378 501.0712296 -85.29293387 501.0776153 -111.31246567 501.06833899 C-114.08473459 501.0673768 -116.85700352 501.06643828 -119.62927246 501.0655098 C-120.65322431 501.06515395 -120.65322431 501.06515395 -121.69786206 501.06479091 C-132.01948879 501.06137432 -142.34109573 501.06537706 -152.66271973 501.07294846 C-164.39546756 501.08151191 -176.12816815 501.07912253 -187.86091232 501.06310622 C-193.8520769 501.05519844 -199.84314088 501.05217443 -205.83430481 501.06205368 C-211.31166461 501.07094937 -216.78882994 501.06615291 -222.26617193 501.05012102 C-224.25468041 501.04675136 -226.2432051 501.04851581 -228.23170328 501.05574839 C-230.9211256 501.06478502 -233.60986936 501.05560256 -236.29925537 501.04158592 C-237.47496747 501.05212117 -237.47496747 501.05212117 -238.67443132 501.06286925 C-243.84182939 501.00851966 -243.84182939 501.00851966 -246.35239029 499.38656104 C-248.12592629 496.39919143 -248.17976041 492.9654812 -247.375 489.6640625 C-245.98364258 487.57495117 -245.98364258 487.57495117 -243.375 485.6640625 C-239.97253497 485.03547632 -236.59338763 485.05878192 -233.140625 485.0546875 C-232.26003418 485.03905762 -231.37944336 485.02342773 -230.47216797 485.00732422 C-227.19005145 484.95481487 -223.90746003 484.93647305 -220.625 484.9140625 C-213.2825 484.8315625 -205.94 484.7490625 -198.375 484.6640625 C-198.375 460.5740625 -198.375 436.4840625 -198.375 411.6640625 C-199.035 411.9940625 -199.695 412.3240625 -200.375 412.6640625 C-207.89435228 413.33543324 -214.36892609 411.69487497 -220.4609375 407.0859375 C-226.72704458 401.21641948 -228.52597046 396.12563794 -228.8125 387.6640625 C-228.56298901 378.22256653 -225.32999763 374.1398628 -218.6953125 367.75 C-215.35702173 364.74891032 -211.86404034 361.95679196 -208.36328125 359.1484375 C-205.08982022 356.42697186 -201.97988039 353.57399915 -198.875 350.6640625 C-190.63670497 342.97029779 -182.01342289 335.97117254 -172.78515625 329.48828125 C-170.31252952 327.70890743 -170.31252952 327.70890743 -168.18359375 325.43359375 C-166.375 323.6640625 -166.375 323.6640625 -164.375 323.6640625 C-164.375 323.0040625 -164.375 322.3440625 -164.375 321.6640625 C-162.80213316 320.24967844 -161.16360004 318.90801849 -159.5 317.6015625 C-155.68664438 314.55380385 -151.97691191 311.45905909 -148.375 308.1640625 C-126.93520942 288.6640625 -126.93520942 288.6640625 -122.375 288.6640625 C-122.045 287.6740625 -121.715 286.6840625 -121.375 285.6640625 C-119.7839357 284.22604068 -118.1263985 282.86080915 -116.4375 281.5390625 C-112.6430907 278.51332708 -108.95563538 275.44008524 -105.375 272.1640625 C-99.3436552 266.6731262 -93.16996261 261.19403757 -86.375 256.6640625 C-86.10839817 253.75571365 -86.02720876 251.06267982 -86.08203125 248.15625 C-86.08627609 247.31563019 -86.09052094 246.47501038 -86.09489441 245.60891724 C-86.11171468 242.91864257 -86.14937219 240.22911151 -86.1875 237.5390625 C-86.20254255 235.71745872 -86.2162317 233.89584322 -86.22851562 232.07421875 C-86.26162906 227.60387926 -86.31343363 223.13409704 -86.375 218.6640625 C-86.91769531 219.21400879 -87.46039063 219.76395508 -88.01953125 220.33056641 C-89.09267578 221.41217041 -89.09267578 221.41217041 -90.1875 222.515625 C-90.89519531 223.23057129 -91.60289062 223.94551758 -92.33203125 224.68212891 C-97.71033754 229.89975444 -103.37242989 232.59338255 -110.86328125 232.69921875 C-118.97687947 232.19442736 -123.73482552 229.67289476 -129.1875 223.7265625 C-133.18598092 219.12419202 -134.66940496 215.00704776 -134.75 208.9140625 C-134.77835937 207.94984375 -134.80671875 206.985625 -134.8359375 205.9921875 C-133.48182898 196.21506494 -127.87947476 190.51393843 -120.9375 183.9140625 C-120.09123047 183.09035156 -119.24496094 182.26664063 -118.37304688 181.41796875 C-116.74782762 179.83729348 -115.11760334 178.26174298 -113.48168945 176.69213867 C-111.84893727 175.12031431 -110.23977244 173.52396968 -108.640625 171.91796875 C-106.51992467 169.80823756 -104.34068945 167.78034061 -102.12548828 165.77050781 C-96.27524671 160.45941691 -90.5948662 154.99325132 -85 149.4140625 C-84.34668701 148.76526123 -83.69337402 148.11645996 -83.02026367 147.44799805 C-79.17563484 143.5916284 -75.51764157 139.62433379 -71.97387695 135.48950195 C-67.52686258 130.4123411 -62.59213592 125.9497376 -57.484375 121.5546875 C-54.34606281 118.74182991 -51.4249847 115.72444936 -48.46875 112.72265625 C-46.78198372 111.06421254 -45.10220879 109.5646104 -43.25 108.1015625 C-40.9893231 106.18490165 -39.26859034 104.45930335 -37.375 102.2265625 C-16.07702173 77.33956793 -16.07702173 77.33956793 -5.375 74.6640625 C-5.375 63.7740625 -5.375 52.8840625 -5.375 41.6640625 C-11.11985971 41.86123733 -11.11985971 41.86123733 -16.86230469 42.11450195 C-22.77028177 42.21684174 -22.77028177 42.21684174 -25.921875 39.3359375 C-27.69165802 36.08182033 -27.99636078 34.31455709 -27.375 30.6640625 C-25.5079009 28.36130694 -24.01852259 26.98582379 -21.375 25.6640625 C-18.65739892 25.59224429 -15.96640612 25.57106744 -13.25 25.6015625 C-12.49589844 25.60607422 -11.74179688 25.61058594 -10.96484375 25.61523438 C-9.10152873 25.62702751 -7.23825445 25.64496308 -5.375 25.6640625 C-5.39856567 24.79454956 -5.39856567 24.79454956 -5.42260742 23.9074707 C-5.48522791 21.26393511 -5.52407518 18.62055595 -5.5625 15.9765625 C-5.58763672 15.06455078 -5.61277344 14.15253906 -5.63867188 13.21289062 C-5.76522718 1.61198786 -5.76522718 1.61198786 0 0 Z " fill="#0A0808" transform="translate(247.375,-0.6640625)"/>
<path d="M0 0 C3.3065618 1.4421017 5.46961394 3.23059383 7.99902344 5.7878418 C9.16108307 6.95496956 9.16108307 6.95496956 10.34661865 8.14567566 C11.59043304 9.40967949 11.59043304 9.40967949 12.859375 10.69921875 C13.72258362 11.56762894 14.58579224 12.43603912 15.47515869 13.33076477 C18.2382215 16.11164585 20.99453374 18.89909318 23.75 21.6875 C26.4919961 24.4572247 29.23546835 27.22544412 31.98199463 29.99067688 C33.690027 31.7108409 35.39538039 33.43367061 37.09759521 35.15959167 C37.88491028 35.95343765 38.67222534 36.74728363 39.48339844 37.56518555 C40.16416443 38.25420456 40.84493042 38.94322357 41.54632568 39.65312195 C43.4799398 41.50257544 45.43226133 43.28252977 47.44436073 45.04378796 C48.15352103 45.66676519 48.86268133 46.28974243 49.59333134 46.93159777 C51.26558858 48.3688129 52.96071027 49.77967686 54.67282772 51.16916794 C74.69827006 67.56319233 74.69827006 67.56319233 76.44097972 80.9599998 C76.80603379 87.21367436 76.69377767 93.4020506 76.49755859 99.65966797 C76.47899889 102.47088946 76.49390062 105.28171444 76.5072937 108.09294128 C76.5187269 114.09981868 76.4508475 120.10136401 76.32606125 126.10689926 C76.14579032 134.78846445 76.08982666 143.46750184 76.06232543 152.15073527 C76.01439884 166.24354695 75.86861898 180.33352701 75.65966797 194.42480469 C75.4571369 208.09751402 75.30170901 221.76944908 75.20849609 235.44335938 C75.20271618 236.2888732 75.19693626 237.13438702 75.19098119 238.00552247 C75.16226641 242.24802402 75.13446579 246.49053096 75.10711932 250.73304152 C74.87974974 285.82412752 74.48675761 320.91160979 74 356 C64.76 356 55.52 356 46 356 C45.99589111 351.64530518 45.99178223 347.29061035 45.98754883 342.80395508 C45.97032572 328.39102468 45.92603129 313.97827044 45.86790943 299.56544971 C45.83333863 290.82981927 45.80791433 282.09434532 45.80444336 273.35864258 C45.80139241 265.73961999 45.78075091 258.12087671 45.73947543 250.50196189 C45.71824565 246.47222649 45.7054927 242.44288714 45.71384621 238.41309547 C45.72145059 234.61008582 45.70530871 230.80787439 45.67193985 227.0050106 C45.65993071 224.96430819 45.67221158 222.92350658 45.68556213 220.8828125 C45.53935121 208.9627213 42.1234235 197.04887681 34 188 C27.70535361 182.44005997 21.00380547 178.52526483 13 176 C12.07767578 175.70802734 12.07767578 175.70802734 11.13671875 175.41015625 C5.86966491 174.39911301 0.33791956 174.8795052 -5 175 C-5.75023437 175.00515625 -6.50046875 175.0103125 -7.2734375 175.015625 C-15.51695099 175.5025836 -24.45001928 180.6016644 -30.4140625 186.1875 C-40.45271025 197.66024028 -43.60654925 209.71984399 -43.54589844 224.65112305 C-43.55465217 226.09116217 -43.56514417 227.53119161 -43.57722473 228.97120667 C-43.60488553 232.84654343 -43.60849387 236.72155971 -43.60750484 240.59698081 C-43.61065124 244.65959945 -43.63630508 248.72207736 -43.65948486 252.78462219 C-43.69991692 260.46243579 -43.72035534 268.14016474 -43.73345876 275.81806833 C-43.74937235 284.56551189 -43.78780615 293.31281227 -43.82805204 302.06017244 C-43.91027582 320.04009518 -43.96150517 338.01992679 -44 356 C-53.24 356 -62.48 356 -72 356 C-72.56670069 320.11897937 -73.0135547 284.23927377 -73.27663324 248.3546862 C-73.30789603 244.10583475 -73.34025456 239.85699231 -73.37329102 235.6081543 C-73.37984878 234.76238685 -73.38640654 233.9166194 -73.39316302 233.04522263 C-73.50156705 219.4001599 -73.69845525 205.75776526 -73.9288199 192.11427862 C-74.16369594 178.08522089 -74.30169248 164.05754733 -74.35221237 150.02660459 C-74.38326443 142.15657322 -74.45774175 134.29212404 -74.64325142 126.42408943 C-75.90319001 71.41129393 -75.90319001 71.41129393 -63.27538204 58.01913357 C-59.16409433 54.10320401 -54.75301861 50.86956672 -49.94703484 47.86039639 C-44.17778771 44.21840126 -39.31381132 39.44313307 -34.51171875 34.62524414 C-33.73151367 33.84496353 -32.95130859 33.06468292 -32.14746094 32.26075745 C-31.33567383 31.44380905 -30.52388672 30.62686066 -29.6875 29.78515625 C-28.40601074 28.50154457 -28.40601074 28.50154457 -27.09863281 27.19200134 C-24.39671138 24.48452619 -21.69830641 21.77357746 -19 19.0625 C-17.15778423 17.21526325 -15.31533857 15.36825573 -13.47265625 13.52148438 C-8.97910939 9.01696997 -4.4884368 4.50960595 0 0 Z " fill="#FCD598" transform="translate(249,129)"/>
<path d="M0 0 C0 44.22 0 88.44 0 134 C-14.19 134.33 -28.38 134.66 -43 135 C-47.25746712 137.47645729 -47.25746712 137.47645729 -47.5 140.9375 C-47.21531337 143.99233746 -47.21531337 143.99233746 -45.58105469 146.15332031 C-41.64871536 148.96681016 -37.9288546 148.6030634 -33.203125 148.609375 C-32.25435486 148.62591125 -31.30558472 148.64244751 -30.32806396 148.65948486 C-27.30197712 148.70801439 -24.27639299 148.72934695 -21.25 148.75 C-19.19658922 148.77815551 -17.14320192 148.80808235 -15.08984375 148.83984375 C-10.05966348 148.91710602 -5.03107747 148.95757945 0 149 C0 155.27 0 161.54 0 168 C-32.01 168 -64.02 168 -97 168 C-97 161.73 -97 155.46 -97 149 C-95.24171875 148.97421875 -93.4834375 148.9484375 -91.671875 148.921875 C-89.36455834 148.86559898 -87.05726763 148.80825154 -84.75 148.75 C-83.01169922 148.72873047 -83.01169922 148.72873047 -81.23828125 148.70703125 C-79.56572266 148.65869141 -79.56572266 148.65869141 -77.859375 148.609375 C-76.83295898 148.58842773 -75.80654297 148.56748047 -74.74902344 148.54589844 C-71.31052117 147.86308396 -70.0772116 146.78911396 -68 144 C-67.91083846 140.37350049 -67.91083846 140.37350049 -69 137 C-72.38805161 134.74129892 -73.77350741 134.70740587 -77.76171875 134.5859375 C-79.43911133 134.52792969 -79.43911133 134.52792969 -81.15039062 134.46875 C-82.31763672 134.4378125 -83.48488281 134.406875 -84.6875 134.375 C-86.45577148 134.31699219 -86.45577148 134.31699219 -88.25976562 134.2578125 C-91.17301977 134.16345609 -94.08626607 134.07786839 -97 134 C-97.38337587 126.8342036 -97.64418697 119.6710809 -97.82397461 112.49731445 C-97.89897208 110.06304168 -98.00101974 107.62943482 -98.1315918 105.19750977 C-99.24627815 83.88732951 -99.24627815 83.88732951 -93.79638672 77.58813477 C-90.73727138 74.70135113 -87.43952385 72.35423215 -83.85531616 70.16517639 C-81.11018154 68.44117586 -78.72432658 66.40390353 -76.25 64.3125 C-75.37859375 63.60738281 -74.5071875 62.90226562 -73.609375 62.17578125 C-69.87717123 59.06374906 -66.32881087 55.76278895 -62.75390625 52.47265625 C-59.16792716 49.25290481 -55.43298508 46.24094824 -51.68359375 43.21484375 C-49.05291443 41.04367173 -46.52057576 38.79758643 -44 36.5 C-39.70008209 32.58108748 -35.24080453 28.90829131 -30.71875 25.25 C-27.22871117 22.361692 -23.89686481 19.31819246 -20.55078125 16.265625 C-16.98282372 13.09653562 -13.27308279 10.1159006 -9.54296875 7.140625 C-6.89420144 4.98168261 -6.89420144 4.98168261 -4.30078125 2.234375 C-2 0 -2 0 0 0 Z " fill="#F9E1BF" transform="translate(162,317)"/>
<path d="M0 0 C5.32892489 4.2523744 8.48150977 9.86654988 10.6875 16.25 C10.93359566 19.12975788 10.93359566 19.12975788 10.92800903 22.35603333 C10.93075836 23.58295898 10.93350769 24.80988464 10.93634033 26.07398987 C10.92926304 27.42538551 10.92199344 28.77678015 10.91455078 30.12817383 C10.91398637 31.55746452 10.91430381 32.98675579 10.91543579 34.41604614 C10.91600913 38.28964443 10.90425781 42.16311862 10.89028788 46.03668809 C10.87777746 50.0872524 10.87660977 54.13781962 10.87423706 58.18840027 C10.86802321 65.85581808 10.85161367 73.5231788 10.83153808 81.19057149 C10.80917614 89.92086397 10.79818491 98.65115919 10.78814721 107.38147318 C10.76724735 125.33768773 10.73057229 143.29382401 10.6875 161.25 C-9.1125 161.25 -28.9125 161.25 -49.3125 161.25 C-49.40288764 142.49977936 -49.47653273 123.74973584 -49.51974869 104.99935246 C-49.54035034 96.2927017 -49.56842493 87.58619619 -49.61425781 78.87963867 C-49.65419918 71.28861641 -49.67995023 63.69769938 -49.68885398 56.10657495 C-49.69405642 52.08924385 -49.70623358 48.07221371 -49.73542023 44.05497932 C-49.76270501 40.26860101 -49.77091889 36.48264573 -49.76493073 32.69617844 C-49.76602516 31.31152352 -49.7739013 29.92685349 -49.7893219 28.54228401 C-49.90845431 17.28735449 -48.0511012 9.38489613 -40.30859375 1.04296875 C-28.22175194 -9.8139009 -12.88915897 -8.85071704 0 0 Z " fill="#DA8758" transform="translate(269.3125,323.75)"/>
<path d="M0 0 C4.21181055 2.52708633 7.10795728 4.79755527 10.625 8.125 C14.49975837 11.75035415 18.42581518 15.2329732 22.5625 18.5625 C26.32838189 21.59357567 29.94329756 24.72581577 33.5 28 C37.89563729 32.04125069 42.42425646 35.84833501 47.06640625 39.6015625 C54.11533271 45.36459958 60.97277189 51.36220796 67.83984375 57.33984375 C74.29739549 62.95954859 80.77192083 68.52928874 87.4375 73.90234375 C88.283125 74.59457031 89.12875 75.28679687 90 76 C90.57996231 76.36195969 91.15992462 76.72391937 91.75746155 77.09684753 C94.83703567 79.22724737 96.71594459 80.82506658 97.61569214 84.54667664 C97.8101468 87.70591005 97.78732984 90.79751193 97.68359375 93.9609375 C97.67654419 94.97712158 97.66949463 95.99330566 97.66223145 97.0402832 C97.62573691 100.81908846 97.52800569 104.59710247 97.4375 108.375 C97.293125 116.83125 97.14875 125.2875 97 134 C64.99 134 32.98 134 0 134 C0 89.78 0 45.56 0 0 Z " fill="#FAE1BF" transform="translate(338,317)"/>
<path d="M0 0 C3.25045245 0.85130898 4.80835484 3.17632422 7.1328125 5.55859375 C8.90016983 7.17477665 10.67544687 8.78232626 12.45703125 10.3828125 C20.22486385 17.43710021 27.56477481 24.91661865 34.9453125 32.37109375 C37.65716439 35.10976089 40.37248197 37.84492604 43.08984375 40.578125 C43.69415726 41.19073685 44.29847076 41.80334869 44.9210968 42.43452454 C48.36210928 45.89508771 51.89669886 49.14483072 55.65995789 52.25346375 C57.1328125 53.55859375 57.1328125 53.55859375 59.0703125 55.99609375 C60.84699186 58.20348326 62.4758974 59.77288618 64.62231445 61.58325195 C69.78384512 66.05345108 74.55921351 70.87846707 79.36328125 75.7265625 C80.32606289 76.6937621 81.28914763 77.66066007 82.2525177 78.62727356 C85.27797445 81.66404342 88.29943557 84.70476892 91.3203125 87.74609375 C94.83565332 91.28513883 98.35266869 94.8224871 101.87392616 98.35564613 C103.27237104 99.76052165 104.66773569 101.16846116 106.06303406 102.57646179 C106.91774796 103.43447891 107.77246185 104.29249603 108.65307617 105.17651367 C109.39949875 105.92817307 110.14592133 106.67983246 110.91496277 107.45426941 C113.14042476 109.63111231 113.14042476 109.63111231 115.78779602 111.64497375 C118.96408543 114.23694314 120.0399965 115.84258463 120.5703125 119.93359375 C120.1328125 123.55859375 120.1328125 123.55859375 118.0703125 126.49609375 C115.1328125 128.55859375 115.1328125 128.55859375 111.8203125 129.30859375 C102.38802697 127.3901628 94.71201709 116.22348459 88.0703125 109.49609375 C78.90426924 100.2045368 78.90426924 100.2045368 69.1328125 91.55859375 C66.42332013 88.97812483 64.0003508 86.39632817 61.6328125 83.49609375 C59.29887066 80.75371208 56.93695733 78.78752939 54.1328125 76.55859375 C53.5346875 75.79546875 52.9365625 75.03234375 52.3203125 74.24609375 C50.48062314 71.98590397 48.80581599 70.35322496 46.6015625 68.4921875 C41.64623161 64.20414684 37.05329885 59.58886015 32.4453125 54.93359375 C31.61708984 54.10085937 30.78886719 53.268125 29.93554688 52.41015625 C28.34523283 50.81092932 26.75590987 49.21071604 25.16772461 47.609375 C23.62561068 46.05523498 22.07938865 44.5051699 20.53125 42.95703125 C18.49272974 40.91851099 16.4620431 38.87274169 14.43359375 36.82421875 C13.10421174 35.48563232 11.77478379 34.14709151 10.4453125 32.80859375 C9.43114258 31.78185547 9.43114258 31.78185547 8.39648438 30.734375 C7.74873047 30.08339844 7.10097656 29.43242188 6.43359375 28.76171875 C5.84747314 28.17036133 5.26135254 27.57900391 4.6574707 26.96972656 C2.47648348 24.95113471 1.28935451 24.57496026 -1.70381165 24.26202393 C-5.59733723 24.62704606 -6.70299041 25.60833618 -9.48120117 28.30371094 C-10.34482269 29.13012085 -11.20844421 29.95653076 -12.09823608 30.8079834 C-13.01199005 31.71568481 -13.92574402 32.62338623 -14.8671875 33.55859375 C-15.80922028 34.47886353 -16.75125305 35.3991333 -17.72183228 36.34729004 C-20.8534094 39.41945124 -23.9486165 42.52714323 -27.04296875 45.63671875 C-28.18232973 46.77795132 -29.32191652 47.9189585 -30.4617157 49.05975342 C-33.43258269 52.03439883 -36.4004354 55.01203324 -39.36761475 57.99035645 C-42.38712498 61.02013885 -45.40950062 64.04705988 -48.43164062 67.07421875 C-53.74305351 72.39514458 -59.05199058 77.71852933 -64.35908508 83.04376221 C-65.18675888 83.87365662 -66.01443268 84.70355103 -66.8671875 85.55859375 C-67.74474197 86.44098724 -68.62229645 87.32338074 -69.52644348 88.23251343 C-72.05683891 90.74705708 -74.67729234 93.13245392 -77.328125 95.51953125 C-84.28450367 101.84137216 -90.88661175 108.49931327 -97.4921875 115.18359375 C-99.79399234 117.51199441 -102.09912666 119.83702689 -104.40625 122.16015625 C-104.92700104 122.68920563 -105.44775208 123.218255 -105.98428345 123.76333618 C-110.11339906 127.92076948 -111.98264575 128.66571368 -117.89453125 128.88671875 C-120.4975026 128.45374926 -121.30064508 127.65822822 -122.8671875 125.55859375 C-123.87616465 122.54886078 -124.12286236 119.71917022 -123.8671875 116.55859375 C-121.52262986 112.77704917 -118.71895682 110.42123863 -115.36279297 107.56420898 C-110.48096612 103.30163327 -105.93120558 98.72116889 -101.3782692 94.11427498 C-99.84247893 92.56085563 -98.30296668 91.01121151 -96.76242065 89.46250916 C-92.38934447 85.06516399 -88.0222185 80.66194229 -83.65917969 76.25463867 C-80.97632477 73.54508102 -78.28868177 70.84035097 -75.59798813 68.13857841 C-74.57619045 67.1105652 -73.55629519 66.0806575 -72.53833389 65.04884529 C-71.1239984 63.61540099 -69.70303366 62.18850657 -68.28173828 60.76196289 C-67.07216965 59.54120811 -67.07216965 59.54120811 -65.83816528 58.29579163 C-63.8671875 56.55859375 -63.8671875 56.55859375 -61.8671875 56.55859375 C-61.5371875 55.56859375 -61.2071875 54.57859375 -60.8671875 53.55859375 C-59.38166809 52.09431458 -59.38166809 52.09431458 -57.44848633 50.51098633 C-52.20368788 46.05727303 -47.40717206 41.20513704 -42.56640625 36.3203125 C-41.59883266 35.34832233 -40.63095686 34.37663291 -39.66279602 33.40522766 C-36.62390126 30.3550201 -33.58901298 27.30084593 -30.5546875 24.24609375 C-27.01773997 20.68548585 -23.47913734 17.12655449 -19.93631935 13.57178688 C-18.52561066 12.15461633 -17.11796669 10.73439716 -15.71037292 9.31413269 C-14.85550797 8.45596451 -14.00064301 7.59779633 -13.11987305 6.71362305 C-12.36900925 5.95752243 -11.61814545 5.20142181 -10.8445282 4.42240906 C-7.27185112 1.05485068 -4.86440786 0.29567969 0 0 Z " fill="#8D808E" transform="translate(251.8671875,87.44140625)"/>
<path d="M0 0 C6.87684269 6.03231815 10.45089293 14.2829806 11.35546875 23.23828125 C11.77447933 34.05537017 9.58381894 42.72207121 2.69140625 51.1953125 C-4.50166912 58.68356807 -13.38322881 62.7533046 -23.74609375 63.2578125 C-32.72350927 63.00557349 -41.96853435 59.80038845 -48.5078125 53.48828125 C-55.23954553 45.6610956 -59.58988852 37.50823447 -59.55859375 27.0703125 C-59.55762695 26.28374268 -59.55666016 25.49717285 -59.55566406 24.68676758 C-59.27141541 15.15762337 -55.18637802 7.85877174 -48.99609375 0.7578125 C-34.06471084 -11.72252263 -15.67409438 -11.15973088 0 0 Z " fill="#050405" transform="translate(273.99609375,190.2421875)"/>
<path d="M0 0 C0.99 0.33 1.98 0.66 3 1 C3 1.66 3 2.32 3 3 C3.89054077 3.41294312 3.89054077 3.41294312 4.79907227 3.83422852 C6.89558892 4.94469629 8.44507002 6.08691054 10.21484375 7.65234375 C11.11058105 8.43786621 11.11058105 8.43786621 12.02441406 9.23925781 C12.65573242 9.79967773 13.28705078 10.36009766 13.9375 10.9375 C15.28461885 12.11910254 16.63228473 13.30008169 17.98046875 14.48046875 C18.99246338 15.36871338 18.99246338 15.36871338 20.02490234 16.27490234 C30.96284603 25.82836466 42.18185702 35.08103477 53.58984375 44.06640625 C55.21611501 45.37111333 56.81253272 46.71380133 58.37890625 48.08984375 C63.00632556 52.12887684 63.00632556 52.12887684 68.9375 53.125 C72.26244324 52.24523112 72.26244324 52.24523112 74 49 C74.38499891 47.34450469 74.72793135 45.6777567 75 44 C75.33 44 75.66 44 76 44 C75.835 45.175625 75.67 46.35125 75.5 47.5625 C75.48435671 50.5034377 75.73335002 51.67041803 77.60546875 53.984375 C81.13191433 57.08076624 84.84706138 59.79375136 89 62 C89.33 61.67 89.66 61.34 90 61 C92.67058851 60.85884839 95.32432238 60.95752893 98 61 C98.33 61.66 98.66 62.32 99 63 C97.01432292 62.93489583 95.02864583 62.86979167 93.04296875 62.8046875 C90.68640281 62.86745538 90.68640281 62.86745538 88 65 C87.33241215 68.37248616 87.33241215 68.37248616 88 72 C89.95361422 74.62546438 89.95361422 74.62546438 93 77 C94.375873 78.24903902 95.75078173 79.49914064 97.125 80.75 C101.30771 84.44346385 105.6118109 87.96933354 109.94140625 91.48828125 C113.53237377 94.43718561 117.08646011 97.42601513 120.625 100.4375 C121.24141357 100.95795898 121.85782715 101.47841797 122.49291992 102.01464844 C126.88308095 105.76616191 126.88308095 105.76616191 128 108 C128.25303321 111.87984253 128.30454139 114.77364205 126 118 C122.54322176 120.56057647 119.17383181 120.39564447 115 120 C112.59392148 118.41666419 110.75488832 116.99983984 108.6875 115.0625 C108.12627441 114.56250488 107.56504883 114.06250977 106.98681641 113.54736328 C105.30938685 112.04735874 103.65343226 110.52636246 102 109 C100.29269507 107.45719452 98.58445741 105.91542015 96.875 104.375 C96.07320313 103.64667969 95.27140625 102.91835938 94.4453125 102.16796875 C91.03926025 99.14822594 87.5046789 96.29908669 83.96875 93.43359375 C74.99662012 86.07880833 66.29440426 78.39282876 57.53613281 70.78613281 C53.02781266 66.87611746 48.48324644 63.01174708 43.91821289 59.16821289 C39.70136448 55.6111128 35.53491738 51.99840761 31.375 48.375 C27.05614293 44.61329086 22.70633554 40.91184794 18.25 37.3125 C13.38737999 33.38303646 8.79136477 29.22353569 4.21484375 24.96875 C2.16320879 22.97328212 2.16320879 22.97328212 0 22 C0 14.74 0 7.48 0 0 Z " fill="#7A6D79" transform="translate(338,276)"/>
<path d="M0 0 C1.79562813 19.3048859 1.79562813 19.3048859 -2.09765625 25.1484375 C-4.9522865 27.37272042 -7.87700624 29.176267 -11 31 C-12.70373756 32.45775721 -14.37187371 33.9582534 -16 35.5 C-20.29991791 39.41891252 -24.75919547 43.09170869 -29.28125 46.75 C-31.92147729 48.93501569 -34.4672972 51.19171391 -37 53.5 C-40.31989486 56.52282421 -43.69764112 59.42512161 -47.1875 62.25 C-53.62711993 67.46518515 -59.85455403 72.91331752 -66.10351562 78.35351562 C-69.07855189 80.93637409 -72.0694406 83.50056914 -75.0625 86.0625 C-75.63589111 86.55339111 -76.20928223 87.04428223 -76.80004883 87.55004883 C-77.95530518 88.53885203 -79.11065976 89.52754049 -80.26611328 90.51611328 C-82.59513759 92.50932783 -84.92260186 94.50435818 -87.24975586 96.49975586 C-88.41031247 97.49454179 -89.57127823 98.4888506 -90.73266602 99.48266602 C-93.75773527 102.07211849 -96.77494544 104.67002448 -99.78125 107.28125 C-100.40386719 107.82007813 -101.02648437 108.35890625 -101.66796875 108.9140625 C-102.85004443 109.93735189 -104.02990316 110.96321055 -105.20703125 111.9921875 C-115.12891808 120.56431884 -115.12891808 120.56431884 -120.125 120.625 C-124 120 -124 120 -126.5 117.375 C-128.12420896 113.72052985 -128.73572686 111.92387657 -128 108 C-124.67093837 102.83421472 -119.92573354 99.36458375 -115.16015625 95.5546875 C-111.70300456 92.78416303 -108.35216511 89.89596683 -105 87 C-99.98329572 82.67640195 -94.9050372 78.44327585 -89.765625 74.265625 C-82.63728214 68.42602209 -75.64647029 62.41991936 -68.66088867 56.41088867 C-63.06955332 51.60226383 -57.43558313 46.86116283 -51.7109375 42.2109375 C-47.77160095 38.99816446 -43.87668267 35.73283422 -39.9765625 32.47265625 C-37.12678261 30.10531941 -34.2540305 27.76910921 -31.375 25.4375 C-26.97266743 21.84877903 -22.75430925 18.09993004 -18.55859375 14.2734375 C-14.92034876 11.0406763 -11.14220237 7.99186896 -7.34765625 4.9453125 C-5.03927203 3.10675749 -5.03927203 3.10675749 -3.30859375 1.2421875 C-2 0 -2 0 0 0 Z " fill="#8D7F8D" transform="translate(162,276)"/>
<path d="M0 0 C0.66 0.99 1.32 1.98 2 3 C3.72684372 5.45370112 5.0150197 6.81234217 8.0189209 7.38464355 C10.61808277 7.56056674 13.19173754 7.60589563 15.796875 7.609375 C17.22003021 7.63417938 17.22003021 7.63417938 18.67193604 7.65948486 C21.69802288 7.70801439 24.72360701 7.72934695 27.75 7.75 C29.80341078 7.77815551 31.85679808 7.80808235 33.91015625 7.83984375 C38.94033652 7.91710602 43.96892253 7.95757945 49 8 C49 14.27 49 20.54 49 27 C16.99 27 -15.02 27 -48 27 C-48 20.73 -48 14.46 -48 8 C-46.24171875 7.97421875 -44.4834375 7.9484375 -42.671875 7.921875 C-40.36455834 7.86559898 -38.05726763 7.80825154 -35.75 7.75 C-34.59113281 7.73582031 -33.43226562 7.72164063 -32.23828125 7.70703125 C-30.56572266 7.65869141 -30.56572266 7.65869141 -28.859375 7.609375 C-27.83295898 7.58842773 -26.80654297 7.56748047 -25.74902344 7.54589844 C-22.36230513 6.87336717 -21.26170831 5.52291615 -19 3 C-18.34 3 -17.68 3 -17 3 C-17 2.34 -17 1.68 -17 1 C-14.20882755 0.75196219 -11.41884926 0.52585666 -8.625 0.3125 C-7.43390625 0.20325195 -7.43390625 0.20325195 -6.21875 0.09179688 C-3.9140625 -0.07421875 -3.9140625 -0.07421875 0 0 Z " fill="#E7AD8E" transform="translate(113,458)"/>
<path d="M0 0 C7.18165851 0.55243527 13.46732785 3.9755088 18.3125 9.25 C24.81081204 17.90506018 25.57266068 25.6872055 25.45410156 36.33227539 C25.45297138 37.76215584 25.45361028 39.19203861 25.45587158 40.62191772 C25.45701301 44.47890653 25.43359731 48.33539149 25.40557575 52.19226384 C25.38046604 56.23210761 25.37821259 60.27196462 25.37347412 64.31187439 C25.36107232 71.95090946 25.32828888 79.58971387 25.28807616 87.22864765 C25.24327107 95.92998826 25.22134951 104.63134024 25.20129442 113.33276761 C25.15955351 131.22197918 25.08844467 149.11096253 25 167 C21.04 167 17.08 167 13 167 C12.99857498 165.19754822 12.99714996 163.39509644 12.99568176 161.5380249 C12.97899328 144.52977446 12.93645792 127.52176058 12.86790943 110.51363754 C12.83332782 101.77013132 12.8079129 93.02678163 12.80444336 84.28320312 C12.80139393 76.6579642 12.78077255 69.03300455 12.73947543 61.40787339 C12.71823205 57.37425745 12.70549982 53.34103767 12.71384621 49.30736542 C12.72144183 45.50189621 12.70534339 41.69722606 12.67193985 37.89190292 C12.66377225 36.50371784 12.66387814 35.11545228 12.67340279 33.72727585 C12.73139957 24.33623596 11.1024409 17.4241951 7 9 C6.67 8.01 6.34 7.02 6 6 C5.01 5.67 4.02 5.34 3 5 C3 4.01 3 3.02 3 2 C2.01 1.67 1.02 1.34 0 1 C0 0.67 0 0.34 0 0 Z " fill="#C76E38" transform="translate(255,318)"/>
<path d="M0 0 C4.21181055 2.52708633 7.10795728 4.79755527 10.625 8.125 C14.49975837 11.75035415 18.42581518 15.2329732 22.5625 18.5625 C26.32838189 21.59357567 29.94329756 24.72581577 33.5 28 C37.89563729 32.04125069 42.42425646 35.84833501 47.06640625 39.6015625 C54.11533271 45.36459958 60.97277189 51.36220796 67.83984375 57.33984375 C74.29739549 62.95954859 80.77192083 68.52928874 87.4375 73.90234375 C88.283125 74.59457031 89.12875 75.28679687 90 76 C90.57996231 76.36195969 91.15992462 76.72391937 91.75746155 77.09684753 C94.83703567 79.22724737 96.71594459 80.82506658 97.61569214 84.54667664 C97.81019547 87.70670083 97.78691892 90.79655208 97.68359375 93.9609375 C97.67368912 95.10664215 97.66378448 96.2523468 97.65357971 97.43276978 C97.61448675 101.08149813 97.52666452 104.72718556 97.4375 108.375 C97.40238 110.85282105 97.37044222 113.33068939 97.34179688 115.80859375 C97.26473955 121.87356223 97.14398283 127.9362661 97 134 C93.04 134 89.08 134 85 134 C85 117.5 85 101 85 84 C83.02 83.505 83.02 83.505 81 83 C79.515 82.01 79.515 82.01 78 81 C78 80.01 78 79.02 78 78 C77.443125 77.938125 76.88625 77.87625 76.3125 77.8125 C73.00931958 76.6519231 71.28105267 74.59786554 69 72 C69 71.34 69 70.68 69 70 C68.01 70 67.02 70 66 70 C66 69.34 66 68.68 66 68 C65.401875 67.87625 64.80375 67.7525 64.1875 67.625 C62 67 62 67 59 65 C59 64.34 59 63.68 59 63 C57.948125 62.7215625 57.948125 62.7215625 56.875 62.4375 C53.40517005 60.70258502 51.70274509 58.56733611 49.33203125 55.55859375 C48.06350705 53.86950777 48.06350705 53.86950777 46 53 C46 52.34 46 51.68 46 51 C45.01 51 44.02 51 43 51 C42.67 50.01 42.34 49.02 42 48 C40.67203709 47.64587656 39.33783393 47.31478446 38 47 C36.5 45.625 36.5 45.625 35 44 C34.278125 43.484375 33.55625 42.96875 32.8125 42.4375 C31.9153125 41.7259375 31.9153125 41.7259375 31 41 C31 40.34 31 39.68 31 39 C30.34 39 29.68 39 29 39 C29 38.34 29 37.68 29 37 C28.2575 36.7525 27.515 36.505 26.75 36.25 C23.76976913 34.89534961 22.10080748 33.4898459 20 31 C20 30.34 20 29.68 20 29 C19.236875 28.71125 18.47375 28.4225 17.6875 28.125 C15 27 15 27 12 25 C12 24.34 12 23.68 12 23 C11.34 23 10.68 23 10 23 C10 22.01 10 21.02 10 20 C8.35 19.67 6.7 19.34 5 19 C5 18.34 5 17.68 5 17 C3.68 16.67 2.36 16.34 1 16 C1 54.94 1 93.88 1 134 C0.67 134 0.34 134 0 134 C0 89.78 0 45.56 0 0 Z " fill="#FAD69D" transform="translate(338,317)"/>
<path d="M0 0 C32.01 0 64.02 0 97 0 C97 6.27 97 12.54 97 19 C64.99 19 32.98 19 0 19 C0 12.73 0 6.46 0 0 Z " fill="#E7AE8F" transform="translate(338,466)"/>
<path d="M0 0 C1.72842472 1.60253036 3.38897248 3.27949255 5 5 C6.76735733 6.6161829 8.54263437 8.22373251 10.32421875 9.82421875 C18.09205135 16.87850646 25.43196231 24.3580249 32.8125 31.8125 C35.52435189 34.55116714 38.23966947 37.28633229 40.95703125 40.01953125 C41.56134476 40.6321431 42.16565826 41.24475494 42.7882843 41.87593079 C46.22929678 45.33649396 49.76388636 48.58623697 53.52714539 51.69487 C55 53 55 53 56.9375 55.4375 C58.71417936 57.64488951 60.3430849 59.21429243 62.48950195 61.0246582 C67.65103262 65.49485733 72.42640101 70.31987332 77.23046875 75.16796875 C78.19325039 76.13516835 79.15633513 77.10206632 80.1197052 78.06867981 C83.14516195 81.10544967 86.16662307 84.14617517 89.1875 87.1875 C92.70284082 90.72654508 96.21985619 94.26389335 99.74111366 97.79705238 C101.13955854 99.2019279 102.53492319 100.60986741 103.93022156 102.01786804 C104.78493546 102.87588516 105.63964935 103.73390228 106.52026367 104.61791992 C107.63989754 105.74540901 107.63989754 105.74540901 108.78215027 106.89567566 C111.00761226 109.07251856 111.00761226 109.07251856 113.65498352 111.08638 C116.83127293 113.67834939 117.907184 115.28399088 118.4375 119.375 C118 123 118 123 115.9375 125.9375 C112.35134537 128.45543836 110.29107165 128.4206933 106 128 C107.32 127.67 108.64 127.34 110 127 C107.59079371 120.62268923 104.97669043 116.63737063 100 112 C100 111.34 100 110.68 100 110 C99.13375 109.62875 99.13375 109.62875 98.25 109.25 C95.67060021 107.81700012 93.93878408 106.21575324 92 104 C92 103.34 92 102.68 92 102 C91.19369141 101.68482422 91.19369141 101.68482422 90.37109375 101.36328125 C87.09661712 99.48059205 84.6682841 96.87786636 82.0625 94.1875 C81.29389648 93.40536133 81.29389648 93.40536133 80.50976562 92.60742188 C79.49146464 91.57100626 78.47467849 90.53309995 77.45947266 89.49365234 C74.23998756 86.19876947 71.04638861 82.94417168 67.5 80 C64.51089994 77.47126026 61.73307714 74.80694409 59 72 C58.236875 71.278125 57.47375 70.55625 56.6875 69.8125 C55 68 55 68 55 66 C54.443125 65.79375 53.88625 65.5875 53.3125 65.375 C50.75661338 63.85528363 49.31565039 62.03321965 47.49609375 59.71484375 C45.18795881 57.06922694 42.48650031 54.92399452 39.76953125 52.7109375 C38 51 38 51 36.94921875 48.8515625 C36.08854735 46.64065648 36.08854735 46.64065648 33 46 C33 45.34 33 44.68 33 44 C32.443125 43.773125 31.88625 43.54625 31.3125 43.3125 C28.34425759 41.62782188 26.38582311 39.44426547 24 37 C22.10727081 35.08025535 20.2097281 33.16529694 18.3125 31.25 C17.82716797 30.75628906 17.34183594 30.26257813 16.84179688 29.75390625 C14.18159783 27.03384724 14.18159783 27.03384724 11 25 C11 24.34 11 23.68 11 23 C10.40832031 22.73574219 9.81664062 22.47148438 9.20703125 22.19921875 C6.91981625 20.95643113 5.4822014 19.68430075 3.6875 17.8125 C2.78644531 16.88824219 2.78644531 16.88824219 1.8671875 15.9453125 C0 14 0 14 -1.8671875 12.0546875 C-2.46789062 11.43851563 -3.06859375 10.82234375 -3.6875 10.1875 C-4.22761719 9.62417969 -4.76773438 9.06085938 -5.32421875 8.48046875 C-8.16739695 5.9686633 -10.1884779 5 -14 5 C-9.28792756 0.28792756 -6.69852169 -1.06325741 0 0 Z " fill="#786B76" transform="translate(254,88)"/>
<path d="M0 0 C0 43.56 0 87.12 0 132 C-3.63 132 -7.26 132 -11 132 C-11.01030746 130.58290237 -11.02061493 129.16580475 -11.03123474 127.70576477 C-11.1289339 114.3597348 -11.23160737 101.01375089 -11.33933926 87.66779804 C-11.39459931 80.80629975 -11.44806934 73.94479626 -11.49731445 67.08325195 C-11.5448316 60.46317497 -11.59735156 53.84314993 -11.65294075 47.22313499 C-11.67334219 44.69576491 -11.69205891 42.16838064 -11.70907402 39.64098549 C-11.73316681 36.10476173 -11.763215 32.56863549 -11.79467773 29.0324707 C-11.8004332 27.98446289 -11.80618866 26.93645508 -11.81211853 25.85668945 C-11.82190735 24.89060257 -11.83169617 23.92451569 -11.84178162 22.92915344 C-11.84823417 22.09308721 -11.85468672 21.25702097 -11.8613348 20.39561939 C-12.01008652 17.82574238 -12.32195845 15.48507168 -13 13 C-13.66 12.67 -14.32 12.34 -15 12 C-12.88046983 9.99390948 -10.75486559 7.99506397 -8.625 6 C-8.02171875 5.42765625 -7.4184375 4.8553125 -6.796875 4.265625 C-6.21679688 3.72421875 -5.63671875 3.1828125 -5.0390625 2.625 C-4.50490723 2.12226563 -3.97075195 1.61953125 -3.42041016 1.1015625 C-2 0 -2 0 0 0 Z " fill="#FCD79C" transform="translate(162,317)"/>
<path d="M0 0 C4.13203344 3.16210956 7.39122585 6.5994588 9.046875 11.56640625 C9.75148141 18.71642871 9.42297666 24.68441079 5.046875 30.56640625 C-0.16899667 36.36325373 -5.62724952 38.48457238 -13.390625 39.00390625 C-18.56122587 38.88037654 -22.03130132 36.81082403 -25.953125 33.56640625 C-30.39565675 28.88373765 -33.10164291 24.19848566 -33.390625 17.69140625 C-33.17344751 11.66473078 -31.44062613 7.21895485 -27.3046875 2.80859375 C-19.07210109 -4.63308916 -9.6096216 -5.980456 0 0 Z " fill="#B0D4F7" transform="translate(261.953125,199.43359375)"/>
<path d="M0 0 C2.475 0.99 2.475 0.99 5 2 C5 2.66 5 3.32 5 4 C5.81791016 4.35578125 5.81791016 4.35578125 6.65234375 4.71875 C9.60315433 6.32917574 11.98704217 8.34152106 14.5625 10.5 C17.32911711 12.81239639 19.99876548 14.99917699 23 17 C23 17.66 23 18.32 23 19 C23.5775 19.0825 24.155 19.165 24.75 19.25 C27.6539336 20.21797787 29.03740604 21.68694284 31 24 C31 24.66 31 25.32 31 26 C31.81791016 26.35771484 31.81791016 26.35771484 32.65234375 26.72265625 C35.59113683 28.32163352 37.98704897 30.30355486 40.5625 32.4375 C41.98755859 33.61119141 41.98755859 33.61119141 43.44140625 34.80859375 C46 37 46 37 47.703125 38.7109375 C49.2918484 40.29009028 50.96826505 41.08922226 53 42 C53 42.66 53 43.32 53 44 C53.721875 44.226875 54.44375 44.45375 55.1875 44.6875 C58.54562879 46.25462677 60.4618052 48.328216 63 51 C63.99 51.66 64.98 52.32 66 53 C66 53.66 66 54.32 66 55 C67.485 55.495 67.485 55.495 69 56 C69 56.66 69 57.32 69 58 C69.59425781 58.10054688 70.18851562 58.20109375 70.80078125 58.3046875 C73.40366592 59.1276244 74.364878 60.11786565 76.1875 62.125 C80.12219497 66.2362518 84.45177632 69.59662029 89 73 C89.7528125 73.57363281 90.505625 74.14726562 91.28125 74.73828125 C94.9835333 77.61677576 94.9835333 77.61677576 99 80 C99 80.99 99 81.98 99 83 C99.5887793 83.27779297 100.17755859 83.55558594 100.78417969 83.84179688 C104.25155371 85.65418365 107.18298549 88.08753127 110.25 90.5 C110.8996875 90.99886719 111.549375 91.49773437 112.21875 92.01171875 C113.85236564 93.29184193 115.43134241 94.64105599 117 96 C117 96.66 117 97.32 117 98 C118.175625 98.4640625 118.175625 98.4640625 119.375 98.9375 C122 100 122 100 124 101 C123.625 103.4375 123.625 103.4375 123 106 C119.8501262 107.5749369 117.48311575 107.34289741 114 107 C111.59392148 105.41666419 109.75488832 103.99983984 107.6875 102.0625 C107.12627441 101.56250488 106.56504883 101.06250977 105.98681641 100.54736328 C104.30938685 99.04735874 102.65343226 97.52636246 101 96 C99.29269507 94.45719452 97.58445741 92.91542015 95.875 91.375 C95.07320313 90.64667969 94.27140625 89.91835938 93.4453125 89.16796875 C90.03926025 86.14822594 86.5046789 83.29908669 82.96875 80.43359375 C73.99662012 73.07880833 65.29440426 65.39282876 56.53613281 57.78613281 C52.02781266 53.87611746 47.48324644 50.01174708 42.91821289 46.16821289 C38.05155414 42.06296874 33.25255001 37.88175996 28.4519043 33.69970703 C24.79182917 30.52160736 21.08758877 27.41679815 17.3125 24.375 C15.54058873 22.91797658 13.76980528 21.45958079 12 20 C11.46117187 19.56977539 10.92234375 19.13955078 10.3671875 18.69628906 C0.48944815 10.75237654 0.48944815 10.75237654 -0.75390625 6.30078125 C-0.75 3.8125 -0.75 3.8125 0 0 Z " fill="#8C7E8C" transform="translate(339,289)"/>
<path d="M0 0 C0 7.26 0 14.52 0 22 C-0.33 22 -0.66 22 -1 22 C-1.33 18.7 -1.66 15.4 -2 12 C-2.99 12.33 -3.98 12.66 -5 13 C-5 13.66 -5 14.32 -5 15 C-6.6875 16.48046875 -6.6875 16.48046875 -9 18.1875 C-12.9817102 21.18164543 -16.70449211 24.34453315 -20.37109375 27.71484375 C-22 29 -22 29 -24 29 C-24 29.66 -24 30.32 -24 31 C-24.66 31 -25.32 31 -26 31 C-26 31.66 -26 32.32 -26 33 C-27.32 33.33 -28.64 33.66 -30 34 C-30 34.66 -30 35.32 -30 36 C-33.46153846 39 -33.46153846 39 -36 39 C-36 39.66 -36 40.32 -36 41 C-37.80078125 42.62890625 -37.80078125 42.62890625 -40.3125 44.5625 C-45.94639952 48.95774076 -51.47953002 53.46346236 -57 58 C-57.61101562 58.49628906 -58.22203125 58.99257813 -58.8515625 59.50390625 C-61.23155625 61.45061909 -63.44888533 63.44888533 -65.625 65.625 C-67.66518194 67.66518194 -69.59047318 69.4213445 -72 71 C-72.66 71 -73.32 71 -74 71 C-74 71.66 -74 72.32 -74 73 C-75.86328125 74.69140625 -75.86328125 74.69140625 -78.3125 76.5625 C-79.51326172 77.49255859 -79.51326172 77.49255859 -80.73828125 78.44140625 C-83 80 -83 80 -86 81 C-86 81.66 -86 82.32 -86 83 C-90.47058824 87 -90.47058824 87 -93 87 C-93 87.66 -93 88.32 -93 89 C-94.73046875 90.55859375 -94.73046875 90.55859375 -97.1875 92.4375 C-101.40916647 95.73099866 -105.54474594 99.09707874 -109.625 102.5625 C-110.45040283 103.26294434 -110.45040283 103.26294434 -111.29248047 103.97753906 C-115.56359096 107.61149436 -119.80089881 111.28297085 -124 115 C-123.67 115.99 -123.34 116.98 -123 118 C-120.69 118.33 -118.38 118.66 -116 119 C-116 119.33 -116 119.66 -116 120 C-121.17520216 120.51752022 -121.17520216 120.51752022 -124 120 C-126.80072037 117.05924361 -127.81724028 114.97471853 -128.5625 111 C-127.22391202 103.86086413 -120.52299859 99.84207424 -115.16015625 95.5546875 C-111.70300456 92.78416303 -108.35216511 89.89596683 -105 87 C-99.98329572 82.67640195 -94.9050372 78.44327585 -89.765625 74.265625 C-82.63728214 68.42602209 -75.64647029 62.41991936 -68.66088867 56.41088867 C-63.06955332 51.60226383 -57.43558313 46.86116283 -51.7109375 42.2109375 C-47.77160095 38.99816446 -43.87668267 35.73283422 -39.9765625 32.47265625 C-37.12678261 30.10531941 -34.2540305 27.76910921 -31.375 25.4375 C-26.97266743 21.84877903 -22.75430925 18.09993004 -18.55859375 14.2734375 C-14.92034876 11.0406763 -11.14220237 7.99186896 -7.34765625 4.9453125 C-5.03927203 3.10675749 -5.03927203 3.10675749 -3.30859375 1.2421875 C-2 0 -2 0 0 0 Z " fill="#776A75" transform="translate(162,276)"/>
<path d="M0 0 C3.57185235 1.78592618 5.27695222 3.03581169 7.99902344 5.7878418 C8.77372986 6.56592697 9.54843628 7.34401215 10.34661865 8.14567566 C11.17582825 8.98834488 12.00503784 9.8310141 12.859375 10.69921875 C13.72258362 11.56762894 14.58579224 12.43603912 15.47515869 13.33076477 C18.2382215 16.11164585 20.99453374 18.89909318 23.75 21.6875 C26.4919961 24.4572247 29.23546835 27.22544412 31.98199463 29.99067688 C33.690027 31.7108409 35.39538039 33.43367061 37.09759521 35.15959167 C41.35278095 39.45007491 45.68227158 43.56844955 50.26541138 47.50709534 C54.00814175 50.72834304 57.52826366 54.17904347 61.0625 57.625 C61.84560547 58.36234375 62.62871094 59.0996875 63.43554688 59.859375 C64.16966797 60.57867187 64.90378906 61.29796875 65.66015625 62.0390625 C66.32668213 62.68053223 66.99320801 63.32200195 67.67993164 63.98291016 C69 66 69 66 68.85717773 68.66552734 C68 71 68 71 65.625 72.3125 C63 73 63 73 60 73 C60 72.34 60 71.68 60 71 C59.34 71 58.68 71 58 71 C54 66.52941176 54 66.52941176 54 64 C53.278125 63.773125 52.55625 63.54625 51.8125 63.3125 C48.43567583 61.73664872 46.44232961 59.79123384 44 57 C44 56.34 44 55.68 44 55 C43.34 55 42.68 55 42 55 C40.29006566 53.3777546 38.62652316 51.70586575 37 50 C36.401875 49.443125 35.80375 48.88625 35.1875 48.3125 C34 47 34 47 34 45 C33.01 45 32.02 45 31 45 C30.54625 44.236875 30.0925 43.47375 29.625 42.6875 C27.77784786 39.63259454 26.04947019 38.73078038 23 37 C23 36.34 23 35.68 23 35 C22.360625 34.7525 21.72125 34.505 21.0625 34.25 C19 33 19 33 18.4375 30.9375 C18.2209375 29.9784375 18.2209375 29.9784375 18 29 C17.01 28.67 16.02 28.34 15 28 C13.8238137 26.85741902 12.65306777 25.70834275 11.51953125 24.5234375 C9.7541011 22.75346897 7.8929268 21.13269393 6 19.5 C2.86245778 16.78788724 -0.06712556 13.93287444 -3 11 C-5.81509993 8.7226499 -5.81509993 8.7226499 -9 9 C-6.03 6.03 -3.06 3.06 0 0 Z " fill="#F8CB81" transform="translate(249,129)"/>
<path d="M0 0 C0.33 0 0.66 0 1 0 C1 93.72 1 187.44 1 284 C-8.24 284 -17.48 284 -27 284 C-27.02505615 279.61912109 -27.0501123 275.23824219 -27.07592773 270.72460938 C-27.15939597 256.2518417 -27.24803455 241.77910911 -27.33933926 227.30638885 C-27.39457202 218.53142091 -27.44803741 209.75644889 -27.49731445 200.98144531 C-27.54027842 193.33144559 -27.5865867 185.6814746 -27.63687855 178.03151941 C-27.6633814 173.98250403 -27.68823146 169.93349399 -27.70907402 165.88444519 C-27.72876485 162.06941984 -27.75294441 158.25444867 -27.78049088 154.4394722 C-27.78979582 153.04314287 -27.79749414 151.64680171 -27.80341911 150.25045395 C-27.83329154 143.41799328 -27.94007682 136.7567903 -29 130 C-28.34 130 -27.68 130 -27 130 C-23.31004271 137.37991459 -24.83799291 148.63464381 -24.81054688 156.68554688 C-24.80258356 158.02218881 -24.79419404 159.35882826 -24.78541565 160.69546509 C-24.76750923 163.54962934 -24.75244223 166.40378869 -24.73963928 169.25798035 C-24.71925543 173.77118449 -24.69163256 178.28432728 -24.66296387 182.79748535 C-24.59808337 193.17994425 -24.54228031 203.56244792 -24.48697662 213.94496155 C-24.43609742 223.48887657 -24.38327799 233.03276879 -24.32245111 242.5766263 C-24.29412553 247.06414896 -24.27052419 251.55166414 -24.25052643 256.0392313 C-24.24036861 258.15355994 -24.22798383 260.26786124 -24.21458435 262.38217163 C-24.1982502 264.96082502 -24.18544952 267.53950406 -24.17677307 270.11819458 C-24.16842941 271.25074677 -24.16008575 272.38329895 -24.15148926 273.5501709 C-24.14633553 274.53602928 -24.14118179 275.52188766 -24.13587189 276.53762054 C-24.10093845 279.13631711 -24.10093845 279.13631711 -23 282 C-15.41 282.33 -7.82 282.66 0 283 C0 189.61 0 96.22 0 0 Z " fill="#F1D5A1" transform="translate(322,201)"/>
<path d="M0 0 C6.6483605 1.62155134 10.99612091 5.22042577 14.9375 10.6875 C16.92009615 16.86853507 17.11326668 23.30355845 14.4375 29.3125 C11.34512723 34.61526598 7.28492824 38.06910331 1.625 40.375 C-2.57437635 41.09903041 -6.75440367 41.58798483 -11 41 C-11.66 40.34 -12.32 39.68 -13 39 C-12.030625 38.7525 -11.06125 38.505 -10.0625 38.25 C-9.051875 37.8375 -8.04125 37.425 -7 37 C-6.3185177 35.10820797 -6.3185177 35.10820797 -6 33 C-4.0625 30.75 -4.0625 30.75 -2 29 C-1.34 29 -0.68 29 0 29 C1.80141554 23.59575338 2.21900115 18.49045615 2.25 12.8125 C2.25902344 12.12349609 2.26804687 11.43449219 2.27734375 10.72460938 C2.25402715 6.71026887 1.76771727 3.61259681 0 0 Z " fill="#88C3F3" transform="translate(255,197)"/>
<path d="M0 0 C0.66 0 1.32 0 2 0 C2 37.62 2 75.24 2 114 C5.63 114 9.26 114 13 114 C13 114.66 13 115.32 13 116 C11.22925083 116.02705729 9.45838289 116.04642195 7.6875 116.0625 C6.70136719 116.07410156 5.71523437 116.08570313 4.69921875 116.09765625 C2 116 2 116 -1 115 C-0.67 77.05 -0.34 39.1 0 0 Z " fill="#FBDBAE" transform="translate(149,335)"/>
<path d="M0 0 C3.96 0 7.92 0 12 0 C12 6.27 12 12.54 12 19 C8.04 19 4.08 19 0 19 C0 12.73 0 6.46 0 0 Z " fill="#DA9976" transform="translate(423,466)"/>
<path d="M0 0 C3.96 0 7.92 0 12 0 C12 6.27 12 12.54 12 19 C8.04 19 4.08 19 0 19 C0 12.73 0 6.46 0 0 Z " fill="#DD9A77" transform="translate(150,466)"/>
<path d="M0 0 C5 3 5 3 6 5 C4.68 5 3.36 5 2 5 C1.67 47.57 1.34 90.14 1 134 C0.67 134 0.34 134 0 134 C0 89.78 0 45.56 0 0 Z " fill="#DFCCB3" transform="translate(338,317)"/>
<path d="M0 0 C0.66 0 1.32 0 2 0 C2 43.56 2 87.12 2 132 C1.67 132 1.34 132 1 132 C1 89.76 1 47.52 1 4 C-0.65 4.33 -2.3 4.66 -4 5 C-2.71937515 3.2925002 -1.38232443 1.62626404 0 0 Z " fill="#DEC397" transform="translate(160,317)"/>
<path d="M0 0 C2.46452332 1.18037415 2.46452332 1.18037415 5 3 C5.60127258 5.33488464 5.60127258 5.33488464 5.56762695 8.11401367 C5.5672493 9.15486618 5.56687164 10.19571869 5.56648254 11.26811218 C5.54067612 12.39006485 5.51486969 13.51201752 5.48828125 14.66796875 C5.47766914 16.39289299 5.47766914 16.39289299 5.46684265 18.15266418 C5.43881662 21.8315999 5.37605848 25.509023 5.3125 29.1875 C5.28742795 31.67901451 5.26461289 34.17055283 5.24414062 36.66210938 C5.18896229 42.77532389 5.10262919 48.88740536 5 55 C1.04 55 -2.92 55 -7 55 C-7 54.34 -7 53.68 -7 53 C-3.7 53 -0.4 53 3 53 C2.67 36.83 2.34 20.66 2 4 C1.34 3.67 0.68 3.34 0 3 C0 2.01 0 1.02 0 0 Z " fill="#E3C89C" transform="translate(430,396)"/>
<path d="M0 0 C0 0.99 0 1.98 0 3 C-1.64453125 4.2109375 -1.64453125 4.2109375 -3.8125 5.375 C-7.4237212 7.47306865 -9.02952717 9.26647253 -11 13 C-11.99 13.33 -12.98 13.66 -14 14 C-15.36639342 15.6396721 -16.6949419 17.31110128 -18 19 C-19.64694485 20.68615782 -21.31126121 22.35570171 -23 24 C-23.66 24.66 -24.32 25.32 -25 26 C-25 26.99 -25 27.98 -25 29 C-25.95653635 31.3514852 -26.95281202 33.68745988 -28 36 C-29.32 35.67 -30.64 35.34 -32 35 C-31.835 34.401875 -31.67 33.80375 -31.5 33.1875 C-30.8885876 30.88655664 -30.8885876 30.88655664 -31 28 C-29.051862 25.75209045 -27.08964218 23.66996554 -24.98046875 21.58203125 C-24.05890739 20.65616463 -24.05890739 20.65616463 -23.11872864 19.71159363 C-21.81680995 18.407632 -20.51108926 17.10745711 -19.2019043 15.81079102 C-17.19549618 13.82043221 -15.20556411 11.81460873 -13.21679688 9.80664062 C-11.95148164 8.54330778 -10.68523613 7.28090585 -9.41796875 6.01953125 C-8.82098679 5.41647659 -8.22400482 4.81342194 -7.6089325 4.1920929 C-3.3448799 0 -3.3448799 0 0 0 Z " fill="#FAD8A1" transform="translate(242,139)"/>
<path d="M0 0 C0 3 0 3 -1.50509644 4.87931824 C-2.20965973 5.58325211 -2.91422302 6.28718597 -3.64013672 7.01245117 C-4.43451141 7.81305466 -5.22888611 8.61365814 -6.04733276 9.43852234 C-7.35034836 10.72772331 -7.35034836 10.72772331 -8.6796875 12.04296875 C-9.56278595 12.9265657 -10.4458844 13.81016266 -11.35574341 14.72053528 C-13.22700272 16.58945074 -15.10089852 18.45516693 -16.97998047 20.31616211 C-19.39186439 22.70534235 -21.79250164 25.10545476 -24.1896801 27.50937939 C-26.47280555 29.79664336 -28.76395471 32.07582742 -31.0546875 34.35546875 C-31.9193161 35.22100876 -32.7839447 36.08654877 -33.67477417 36.97831726 C-34.47545319 37.76946426 -35.2761322 38.56061127 -36.10107422 39.37573242 C-36.8072287 40.07727951 -37.51338318 40.7788266 -38.24093628 41.50163269 C-40 43 -40 43 -42 43 C-40.56698626 39.71990961 -38.80531117 37.57023114 -36.26171875 35.06640625 C-35.15473633 33.9690918 -35.15473633 33.9690918 -34.02539062 32.84960938 C-33.25388672 32.09486328 -32.48238281 31.34011719 -31.6875 30.5625 C-30.92759766 29.81162109 -30.16769531 29.06074219 -29.38476562 28.28710938 C-27.90832297 26.82862519 -26.42970937 25.37233478 -24.94873047 23.91845703 C-23.40947698 22.40311577 -21.88385238 20.87393107 -20.36328125 19.33984375 C-16.93755829 15.9480949 -13.37400457 12.71312715 -9.81640625 9.4609375 C-6.46144466 6.38226687 -3.19598125 3.24368246 0 0 Z " fill="#545454" transform="translate(159,152)"/>
<path d="M0 0 C0 3 0 3 -1.79296875 5.0859375 C-2.58316406 5.84132813 -3.37335938 6.59671875 -4.1875 7.375 C-4.96480469 8.12523438 -5.74210937 8.87546875 -6.54296875 9.6484375 C-7.35378906 10.42445312 -8.16460937 11.20046875 -9 12 C-10.669062 13.66426789 -12.33536278 15.33130635 -14 17 C-22 25 -30 33 -38 41 C-38.66 40.67 -39.32 40.34 -40 40 C-26.8 26.8 -13.6 13.6 0 0 Z " fill="#1D171E" transform="translate(244,113)"/>
<path d="M0 0 C0.33 0.99 0.66 1.98 1 3 C-1.2207461 5.27919862 -3.45302104 7.54676959 -5.6875 9.8125 C-6.62625977 10.77639648 -6.62625977 10.77639648 -7.58398438 11.75976562 C-10.88263841 15.09296054 -13.91315761 17.65687703 -18 20 C-19.64760066 21.51663081 -21.25248462 23.08091699 -22.8125 24.6875 C-23.99779297 25.89986328 -23.99779297 25.89986328 -25.20703125 27.13671875 C-26.09455078 28.05904297 -26.09455078 28.05904297 -27 29 C-27 26 -27 26 -24.65625 23.328125 C-23.61241233 22.29369581 -22.5597676 21.26810288 -21.5 20.25 C-20.95190674 19.71286377 -20.40381348 19.17572754 -19.83911133 18.62231445 C-16.27429667 15.15377543 -12.61216187 11.8256818 -8.82421875 8.6015625 C-5.73254251 5.88724289 -2.86726218 2.94790392 0 0 Z " fill="#8A8A8A" transform="translate(199,112)"/>
<path d="M0 0 C0 0.99 0 1.98 0 3 C-1.64453125 4.2109375 -1.64453125 4.2109375 -3.8125 5.375 C-7.4237212 7.47306865 -9.02952717 9.26647253 -11 13 C-11.99 13.33 -12.98 13.66 -14 14 C-15.38576923 15.62332967 -16.72641268 17.28724465 -18 19 C-18.99 18.67 -19.98 18.34 -21 18 C-18.07468808 14.98790339 -15.13283286 11.9925121 -12.1875 9 C-11.35412109 8.14148438 -10.52074219 7.28296875 -9.66210938 6.3984375 C-8.85966797 5.58632812 -8.05722656 4.77421875 -7.23046875 3.9375 C-6.49207764 3.18339844 -5.75368652 2.42929688 -4.99291992 1.65234375 C-3 0 -3 0 0 0 Z " fill="#EDCF9F" transform="translate(242,139)"/>
<path d="M0 0 C1.5625 1.0625 1.5625 1.0625 3 3 C2.89098621 9.10477222 2.89098621 9.10477222 0.30761719 11.70043945 C-2.60583246 13.34118136 -4.52714547 13.34397226 -7.859375 13.29296875 C-8.97441406 13.28330078 -10.08945313 13.27363281 -11.23828125 13.26367188 C-12.97658203 13.2259668 -12.97658203 13.2259668 -14.75 13.1875 C-16.51150391 13.16719727 -16.51150391 13.16719727 -18.30859375 13.14648438 C-21.20619298 13.1111478 -24.10286427 13.06180979 -27 13 C-27 12.67 -27 12.34 -27 12 C-26.2886792 11.9906543 -25.5773584 11.98130859 -24.84448242 11.97167969 C-21.6247794 11.91803112 -18.40653817 11.83437365 -15.1875 11.75 C-13.50817383 11.72873047 -13.50817383 11.72873047 -11.79492188 11.70703125 C-10.72177734 11.67480469 -9.64863281 11.64257812 -8.54296875 11.609375 C-7.0583313 11.5779541 -7.0583313 11.5779541 -5.54370117 11.54589844 C-2.88994312 11.21400289 -2.88994312 11.21400289 -1.1652832 9.19628906 C0.4798604 6.09557423 0.19891027 3.44777809 0 0 Z " fill="#2F1D12" transform="translate(92,453)"/>
<path d="M0 0 C1.051875 0.5878125 1.051875 0.5878125 2.125 1.1875 C0.13101973 2.18894099 -1.8652781 3.18280994 -3.875 4.15234375 C-7.47084878 5.90110614 -10.78252252 7.61043543 -13.875 10.1875 C-14.205 8.8675 -14.535 7.5475 -14.875 6.1875 C-14.215 5.8575 -13.555 5.5275 -12.875 5.1875 C-12.215 5.5175 -11.555 5.8475 -10.875 6.1875 C-10.66875 5.589375 -10.4625 4.99125 -10.25 4.375 C-7.77472443 0.43706159 -4.5144401 -1.27582003 0 0 Z " fill="#EBCF9A" transform="translate(239.875,180.8125)"/>
<path d="M0 0 C0.33 1.32 0.66 2.64 1 4 C-1.89423026 8.17955612 -6.39168456 11.89334152 -11 14 C-11.66 13.67 -12.32 13.34 -13 13 C-8.71 8.71 -4.42 4.42 0 0 Z " fill="#DDC194" transform="translate(202,175)"/>
<path d="M0 0 C4.52615993 3.67832017 8.39424999 7.41086363 12 12 C5.25 11.25 5.25 11.25 3 9 C3.375 6.875 3.375 6.875 4 5 C3.01 4.67 2.02 4.34 1 4 C0.3125 1.9375 0.3125 1.9375 0 0 Z " fill="#DEBC7C" transform="translate(294,172)"/>
<path d="M0 0 C5.71197575 0.43938275 10.37212609 2.72963577 15 6 C16.76953125 8.16796875 16.76953125 8.16796875 18 10 C15.57710315 9.58225916 14.29120935 9.30387062 12.5625 7.5 C10.51486377 5.53426922 8.76252651 5.37331439 6 5 C6 4.34 6 3.68 6 3 C5.01 3.33 4.02 3.66 3 4 C3 3.34 3 2.68 3 2 C2.01 1.67 1.02 1.34 0 1 C0 0.67 0 0.34 0 0 Z " fill="#AE673C" transform="translate(255,318)"/>
<path d="M0 0 C-0.99 0 -1.98 0 -3 0 C-3.66 1.32 -4.32 2.64 -5 4 C-5.66 4 -6.32 4 -7 4 C-7.33 4.66 -7.66 5.32 -8 6 C-8.99 6.33 -9.98 6.66 -11 7 C-11.99 6.34 -12.98 5.68 -14 5 C-12.70903219 4.18639005 -11.41720125 3.37414954 -10.125 2.5625 C-9.04605469 1.88380859 -9.04605469 1.88380859 -7.9453125 1.19140625 C-4.71592036 -0.78643432 -3.63014076 -1.08904223 0 0 Z " fill="#B77352" transform="translate(244,319)"/>
<path d="M0 0 C1.65 0 3.3 0 5 0 C5 0.66 5 1.32 5 2 C5.99 2.33 6.98 2.66 8 3 C8.33 5.31 8.66 7.62 9 10 C7.86800647 9.0919838 6.74467637 8.17316174 5.625 7.25 C4.99851562 6.73953125 4.37203125 6.2290625 3.7265625 5.703125 C1.91687682 3.91800519 0.99882545 2.32050356 0 0 Z " fill="#F5D3A0" transform="translate(277,310)"/>
<path d="M0 0 C0.33 0.66 0.66 1.32 1 2 C3.64 2 6.28 2 9 2 C9 1.34 9 0.68 9 0 C10.65 0.33 12.3 0.66 14 1 C10.05284136 3.6314391 7.06555498 4.14828131 2.375 4.1875 C1.21097656 4.20876953 1.21097656 4.20876953 0.0234375 4.23046875 C-2 4 -2 4 -4 2 C-2.68 1.34 -1.36 0.68 0 0 Z " fill="#88B7DE" transform="translate(246,234)"/>
<path d="M0 0 C0.76763672 -0.020625 1.53527344 -0.04125 2.32617188 -0.0625 C7.96686566 -0.10184224 7.96686566 -0.10184224 10.46484375 1.765625 C10.78582031 2.25546875 11.10679687 2.7453125 11.4375 3.25 C10.4475 3.745 10.4475 3.745 9.4375 4.25 C8.2 3.7859375 8.2 3.7859375 6.9375 3.3125 C0.21080041 1.2704662 -6.7161745 2.0593347 -13.5625 3.25 C-12.5625 1.25 -12.5625 1.25 -10.75024414 0.63769531 C-7.16927422 0.00310316 -3.62864764 0.0244972 0 0 Z " fill="#1F0904" transform="translate(251.5625,315.75)"/>
<path d="M0 0 C0.33 0.66 0.66 1.32 1 2 C-2.46902655 7.82300885 -2.46902655 7.82300885 -5.0625 8.6875 C-5.701875 8.790625 -6.34125 8.89375 -7 9 C-8.73026102 10.47890069 -8.73026102 10.47890069 -10 12 C-10.99 11.67 -11.98 11.34 -13 11 C-12.22914062 10.37351562 -11.45828125 9.74703125 -10.6640625 9.1015625 C-9.15972656 7.87566406 -9.15972656 7.87566406 -7.625 6.625 C-6.62726563 5.81289063 -5.62953125 5.00078125 -4.6015625 4.1640625 C-2.03639494 2.09734084 -2.03639494 2.09734084 0 0 Z " fill="#DCCBB3" transform="translate(115,356)"/>
<path d="M0 0 C2.50453915 2.24619127 3.83574156 4.36626338 5.1875 7.4375 C5.53167969 8.19933594 5.87585938 8.96117187 6.23046875 9.74609375 C7 12 7 12 7 16 C6.01 16 5.02 16 4 16 C2.66666667 10.66666667 1.33333333 5.33333333 0 0 Z " fill="#A7653A" transform="translate(273,328)"/>
<path d="M0 0 C0.99 0.33 1.98 0.66 3 1 C2.60196439 3.88575819 2.20990931 4.82189513 -0.0625 6.75 C-0.701875 7.1625 -1.34125 7.575 -2 8 C-2.99 7.34 -3.98 6.68 -5 6 C-3.35 4.02 -1.7 2.04 0 0 Z " fill="#C77D53" transform="translate(229,325)"/>
<path d="M0 0 C2.64 1.98 5.28 3.96 8 6 C6.68 7.32 5.36 8.64 4 10 C3.54625 9.05125 3.0925 8.1025 2.625 7.125 C1.19761746 3.99686321 1.19761746 3.99686321 -1 2 C-0.67 1.34 -0.34 0.68 0 0 Z " fill="#998D97" transform="translate(414,329)"/>
<path d="M0 0 C0.66 0.33 1.32 0.66 2 1 C-8.25 11.25 -8.25 11.25 -12 12 C-11.34 11.01 -10.68 10.02 -10 9 C-9.34 9 -8.68 9 -8 9 C-7.67 8.01 -7.34 7.02 -7 6 C-5.37109375 4.39453125 -5.37109375 4.39453125 -3.4375 2.8125 C-2.79683594 2.28269531 -2.15617188 1.75289063 -1.49609375 1.20703125 C-1.00238281 0.80871094 -0.50867188 0.41039062 0 0 Z " fill="#636363" transform="translate(133,279)"/>
<path d="M0 0 C1.65 0 3.3 0 5 0 C3.02 3.63 1.04 7.26 -1 11 C-1.33 11 -1.66 11 -2 11 C-2.24042276 6.91281305 -1.42258812 3.82320557 0 0 Z " fill="#E0C695" transform="translate(218,194)"/>
<path d="M0 0 C0.99 0 1.98 0 3 0 C1.60667426 3.36720387 0.0210714 4.9859524 -3 7 C-4.125 3.25 -4.125 3.25 -3 1 C-2.01 1.33 -1.02 1.66 0 2 C0 1.34 0 0.68 0 0 Z " fill="#867A85" transform="translate(205,148)"/>
<path d="M0 0 C2.475 0.495 2.475 0.495 5 1 C4.01 1.495 4.01 1.495 3 2 C2.52998967 5.27555608 2.52998967 5.27555608 2.375 9.0625 C2.30023438 10.35285156 2.22546875 11.64320313 2.1484375 12.97265625 C2.09945313 13.97167969 2.05046875 14.97070312 2 16 C1.67 16 1.34 16 1 16 C0.67 10.72 0.34 5.44 0 0 Z " fill="#93CCFB" transform="translate(257,200)"/>
<path d="M0 0 C0.66 0.33 1.32 0.66 2 1 C-0.97 3.97 -3.94 6.94 -7 10 C-7.66 9.67 -8.32 9.34 -9 9 C-6.31941902 5.42589203 -3.57410797 2.68058098 0 0 Z " fill="#302114" transform="translate(230,187)"/>
<path d="M0 0 C0.66 0.33 1.32 0.66 2 1 C-0.4428997 5.76365442 -0.4428997 5.76365442 -3.0625 6.875 C-5 7 -5 7 -7 6 C-4.69 4.02 -2.38 2.04 0 0 Z " fill="#DCCCB1" transform="translate(74,391)"/>
<path d="M0 0 C0.33 0.66 0.66 1.32 1 2 C0.0625 4.625 0.0625 4.625 -1 7 C-1.99 6.67 -2.98 6.34 -4 6 C-2.84826645 3.53199953 -1.95216435 1.95216435 0 0 Z M-3 7 C-2.34 8.32 -1.68 9.64 -1 11 C-1.99 11.495 -1.99 11.495 -3 12 C-3 10.35 -3 8.7 -3 7 Z " fill="#ECD0A2" transform="translate(181,196)"/>
<path d="M0 0 C0.33 1.32 0.66 2.64 1 4 C-0.9375 6.25 -0.9375 6.25 -3 8 C-3.99 7.34 -4.98 6.68 -6 6 C-4.02 4.02 -2.04 2.04 0 0 Z " fill="#7A7079" transform="translate(182,150)"/>
<path d="M0 0 C1.31722179 0.42307123 2.62872664 0.86397486 3.9375 1.3125 C4.66839844 1.55613281 5.39929688 1.79976562 6.15234375 2.05078125 C8 3 8 3 9 6 C7.35 5.67 5.7 5.34 4 5 C4 4.34 4 3.68 4 3 C2.35 2.67 0.7 2.34 -1 2 C-0.67 1.34 -0.34 0.68 0 0 Z " fill="#DEC292" transform="translate(256,179)"/>
<path d="M0 0 C3.36720387 1.39332574 4.9859524 2.9789286 7 6 C5.35 6 3.7 6 2 6 C1.67 5.01 1.34 4.02 1 3 C0.34 2.34 -0.32 1.68 -1 1 C-0.67 0.67 -0.34 0.34 0 0 Z " fill="#DEBB83" transform="translate(249,129)"/>
<path d="M0 0 C-0.625 1.875 -0.625 1.875 -2 4 C-5.125 5.25 -5.125 5.25 -8 6 C-3.375 0 -3.375 0 0 0 Z " fill="#DFC49D" transform="translate(155,324)"/>
<path d="M0 0 C0.66 0.33 1.32 0.66 2 1 C1.375 2.875 1.375 2.875 0 5 C-3.125 6.25 -3.125 6.25 -6 7 C-4.02 4.69 -2.04 2.38 0 0 Z " fill="#E1C798" transform="translate(188,189)"/>
<path d="M0 0 C0.66 0.33 1.32 0.66 2 1 C-0.31 3.31 -2.62 5.62 -5 8 C-5.99 7.67 -6.98 7.34 -8 7 C-5.36 4.69 -2.72 2.38 0 0 Z " fill="#2D2114" transform="translate(224,310)"/>
<path d="M0 0 C0.99 0 1.98 0 3 0 C1.60667426 3.36720387 0.0210714 4.9859524 -3 7 C-2.25 2.25 -2.25 2.25 0 0 Z " fill="#867A87" transform="translate(212,141)"/>
<path d="M0 0 C0.66 0 1.32 0 2 0 C1.75 1.875 1.75 1.875 1 4 C-1.0625 5.25 -1.0625 5.25 -3 6 C-2.42655063 3.13275314 -2.1385485 2.1385485 0 0 Z " fill="#ECDAC0" transform="translate(101,368)"/>
<path d="M0 0 C2.625 0.375 2.625 0.375 5 1 C4.67 1.66 4.34 2.32 4 3 C3.01 3.33 2.02 3.66 1 4 C0.01 3.34 -0.98 2.68 -2 2 C-1.34 1.34 -0.68 0.68 0 0 Z " fill="#C07C57" transform="translate(232,322)"/>
<path d="M0 0 C0.33 0 0.66 0 1 0 C1.3125 2.1875 1.3125 2.1875 1 5 C-1.5 7.8125 -1.5 7.8125 -4 10 C-4.66 9.67 -5.32 9.34 -6 9 C-4.73046875 7.53515625 -3.4609375 6.0703125 -2.19140625 4.60546875 C-0.79128769 2.89287029 -0.79128769 2.89287029 0 0 Z " fill="#162535" transform="translate(269,224)"/>
<path d="M0 0 C0.66 0 1.32 0 2 0 C2 1.65 2 3.3 2 5 C0.02 5 -1.96 5 -4 5 C-2.71937515 3.2925002 -1.38232443 1.62626404 0 0 Z " fill="#C8B591" transform="translate(160,317)"/>
<path d="M0 0 C1.65 0 3.3 0 5 0 C4.67 1.65 4.34 3.3 4 5 C2 3.625 2 3.625 0 2 C0 1.34 0 0.68 0 0 Z " fill="#E4C48D" transform="translate(277,310)"/>
</svg>
