<?xml version="1.0" encoding="UTF-8"?>
<!DOCTYPE svg PUBLIC "-//W3C//DTD SVG 1.1//EN" "http://www.w3.org/Graphics/SVG/1.1/DTD/svg11.dtd">
<svg xmlns="http://www.w3.org/2000/svg" version="1.1" width="500px" height="500px" style="shape-rendering:geometricPrecision; text-rendering:geometricPrecision; image-rendering:optimizeQuality; fill-rule:evenodd; clip-rule:evenodd" xmlns:xlink="http://www.w3.org/1999/xlink">
<g><path style="opacity:1" fill="#764c25" d="M 306.5,49.5 C 308.218,52.731 307.218,54.731 303.5,55.5C 304.736,56.3567 306.069,57.0234 307.5,57.5C 308.548,56.6171 309.715,55.9504 311,55.5C 318.22,55.9546 324.387,58.6212 329.5,63.5C 335.139,65.5451 340.639,67.8785 346,70.5C 346.383,69.944 346.883,69.6107 347.5,69.5C 373.845,80.5065 399.512,92.8399 424.5,106.5C 424.223,109.459 422.89,110.126 420.5,108.5C 306.285,109.164 192.118,109.83 78,110.5C 76.1746,109.897 74.3413,109.23 72.5,108.5C 72.8627,107.817 73.1961,107.15 73.5,106.5C 131.903,77.9656 190.569,49.9656 249.5,22.5C 268.707,31.2723 287.707,40.2723 306.5,49.5 Z"/></g>
<g><path style="opacity:0.993" fill="#dedad4" d="M 158.5,22.5 C 159.822,22.33 160.989,22.6634 162,23.5C 163.972,27.9432 165.805,32.4432 167.5,37C 137.847,51.4551 108.181,66.1218 78.5,81C 76.3136,82.309 74.1469,82.4757 72,81.5C 69.8333,77.1667 67.6667,72.8333 65.5,68.5C 65.7093,67.914 66.0426,67.414 66.5,67C 97.1667,51.8312 127.833,36.9978 158.5,22.5 Z"/></g>
<g><path style="opacity:0.966" fill="#7e5d3e" d="M 306.5,49.5 C 320.359,55.9302 334.025,62.5968 347.5,69.5C 346.883,69.6107 346.383,69.944 346,70.5C 340.639,67.8785 335.139,65.5451 329.5,63.5C 324.387,58.6212 318.22,55.9546 311,55.5C 309.715,55.9504 308.548,56.6171 307.5,57.5C 306.069,57.0234 304.736,56.3567 303.5,55.5C 307.218,54.731 308.218,52.731 306.5,49.5 Z"/></g>
<g><path style="opacity:1" fill="#8c6238" d="M 73.5,106.5 C 73.1961,107.15 72.8627,107.817 72.5,108.5C 74.3413,109.23 76.1746,109.897 78,110.5C 192.118,109.83 306.285,109.164 420.5,108.5C 422.89,110.126 424.223,109.459 424.5,106.5C 426.308,106.491 427.975,106.991 429.5,108C 445.163,108.5 460.83,108.667 476.5,108.5C 476.5,119.167 476.5,129.833 476.5,140.5C 468.833,140.5 461.167,140.5 453.5,140.5C 427.167,140.5 400.833,140.5 374.5,140.5C 291.167,140.5 207.833,140.5 124.5,140.5C 98.1222,140.185 71.7889,140.518 45.5,141.5C 38.0182,140.508 30.3516,140.175 22.5,140.5C 22.5,129.833 22.5,119.167 22.5,108.5C 38.1702,108.667 53.8369,108.5 69.5,108C 70.745,107.209 72.0783,106.709 73.5,106.5 Z"/></g>
<g><path style="opacity:1" fill="#c59b6b" d="M 124.5,140.5 C 207.833,140.5 291.167,140.5 374.5,140.5C 374.5,150.833 374.5,161.167 374.5,171.5C 382.167,171.5 389.833,171.5 397.5,171.5C 396.251,194.136 395.584,216.802 395.5,239.5C 394.014,283.027 392.348,326.693 390.5,370.5C 389.517,374.298 389.183,378.298 389.5,382.5C 384.5,382.5 379.5,382.5 374.5,382.5C 374.5,392.833 374.5,403.167 374.5,413.5C 351.167,413.5 327.833,413.5 304.5,413.5C 304.831,387.328 304.498,361.328 303.5,335.5C 301.933,322.532 296.266,311.699 286.5,303C 275.962,293.774 263.628,288.94 249.5,288.5C 219.515,290.476 201.348,306.143 195,335.5C 194.5,361.498 194.333,387.498 194.5,413.5C 171.167,413.5 147.833,413.5 124.5,413.5C 124.5,403.167 124.5,392.833 124.5,382.5C 118.865,383.037 113.532,382.37 108.5,380.5C 105.522,313.523 103.188,246.523 101.5,179.5C 101.5,176.833 101.5,174.167 101.5,171.5C 109.167,171.5 116.833,171.5 124.5,171.5C 124.5,161.167 124.5,150.833 124.5,140.5 Z"/></g>
<g><path style="opacity:1" fill="#a67d53" d="M 374.5,140.5 C 400.833,140.5 427.167,140.5 453.5,140.5C 453.5,150.833 453.5,161.167 453.5,171.5C 445.5,171.5 437.5,171.5 429.5,171.5C 419.167,171.5 408.833,171.5 398.5,171.5C 397.913,194.341 396.913,217.007 395.5,239.5C 395.584,216.802 396.251,194.136 397.5,171.5C 389.833,171.5 382.167,171.5 374.5,171.5C 374.5,161.167 374.5,150.833 374.5,140.5 Z"/></g>
<g><path style="opacity:1" fill="#a57b51" d="M 124.5,140.5 C 124.5,150.833 124.5,161.167 124.5,171.5C 116.833,171.5 109.167,171.5 101.5,171.5C 101.5,174.167 101.5,176.833 101.5,179.5C 100.527,177.052 100.194,174.385 100.5,171.5C 90.1667,171.5 79.8333,171.5 69.5,171.5C 61.5,171.5 53.5,171.5 45.5,171.5C 45.5,161.5 45.5,151.5 45.5,141.5C 71.7889,140.518 98.1222,140.185 124.5,140.5 Z"/></g>
<g><path style="opacity:1" fill="#8c6339" d="M 69.5,171.5 C 79.8333,171.5 90.1667,171.5 100.5,171.5C 100.194,174.385 100.527,177.052 101.5,179.5C 103.188,246.523 105.522,313.523 108.5,380.5C 101.03,381.831 93.1963,382.498 85,382.5C 76.9927,382.5 69.1594,382.166 61.5,381.5C 62.7231,336.811 64.3897,292.144 66.5,247.5C 68.4844,232.202 69.1511,216.536 68.5,200.5C 68.2181,190.781 68.5514,181.114 69.5,171.5 Z"/></g>
<g><path style="opacity:1" fill="#8c633a" d="M 429.5,171.5 C 432.678,241.45 435.344,311.45 437.5,381.5C 422.009,382.496 406.342,382.83 390.5,382.5C 390.5,378.5 390.5,374.5 390.5,370.5C 392.348,326.693 394.014,283.027 395.5,239.5C 396.913,217.007 397.913,194.341 398.5,171.5C 408.833,171.5 419.167,171.5 429.5,171.5 Z"/></g>
<g><path style="opacity:1" fill="#613914" d="M 244.5,171.5 C 264.182,171.345 273.348,181.012 272,200.5C 267.582,214.433 258.082,220.267 243.5,218C 227.218,210.928 222.385,199.094 229,182.5C 233.033,176.927 238.199,173.26 244.5,171.5 Z"/></g>
<g><path style="opacity:1" fill="#8c6237" d="M 140.5,187.5 C 145.5,187.5 150.5,187.5 155.5,187.5C 155.5,192.5 155.5,197.5 155.5,202.5C 150.5,202.5 145.5,202.5 140.5,202.5C 140.5,197.5 140.5,192.5 140.5,187.5 Z"/></g>
<g><path style="opacity:1" fill="#90653b" d="M 171.5,186.5 C 176.511,186.334 181.511,186.501 186.5,187C 187.471,192.072 187.805,197.238 187.5,202.5C 182.167,202.5 176.833,202.5 171.5,202.5C 171.5,197.167 171.5,191.833 171.5,186.5 Z"/></g>
<g><path style="opacity:1" fill="#8c6237" d="M 312.5,187.5 C 317.5,187.5 322.5,187.5 327.5,187.5C 327.5,192.5 327.5,197.5 327.5,202.5C 322.5,202.5 317.5,202.5 312.5,202.5C 312.5,197.5 312.5,192.5 312.5,187.5 Z"/></g>
<g><path style="opacity:1" fill="#8c6237" d="M 343.5,187.5 C 348.5,187.5 353.5,187.5 358.5,187.5C 358.5,192.5 358.5,197.5 358.5,202.5C 353.5,202.5 348.5,202.5 343.5,202.5C 343.5,197.5 343.5,192.5 343.5,187.5 Z"/></g>
<g><path style="opacity:0.993" fill="#ded9d3" d="M 463.5,193.5 C 465.5,193.5 467.5,193.5 469.5,193.5C 471.191,233.164 472.858,272.831 474.5,312.5C 468.804,312.447 463.138,312.78 457.5,313.5C 456.047,273.808 454.38,234.141 452.5,194.5C 456.371,194.815 460.038,194.482 463.5,193.5 Z"/></g>
<g><path style="opacity:1" fill="#8c6237" d="M 140.5,218.5 C 145.5,218.5 150.5,218.5 155.5,218.5C 155.5,223.5 155.5,228.5 155.5,233.5C 150.5,233.5 145.5,233.5 140.5,233.5C 140.5,228.5 140.5,223.5 140.5,218.5 Z"/></g>
<g><path style="opacity:1" fill="#8c6237" d="M 171.5,218.5 C 176.5,218.5 181.5,218.5 186.5,218.5C 186.5,223.5 186.5,228.5 186.5,233.5C 181.5,233.5 176.5,233.5 171.5,233.5C 171.5,228.5 171.5,223.5 171.5,218.5 Z"/></g>
<g><path style="opacity:1" fill="#8c6237" d="M 312.5,218.5 C 317.5,218.5 322.5,218.5 327.5,218.5C 327.5,223.5 327.5,228.5 327.5,233.5C 322.5,233.5 317.5,233.5 312.5,233.5C 312.5,228.5 312.5,223.5 312.5,218.5 Z"/></g>
<g><path style="opacity:1" fill="#8c6237" d="M 343.5,218.5 C 348.5,218.5 353.5,218.5 358.5,218.5C 358.5,223.5 358.5,228.5 358.5,233.5C 353.5,233.5 348.5,233.5 343.5,233.5C 343.5,228.5 343.5,223.5 343.5,218.5 Z"/></g>
<g><path style="opacity:0.904" fill="#9c7d60" d="M 68.5,200.5 C 69.1511,216.536 68.4844,232.202 66.5,247.5C 66.6344,231.654 67.3011,215.987 68.5,200.5 Z"/></g>
<g><path style="opacity:1" fill="#613913" d="M 218.5,241.5 C 239.167,241.5 259.833,241.5 280.5,241.5C 280.5,246.833 280.5,252.167 280.5,257.5C 259.833,257.5 239.167,257.5 218.5,257.5C 218.5,252.167 218.5,246.833 218.5,241.5 Z"/></g>
<g><path style="opacity:1" fill="#8c6237" d="M 171.5,257.5 C 176.5,257.5 181.5,257.5 186.5,257.5C 186.5,262.5 186.5,267.5 186.5,272.5C 181.5,272.5 176.5,272.5 171.5,272.5C 171.5,267.5 171.5,262.5 171.5,257.5 Z"/></g>
<g><path style="opacity:1" fill="#8c6237" d="M 312.5,257.5 C 317.5,257.5 322.5,257.5 327.5,257.5C 327.5,262.5 327.5,267.5 327.5,272.5C 322.5,272.5 317.5,272.5 312.5,272.5C 312.5,267.5 312.5,262.5 312.5,257.5 Z"/></g>
<g><path style="opacity:1" fill="#8c6237" d="M 140.5,257.5 C 145.5,257.5 150.5,257.5 155.5,257.5C 155.5,262.5 155.5,267.5 155.5,272.5C 150.5,272.5 145.5,272.5 140.5,272.5C 140.5,267.5 140.5,262.5 140.5,257.5 Z"/></g>
<g><path style="opacity:1" fill="#8c6237" d="M 343.5,257.5 C 348.5,257.5 353.5,257.5 358.5,257.5C 358.5,262.5 358.5,267.5 358.5,272.5C 353.5,272.5 348.5,272.5 343.5,272.5C 343.5,267.5 343.5,262.5 343.5,257.5 Z"/></g>
<g><path style="opacity:1" fill="#8c6237" d="M 140.5,288.5 C 145.5,288.5 150.5,288.5 155.5,288.5C 155.5,293.5 155.5,298.5 155.5,303.5C 150.5,303.5 145.5,303.5 140.5,303.5C 140.5,298.5 140.5,293.5 140.5,288.5 Z"/></g>
<g><path style="opacity:1" fill="#8c6237" d="M 343.5,288.5 C 348.5,288.5 353.5,288.5 358.5,288.5C 358.5,293.5 358.5,298.5 358.5,303.5C 353.5,303.5 348.5,303.5 343.5,303.5C 343.5,298.5 343.5,293.5 343.5,288.5 Z"/></g>
<g><path style="opacity:1" fill="#a67c52" d="M 249.5,288.5 C 249.5,309.5 249.5,330.5 249.5,351.5C 241.833,351.5 234.167,351.5 226.5,351.5C 226.5,356.5 226.5,361.5 226.5,366.5C 234.352,366.175 242.018,366.508 249.5,367.5C 249.5,382.833 249.5,398.167 249.5,413.5C 231.167,413.5 212.833,413.5 194.5,413.5C 194.333,387.498 194.5,361.498 195,335.5C 201.348,306.143 219.515,290.476 249.5,288.5 Z"/></g>
<g><path style="opacity:1" fill="#764c24" d="M 249.5,288.5 C 263.628,288.94 275.962,293.774 286.5,303C 296.266,311.699 301.933,322.532 303.5,335.5C 303.5,361.5 303.5,387.5 303.5,413.5C 285.5,413.5 267.5,413.5 249.5,413.5C 249.5,398.167 249.5,382.833 249.5,367.5C 257.08,366.534 264.747,366.201 272.5,366.5C 272.5,361.5 272.5,356.5 272.5,351.5C 264.833,351.5 257.167,351.5 249.5,351.5C 249.5,330.5 249.5,309.5 249.5,288.5 Z"/></g>
<g><path style="opacity:0.988" fill="#ddd9d4" d="M 467.5,326.5 C 469.833,326.5 472.167,326.5 474.5,326.5C 475.134,332.145 475.468,337.811 475.5,343.5C 469.807,343.701 464.14,343.868 458.5,344C 457.527,338.593 457.193,333.093 457.5,327.5C 461.042,327.813 464.375,327.479 467.5,326.5 Z"/></g>
<g><path style="opacity:1" fill="#8c6238" d="M 249.5,351.5 C 257.167,351.5 264.833,351.5 272.5,351.5C 272.5,356.5 272.5,361.5 272.5,366.5C 264.747,366.201 257.08,366.534 249.5,367.5C 242.018,366.508 234.352,366.175 226.5,366.5C 226.5,361.5 226.5,356.5 226.5,351.5C 234.167,351.5 241.833,351.5 249.5,351.5 Z"/></g>
<g><path style="opacity:1" fill="#a57b51" d="M 108.5,380.5 C 113.532,382.37 118.865,383.037 124.5,382.5C 124.5,392.833 124.5,403.167 124.5,413.5C 116.833,413.5 109.167,413.5 101.5,413.5C 101.167,413.5 100.833,413.5 100.5,413.5C 82.0902,413.82 63.7569,413.486 45.5,412.5C 45.5,402.167 45.5,391.833 45.5,381.5C 50.8333,381.5 56.1667,381.5 61.5,381.5C 69.1594,382.166 76.9927,382.5 85,382.5C 93.1963,382.498 101.03,381.831 108.5,380.5 Z"/></g>
<g><path style="opacity:1" fill="#a67d53" d="M 390.5,370.5 C 390.5,374.5 390.5,378.5 390.5,382.5C 406.342,382.83 422.009,382.496 437.5,381.5C 442.833,381.5 448.167,381.5 453.5,381.5C 453.5,392.167 453.5,402.833 453.5,413.5C 435.167,413.5 416.833,413.5 398.5,413.5C 398.167,413.5 397.833,413.5 397.5,413.5C 389.833,413.5 382.167,413.5 374.5,413.5C 374.5,403.167 374.5,392.833 374.5,382.5C 379.5,382.5 384.5,382.5 389.5,382.5C 389.183,378.298 389.517,374.298 390.5,370.5 Z"/></g>
<g><path style="opacity:1" fill="#8c6238" d="M 303.5,335.5 C 304.498,361.328 304.831,387.328 304.5,413.5C 327.833,413.5 351.167,413.5 374.5,413.5C 382.167,413.5 389.833,413.5 397.5,413.5C 397.5,423.833 397.5,434.167 397.5,444.5C 298.833,444.5 200.167,444.5 101.5,444.5C 101.5,434.167 101.5,423.833 101.5,413.5C 109.167,413.5 116.833,413.5 124.5,413.5C 147.833,413.5 171.167,413.5 194.5,413.5C 212.833,413.5 231.167,413.5 249.5,413.5C 267.5,413.5 285.5,413.5 303.5,413.5C 303.5,387.5 303.5,361.5 303.5,335.5 Z"/></g>
<g><path style="opacity:1" fill="#5f3713" d="M 45.5,412.5 C 63.7569,413.486 82.0902,413.82 100.5,413.5C 100.5,434.5 100.5,455.5 100.5,476.5C 74.5,476.5 48.5,476.5 22.5,476.5C 22.5,455.5 22.5,434.5 22.5,413.5C 30.3516,413.825 38.0182,413.492 45.5,412.5 Z"/></g>
<g><path style="opacity:1" fill="#603814" d="M 398.5,413.5 C 416.833,413.5 435.167,413.5 453.5,413.5C 461.167,413.5 468.833,413.5 476.5,413.5C 476.5,434.5 476.5,455.5 476.5,476.5C 450.5,476.5 424.5,476.5 398.5,476.5C 398.5,455.5 398.5,434.5 398.5,413.5 Z"/></g>
<g><path style="opacity:1" fill="#754b24" d="M 100.5,413.5 C 100.833,413.5 101.167,413.5 101.5,413.5C 101.5,423.833 101.5,434.167 101.5,444.5C 200.167,444.5 298.833,444.5 397.5,444.5C 397.5,434.167 397.5,423.833 397.5,413.5C 397.833,413.5 398.167,413.5 398.5,413.5C 398.5,434.5 398.5,455.5 398.5,476.5C 299.167,476.5 199.833,476.5 100.5,476.5C 100.5,455.5 100.5,434.5 100.5,413.5 Z"/></g>
</svg>
