<?xml version="1.0" encoding="UTF-8"?>
<!DOCTYPE svg PUBLIC "-//W3C//DTD SVG 1.1//EN" "http://www.w3.org/Graphics/SVG/1.1/DTD/svg11.dtd">
<svg xmlns="http://www.w3.org/2000/svg" version="1.1" width="500px" height="500px" style="shape-rendering:geometricPrecision; text-rendering:geometricPrecision; image-rendering:optimizeQuality; fill-rule:evenodd; clip-rule:evenodd" xmlns:xlink="http://www.w3.org/1999/xlink">
<g><path style="opacity:0.988" fill="#0f0f0e" d="M 313.5,-0.5 C 320.833,-0.5 328.167,-0.5 335.5,-0.5C 339.737,0.951959 343.737,2.95196 347.5,5.5C 347.5,7.5 348.5,8.5 350.5,8.5C 350.833,8.5 351.167,8.5 351.5,8.5C 352.08,10.7488 353.413,12.4154 355.5,13.5C 355.738,15.4044 356.738,16.7377 358.5,17.5C 358.427,19.0269 359.094,20.0269 360.5,20.5C 364.05,26.214 365.717,32.5473 365.5,39.5C 365.529,46.3891 363.862,52.7225 360.5,58.5C 359.094,58.9731 358.427,59.9731 358.5,61.5C 347.437,77.6316 332.437,83.2983 313.5,78.5C 312.22,77.0687 310.553,76.4021 308.5,76.5C 306.847,76.3404 305.514,75.6737 304.5,74.5C 304.027,73.0937 303.027,72.427 301.5,72.5C 300.833,72.5 300.5,72.1667 300.5,71.5C 299.738,69.7376 298.404,68.7376 296.5,68.5C 295.833,68.5 295.5,68.1667 295.5,67.5C 295.573,65.9731 294.906,64.9731 293.5,64.5C 290.949,62.4223 289.116,59.7556 288,56.5C 281.463,39.832 283.963,24.832 295.5,11.5C 298.089,10.5806 300.089,8.91395 301.5,6.5C 301.973,5.09368 302.973,4.42702 304.5,4.5C 306.819,4.00751 308.819,3.00751 310.5,1.5C 311.5,0.833333 312.5,0.166667 313.5,-0.5 Z"/></g>
<g><path style="opacity:0.031" fill="#c1bdc1" d="M 310.5,1.5 C 308.819,3.00751 306.819,4.00751 304.5,4.5C 305.911,2.46095 307.911,1.46095 310.5,1.5 Z"/></g>
<g><path style="opacity:0.349" fill="#8f8f8f" d="M 347.5,5.5 C 348.833,6.16667 349.833,7.16667 350.5,8.5C 348.5,8.5 347.5,7.5 347.5,5.5 Z"/></g>
<g><path style="opacity:0.455" fill="#585858" d="M 301.5,6.5 C 300.089,8.91395 298.089,10.5806 295.5,11.5C 296.911,9.08605 298.911,7.41938 301.5,6.5 Z"/></g>
<g><path style="opacity:0.216" fill="#999999" d="M 351.5,8.5 C 353.587,9.58457 354.92,11.2512 355.5,13.5C 353.413,12.4154 352.08,10.7488 351.5,8.5 Z"/></g>
<g><path style="opacity:0.998" fill="#050504" d="M 107.5,21.5 C 107.973,22.9063 108.973,23.573 110.5,23.5C 129.417,34.7837 140.417,51.4503 143.5,73.5C 143.5,105.833 143.5,138.167 143.5,170.5C 145.553,170.598 147.22,169.931 148.5,168.5C 159.742,164.57 171.075,164.57 182.5,168.5C 183.947,169.885 184.947,169.552 185.5,167.5C 189.379,156.956 196.379,149.289 206.5,144.5C 208.553,144.598 210.22,143.931 211.5,142.5C 214.781,142.58 217.781,141.913 220.5,140.5C 226.552,140.731 232.552,141.398 238.5,142.5C 239.78,143.931 241.447,144.598 243.5,144.5C 243.973,145.906 244.973,146.573 246.5,146.5C 254.618,150.619 260.285,156.952 263.5,165.5C 263.233,167.971 264.233,169.638 266.5,170.5C 271.122,169.615 275.789,169.282 280.5,169.5C 283.947,169.814 287.28,170.648 290.5,172C 295.232,174.357 299.565,177.19 303.5,180.5C 305.027,180.573 306.027,179.906 306.5,178.5C 310.151,177.341 313.485,175.674 316.5,173.5C 318.898,173.741 320.898,173.074 322.5,171.5C 327.077,170.01 331.91,169.344 337,169.5C 340.352,169.502 343.518,169.835 346.5,170.5C 348.905,171.768 351.572,172.435 354.5,172.5C 355.78,173.931 357.447,174.598 359.5,174.5C 361.819,174.992 363.819,175.992 365.5,177.5C 365.973,178.906 366.973,179.573 368.5,179.5C 368.973,180.906 369.973,181.573 371.5,181.5C 379.931,187.703 385.931,195.703 389.5,205.5C 389.5,206.5 389.5,207.5 389.5,208.5C 390.791,208.737 391.791,208.404 392.5,207.5C 404.744,204.402 416.744,205.069 428.5,209.5C 429.5,204.262 429.833,198.262 429.5,191.5C 430.494,181.347 430.828,171.014 430.5,160.5C 428.833,160.5 427.167,160.5 425.5,160.5C 418.966,158.136 414.132,153.802 411,147.5C 409.405,143.239 408.238,138.905 407.5,134.5C 408.494,124.013 408.828,113.346 408.5,102.5C 405.833,102.5 403.167,102.5 400.5,102.5C 398.596,102.262 397.262,101.262 396.5,99.5C 396.337,97.1432 396.503,94.8098 397,92.5C 399.335,89.3347 401.835,86.3347 404.5,83.5C 410.223,76.7751 416.556,70.7751 423.5,65.5C 430.228,62.2853 437.228,61.2853 444.5,62.5C 446.181,64.0075 448.181,65.0075 450.5,65.5C 457.445,71.1077 464.112,77.1077 470.5,83.5C 470.5,85.5 471.5,86.5 473.5,86.5C 474.412,88.5952 475.579,90.5952 477,92.5C 477.497,94.8098 477.663,97.1432 477.5,99.5C 476.738,101.262 475.404,102.262 473.5,102.5C 470.833,102.5 468.167,102.5 465.5,102.5C 465.5,113.833 465.5,125.167 465.5,136.5C 464.739,148.036 459.073,156.036 448.5,160.5C 446.833,160.5 445.167,160.5 443.5,160.5C 443.173,170.348 443.506,180.014 444.5,189.5C 444.281,190.675 444.614,191.675 445.5,192.5C 446.107,192.376 446.44,192.043 446.5,191.5C 452.829,183.509 460.829,177.843 470.5,174.5C 472.553,174.598 474.22,173.931 475.5,172.5C 478.152,172.59 480.485,171.924 482.5,170.5C 486.269,169.398 489.935,169.065 493.5,169.5C 494.514,170.674 495.847,171.34 497.5,171.5C 498.167,171.833 498.833,172.167 499.5,172.5C 499.5,175.5 499.5,178.5 499.5,181.5C 498.078,182.925 496.411,183.925 494.5,184.5C 491.287,184.19 488.287,184.523 485.5,185.5C 472.354,187.99 461.854,194.657 454,205.5C 451.381,208.406 449.547,211.739 448.5,215.5C 446.717,219.613 445.384,223.946 444.5,228.5C 443.502,258.662 443.169,288.995 443.5,319.5C 448.167,319.5 452.833,319.5 457.5,319.5C 459.867,320.079 461.7,321.412 463,323.5C 463.5,331.493 463.666,339.493 463.5,347.5C 468.681,348.315 474.014,348.982 479.5,349.5C 479.833,350.5 480.5,351.167 481.5,351.5C 482.442,360.113 482.775,368.779 482.5,377.5C 485.833,377.5 489.167,377.5 492.5,377.5C 493.5,377.5 494.5,377.5 495.5,377.5C 497.062,377.733 498.395,378.4 499.5,379.5C 499.5,382.5 499.5,385.5 499.5,388.5C 498.5,389.167 497.5,389.833 496.5,390.5C 332.54,391.664 168.54,391.83 4.5,391C 3.25501,390.209 1.92167,389.709 0.5,389.5C 0.5,388.833 0.166667,388.5 -0.5,388.5C -0.5,385.833 -0.5,383.167 -0.5,380.5C 0.236209,378.771 1.56954,377.771 3.5,377.5C 23.8333,377.5 44.1667,377.5 64.5,377.5C 65.6645,338.669 65.8312,299.669 65,260.5C 62.6194,259.565 60.1194,259.232 57.5,259.5C 51.9137,259.051 46.5804,257.718 41.5,255.5C 31.3147,249.651 22.3147,242.317 14.5,233.5C 11.9957,228.485 8.99565,223.819 5.5,219.5C 2.9025,214.372 0.902503,209.039 -0.5,203.5C -0.5,159.167 -0.5,114.833 -0.5,70.5C 0.373617,66.6762 1.70695,63.0095 3.5,59.5C 4.93127,58.2196 5.59794,56.5529 5.5,54.5C 6.67373,53.4863 7.3404,52.153 7.5,50.5C 9.664,48.178 11.3307,45.5113 12.5,42.5C 14.5797,38.9135 17.2463,35.7468 20.5,33C 24.1487,32.037 27.482,32.537 30.5,34.5C 31.2631,37.1411 31.4298,39.8078 31,42.5C 28.9205,45.0652 27.0872,47.7318 25.5,50.5C 19.7829,56.2708 16.4496,63.2708 15.5,71.5C 14.6981,72.9516 14.1981,74.6183 14,76.5C 13.3333,116.833 13.3333,157.167 14,197.5C 14.1981,199.382 14.6981,201.048 15.5,202.5C 17.9369,208.73 20.4369,215.064 23,221.5C 24.7038,223.373 26.5372,225.04 28.5,226.5C 29.8552,229.855 32.1886,232.189 35.5,233.5C 37.9131,235.887 40.5798,238.054 43.5,240C 47.9,241.545 52.2333,243.045 56.5,244.5C 57.5676,245.434 58.901,245.768 60.5,245.5C 61.9187,246.451 63.5853,246.784 65.5,246.5C 65.6666,231.163 65.4999,215.83 65,200.5C 64.2917,199.619 63.4584,198.953 62.5,198.5C 53.481,188.981 44.3143,179.648 35,170.5C 34.579,161.958 38.4124,159.125 46.5,162C 49.7322,165.062 52.7322,168.229 55.5,171.5C 58.1456,174.812 61.1456,177.812 64.5,180.5C 65.3332,146.838 65.8332,113.172 66,79.5C 67.0487,74.9491 69.882,72.9491 74.5,73.5C 75.8853,74.6138 77.3853,75.6138 79,76.5C 79.167,94.1761 79.667,111.843 80.5,129.5C 81.5223,129.145 82.189,128.478 82.5,127.5C 85.8333,123.5 89.5,119.833 93.5,116.5C 94.9305,116.579 96.2638,116.246 97.5,115.5C 98.6232,111.379 101.29,109.712 105.5,110.5C 106.671,111.345 108.005,112.011 109.5,112.5C 109.664,115.187 109.497,117.854 109,120.5C 107.283,122.377 105.783,124.377 104.5,126.5C 97.9416,132.392 91.6082,138.725 85.5,145.5C 83.2712,146.055 81.6046,147.389 80.5,149.5C 79.5001,181.493 79.1668,213.493 79.5,245.5C 86.5488,245.46 92.8821,243.46 98.5,239.5C 106.251,235.799 112.584,230.466 117.5,223.5C 124.027,215.765 127.86,206.765 129,196.5C 129.667,155.833 129.667,115.167 129,74.5C 128.79,72.9419 128.29,71.6085 127.5,70.5C 125.129,59.6909 119.796,50.6909 111.5,43.5C 109.122,41.1223 106.455,39.1223 103.5,37.5C 97.8577,32.5151 91.1911,29.3485 83.5,28C 74.4712,27.2214 65.4712,27.3881 56.5,28.5C 54.6998,28.0976 53.0332,27.4309 51.5,26.5C 51.3404,24.847 50.6737,23.5137 49.5,22.5C 49.7759,19.2814 51.1093,16.6148 53.5,14.5C 72.4734,8.99413 90.4734,11.3275 107.5,21.5 Z"/></g>
<g><path style="opacity:0.494" fill="#808080" d="M 355.5,13.5 C 357.262,14.2623 358.262,15.5956 358.5,17.5C 356.738,16.7377 355.738,15.4044 355.5,13.5 Z"/></g>
<g><path style="opacity:0.38" fill="#a2a5a6" d="M 53.5,14.5 C 51.1093,16.6148 49.7759,19.2814 49.5,22.5C 49.5,23.1667 49.1667,23.5 48.5,23.5C 47.8747,19.0727 49.5413,16.0727 53.5,14.5 Z"/></g>
<g><path style="opacity:1" fill="#ddca67" d="M 345.5,25.5 C 334.798,16.1984 322.798,14.1984 309.5,19.5C 310.894,17.2918 312.894,15.7918 315.5,15C 324.005,13.5093 332.005,14.8426 339.5,19C 342.409,20.4055 344.409,22.5722 345.5,25.5 Z"/></g>
<g><path style="opacity:1" fill="#fde464" d="M 345.5,25.5 C 345.264,28.2257 346.097,30.559 348,32.5C 348.667,37.5 348.667,42.5 348,47.5C 345.762,49.3091 344.595,51.6424 344.5,54.5C 343.833,55.8333 342.833,56.8333 341.5,57.5C 339.833,57.5 338.167,57.5 336.5,57.5C 336.5,58.5 336.5,59.5 336.5,60.5C 332.372,61.874 328.039,62.5407 323.5,62.5C 319.81,62.308 316.143,61.9747 312.5,61.5C 310.251,60.9202 308.585,59.5869 307.5,57.5C 300.986,48.4114 299.319,38.4114 302.5,27.5C 306.21,26.0314 308.543,23.3647 309.5,19.5C 322.798,14.1984 334.798,16.1984 345.5,25.5 Z"/></g>
<g><path style="opacity:0.176" fill="#a3a3a3" d="M 358.5,17.5 C 359.906,17.9731 360.573,18.9731 360.5,20.5C 359.094,20.0269 358.427,19.0269 358.5,17.5 Z"/></g>
<g><path style="opacity:0.169" fill="#7e7e7e" d="M 107.5,21.5 C 109.027,21.427 110.027,22.0937 110.5,23.5C 108.973,23.573 107.973,22.9063 107.5,21.5 Z"/></g>
<g><path style="opacity:1" fill="#bba957" d="M 309.5,19.5 C 308.543,23.3647 306.21,26.0314 302.5,27.5C 303.45,23.5865 305.783,20.9198 309.5,19.5 Z"/></g>
<g><path style="opacity:1" fill="#44be64" d="M 49.5,22.5 C 50.6737,23.5137 51.3404,24.847 51.5,26.5C 51.5774,27.7498 52.244,28.5831 53.5,29C 55.1667,29.1667 56.8333,29.3333 58.5,29.5C 66.4854,28.5095 74.4854,28.3428 82.5,29C 85.8009,30.3182 88.8009,32.1516 91.5,34.5C 92.1667,33.8333 92.8333,33.1667 93.5,32.5C 96.844,34.1853 100.177,35.852 103.5,37.5C 106.455,39.1223 109.122,41.1223 111.5,43.5C 113.31,46.1973 114.31,49.1973 114.5,52.5C 116.144,52.2865 117.644,52.6198 119,53.5C 121.14,59.6079 123.973,65.2746 127.5,70.5C 128.613,111.156 128.78,151.822 128,192.5C 128.123,197.059 126.789,201.059 124,204.5C 123.461,207.529 122.794,210.529 122,213.5C 120.174,216.782 118.674,220.116 117.5,223.5C 112.584,230.466 106.251,235.799 98.5,239.5C 92.7093,241.717 86.7093,243.384 80.5,244.5C 80.3334,213.832 80.5,183.165 81,152.5C 82.7772,150.317 84.2772,147.984 85.5,145.5C 91.6082,138.725 97.9416,132.392 104.5,126.5C 106.679,126.16 108.512,125.16 110,123.5C 111.686,120.019 112.519,116.352 112.5,112.5C 111.5,112.5 110.5,112.5 109.5,112.5C 108.005,112.011 106.671,111.345 105.5,110.5C 103.712,109.378 101.712,109.211 99.5,110C 97.2941,112.037 95.2941,114.203 93.5,116.5C 89.5,119.833 85.8333,123.5 82.5,127.5C 80.6775,110.529 79.8442,93.1956 80,75.5C 77.1509,71.7853 73.6509,70.7853 69.5,72.5C 67.8712,73.6253 66.3712,74.9586 65,76.5C 64.6667,110.5 64.3333,144.5 64,178.5C 61.5644,175.553 58.7311,173.22 55.5,171.5C 52.7322,168.229 49.7322,165.062 46.5,162C 38.4124,159.125 34.579,161.958 35,170.5C 44.3143,179.648 53.481,188.981 62.5,198.5C 62.4614,199.756 62.9614,200.756 64,201.5C 64.4999,216.163 64.6666,230.83 64.5,245.5C 63.1667,245.5 61.8333,245.5 60.5,245.5C 58.901,245.768 57.5676,245.434 56.5,244.5C 53.0459,241.993 49.3793,239.66 45.5,237.5C 46.0253,236.808 46.6919,236.308 47.5,236C 45.8616,234.199 44.0283,234.032 42,235.5C 40.1208,233.987 37.9541,233.321 35.5,233.5C 32.1886,232.189 29.8552,229.855 28.5,226.5C 25.2965,221.434 22.4632,216.1 20,210.5C 19.7497,207.246 18.7497,204.246 17,201.5C 16.1667,158.829 16.3334,116.163 17.5,73.5C 19.8345,69.8845 21.1678,65.8845 21.5,61.5C 21.8333,61.1667 22.1667,60.8333 22.5,60.5C 23.2508,61.376 23.7508,62.376 24,63.5C 24.7412,62.3595 25.5745,62.3595 26.5,63.5C 27.354,62.4783 28.354,61.6449 29.5,61C 27.7148,59.8372 25.7148,59.1705 23.5,59C 23.7524,55.6454 25.4191,53.312 28.5,52C 28.1667,51.6667 27.8333,51.3333 27.5,51C 31.0165,43.9294 34.3498,36.7628 37.5,29.5C 40.678,26.7417 44.3447,24.7417 48.5,23.5C 49.1667,23.5 49.5,23.1667 49.5,22.5 Z"/></g>
<g><path style="opacity:1" fill="#429c5a" d="M 51.5,26.5 C 53.0332,27.4309 54.6998,28.0976 56.5,28.5C 65.4712,27.3881 74.4712,27.2214 83.5,28C 91.1911,29.3485 97.8577,32.5151 103.5,37.5C 100.177,35.852 96.844,34.1853 93.5,32.5C 92.8333,33.1667 92.1667,33.8333 91.5,34.5C 88.8009,32.1516 85.8009,30.3182 82.5,29C 74.4854,28.3428 66.4854,28.5095 58.5,29.5C 56.8333,29.3333 55.1667,29.1667 53.5,29C 52.244,28.5831 51.5774,27.7498 51.5,26.5 Z"/></g>
<g><path style="opacity:0.157" fill="#bcbcbc" d="M 12.5,42.5 C 11.3307,45.5113 9.664,48.178 7.5,50.5C 8.16945,47.1511 9.83612,44.4844 12.5,42.5 Z"/></g>
<g><path style="opacity:1" fill="#d3c163" d="M 302.5,27.5 C 299.319,38.4114 300.986,48.4114 307.5,57.5C 303.485,54.148 300.985,49.8147 300,44.5C 299.333,40.5 299.333,36.5 300,32.5C 300.374,30.5087 301.207,28.842 302.5,27.5 Z"/></g>
<g><path style="opacity:1" fill="#48a35f" d="M 111.5,43.5 C 119.796,50.6909 125.129,59.6909 127.5,70.5C 123.973,65.2746 121.14,59.6079 119,53.5C 117.644,52.6198 116.144,52.2865 114.5,52.5C 114.31,49.1973 113.31,46.1973 111.5,43.5 Z"/></g>
<g><path style="opacity:1" fill="#aa9a4f" d="M 345.5,25.5 C 349.122,29.3583 350.788,34.0249 350.5,39.5C 350.826,45.5404 348.826,50.5404 344.5,54.5C 344.595,51.6424 345.762,49.3091 348,47.5C 348.667,42.5 348.667,37.5 348,32.5C 346.097,30.559 345.264,28.2257 345.5,25.5 Z"/></g>
<g><path style="opacity:0.039" fill="#c0c0c0" d="M 7.5,50.5 C 7.3404,52.153 6.67373,53.4863 5.5,54.5C 5.22911,52.6203 5.89578,51.287 7.5,50.5 Z"/></g>
<g><path style="opacity:0.047" fill="#c4c4c4" d="M 5.5,54.5 C 5.59794,56.5529 4.93127,58.2196 3.5,59.5C 3.40206,57.4471 4.06873,55.7804 5.5,54.5 Z"/></g>
<g><path style="opacity:0.012" fill="#9e9e9e" d="M 360.5,58.5 C 360.573,60.0269 359.906,61.0269 358.5,61.5C 358.427,59.9731 359.094,58.9731 360.5,58.5 Z"/></g>
<g><path style="opacity:1" fill="#246937" d="M 25.5,50.5 C 21.7811,57.327 18.4478,64.327 15.5,71.5C 16.4496,63.2708 19.7829,56.2708 25.5,50.5 Z"/></g>
<g><path style="opacity:1" fill="#dfcc69" d="M 341.5,57.5 C 339.599,59.7957 337.266,61.629 334.5,63C 332.618,63.1981 330.952,63.6981 329.5,64.5C 325.131,64.5328 320.798,64.1995 316.5,63.5C 314.847,63.3404 313.514,62.6737 312.5,61.5C 316.143,61.9747 319.81,62.308 323.5,62.5C 328.039,62.5407 332.372,61.874 336.5,60.5C 336.5,59.5 336.5,58.5 336.5,57.5C 338.167,57.5 339.833,57.5 341.5,57.5 Z"/></g>
<g><path style="opacity:0.212" fill="#7e7e7e" d="M 444.5,62.5 C 437.228,61.2853 430.228,62.2853 423.5,65.5C 424.058,64.2101 425.058,63.3768 426.5,63C 432.601,60.1854 438.601,60.0187 444.5,62.5 Z"/></g>
<g><path style="opacity:0.294" fill="#7c7c7c" d="M 444.5,62.5 C 447.089,62.461 449.089,63.461 450.5,65.5C 448.181,65.0075 446.181,64.0075 444.5,62.5 Z"/></g>
<g><path style="opacity:1" fill="#4d4717" d="M 316.5,63.5 C 320.798,64.1995 325.131,64.5328 329.5,64.5C 328.036,65.1599 326.369,65.4932 324.5,65.5C 321.514,65.6183 318.848,64.9517 316.5,63.5 Z"/></g>
<g><path style="opacity:0.016" fill="#c1c1c1" d="M 293.5,64.5 C 294.906,64.9731 295.573,65.9731 295.5,67.5C 294.094,67.0269 293.427,66.0269 293.5,64.5 Z"/></g>
<g><path style="opacity:0.369" fill="#acacac" d="M 296.5,68.5 C 298.404,68.7376 299.738,69.7376 300.5,71.5C 298.596,71.2624 297.262,70.2624 296.5,68.5 Z"/></g>
<g><path style="opacity:0.137" fill="#adadad" d="M 301.5,72.5 C 303.027,72.427 304.027,73.0937 304.5,74.5C 302.973,74.573 301.973,73.9063 301.5,72.5 Z"/></g>
<g><path style="opacity:0.051" fill="#d9d9d9" d="M 308.5,76.5 C 310.553,76.4021 312.22,77.0687 313.5,78.5C 311.447,78.5979 309.78,77.9313 308.5,76.5 Z"/></g>
<g><path style="opacity:1" fill="#4cb467" d="M 37.5,29.5 C 34.3498,36.7628 31.0165,43.9294 27.5,51C 27.8333,51.3333 28.1667,51.6667 28.5,52C 25.4191,53.312 23.7524,55.6454 23.5,59C 25.7148,59.1705 27.7148,59.8372 29.5,61C 28.354,61.6449 27.354,62.4783 26.5,63.5C 25.5745,62.3595 24.7412,62.3595 24,63.5C 23.7508,62.376 23.2508,61.376 22.5,60.5C 22.1667,60.8333 21.8333,61.1667 21.5,61.5C 21.1678,65.8845 19.8345,69.8845 17.5,73.5C 16.3334,116.163 16.1667,158.829 17,201.5C 18.7497,204.246 19.7497,207.246 20,210.5C 22.4632,216.1 25.2965,221.434 28.5,226.5C 26.5372,225.04 24.7038,223.373 23,221.5C 20.4369,215.064 17.9369,208.73 15.5,202.5C 14.178,158.837 14.178,115.17 15.5,71.5C 18.4478,64.327 21.7811,57.327 25.5,50.5C 27.0872,47.7318 28.9205,45.0652 31,42.5C 31.4298,39.8078 31.2631,37.1411 30.5,34.5C 32.2964,32.1 34.6298,30.4333 37.5,29.5 Z"/></g>
<g><path style="opacity:1" fill="#449859" d="M 69.5,72.5 C 73.6509,70.7853 77.1509,71.7853 80,75.5C 79.8442,93.1956 80.6775,110.529 82.5,127.5C 82.189,128.478 81.5223,129.145 80.5,129.5C 79.667,111.843 79.167,94.1761 79,76.5C 77.3853,75.6138 75.8853,74.6138 74.5,73.5C 73.0813,72.5489 71.4147,72.2155 69.5,72.5 Z"/></g>
<g><path style="opacity:1" fill="#9f9f9f" d="M 451.5,86.5 C 441.833,87.8333 432.167,87.8333 422.5,86.5C 425.964,83.5375 429.297,80.3709 432.5,77C 435.964,76.1834 439.298,76.5167 442.5,78C 446.027,80.3622 449.027,83.1955 451.5,86.5 Z"/></g>
<g><path style="opacity:0.251" fill="#a7a7a7" d="M 470.5,83.5 C 471.833,84.1667 472.833,85.1667 473.5,86.5C 471.5,86.5 470.5,85.5 470.5,83.5 Z"/></g>
<g><path style="opacity:0.243" fill="#959595" d="M 404.5,83.5 C 401.835,86.3347 399.335,89.3347 397,92.5C 396.503,94.8098 396.337,97.1432 396.5,99.5C 394.287,91.9249 396.954,86.5915 404.5,83.5 Z"/></g>
<g><path style="opacity:1" fill="#1b5d2a" d="M 69.5,72.5 C 71.4147,72.2155 73.0813,72.5489 74.5,73.5C 69.882,72.9491 67.0487,74.9491 66,79.5C 65.8332,113.172 65.3332,146.838 64.5,180.5C 61.1456,177.812 58.1456,174.812 55.5,171.5C 58.7311,173.22 61.5644,175.553 64,178.5C 64.3333,144.5 64.6667,110.5 65,76.5C 66.3712,74.9586 67.8712,73.6253 69.5,72.5 Z"/></g>
<g><path style="opacity:1" fill="#469f5f" d="M 127.5,70.5 C 128.29,71.6085 128.79,72.9419 129,74.5C 129.667,115.167 129.667,155.833 129,196.5C 127.86,206.765 124.027,215.765 117.5,223.5C 118.674,220.116 120.174,216.782 122,213.5C 122.794,210.529 123.461,207.529 124,204.5C 126.789,201.059 128.123,197.059 128,192.5C 128.78,151.822 128.613,111.156 127.5,70.5 Z"/></g>
<g><path style="opacity:1" fill="#6d6d6d" d="M 422.5,86.5 C 432.167,87.8333 441.833,87.8333 451.5,86.5C 452.043,86.56 452.376,86.8933 452.5,87.5C 442.167,88.8333 431.833,88.8333 421.5,87.5C 421.624,86.8933 421.957,86.56 422.5,86.5 Z"/></g>
<g><path style="opacity:0.353" fill="#919191" d="M 473.5,86.5 C 478.284,89.836 479.617,94.1694 477.5,99.5C 477.663,97.1432 477.497,94.8098 477,92.5C 475.579,90.5952 474.412,88.5952 473.5,86.5 Z"/></g>
<g><path style="opacity:1" fill="#0e4a1d" d="M 15.5,71.5 C 14.178,115.17 14.178,158.837 15.5,202.5C 14.6981,201.048 14.1981,199.382 14,197.5C 13.3333,157.167 13.3333,116.833 14,76.5C 14.1981,74.6183 14.6981,72.9516 15.5,71.5 Z"/></g>
<g><path style="opacity:0.515" fill="#777676" d="M 143.5,73.5 C 144.332,105.331 144.832,137.331 145,169.5C 146.011,168.663 147.178,168.33 148.5,168.5C 147.22,169.931 145.553,170.598 143.5,170.5C 143.5,138.167 143.5,105.833 143.5,73.5 Z"/></g>
<g><path style="opacity:1" fill="#fde364" d="M 449.5,137.5 C 449.095,141.57 447.095,144.57 443.5,146.5C 433.744,150.119 427.411,147.119 424.5,137.5C 424.5,126.5 424.5,115.5 424.5,104.5C 432.752,104.184 440.919,104.518 449,105.5C 449.5,116.161 449.667,126.828 449.5,137.5 Z"/></g>
<g><path style="opacity:0.077" fill="#525252" d="M 400.5,102.5 C 403.167,102.5 405.833,102.5 408.5,102.5C 408.828,113.346 408.494,124.013 407.5,134.5C 407.5,124.167 407.5,113.833 407.5,103.5C 404.941,103.802 402.607,103.468 400.5,102.5 Z"/></g>
<g><path style="opacity:1" fill="#6b6022" d="M 450.5,135.5 C 450.5,124.833 450.5,114.167 450.5,103.5C 441.5,103.5 432.5,103.5 423.5,103.5C 423.5,114.167 423.5,124.833 423.5,135.5C 422.505,124.679 422.172,113.679 422.5,102.5C 432.167,102.5 441.833,102.5 451.5,102.5C 451.828,113.679 451.495,124.679 450.5,135.5 Z"/></g>
<g><path style="opacity:1" fill="#f6e37c" d="M 450.5,135.5 C 450.672,136.492 450.338,137.158 449.5,137.5C 449.667,126.828 449.5,116.161 449,105.5C 440.919,104.518 432.752,104.184 424.5,104.5C 424.5,115.5 424.5,126.5 424.5,137.5C 423.662,137.158 423.328,136.492 423.5,135.5C 423.5,124.833 423.5,114.167 423.5,103.5C 432.5,103.5 441.5,103.5 450.5,103.5C 450.5,114.167 450.5,124.833 450.5,135.5 Z"/></g>
<g><path style="opacity:1" fill="#0f2911" d="M 105.5,110.5 C 101.29,109.712 98.6232,111.379 97.5,115.5C 96.2638,116.246 94.9305,116.579 93.5,116.5C 95.2941,114.203 97.2941,112.037 99.5,110C 101.712,109.211 103.712,109.378 105.5,110.5 Z"/></g>
<g><path style="opacity:0.061" fill="#424044" d="M 473.5,102.5 C 471.393,103.468 469.059,103.802 466.5,103.5C 466.828,114.679 466.495,125.679 465.5,136.5C 465.5,125.167 465.5,113.833 465.5,102.5C 468.167,102.5 470.833,102.5 473.5,102.5 Z"/></g>
<g><path style="opacity:1" fill="#439c56" d="M 109.5,112.5 C 110.5,112.5 111.5,112.5 112.5,112.5C 112.519,116.352 111.686,120.019 110,123.5C 108.512,125.16 106.679,126.16 104.5,126.5C 105.783,124.377 107.283,122.377 109,120.5C 109.497,117.854 109.664,115.187 109.5,112.5 Z"/></g>
<g><path style="opacity:0.327" fill="#999999" d="M 220.5,140.5 C 226.671,139.193 232.671,139.859 238.5,142.5C 232.552,141.398 226.552,140.731 220.5,140.5 Z"/></g>
<g><path style="opacity:0.504" fill="#585858" d="M 220.5,140.5 C 217.781,141.913 214.781,142.58 211.5,142.5C 214.171,140.882 217.171,140.215 220.5,140.5 Z"/></g>
<g><path style="opacity:0.282" fill="#8f8f90" d="M 211.5,142.5 C 210.22,143.931 208.553,144.598 206.5,144.5C 207.78,143.069 209.447,142.402 211.5,142.5 Z"/></g>
<g><path style="opacity:0.255" fill="#878787" d="M 238.5,142.5 C 240.553,142.402 242.22,143.069 243.5,144.5C 241.447,144.598 239.78,143.931 238.5,142.5 Z"/></g>
<g><path style="opacity:0.227" fill="#888888" d="M 243.5,144.5 C 245.027,144.427 246.027,145.094 246.5,146.5C 244.973,146.573 243.973,145.906 243.5,144.5 Z"/></g>
<g><path style="opacity:1" fill="#43985a" d="M 85.5,145.5 C 84.2772,147.984 82.7772,150.317 81,152.5C 80.5,183.165 80.3334,213.832 80.5,244.5C 86.7093,243.384 92.7093,241.717 98.5,239.5C 92.8821,243.46 86.5488,245.46 79.5,245.5C 79.1668,213.493 79.5001,181.493 80.5,149.5C 81.6046,147.389 83.2712,146.055 85.5,145.5 Z"/></g>
<g><path style="opacity:1" fill="#b2e796" d="M 234.5,157.5 C 239.314,158.655 242.981,161.322 245.5,165.5C 246.156,167.484 246.822,169.484 247.5,171.5C 245.885,173.751 246.552,175.084 249.5,175.5C 250.795,179.38 250.795,183.214 249.5,187C 257.733,190.472 265.733,190.305 273.5,186.5C 279.201,187.401 284.535,189.401 289.5,192.5C 289.97,194.774 290.97,196.774 292.5,198.5C 295.887,199.099 298.887,200.432 301.5,202.5C 306.103,200.539 310.436,198.206 314.5,195.5C 314.5,194.167 314.5,192.833 314.5,191.5C 316.179,191.715 317.179,191.048 317.5,189.5C 322.714,188.075 328.048,187.075 333.5,186.5C 339.8,187.543 346.133,188.21 352.5,188.5C 356.057,190.46 359.057,193.127 361.5,196.5C 363.323,197.747 365.323,198.414 367.5,198.5C 371.767,202.695 374.767,207.695 376.5,213.5C 375.739,218.361 376.739,222.695 379.5,226.5C 382.309,227.8 384.976,227.8 387.5,226.5C 387.833,226.5 388.167,226.5 388.5,226.5C 394.304,224.64 399.97,222.64 405.5,220.5C 408.167,220.5 410.833,220.5 413.5,220.5C 415.515,221.924 417.848,222.59 420.5,222.5C 423.009,223.921 425.343,225.588 427.5,227.5C 428.485,257.79 428.818,288.123 428.5,318.5C 423.968,318.182 419.634,318.515 415.5,319.5C 413.549,320.282 412.049,321.616 411,323.5C 410.5,331.827 410.334,340.16 410.5,348.5C 405.156,348.334 399.823,348.501 394.5,349C 393.29,350.039 392.29,351.206 391.5,352.5C 390.508,360.316 390.174,368.316 390.5,376.5C 374.5,376.5 358.5,376.5 342.5,376.5C 342.5,370.167 342.5,363.833 342.5,357.5C 351.553,357.778 360.553,357.444 369.5,356.5C 371.582,356.528 373.416,355.861 375,354.5C 375.667,341.5 375.667,328.5 375,315.5C 374.727,313.671 373.893,312.171 372.5,311C 349.836,310.5 327.169,310.333 304.5,310.5C 304.5,305.833 304.5,301.167 304.5,296.5C 318.837,296.667 333.171,296.5 347.5,296C 348.942,295.623 349.942,294.79 350.5,293.5C 351.222,293.082 351.722,292.416 352,291.5C 352.5,275.17 352.667,258.837 352.5,242.5C 353.126,238.625 351.459,236.791 347.5,237C 282.143,236.642 216.81,236.309 151.5,236C 148.848,237.065 147.015,238.898 146,241.5C 145.18,259.544 145.347,277.544 146.5,295.5C 147.5,296.333 148.5,297.167 149.5,298C 163.833,298.333 178.167,298.667 192.5,299C 193.981,302.821 193.648,306.488 191.5,310C 169.836,310.5 148.169,310.667 126.5,310.5C 126.5,311.5 126.5,312.5 126.5,313.5C 126.013,314.473 125.513,315.473 125,316.5C 124.333,327.833 124.333,339.167 125,350.5C 125.662,351.984 126.496,353.317 127.5,354.5C 128.287,356.104 129.62,356.771 131.5,356.5C 139.65,357.493 147.983,357.826 156.5,357.5C 156.5,363.833 156.5,370.167 156.5,376.5C 131.167,376.5 105.833,376.5 80.5,376.5C 80.5,338.167 80.5,299.833 80.5,261.5C 81.791,261.737 82.791,261.404 83.5,260.5C 93.0006,258.335 102.001,255.002 110.5,250.5C 112.482,250.005 114.482,249.505 116.5,249C 120.6,245.148 124.6,241.148 128.5,237C 129.449,236.383 130.282,236.549 131,237.5C 131.497,235.19 131.663,232.857 131.5,230.5C 134.5,223.833 137.5,217.167 140.5,210.5C 141.375,208.432 142.541,206.432 144,204.5C 144.499,198.843 144.666,193.176 144.5,187.5C 148.057,186.383 151.724,185.383 155.5,184.5C 157.123,185.476 158.457,184.976 159.5,183C 164.501,182.749 169.501,182.916 174.5,183.5C 175.833,183.5 177.167,183.5 178.5,183.5C 181.352,185.091 184.352,186.424 187.5,187.5C 191.311,189.118 194.811,188.451 198,185.5C 198.29,180.368 199.124,175.368 200.5,170.5C 207.049,166.726 213.049,162.226 218.5,157C 223.871,156.324 229.204,156.491 234.5,157.5 Z"/></g>
<g><path style="opacity:1" fill="#a6cc90" d="M 234.5,157.5 C 229.204,156.491 223.871,156.324 218.5,157C 213.049,162.226 207.049,166.726 200.5,170.5C 208.243,156.624 219.576,152.291 234.5,157.5 Z"/></g>
<g><path style="opacity:0.118" fill="#c1c0c0" d="M 446.5,161.5 C 445.183,171.598 445.183,181.598 446.5,191.5C 446.44,192.043 446.107,192.376 445.5,192.5C 444.614,191.675 444.281,190.675 444.5,189.5C 443.861,179.773 444.528,170.44 446.5,161.5 Z"/></g>
<g><path style="opacity:0.678" fill="#2f2d2e" d="M 448.5,160.5 C 448.158,161.338 447.492,161.672 446.5,161.5C 444.528,170.44 443.861,179.773 444.5,189.5C 443.506,180.014 443.173,170.348 443.5,160.5C 445.167,160.5 446.833,160.5 448.5,160.5 Z"/></g>
<g><path style="opacity:0.255" fill="#aaaaaa" d="M 185.5,167.5 C 184.947,169.552 183.947,169.885 182.5,168.5C 183.609,168.443 184.609,168.11 185.5,167.5 Z"/></g>
<g><path style="opacity:0.038" fill="#cbcbcb" d="M 263.5,165.5 C 264.479,166.765 265.479,168.099 266.5,169.5C 271.297,168.198 275.964,168.198 280.5,169.5C 275.789,169.282 271.122,169.615 266.5,170.5C 264.233,169.638 263.233,167.971 263.5,165.5 Z"/></g>
<g><path style="opacity:0.118" fill="#c5c4c4" d="M 427.5,161.5 C 429.474,171.111 430.141,181.111 429.5,191.5C 429.833,198.262 429.5,204.262 428.5,209.5C 428.817,193.422 428.484,177.422 427.5,161.5 Z"/></g>
<g><path style="opacity:0.69" fill="#383637" d="M 425.5,160.5 C 427.167,160.5 428.833,160.5 430.5,160.5C 430.828,171.014 430.494,181.347 429.5,191.5C 430.141,181.111 429.474,171.111 427.5,161.5C 426.508,161.672 425.842,161.338 425.5,160.5 Z"/></g>
<g><path style="opacity:0.075" fill="#d8d8d8" d="M 346.5,170.5 C 349.495,170.294 352.162,170.96 354.5,172.5C 351.572,172.435 348.905,171.768 346.5,170.5 Z"/></g>
<g><path style="opacity:0.027" fill="#d5d5d5" d="M 493.5,169.5 C 495.38,169.229 496.713,169.896 497.5,171.5C 495.847,171.34 494.514,170.674 493.5,169.5 Z"/></g>
<g><path style="opacity:0.055" fill="#cbcbcb" d="M 482.5,170.5 C 480.485,171.924 478.152,172.59 475.5,172.5C 477.515,171.076 479.848,170.41 482.5,170.5 Z"/></g>
<g><path style="opacity:0.365" fill="#858585" d="M 322.5,171.5 C 320.898,173.074 318.898,173.741 316.5,173.5C 318.102,171.926 320.102,171.259 322.5,171.5 Z"/></g>
<g><path style="opacity:0.129" fill="#bdbdbd" d="M 354.5,172.5 C 356.553,172.402 358.22,173.069 359.5,174.5C 357.447,174.598 355.78,173.931 354.5,172.5 Z"/></g>
<g><path style="opacity:0.125" fill="#bcbcbc" d="M 475.5,172.5 C 474.22,173.931 472.553,174.598 470.5,174.5C 471.78,173.069 473.447,172.402 475.5,172.5 Z"/></g>
<g><path style="opacity:0.122" fill="#b0aeb0" d="M 316.5,173.5 C 313.485,175.674 310.151,177.341 306.5,178.5C 309.247,175.793 312.58,174.127 316.5,173.5 Z"/></g>
<g><path style="opacity:0.098" fill="#b6b6b6" d="M 365.5,177.5 C 367.027,177.427 368.027,178.094 368.5,179.5C 366.973,179.573 365.973,178.906 365.5,177.5 Z"/></g>
<g><path style="opacity:0.369" fill="#8b8a8d" d="M 306.5,178.5 C 306.027,179.906 305.027,180.573 303.5,180.5C 303.973,179.094 304.973,178.427 306.5,178.5 Z"/></g>
<g><path style="opacity:1" fill="#34482d" d="M 157.5,181.5 C 162.316,180.35 167.316,180.184 172.5,181C 174.723,181.566 176.723,182.4 178.5,183.5C 177.167,183.5 175.833,183.5 174.5,183.5C 169.097,181.795 163.43,181.128 157.5,181.5 Z"/></g>
<g><path style="opacity:0.063" fill="#b1b1b1" d="M 368.5,179.5 C 370.027,179.427 371.027,180.094 371.5,181.5C 369.973,181.573 368.973,180.906 368.5,179.5 Z"/></g>
<g><path style="opacity:1" fill="#a6cc8e" d="M 157.5,181.5 C 163.43,181.128 169.097,181.795 174.5,183.5C 169.501,182.916 164.501,182.749 159.5,183C 158.457,184.976 157.123,185.476 155.5,184.5C 151.724,185.383 148.057,186.383 144.5,187.5C 148.017,183.983 152.351,181.983 157.5,181.5 Z"/></g>
<g><path style="opacity:1" fill="#415834" d="M 328.5,185.5 C 330.978,184.836 333.645,184.503 336.5,184.5C 340.777,184.337 344.777,185.003 348.5,186.5C 341.863,185.724 335.196,185.391 328.5,185.5 Z"/></g>
<g><path style="opacity:1" fill="#8aac77" d="M 200.5,170.5 C 199.124,175.368 198.29,180.368 198,185.5C 194.811,188.451 191.311,189.118 187.5,187.5C 190.365,187.945 192.865,187.278 195,185.5C 196.528,180.274 198.362,175.274 200.5,170.5 Z"/></g>
<g><path style="opacity:1" fill="#99bf84" d="M 328.5,185.5 C 335.196,185.391 341.863,185.724 348.5,186.5C 350.38,186.229 351.713,186.896 352.5,188.5C 346.133,188.21 339.8,187.543 333.5,186.5C 328.048,187.075 322.714,188.075 317.5,189.5C 320.66,187 324.327,185.667 328.5,185.5 Z"/></g>
<g><path style="opacity:1" fill="#a7d090" d="M 245.5,165.5 C 250.135,170.114 252.635,175.781 253,182.5C 253.465,183.931 254.299,185.097 255.5,186C 261.217,186.144 266.884,185.644 272.5,184.5C 283.54,183.727 291.54,188.227 296.5,198C 299.5,200 302.5,200 305.5,198C 309.12,194.533 313.12,191.7 317.5,189.5C 317.179,191.048 316.179,191.715 314.5,191.5C 314.5,192.833 314.5,194.167 314.5,195.5C 310.436,198.206 306.103,200.539 301.5,202.5C 298.887,200.432 295.887,199.099 292.5,198.5C 290.97,196.774 289.97,194.774 289.5,192.5C 284.535,189.401 279.201,187.401 273.5,186.5C 265.733,190.305 257.733,190.472 249.5,187C 250.795,183.214 250.795,179.38 249.5,175.5C 246.552,175.084 245.885,173.751 247.5,171.5C 246.822,169.484 246.156,167.484 245.5,165.5 Z"/></g>
<g><path style="opacity:1" fill="#a3dd6a" d="M 483.5,352.5 C 482.833,352.167 482.167,351.833 481.5,351.5C 480.5,351.167 479.833,350.5 479.5,349.5C 479.082,348.778 478.416,348.278 477.5,348C 472.845,347.501 468.179,347.334 463.5,347.5C 463.666,339.493 463.5,331.493 463,323.5C 461.7,321.412 459.867,320.079 457.5,319.5C 456.432,318.566 455.099,318.232 453.5,318.5C 452.52,283.864 452.187,249.198 452.5,214.5C 456.807,202.193 465.141,193.859 477.5,189.5C 481.853,188.941 486.186,188.275 490.5,187.5C 490.5,250.167 490.5,312.833 490.5,375.5C 488.5,375.5 486.5,375.5 484.5,375.5C 484.825,367.648 484.492,359.982 483.5,352.5 Z"/></g>
<g><path style="opacity:0.086" fill="#e7fed0" d="M 493.5,185.5 C 492.843,249.715 493.509,313.715 495.5,377.5C 494.5,377.5 493.5,377.5 492.5,377.5C 492.5,377.167 492.5,376.833 492.5,376.5C 492.168,312.664 492.501,248.998 493.5,185.5 Z"/></g>
<g><path style="opacity:1" fill="#9ec38b" d="M 352.5,188.5 C 354.677,188.586 356.677,189.253 358.5,190.5C 361.761,192.949 364.761,195.616 367.5,198.5C 365.323,198.414 363.323,197.747 361.5,196.5C 359.057,193.127 356.057,190.46 352.5,188.5 Z"/></g>
<g><path style="opacity:1" fill="#769963" d="M 144.5,187.5 C 144.666,193.176 144.499,198.843 144,204.5C 142.541,206.432 141.375,208.432 140.5,210.5C 142.12,202.75 143.453,195.083 144.5,187.5 Z"/></g>
<g><path style="opacity:1" fill="#91b66e" d="M 485.5,185.5 C 482.746,186.641 480.079,187.975 477.5,189.5C 465.141,193.859 456.807,202.193 452.5,214.5C 451.292,215.234 449.959,215.567 448.5,215.5C 449.547,211.739 451.381,208.406 454,205.5C 461.854,194.657 472.354,187.99 485.5,185.5 Z"/></g>
<g><path style="opacity:1" fill="#a6d874" d="M 485.5,185.5 C 487.5,185.5 489.5,185.5 491.5,185.5C 491.5,249.167 491.5,312.833 491.5,376.5C 488.833,376.5 486.167,376.5 483.5,376.5C 483.5,368.5 483.5,360.5 483.5,352.5C 484.492,359.982 484.825,367.648 484.5,375.5C 486.5,375.5 488.5,375.5 490.5,375.5C 490.5,312.833 490.5,250.167 490.5,187.5C 486.186,188.275 481.853,188.941 477.5,189.5C 480.079,187.975 482.746,186.641 485.5,185.5 Z"/></g>
<g><path style="opacity:0.153" fill="#8e8e8f" d="M 389.5,205.5 C 390.222,206.551 391.222,207.218 392.5,207.5C 391.791,208.404 390.791,208.737 389.5,208.5C 389.5,207.5 389.5,206.5 389.5,205.5 Z"/></g>
<g><path style="opacity:1" fill="#1d5f2d" d="M 62.5,198.5 C 63.4584,198.953 64.2917,199.619 65,200.5C 65.4999,215.83 65.6666,231.163 65.5,246.5C 63.5853,246.784 61.9187,246.451 60.5,245.5C 61.8333,245.5 63.1667,245.5 64.5,245.5C 64.6666,230.83 64.4999,216.163 64,201.5C 62.9614,200.756 62.4614,199.756 62.5,198.5 Z"/></g>
<g><path style="opacity:0.646" fill="#a2c77f" d="M 485.5,185.5 C 488.287,184.523 491.287,184.19 494.5,184.5C 494.5,185.167 494.167,185.5 493.5,185.5C 492.501,248.998 492.168,312.664 492.5,376.5C 492.167,376.5 491.833,376.5 491.5,376.5C 491.5,312.833 491.5,249.167 491.5,185.5C 489.5,185.5 487.5,185.5 485.5,185.5 Z"/></g>
<g><path style="opacity:1" fill="#b3e896" d="M 452.5,214.5 C 452.187,249.198 452.52,283.864 453.5,318.5C 450.833,318.5 448.167,318.5 445.5,318.5C 445.333,287.832 445.5,257.165 446,226.5C 447.406,222.969 448.24,219.302 448.5,215.5C 449.959,215.567 451.292,215.234 452.5,214.5 Z"/></g>
<g><path style="opacity:1" fill="#3a512c" d="M 413.5,220.5 C 416.152,220.41 418.485,221.076 420.5,222.5C 417.848,222.59 415.515,221.924 413.5,220.5 Z"/></g>
<g><path style="opacity:1" fill="#8fb27e" d="M 405.5,220.5 C 399.97,222.64 394.304,224.64 388.5,226.5C 390.847,223.663 393.847,221.83 397.5,221C 400.146,220.503 402.813,220.336 405.5,220.5 Z"/></g>
<g><path style="opacity:1" fill="#9fc48b" d="M 376.5,213.5 C 377.673,217.625 379.34,221.625 381.5,225.5C 383.396,226.466 385.396,226.799 387.5,226.5C 384.976,227.8 382.309,227.8 379.5,226.5C 376.739,222.695 375.739,218.361 376.5,213.5 Z"/></g>
<g><path style="opacity:1" fill="#96ba84" d="M 448.5,215.5 C 448.24,219.302 447.406,222.969 446,226.5C 445.5,257.165 445.333,287.832 445.5,318.5C 444.502,288.671 444.169,258.671 444.5,228.5C 445.384,223.946 446.717,219.613 448.5,215.5 Z"/></g>
<g><path style="opacity:1" fill="#46a75f" d="M 35.5,233.5 C 37.9541,233.321 40.1208,233.987 42,235.5C 44.0283,234.032 45.8616,234.199 47.5,236C 46.6919,236.308 46.0253,236.808 45.5,237.5C 49.3793,239.66 53.0459,241.993 56.5,244.5C 52.2333,243.045 47.9,241.545 43.5,240C 40.5798,238.054 37.9131,235.887 35.5,233.5 Z"/></g>
<g><path style="opacity:1" fill="#394a2e" d="M 428.5,227.5 C 429.833,242.318 430.499,257.485 430.5,273C 430.5,288.337 430.167,303.504 429.5,318.5C 429.825,288.093 429.492,257.76 428.5,227.5 Z"/></g>
<g><path style="opacity:1" fill="#aad394" d="M 131.5,230.5 C 131.663,232.857 131.497,235.19 131,237.5C 130.282,236.549 129.449,236.383 128.5,237C 124.6,241.148 120.6,245.148 116.5,249C 114.482,249.505 112.482,250.005 110.5,250.5C 118.132,244.536 125.132,237.869 131.5,230.5 Z"/></g>
<g><path style="opacity:1" fill="#91b87c" d="M 427.5,227.5 C 427.833,227.5 428.167,227.5 428.5,227.5C 429.492,257.76 429.825,288.093 429.5,318.5C 425.03,319.486 420.363,319.819 415.5,319.5C 419.634,318.515 423.968,318.182 428.5,318.5C 428.818,288.123 428.485,257.79 427.5,227.5 Z"/></g>
<g><path style="opacity:1" fill="#395230" d="M 444.5,228.5 C 444.169,258.671 444.502,288.671 445.5,318.5C 448.167,318.5 450.833,318.5 453.5,318.5C 455.099,318.232 456.432,318.566 457.5,319.5C 452.833,319.5 448.167,319.5 443.5,319.5C 443.169,288.995 443.502,258.662 444.5,228.5 Z"/></g>
<g><path style="opacity:1" fill="#b2e796" d="M 9.5,229.5 C 10.5794,231.543 12.246,232.876 14.5,233.5C 22.3147,242.317 31.3147,249.651 41.5,255.5C 45.63,258.091 49.9633,260.257 54.5,262C 57.146,262.497 59.8127,262.664 62.5,262.5C 62.4662,300.326 62.4662,337.993 62.5,375.5C 45.4967,375.667 28.4967,375.5 11.5,375C 10.5838,374.626 9.75044,374.126 9,373.5C 9.28547,325.314 9.45214,277.314 9.5,229.5 Z"/></g>
<g><path style="opacity:1" fill="#506a42" d="M 148.5,241.5 C 147.363,257.789 147.196,274.122 148,290.5C 148.41,291.901 148.91,293.234 149.5,294.5C 148.25,294.423 147.417,293.756 147,292.5C 146.333,275.833 146.333,259.167 147,242.5C 147.383,241.944 147.883,241.611 148.5,241.5 Z"/></g>
<g><path style="opacity:1" fill="#b37d4e" d="M 161.5,252.5 C 220.167,252.5 278.833,252.5 337.5,252.5C 337.5,262.167 337.5,271.833 337.5,281.5C 278.833,281.5 220.167,281.5 161.5,281.5C 161.5,271.833 161.5,262.167 161.5,252.5 Z"/></g>
<g><path style="opacity:1" fill="#dd9150" d="M 305.5,254.5 C 305.5,263.167 305.5,271.833 305.5,280.5C 258.833,280.5 212.167,280.5 165.5,280.5C 165.5,279.5 165.5,278.5 165.5,277.5C 164.5,277.5 163.5,277.5 162.5,277.5C 161.889,269.722 162.556,262.222 164.5,255C 211.499,254.5 258.499,254.333 305.5,254.5 Z"/></g>
<g><path style="opacity:1" fill="#d08543" d="M 305.5,254.5 C 315.506,254.334 325.506,254.5 335.5,255C 336.821,263.137 336.821,271.303 335.5,279.5C 325.522,280.499 315.522,280.832 305.5,280.5C 305.5,271.833 305.5,263.167 305.5,254.5 Z"/></g>
<g><path style="opacity:1" fill="#4a6939" d="M 350.5,241.5 C 351.167,241.833 351.833,242.167 352.5,242.5C 352.667,258.837 352.5,275.17 352,291.5C 351.722,292.416 351.222,293.082 350.5,293.5C 351.82,276.154 351.82,258.821 350.5,241.5 Z"/></g>
<g><path style="opacity:1" fill="#526f44" d="M 57.5,259.5 C 60.1194,259.232 62.6194,259.565 65,260.5C 65.8312,299.669 65.6645,338.669 64.5,377.5C 64.5,377.167 64.5,376.833 64.5,376.5C 64.5,338.167 64.5,299.833 64.5,261.5C 61.9327,261.279 59.5994,260.612 57.5,259.5 Z"/></g>
<g><path style="opacity:0.352" fill="#bbd9a7" d="M 5.5,219.5 C 8.99565,223.819 11.9957,228.485 14.5,233.5C 12.246,232.876 10.5794,231.543 9.5,229.5C 9.44001,228.957 9.10667,228.624 8.5,228.5C 7.16667,277.5 7.16667,326.5 8.5,375.5C 27.12,376.487 45.7867,376.82 64.5,376.5C 64.5,376.833 64.5,377.167 64.5,377.5C 44.1667,377.5 23.8333,377.5 3.5,377.5C 5.48874,325.05 6.1554,272.383 5.5,219.5 Z"/></g>
<g><path style="opacity:1" fill="#0c1d03" d="M 350.5,293.5 C 349.942,294.79 348.942,295.623 347.5,296C 333.171,296.5 318.837,296.667 304.5,296.5C 318.327,295.669 332.327,295.169 346.5,295C 346.167,294.667 345.833,294.333 345.5,294C 347.134,293.506 348.801,293.34 350.5,293.5 Z"/></g>
<g><path style="opacity:1" fill="#a8ce92" d="M 352.5,242.5 C 351.833,242.167 351.167,241.833 350.5,241.5C 350.027,240.094 349.027,239.427 347.5,239.5C 282.001,238.335 216.335,238.168 150.5,239C 149.619,239.708 148.953,240.542 148.5,241.5C 147.883,241.611 147.383,241.944 147,242.5C 146.333,259.167 146.333,275.833 147,292.5C 147.417,293.756 148.25,294.423 149.5,294.5C 149.918,295.222 150.584,295.722 151.5,296C 165.829,296.5 180.163,296.667 194.5,296.5C 194.5,301.5 194.5,306.5 194.5,311.5C 172.497,311.333 150.497,311.5 128.5,312C 127.956,312.717 127.289,313.217 126.5,313.5C 126.5,312.5 126.5,311.5 126.5,310.5C 148.169,310.667 169.836,310.5 191.5,310C 193.648,306.488 193.981,302.821 192.5,299C 178.167,298.667 163.833,298.333 149.5,298C 148.5,297.167 147.5,296.333 146.5,295.5C 145.347,277.544 145.18,259.544 146,241.5C 147.015,238.898 148.848,237.065 151.5,236C 216.81,236.309 282.143,236.642 347.5,237C 351.459,236.791 353.126,238.625 352.5,242.5 Z"/></g>
<g><path style="opacity:1" fill="#16270c" d="M 347.5,239.5 C 282.166,239.333 216.832,239.5 151.5,240C 150.756,241.039 149.756,241.539 148.5,241.5C 148.953,240.542 149.619,239.708 150.5,239C 216.335,238.168 282.001,238.335 347.5,239.5 Z"/></g>
<g><path style="opacity:1" fill="#b3e896" d="M 289.5,297.5 C 289.5,301.167 289.5,304.833 289.5,308.5C 263.325,310.461 236.992,311.128 210.5,310.5C 210.5,306.167 210.5,301.833 210.5,297.5C 236.833,297.5 263.167,297.5 289.5,297.5 Z"/></g>
<g><path style="opacity:1" fill="#a4c78f" d="M 289.5,297.5 C 263.167,297.5 236.833,297.5 210.5,297.5C 210.5,301.833 210.5,306.167 210.5,310.5C 236.992,311.128 263.325,310.461 289.5,308.5C 289.5,309.5 289.5,310.5 289.5,311.5C 262.833,311.5 236.167,311.5 209.5,311.5C 209.5,306.5 209.5,301.5 209.5,296.5C 236.339,296.169 263.005,296.502 289.5,297.5 Z"/></g>
<g><path style="opacity:1" fill="#495d41" d="M 304.5,311.5 C 326.503,311.333 348.503,311.5 370.5,312C 371.056,312.383 371.389,312.883 371.5,313.5C 349.039,312.854 326.706,312.187 304.5,311.5 Z"/></g>
<g><path style="opacity:1" fill="#b27f55" d="M 300.5,342.5 C 319.471,340.512 338.804,339.846 358.5,340.5C 358.5,336.167 358.5,331.833 358.5,327.5C 285.833,327.5 213.167,327.5 140.5,327.5C 140.5,331.833 140.5,336.167 140.5,340.5C 182.67,340.168 224.67,340.501 266.5,341.5C 224.167,341.5 181.833,341.5 139.5,341.5C 139.5,336.5 139.5,331.5 139.5,326.5C 212.833,326.5 286.167,326.5 359.5,326.5C 359.5,331.5 359.5,336.5 359.5,341.5C 339.757,341.179 320.091,341.513 300.5,342.5 Z"/></g>
<g><path style="opacity:1" fill="#db9050" d="M 300.5,342.5 C 299.833,342.833 299.167,343.167 298.5,343.5C 296.824,344.183 296.157,345.517 296.5,347.5C 288.514,346.901 280.514,346.568 272.5,346.5C 272.56,342.515 270.56,340.848 266.5,341.5C 224.67,340.501 182.67,340.168 140.5,340.5C 140.5,336.167 140.5,331.833 140.5,327.5C 213.167,327.5 285.833,327.5 358.5,327.5C 358.5,331.833 358.5,336.167 358.5,340.5C 338.804,339.846 319.471,340.512 300.5,342.5 Z"/></g>
<g><path style="opacity:1" fill="#aed59a" d="M 304.5,311.5 C 304.5,311.167 304.5,310.833 304.5,310.5C 327.169,310.333 349.836,310.5 372.5,311C 373.893,312.171 374.727,313.671 375,315.5C 375.667,328.5 375.667,341.5 375,354.5C 373.416,355.861 371.582,356.528 369.5,356.5C 369.5,356.167 369.5,355.833 369.5,355.5C 371.103,354.404 372.603,353.07 374,351.5C 374.667,339.833 374.667,328.167 374,316.5C 373.623,315.058 372.79,314.058 371.5,313.5C 371.389,312.883 371.056,312.383 370.5,312C 348.503,311.5 326.503,311.333 304.5,311.5 Z"/></g>
<g><path style="opacity:1" fill="#e8e8e8" d="M 425.5,333.5 C 433.167,333.5 440.833,333.5 448.5,333.5C 448.5,338.5 448.5,343.5 448.5,348.5C 440.833,348.5 433.167,348.5 425.5,348.5C 425.5,343.5 425.5,338.5 425.5,333.5 Z"/></g>
<g><path style="opacity:1" fill="#c6955a" d="M 266.5,341.5 C 270.56,340.848 272.56,342.515 272.5,346.5C 280.514,346.568 288.514,346.901 296.5,347.5C 296.157,345.517 296.824,344.183 298.5,343.5C 297.85,345.435 297.517,347.435 297.5,349.5C 297.167,349.5 296.833,349.5 296.5,349.5C 288.35,348.507 280.017,348.174 271.5,348.5C 271.657,347.127 271.49,345.793 271,344.5C 269.348,343.601 267.848,342.601 266.5,341.5 Z"/></g>
<g><path style="opacity:1" fill="#637f48" d="M 463.5,347.5 C 468.179,347.334 472.845,347.501 477.5,348C 478.416,348.278 479.082,348.778 479.5,349.5C 474.014,348.982 468.681,348.315 463.5,347.5 Z"/></g>
<g><path style="opacity:1" fill="#b9b571" d="M 271.5,348.5 C 280.017,348.174 288.35,348.507 296.5,349.5C 296.167,349.5 295.833,349.5 295.5,349.5C 287.833,349.5 280.167,349.5 272.5,349.5C 272.771,351.38 272.104,352.713 270.5,353.5C 271.038,351.883 271.371,350.216 271.5,348.5 Z"/></g>
<g><path style="opacity:1" fill="#b2e896" d="M 295.5,349.5 C 295.336,352.187 295.503,354.854 296,357.5C 296.414,357.043 296.914,356.709 297.5,356.5C 306.179,357.096 314.845,357.93 323.5,359C 324.833,364.333 324.833,369.667 323.5,375C 273.471,375.819 223.471,375.653 173.5,374.5C 173.193,368.907 173.527,363.407 174.5,358C 205.85,358.161 236.85,357.328 267.5,355.5C 268.29,354.599 269.29,353.932 270.5,353.5C 272.104,352.713 272.771,351.38 272.5,349.5C 280.167,349.5 287.833,349.5 295.5,349.5 Z"/></g>
<g><path style="opacity:1" fill="#4e6a3e" d="M 127.5,354.5 C 137.63,355.12 147.63,355.786 157.5,356.5C 148.833,356.5 140.167,356.5 131.5,356.5C 129.62,356.771 128.287,356.104 127.5,354.5 Z"/></g>
<g><path style="opacity:1" fill="#68874e" d="M 481.5,351.5 C 482.167,351.833 482.833,352.167 483.5,352.5C 483.5,360.5 483.5,368.5 483.5,376.5C 486.167,376.5 488.833,376.5 491.5,376.5C 491.833,376.5 492.167,376.5 492.5,376.5C 492.5,376.833 492.5,377.167 492.5,377.5C 489.167,377.5 485.833,377.5 482.5,377.5C 482.775,368.779 482.442,360.113 481.5,351.5 Z"/></g>
<g><path style="opacity:1" fill="#3d572f" d="M 300.5,355.5 C 309.5,355.5 318.5,355.5 327.5,355.5C 327.825,363.019 327.492,370.352 326.5,377.5C 326.5,377.167 326.5,376.833 326.5,376.5C 326.5,369.833 326.5,363.167 326.5,356.5C 317.651,356.826 308.984,356.493 300.5,355.5 Z"/></g>
<g><path style="opacity:1" fill="#b6e39b" d="M 9.5,229.5 C 9.45214,277.314 9.28547,325.314 9,373.5C 9.75044,374.126 10.5838,374.626 11.5,375C 28.4967,375.5 45.4967,375.667 62.5,375.5C 62.4662,337.993 62.4662,300.326 62.5,262.5C 59.8127,262.664 57.146,262.497 54.5,262C 49.9633,260.257 45.63,258.091 41.5,255.5C 46.5804,257.718 51.9137,259.051 57.5,259.5C 59.5994,260.612 61.9327,261.279 64.5,261.5C 64.5,299.833 64.5,338.167 64.5,376.5C 45.7867,376.82 27.12,376.487 8.5,375.5C 7.16667,326.5 7.16667,277.5 8.5,228.5C 9.10667,228.624 9.44001,228.957 9.5,229.5 Z"/></g>
<g><path style="opacity:1" fill="#9fc888" d="M 295.5,349.5 C 295.833,349.5 296.167,349.5 296.5,349.5C 296.833,349.5 297.167,349.5 297.5,349.5C 297.975,351.784 298.975,353.784 300.5,355.5C 308.984,356.493 317.651,356.826 326.5,356.5C 326.5,363.167 326.5,369.833 326.5,376.5C 275.167,376.5 223.833,376.5 172.5,376.5C 172.5,369.833 172.5,363.167 172.5,356.5C 203.996,355.502 235.662,355.168 267.5,355.5C 236.85,357.328 205.85,358.161 174.5,358C 173.527,363.407 173.193,368.907 173.5,374.5C 223.471,375.653 273.471,375.819 323.5,375C 324.833,369.667 324.833,364.333 323.5,359C 314.845,357.93 306.179,357.096 297.5,356.5C 296.914,356.709 296.414,357.043 296,357.5C 295.503,354.854 295.336,352.187 295.5,349.5 Z"/></g>
<g><path style="opacity:1" fill="#91b37e" d="M 83.5,260.5 C 82.791,261.404 81.791,261.737 80.5,261.5C 80.5,299.833 80.5,338.167 80.5,376.5C 105.833,376.5 131.167,376.5 156.5,376.5C 156.5,370.167 156.5,363.833 156.5,357.5C 147.983,357.826 139.65,357.493 131.5,356.5C 140.167,356.5 148.833,356.5 157.5,356.5C 157.5,363.5 157.5,370.5 157.5,377.5C 131.5,377.5 105.5,377.5 79.5,377.5C 79.5,338.5 79.5,299.5 79.5,260.5C 80.8333,260.5 82.1667,260.5 83.5,260.5 Z"/></g>
<g><path style="opacity:1" fill="#7e9f6e" d="M 172.5,356.5 C 172.5,363.167 172.5,369.833 172.5,376.5C 223.833,376.5 275.167,376.5 326.5,376.5C 326.5,376.833 326.5,377.167 326.5,377.5C 274.833,377.5 223.167,377.5 171.5,377.5C 171.175,370.313 171.509,363.313 172.5,356.5 Z"/></g>
<g><path style="opacity:1" fill="#7f9f6e" d="M 391.5,352.5 C 391.5,360.833 391.5,369.167 391.5,377.5C 374.833,377.5 358.167,377.5 341.5,377.5C 341.5,370.167 341.5,362.833 341.5,355.5C 350.833,355.5 360.167,355.5 369.5,355.5C 369.5,355.833 369.5,356.167 369.5,356.5C 360.553,357.444 351.553,357.778 342.5,357.5C 342.5,363.833 342.5,370.167 342.5,376.5C 358.5,376.5 374.5,376.5 390.5,376.5C 390.174,368.316 390.508,360.316 391.5,352.5 Z"/></g>
<g><path style="opacity:1" fill="#777777" d="M 405.5,362.5 C 426.5,362.5 447.5,362.5 468.5,362.5C 468.5,367.5 468.5,372.5 468.5,377.5C 447.5,377.5 426.5,377.5 405.5,377.5C 405.5,372.5 405.5,367.5 405.5,362.5 Z"/></g>
<g><path style="opacity:1" fill="#a2a2a2" d="M 406.5,363.5 C 426.833,363.5 447.167,363.5 467.5,363.5C 467.5,367.833 467.5,372.167 467.5,376.5C 447.167,376.5 426.833,376.5 406.5,376.5C 406.5,372.167 406.5,367.833 406.5,363.5 Z"/></g>
<g><path style="opacity:1" fill="#887f76" d="M 0.5,389.5 C 1.92167,389.709 3.25501,390.209 4.5,391C 168.54,391.83 332.54,391.664 496.5,390.5C 496.027,391.906 495.027,392.573 493.5,392.5C 330.833,392.5 168.167,392.5 5.5,392.5C 3.32604,392.25 1.65938,391.25 0.5,389.5 Z"/></g>
<g><path style="opacity:1" fill="#fdecdd" d="M 5.5,392.5 C 168.167,392.5 330.833,392.5 493.5,392.5C 493.5,404.167 493.5,415.833 493.5,427.5C 494.791,427.263 495.791,427.596 496.5,428.5C 482.829,428.333 469.163,428.5 455.5,429C 453.393,430.264 452.393,432.097 452.5,434.5C 443.918,435.47 435.251,435.803 426.5,435.5C 426.737,434.209 426.404,433.209 425.5,432.5C 424.473,430.806 423.139,429.473 421.5,428.5C 283.001,427.5 144.334,427.167 5.5,427.5C 5.5,415.833 5.5,404.167 5.5,392.5 Z"/></g>
<g><path style="opacity:1" fill="#fee2c8" d="M 453.5,393.5 C 466.167,393.5 478.833,393.5 491.5,393.5C 491.5,404.5 491.5,415.5 491.5,426.5C 479.066,426.96 466.733,426.46 454.5,425C 453.513,414.582 453.18,404.082 453.5,393.5 Z"/></g>
<g><path style="opacity:1" fill="#857c75" d="M 5.5,427.5 C 144.334,427.167 283.001,427.5 421.5,428.5C 281.46,428.17 141.46,428.503 1.5,429.5C 2.28696,427.896 3.6203,427.229 5.5,427.5 Z"/></g>
<g><path style="opacity:1" fill="#000301" d="M 421.5,428.5 C 423.139,429.473 424.473,430.806 425.5,432.5C 425.908,436.625 424.574,439.959 421.5,442.5C 283.167,442.5 144.833,442.5 6.5,442.5C 5.16667,442.167 3.83333,441.833 2.5,441.5C 1.5,440.833 0.5,440.167 -0.5,439.5C -0.5,436.833 -0.5,434.167 -0.5,431.5C 0.166667,430.833 0.833333,430.167 1.5,429.5C 141.46,428.503 281.46,428.17 421.5,428.5 Z"/></g>
<g><path style="opacity:0.996" fill="#040604" d="M 496.5,428.5 C 497.728,429.306 498.728,430.306 499.5,431.5C 499.5,434.167 499.5,436.833 499.5,439.5C 498.5,440.167 497.5,440.833 496.5,441.5C 495.167,441.833 493.833,442.167 492.5,442.5C 480.829,442.667 469.162,442.5 457.5,442C 455.677,441.003 454.01,439.836 452.5,438.5C 452.5,437.167 452.5,435.833 452.5,434.5C 452.393,432.097 453.393,430.264 455.5,429C 469.163,428.5 482.829,428.333 496.5,428.5 Z"/></g>
<g><path style="opacity:1" fill="#298a64" d="M 425.5,432.5 C 426.404,433.209 426.737,434.209 426.5,435.5C 435.251,435.803 443.918,435.47 452.5,434.5C 452.5,435.833 452.5,437.167 452.5,438.5C 452.232,440.099 452.566,441.432 453.5,442.5C 452.682,458.093 452.182,473.759 452,489.5C 448.27,490.46 444.437,490.793 440.5,490.5C 439.73,488.065 438.063,486.731 435.5,486.5C 435.158,485.662 434.492,485.328 433.5,485.5C 432.726,484.853 431.726,484.52 430.5,484.5C 427.821,484.936 425.155,485.436 422.5,486C 423.833,487.333 423.833,488.667 422.5,490C 397.836,490.5 373.169,490.667 348.5,490.5C 348.174,488.339 347.174,486.506 345.5,485C 340.816,484.539 336.149,484.705 331.5,485.5C 331.5,487.167 331.5,488.833 331.5,490.5C 306.524,490.782 281.524,490.448 256.5,489.5C 253.439,484.401 249.439,483.401 244.5,486.5C 243.5,486.5 242.5,486.5 241.5,486.5C 241.5,487.833 241.5,489.167 241.5,490.5C 217.164,490.667 192.831,490.5 168.5,490C 167.62,488.644 167.286,487.144 167.5,485.5C 164.273,485.22 161.607,483.887 159.5,481.5C 157.347,481.561 156.014,482.561 155.5,484.5C 155.5,484.833 155.5,485.167 155.5,485.5C 153.5,485.5 151.5,485.5 149.5,485.5C 149.5,487.167 149.5,488.833 149.5,490.5C 125.523,489.706 101.523,489.206 77.5,489C 76.3909,487.187 77.0576,486.354 79.5,486.5C 79.3508,482.877 78.1842,482.543 76,485.5C 71.2862,484.09 66.9529,482.09 63,479.5C 62.5,479.833 62,480.167 61.5,480.5C 62.2458,481.736 62.5792,483.07 62.5,484.5C 61.5,484.5 60.5,484.5 59.5,484.5C 59.7394,486.467 59.4061,488.301 58.5,490C 43.3013,490.19 28.1346,490.69 13,491.5C 11.5603,490.852 10.0603,490.519 8.5,490.5C 9.06167,475.187 9.06167,459.854 8.5,444.5C 144.167,444.667 279.834,444.5 415.5,444C 417.708,443.809 419.708,443.309 421.5,442.5C 424.574,439.959 425.908,436.625 425.5,432.5 Z"/></g>
<g><path style="opacity:0.055" fill="#cdeee5" d="M 2.5,441.5 C 3.83333,441.833 5.16667,442.167 6.5,442.5C 6.17506,459.077 6.50839,475.577 7.5,492C 25.0048,492.168 42.3382,492.668 59.5,493.5C 41.8302,493.667 24.1635,493.5 6.5,493C 5.84016,476.564 5.17349,460.064 4.5,443.5C 3.4777,443.145 2.81103,442.478 2.5,441.5 Z"/></g>
<g><path style="opacity:1" fill="#2f7b5f" d="M 119.5,467.5 C 119.141,469.371 118.141,470.871 116.5,472C 108.794,474.107 104.46,471.273 103.5,463.5C 105.703,452.49 111.37,450.49 120.5,457.5C 121.655,460.446 121.821,463.446 121,466.5C 120.617,467.056 120.117,467.389 119.5,467.5 Z"/></g>
<g><path style="opacity:1" fill="#2a7257" d="M 287.5,455.5 C 292.537,455.413 297.537,455.746 302.5,456.5C 305.134,469.993 300.134,474.326 287.5,469.5C 287.5,464.833 287.5,460.167 287.5,455.5 Z"/></g>
<g><path style="opacity:1" fill="#010702" d="M 18.5,456.5 C 28.3734,456.192 31.0401,460.359 26.5,469C 19.388,471.554 15.888,469.054 16,461.5C 16.3661,459.548 17.1995,457.882 18.5,456.5 Z"/></g>
<g><path style="opacity:1" fill="#030b04" d="M 200.5,456.5 C 207.669,455.513 211.169,458.513 211,465.5C 208.156,470.866 204.156,471.866 199,468.5C 196.66,464.052 197.16,460.052 200.5,456.5 Z"/></g>
<g><path style="opacity:1" fill="#030c05" d="M 382.5,456.5 C 388.247,455.866 391.58,458.366 392.5,464C 391.306,470.149 387.639,472.149 381.5,470C 377.198,465.051 377.531,460.551 382.5,456.5 Z"/></g>
<g><path style="opacity:0.09" fill="#c6efe2" d="M 496.5,441.5 C 496.189,442.478 495.522,443.145 494.5,443.5C 493.833,459.995 493.167,476.328 492.5,492.5C 492.5,475.833 492.5,459.167 492.5,442.5C 493.833,442.167 495.167,441.833 496.5,441.5 Z"/></g>
<g><path style="opacity:1" fill="#020802" d="M 291.5,456.5 C 301.373,456.192 304.04,460.359 299.5,469C 295.612,471.223 292.112,470.723 289,467.5C 287.812,463.259 288.645,459.592 291.5,456.5 Z"/></g>
<g><path style="opacity:1" fill="#020903" d="M 119.5,467.5 C 110.072,473.25 105.906,470.583 107,459.5C 111,455.5 115,455.5 119,459.5C 119.497,462.146 119.664,464.813 119.5,467.5 Z"/></g>
<g><path style="opacity:1" fill="#21815d" d="M 453.5,442.5 C 466.13,443.442 478.796,443.775 491.5,443.5C 491.818,459.215 491.484,474.881 490.5,490.5C 473.671,491.827 457.005,491.827 440.5,490.5C 444.437,490.793 448.27,490.46 452,489.5C 452.182,473.759 452.682,458.093 453.5,442.5 Z"/></g>
<g><path style="opacity:1" fill="#020702" d="M 473.5,456.5 C 481.087,456.245 484.087,459.745 482.5,467C 478.811,471.339 474.977,471.506 471,467.5C 469.813,463.217 470.647,459.55 473.5,456.5 Z"/></g>
<g><path style="opacity:0.972" fill="#090f0b" d="M 74.5,492.5 C 74.3713,494.216 74.038,495.883 73.5,497.5C 73.1667,498.167 72.8333,498.833 72.5,499.5C 69.8333,499.5 67.1667,499.5 64.5,499.5C 59.4603,494.547 59.4603,489.714 64.5,485C 70.5907,483.932 73.924,486.432 74.5,492.5 Z"/></g>
<g><path style="opacity:0.976" fill="#0d110e" d="M 155.5,484.5 C 161.582,483.928 164.916,486.595 165.5,492.5C 165.5,493.5 165.5,494.5 165.5,495.5C 165.267,497.062 164.6,498.395 163.5,499.5C 160.833,499.5 158.167,499.5 155.5,499.5C 155.027,498.094 154.027,497.427 152.5,497.5C 152.5,497.167 152.5,496.833 152.5,496.5C 151.737,493.859 151.57,491.192 152,488.5C 153.518,487.837 154.685,486.837 155.5,485.5C 155.5,485.167 155.5,484.833 155.5,484.5 Z"/></g>
<g><path style="opacity:0.988" fill="#0f1310" d="M 256.5,489.5 C 256.5,490.5 256.5,491.5 256.5,492.5C 256.5,492.833 256.5,493.167 256.5,493.5C 256.396,495.703 255.73,497.703 254.5,499.5C 251.167,499.5 247.833,499.5 244.5,499.5C 243.27,497.703 242.604,495.703 242.5,493.5C 242.5,493.167 242.5,492.833 242.5,492.5C 242.253,490.142 242.919,488.142 244.5,486.5C 249.439,483.401 253.439,484.401 256.5,489.5 Z"/></g>
<g><path style="opacity:0.973" fill="#111311" d="M 346.5,497.5 C 346.167,498.167 345.833,498.833 345.5,499.5C 342.167,499.5 338.833,499.5 335.5,499.5C 334.4,498.395 333.733,497.062 333.5,495.5C 333.5,494.5 333.5,493.5 333.5,492.5C 333.911,486.948 336.911,484.782 342.5,486C 347.649,488.381 348.982,492.215 346.5,497.5 Z"/></g>
<g><path style="opacity:0.984" fill="#0f110f" d="M 433.5,485.5 C 434.492,485.328 435.158,485.662 435.5,486.5C 438.317,489.793 438.984,493.459 437.5,497.5C 437.167,498.167 436.833,498.833 436.5,499.5C 433.167,499.5 429.833,499.5 426.5,499.5C 426.167,498.833 425.833,498.167 425.5,497.5C 424.962,495.883 424.629,494.216 424.5,492.5C 423.974,489.192 425.307,487.026 428.5,486C 430.134,485.506 431.801,485.34 433.5,485.5 Z"/></g>
<g><path style="opacity:1" fill="#317c5f" d="M 6.5,442.5 C 144.833,442.5 283.167,442.5 421.5,442.5C 419.708,443.309 417.708,443.809 415.5,444C 279.834,444.5 144.167,444.667 8.5,444.5C 9.06167,459.854 9.06167,475.187 8.5,490.5C 10.0603,490.519 11.5603,490.852 13,491.5C 28.1346,490.69 43.3013,490.19 58.5,490C 59.4061,488.301 59.7394,486.467 59.5,484.5C 60.5,484.5 61.5,484.5 62.5,484.5C 62.5792,483.07 62.2458,481.736 61.5,480.5C 62,480.167 62.5,479.833 63,479.5C 66.9529,482.09 71.2862,484.09 76,485.5C 78.1842,482.543 79.3508,482.877 79.5,486.5C 77.0576,486.354 76.3909,487.187 77.5,489C 101.523,489.206 125.523,489.706 149.5,490.5C 149.5,488.833 149.5,487.167 149.5,485.5C 151.5,485.5 153.5,485.5 155.5,485.5C 154.685,486.837 153.518,487.837 152,488.5C 151.57,491.192 151.737,493.859 152.5,496.5C 151.599,495.71 150.932,494.71 150.5,493.5C 125.339,492.502 100.005,492.169 74.5,492.5C 73.924,486.432 70.5907,483.932 64.5,485C 59.4603,489.714 59.4603,494.547 64.5,499.5C 63.8333,499.5 63.1667,499.5 62.5,499.5C 61.1228,497.711 60.1228,495.711 59.5,493.5C 42.3382,492.668 25.0048,492.168 7.5,492C 6.50839,475.577 6.17506,459.077 6.5,442.5 Z"/></g>
<g><path style="opacity:1" fill="#388265" d="M 244.5,486.5 C 242.919,488.142 242.253,490.142 242.5,492.5C 216.833,492.5 191.167,492.5 165.5,492.5C 164.916,486.595 161.582,483.928 155.5,484.5C 156.014,482.561 157.347,481.561 159.5,481.5C 161.607,483.887 164.273,485.22 167.5,485.5C 167.286,487.144 167.62,488.644 168.5,490C 192.831,490.5 217.164,490.667 241.5,490.5C 241.5,489.167 241.5,487.833 241.5,486.5C 242.5,486.5 243.5,486.5 244.5,486.5 Z"/></g>
<g><path style="opacity:1" fill="#387f64" d="M 433.5,485.5 C 431.801,485.34 430.134,485.506 428.5,486C 425.307,487.026 423.974,489.192 424.5,492.5C 398.995,492.169 373.661,492.502 348.5,493.5C 348.011,494.995 347.345,496.329 346.5,497.5C 348.982,492.215 347.649,488.381 342.5,486C 336.911,484.782 333.911,486.948 333.5,492.5C 307.833,492.5 282.167,492.5 256.5,492.5C 256.5,491.5 256.5,490.5 256.5,489.5C 281.524,490.448 306.524,490.782 331.5,490.5C 331.5,488.833 331.5,487.167 331.5,485.5C 336.149,484.705 340.816,484.539 345.5,485C 347.174,486.506 348.174,488.339 348.5,490.5C 373.169,490.667 397.836,490.5 422.5,490C 423.833,488.667 423.833,487.333 422.5,486C 425.155,485.436 427.821,484.936 430.5,484.5C 431.726,484.52 432.726,484.853 433.5,485.5 Z"/></g>
<g><path style="opacity:0.749" fill="#548d78" d="M 452.5,438.5 C 454.01,439.836 455.677,441.003 457.5,442C 469.162,442.5 480.829,442.667 492.5,442.5C 492.5,459.167 492.5,475.833 492.5,492.5C 475.005,493.332 457.338,493.832 439.5,494C 438.915,495.302 438.249,496.469 437.5,497.5C 438.984,493.459 438.317,489.793 435.5,486.5C 438.063,486.731 439.73,488.065 440.5,490.5C 457.005,491.827 473.671,491.827 490.5,490.5C 491.484,474.881 491.818,459.215 491.5,443.5C 478.796,443.775 466.13,443.442 453.5,442.5C 452.566,441.432 452.232,440.099 452.5,438.5 Z"/></g>
<g><path style="opacity:0.055" fill="#ccebe9" d="M 74.5,492.5 C 100.005,492.169 125.339,492.502 150.5,493.5C 125.5,493.5 100.5,493.5 75.5,493.5C 75.7709,495.38 75.1042,496.713 73.5,497.5C 74.038,495.883 74.3713,494.216 74.5,492.5 Z"/></g>
<g><path style="opacity:0.055" fill="#c9ecea" d="M 165.5,492.5 C 191.167,492.5 216.833,492.5 242.5,492.5C 242.5,492.833 242.5,493.167 242.5,493.5C 216.606,492.857 190.939,493.524 165.5,495.5C 165.5,494.5 165.5,493.5 165.5,492.5 Z"/></g>
<g><path style="opacity:0.051" fill="#c9ebe9" d="M 256.5,493.5 C 256.5,493.167 256.5,492.833 256.5,492.5C 282.167,492.5 307.833,492.5 333.5,492.5C 333.5,493.5 333.5,494.5 333.5,495.5C 308.061,493.524 282.394,492.857 256.5,493.5 Z"/></g>
<g><path style="opacity:0.055" fill="#cceae8" d="M 348.5,493.5 C 373.661,492.502 398.995,492.169 424.5,492.5C 424.629,494.216 424.962,495.883 425.5,497.5C 423.896,496.713 423.229,495.38 423.5,493.5C 398.5,493.5 373.5,493.5 348.5,493.5 Z"/></g>
<g><path style="opacity:0.016" fill="#b5b5b5" d="M 152.5,497.5 C 154.027,497.427 155.027,498.094 155.5,499.5C 154.833,499.5 154.167,499.5 153.5,499.5C 153.167,498.833 152.833,498.167 152.5,497.5 Z"/></g>
</svg>
