<?xml version="1.0" encoding="UTF-8"?>
<!DOCTYPE svg PUBLIC "-//W3C//DTD SVG 1.1//EN" "http://www.w3.org/Graphics/SVG/1.1/DTD/svg11.dtd">
<svg xmlns="http://www.w3.org/2000/svg" version="1.1" width="500px" height="500px" style="shape-rendering:geometricPrecision; text-rendering:geometricPrecision; image-rendering:optimizeQuality; fill-rule:evenodd; clip-rule:evenodd" xmlns:xlink="http://www.w3.org/1999/xlink">
<g><path style="opacity:0.012" fill="#e6e6e6" d="M 239.5,-0.5 C 240.833,-0.5 242.167,-0.5 243.5,-0.5C 239.592,1.15727 235.592,2.82394 231.5,4.5C 233.863,2.3199 236.53,0.65323 239.5,-0.5 Z"/></g>
<g><path style="opacity:1" fill="#383838" d="M 243.5,-0.5 C 247.5,-0.5 251.5,-0.5 255.5,-0.5C 259.261,1.53753 263.261,3.2042 267.5,4.5C 268.262,6.26242 269.596,7.26242 271.5,7.5C 272.585,9.58689 274.251,10.9202 276.5,11.5C 277.585,13.5869 279.251,14.9202 281.5,15.5C 282.167,15.5 282.5,15.8333 282.5,16.5C 283.262,18.2624 284.596,19.2624 286.5,19.5C 287.5,19.8333 288.167,20.5 288.5,21.5C 288.973,22.9063 289.973,23.573 291.5,23.5C 294.956,25.7833 298.29,28.2833 301.5,31C 304.118,33.1057 306.118,35.6057 307.5,38.5C 307.5,53.5 307.5,68.5 307.5,83.5C 328.5,83.5 349.5,83.5 370.5,83.5C 371.5,83.8333 372.167,84.5 372.5,85.5C 372.427,87.0269 373.094,88.0269 374.5,88.5C 375.815,94.1445 373.815,97.8112 368.5,99.5C 364.833,99.5 361.167,99.5 357.5,99.5C 357.5,121.833 357.5,144.167 357.5,166.5C 369.833,166.5 382.167,166.5 394.5,166.5C 395.048,168.532 396.381,169.532 398.5,169.5C 398.5,172.833 398.5,176.167 398.5,179.5C 398.167,180.5 397.5,181.167 396.5,181.5C 391.99,181.884 387.657,182.551 383.5,183.5C 382.501,249.998 382.168,316.665 382.5,383.5C 388.833,383.5 395.167,383.5 401.5,383.5C 407.41,386.011 409.077,390.344 406.5,396.5C 406.5,397.167 406.167,397.5 405.5,397.5C 400.993,399.113 396.327,399.779 391.5,399.5C 390.178,408.675 390.178,418.008 391.5,427.5C 392.739,427.058 393.739,426.391 394.5,425.5C 397.666,425.234 400.833,424.901 404,424.5C 407.861,425.067 411.695,425.733 415.5,426.5C 416.659,428.25 418.326,429.25 420.5,429.5C 422.167,431.833 424.167,433.833 426.5,435.5C 427.458,435.953 428.292,436.619 429,437.5C 430.9,441.203 432.4,445.037 433.5,449C 440.989,448.913 446.989,451.747 451.5,457.5C 453.503,460.841 455.503,464.175 457.5,467.5C 458.726,471.633 458.726,475.633 457.5,479.5C 456.566,480.568 456.232,481.901 456.5,483.5C 469.5,483.5 482.5,483.5 495.5,483.5C 496.5,483.833 497.167,484.5 497.5,485.5C 497.427,487.027 498.094,488.027 499.5,488.5C 499.5,490.167 499.5,491.833 499.5,493.5C 497.833,495.833 495.833,497.833 493.5,499.5C 330.833,499.5 168.167,499.5 5.5,499.5C 3.16667,497.833 1.16667,495.833 -0.5,493.5C -0.5,491.833 -0.5,490.167 -0.5,488.5C 0.906316,488.027 1.57298,487.027 1.5,485.5C 2.75618,485.539 3.75618,485.039 4.5,484C 17.1623,483.5 29.8289,483.333 42.5,483.5C 42.7678,481.901 42.4345,480.568 41.5,479.5C 40.2737,475.633 40.2737,471.633 41.5,467.5C 43.4168,464.669 45.0834,461.669 46.5,458.5C 51.2384,452.405 57.5718,449.238 65.5,449C 66.282,446.328 67.282,443.828 68.5,441.5C 70.369,439.966 71.7023,437.966 72.5,435.5C 74.5,434.167 76.1667,432.5 77.5,430.5C 86.9432,423.932 96.9432,422.932 107.5,427.5C 108.494,418.348 108.827,409.015 108.5,399.5C 103.387,399.569 98.3867,398.903 93.5,397.5C 90.2985,392.41 90.9652,387.91 95.5,384C 102.492,383.5 109.492,383.334 116.5,383.5C 116.5,324.167 116.5,264.833 116.5,205.5C 117.002,201.41 119.335,199.41 123.5,199.5C 128.069,199.277 131.069,201.277 132.5,205.5C 132.5,264.833 132.5,324.167 132.5,383.5C 163.338,383.831 194.005,383.498 224.5,382.5C 224.5,315.833 224.5,249.167 224.5,182.5C 184.5,182.5 144.5,182.5 104.5,182.5C 104.027,181.094 103.027,180.427 101.5,180.5C 101.34,178.847 100.674,177.514 99.5,176.5C 98.1667,174.833 98.1667,173.167 99.5,171.5C 100.974,170.564 101.974,169.23 102.5,167.5C 102.842,166.662 103.508,166.328 104.5,166.5C 116.833,166.5 129.167,166.5 141.5,166.5C 141.5,144.167 141.5,121.833 141.5,99.5C 136.668,98.6004 131.668,97.9338 126.5,97.5C 124.327,93.9501 123.993,90.2834 125.5,86.5C 126.833,85.8333 127.833,84.8333 128.5,83.5C 148.993,82.5028 169.66,82.1695 190.5,82.5C 190.333,67.8295 190.5,53.1629 191,38.5C 191.66,36.6763 192.827,35.343 194.5,34.5C 196.749,33.9202 198.415,32.5869 199.5,30.5C 201.749,29.9202 203.415,28.5869 204.5,26.5C 207.089,25.5806 209.089,23.914 210.5,21.5C 212.749,20.9202 214.415,19.5869 215.5,17.5C 218.089,16.5806 220.089,14.914 221.5,12.5C 225.207,10.3115 228.54,7.64485 231.5,4.5C 235.592,2.82394 239.592,1.15727 243.5,-0.5 Z"/></g>
<g><path style="opacity:0.012" fill="#e2e2e2" d="M 255.5,-0.5 C 256.833,-0.5 258.167,-0.5 259.5,-0.5C 262.47,0.65323 265.137,2.3199 267.5,4.5C 263.261,3.2042 259.261,1.53753 255.5,-0.5 Z"/></g>
<g><path style="opacity:0.047" fill="#d6d6d6" d="M 267.5,4.5 C 269.404,4.73758 270.738,5.73758 271.5,7.5C 269.596,7.26242 268.262,6.26242 267.5,4.5 Z"/></g>
<g><path style="opacity:0.012" fill="#dcdcdc" d="M 271.5,7.5 C 273.749,8.07978 275.415,9.41311 276.5,11.5C 274.251,10.9202 272.585,9.58689 271.5,7.5 Z"/></g>
<g><path style="opacity:0.227" fill="#cccccc" d="M 231.5,4.5 C 228.54,7.64485 225.207,10.3115 221.5,12.5C 224.095,8.87431 227.428,6.20764 231.5,4.5 Z"/></g>
<g><path style="opacity:0.004" fill="#dbdbdb" d="M 276.5,11.5 C 278.749,12.0798 280.415,13.4131 281.5,15.5C 279.251,14.9202 277.585,13.5869 276.5,11.5 Z"/></g>
<g><path style="opacity:0.522" fill="#a6a6a6" d="M 221.5,12.5 C 220.089,14.914 218.089,16.5806 215.5,17.5C 216.911,15.086 218.911,13.4194 221.5,12.5 Z"/></g>
<g><path style="opacity:0.004" fill="#d5d5d5" d="M 282.5,16.5 C 284.404,16.7376 285.738,17.7376 286.5,19.5C 284.596,19.2624 283.262,18.2624 282.5,16.5 Z"/></g>
<g><path style="opacity:0.643" fill="#969696" d="M 215.5,17.5 C 214.415,19.5869 212.749,20.9202 210.5,21.5C 211.585,19.4131 213.251,18.0798 215.5,17.5 Z"/></g>
<g><path style="opacity:1" fill="#48728f" d="M 266.5,24.5 C 268.944,27.2247 271.61,29.7247 274.5,32C 257.833,32.6667 241.167,32.6667 224.5,32C 230.31,27.358 235.977,22.5246 241.5,17.5C 245.351,15.8308 249.351,15.3308 253.5,16C 257.734,19.0822 262.067,21.9155 266.5,24.5 Z"/></g>
<g><path style="opacity:0.012" fill="#cecece" d="M 288.5,21.5 C 290.027,21.427 291.027,22.0937 291.5,23.5C 289.973,23.573 288.973,22.9063 288.5,21.5 Z"/></g>
<g><path style="opacity:0.667" fill="#8a8a8a" d="M 210.5,21.5 C 209.089,23.914 207.089,25.5806 204.5,26.5C 205.911,24.086 207.911,22.4194 210.5,21.5 Z"/></g>
<g><path style="opacity:0.788" fill="#797979" d="M 204.5,26.5 C 203.415,28.5869 201.749,29.9202 199.5,30.5C 200.585,28.4131 202.251,27.0798 204.5,26.5 Z"/></g>
<g><path style="opacity:0.804" fill="#787878" d="M 199.5,30.5 C 198.415,32.5869 196.749,33.9202 194.5,34.5C 195.585,32.4131 197.251,31.0798 199.5,30.5 Z"/></g>
<g><path style="opacity:1" fill="#313d45" d="M 241.5,17.5 C 235.977,22.5246 230.31,27.358 224.5,32C 241.167,32.6667 257.833,32.6667 274.5,32C 271.61,29.7247 268.944,27.2247 266.5,24.5C 269.889,26.1402 273.055,28.1402 276,30.5C 276.264,32.6391 275.431,34.3057 273.5,35.5C 256.547,34.5143 239.547,34.181 222.5,34.5C 222.726,29.2083 225.393,26.3749 230.5,26C 233.163,21.8331 236.83,18.9998 241.5,17.5 Z"/></g>
<g><path style="opacity:1" fill="#b2b3b8" d="M 290.5,82.5 C 290.5,71.8333 290.5,61.1667 290.5,50.5C 263.167,50.5 235.833,50.5 208.5,50.5C 208.5,61.1667 208.5,71.8333 208.5,82.5C 207.505,71.6794 207.172,60.6794 207.5,49.5C 235.5,49.5 263.5,49.5 291.5,49.5C 291.828,60.6794 291.495,71.6794 290.5,82.5 Z"/></g>
<g><path style="opacity:1" fill="#cfd1db" d="M 290.5,82.5 C 263.167,82.5 235.833,82.5 208.5,82.5C 208.5,71.8333 208.5,61.1667 208.5,50.5C 235.833,50.5 263.167,50.5 290.5,50.5C 290.5,61.1667 290.5,71.8333 290.5,82.5 Z"/></g>
<g><path style="opacity:0.639" fill="#8a8a8a" d="M 307.5,38.5 C 308.496,52.9905 308.829,67.6572 308.5,82.5C 329.34,82.1695 350.007,82.5028 370.5,83.5C 349.5,83.5 328.5,83.5 307.5,83.5C 307.5,68.5 307.5,53.5 307.5,38.5 Z"/></g>
<g><path style="opacity:0.098" fill="#dedede" d="M 128.5,83.5 C 127.833,84.8333 126.833,85.8333 125.5,86.5C 125.5,84.5 126.5,83.5 128.5,83.5 Z"/></g>
<g><path style="opacity:0.145" fill="#b5b5b5" d="M 372.5,85.5 C 373.906,85.9731 374.573,86.9731 374.5,88.5C 373.094,88.0269 372.427,87.0269 372.5,85.5 Z"/></g>
<g><path style="opacity:0.667" fill="#656565" d="M 126.5,97.5 C 131.668,97.9338 136.668,98.6004 141.5,99.5C 137.833,99.5 134.167,99.5 130.5,99.5C 128.847,99.3404 127.514,98.6737 126.5,97.5 Z"/></g>
<g><path style="opacity:0.335" fill="#bcbcbc" d="M 368.5,99.5 C 365.375,100.479 362.042,100.813 358.5,100.5C 358.5,122.167 358.5,143.833 358.5,165.5C 370.678,165.172 382.678,165.505 394.5,166.5C 382.167,166.5 369.833,166.5 357.5,166.5C 357.5,144.167 357.5,121.833 357.5,99.5C 361.167,99.5 364.833,99.5 368.5,99.5 Z"/></g>
<g><path style="opacity:0.341" fill="#bbbbbb" d="M 130.5,99.5 C 134.167,99.5 137.833,99.5 141.5,99.5C 141.5,121.833 141.5,144.167 141.5,166.5C 129.167,166.5 116.833,166.5 104.5,166.5C 116.322,165.505 128.322,165.172 140.5,165.5C 140.5,143.833 140.5,122.167 140.5,100.5C 136.958,100.813 133.625,100.479 130.5,99.5 Z"/></g>
<g><path style="opacity:1" fill="#a4a5a9" d="M 157.5,99.5 C 218.833,99.5 280.167,99.5 341.5,99.5C 341.5,121.833 341.5,144.167 341.5,166.5C 280.167,166.5 218.833,166.5 157.5,166.5C 157.5,144.167 157.5,121.833 157.5,99.5 Z"/></g>
<g><path style="opacity:1" fill="#ced1da" d="M 158.5,100.5 C 219.167,100.5 279.833,100.5 340.5,100.5C 340.5,122.167 340.5,143.833 340.5,165.5C 279.833,165.5 219.167,165.5 158.5,165.5C 158.5,143.833 158.5,122.167 158.5,100.5 Z"/></g>
<g><path style="opacity:1" fill="#3a3a3c" d="M 213.5,124.5 C 218.023,124.18 221.523,125.846 224,129.5C 224.667,134.167 224.667,138.833 224,143.5C 218.581,151.41 213.248,151.41 208,143.5C 207.333,139.167 207.333,134.833 208,130.5C 209.36,127.977 211.193,125.977 213.5,124.5 Z"/></g>
<g><path style="opacity:1" fill="#3b3b3c" d="M 279.5,124.5 C 284.814,123.74 288.647,125.74 291,130.5C 291.667,134.833 291.667,139.167 291,143.5C 288.367,148.732 284.201,150.565 278.5,149C 277.696,147.229 276.529,145.729 275,144.5C 274.333,139.5 274.333,134.5 275,129.5C 276.193,127.503 277.693,125.836 279.5,124.5 Z"/></g>
<g><path style="opacity:1" fill="#383839" d="M 246.5,124.5 C 251.152,123.984 254.652,125.651 257,129.5C 257.667,134.5 257.667,139.5 257,144.5C 254.252,148.619 250.419,150.119 245.5,149C 243.951,147.786 242.785,146.286 242,144.5C 241.333,139.167 241.333,133.833 242,128.5C 243.397,126.93 244.897,125.596 246.5,124.5 Z"/></g>
<g><path style="opacity:1" fill="#38393a" d="M 179.5,124.5 C 183.803,123.796 187.303,125.13 190,128.5C 190.667,133.833 190.667,139.167 190,144.5C 184.579,151.433 179.579,151.1 175,143.5C 174.333,138.833 174.333,134.167 175,129.5C 176.366,127.638 177.866,125.972 179.5,124.5 Z"/></g>
<g><path style="opacity:1" fill="#383939" d="M 313.5,124.5 C 315.527,124.338 317.527,124.505 319.5,125C 321,126.5 322.5,128 324,129.5C 324.667,134.167 324.667,138.833 324,143.5C 321.647,148.426 317.814,150.26 312.5,149C 310.951,147.786 309.785,146.286 309,144.5C 308.333,139.167 308.333,133.833 309,128.5C 310.397,126.93 311.897,125.596 313.5,124.5 Z"/></g>
<g><path style="opacity:0.996" fill="#9c9c9c" d="M 394.5,166.5 C 396.632,166.554 397.965,167.554 398.5,169.5C 396.381,169.532 395.048,168.532 394.5,166.5 Z"/></g>
<g><path style="opacity:0.278" fill="#d1d1d1" d="M 102.5,167.5 C 101.974,169.23 100.974,170.564 99.5,171.5C 99.5544,169.368 100.554,168.035 102.5,167.5 Z"/></g>
<g><path style="opacity:0.625" fill="#a4a4a4" d="M 398.5,169.5 C 401.046,172.799 401.046,176.132 398.5,179.5C 398.5,176.167 398.5,172.833 398.5,169.5 Z"/></g>
<g><path style="opacity:0.243" fill="#bdbdbd" d="M 99.5,176.5 C 100.674,177.514 101.34,178.847 101.5,180.5C 99.8958,179.713 99.2291,178.38 99.5,176.5 Z"/></g>
<g><path style="opacity:0.31" fill="#adadad" d="M 101.5,180.5 C 103.027,180.427 104.027,181.094 104.5,182.5C 102.973,182.573 101.973,181.906 101.5,180.5 Z"/></g>
<g><path style="opacity:0.328" fill="#ababab" d="M 396.5,181.5 C 396.082,182.222 395.416,182.722 394.5,183C 390.848,183.499 387.182,183.665 383.5,183.5C 387.657,182.551 391.99,181.884 396.5,181.5 Z"/></g>
<g><path style="opacity:1" fill="#bdc1cb" d="M 241.5,183.5 C 246.833,183.5 252.167,183.5 257.5,183.5C 257.5,249.833 257.5,316.167 257.5,382.5C 252.167,382.5 246.833,382.5 241.5,382.5C 241.5,316.167 241.5,249.833 241.5,183.5 Z"/></g>
<g><path style="opacity:0.254" fill="#adadad" d="M 383.5,183.5 C 383.5,249.5 383.5,315.5 383.5,381.5C 389.69,381.177 395.69,381.51 401.5,382.5C 401.5,382.833 401.5,383.167 401.5,383.5C 395.167,383.5 388.833,383.5 382.5,383.5C 382.168,316.665 382.501,249.998 383.5,183.5 Z"/></g>
<g><path style="opacity:1" fill="#ced0d9" d="M 274.5,183.5 C 304.833,183.5 335.167,183.5 365.5,183.5C 365.5,249.833 365.5,316.167 365.5,382.5C 335.167,382.5 304.833,382.5 274.5,382.5C 274.5,316.167 274.5,249.833 274.5,183.5 Z"/></g>
<g><path style="opacity:1" fill="#ced1da" d="M 124.5,183.5 C 157.5,183.5 190.5,183.5 223.5,183.5C 223.5,249.833 223.5,316.167 223.5,382.5C 193.5,382.5 163.5,382.5 133.5,382.5C 133.832,323.331 133.499,264.331 132.5,205.5C 131.069,201.277 128.069,199.277 123.5,199.5C 124.449,194.26 124.782,188.927 124.5,183.5 Z"/></g>
<g><path style="opacity:1" fill="#717179" d="M 241.5,183.5 C 246.975,182.511 252.642,182.178 258.5,182.5C 258.832,249.335 258.499,316.002 257.5,382.5C 257.5,316.167 257.5,249.833 257.5,183.5C 252.167,183.5 246.833,183.5 241.5,183.5 Z"/></g>
<g><path style="opacity:1" fill="#a9a9ae" d="M 104.5,182.5 C 144.5,182.5 184.5,182.5 224.5,182.5C 224.5,249.167 224.5,315.833 224.5,382.5C 224.167,382.5 223.833,382.5 223.5,382.5C 223.5,316.167 223.5,249.833 223.5,183.5C 190.5,183.5 157.5,183.5 124.5,183.5C 117.646,183.824 110.979,183.491 104.5,182.5 Z"/></g>
<g><path style="opacity:1" fill="#8b8b90" d="M 274.5,183.5 C 304.995,182.502 335.662,182.169 366.5,182.5C 366.5,249.5 366.5,316.5 366.5,383.5C 335.662,383.831 304.995,383.498 274.5,382.5C 304.833,382.5 335.167,382.5 365.5,382.5C 365.5,316.167 365.5,249.833 365.5,183.5C 335.167,183.5 304.833,183.5 274.5,183.5 Z"/></g>
<g><path style="opacity:0.323" fill="#b0b0b0" d="M 116.5,205.5 C 116.5,264.833 116.5,324.167 116.5,383.5C 109.492,383.334 102.492,383.5 95.5,384C 90.9652,387.91 90.2985,392.41 93.5,397.5C 91.0412,396.126 90.0412,393.96 90.5,391C 90.0386,387.455 91.3719,384.788 94.5,383C 101.411,381.616 108.411,381.116 115.5,381.5C 115.168,322.664 115.501,263.998 116.5,205.5 Z"/></g>
<g><path style="opacity:1" fill="#3a3a3b" d="M 153.5,208.5 C 158.946,207.339 163.113,209.006 166,213.5C 166.667,217.833 166.667,222.167 166,226.5C 161.032,234.1 155.698,234.433 150,227.5C 149.333,222.5 149.333,217.5 150,212.5C 151.376,211.295 152.542,209.962 153.5,208.5 Z"/></g>
<g><path style="opacity:1" fill="#383839" d="M 295.5,208.5 C 298.187,208.336 300.854,208.503 303.5,209C 305.333,209.5 306.5,210.667 307,212.5C 307.667,217.833 307.667,223.167 307,228.5C 304.045,232.277 300.212,233.443 295.5,232C 293.951,230.786 292.785,229.286 292,227.5C 291.333,222.5 291.333,217.5 292,212.5C 293.376,211.295 294.542,209.962 295.5,208.5 Z"/></g>
<g><path style="opacity:1" fill="#39393a" d="M 328.5,208.5 C 331.187,208.336 333.854,208.503 336.5,209C 338.667,209.833 340.167,211.333 341,213.5C 341.667,217.833 341.667,222.167 341,226.5C 337.984,232.372 333.484,233.872 327.5,231C 326.299,230.097 325.465,228.931 325,227.5C 324.333,222.833 324.333,218.167 325,213.5C 325.997,211.677 327.164,210.01 328.5,208.5 Z"/></g>
<g><path style="opacity:1" fill="#38383b" d="M 188.5,207.5 C 193.421,207.043 196.921,209.043 199,213.5C 200.245,219.706 199.412,225.539 196.5,231C 192.803,232.899 189.136,232.899 185.5,231C 184.809,229.933 184.309,228.766 184,227.5C 183.333,222.167 183.333,216.833 184,211.5C 185.397,209.93 186.897,208.596 188.5,207.5 Z"/></g>
<g><path style="opacity:1" fill="#3a3a3b" d="M 155.5,249.5 C 160.421,249.043 163.921,251.043 166,255.5C 166.667,259.833 166.667,264.167 166,268.5C 162.816,274.552 158.316,275.886 152.5,272.5C 151.416,271.335 150.583,270.002 150,268.5C 149.333,263.833 149.333,259.167 150,254.5C 151.352,252.251 153.185,250.584 155.5,249.5 Z"/></g>
<g><path style="opacity:1" fill="#383839" d="M 188.5,249.5 C 193.558,248.717 197.058,250.717 199,255.5C 199.667,259.833 199.667,264.167 199,268.5C 196.647,273.426 192.814,275.26 187.5,274C 185.951,272.786 184.785,271.286 184,269.5C 183.333,264.167 183.333,258.833 184,253.5C 185.397,251.93 186.897,250.596 188.5,249.5 Z"/></g>
<g><path style="opacity:1" fill="#3a3a3b" d="M 296.5,249.5 C 300.676,249.168 304.176,250.502 307,253.5C 307.667,259.167 307.667,264.833 307,270.5C 301.426,276.089 296.426,275.756 292,269.5C 291.333,264.5 291.333,259.5 292,254.5C 293.025,252.313 294.525,250.646 296.5,249.5 Z"/></g>
<g><path style="opacity:1" fill="#3a3a3b" d="M 329.5,249.5 C 334.814,248.74 338.647,250.74 341,255.5C 341.667,259.833 341.667,264.167 341,268.5C 338.323,273.923 334.156,275.59 328.5,273.5C 327.139,271.972 325.972,270.305 325,268.5C 324.333,263.833 324.333,259.167 325,254.5C 326.366,252.638 327.866,250.972 329.5,249.5 Z"/></g>
<g><path style="opacity:1" fill="#383839" d="M 295.5,291.5 C 300.126,290.7 303.96,292.034 307,295.5C 307.667,300.833 307.667,306.167 307,311.5C 301.966,316.766 296.966,316.766 292,311.5C 291.333,306.167 291.333,300.833 292,295.5C 293.376,294.295 294.542,292.962 295.5,291.5 Z"/></g>
<g><path style="opacity:1" fill="#39393a" d="M 329.5,291.5 C 335.086,290.271 338.919,292.271 341,297.5C 341.667,301.5 341.667,305.5 341,309.5C 338.646,315.095 334.479,316.928 328.5,315C 326.951,313.786 325.785,312.286 325,310.5C 324.333,305.833 324.333,301.167 325,296.5C 326.025,294.313 327.525,292.646 329.5,291.5 Z"/></g>
<g><path style="opacity:1" fill="#818287" d="M 184.5,294.5 C 183.608,299.438 183.274,304.438 183.5,309.5C 182.352,305.019 182.185,300.352 183,295.5C 183.383,294.944 183.883,294.611 184.5,294.5 Z"/></g>
<g><path style="opacity:1" fill="#373739" d="M 183.5,309.5 C 183.274,304.438 183.608,299.438 184.5,294.5C 194.082,288.961 199.082,291.794 199.5,303C 200.513,312.991 196.18,316.991 186.5,315C 184.84,313.512 183.84,311.679 183.5,309.5 Z"/></g>
<g><path style="opacity:1" fill="#3a3b3c" d="M 154.5,291.5 C 160.086,290.271 163.919,292.271 166,297.5C 167.091,303.097 166.424,308.43 164,313.5C 158.685,316.741 154.019,316.074 150,311.5C 149.333,306.167 149.333,300.833 150,295.5C 151.397,293.93 152.897,292.596 154.5,291.5 Z"/></g>
<g><path style="opacity:1" fill="#3b3b3c" d="M 155.5,332.5 C 163.553,332.723 167.219,336.89 166.5,345C 166.93,354.239 162.596,358.239 153.5,357C 150.069,353.778 148.735,349.778 149.5,345C 149.667,342.5 149.833,340 150,337.5C 151.73,335.598 153.563,333.931 155.5,332.5 Z"/></g>
<g><path style="opacity:1" fill="#383839" d="M 297.5,332.5 C 305.672,333.014 309.005,337.347 307.5,345.5C 309.037,352.958 306.037,356.958 298.5,357.5C 292.479,355.642 290.145,351.476 291.5,345C 291.667,342.5 291.833,340 292,337.5C 293.73,335.598 295.563,333.931 297.5,332.5 Z"/></g>
<g><path style="opacity:1" fill="#39393a" d="M 328.5,333.5 C 331.187,333.336 333.854,333.503 336.5,334C 338.667,334.833 340.167,336.333 341,338.5C 341.667,343.167 341.667,347.833 341,352.5C 335.412,359.035 330.079,359.035 325,352.5C 324.333,347.833 324.333,343.167 325,338.5C 325.997,336.677 327.164,335.01 328.5,333.5 Z"/></g>
<g><path style="opacity:1" fill="#383839" d="M 188.5,332.5 C 193.421,332.043 196.921,334.043 199,338.5C 200.245,344.706 199.412,350.539 196.5,356C 191.508,358.644 187.341,357.81 184,353.5C 183.333,347.833 183.333,342.167 184,336.5C 185.397,334.93 186.897,333.596 188.5,332.5 Z"/></g>
<g><path style="opacity:1" fill="#7f8185" d="M 132.5,205.5 C 133.499,264.331 133.832,323.331 133.5,382.5C 163.5,382.5 193.5,382.5 223.5,382.5C 223.833,382.5 224.167,382.5 224.5,382.5C 194.005,383.498 163.338,383.831 132.5,383.5C 132.5,324.167 132.5,264.833 132.5,205.5 Z"/></g>
<g><path style="opacity:0.188" fill="#dedede" d="M 401.5,383.5 C 401.5,383.167 401.5,382.833 401.5,382.5C 408.147,384.319 410.314,388.652 408,395.5C 407.617,396.056 407.117,396.389 406.5,396.5C 409.077,390.344 407.41,386.011 401.5,383.5 Z"/></g>
<g><path style="opacity:0.592" fill="#959595" d="M 93.5,397.5 C 98.3867,398.903 103.387,399.569 108.5,399.5C 108.827,409.015 108.494,418.348 107.5,427.5C 107.5,426.833 107.5,426.167 107.5,425.5C 107.5,417.167 107.5,408.833 107.5,400.5C 104.15,400.665 100.817,400.498 97.5,400C 95.6803,399.8 94.347,398.966 93.5,397.5 Z"/></g>
<g><path style="opacity:0.059" fill="#cccccc" d="M 405.5,397.5 C 404.653,398.966 403.32,399.8 401.5,400C 398.183,400.498 394.85,400.665 391.5,400.5C 391.5,400.167 391.5,399.833 391.5,399.5C 396.327,399.779 400.993,399.113 405.5,397.5 Z"/></g>
<g><path style="opacity:1" fill="#cdd0d9" d="M 360.5,463.5 C 359.207,464.842 358.374,466.509 358,468.5C 357.352,473.204 357.519,477.871 358.5,482.5C 333.167,482.5 307.833,482.5 282.5,482.5C 282.667,464.497 282.5,446.497 282,428.5C 280.167,422.667 276.333,418.833 270.5,417C 256.167,416.333 241.833,416.333 227.5,417C 222.667,419.167 219.167,422.667 217,427.5C 216.5,445.83 216.333,464.164 216.5,482.5C 190.811,483.157 165.478,482.491 140.5,480.5C 140.5,480.167 140.5,479.833 140.5,479.5C 141.161,477.866 141.494,476.033 141.5,474C 141.64,470.85 140.973,468.017 139.5,465.5C 136.836,458.334 131.836,453.667 124.5,451.5C 124.5,434.167 124.5,416.833 124.5,399.5C 207.833,399.5 291.167,399.5 374.5,399.5C 374.5,416.833 374.5,434.167 374.5,451.5C 367.851,453.162 363.185,457.162 360.5,463.5 Z"/></g>
<g><path style="opacity:0.522" fill="#858585" d="M 391.5,399.5 C 391.5,399.833 391.5,400.167 391.5,400.5C 391.5,408.833 391.5,417.167 391.5,425.5C 392.5,425.5 393.5,425.5 394.5,425.5C 393.739,426.391 392.739,427.058 391.5,427.5C 390.178,418.008 390.178,408.675 391.5,399.5 Z"/></g>
<g><path style="opacity:0.094" fill="#dddddd" d="M 415.5,426.5 C 411.695,425.733 407.861,425.067 404,424.5C 400.833,424.901 397.666,425.234 394.5,425.5C 397.382,424.087 400.549,423.421 404,423.5C 408.255,423.354 412.088,424.354 415.5,426.5 Z"/></g>
<g><path style="opacity:0.169" fill="#cccccc" d="M 107.5,425.5 C 107.5,426.167 107.5,426.833 107.5,427.5C 96.9432,422.932 86.9432,423.932 77.5,430.5C 80.7118,427.058 84.7118,424.891 89.5,424C 95.6097,423.268 101.61,423.768 107.5,425.5 Z"/></g>
<g><path style="opacity:1" fill="#383939" d="M 312.5,424.5 C 317.814,423.74 321.647,425.74 324,430.5C 324.667,434.833 324.667,439.167 324,443.5C 321.89,448.945 318.056,450.778 312.5,449C 310.951,447.786 309.785,446.286 309,444.5C 308.333,439.167 308.333,433.833 309,428.5C 310.376,427.295 311.542,425.962 312.5,424.5 Z"/></g>
<g><path style="opacity:1" fill="#38383a" d="M 179.5,424.5 C 183.676,424.168 187.176,425.502 190,428.5C 190.667,433.833 190.667,439.167 190,444.5C 184.67,451.311 179.67,450.977 175,443.5C 174.333,438.833 174.333,434.167 175,429.5C 176.707,427.963 178.207,426.296 179.5,424.5 Z"/></g>
<g><path style="opacity:1" fill="#383839" d="M 346.5,424.5 C 350.987,424.161 354.487,425.827 357,429.5C 357.851,435.253 357.517,440.92 356,446.5C 350.48,450.992 345.813,450.326 342,444.5C 341.333,439.5 341.333,434.5 342,429.5C 343.025,427.313 344.525,425.646 346.5,424.5 Z"/></g>
<g><path style="opacity:0.2" fill="#c7c7c7" d="M 415.5,426.5 C 417.674,426.75 419.341,427.75 420.5,429.5C 418.326,429.25 416.659,428.25 415.5,426.5 Z"/></g>
<g><path style="opacity:0.008" fill="#c2c2c2" d="M 420.5,429.5 C 423.5,430.5 425.5,432.5 426.5,435.5C 424.167,433.833 422.167,431.833 420.5,429.5 Z"/></g>
<g><path style="opacity:0.396" fill="#aaaaaa" d="M 77.5,430.5 C 76.1667,432.5 74.5,434.167 72.5,435.5C 73.1667,432.833 74.8333,431.167 77.5,430.5 Z"/></g>
<g><path style="opacity:1" fill="#373839" d="M 146.5,424.5 C 150.987,424.161 154.487,425.827 157,429.5C 157.667,434.5 157.667,439.5 157,444.5C 153.87,449.312 149.704,450.479 144.5,448C 143.54,446.581 142.707,445.081 142,443.5C 141.333,438.5 141.333,433.5 142,428.5C 143.397,426.93 144.897,425.596 146.5,424.5 Z"/></g>
<g><path style="opacity:1" fill="#35412a" d="M 411.5,443.5 C 406.133,440.9 400.8,440.9 395.5,443.5C 395.414,442.504 395.748,441.671 396.5,441C 398.715,440.31 400.882,439.476 403,438.5C 405.54,439.185 408.04,440.019 410.5,441C 411.252,441.671 411.586,442.504 411.5,443.5 Z"/></g>
<g><path style="opacity:0.851" fill="#7a7a7a" d="M 72.5,435.5 C 71.7023,437.966 70.369,439.966 68.5,441.5C 68.8449,438.802 70.1782,436.802 72.5,435.5 Z"/></g>
<g><path style="opacity:1" fill="#384728" d="M 120.5,467.5 C 109.781,467.025 105.281,461.358 107,450.5C 106.777,448.119 105.61,446.453 103.5,445.5C 101.749,442.088 98.9157,440.755 95,441.5C 93.1667,441.667 91.3333,441.833 89.5,442C 87.9625,443.707 86.2959,445.207 84.5,446.5C 84.3505,445.448 84.5172,444.448 85,443.5C 93.2968,437.438 100.63,438.438 107,446.5C 108.661,451.812 110.161,457.145 111.5,462.5C 114.631,464.274 117.631,465.941 120.5,467.5 Z"/></g>
<g><path style="opacity:1" fill="#87a859" d="M 103.5,445.5 C 100.478,444.074 97.3118,443.074 94,442.5C 92.8333,442.667 91.6667,442.833 90.5,443C 88.8863,445.127 86.8863,446.627 84.5,447.5C 84.5,447.167 84.5,446.833 84.5,446.5C 86.2959,445.207 87.9625,443.707 89.5,442C 91.3333,441.833 93.1667,441.667 95,441.5C 98.9157,440.755 101.749,442.088 103.5,445.5 Z"/></g>
<g><path style="opacity:1" fill="#3f3428" d="M 266.5,433.5 C 268.167,433.5 269.833,433.5 271.5,433.5C 271.646,435.942 270.813,436.609 269,435.5C 268.13,436.108 267.63,436.941 267.5,438C 267.244,452.3 267.577,466.633 268.5,481C 268.361,482.301 267.695,483.134 266.5,483.5C 266.5,466.833 266.5,450.167 266.5,433.5 Z"/></g>
<g><path style="opacity:1" fill="#8abb48" d="M 411.5,443.5 C 413.705,445.363 415.039,447.697 415.5,450.5C 415.62,454.042 415.286,457.542 414.5,461C 414.613,463.399 415.613,465.232 417.5,466.5C 419.391,469.172 422.058,470.172 425.5,469.5C 430.05,467.859 434.383,468.193 438.5,470.5C 440.663,475.419 439.33,478.919 434.5,481C 416.833,481.667 399.167,481.667 381.5,481C 381.454,478.564 381.121,476.064 380.5,473.5C 379.548,475.045 379.215,476.712 379.5,478.5C 378.325,478.719 377.325,478.386 376.5,477.5C 375.652,475.591 375.318,473.591 375.5,471.5C 375.557,470.391 375.89,469.391 376.5,468.5C 379.189,466.89 382.189,466.057 385.5,466C 386.056,465.617 386.389,465.117 386.5,464.5C 387.492,464.672 388.158,464.338 388.5,463.5C 389.79,462.942 390.623,461.942 391,460.5C 391.499,456.848 391.665,453.182 391.5,449.5C 392.441,447.228 393.774,445.228 395.5,443.5C 400.8,440.9 406.133,440.9 411.5,443.5 Z"/></g>
<g><path style="opacity:1" fill="#856b51" d="M 266.5,433.5 C 266.5,450.167 266.5,466.833 266.5,483.5C 255.167,483.5 243.833,483.5 232.5,483.5C 232.5,466.5 232.5,449.5 232.5,432.5C 244.012,432.172 255.346,432.505 266.5,433.5 Z"/></g>
<g><path style="opacity:1" fill="#8abc48" d="M 103.5,445.5 C 105.61,446.453 106.777,448.119 107,450.5C 105.281,461.358 109.781,467.025 120.5,467.5C 123.534,470.787 124.2,474.454 122.5,478.5C 120.856,478.714 119.356,478.38 118,477.5C 117.51,478.793 117.343,480.127 117.5,481.5C 98.8333,481.5 80.1667,481.5 61.5,481.5C 60.3995,480.395 59.7329,479.062 59.5,477.5C 59.3832,472.94 61.3832,469.606 65.5,467.5C 67.8178,468.949 69.8178,470.782 71.5,473C 73.9018,473.814 76.2351,473.647 78.5,472.5C 77.624,471.749 76.624,471.249 75.5,471C 78.2342,470.79 80.7342,469.956 83,468.5C 84.4204,461.95 84.9204,455.284 84.5,448.5C 84.5,448.167 84.5,447.833 84.5,447.5C 86.8863,446.627 88.8863,445.127 90.5,443C 91.6667,442.833 92.8333,442.667 94,442.5C 97.3118,443.074 100.478,444.074 103.5,445.5 Z"/></g>
<g><path style="opacity:1" fill="#be9569" d="M 233.5,433.5 C 244.167,433.5 254.833,433.5 265.5,433.5C 265.5,449.833 265.5,466.167 265.5,482.5C 254.833,482.5 244.167,482.5 233.5,482.5C 233.5,466.167 233.5,449.833 233.5,433.5 Z"/></g>
<g><path style="opacity:1" fill="#c08f5a" d="M 234.5,434.5 C 244.5,434.5 254.5,434.5 264.5,434.5C 264.667,449.837 264.5,465.17 264,480.5C 254.333,481.833 244.667,481.833 235,480.5C 234.5,465.17 234.333,449.837 234.5,434.5 Z"/></g>
<g><path style="opacity:1" fill="#38422d" d="M 391.5,449.5 C 391.665,453.182 391.499,456.848 391,460.5C 390.623,461.942 389.79,462.942 388.5,463.5C 389.939,459.647 389.606,455.981 387.5,452.5C 388.467,451.016 389.8,450.016 391.5,449.5 Z"/></g>
<g><path style="opacity:1" fill="#3f4f2c" d="M 415.5,450.5 C 416.259,455.698 416.925,461.031 417.5,466.5C 415.613,465.232 414.613,463.399 414.5,461C 415.286,457.542 415.62,454.042 415.5,450.5 Z"/></g>
<g><path style="opacity:0.067" fill="#d2d2d2" d="M 451.5,457.5 C 455.023,459.873 457.023,463.207 457.5,467.5C 455.503,464.175 453.503,460.841 451.5,457.5 Z"/></g>
<g><path style="opacity:0.051" fill="#d9d9d9" d="M 46.5,458.5 C 45.0834,461.669 43.4168,464.669 41.5,467.5C 41.8838,463.728 43.5505,460.728 46.5,458.5 Z"/></g>
<g><path style="opacity:1" fill="#36412c" d="M 439.5,468.5 C 436.141,466.513 432.475,466.013 428.5,467C 427.058,467.377 426.058,468.21 425.5,469.5C 422.058,470.172 419.391,469.172 417.5,466.5C 420.518,466.665 423.518,466.498 426.5,466C 427.529,464.302 429.029,463.468 431,463.5C 433.568,463.934 436.068,464.6 438.5,465.5C 439.386,466.325 439.719,467.325 439.5,468.5 Z"/></g>
<g><path style="opacity:1" fill="#3e4d27" d="M 386.5,464.5 C 386.389,465.117 386.056,465.617 385.5,466C 382.189,466.057 379.189,466.89 376.5,468.5C 376.414,467.504 376.748,466.671 377.5,466C 380.393,464.851 383.393,464.351 386.5,464.5 Z"/></g>
<g><path style="opacity:1" fill="#3f512b" d="M 84.5,446.5 C 84.5,446.833 84.5,447.167 84.5,447.5C 84.5,447.833 84.5,448.167 84.5,448.5C 83.6728,453.985 83.1728,459.652 83,465.5C 80.8227,467.527 78.3227,468.861 75.5,469.5C 72.5073,468.095 69.3406,467.095 66,466.5C 58.2222,467.364 56.0555,471.031 59.5,477.5C 59.7329,479.062 60.3995,480.395 61.5,481.5C 79.9925,482.497 98.6592,482.83 117.5,482.5C 98.674,483.497 79.674,483.83 60.5,483.5C 55.7715,478.031 55.4382,472.364 59.5,466.5C 65.1885,465.028 70.6885,465.362 76,467.5C 77.8773,466.747 79.7107,465.914 81.5,465C 82.3104,459.249 82.8104,453.416 83,447.5C 83.3826,446.944 83.8826,446.611 84.5,446.5 Z"/></g>
<g><path style="opacity:1" fill="#89b251" d="M 84.5,448.5 C 84.9204,455.284 84.4204,461.95 83,468.5C 80.7342,469.956 78.2342,470.79 75.5,471C 76.624,471.249 77.624,471.749 78.5,472.5C 76.2351,473.647 73.9018,473.814 71.5,473C 69.8178,470.782 67.8178,468.949 65.5,467.5C 61.3832,469.606 59.3832,472.94 59.5,477.5C 56.0555,471.031 58.2222,467.364 66,466.5C 69.3406,467.095 72.5073,468.095 75.5,469.5C 78.3227,468.861 80.8227,467.527 83,465.5C 83.1728,459.652 83.6728,453.985 84.5,448.5 Z"/></g>
<g><path style="opacity:1" fill="#7c7d82" d="M 139.5,465.5 C 140.973,468.017 141.64,470.85 141.5,474C 141.494,476.033 141.161,477.866 140.5,479.5C 140.563,474.797 140.229,470.13 139.5,465.5 Z"/></g>
<g><path style="opacity:1" fill="#91b65f" d="M 122.5,478.5 C 121.415,480.587 119.749,481.92 117.5,482.5C 98.6592,482.83 79.9925,482.497 61.5,481.5C 80.1667,481.5 98.8333,481.5 117.5,481.5C 117.343,480.127 117.51,478.793 118,477.5C 119.356,478.38 120.856,478.714 122.5,478.5 Z"/></g>
<g><path style="opacity:1" fill="#8db25c" d="M 439.5,468.5 C 442.905,474.378 441.571,478.878 435.5,482C 416.833,482.667 398.167,482.667 379.5,482C 374.872,479.601 373.539,476.101 375.5,471.5C 375.318,473.591 375.652,475.591 376.5,477.5C 377.325,478.386 378.325,478.719 379.5,478.5C 379.215,476.712 379.548,475.045 380.5,473.5C 381.121,476.064 381.454,478.564 381.5,481C 399.167,481.667 416.833,481.667 434.5,481C 439.33,478.919 440.663,475.419 438.5,470.5C 434.383,468.193 430.05,467.859 425.5,469.5C 426.058,468.21 427.058,467.377 428.5,467C 432.475,466.013 436.141,466.513 439.5,468.5 Z"/></g>
<g><path style="opacity:0.525" fill="#808080" d="M 41.5,479.5 C 42.4345,480.568 42.7678,481.901 42.5,483.5C 29.8289,483.333 17.1623,483.5 4.5,484C 3.75618,485.039 2.75618,485.539 1.5,485.5C 1.9528,484.542 2.61947,483.708 3.5,483C 16.1623,482.5 28.8289,482.333 41.5,482.5C 41.5,481.5 41.5,480.5 41.5,479.5 Z"/></g>
<g><path style="opacity:1" fill="#696a6e" d="M 140.5,480.5 C 165.478,482.491 190.811,483.157 216.5,482.5C 190.664,483.829 164.664,483.829 138.5,482.5C 138.855,481.478 139.522,480.811 140.5,480.5 Z"/></g>
<g><path style="opacity:1" fill="#6b6c70" d="M 360.5,463.5 C 359.692,466.959 359.025,470.459 358.5,474C 358.901,477.167 359.234,480.334 359.5,483.5C 333.661,483.831 307.995,483.498 282.5,482.5C 307.833,482.5 333.167,482.5 358.5,482.5C 357.519,477.871 357.352,473.204 358,468.5C 358.374,466.509 359.207,464.842 360.5,463.5 Z"/></g>
<g><path style="opacity:0.541" fill="#818181" d="M 457.5,479.5 C 457.5,480.5 457.5,481.5 457.5,482.5C 470.344,482.171 483.011,482.505 495.5,483.5C 482.5,483.5 469.5,483.5 456.5,483.5C 456.232,481.901 456.566,480.568 457.5,479.5 Z"/></g>
<g><path style="opacity:1" fill="#2f3a28" d="M 120.5,467.5 C 123.853,468.512 125.52,470.846 125.5,474.5C 125.158,476.867 124.658,479.2 124,481.5C 122.829,482.893 121.329,483.727 119.5,484C 99.6624,484.829 79.9957,484.662 60.5,483.5C 79.674,483.83 98.674,483.497 117.5,482.5C 119.749,481.92 121.415,480.587 122.5,478.5C 124.2,474.454 123.534,470.787 120.5,467.5 Z"/></g>
<g><path style="opacity:1" fill="#37442b" d="M 376.5,468.5 C 375.89,469.391 375.557,470.391 375.5,471.5C 373.539,476.101 374.872,479.601 379.5,482C 398.167,482.667 416.833,482.667 435.5,482C 441.571,478.878 442.905,474.378 439.5,468.5C 442.286,468.956 443.619,470.623 443.5,473.5C 443.757,478.378 441.757,481.878 437.5,484C 427.833,484.167 418.167,484.333 408.5,484.5C 397.445,484.62 386.445,484.12 375.5,483C 372.735,478.231 371.902,473.064 373,467.5C 374.011,468.337 375.178,468.67 376.5,468.5 Z"/></g>
<g><path style="opacity:0.212" fill="#b5b5b5" d="M 1.5,485.5 C 1.57298,487.027 0.906316,488.027 -0.5,488.5C -0.5,487.833 -0.5,487.167 -0.5,486.5C 0.166667,486.167 0.833333,485.833 1.5,485.5 Z"/></g>
<g><path style="opacity:0.22" fill="#b4b4b4" d="M 497.5,485.5 C 498.167,485.833 498.833,486.167 499.5,486.5C 499.5,487.167 499.5,487.833 499.5,488.5C 498.094,488.027 497.427,487.027 497.5,485.5 Z"/></g>
<g><path style="opacity:0.043" fill="#d4d4d4" d="M -0.5,493.5 C 1.16667,495.833 3.16667,497.833 5.5,499.5C 4.5,499.5 3.5,499.5 2.5,499.5C 1.83333,498.167 0.833333,497.167 -0.5,496.5C -0.5,495.5 -0.5,494.5 -0.5,493.5 Z"/></g>
<g><path style="opacity:0.004" fill="#dedede" d="M 499.5,493.5 C 499.5,494.5 499.5,495.5 499.5,496.5C 498.167,497.167 497.167,498.167 496.5,499.5C 495.5,499.5 494.5,499.5 493.5,499.5C 495.833,497.833 497.833,495.833 499.5,493.5 Z"/></g>
</svg>
