<?xml version="1.0" encoding="UTF-8"?>
<svg version="1.1" xmlns="http://www.w3.org/2000/svg" width="500" height="500">
<path d="M0 0 C6.80589635 6.27098477 12.2558332 14.69794081 13.4609375 24.02734375 C13.56872839 26.96663503 13.55548224 29.89912266 13.5234375 32.83984375 C13.51892578 33.62810547 13.51441406 34.41636719 13.50976562 35.22851562 C13.49805062 37.16149136 13.48011748 39.09442768 13.4609375 41.02734375 C14.3065625 41.11371094 15.1521875 41.20007812 16.0234375 41.2890625 C24.94931952 42.39465471 31.31629983 44.14863614 37.2734375 51.08984375 C37.9953125 52.05921875 38.7171875 53.02859375 39.4609375 54.02734375 C40.0590625 54.81109375 40.6571875 55.59484375 41.2734375 56.40234375 C41.6653125 56.93859375 42.0571875 57.47484375 42.4609375 58.02734375 C43.4509375 57.69734375 44.4409375 57.36734375 45.4609375 57.02734375 C47.89874127 56.87465194 50.31377651 56.77051678 52.75390625 56.7109375 C53.45993484 56.6901564 54.16596344 56.66937531 54.89338684 56.64796448 C57.14497301 56.58266884 59.39667412 56.52367728 61.6484375 56.46484375 C63.1764441 56.4216395 64.70443914 56.37802459 66.23242188 56.33398438 C69.97514312 56.22700801 73.7179798 56.12568453 77.4609375 56.02734375 C77.03651367 55.04894531 77.03651367 55.04894531 76.60351562 54.05078125 C72.90766969 45.24310622 71.80413954 37.77642549 75.1484375 28.58984375 C78.47149649 21.31629504 84.86114552 15.85062708 92.26953125 12.9140625 C101.70862697 10.29144961 110.32528436 11.40876542 118.81640625 16.16015625 C122.72674495 18.92107486 125.6719344 22.15809297 128.4609375 26.02734375 C129.1828125 25.07859375 129.9046875 24.12984375 130.6484375 23.15234375 C132.95903648 20.35321813 134.90905202 19.04216817 138.4609375 18.02734375 C138.4609375 17.36734375 138.4609375 16.70734375 138.4609375 16.02734375 C146.07135078 11.40747228 153.73132843 10.85980344 162.4609375 12.02734375 C169.54666063 14.24365441 175.28393866 17.58109481 179.34765625 23.8984375 C183.96325966 32.72476683 184.79706618 40.99828053 182.0234375 50.58984375 C180.65218174 54.83609951 180.65218174 54.83609951 179.4609375 56.02734375 C180.41871094 56.03668945 181.37648438 56.04603516 182.36328125 56.05566406 C185.94951246 56.09582712 189.53490929 56.161655 193.12060547 56.23486328 C194.66639407 56.26292162 196.21232211 56.28421081 197.75830078 56.29833984 C214.37008291 56.45920281 214.37008291 56.45920281 220.4609375 61.02734375 C225.13384939 66.78146822 225.10237324 72.24454516 225.0234375 79.46484375 C225.04728516 80.46322266 225.07113281 81.46160156 225.09570312 82.49023438 C225.08237928 89.24542589 223.88925244 93.83350879 219.4609375 99.02734375 C215.7116349 102.1036946 213.19569354 102.13154746 208.4609375 102.02734375 C208.26171118 106.43790799 208.11735184 110.84602761 208.02148438 115.25976562 C207.98148983 116.75762591 207.92706986 118.25517854 207.85742188 119.75195312 C207.24890547 128.61237928 207.24890547 128.61237928 210.19165039 136.71191406 C212.26634924 138.83456983 212.26634924 138.83456983 214.49047852 140.49121094 C218.45128291 143.57897964 220.5327436 148.14354212 221.4609375 153.02734375 C222.10675483 162.92594717 220.83941 172.12135849 218.79296875 181.78125 C218.51281624 183.1391803 218.23334533 184.49725138 217.95451355 185.85545349 C217.37282557 188.67171705 216.7807921 191.48554994 216.18139648 194.2980957 C215.41689283 197.89116039 214.68279558 201.48970009 213.956563 205.09066868 C213.3890683 207.88426397 212.80395822 210.67394895 212.2136898 213.46281242 C211.80138004 215.42864618 211.40525455 217.39785221 211.00947571 219.36708069 C208.56209652 230.6270734 208.56209652 230.6270734 203.4609375 234.02734375 C202.4709375 234.02734375 201.4809375 234.02734375 200.4609375 234.02734375 C200.34878906 235.26742187 200.23664063 236.5075 200.12109375 237.78515625 C199.47658011 243.58918911 198.1966344 249.21500497 196.8984375 254.90234375 C196.43597048 256.9407659 195.97620653 258.97980375 195.51953125 261.01953125 C195.31642334 261.9101123 195.11331543 262.80069336 194.90405273 263.71826172 C194.36670637 266.12651484 194.36670637 266.12651484 194.4609375 269.02734375 C194.9559375 269.41921875 195.4509375 269.81109375 195.9609375 270.21484375 C197.91341161 272.5740833 197.93565242 274.461248 197.80859375 277.4609375 C195.83315572 292.04366545 189.2862993 304.13770622 178.4609375 314.02734375 C166.04038454 323.0926544 154.96062342 326.18516946 139.82220459 326.15864563 C138.75015943 326.16076134 137.67811427 326.16287706 136.57358289 326.16505688 C132.98101113 326.17104875 129.38847458 326.17005731 125.79589844 326.16918945 C123.22013794 326.17222148 120.64437799 326.17574305 118.06861877 326.17971802 C112.52097329 326.18782012 106.97333238 326.19277111 101.42568207 326.19600868 C92.65154596 326.20151511 83.87744852 326.21842262 75.10333252 326.23735046 C72.09899527 326.24370678 69.09465793 326.25001528 66.09032059 326.25632763 C64.964158 326.25870327 64.964158 326.25870327 63.81524466 326.26112691 C55.27413072 326.27905388 46.73301407 326.29528491 38.19189453 326.31030273 C37.41137896 326.31167861 36.63086339 326.31305448 35.82669583 326.31447204 C23.1820758 326.33639599 10.53746578 326.34715737 -2.1071699 326.35467348 C-15.10033554 326.36275254 -28.09341559 326.38606753 -41.08653235 326.42262715 C-49.09444398 326.44461607 -57.10217945 326.4543279 -65.11011973 326.44812682 C-71.25155921 326.44456861 -77.39278021 326.46185731 -83.53416634 326.48680496 C-86.04877602 326.49371897 -88.56341513 326.4938411 -91.07802391 326.48660469 C-94.51648546 326.47771035 -97.95400944 326.49342117 -101.39239502 326.51509094 C-102.38249329 326.50664841 -103.37259156 326.49820587 -104.3926928 326.4895075 C-111.96707528 326.57749794 -118.89101293 328.15042661 -124.94140625 332.921875 C-130.38909815 339.72802442 -133.15006889 345.38745558 -132.89453125 354.24609375 C-132.09287458 360.51839651 -129.13186576 366.67626698 -124.5390625 371.02734375 C-117.40628737 375.60182581 -111.36205824 376.75082133 -102.9992981 376.65312195 C-101.87876632 376.66006649 -100.75823454 376.66701104 -99.60374725 376.67416602 C-95.87105977 376.69134874 -92.13940838 376.67315999 -88.40673828 376.6550293 C-85.72210107 376.66021019 -83.03753819 376.66737769 -80.35292053 376.67706299 C-74.58371807 376.69403919 -68.81474552 376.69312103 -63.04553604 376.68005943 C-54.70004642 376.6613669 -46.35479391 376.67222921 -38.00931285 376.690536 C-24.46159669 376.7196434 -10.91395423 376.72804598 2.63378906 376.72192383 C15.77930542 376.71605488 28.92479699 376.71499949 42.0703125 376.72387695 C42.88087345 376.72441952 43.69143439 376.7249621 44.52655779 376.72552111 C53.37371799 376.73168618 62.22087196 376.74041632 71.06802559 376.75287342 C72.23381278 376.75451215 72.23381278 376.75451215 73.42315123 376.75618399 C76.52966909 376.76060291 79.6361868 376.76507676 82.74270405 376.7699096 C91.83778171 376.78403413 100.93277596 376.79005363 110.02786191 376.78137372 C115.72738996 376.77619696 121.42689034 376.77755415 127.12641697 376.78407677 C130.41605109 376.78752889 133.70558102 376.78645337 136.99521065 376.77884865 C140.55790458 376.77100568 144.12038464 376.7752557 147.68307495 376.78251648 C149.24870943 376.77449848 149.24870943 376.77449848 150.8459729 376.7663185 C151.79873709 376.7707005 152.75150129 376.7750825 153.73313713 376.77959728 C154.55550672 376.77916524 155.37787632 376.7787332 156.2251662 376.77828807 C158.73059231 377.05738218 160.33213507 377.69065821 162.4609375 379.02734375 C163.86028763 381.82604402 163.71359155 383.93233167 163.4609375 387.02734375 C162.16010796 389.30379544 160.95149819 389.87349927 158.48046875 390.6484375 C156.48660037 391.16013824 154.47420805 391.59828609 152.4609375 392.02734375 C153.04101562 392.73697266 153.04101562 392.73697266 153.6328125 393.4609375 C162.18650479 404.3224329 164.28675076 414.30382878 163.4609375 428.02734375 C161.54518748 438.91845806 155.62189341 448.65832271 147.4609375 456.02734375 C135.58533077 464.31815962 124.60765023 466.26822647 110.4609375 465.02734375 C99.3157394 462.89803142 89.53085847 455.56165741 82.9609375 446.46484375 C75.92238178 435.0271907 73.63133806 423.6458094 76.14453125 410.43359375 C78.18847133 403.17379 81.10653589 397.38174536 86.4609375 392.02734375 C47.8509375 392.02734375 9.2409375 392.02734375 -30.5390625 392.02734375 C-28.5590625 395.32734375 -26.5790625 398.62734375 -24.5390625 402.02734375 C-19.73344277 412.13571629 -18.47595103 424.11218343 -22.1640625 434.83984375 C-28.12982814 448.92742367 -36.12955866 457.74808987 -50.25 463.63671875 C-54.75953057 465.28571444 -58.95428243 465.56636883 -63.7265625 465.52734375 C-64.55663818 465.52089844 -65.38671387 465.51445312 -66.24194336 465.5078125 C-78.38744863 465.15062631 -87.87684728 460.46906622 -96.5390625 452.02734375 C-105.70557886 442.1743482 -108.887228 430.75391498 -108.75 417.59375 C-108.19175986 408.15535651 -104.29056462 398.77884587 -97.5390625 392.02734375 C-98.09255371 391.98770508 -98.64604492 391.94806641 -99.21630859 391.90722656 C-114.77711245 390.73490377 -127.13702259 389.09946223 -138.29296875 377.1484375 C-145.52473234 368.17670072 -148.2707136 357.8332873 -147.3203125 346.39453125 C-145.5442936 335.49933839 -140.20627177 326.82617258 -131.5390625 320.02734375 C-123.28892591 315.09384499 -116.84809252 312.8550669 -107.2890625 312.96484375 C-106.54398437 312.96935547 -105.79890625 312.97386719 -105.03125 312.97851562 C-103.2004861 312.99025129 -101.36976377 313.00818525 -99.5390625 313.02734375 C-99.8690625 312.36734375 -100.1990625 311.70734375 -100.5390625 311.02734375 C-100.75257605 309.60349311 -100.91739462 308.17217837 -101.05673218 306.73916626 C-101.14632706 305.83764328 -101.23592194 304.9361203 -101.32823181 304.00727844 C-101.42278152 303.01439316 -101.51733124 302.02150787 -101.61474609 300.99853516 C-101.71736252 299.95391617 -101.81997894 298.90929718 -101.92570496 297.83302307 C-102.26691085 294.34868945 -102.60230121 290.86382253 -102.9375 287.37890625 C-103.17522987 284.93449252 -103.41324104 282.49010614 -103.65151978 280.04574585 C-104.15331964 274.8891347 -104.65237591 269.73226756 -105.14941406 264.57519531 C-105.77599458 258.07520955 -106.4081155 251.57577867 -107.04214859 245.07651615 C-109.27093482 222.21539775 -111.49594937 199.35687469 -113.34399033 176.4614048 C-114.57573658 161.21065931 -116.04496886 145.98720923 -117.59130859 130.76538086 C-117.89421398 127.78142824 -118.19249289 124.79706708 -118.48681641 121.81225586 C-120.55594712 83.27842773 -120.55594712 83.27842773 -140.78125 52.16796875 C-150.14743317 45.1657743 -160.2975216 40.96854457 -172.01171875 40.8515625 C-173.24083984 40.82771484 -174.46996094 40.80386719 -175.73632812 40.77929688 C-178.31688774 40.73626582 -180.89767095 40.70504948 -183.47851562 40.68554688 C-185.32026367 40.64397461 -185.32026367 40.64397461 -187.19921875 40.6015625 C-188.31949463 40.58697998 -189.43977051 40.57239746 -190.59399414 40.55737305 C-194.1713442 39.91355087 -195.35966337 38.88851528 -197.5390625 36.02734375 C-198.1015625 33.02734375 -198.1015625 33.02734375 -197.5390625 30.02734375 C-195.38608695 27.59316323 -193.64316479 26.20708424 -190.38549805 25.67675781 C-187.77897041 25.55869483 -185.20968356 25.57687728 -182.6015625 25.65234375 C-181.66441406 25.66885986 -180.72726563 25.68537598 -179.76171875 25.70239258 C-157.46719907 26.25937277 -139.24471309 32.742683 -123.5390625 49.02734375 C-108.29811145 67.25333983 -108.13054702 90.4360955 -105.5390625 113.02734375 C-105.38325714 112.14317024 -105.38325714 112.14317024 -105.2243042 111.24113464 C-104.13261992 105.05744013 -103.02699942 98.87634922 -101.91357422 92.6965332 C-101.50087823 90.39572886 -101.0916349 88.09430224 -100.68603516 85.79223633 C-100.09944227 82.4665285 -99.50010392 79.14332232 -98.8984375 75.8203125 C-98.72221863 74.80527145 -98.54599976 73.79023041 -98.36444092 72.74443054 C-96.48403007 62.49812846 -94.37351527 52.42230266 -85.5390625 46.02734375 C-79.71021215 42.54282078 -74.26177754 41.4541828 -67.5390625 41.02734375 C-67.57386719 40.32351562 -67.60867187 39.6196875 -67.64453125 38.89453125 C-67.99941035 25.94989346 -66.08265251 14.15485775 -57.5390625 4.02734375 C-40.99224902 -11.95353637 -18.7354527 -14.55600556 0 0 Z M-49.5390625 16.02734375 C-55.37115204 24.13295973 -53.5390625 31.654558 -53.5390625 42.02734375 C-35.7190625 42.02734375 -17.8990625 42.02734375 0.4609375 42.02734375 C0.69080644 23.73913673 0.69080644 23.73913673 -9.015625 10.203125 C-14.83090605 5.18902044 -21.40076451 3.26962347 -29.03125 3.65234375 C-37.86056482 4.97261512 -44.08274121 9.03721786 -49.5390625 16.02734375 Z M-66.5390625 87.02734375 C-67.79899128 90.21916334 -67.7180719 91.56402531 -66.4765625 94.77734375 C-64.66415748 97.23691846 -64.66415748 97.23691846 -61.6640625 98.15234375 C-58.36792756 98.30296046 -58.36792756 98.30296046 -55.6015625 95.96484375 C-53.23977582 93.19929755 -53.23977582 93.19929755 -53.5390625 89.90234375 C-54.76495458 86.34349142 -54.76495458 86.34349142 -57.5390625 84.02734375 C-61.53070725 83.41324456 -63.73231828 84.12035867 -66.5390625 87.02734375 Z M2.2109375 85.65234375 C0.24107916 87.95042961 0.24107916 87.95042961 -0.0390625 91.02734375 C0.26002979 94.0871886 0.26002979 94.0871886 2.0859375 96.46484375 C4.41353308 98.30787717 4.41353308 98.30787717 7.5234375 98.02734375 C10.88352608 96.88348381 11.88558688 96.178045 13.4609375 93.02734375 C14.12760417 90.52734375 14.12760417 90.52734375 13.4609375 88.02734375 C11.29427083 85.61067708 11.29427083 85.61067708 8.4609375 84.02734375 C4.53881525 83.63701671 4.53881525 83.63701671 2.2109375 85.65234375 Z " fill="#0E0E0D" transform="translate(236.5390625,21.97265625)"/>
<path d="M0 0 C37.95463491 -0.09155842 75.90925318 -0.16204019 113.86397618 -0.20426132 C118.34502727 -0.20926414 122.82607814 -0.21444143 127.30712891 -0.21972656 C128.64527191 -0.22130043 128.64527191 -0.22130043 130.0104481 -0.22290608 C144.45453076 -0.24031061 158.89854974 -0.27184857 173.34259462 -0.30861118 C188.16387192 -0.34601927 202.98511587 -0.36823557 217.80643845 -0.37635398 C226.95177247 -0.38184203 236.09692647 -0.39917462 245.24220508 -0.43166587 C251.51374224 -0.45281211 257.78518634 -0.4591998 264.05675656 -0.45400551 C267.67499721 -0.45144389 271.29292331 -0.45536649 274.91110802 -0.4768219 C278.83644392 -0.49992835 282.76137111 -0.49194463 286.68676758 -0.48101807 C288.39690379 -0.49849512 288.39690379 -0.49849512 290.14158821 -0.51632524 C297.97589216 -0.45732187 303.62709837 0.62709837 309.375 6.375 C314.27192185 14.28541223 312.85195452 21.58090412 310.87890625 30.296875 C310.44475435 32.11569961 310.00583776 33.93339259 309.5625 35.75 C307.78948621 43.23850935 306.3625967 50.59841952 305.39453125 58.234375 C304.91386977 61.60376442 303.98267625 64.74488493 303 68 C301.19185117 75.72797855 300.75114255 83.07803776 301 91 C301.99 91.33 302.98 91.66 304 92 C303.35878448 99.09759249 302.02901718 105.87134523 300.4375 112.8125 C299.97398094 114.83895935 299.51418756 116.86627543 299.05859375 118.89453125 C298.85548584 119.77987549 298.65237793 120.66521973 298.44311523 121.57739258 C297.88005104 124.24532061 297.88005104 124.24532061 298 128 C296.88625 128.20625 295.7725 128.4125 294.625 128.625 C293.42875 129.07875 292.2325 129.5325 291 130 C289.7956425 132.77239444 289.7956425 132.77239444 289 136 C284.55020465 150.9877198 277.83218697 161.18219338 263.94140625 168.73828125 C256.95112233 171.73676957 250.5411529 172.28912245 243.04052734 172.24050903 C241.57857138 172.24307231 241.57857138 172.24307231 240.08708096 172.24568737 C236.83662388 172.24896925 233.58637541 172.23799996 230.3359375 172.22705078 C227.99981186 172.22648639 225.66368586 172.22680378 223.32756042 172.22793579 C216.99556031 172.2285092 210.66363609 172.2167567 204.33165359 172.20278788 C198.38170679 172.19154654 192.43176286 172.18954056 186.48180687 172.18748413 C174.70091035 172.18311263 162.92004161 172.16981834 151.13916016 172.15087891 C139.69873188 172.13250599 128.25831116 172.1183564 116.81787109 172.10986328 C116.11205493 172.10933783 115.40623877 172.10881239 114.67903423 172.10827102 C111.13797447 172.10566084 107.59691465 172.10313345 104.0558548 172.10064721 C74.7038853 172.07993168 45.35194294 172.04457178 16 172 C15.24749303 167.64914067 14.76526687 163.40165716 14.5 158.9921875 C14.37625 157.01798828 14.37625 157.01798828 14.25 155.00390625 C14.12395391 152.93251597 13.99916413 150.8610547 13.875 148.78955078 C13.75307939 146.77357443 13.62659866 144.75787549 13.5 142.7421875 C13.39171875 140.94563721 13.39171875 140.94563721 13.28125 139.11279297 C13.05351302 136.59226651 12.65891434 134.42469796 12 132 C11.84504866 129.7101635 11.72510534 127.41788901 11.625 125.125 C11.28502852 118.58073838 10.51745651 112.16844029 9.5625 105.6875 C8.39011152 97.61268311 7.60146107 89.57842489 7.0625 81.4375 C6.31869997 70.27641721 5.2277376 59.17844602 4 48.0625 C3.9121524 47.26459045 3.82430481 46.46668091 3.73379517 45.64459229 C3.30969248 41.79602602 2.88323006 37.94772712 2.45507812 34.09960938 C1.87028756 28.83892331 1.29725454 23.57723377 0.75 18.3125 C0.67007813 17.58490479 0.59015625 16.85730957 0.5078125 16.10766602 C0.11805911 12.30711933 -0.03349411 8.56876284 -0.01855469 4.74682617 C-0.01587585 3.85525314 -0.01319702 2.96368011 -0.01043701 2.04508972 C-0.0069928 1.37021011 -0.00354858 0.69533051 0 0 Z " fill="#F9C942" transform="translate(133,164)"/>
<path d="M0 0 C0.93509903 -0.01283524 1.87019806 -0.02567047 2.83363342 -0.03889465 C4.36315895 -0.04997505 4.36315895 -0.04997505 5.92358398 -0.0612793 C6.9686058 -0.06935104 8.01362762 -0.07742279 9.09031677 -0.08573914 C11.31051972 -0.09960397 13.5307442 -0.11031532 15.75097656 -0.11816406 C19.13119743 -0.13530294 22.51042164 -0.17915936 25.89038086 -0.22338867 C28.0472747 -0.23352171 30.20417688 -0.2420359 32.36108398 -0.2487793 C33.36659805 -0.26628738 34.37211212 -0.28379547 35.40809631 -0.30183411 C42.95539239 -0.27876583 48.55248544 1.12230966 53.98217773 6.55200195 C58.87909959 14.46241418 57.45913226 21.75790608 55.48608398 30.47387695 C55.05193208 32.29270157 54.61301549 34.11039454 54.16967773 35.92700195 C52.39666395 43.4155113 50.96977443 50.77542148 50.00170898 58.41137695 C49.5210475 61.78076637 48.58985398 64.92188689 47.60717773 68.17700195 C45.79902891 75.9049805 45.35832028 83.25503971 45.60717773 91.17700195 C46.59717773 91.50700195 47.58717773 91.83700195 48.60717773 92.17700195 C47.96596221 99.27459444 46.63619492 106.04834718 45.04467773 112.98950195 C44.58115868 115.0159613 44.12136529 117.04327738 43.66577148 119.0715332 C43.46266357 119.95687744 43.25955566 120.84222168 43.05029297 121.75439453 C42.48722877 124.42232257 42.48722877 124.42232257 42.60717773 128.17700195 C41.49342773 128.38325195 40.37967773 128.58950195 39.23217773 128.80200195 C38.03592773 129.25575195 36.83967773 129.70950195 35.60717773 130.17700195 C34.40282024 132.9493964 34.40282024 132.9493964 33.60717773 136.17700195 C29.15738238 151.16472176 22.4393647 161.35919533 8.54858398 168.9152832 C1.55830007 171.91377152 -4.85166937 172.4661244 -12.35229492 172.41751099 C-13.81425088 172.42007426 -13.81425088 172.42007426 -15.30574131 172.42268932 C-18.55619838 172.42597121 -21.80644686 172.41500192 -25.05688477 172.40405273 C-27.39301041 172.40348834 -29.7291364 172.40380573 -32.06526184 172.40493774 C-38.39726196 172.40551115 -44.72918618 172.39375865 -51.06116867 172.37978983 C-57.01111547 172.36854849 -62.9610594 172.36654252 -68.91101539 172.36448608 C-80.69191192 172.36011458 -92.47278066 172.34682029 -104.25366211 172.32788086 C-115.69409039 172.30950794 -127.13451111 172.29535835 -138.57495117 172.28686523 C-139.28076734 172.28633979 -139.9865835 172.28581434 -140.71378803 172.28527297 C-144.2548478 172.2826628 -147.79590761 172.2801354 -151.33696747 172.27764916 C-180.68893697 172.25693363 -210.04087932 172.22157374 -239.39282227 172.17700195 C-240.23678521 167.35460876 -240.67881012 162.60103969 -240.92797852 157.71606445 C-240.97095566 156.92549652 -241.0139328 156.13492859 -241.05821228 155.32040405 C-241.19372453 152.81442698 -241.3245938 150.30823267 -241.45532227 147.80200195 C-241.54681173 146.0949542 -241.63860544 144.38792272 -241.73071289 142.6809082 C-241.95493673 138.51311954 -242.17499906 134.34512983 -242.39282227 130.17700195 C-240.41282227 131.16700195 -238.43282227 132.15700195 -236.39282227 133.17700195 C-236.39282227 133.83700195 -236.39282227 134.49700195 -236.39282227 135.17700195 C-235.79856445 135.33555664 -235.20430664 135.49411133 -234.59204102 135.6574707 C-229.91390997 136.97433185 -225.57897486 138.48677907 -221.20532227 140.61450195 C-203.76728242 148.77021441 -184.19746552 150.72392256 -165.20532227 150.55200195 C-163.92845551 150.54801392 -163.92845551 150.54801392 -162.62579346 150.54394531 C-150.96221963 150.50122661 -139.59928368 149.97036225 -128.10375977 147.83325195 C-125.07861758 147.29827944 -122.44580843 147.03219629 -119.39282227 147.17700195 C-119.39282227 146.51700195 -119.39282227 145.85700195 -119.39282227 145.17700195 C-113.94782227 144.18700195 -113.94782227 144.18700195 -108.39282227 143.17700195 C-108.39282227 142.51700195 -108.39282227 141.85700195 -108.39282227 141.17700195 C-107.63098633 141.03004883 -106.86915039 140.8830957 -106.08422852 140.73168945 C-99.67053576 139.33845282 -94.86407662 137.60766206 -89.56469727 133.73950195 C-87.26945895 132.08825137 -84.9210898 130.68408821 -82.45532227 129.30200195 C-81.72442383 128.89208008 -80.99352539 128.4821582 -80.24047852 128.05981445 C-78.39282227 127.17700195 -78.39282227 127.17700195 -76.39282227 127.17700195 C-76.39282227 126.51700195 -76.39282227 125.85700195 -76.39282227 125.17700195 C-74.71313477 123.88793945 -74.71313477 123.88793945 -72.51782227 122.55200195 C-71.79852539 122.10598633 -71.07922852 121.6599707 -70.33813477 121.20043945 C-68.39282227 120.17700195 -68.39282227 120.17700195 -66.39282227 120.17700195 C-66.08344727 119.55825195 -65.77407227 118.93950195 -65.45532227 118.30200195 C-64.76782227 116.92700195 -64.08032227 115.55200195 -63.39282227 114.17700195 C-62.46469727 113.88825195 -61.53657227 113.59950195 -60.58032227 113.30200195 C-56.20398399 111.75741197 -54.24571561 109.66029473 -51.95532227 105.67700195 C-50.39282227 103.17700195 -50.39282227 103.17700195 -48.05688477 101.3371582 C-45.33448424 99.12969854 -43.35626589 96.87286872 -41.20532227 94.11450195 C-40.53114258 93.25727539 -39.85696289 92.40004883 -39.16235352 91.5168457 C-37.84814001 89.7790667 -36.60138569 87.98984708 -35.39282227 86.17700195 C-34.73282227 86.17700195 -34.07282227 86.17700195 -33.39282227 86.17700195 C-33.31032227 85.45512695 -33.22782227 84.73325195 -33.14282227 83.98950195 C-32.22496882 80.54755155 -30.67758574 78.90602499 -28.39282227 76.17700195 C-25.30210338 71.76440638 -22.94968142 67.43414344 -21.19750977 62.3449707 C-20.28049965 59.87438521 -19.16067011 57.55142806 -18.01782227 55.17700195 C-11.09504504 40.12204667 -7.5055575 23.78990017 -6.03857422 7.359375 C-5.37780764 0.06406404 -5.37780764 0.06406404 0 0 Z " fill="#FDDE8C" transform="translate(388.392822265625,163.822998046875)"/>
<path d="M0 0 C0.21665549 3.06627706 0.37459318 6.11727238 0.5 9.1875 C0.60054687 10.48397461 0.60054687 10.48397461 0.703125 11.80664062 C0.78328262 14.42178307 0.74745652 16.48802829 0 19 C-1.89181104 20.76601424 -3.74303283 21.82764282 -6.04492188 22.99926758 C-9.81480574 24.92893216 -11.50293903 28.16421245 -13 32 C-14.11987794 37.66876269 -13.01725756 42.29315827 -10.203125 47.27734375 C-7.39220971 51.30206337 -3.68741405 53.72161435 1 55 C7.54988644 55.82973609 12.53377154 54.73869399 18 51 C21.61232753 47.38767247 22.91377944 42.82168578 23.15234375 37.78125 C22.8636066 30.63579751 22.8636066 30.63579751 19.8125 24.375 C16.69454033 21.55304179 16.69454033 21.55304179 11 19 C11 12.73 11 6.46 11 0 C29.15 0 47.3 0 66 0 C66 6.27 66 12.54 66 19 C63.36 20.65 60.72 22.3 58 24 C54.31505671 27.77706687 53.70420142 30.81970182 53.5 35.9375 C53.73356332 42.22813863 54.95667059 45.95667059 59.49609375 50.49609375 C64.29914935 54.72422 68.18913678 55.3584639 74.36328125 55.27734375 C78.49904711 54.84232245 81.68745304 53.50162322 85 51 C90.27434662 44.37325681 90.79598898 38.24339273 90 30 C87.1615462 24.22171906 83.63094031 21.81547015 78 19 C78 12.73 78 6.46 78 0 C88.6539514 0 88.6539514 0 93.35693359 3.99316406 C96.4800588 7.80773898 97.05205821 12.10889939 97.8125 16.875 C98.10120972 18.44121094 98.10120972 18.44121094 98.39575195 20.0390625 C99.92482099 28.63629976 101.06505715 37.30042207 102.01293945 45.97998047 C102.45784368 50.02843447 102.96353212 53.85472386 103.95703125 57.8125 C105.44260425 63.77704777 106.13071573 69.9150101 107 76 C62.12 76 17.24 76 -29 76 C-27.875 62.5 -27.875 62.5 -26.9375 57.25 C-26.76089844 56.24453125 -26.58429688 55.2390625 -26.40234375 54.203125 C-26.26957031 53.47609375 -26.13679687 52.7490625 -26 52 C-25.34 52 -24.68 52 -24 52 C-24.0311792 51.32372559 -24.0623584 50.64745117 -24.09448242 49.95068359 C-24.30220917 41.67611975 -23.24559686 33.84673912 -21.71118164 25.75244141 C-21.30976827 23.61042295 -20.94050481 21.46434612 -20.57226562 19.31640625 C-20.31702732 17.93193574 -20.05993177 16.54780605 -19.80078125 15.1640625 C-19.57559814 13.93123535 -19.35041504 12.6984082 -19.1184082 11.42822266 C-17.55464491 6.63486659 -15.11164832 3.25557468 -10.6875 0.625 C-7.0646646 -0.21751986 -3.72023238 -0.03792286 0 0 Z " fill="#06AD88" transform="translate(171,76)"/>
<path d="M0 0 C6.80883638 1.30124429 12.49426338 6.75600092 16.74609375 12.02734375 C21.31599106 19.21674605 22.19963722 28.08178973 20.53125 36.3125 C17.94393932 45.18327948 13.23210776 52.01633312 5.27734375 56.78125 C-2.84426974 61.12763664 -10.54496986 62.56260096 -19.7109375 60.34375 C-28.07621596 57.35798907 -34.74282865 51.80481414 -39 44 C-39 43.01 -39 42.02 -39 41 C-38.34515625 40.91363281 -37.6903125 40.82726562 -37.015625 40.73828125 C-27.45839864 39.26690036 -18.3364477 36.52969057 -11 30 C-10.34 29.01 -9.68 28.02 -9 27 C-8.34 27 -7.68 27 -7 27 C-6.71253906 26.26910156 -6.42507812 25.53820312 -6.12890625 24.78515625 C-5.4422155 23.09100226 -4.72779053 21.40730239 -3.96484375 19.74609375 C-1.04656217 13.18828229 -0.24546748 7.14310365 0 0 Z " fill="#818795" transform="translate(183,414)"/>
<path d="M0 0 C6.54952021 0.89828489 10.62007787 4.89055401 14.5546875 10.03125 C19.77124896 18.05672917 21.37443657 25.91991918 19.53515625 35.39453125 C16.63179809 45.2041023 11.46102168 51.31463769 2.78125 56.58984375 C-5.33501606 60.70497303 -13.97435947 61.44533492 -22.75 58.875 C-31.1855597 55.58009784 -36.79147302 49.97069504 -41 42 C-41 41.34 -41 40.68 -41 40 C-40.14277344 39.89042969 -39.28554688 39.78085937 -38.40234375 39.66796875 C-26.88441736 38.07078166 -16.21372394 34.65777992 -8.6875 25.25 C-3.39204635 17.51951781 -1.32486515 9.1694614 0 0 Z " fill="#818694" transform="translate(368,415)"/>
<path d="M0 0 C1.04220703 -0.01836914 1.04220703 -0.01836914 2.10546875 -0.03710938 C6.50192393 -0.04952874 10.04209235 0.56841593 14.125 2.1875 C13.465 2.5175 12.805 2.8475 12.125 3.1875 C11.84444555 5.37268363 11.84444555 5.37268363 11.8125 8 C11.03007284 18.21133757 6.88638901 27.41630696 -0.875 34.1875 C-10.26626427 41.27657094 -18.31090604 43.28701727 -29.875 44.1875 C-32.91585951 34.11465286 -32.94012854 25.67574606 -28.4921875 15.98828125 C-24.38665585 8.87797643 -17.98974274 3.28158998 -10.1640625 0.6015625 C-6.78467518 -0.00972599 -3.42218376 0.00313962 0 0 Z " fill="#343B53" transform="translate(355.875,411.8125)"/>
<path d="M0 0 C-0.26458175 8.44015785 -1.24887139 15.39752179 -5 23 C-5.61875 24.3303125 -5.61875 24.3303125 -6.25 25.6875 C-12.46814827 33.90433879 -22.01148616 39.61144234 -32 42 C-34.69164441 42.14244104 -37.30072781 42.09307835 -40 42 C-40.33 42.66 -40.66 43.32 -41 44 C-43.62331957 41.37668043 -43.11117078 34.35655786 -43.25 30.6875 C-43.12690299 21.79374114 -40.47598381 13.61554678 -34.24609375 7.19140625 C-24.54211582 -1.94286652 -12.84458956 -3.04537114 0 0 Z " fill="#343B54" transform="translate(184,413)"/>
<path d="M0 0 C14.85 0 29.7 0 45 0 C45 9.57 45 19.14 45 29 C30.15 29 15.3 29 0 29 C0 19.43 0 9.86 0 0 Z " fill="#EBE6E3" transform="translate(387,123)"/>
<path d="M0 0 C14.85 0 29.7 0 45 0 C45 9.57 45 19.14 45 29 C30.15 29 15.3 29 0 29 C0 19.43 0 9.86 0 0 Z " fill="#E8E3DF" transform="translate(298,123)"/>
<path d="M0 0 C7.78847925 -0.04514054 15.57688735 -0.0818524 23.36546135 -0.10362434 C26.98180873 -0.11407249 30.59806216 -0.12825032 34.21435547 -0.15087891 C37.70268811 -0.1725708 41.19093024 -0.18456085 44.6793251 -0.18975449 C46.66139971 -0.19526169 48.64343779 -0.21088034 50.62545776 -0.22659302 C51.82655182 -0.22674408 53.02764587 -0.22689514 54.26513672 -0.22705078 C55.32658905 -0.231492 56.38804138 -0.23593323 57.48165894 -0.24050903 C60 0 60 0 62 2 C62.19856972 4.87342061 62.27828946 7.62861988 62.25 10.5 C62.26160156 11.67755859 62.26160156 11.67755859 62.2734375 12.87890625 C62.25330787 18.74669213 62.25330787 18.74669213 60 21 C57.48165894 21.24050903 57.48165894 21.24050903 54.26513672 21.22705078 C53.06404266 21.22689972 51.86294861 21.22674866 50.62545776 21.22659302 C49.32335358 21.21627045 48.02124939 21.20594788 46.6796875 21.1953125 C45.33733327 21.19158276 43.99497633 21.18873561 42.65261841 21.18673706 C39.117986 21.17909744 35.58351772 21.1594463 32.0489502 21.1373291 C28.4428123 21.11687765 24.83664791 21.10773685 21.23046875 21.09765625 C14.15357224 21.07620058 7.07681409 21.04101586 0 21 C0 14.07 0 7.14 0 0 Z " fill="#A1E0F9" transform="translate(387,91)"/>
<path d="M0 0 C1.5921785 0.00666183 1.5921785 0.00666183 3.21652222 0.01345825 C4.41761627 0.01360931 5.61871033 0.01376038 6.85620117 0.01391602 C8.15830536 0.02423859 9.46040955 0.03456116 10.80197144 0.04519653 C12.14432566 0.04892627 13.48668261 0.05177343 14.82904053 0.05377197 C18.36367294 0.06141159 21.89814122 0.08106273 25.43270874 0.10317993 C29.03884663 0.12363138 32.64501103 0.13277218 36.25119019 0.14285278 C43.32808669 0.16430845 50.40484484 0.19949317 57.48165894 0.24050903 C57.48165894 7.17050903 57.48165894 14.10050903 57.48165894 21.24050903 C49.67590307 21.26306401 41.87016487 21.28142641 34.06438541 21.29232121 C30.44019934 21.29754905 26.81603664 21.3046449 23.19186401 21.31594849 C19.69705919 21.32678088 16.2022769 21.33278661 12.70745659 21.33538628 C10.71926505 21.33814454 8.73108262 21.34595591 6.74290466 21.35380554 C5.54173508 21.35388107 4.34056549 21.3539566 3.10299683 21.35403442 C1.50748741 21.35736534 1.50748741 21.35736534 -0.12025452 21.36076355 C-2.51834106 21.24050903 -2.51834106 21.24050903 -3.51834106 20.24050903 C-4.66983795 14.35508051 -5.10315393 8.21749481 -4.51834106 2.24050903 C-2.51834106 0.24050903 -2.51834106 0.24050903 0 0 Z " fill="#65CDF7" transform="translate(285.5183410644531,90.75949096679688)"/>
<path d="M0 0 C5.37946204 3.15988725 8.52483359 7.98491126 10.8125 13.6875 C12.04108762 19.74716879 12.77857778 26.78926667 10.8125 32.6875 C7.14645066 32.86340542 3.48150008 32.96888031 -0.1875 33.0625 C-1.21746094 33.11277344 -2.24742187 33.16304687 -3.30859375 33.21484375 C-9.77656325 33.33843552 -13.58832756 32.58849045 -18.56640625 28.35913086 C-22.62668187 24.17227737 -25.41570745 20.11747712 -25.875 14.1875 C-25.55994521 8.83156857 -22.84252875 5.42141427 -19.1875 1.6875 C-13.96985158 -2.95040971 -6.23821749 -2.47586842 0 0 Z " fill="#E8E3DF" transform="translate(347.1875,47.3125)"/>
<path d="M0 0 C4.54402599 2.42413481 7.64494138 5.70003901 9.93359375 10.27734375 C10.52388566 15.95322751 10.24800438 20.46610251 6.93359375 25.27734375 C0.05277553 32.06056171 -4.56376532 33.62020928 -14.12890625 33.58984375 C-15.65741211 33.61401367 -15.65741211 33.61401367 -17.21679688 33.63867188 C-18.67569336 33.63963867 -18.67569336 33.63963867 -20.1640625 33.640625 C-21.05617432 33.64360596 -21.94828613 33.64658691 -22.86743164 33.6496582 C-23.95592407 33.46536255 -23.95592407 33.46536255 -25.06640625 33.27734375 C-28.07723548 28.7610999 -27.61523649 24.57112407 -27.06640625 19.27734375 C-25.19398217 11.63067777 -20.95859335 4.32624243 -14.1484375 0.08203125 C-9.6906724 -1.64085733 -4.50071269 -1.57397325 0 0 Z " fill="#E7E2DE" transform="translate(398.06640625,46.72265625)"/>
<path d="M0 0 C6.93 0 13.86 0 21 0 C21 9.57 21 19.14 21 29 C14.07 29 7.14 29 0 29 C0 19.43 0 9.86 0 0 Z " fill="#E4575A" transform="translate(355,123)"/>
<path d="M0 0 C5.95908314 0.48978766 11.3183775 1.14729701 17 3 C17 3.66 17 4.32 17 5 C17.66306152 5.0501123 18.32612305 5.10022461 19.00927734 5.15185547 C32.70489318 6.19517324 46.36187 7.36272769 60 9 C60 10.98 60 12.96 60 15 C40.53 15 21.06 15 1 15 C0.67 10.05 0.34 5.1 0 0 Z " fill="#A2E1FA" transform="translate(282,96)"/>
<path d="M0 0 C6.93 0 13.86 0 21 0 C21 6.93 21 13.86 21 21 C14.07 21 7.14 21 0 21 C0 14.07 0 7.14 0 0 Z " fill="#DF575A" transform="translate(355,91)"/>
<path d="M0 0 C19.8 0 39.6 0 60 0 C60 0.33 60 0.66 60 1 C59.10796875 1.04898438 58.2159375 1.09796875 57.296875 1.1484375 C56.12640625 1.22320312 54.9559375 1.29796875 53.75 1.375 C52.00976562 1.47941406 52.00976562 1.47941406 50.234375 1.5859375 C47.14025485 1.98204467 45.7003175 2.60983654 43 4 C40.19365837 4.78885486 37.35007927 5.39116777 34.5 6 C33.30310547 6.2616394 33.30310547 6.2616394 32.08203125 6.52856445 C26.47666126 7.73527605 20.8600914 8.76245864 15.1875 9.60546875 C12.96459389 9.90047065 12.96459389 9.90047065 11 11 C9.29297265 11.06996014 7.58331997 11.08440154 5.875 11.0625 C4.96492188 11.05347656 4.05484375 11.04445313 3.1171875 11.03515625 C2.41851562 11.02355469 1.71984375 11.01195313 1 11 C1 13.97 1 16.94 1 20 C20.47 20 39.94 20 60 20 C60 20.33 60 20.66 60 21 C40.2 21 20.4 21 0 21 C0 14.07 0 7.14 0 0 Z " fill="#66B7D8" transform="translate(387,91)"/>
<path d="M0 0 C1.5921785 0.00666183 1.5921785 0.00666183 3.21652222 0.01345825 C4.41761627 0.01360931 5.61871033 0.01376038 6.85620117 0.01391602 C8.15830536 0.02423859 9.46040955 0.03456116 10.80197144 0.04519653 C12.14432566 0.04892627 13.48668261 0.05177343 14.82904053 0.05377197 C18.36367294 0.06141159 21.89814122 0.08106273 25.43270874 0.10317993 C29.03884663 0.12363138 32.64501103 0.13277218 36.25119019 0.14285278 C43.32808669 0.16430845 50.40484484 0.19949317 57.48165894 0.24050903 C57.48165894 7.17050903 57.48165894 14.10050903 57.48165894 21.24050903 C49.67590307 21.26306401 41.87016487 21.28142641 34.06438541 21.29232121 C30.44019934 21.29754905 26.81603664 21.3046449 23.19186401 21.31594849 C19.69705919 21.32678088 16.2022769 21.33278661 12.70745659 21.33538628 C10.71926505 21.33814454 8.73108262 21.34595591 6.74290466 21.35380554 C5.54173508 21.35388107 4.34056549 21.3539566 3.10299683 21.35403442 C1.50748741 21.35736534 1.50748741 21.35736534 -0.12025452 21.36076355 C-2.51834106 21.24050903 -2.51834106 21.24050903 -3.51834106 20.24050903 C-4.66983795 14.35508051 -5.10315393 8.21749481 -4.51834106 2.24050903 C-2.51834106 0.24050903 -2.51834106 0.24050903 0 0 Z M-1.51834106 3.24050903 C-1.51834106 3.90050903 -1.51834106 4.56050903 -1.51834106 5.24050903 C-2.17834106 5.24050903 -2.83834106 5.24050903 -3.51834106 5.24050903 C-3.18834106 10.19050903 -2.85834106 15.14050903 -2.51834106 20.24050903 C16.95165894 20.24050903 36.42165894 20.24050903 56.48165894 20.24050903 C56.48165894 18.26050903 56.48165894 16.28050903 56.48165894 14.24050903 C51.16178241 13.66748788 45.84155125 13.09792357 40.52096558 12.53152466 C38.71194525 12.33845883 36.90302448 12.14445765 35.09420776 11.94949341 C32.49054318 11.66902171 29.88653616 11.39194309 27.28244019 11.11550903 C26.477043 11.02801392 25.67164581 10.9405188 24.84184265 10.85037231 C21.03551294 10.44950704 17.31598969 10.13297303 13.48165894 10.24050903 C13.48165894 9.58050903 13.48165894 8.92050903 13.48165894 8.24050903 C14.62634644 8.54730591 15.77103394 8.85410278 16.95040894 9.17019653 C21.27300582 10.24704734 25.55654451 10.88862682 29.98165894 11.36550903 C30.74977905 11.45042603 31.51789917 11.53534302 32.30929565 11.62283325 C40.04066446 12.41006749 47.72028895 12.43084236 55.48165894 12.24050903 C55.48165894 8.94050903 55.48165894 5.64050903 55.48165894 2.24050903 C48.00688926 2.21580596 40.5321433 2.19764754 33.05734253 2.18557739 C30.51404405 2.18054598 27.97074846 2.17372022 25.42745972 2.16506958 C21.77364386 2.15295197 18.11986621 2.14726881 14.46603394 2.14285278 C12.75803619 2.13511086 12.75803619 2.13511086 11.01553345 2.12721252 C9.95473572 2.12713699 8.89393799 2.12706146 7.80099487 2.12698364 C6.40200958 2.12365273 6.40200958 2.12365273 4.97476196 2.12025452 C2.66209559 2.23180569 0.69519246 2.58621588 -1.51834106 3.24050903 Z " fill="#6DAFCA" transform="translate(285.5183410644531,90.75949096679688)"/>
<path d="M0 0 C2.31 0 4.62 0 7 0 C7 9.24 7 18.48 7 28 C3.04 28 -0.92 28 -5 28 C-4.731875 26.535625 -4.46375 25.07125 -4.1875 23.5625 C-2.75957073 15.71402547 -1.3816059 7.85673221 0 0 Z " fill="#F8979A" transform="translate(368,124)"/>
<path d="M0 0 C2.97 0 5.94 0 9 0 C9 6.27 9 12.54 9 19 C6.69 19 4.38 19 2 19 C1.34 12.73 0.68 6.46 0 0 Z " fill="#FC9699" transform="translate(366,92)"/>
<path d="M0 0 C0.99 0 1.98 0 3 0 C2.67 0.804375 2.34 1.60875 2 2.4375 C0.32732904 8.39639028 0.06066558 13.60152801 2.6875 19.3125 C5.08229792 23.55399069 8.01352694 25.89640385 12.25 28.25 C20.06841896 30.38229608 25.97339259 28.72094577 33 25 C33 25.66 33 26.32 33 27 C32.34 27 31.68 27 31 27 C31 27.66 31 28.32 31 29 C30.01 29 29.02 29 28 29 C28 29.66 28 30.32 28 31 C22.39 31 16.78 31 11 31 C11 30.34 11 29.68 11 29 C8.69 28.34 6.38 27.68 4 27 C3.67 25.35 3.34 23.7 3 22 C2.01 21.67 1.02 21.34 0 21 C-3.16635769 15.50053665 -2.46529357 9.41350619 -1 3.5 C-0.67 2.345 -0.34 1.19 0 0 Z " fill="#189B7D" transform="translate(157,102)"/>
<path d="M0 0 C10.7174655 0 10.7174655 0 15.33935547 3.90527344 C18.6392458 8.06773433 19.22411851 12.99643926 20.0625 18.125 C20.27326172 19.20910156 20.48402344 20.29320313 20.70117188 21.41015625 C22.29698319 30.0456837 22.29698319 30.0456837 21 34 C16.59225513 17.29157175 16.59225513 17.29157175 16 9 C15.34 9 14.68 9 14 9 C13.67 8.01 13.34 7.02 13 6 C12.34 6 11.68 6 11 6 C10.67 5.01 10.34 4.02 10 3 C7.89415562 2.19436362 7.89415562 2.19436362 5.4375 1.8125 C3.973125 1.544375 2.50875 1.27625 1 1 C1.33 6.61 1.66 12.22 2 18 C3.32 18.66 4.64 19.32 6 20 C5.34 20.33 4.68 20.66 4 21 C2.68 20.34 1.36 19.68 0 19 C0 12.73 0 6.46 0 0 Z " fill="#15826A" transform="translate(249,76)"/>
<path d="M0 0 C3.34373475 0.55728913 6.03312999 1.35173889 9 3 C9 3.66 9 4.32 9 5 C11.64 5 14.28 5 17 5 C17 5.99 17 6.98 17 8 C18.299375 8.433125 18.299375 8.433125 19.625 8.875 C22.75 9.91666667 25.875 10.95833333 29 12 C29 12.66 29 13.32 29 14 C24.96884179 13.32438689 21.36878245 12.10447375 17.5625 10.625 C16.47066406 10.20476562 15.37882813 9.78453125 14.25390625 9.3515625 C11.08659209 8.03596742 8.04709839 6.57180641 5 5 C5 4.34 5 3.68 5 3 C2.525 2.01 2.525 2.01 0 1 C0 0.67 0 0.34 0 0 Z " fill="#F7CD58" transform="translate(147,294)"/>
<path d="M0 0 C15.18 0 30.36 0 46 0 C41.78492722 3.16130459 40.93928888 3.3367697 36 3 C36 2.67 36 2.34 36 2 C24.45 1.67 12.9 1.34 1 1 C1 3.97 1 6.94 1 10 C0.67 10 0.34 10 0 10 C0 6.7 0 3.4 0 0 Z " fill="#72CAEE" transform="translate(388,92)"/>
<path d="M0 0 C0.66 0 1.32 0 2 0 C0.70941367 4.74602716 -1.04736919 7.6459879 -4.375 11.25 C-5.14585937 12.10078125 -5.91671875 12.9515625 -6.7109375 13.828125 C-8.77484718 15.78637378 -10.39345245 16.92881607 -13 18 C-12.505 16.515 -12.505 16.515 -12 15 C-11.731875 14.13375 -11.46375 13.2675 -11.1875 12.375 C-10.5996875 11.199375 -10.5996875 11.199375 -10 10 C-7.9375 9.375 -7.9375 9.375 -6 9 C-5.67 8.01 -5.34 7.02 -5 6 C-2.9375 5.3125 -2.9375 5.3125 -1 5 C-0.67 3.35 -0.34 1.7 0 0 Z " fill="#EBD493" transform="translate(416,310)"/>
<path d="M0 0 C1 2 1 2 0.4375 4.25 C-2.30093285 9.48874111 -6.68560427 13.4146183 -12 16 C-12.99 16 -13.98 16 -15 16 C-13.515 14.824375 -13.515 14.824375 -12 13.625 C-7.32070784 9.64425248 -3.70613526 4.87092063 0 0 Z " fill="#FDD976" transform="translate(351,253)"/>
<path d="M0 0 C0.99 0 1.98 0 3 0 C2.67 0.804375 2.34 1.60875 2 2.4375 C0.16287573 8.98225521 0.87180591 15.37185974 2 22 C0 21 0 21 -1.125 18.9375 C-3.10895877 12.27706697 -1.85671714 6.49850997 0 0 Z " fill="#14A482" transform="translate(157,102)"/>
<path d="M0 0 C0.99 0.33 1.98 0.66 3 1 C2.67 6.94 2.34 12.88 2 19 C1.34 19 0.68 19 0 19 C0 12.73 0 6.46 0 0 Z " fill="#002D20" transform="translate(237,76)"/>
<path d="M0 0 C0.99 0 1.98 0 3 0 C3 4.62 3 9.24 3 14 C1.02 14.99 1.02 14.99 -1 16 C-0.83628906 15.29488281 -0.67257813 14.58976562 -0.50390625 13.86328125 C0.01699824 10.90341312 0.09866732 8.18938727 0.0625 5.1875 C0.05347656 4.21167969 0.04445312 3.23585938 0.03515625 2.23046875 C0.02355469 1.49441406 0.01195312 0.75835937 0 0 Z " fill="#108065" transform="translate(194,106)"/>
<path d="M0 0 C2.97 0 5.94 0 9 0 C9 6.27 9 12.54 9 19 C8.01 19 7.02 19 6 19 C6.165 18.236875 6.33 17.47375 6.5 16.6875 C7.16562149 11.77854151 7.07920078 6.94564886 7 2 C4.69 1.67 2.38 1.34 0 1 C0 0.67 0 0.34 0 0 Z " fill="#F09FA3" transform="translate(366,92)"/>
<path d="M0 0 C0.66 0.33 1.32 0.66 2 1 C1.49396008 3.16874252 1.00016187 4.99967627 0 7 C-1.32 7.33 -2.64 7.66 -4 8 C-4.66 11.3 -5.32 14.6 -6 18 C-6.33 18 -6.66 18 -7 18 C-7.68299044 12.53607649 -7.46386815 8.98103871 -4.0625 4.5 C-2.75341286 2.9402366 -1.43910061 1.43910061 0 0 Z " fill="#B7B4B1" transform="translate(329,48)"/>
<path d="M0 0 C1 3 1 3 0.3984375 4.76171875 C0.06070312 5.39722656 -0.27703125 6.03273437 -0.625 6.6875 C-0.99367188 7.38230469 -1.36234375 8.07710937 -1.7421875 8.79296875 C-3.72079498 12.26474895 -5.82498194 15.64833283 -8 19 C-8.33 18.01 -8.66 17.02 -9 16 C-7.58511552 13.23760649 -6.19636905 11.19636905 -4 9 C-3.32060826 7.00428677 -2.65438441 5.00405227 -2 3 C-1.34 2.01 -0.68 1.02 0 0 Z " fill="#F6CC54" transform="translate(367,224)"/>
<path d="M0 0 C0.33 0 0.66 0 1 0 C1.13481759 2.93902349 1.23399416 5.87189559 1.3125 8.8125 C1.35439453 9.64587891 1.39628906 10.47925781 1.43945312 11.33789062 C1.48605207 13.65851795 1.47548292 15.7269737 1 18 C-1.43255501 20.10715614 -2.77575232 21 -6 21 C-6 20.01 -6 19.02 -6 18 C-4.02 17.34 -2.04 16.68 0 16 C0 10.72 0 5.44 0 0 Z " fill="#19A180" transform="translate(236,77)"/>
<path d="M0 0 C1.12264679 3.80096128 0.72002348 5.38795069 -1 9 C-1.495 10.0725 -1.99 11.145 -2.5 12.25 C-4 15 -4 15 -6 16 C-5.37183502 12.05050296 -4.1354471 8.80107972 -2.4375 5.1875 C-1.98246094 4.21167969 -1.52742188 3.23585937 -1.05859375 2.23046875 C-0.70925781 1.49441406 -0.35992187 0.75835937 0 0 Z " fill="#FDDA7A" transform="translate(372,216)"/>
<path d="M0 0 C0.33 0 0.66 0 1 0 C1.03738281 0.85722656 1.07476562 1.71445313 1.11328125 2.59765625 C1.48438703 9.05198612 1.93509448 14.26995925 5 20 C3.35 19.67 1.7 19.34 0 19 C0 12.73 0 6.46 0 0 Z " fill="#139F7F" transform="translate(183,77)"/>
<path d="M0 0 C5 1 5 1 7 3 C6.67 3.66 6.34 4.32 6 5 C3.525 4.01 3.525 4.01 1 3 C0.67 5.64 0.34 8.28 0 11 C-0.33 11 -0.66 11 -1 11 C-0.67 7.37 -0.34 3.74 0 0 Z " fill="#7B808E" transform="translate(368,415)"/>
<path d="M0 0 C1.32 0.33 2.64 0.66 4 1 C-1.01989102 5.11888494 -4.59858988 5.51211281 -11 5 C-8.09907498 3.06604999 -7.10325263 2.69868059 -3.8125 2.375 C-2.554375 2.25125 -1.29625 2.1275 0 2 C0 1.34 0 0.68 0 0 Z " fill="#FED975" transform="translate(280,305)"/>
<path d="M0 0 C0 0.66 0 1.32 0 2 C-2.1875 3.4375 -2.1875 3.4375 -5 5 C-6.2684375 5.86625 -6.2684375 5.86625 -7.5625 6.75 C-10.40266231 8.20649349 -11.07953887 7.91380179 -14 7 C-12.04480616 5.82807953 -10.0857461 4.6626071 -8.125 3.5 C-7.03445313 2.8503125 -5.94390625 2.200625 -4.8203125 1.53125 C-2 0 -2 0 0 0 Z " fill="#FEDD7D" transform="translate(314,290)"/>
<path d="M0 0 C0 2.62113708 -0.31292445 4.50935112 -1 7 C-1.66 7 -2.32 7 -3 7 C-3 9.31 -3 11.62 -3 14 C-3.99 14.495 -3.99 14.495 -5 15 C-4.58997722 4.44191344 -4.58997722 4.44191344 0 0 Z " fill="#0F8C6F" transform="translate(157,79)"/>
<path d="M0 0 C-0.99 0.33 -1.98 0.66 -3 1 C-3 1.66 -3 2.32 -3 3 C-7.455 3.495 -7.455 3.495 -12 4 C-8.41084094 -0.78554541 -5.58334594 -0.37222306 0 0 Z " fill="#F8CD57" transform="translate(272,308)"/>
<path d="M0 0 C1.44715727 3.87186448 0.5441918 6.8232328 -0.4375 10.75 C-0.86869141 12.50570313 -0.86869141 12.50570313 -1.30859375 14.296875 C-1.53675781 15.18890625 -1.76492188 16.0809375 -2 17 C-2.33 17 -2.66 17 -3 17 C-2.67 12.05 -2.34 7.1 -2 2 C-1.34 2 -0.68 2 0 2 C0 1.34 0 0.68 0 0 Z " fill="#F9E8B6" transform="translate(433,271)"/>
<path d="M0 0 C5.52677733 -0.19392201 9.75614911 0.2520497 15 2 C15 2.66 15 3.32 15 4 C9.76119922 3.44854729 5.02649303 2.57077907 0 1 C0 0.67 0 0.34 0 0 Z " fill="#F8CD58" transform="translate(177,308)"/>
<path d="M0 0 C0.33 0.99 0.66 1.98 1 3 C-0.9628843 6.1708131 -2.12536 7.74158364 -5.75 8.8125 C-6.4925 8.874375 -7.235 8.93625 -8 9 C-8 8.34 -8 7.68 -8 7 C-6.00669158 5.65668346 -4.00615134 4.32405988 -2 3 C-1.34 2.01 -0.68 1.02 0 0 Z " fill="#13A07E" transform="translate(259,123)"/>
<path d="M0 0 C0.33 0 0.66 0 1 0 C1.33 2.64 1.66 5.28 2 8 C-0.64 8.66 -3.28 9.32 -6 10 C-6 8.68 -6 7.36 -6 6 C-4.02 6 -2.04 6 0 6 C0 4.02 0 2.04 0 0 Z " fill="#E6D39B" transform="translate(429,284)"/>
<path d="M0 0 C4.95 0 9.9 0 15 0 C11.95461118 2.03025922 10.57642406 2.67487054 7 3 C3.1875 2.0625 3.1875 2.0625 0 1 C0 0.67 0 0.34 0 0 Z " fill="#303647" transform="translate(164,412)"/>
<path d="M0 0 C3 2 3 2 3.6875 3.625 C4.14471421 7.099828 4.05840231 10.49586168 4 14 C3.67 14 3.34 14 3 14 C2.67 11.03 2.34 8.06 2 5 C1.34 5 0.68 5 0 5 C0 3.35 0 1.7 0 0 Z " fill="#10886D" transform="translate(263,80)"/>
<path d="M0 0 C1.98 0 3.96 0 6 0 C5.690625 0.598125 5.38125 1.19625 5.0625 1.8125 C3.89790296 4.08956772 3.89790296 4.08956772 3 7 C0 2.25 0 2.25 0 0 Z " fill="#7A7F8A" transform="translate(327,455)"/>
<path d="M0 0 C0.33 0 0.66 0 1 0 C1 2.64 1 5.28 1 8 C0.34 8 -0.32 8 -1 8 C-1 10.64 -1 13.28 -1 16 C-1.33 16 -1.66 16 -2 16 C-2.20413361 10.26157749 -2.27141454 5.39460953 0 0 Z " fill="#024233" transform="translate(146,120)"/>
<path d="M0 0 C0.66 0.33 1.32 0.66 2 1 C2 3 2 3 0.75 4.5 C-1.07013782 6.06011813 -2.81977934 7.0226597 -5 8 C-3.8141763 4.62496331 -2.72426311 2.35277269 0 0 Z " fill="#3C3838" transform="translate(148,71)"/>
<path d="M0 0 C0.33 0 0.66 0 1 0 C1 4.29 1 8.58 1 13 C0.01 13.33 -0.98 13.66 -2 14 C-1.34 9.38 -0.68 4.76 0 0 Z " fill="#0E8B6E" transform="translate(262,109)"/>
<path d="M0 0 C1.32 0.33 2.64 0.66 4 1 C4 4 4 4 2.5 5.6875 C2.005 6.120625 1.51 6.55375 1 7 C0.67 4.69 0.34 2.38 0 0 Z " fill="#E1DDDA" transform="translate(323,63)"/>
<path d="M0 0 C0.66 0.33 1.32 0.66 2 1 C-2.625 6.875 -2.625 6.875 -6 8 C-4.55746343 4.63408134 -2.66735273 2.48952921 0 0 Z " fill="#2A2E3C" transform="translate(152,418)"/>
<path d="M0 0 C0.33 0.99 0.66 1.98 1 3 C0.01 4.485 0.01 4.485 -1 6 C-1.66 6 -2.32 6 -3 6 C-3 6.99 -3 7.98 -3 9 C-3.66 9 -4.32 9 -5 9 C-3.7508258 5.54074837 -2.32472205 2.85306797 0 0 Z " fill="#7D7D7D" transform="translate(178,28)"/>
</svg>
