<?xml version="1.0" encoding="UTF-8"?>
<!DOCTYPE svg PUBLIC "-//W3C//DTD SVG 1.1//EN" "http://www.w3.org/Graphics/SVG/1.1/DTD/svg11.dtd">
<svg xmlns="http://www.w3.org/2000/svg" version="1.1" width="500px" height="500px" style="shape-rendering:geometricPrecision; text-rendering:geometricPrecision; image-rendering:optimizeQuality; fill-rule:evenodd; clip-rule:evenodd" xmlns:xlink="http://www.w3.org/1999/xlink">
<g><path style="opacity:0.994" fill="#090909" d="M 236.5,-0.5 C 245.167,-0.5 253.833,-0.5 262.5,-0.5C 264.888,0.348502 267.221,1.3485 269.5,2.5C 272.515,4.6744 275.849,6.34107 279.5,7.5C 279.973,8.90632 280.973,9.57298 282.5,9.5C 283.262,11.2624 284.596,12.2624 286.5,12.5C 292.342,17.1756 297.009,22.8422 300.5,29.5C 305.818,31.3308 311.151,33.1641 316.5,35C 321.094,37.1184 325.094,39.9517 328.5,43.5C 329.167,44.8333 330.167,45.8333 331.5,46.5C 338.576,53.3115 343.076,61.6448 345,71.5C 349.711,74.7098 353.544,78.7098 356.5,83.5C 356.427,85.0269 357.094,86.0269 358.5,86.5C 358.992,88.8185 359.992,90.8185 361.5,92.5C 362.055,96.3968 363.055,100.063 364.5,103.5C 364.5,103.833 364.5,104.167 364.5,104.5C 364.533,108.869 364.2,113.202 363.5,117.5C 362.167,118.167 361.167,119.167 360.5,120.5C 359.791,121.404 358.791,121.737 357.5,121.5C 353.954,120.615 351.288,118.615 349.5,115.5C 349.666,110.489 349.499,105.489 349,100.5C 348.392,98.9336 347.558,97.6002 346.5,96.5C 345.872,93.91 344.705,91.5766 343,89.5C 335.14,84.9878 330.473,78.3212 329,69.5C 324.178,58.9791 316.344,51.4791 305.5,47C 298.406,46.7027 292.573,43.8694 288,38.5C 283.979,29.3135 277.479,22.6468 268.5,18.5C 267.025,16.5905 265.025,15.4238 262.5,15C 255.366,13.4825 248.366,13.3158 241.5,14.5C 237.327,14.6667 233.66,16 230.5,18.5C 224.711,20.7736 219.878,24.4403 216,29.5C 213.394,34.5951 210.228,39.2618 206.5,43.5C 193.729,44.4685 183.229,49.8018 175,59.5C 174.209,60.745 173.709,62.0783 173.5,63.5C 172.21,64.0577 171.377,65.0577 171,66.5C 169.512,70.7869 168.178,75.1203 167,79.5C 162.667,83.8333 158.333,88.1667 154,92.5C 152.139,94.8877 150.806,97.5544 150,100.5C 147.28,112.828 150.446,123.162 159.5,131.5C 160.716,133.451 162.382,134.951 164.5,136C 168.482,137.541 172.482,138.708 176.5,139.5C 201.498,140.167 226.664,140.5 252,140.5C 277.509,140.5 302.676,139.833 327.5,138.5C 330.813,137.179 334.146,135.846 337.5,134.5C 338.849,134.846 340.183,135.179 341.5,135.5C 342.167,136.833 343.167,137.833 344.5,138.5C 346.159,142.191 345.492,145.525 342.5,148.5C 338.216,151.312 333.549,152.979 328.5,153.5C 323.821,153.334 319.155,153.501 314.5,154C 313.748,154.671 313.414,155.504 313.5,156.5C 313.5,157.167 313.167,157.5 312.5,157.5C 310.952,157.821 310.285,158.821 310.5,160.5C 300.76,169.903 291.76,179.903 283.5,190.5C 280.5,191.5 278.5,193.5 277.5,196.5C 275.537,197.96 273.704,199.627 272,201.5C 271.667,211.167 271.333,220.833 271,230.5C 269.991,232.025 269.491,233.692 269.5,235.5C 269.167,235.5 268.833,235.5 268.5,235.5C 262.684,237.987 258.684,236.32 256.5,230.5C 256.5,204.833 256.5,179.167 256.5,153.5C 251.833,153.5 247.167,153.5 242.5,153.5C 242.167,237.169 242.5,320.836 243.5,404.5C 247.789,406.058 251.789,405.724 255.5,403.5C 256.333,356.335 256.833,309.002 257,261.5C 259.425,256.937 263.258,255.271 268.5,256.5C 269.072,258.255 269.906,259.922 271,261.5C 271.168,286.337 271.668,311.003 272.5,335.5C 275.167,338.833 278.167,341.833 281.5,344.5C 282.833,345.167 283.833,346.167 284.5,347.5C 284.427,349.027 285.094,350.027 286.5,350.5C 295.155,360.803 301.488,372.47 305.5,385.5C 308.184,386.753 310.85,387.753 313.5,388.5C 315.214,389.738 317.214,390.405 319.5,390.5C 321.849,392.341 324.515,393.674 327.5,394.5C 334.538,398.685 341.871,402.352 349.5,405.5C 357.487,402.423 364.987,398.423 372,393.5C 372.667,371.833 372.667,350.167 372,328.5C 358.981,314.316 346.148,299.982 333.5,285.5C 328.479,284.756 323.479,283.923 318.5,283C 315.826,282.33 313.493,281.163 311.5,279.5C 311.027,278.094 310.027,277.427 308.5,277.5C 308.027,276.094 307.027,275.427 305.5,275.5C 303.761,272.757 301.427,270.757 298.5,269.5C 293.245,263.976 290.411,257.309 290,249.5C 288.678,240.363 289.845,231.696 293.5,223.5C 295.25,222.341 296.25,220.674 296.5,218.5C 296.5,217.833 296.833,217.5 297.5,217.5C 299.914,216.089 301.581,214.089 302.5,211.5C 304.404,211.262 305.738,210.262 306.5,208.5C 307.599,203.856 309.266,199.522 311.5,195.5C 312.906,195.027 313.573,194.027 313.5,192.5C 313.427,190.973 314.094,189.973 315.5,189.5C 318.243,187.761 320.243,185.427 321.5,182.5C 325.138,178.008 329.805,175.008 335.5,173.5C 339.048,172.87 342.381,171.87 345.5,170.5C 348.142,170.512 349.475,169.179 349.5,166.5C 354.939,157.279 362.605,150.613 372.5,146.5C 374.553,146.598 376.22,145.931 377.5,144.5C 380.428,144.435 383.095,143.768 385.5,142.5C 394.268,142.135 402.935,142.801 411.5,144.5C 412.78,145.931 414.447,146.598 416.5,146.5C 426.395,150.613 434.061,157.279 439.5,166.5C 439.525,169.179 440.858,170.512 443.5,170.5C 446.619,171.87 449.952,172.87 453.5,173.5C 469.33,180.002 478.997,191.669 482.5,208.5C 485.5,212.167 488.833,215.5 492.5,218.5C 493.079,221.331 494.412,223.664 496.5,225.5C 496.402,227.553 497.069,229.22 498.5,230.5C 498.5,231.167 498.833,231.5 499.5,231.5C 499.5,238.833 499.5,246.167 499.5,253.5C 497.09,261.981 492.424,268.981 485.5,274.5C 483.821,274.285 482.821,274.952 482.5,276.5C 482.5,277.167 482.167,277.5 481.5,277.5C 479.62,277.229 478.287,277.896 477.5,279.5C 474.34,282 470.673,283.333 466.5,283.5C 462.818,283.335 459.152,283.501 455.5,284C 454.748,284.671 454.414,285.504 454.5,286.5C 442.208,300.629 429.708,314.629 417,328.5C 416.5,348.831 416.333,369.164 416.5,389.5C 418.564,389.687 420.564,390.187 422.5,391C 431.319,396.493 440.485,401.326 450,405.5C 458.391,401.451 466.557,396.951 474.5,392C 480.144,389.563 485.977,387.73 492,386.5C 495.008,386.994 497.508,388.327 499.5,390.5C 499.5,423.5 499.5,456.5 499.5,489.5C 498.833,490.167 498.167,490.833 497.5,491.5C 496.094,491.973 495.427,492.973 495.5,494.5C 495.5,495.167 495.167,495.5 494.5,495.5C 492.973,495.427 491.973,496.094 491.5,497.5C 490.833,498.167 490.167,498.833 489.5,499.5C 329.5,499.5 169.5,499.5 9.5,499.5C 8.83333,498.833 8.16667,498.167 7.5,497.5C 7.02694,496.094 6.02694,495.427 4.5,495.5C 3.83333,495.5 3.5,495.167 3.5,494.5C 3.57298,492.973 2.90632,491.973 1.5,491.5C 0.833333,490.833 0.166667,490.167 -0.5,489.5C -0.5,456.5 -0.5,423.5 -0.5,390.5C 0.166667,390.167 0.833333,389.833 1.5,389.5C 3.15298,389.34 4.48631,388.674 5.5,387.5C 11.1574,386.93 16.4907,388.263 21.5,391.5C 22.5137,392.674 23.847,393.34 25.5,393.5C 26.609,393.557 27.609,393.89 28.5,394.5C 29.0347,396.446 30.368,397.446 32.5,397.5C 34.8553,398.094 37.022,399.094 39,400.5C 41.5125,396.797 44.0125,393.131 46.5,389.5C 47.9063,389.027 48.573,388.027 48.5,386.5C 50.2624,385.738 51.2624,384.404 51.5,382.5C 53.914,381.089 55.5806,379.089 56.5,376.5C 63.9107,368.424 72.244,361.424 81.5,355.5C 82.6653,346.518 82.832,337.518 82,328.5C 69.6255,314.962 57.4588,301.296 45.5,287.5C 45.4894,285.983 44.8228,284.816 43.5,284C 39.8484,283.501 36.1817,283.335 32.5,283.5C 27.5705,283.193 23.2371,281.527 19.5,278.5C 18.7377,276.738 17.4044,275.738 15.5,275.5C 13.7607,272.757 11.4274,270.757 8.5,269.5C 4.45857,264.75 1.45857,259.417 -0.5,253.5C -0.5,246.167 -0.5,238.833 -0.5,231.5C 0.285203,228.596 1.61854,225.93 3.5,223.5C 5.25027,222.341 6.25027,220.674 6.5,218.5C 10.1667,215.5 13.5,212.167 16.5,208.5C 17.7942,201.247 20.7942,194.913 25.5,189.5C 27.5869,188.415 28.9202,186.749 29.5,184.5C 32.7759,180.529 36.7759,177.529 41.5,175.5C 43.153,175.34 44.4863,174.674 45.5,173.5C 49.0477,172.87 52.3811,171.87 55.5,170.5C 58.142,170.512 59.4754,169.179 59.5,166.5C 64.9387,157.279 72.6054,150.613 82.5,146.5C 84.5529,146.598 86.2196,145.931 87.5,144.5C 97.7594,142.282 108.093,141.949 118.5,143.5C 119.791,143.263 120.791,143.596 121.5,144.5C 122.514,145.674 123.847,146.34 125.5,146.5C 127.265,149.123 127.932,152.123 127.5,155.5C 125.122,157.041 122.622,158.375 120,159.5C 117.178,158.725 114.344,158.058 111.5,157.5C 109.022,156.836 106.355,156.503 103.5,156.5C 99.5313,156.294 95.8646,156.961 92.5,158.5C 90.847,158.66 89.5137,159.326 88.5,160.5C 82.3718,163.113 77.2052,167.113 73,172.5C 71.204,175.927 69.0373,179.094 66.5,182C 56.725,183.698 48.0583,187.698 40.5,194C 39.695,195.113 39.0283,196.279 38.5,197.5C 37.5416,197.953 36.7083,198.619 36,199.5C 33.5159,205.102 31.1825,210.768 29,216.5C 25.2906,220.175 21.6239,223.842 18,227.5C 16.4412,229.217 15.6079,231.217 15.5,233.5C 14.0092,236.186 13.3425,239.186 13.5,242.5C 13.5046,244.696 13.838,246.696 14.5,248.5C 16.9344,257.268 22.2678,263.602 30.5,267.5C 31.2625,268.268 32.2625,268.768 33.5,269C 80.3351,269.832 127.002,269.665 173.5,268.5C 181.393,266.574 187.393,262.241 191.5,255.5C 193.311,253.615 194.478,251.281 195,248.5C 195.814,243.98 195.647,239.646 194.5,235.5C 192.669,233.155 191.502,230.488 191,227.5C 189.629,225.959 188.129,224.625 186.5,223.5C 184.35,221.24 182.183,218.907 180,216.5C 177.881,207.586 173.714,199.919 167.5,193.5C 165.611,192.396 163.945,191.063 162.5,189.5C 160.68,187.552 158.346,186.552 155.5,186.5C 153.097,186.552 150.764,186.219 148.5,185.5C 143.546,183.88 140.213,180.547 138.5,175.5C 139.196,169.466 142.529,166.8 148.5,167.5C 149.401,169.727 151.067,170.727 153.5,170.5C 156.619,171.87 159.952,172.87 163.5,173.5C 173.321,176.99 180.654,183.323 185.5,192.5C 185.427,194.027 186.094,195.027 187.5,195.5C 189.734,199.522 191.401,203.856 192.5,208.5C 195.167,211.833 198.167,214.833 201.5,217.5C 202.906,217.973 203.573,218.973 203.5,220.5C 203.427,222.027 204.094,223.027 205.5,223.5C 207.417,226.804 208.584,230.471 209,234.5C 210.676,245.404 209.009,255.737 204,265.5C 202.281,268.288 200.115,270.621 197.5,272.5C 195.596,272.738 194.262,273.738 193.5,275.5C 193.5,276.167 193.167,276.5 192.5,276.5C 189.669,277.079 187.336,278.412 185.5,280.5C 184.158,281.793 182.491,282.626 180.5,283C 175.521,283.923 170.521,284.756 165.5,285.5C 152.852,299.982 140.019,314.316 127,328.5C 126.168,337.518 126.335,346.518 127.5,355.5C 136.42,361.089 144.42,367.756 151.5,375.5C 152.757,378.427 154.757,380.761 157.5,382.5C 157.738,384.404 158.738,385.738 160.5,386.5C 162.892,389.598 165.058,392.931 167,396.5C 168.33,395.418 169.83,394.751 171.5,394.5C 174.485,393.674 177.151,392.341 179.5,390.5C 181.786,390.405 183.786,389.738 185.5,388.5C 188.15,387.753 190.816,386.753 193.5,385.5C 197.512,372.47 203.845,360.803 212.5,350.5C 213.906,350.027 214.573,349.027 214.5,347.5C 215.167,346.167 216.167,345.167 217.5,344.5C 220.833,341.833 223.833,338.833 226.5,335.5C 227.665,291.002 227.831,246.335 227,201.5C 224.917,199.244 222.75,197.244 220.5,195.5C 219.581,192.911 217.914,190.911 215.5,189.5C 214.167,188.833 213.167,187.833 212.5,186.5C 212.5,184.5 211.5,183.5 209.5,183.5C 204.509,177.177 199.176,171.177 193.5,165.5C 191.913,162.732 190.08,160.065 188,157.5C 186.736,155.393 184.903,154.393 182.5,154.5C 181.5,154.5 180.5,154.5 179.5,154.5C 175.343,153.551 171.01,152.884 166.5,152.5C 152.291,148.253 142.624,139.253 137.5,125.5C 137.405,123.214 136.738,121.214 135.5,119.5C 133.763,114.648 133.43,109.648 134.5,104.5C 135.872,98.3916 137.872,92.3916 140.5,86.5C 141.906,86.0269 142.573,85.0269 142.5,83.5C 145.456,78.7098 149.289,74.7098 154,71.5C 155.924,61.6448 160.424,53.3115 167.5,46.5C 169.167,45.5 170.5,44.1667 171.5,42.5C 178.897,36.0215 187.564,32.0215 197.5,30.5C 201.663,23.1691 206.996,16.8357 213.5,11.5C 215.027,11.573 216.027,10.9063 216.5,9.5C 218.027,9.57298 219.027,8.90632 219.5,7.5C 223.151,6.34107 226.485,4.6744 229.5,2.5C 231.779,1.3485 234.112,0.348502 236.5,-0.5 Z M 207.5,154.5 C 213.833,154.5 220.167,154.5 226.5,154.5C 226.666,162.174 226.5,169.841 226,177.5C 225.292,176.619 224.458,175.953 223.5,175.5C 217.365,168.86 211.365,162.027 205.5,155C 206.094,154.536 206.761,154.369 207.5,154.5 Z M 293.5,155.5 C 289.833,159.5 286.167,163.5 282.5,167.5C 280.086,168.911 278.419,170.911 277.5,173.5C 275.871,174.625 274.371,175.959 273,177.5C 272.5,169.841 272.334,162.174 272.5,154.5C 279.687,154.175 286.687,154.509 293.5,155.5 Z M 64.5,285.5 C 70.31,284.51 76.31,284.177 82.5,284.5C 82.5,290.833 82.5,297.167 82.5,303.5C 81.5,302.833 80.5,302.167 79.5,301.5C 78.8333,300.167 77.8333,299.167 76.5,298.5C 75.2427,295.573 73.2427,293.239 70.5,291.5C 68.8333,289.167 66.8333,287.167 64.5,285.5 Z M 138.5,291.5 C 135.757,293.239 133.757,295.573 132.5,298.5C 131.167,299.167 130.167,300.167 129.5,301.5C 128.094,301.973 127.427,302.973 127.5,304.5C 126.509,298.021 126.176,291.354 126.5,284.5C 132.509,284.334 138.509,284.501 144.5,285C 142.294,287.037 140.294,289.203 138.5,291.5 Z M 354.5,285.5 C 360.31,284.51 366.31,284.177 372.5,284.5C 372.5,290.833 372.5,297.167 372.5,303.5C 371.833,303.167 371.167,302.833 370.5,302.5C 369.5,300.833 368.167,299.5 366.5,298.5C 365.581,295.911 363.914,293.911 361.5,292.5C 359.5,289.833 357.167,287.5 354.5,285.5 Z M 416.5,284.5 C 422.69,284.177 428.69,284.51 434.5,285.5C 432.167,287.167 430.167,289.167 428.5,291.5C 426.086,292.911 424.419,294.911 423.5,297.5C 421.5,298.833 419.833,300.5 418.5,302.5C 417.833,302.833 417.167,303.167 416.5,303.5C 416.5,297.167 416.5,290.833 416.5,284.5 Z M 225.5,358.5 C 226.833,370.167 226.833,381.833 225.5,393.5C 220.628,390.42 215.295,388.087 209.5,386.5C 213.832,376.492 219.165,367.159 225.5,358.5 Z M 273.5,358.5 C 274.415,360.754 275.748,362.754 277.5,364.5C 278.604,366.389 279.937,368.055 281.5,369.5C 284.412,374.993 287.079,380.66 289.5,386.5C 284.246,388.134 279.246,390.134 274.5,392.5C 273.171,387.208 272.504,381.542 272.5,375.5C 272.501,369.657 272.834,363.99 273.5,358.5 Z M 62.5,399.5 C 60.9826,399.511 59.8159,400.177 59,401.5C 58.5304,400.423 58.6971,399.423 59.5,398.5C 65.7232,389.439 73.2232,381.439 82,374.5C 82.4993,379.489 82.6659,384.489 82.5,389.5C 75.1393,391.547 68.4727,394.881 62.5,399.5 Z M 126.5,374.5 C 137.282,382.281 145.948,391.948 152.5,403.5C 152.291,404.086 151.957,404.586 151.5,405C 149.087,405.484 146.754,405.15 144.5,404C 138.75,400.374 132.916,396.874 127,393.5C 126.5,387.175 126.334,380.842 126.5,374.5 Z"/></g>
<g><path style="opacity:0.043" fill="#bebebe" d="M 269.5,2.5 C 273.42,3.12663 276.753,4.7933 279.5,7.5C 275.849,6.34107 272.515,4.6744 269.5,2.5 Z"/></g>
<g><path style="opacity:0.057" fill="#b5b5b5" d="M 229.5,2.5 C 226.485,4.6744 223.151,6.34107 219.5,7.5C 222.247,4.7933 225.58,3.12663 229.5,2.5 Z"/></g>
<g><path style="opacity:0.329" fill="#9a9a9a" d="M 219.5,7.5 C 219.027,8.90632 218.027,9.57298 216.5,9.5C 216.973,8.09368 217.973,7.42702 219.5,7.5 Z"/></g>
<g><path style="opacity:0.09" fill="#aeaeae" d="M 279.5,7.5 C 281.027,7.42702 282.027,8.09368 282.5,9.5C 280.973,9.57298 279.973,8.90632 279.5,7.5 Z"/></g>
<g><path style="opacity:0.02" fill="#bdbdbd" d="M 282.5,9.5 C 284.404,9.73758 285.738,10.7376 286.5,12.5C 284.596,12.2624 283.262,11.2624 282.5,9.5 Z"/></g>
<g><path style="opacity:0.298" fill="#a1a1a1" d="M 216.5,9.5 C 216.027,10.9063 215.027,11.573 213.5,11.5C 213.973,10.0937 214.973,9.42702 216.5,9.5 Z"/></g>
<g><path style="opacity:1" fill="#304526" d="M 241.5,14.5 C 248.366,13.3158 255.366,13.4825 262.5,15C 265.025,15.4238 267.025,16.5905 268.5,18.5C 259.823,15.3078 250.823,13.9744 241.5,14.5 Z"/></g>
<g><path style="opacity:1" fill="#608451" d="M 241.5,14.5 C 240.5,15.1667 239.5,15.8333 238.5,16.5C 238.167,16.5 237.833,16.5 237.5,16.5C 235.412,17.9395 233.079,18.6061 230.5,18.5C 233.66,16 237.327,14.6667 241.5,14.5 Z"/></g>
<g><path style="opacity:1" fill="#9bd881" d="M 237.5,16.5 C 237.833,16.5 238.167,16.5 238.5,16.5C 241.572,16.1826 244.572,16.5159 247.5,17.5C 245.324,22.9084 242.158,27.575 238,31.5C 236.483,35.0457 235.15,38.7124 234,42.5C 233.702,47.974 232.702,53.3073 231,58.5C 230.667,58.1667 230.333,57.8333 230,57.5C 229.333,64.5 229.333,71.5 230,78.5C 231.092,84.7822 231.758,91.1156 232,97.5C 233.033,100.033 234.867,101.699 237.5,102.5C 238.429,103.689 238.762,105.022 238.5,106.5C 231.833,106.833 231.833,107.167 238.5,107.5C 236.307,108.797 233.973,108.797 231.5,107.5C 229.024,103.895 227.024,100.062 225.5,96C 221.031,93.3765 217.531,94.2099 215,98.5C 213.955,106.586 216.455,113.42 222.5,119C 226.464,121.599 230.797,123.099 235.5,123.5C 240.552,122.538 245.386,120.871 250,118.5C 251.666,119.348 253.166,120.348 254.5,121.5C 252.919,122.579 251.253,122.579 249.5,121.5C 247.618,122.531 245.618,123.365 243.5,124C 248.167,126.583 250.833,130.249 251.5,135C 252.793,135.49 254.127,135.657 255.5,135.5C 255.5,136.5 255.5,137.5 255.5,138.5C 228.831,138.667 202.165,138.5 175.5,138C 170.293,135.59 164.959,133.423 159.5,131.5C 156.403,126.437 153.57,121.104 151,115.5C 148.559,104.902 151.392,96.0685 159.5,89C 163.58,87.4229 166.58,84.5895 168.5,80.5C 170.089,74.7165 171.756,69.0498 173.5,63.5C 173.709,62.0783 174.209,60.745 175,59.5C 183.229,49.8018 193.729,44.4685 206.5,43.5C 209.823,41.4636 212.989,39.1302 216,36.5C 216.333,35.1667 216.667,33.8333 217,32.5C 219.962,30.2134 222.129,27.3801 223.5,24C 225.167,23.6667 226.833,23.3333 228.5,23C 230.713,20.7261 233.379,19.2261 236.5,18.5C 237.298,18.0431 237.631,17.3764 237.5,16.5 Z"/></g>
<g><path style="opacity:1" fill="#abde94" d="M 241.5,14.5 C 250.823,13.9744 259.823,15.3078 268.5,18.5C 277.479,22.6468 283.979,29.3135 288,38.5C 292.573,43.8694 298.406,46.7027 305.5,47C 316.344,51.4791 324.178,58.9791 329,69.5C 330.473,78.3212 335.14,84.9878 343,89.5C 344.705,91.5766 345.872,93.91 346.5,96.5C 347.854,102.88 348.854,109.213 349.5,115.5C 348.599,119.241 349.932,121.241 353.5,121.5C 352.799,123.908 351.799,126.242 350.5,128.5C 347.976,130.19 345.976,132.357 344.5,135C 343.552,135.483 342.552,135.649 341.5,135.5C 340.183,135.179 338.849,134.846 337.5,134.5C 334.146,135.846 330.813,137.179 327.5,138.5C 326.5,138.5 325.5,138.5 324.5,138.5C 301.5,138.5 278.5,138.5 255.5,138.5C 255.5,137.5 255.5,136.5 255.5,135.5C 254.127,135.657 252.793,135.49 251.5,135C 250.833,130.249 248.167,126.583 243.5,124C 245.618,123.365 247.618,122.531 249.5,121.5C 251.253,122.579 252.919,122.579 254.5,121.5C 264.773,124.964 273.606,122.63 281,114.5C 284.791,108.452 285.291,102.286 282.5,96C 277.903,93.4595 274.07,94.2929 271,98.5C 270.317,108.339 265.984,110.672 258,105.5C 258.389,97.8878 254.889,94.3878 247.5,95C 243.648,96.5202 241.815,99.3535 242,103.5C 241.34,105.324 240.173,106.657 238.5,107.5C 231.833,107.167 231.833,106.833 238.5,106.5C 238.762,105.022 238.429,103.689 237.5,102.5C 234.867,101.699 233.033,100.033 232,97.5C 231.758,91.1156 231.092,84.7822 230,78.5C 229.333,71.5 229.333,64.5 230,57.5C 230.333,57.8333 230.667,58.1667 231,58.5C 232.702,53.3073 233.702,47.974 234,42.5C 235.15,38.7124 236.483,35.0457 238,31.5C 242.158,27.575 245.324,22.9084 247.5,17.5C 244.572,16.5159 241.572,16.1826 238.5,16.5C 239.5,15.8333 240.5,15.1667 241.5,14.5 Z"/></g>
<g><path style="opacity:1" fill="#90bb79" d="M 237.5,16.5 C 237.631,17.3764 237.298,18.0431 236.5,18.5C 233.379,19.2261 230.713,20.7261 228.5,23C 226.833,23.3333 225.167,23.6667 223.5,24C 222.129,27.3801 219.962,30.2134 217,32.5C 216.667,33.8333 216.333,35.1667 216,36.5C 212.989,39.1302 209.823,41.4636 206.5,43.5C 210.228,39.2618 213.394,34.5951 216,29.5C 219.878,24.4403 224.711,20.7736 230.5,18.5C 233.079,18.6061 235.412,17.9395 237.5,16.5 Z"/></g>
<g><path style="opacity:0.004" fill="#d5d5d5" d="M 328.5,43.5 C 330.5,43.5 331.5,44.5 331.5,46.5C 330.167,45.8333 329.167,44.8333 328.5,43.5 Z"/></g>
<g><path style="opacity:0.145" fill="#cacaca" d="M 171.5,42.5 C 170.5,44.1667 169.167,45.5 167.5,46.5C 167.833,44.1667 169.167,42.8333 171.5,42.5 Z"/></g>
<g><path style="opacity:1" fill="#040703" d="M 195.5,80.5 C 195.87,86.9251 195.37,93.2584 194,99.5C 191.096,101.227 187.93,101.893 184.5,101.5C 183.199,100.118 182.366,98.4517 182,96.5C 181.333,90.8333 181.333,85.1667 182,79.5C 186.861,74.1011 191.361,74.4344 195.5,80.5 Z"/></g>
<g><path style="opacity:1" fill="#040804" d="M 317.5,79.5 C 317.751,85.8918 317.418,92.2252 316.5,98.5C 313.371,101.886 309.705,102.386 305.5,100C 304.874,99.2496 304.374,98.4162 304,97.5C 303.333,91.5 303.333,85.5 304,79.5C 308.415,74.3393 312.915,74.3393 317.5,79.5 Z"/></g>
<g><path style="opacity:1" fill="#709363" d="M 317.5,79.5 C 318.653,85.3188 318.819,91.3188 318,97.5C 317.617,98.056 317.117,98.3893 316.5,98.5C 317.418,92.2252 317.751,85.8918 317.5,79.5 Z"/></g>
<g><path style="opacity:0.2" fill="#a0a0a0" d="M 142.5,83.5 C 142.573,85.0269 141.906,86.0269 140.5,86.5C 140.427,84.9731 141.094,83.9731 142.5,83.5 Z"/></g>
<g><path style="opacity:0.231" fill="#a1a1a1" d="M 356.5,83.5 C 357.906,83.9731 358.573,84.9731 358.5,86.5C 357.094,86.0269 356.427,85.0269 356.5,83.5 Z"/></g>
<g><path style="opacity:1" fill="#90bc7a" d="M 173.5,63.5 C 171.756,69.0498 170.089,74.7165 168.5,80.5C 166.58,84.5895 163.58,87.4229 159.5,89C 151.392,96.0685 148.559,104.902 151,115.5C 153.57,121.104 156.403,126.437 159.5,131.5C 150.446,123.162 147.28,112.828 150,100.5C 150.806,97.5544 152.139,94.8877 154,92.5C 158.333,88.1667 162.667,83.8333 167,79.5C 168.178,75.1203 169.512,70.7869 171,66.5C 171.377,65.0577 172.21,64.0577 173.5,63.5 Z"/></g>
<g><path style="opacity:0.106" fill="#adadad" d="M 358.5,86.5 C 360.539,87.911 361.539,89.911 361.5,92.5C 359.992,90.8185 358.992,88.8185 358.5,86.5 Z"/></g>
<g><path style="opacity:0.051" fill="#b2b2b2" d="M 140.5,86.5 C 137.872,92.3916 135.872,98.3916 134.5,104.5C 134.366,97.6674 136.366,91.6674 140.5,86.5 Z"/></g>
<g><path style="opacity:1" fill="#050904" d="M 238.5,107.5 C 240.173,106.657 241.34,105.324 242,103.5C 241.815,99.3535 243.648,96.5202 247.5,95C 254.889,94.3878 258.389,97.8878 258,105.5C 265.984,110.672 270.317,108.339 271,98.5C 274.07,94.2929 277.903,93.4595 282.5,96C 285.291,102.286 284.791,108.452 281,114.5C 273.606,122.63 264.773,124.964 254.5,121.5C 253.166,120.348 251.666,119.348 250,118.5C 245.386,120.871 240.552,122.538 235.5,123.5C 230.797,123.099 226.464,121.599 222.5,119C 216.455,113.42 213.955,106.586 215,98.5C 217.531,94.2099 221.031,93.3765 225.5,96C 227.024,100.062 229.024,103.895 231.5,107.5C 233.973,108.797 236.307,108.797 238.5,107.5 Z"/></g>
<g><path style="opacity:0.063" fill="#b0b0b0" d="M 361.5,92.5 C 363.568,95.763 364.568,99.4296 364.5,103.5C 363.055,100.063 362.055,96.3968 361.5,92.5 Z"/></g>
<g><path style="opacity:1" fill="#739c61" d="M 195.5,80.5 C 196.164,83.1459 196.498,85.9792 196.5,89C 196.67,93.331 196.003,97.4977 194.5,101.5C 191.033,102.788 187.7,102.788 184.5,101.5C 187.93,101.893 191.096,101.227 194,99.5C 195.37,93.2584 195.87,86.9251 195.5,80.5 Z"/></g>
<g><path style="opacity:1" fill="#809d72" d="M 346.5,96.5 C 347.558,97.6002 348.392,98.9336 349,100.5C 349.499,105.489 349.666,110.489 349.5,115.5C 348.854,109.213 347.854,102.88 346.5,96.5 Z"/></g>
<g><path style="opacity:0.051" fill="#c4c3c7" d="M 364.5,104.5 C 365.16,105.964 365.493,107.631 365.5,109.5C 365.618,112.486 364.952,115.152 363.5,117.5C 364.2,113.202 364.533,108.869 364.5,104.5 Z"/></g>
<g><path style="opacity:0.004" fill="#d3d3d3" d="M 363.5,117.5 C 363.5,119.5 362.5,120.5 360.5,120.5C 361.167,119.167 362.167,118.167 363.5,117.5 Z"/></g>
<g><path style="opacity:0.2" fill="#b5b5b5" d="M 135.5,119.5 C 136.738,121.214 137.405,123.214 137.5,125.5C 135.926,123.898 135.259,121.898 135.5,119.5 Z"/></g>
<g><path style="opacity:0.831" fill="#b1cfa1" d="M 349.5,115.5 C 351.288,118.615 353.954,120.615 357.5,121.5C 353.612,127.403 349.279,133.07 344.5,138.5C 343.167,137.833 342.167,136.833 341.5,135.5C 342.552,135.649 343.552,135.483 344.5,135C 345.976,132.357 347.976,130.19 350.5,128.5C 351.799,126.242 352.799,123.908 353.5,121.5C 349.932,121.241 348.599,119.241 349.5,115.5 Z"/></g>
<g><path style="opacity:1" fill="#7ca36d" d="M 159.5,131.5 C 164.959,133.423 170.293,135.59 175.5,138C 202.165,138.5 228.831,138.667 255.5,138.5C 278.5,138.5 301.5,138.5 324.5,138.5C 275.336,139.499 226.003,139.832 176.5,139.5C 172.482,138.708 168.482,137.541 164.5,136C 162.382,134.951 160.716,133.451 159.5,131.5 Z"/></g>
<g><path style="opacity:1" fill="#172612" d="M 324.5,138.5 C 325.5,138.5 326.5,138.5 327.5,138.5C 302.676,139.833 277.509,140.5 252,140.5C 226.664,140.5 201.498,140.167 176.5,139.5C 226.003,139.832 275.336,139.499 324.5,138.5 Z"/></g>
<g><path style="opacity:0.412" fill="#8e8e8e" d="M 118.5,143.5 C 108.093,141.949 97.7594,142.282 87.5,144.5C 92.7777,142.07 98.4444,141.07 104.5,141.5C 109.437,141.3 114.104,141.967 118.5,143.5 Z"/></g>
<g><path style="opacity:0.133" fill="#909090" d="M 385.5,142.5 C 391.653,141.347 397.986,141.18 404.5,142C 407.104,142.39 409.438,143.224 411.5,144.5C 402.935,142.801 394.268,142.135 385.5,142.5 Z"/></g>
<g><path style="opacity:0.212" fill="#828482" d="M 385.5,142.5 C 383.095,143.768 380.428,144.435 377.5,144.5C 379.838,142.96 382.505,142.294 385.5,142.5 Z"/></g>
<g><path style="opacity:0.38" fill="#7f7f82" d="M 87.5,144.5 C 86.2196,145.931 84.5529,146.598 82.5,146.5C 83.7804,145.069 85.4471,144.402 87.5,144.5 Z"/></g>
<g><path style="opacity:0.039" fill="#868688" d="M 121.5,144.5 C 123.38,144.229 124.713,144.896 125.5,146.5C 123.847,146.34 122.514,145.674 121.5,144.5 Z"/></g>
<g><path style="opacity:0.345" fill="#7e7f7f" d="M 377.5,144.5 C 376.22,145.931 374.553,146.598 372.5,146.5C 373.78,145.069 375.447,144.402 377.5,144.5 Z"/></g>
<g><path style="opacity:0.38" fill="#818081" d="M 411.5,144.5 C 413.553,144.402 415.22,145.069 416.5,146.5C 414.447,146.598 412.78,145.931 411.5,144.5 Z"/></g>
<g><path style="opacity:0.145" fill="#ababab" d="M 166.5,152.5 C 171.01,152.884 175.343,153.551 179.5,154.5C 176.15,154.665 172.817,154.498 169.5,154C 168.263,153.768 167.263,153.268 166.5,152.5 Z"/></g>
<g><path style="opacity:0.29" fill="#8f8f8f" d="M 328.5,153.5 C 324.353,154.325 320.019,154.825 315.5,155C 314.956,155.717 314.289,156.217 313.5,156.5C 313.414,155.504 313.748,154.671 314.5,154C 319.155,153.501 323.821,153.334 328.5,153.5 Z"/></g>
<g><path style="opacity:1" fill="#668459" d="M 111.5,157.5 C 105.131,157.347 98.7974,157.68 92.5,158.5C 95.8646,156.961 99.5313,156.294 103.5,156.5C 106.355,156.503 109.022,156.836 111.5,157.5 Z"/></g>
<g><path style="opacity:1" fill="#abde94" d="M 127.5,155.5 C 130.135,156.811 132.469,158.478 134.5,160.5C 133.923,163.55 135.09,165.55 138,166.5C 137.836,171.155 137.836,175.821 138,180.5C 140.781,183.805 144.281,185.472 148.5,185.5C 150.764,186.219 153.097,186.552 155.5,186.5C 157.509,188.065 159.843,189.065 162.5,189.5C 163.945,191.063 165.611,192.396 167.5,193.5C 169.925,197.408 172.092,201.408 174,205.5C 174.755,208.688 175.589,211.855 176.5,215C 175.387,216.394 174.053,217.561 172.5,218.5C 168.364,216.553 164.03,216.053 159.5,217C 158.874,217.75 158.374,218.584 158,219.5C 157,216.833 156,216.833 155,219.5C 154.667,219.167 154.333,218.833 154,218.5C 154.148,219.825 153.982,220.992 153.5,222C 154.025,222.692 154.692,223.192 155.5,223.5C 156.789,229.19 156.789,234.857 155.5,240.5C 156.691,240.405 158.025,240.738 159.5,241.5C 159.281,242.675 159.614,243.675 160.5,244.5C 165.729,247.326 170.229,246.326 174,241.5C 174.5,234.174 174.666,226.841 174.5,219.5C 176.199,219.34 177.866,219.506 179.5,220C 181.309,222.238 183.642,223.405 186.5,223.5C 188.129,224.625 189.629,225.959 191,227.5C 191.502,230.488 192.669,233.155 194.5,235.5C 195.036,242.427 194.036,249.094 191.5,255.5C 187.393,262.241 181.393,266.574 173.5,268.5C 126.997,268.832 80.6637,268.499 34.5,267.5C 62.8412,267.833 91.1745,267.5 119.5,266.5C 116.929,265.272 115.595,263.272 115.5,260.5C 112.234,260.567 110.734,258.901 111,255.5C 106.173,253.109 101.006,251.942 95.5,252C 92.469,249.985 89.1357,248.819 85.5,248.5C 84.3376,245.32 82.3376,242.653 79.5,240.5C 80.0505,238.343 80.7171,236.343 81.5,234.5C 81.2978,236.989 81.7978,239.323 83,241.5C 97.3164,254.775 111.65,254.775 126,241.5C 129.075,232.572 125.908,228.739 116.5,230C 111.033,236.353 104.367,238.019 96.5,235C 94.9586,233.629 93.6253,232.129 92.5,230.5C 90.0336,229.366 87.367,229.199 84.5,230C 83.944,230.383 83.6107,230.883 83.5,231.5C 82.8333,231.833 82.1667,232.167 81.5,232.5C 81.3379,230.473 81.5045,228.473 82,226.5C 85.4085,227.622 88.9085,227.789 92.5,227C 93.0219,226.439 93.3552,225.772 93.5,225C 91.0846,221.242 89.9179,217.075 90,212.5C 89.7672,204.107 89.6006,195.773 89.5,187.5C 89.5283,183.101 90.0283,182.768 91,186.5C 91.67,182.165 93.17,178.165 95.5,174.5C 90.1419,171.115 90.8086,169.115 97.5,168.5C 98.9529,166.533 99.9529,164.367 100.5,162C 99.4214,161.044 98.2547,160.211 97,159.5C 94.2809,160.444 91.4475,160.777 88.5,160.5C 89.5137,159.326 90.847,158.66 92.5,158.5C 98.7974,157.68 105.131,157.347 111.5,157.5C 114.344,158.058 117.178,158.725 120,159.5C 122.622,158.375 125.122,157.041 127.5,155.5 Z"/></g>
<g><path style="opacity:0.118" fill="#9f9f9f" d="M 182.5,154.5 C 184.903,154.393 186.736,155.393 188,157.5C 190.08,160.065 191.913,162.732 193.5,165.5C 189.597,161.984 185.93,158.318 182.5,154.5 Z"/></g>
<g><path style="opacity:1" fill="#ce966f" d="M 256.5,230.5 C 258.684,236.32 262.684,237.987 268.5,235.5C 267.713,237.104 266.38,237.771 264.5,237.5C 264.5,243.5 264.5,249.5 264.5,255.5C 266.099,255.232 267.432,255.566 268.5,256.5C 263.258,255.271 259.425,256.937 257,261.5C 256.833,309.002 256.333,356.335 255.5,403.5C 251.5,403.5 247.5,403.5 243.5,403.5C 243.5,320.833 243.5,238.167 243.5,155.5C 247.5,155.5 251.5,155.5 255.5,155.5C 255.169,180.672 255.502,205.672 256.5,230.5 Z"/></g>
<g><path style="opacity:0.114" fill="#969696" d="M 312.5,157.5 C 312.068,158.71 311.401,159.71 310.5,160.5C 310.285,158.821 310.952,157.821 312.5,157.5 Z"/></g>
<g><path style="opacity:1" fill="#b5896e" d="M 256.5,230.5 C 255.502,205.672 255.169,180.672 255.5,155.5C 251.5,155.5 247.5,155.5 243.5,155.5C 243.5,238.167 243.5,320.833 243.5,403.5C 247.5,403.5 251.5,403.5 255.5,403.5C 251.789,405.724 247.789,406.058 243.5,404.5C 242.5,320.836 242.167,237.169 242.5,153.5C 247.167,153.5 251.833,153.5 256.5,153.5C 256.5,179.167 256.5,204.833 256.5,230.5 Z"/></g>
<g><path style="opacity:1" fill="#aade93" d="M 441.5,185.5 C 444.939,187.204 448.605,188.538 452.5,189.5C 461.678,196.207 467.511,205.207 470,216.5C 473.946,220.446 477.946,224.446 482,228.5C 482.608,230.154 483.108,231.821 483.5,233.5C 484.229,238.13 484.563,242.797 484.5,247.5C 483.129,249.936 482.129,252.603 481.5,255.5C 477.388,262.243 471.388,266.576 463.5,268.5C 418.33,268.832 373.33,268.499 328.5,267.5C 355.508,267.833 382.508,267.5 409.5,266.5C 407.995,265.158 407.328,263.492 407.5,261.5C 405.037,261.219 402.87,260.219 401,258.5C 400.544,257.256 401.044,256.423 402.5,256C 402.043,255.586 401.709,255.086 401.5,254.5C 395.59,253.007 389.59,251.84 383.5,251C 381.09,250.943 379.756,249.776 379.5,247.5C 385.717,251.082 392.383,252.249 399.5,251C 404.014,249.445 408.347,247.611 412.5,245.5C 416.475,244.701 418.809,242.368 419.5,238.5C 419.216,235.08 418.549,231.747 417.5,228.5C 412.869,227.338 408.202,227.172 403.5,228C 402.433,232.453 399.599,234.619 395,234.5C 391.654,233.822 388.488,232.655 385.5,231C 384.915,229.698 384.249,228.531 383.5,227.5C 382.247,219.729 381.581,211.896 381.5,204C 381.902,195.459 382.735,186.959 384,178.5C 386.657,172.875 389.657,167.542 393,162.5C 393.49,161.207 393.657,159.873 393.5,158.5C 386.349,157.606 380.182,159.606 375,164.5C 374.51,165.793 374.343,167.127 374.5,168.5C 372.473,168.338 370.473,168.505 368.5,169C 364.957,174.895 360.957,180.561 356.5,186C 348.812,187.366 341.479,189.533 334.5,192.5C 334.286,194.144 334.62,195.644 335.5,197C 333.19,197.497 330.857,197.663 328.5,197.5C 330.955,193.593 334.288,190.593 338.5,188.5C 343.827,187.115 349.16,185.615 354.5,184C 355.056,183.617 355.389,183.117 355.5,182.5C 358.797,179.264 361.63,175.597 364,171.5C 378.335,155.377 395.168,152.211 414.5,162C 418.633,165.131 422.466,168.631 426,172.5C 428.638,179.981 433.805,184.314 441.5,185.5 Z"/></g>
<g><path style="opacity:0.161" fill="#878787" d="M 293.5,155.5 C 286.687,154.509 279.687,154.175 272.5,154.5C 272.334,162.174 272.5,169.841 273,177.5C 274.371,175.959 275.871,174.625 277.5,173.5C 276.604,176.069 274.938,178.069 272.5,179.5C 271.502,170.859 271.169,162.192 271.5,153.5C 279.196,153.169 286.862,153.503 294.5,154.5C 294.376,155.107 294.043,155.44 293.5,155.5 Z"/></g>
<g><path style="opacity:1" fill="#9bd881" d="M 383.5,227.5 C 380.833,228.167 378.167,228.833 375.5,229.5C 371.829,232.249 370.663,235.916 372,240.5C 374.396,243.067 376.896,245.4 379.5,247.5C 379.756,249.776 381.09,250.943 383.5,251C 389.59,251.84 395.59,253.007 401.5,254.5C 401.709,255.086 402.043,255.586 402.5,256C 401.044,256.423 400.544,257.256 401,258.5C 402.87,260.219 405.037,261.219 407.5,261.5C 407.328,263.492 407.995,265.158 409.5,266.5C 382.508,267.5 355.508,267.833 328.5,267.5C 324.807,266.94 321.14,266.273 317.5,265.5C 313.16,263.16 309.827,259.827 307.5,255.5C 306.871,252.603 305.871,249.936 304.5,247.5C 304.437,242.797 304.771,238.13 305.5,233.5C 306.85,230.467 308.35,227.467 310,224.5C 310.671,223.748 311.504,223.414 312.5,223.5C 314.693,222.32 317.026,221.32 319.5,220.5C 319.999,217.783 321.165,215.449 323,213.5C 322.612,209.079 324.279,205.745 328,203.5C 328.495,201.527 328.662,199.527 328.5,197.5C 330.857,197.663 333.19,197.497 335.5,197C 334.62,195.644 334.286,194.144 334.5,192.5C 341.479,189.533 348.812,187.366 356.5,186C 360.957,180.561 364.957,174.895 368.5,169C 370.473,168.505 372.473,168.338 374.5,168.5C 374.343,167.127 374.51,165.793 375,164.5C 380.182,159.606 386.349,157.606 393.5,158.5C 393.657,159.873 393.49,161.207 393,162.5C 389.657,167.542 386.657,172.875 384,178.5C 382.735,186.959 381.902,195.459 381.5,204C 381.581,211.896 382.247,219.729 383.5,227.5 Z"/></g>
<g><path style="opacity:0.157" fill="#a9a9a9" d="M 59.5,166.5 C 59.4754,169.179 58.142,170.512 55.5,170.5C 56.8333,169.167 58.1667,167.833 59.5,166.5 Z"/></g>
<g><path style="opacity:1" fill="#9bd981" d="M 81.5,232.5 C 81.5,233.167 81.5,233.833 81.5,234.5C 80.7171,236.343 80.0505,238.343 79.5,240.5C 82.3376,242.653 84.3376,245.32 85.5,248.5C 89.1357,248.819 92.469,249.985 95.5,252C 101.006,251.942 106.173,253.109 111,255.5C 110.734,258.901 112.234,260.567 115.5,260.5C 115.595,263.272 116.929,265.272 119.5,266.5C 91.1745,267.5 62.8412,267.833 34.5,267.5C 33.8333,267.5 33.1667,267.5 32.5,267.5C 30.3104,264.242 27.3104,262.242 23.5,261.5C 23.6495,260.448 23.4828,259.448 23,258.5C 20.6175,256.615 18.7841,254.282 17.5,251.5C 16.3384,246.869 16.1717,242.202 17,237.5C 17.724,239.959 19.0573,240.959 21,240.5C 21.6601,237.466 21.1601,234.633 19.5,232C 21.5161,231.101 23.1828,229.767 24.5,228C 23.269,226.817 23.269,225.651 24.5,224.5C 25.2811,225.729 25.7811,227.062 26,228.5C 26.414,228.043 26.914,227.709 27.5,227.5C 28.3311,225.527 28.4978,223.527 28,221.5C 29.1912,218.466 31.3579,216.799 34.5,216.5C 34.8235,209.878 36.1569,203.545 38.5,197.5C 40.5596,196.785 42.2263,195.451 43.5,193.5C 45.0453,192.548 46.712,192.215 48.5,192.5C 48.5,191.5 48.5,190.5 48.5,189.5C 54.1603,188.339 59.827,187.172 65.5,186C 71.7214,182.057 75.8881,176.557 78,169.5C 79.9777,167.261 82.4777,165.928 85.5,165.5C 86.9524,164.06 87.9524,162.394 88.5,160.5C 91.4475,160.777 94.2809,160.444 97,159.5C 98.2547,160.211 99.4214,161.044 100.5,162C 99.9529,164.367 98.9529,166.533 97.5,168.5C 90.8086,169.115 90.1419,171.115 95.5,174.5C 93.17,178.165 91.67,182.165 91,186.5C 90.0283,182.768 89.5283,183.101 89.5,187.5C 89.6006,195.773 89.7672,204.107 90,212.5C 89.9179,217.075 91.0846,221.242 93.5,225C 93.3552,225.772 93.0219,226.439 92.5,227C 88.9085,227.789 85.4085,227.622 82,226.5C 81.5045,228.473 81.3379,230.473 81.5,232.5 Z"/></g>
<g><path style="opacity:0.024" fill="#bebebe" d="M 148.5,167.5 C 150.434,168.11 152.101,169.11 153.5,170.5C 151.067,170.727 149.401,169.727 148.5,167.5 Z"/></g>
<g><path style="opacity:0.102" fill="#898889" d="M 207.5,154.5 C 213.979,153.509 220.646,153.176 227.5,153.5C 227.831,162.192 227.498,170.859 226.5,179.5C 224.712,178.717 223.712,177.384 223.5,175.5C 224.458,175.953 225.292,176.619 226,177.5C 226.5,169.841 226.666,162.174 226.5,154.5C 220.167,154.5 213.833,154.5 207.5,154.5 Z"/></g>
<g><path style="opacity:0.114" fill="#aeaeae" d="M 349.5,166.5 C 349.475,169.179 348.142,170.512 345.5,170.5C 346.833,169.167 348.167,167.833 349.5,166.5 Z"/></g>
<g><path style="opacity:0.157" fill="#ababab" d="M 439.5,166.5 C 440.833,167.833 442.167,169.167 443.5,170.5C 440.858,170.512 439.525,169.179 439.5,166.5 Z"/></g>
<g><path style="opacity:0.053" fill="#cbcbcb" d="M 55.5,170.5 C 52.3811,171.87 49.0477,172.87 45.5,173.5C 48.381,171.32 51.7144,170.32 55.5,170.5 Z"/></g>
<g><path style="opacity:0.051" fill="#cdcdcd" d="M 345.5,170.5 C 342.381,171.87 339.048,172.87 335.5,173.5C 338.381,171.32 341.714,170.32 345.5,170.5 Z"/></g>
<g><path style="opacity:0.051" fill="#d2d2d2" d="M 443.5,170.5 C 447.286,170.32 450.619,171.32 453.5,173.5C 449.952,172.87 446.619,171.87 443.5,170.5 Z"/></g>
<g><path style="opacity:0.118" fill="#cecece" d="M 153.5,170.5 C 157.286,170.32 160.619,171.32 163.5,173.5C 159.952,172.87 156.619,171.87 153.5,170.5 Z"/></g>
<g><path style="opacity:0.227" fill="#6d6d6d" d="M 282.5,167.5 C 281.927,170.407 280.261,172.407 277.5,173.5C 278.419,170.911 280.086,168.911 282.5,167.5 Z"/></g>
<g><path style="opacity:0.227" fill="#bababa" d="M 45.5,173.5 C 44.4863,174.674 43.153,175.34 41.5,175.5C 42.287,173.896 43.6203,173.229 45.5,173.5 Z"/></g>
<g><path style="opacity:1" fill="#94c37e" d="M 88.5,160.5 C 87.9524,162.394 86.9524,164.06 85.5,165.5C 82.4777,165.928 79.9777,167.261 78,169.5C 75.8881,176.557 71.7214,182.057 65.5,186C 59.827,187.172 54.1603,188.339 48.5,189.5C 48.5,190.5 48.5,191.5 48.5,192.5C 46.712,192.215 45.0453,192.548 43.5,193.5C 42.2263,195.451 40.5596,196.785 38.5,197.5C 39.0283,196.279 39.695,195.113 40.5,194C 48.0583,187.698 56.725,183.698 66.5,182C 69.0373,179.094 71.204,175.927 73,172.5C 77.2052,167.113 82.3718,163.113 88.5,160.5 Z"/></g>
<g><path style="opacity:1" fill="#a4c495" d="M 134.5,160.5 C 136.63,162.127 138.63,163.96 140.5,166C 143.365,166.183 146.031,166.683 148.5,167.5C 142.529,166.8 139.196,169.466 138.5,175.5C 140.213,180.547 143.546,183.88 148.5,185.5C 144.281,185.472 140.781,183.805 138,180.5C 137.836,175.821 137.836,171.155 138,166.5C 135.09,165.55 133.923,163.55 134.5,160.5 Z"/></g>
<g><path style="opacity:0.463" fill="#9b9b9b" d="M 209.5,183.5 C 211.5,183.5 212.5,184.5 212.5,186.5C 211.167,185.833 210.167,184.833 209.5,183.5 Z"/></g>
<g><path style="opacity:1" fill="#405637" d="M 441.5,185.5 C 445.708,185.677 449.374,187.01 452.5,189.5C 448.605,188.538 444.939,187.204 441.5,185.5 Z"/></g>
<g><path style="opacity:0.51" fill="#636363" d="M 321.5,182.5 C 320.243,185.427 318.243,187.761 315.5,189.5C 316.757,186.573 318.757,184.239 321.5,182.5 Z"/></g>
<g><path style="opacity:1" fill="#537045" d="M 355.5,182.5 C 355.389,183.117 355.056,183.617 354.5,184C 349.16,185.615 343.827,187.115 338.5,188.5C 343.806,185.748 349.472,183.748 355.5,182.5 Z"/></g>
<g><path style="opacity:0.408" fill="#5b5b5b" d="M 29.5,184.5 C 28.9202,186.749 27.5869,188.415 25.5,189.5C 26.0798,187.251 27.4131,185.585 29.5,184.5 Z"/></g>
<g><path style="opacity:1" fill="#304825" d="M 155.5,186.5 C 158.346,186.552 160.68,187.552 162.5,189.5C 159.843,189.065 157.509,188.065 155.5,186.5 Z"/></g>
<g><path style="opacity:0.012" fill="#adadad" d="M 215.5,189.5 C 217.914,190.911 219.581,192.911 220.5,195.5C 218.086,194.089 216.419,192.089 215.5,189.5 Z"/></g>
<g><path style="opacity:0.027" fill="#adadad" d="M 283.5,190.5 C 281.833,192.833 279.833,194.833 277.5,196.5C 278.5,193.5 280.5,191.5 283.5,190.5 Z"/></g>
<g><path style="opacity:0.235" fill="#7c7c7c" d="M 185.5,192.5 C 186.906,192.973 187.573,193.973 187.5,195.5C 186.094,195.027 185.427,194.027 185.5,192.5 Z"/></g>
<g><path style="opacity:0.239" fill="#7f7f7f" d="M 313.5,192.5 C 313.573,194.027 312.906,195.027 311.5,195.5C 311.427,193.973 312.094,192.973 313.5,192.5 Z"/></g>
<g><path style="opacity:0.004" fill="#bcbcbc" d="M 192.5,208.5 C 196.5,210.5 199.5,213.5 201.5,217.5C 198.167,214.833 195.167,211.833 192.5,208.5 Z"/></g>
<g><path style="opacity:0.165" fill="#969697" d="M 277.5,196.5 C 276.627,198.886 275.127,200.886 273,202.5C 272.667,212.167 272.333,221.833 272,231.5C 271.392,233.066 270.558,234.4 269.5,235.5C 269.491,233.692 269.991,232.025 271,230.5C 271.333,220.833 271.667,211.167 272,201.5C 273.704,199.627 275.537,197.96 277.5,196.5 Z"/></g>
<g><path style="opacity:0.008" fill="#b7b7b7" d="M 482.5,208.5 C 486.833,210.833 490.167,214.167 492.5,218.5C 488.833,215.5 485.5,212.167 482.5,208.5 Z"/></g>
<g><path style="opacity:0.231" fill="#b3b0b2" d="M 306.5,208.5 C 305.738,210.262 304.404,211.262 302.5,211.5C 303.262,209.738 304.596,208.738 306.5,208.5 Z"/></g>
<g><path style="opacity:1" fill="#89b575" d="M 328.5,197.5 C 328.662,199.527 328.495,201.527 328,203.5C 324.279,205.745 322.612,209.079 323,213.5C 321.165,215.449 319.999,217.783 319.5,220.5C 317.026,221.32 314.693,222.32 312.5,223.5C 314.461,221.037 316.628,218.703 319,216.5C 320.53,212.91 321.864,209.243 323,205.5C 324.116,202.244 325.949,199.578 328.5,197.5 Z"/></g>
<g><path style="opacity:0.31" fill="#a4a4a4" d="M 302.5,211.5 C 301.581,214.089 299.914,216.089 297.5,217.5C 298.419,214.911 300.086,212.911 302.5,211.5 Z"/></g>
<g><path style="opacity:0.278" fill="#abacab" d="M 16.5,208.5 C 13.5,212.167 10.1667,215.5 6.5,218.5C 8.83333,214.167 12.1667,210.833 16.5,208.5 Z"/></g>
<g><path style="opacity:1" fill="#a1ca8d" d="M 167.5,193.5 C 173.714,199.919 177.881,207.586 180,216.5C 182.183,218.907 184.35,221.24 186.5,223.5C 183.642,223.405 181.309,222.238 179.5,220C 177.866,219.506 176.199,219.34 174.5,219.5C 174.666,226.841 174.5,234.174 174,241.5C 170.229,246.326 165.729,247.326 160.5,244.5C 159.614,243.675 159.281,242.675 159.5,241.5C 158.025,240.738 156.691,240.405 155.5,240.5C 156.789,234.857 156.789,229.19 155.5,223.5C 154.692,223.192 154.025,222.692 153.5,222C 153.982,220.992 154.148,219.825 154,218.5C 154.333,218.833 154.667,219.167 155,219.5C 156,216.833 157,216.833 158,219.5C 158.374,218.584 158.874,217.75 159.5,217C 164.03,216.053 168.364,216.553 172.5,218.5C 174.053,217.561 175.387,216.394 176.5,215C 175.589,211.855 174.755,208.688 174,205.5C 172.092,201.408 169.925,197.408 167.5,193.5 Z"/></g>
<g><path style="opacity:1" fill="#030902" d="M 47.5,243.5 C 41.9548,245.864 38.2882,244.197 36.5,238.5C 36.3339,232.824 36.5006,227.157 37,221.5C 41.1299,217.539 45.2965,217.539 49.5,221.5C 50.6639,227.807 50.8306,234.141 50,240.5C 48.955,241.373 48.1217,242.373 47.5,243.5 Z"/></g>
<g><path style="opacity:1" fill="#050903" d="M 159.5,241.5 C 158.411,234.883 158.244,228.217 159,221.5C 163.261,217.577 167.594,217.577 172,221.5C 172.667,227.833 172.667,234.167 172,240.5C 168.054,245.267 163.887,245.6 159.5,241.5 Z"/></g>
<g><path style="opacity:1" fill="#050a03" d="M 451.5,243.5 C 450.878,242.373 450.045,241.373 449,240.5C 448.333,234.167 448.333,227.833 449,221.5C 449.708,220.619 450.542,219.953 451.5,219.5C 460.92,217.423 464.587,221.256 462.5,231C 463.366,236.168 462.033,240.501 458.5,244C 456.071,244.703 453.738,244.537 451.5,243.5 Z"/></g>
<g><path style="opacity:0.075" fill="#bbbbbb" d="M 6.5,218.5 C 6.25027,220.674 5.25027,222.341 3.5,223.5C 3.74973,221.326 4.74973,219.659 6.5,218.5 Z"/></g>
<g><path style="opacity:0.059" fill="#cacaca" d="M 296.5,218.5 C 296.25,220.674 295.25,222.341 293.5,223.5C 293.75,221.326 294.75,219.659 296.5,218.5 Z"/></g>
<g><path style="opacity:1" fill="#030802" d="M 329.5,218.5 C 331.857,218.337 334.19,218.503 336.5,219C 338.333,219.5 339.5,220.667 340,222.5C 340.667,228.5 340.667,234.5 340,240.5C 335.069,246.172 330.735,245.839 327,239.5C 326.333,233.5 326.333,227.5 327,221.5C 328.045,220.627 328.878,219.627 329.5,218.5 Z"/></g>
<g><path style="opacity:0.082" fill="#c3c3c3" d="M 492.5,218.5 C 494.669,220.34 496.002,222.674 496.5,225.5C 494.412,223.664 493.079,221.331 492.5,218.5 Z"/></g>
<g><path style="opacity:0.114" fill="#aaaaaa" d="M 203.5,220.5 C 204.906,220.973 205.573,221.973 205.5,223.5C 204.094,223.027 203.427,222.027 203.5,220.5 Z"/></g>
<g><path style="opacity:1" fill="#9ec58c" d="M 451.5,243.5 C 453.738,244.537 456.071,244.703 458.5,244C 462.033,240.501 463.366,236.168 462.5,231C 464.587,221.256 460.92,217.423 451.5,219.5C 451.881,218.069 452.881,217.236 454.5,217C 456.5,216.333 458.5,216.333 460.5,217C 463.576,220.99 464.91,225.656 464.5,231C 464.333,234.5 464.167,238 464,241.5C 462.5,242.333 461.333,243.5 460.5,245C 459,245.167 457.5,245.333 456,245.5C 454.014,245.431 452.514,244.765 451.5,243.5 Z"/></g>
<g><path style="opacity:0.008" fill="#e6e6e6" d="M 496.5,225.5 C 497.931,226.78 498.598,228.447 498.5,230.5C 497.069,229.22 496.402,227.553 496.5,225.5 Z"/></g>
<g><path style="opacity:1" fill="#2b4722" d="M 92.5,230.5 C 89.4299,230.368 86.4299,230.701 83.5,231.5C 83.6107,230.883 83.944,230.383 84.5,230C 87.367,229.199 90.0336,229.366 92.5,230.5 Z"/></g>
<g><path style="opacity:1" fill="#060a05" d="M 81.5,234.5 C 81.5,233.833 81.5,233.167 81.5,232.5C 82.1667,232.167 82.8333,231.833 83.5,231.5C 86.4299,230.701 89.4299,230.368 92.5,230.5C 93.6253,232.129 94.9586,233.629 96.5,235C 104.367,238.019 111.033,236.353 116.5,230C 125.908,228.739 129.075,232.572 126,241.5C 111.65,254.775 97.3164,254.775 83,241.5C 81.7978,239.323 81.2978,236.989 81.5,234.5 Z"/></g>
<g><path style="opacity:1" fill="#060b05" d="M 375.5,229.5 C 380.778,229.575 385.112,231.742 388.5,236C 395.933,237.411 402.267,235.411 407.5,230C 416.408,229.248 419.241,233.081 416,241.5C 414.624,242.705 413.458,244.038 412.5,245.5C 408.347,247.611 404.014,249.445 399.5,251C 392.383,252.249 385.717,251.082 379.5,247.5C 376.896,245.4 374.396,243.067 372,240.5C 370.663,235.916 371.829,232.249 375.5,229.5 Z"/></g>
<g><path style="opacity:1" fill="#93c77d" d="M 38.5,197.5 C 36.1569,203.545 34.8235,209.878 34.5,216.5C 31.3579,216.799 29.1912,218.466 28,221.5C 28.4978,223.527 28.3311,225.527 27.5,227.5C 26.914,227.709 26.414,228.043 26,228.5C 25.7811,227.062 25.2811,225.729 24.5,224.5C 23.269,225.651 23.269,226.817 24.5,228C 23.1828,229.767 21.5161,231.101 19.5,232C 21.1601,234.633 21.6601,237.466 21,240.5C 19.0573,240.959 17.724,239.959 17,237.5C 16.1717,242.202 16.3384,246.869 17.5,251.5C 18.7841,254.282 20.6175,256.615 23,258.5C 23.4828,259.448 23.6495,260.448 23.5,261.5C 27.3104,262.242 30.3104,264.242 32.5,267.5C 31.8333,267.5 31.1667,267.5 30.5,267.5C 22.2678,263.602 16.9344,257.268 14.5,248.5C 14.4126,243.463 14.746,238.463 15.5,233.5C 15.6079,231.217 16.4412,229.217 18,227.5C 21.6239,223.842 25.2906,220.175 29,216.5C 31.1825,210.768 33.5159,205.102 36,199.5C 36.7083,198.619 37.5416,197.953 38.5,197.5 Z"/></g>
<g><path style="opacity:1" fill="#91bd7b" d="M 47.5,243.5 C 48.1217,242.373 48.955,241.373 50,240.5C 50.8306,234.141 50.6639,227.807 49.5,221.5C 45.2965,217.539 41.1299,217.539 37,221.5C 36.5006,227.157 36.3339,232.824 36.5,238.5C 35.1826,232.322 35.1826,225.988 36.5,219.5C 37.2868,218.758 37.9535,217.925 38.5,217C 49.8105,214.977 54.4772,219.644 52.5,231C 52.1667,234.5 51.8333,238 51.5,241.5C 50.3777,242.63 49.0443,243.297 47.5,243.5 Z"/></g>
<g><path style="opacity:1" fill="#a3cb8f" d="M 383.5,227.5 C 384.249,228.531 384.915,229.698 385.5,231C 388.488,232.655 391.654,233.822 395,234.5C 399.599,234.619 402.433,232.453 403.5,228C 408.202,227.172 412.869,227.338 417.5,228.5C 418.549,231.747 419.216,235.08 419.5,238.5C 418.809,242.368 416.475,244.701 412.5,245.5C 413.458,244.038 414.624,242.705 416,241.5C 419.241,233.081 416.408,229.248 407.5,230C 402.267,235.411 395.933,237.411 388.5,236C 385.112,231.742 380.778,229.575 375.5,229.5C 378.167,228.833 380.833,228.167 383.5,227.5 Z"/></g>
<g><path style="opacity:1" fill="#314825" d="M 483.5,233.5 C 484.973,236.017 485.64,238.85 485.5,242C 485.494,244.033 485.161,245.866 484.5,247.5C 484.563,242.797 484.229,238.13 483.5,233.5 Z"/></g>
<g><path style="opacity:1" fill="#2c4024" d="M 194.5,235.5 C 195.647,239.646 195.814,243.98 195,248.5C 194.478,251.281 193.311,253.615 191.5,255.5C 194.036,249.094 195.036,242.427 194.5,235.5 Z"/></g>
<g><path style="opacity:1" fill="#253e1a" d="M 305.5,233.5 C 304.771,238.13 304.437,242.797 304.5,247.5C 303.838,245.696 303.505,243.696 303.5,241.5C 303.287,238.473 303.953,235.807 305.5,233.5 Z"/></g>
<g><path style="opacity:1" fill="#2a4120" d="M 15.5,233.5 C 14.746,238.463 14.4126,243.463 14.5,248.5C 13.838,246.696 13.5046,244.696 13.5,242.5C 13.3425,239.186 14.0092,236.186 15.5,233.5 Z"/></g>
<g><path style="opacity:1" fill="#2e4623" d="M 304.5,247.5 C 305.871,249.936 306.871,252.603 307.5,255.5C 305.345,253.383 304.345,250.716 304.5,247.5 Z"/></g>
<g><path style="opacity:1" fill="#374d30" d="M 484.5,247.5 C 484.655,250.716 483.655,253.383 481.5,255.5C 482.129,252.603 483.129,249.936 484.5,247.5 Z"/></g>
<g><path style="opacity:0.094" fill="#979696" d="M 220.5,195.5 C 222.75,197.244 224.917,199.244 227,201.5C 227.831,246.335 227.665,291.002 226.5,335.5C 226.667,291.165 226.5,246.832 226,202.5C 223.57,200.578 221.737,198.245 220.5,195.5 Z"/></g>
<g><path style="opacity:0.176" fill="#909090" d="M 268.5,256.5 C 270.173,257.343 271.34,258.676 272,260.5C 272.5,285.498 272.667,310.498 272.5,335.5C 271.668,311.003 271.168,286.337 271,261.5C 269.906,259.922 269.072,258.255 268.5,256.5 Z"/></g>
<g><path style="opacity:1" fill="#5d804f" d="M 30.5,267.5 C 31.1667,267.5 31.8333,267.5 32.5,267.5C 33.1667,267.5 33.8333,267.5 34.5,267.5C 80.6637,268.499 126.997,268.832 173.5,268.5C 127.002,269.665 80.3351,269.832 33.5,269C 32.2625,268.768 31.2625,268.268 30.5,267.5 Z"/></g>
<g><path style="opacity:1" fill="#5e8150" d="M 317.5,265.5 C 321.14,266.273 324.807,266.94 328.5,267.5C 373.33,268.499 418.33,268.832 463.5,268.5C 417.002,269.665 370.335,269.832 323.5,269C 320.975,268.576 318.975,267.41 317.5,265.5 Z"/></g>
<g><path style="opacity:0.322" fill="#939393" d="M 8.5,269.5 C 11.4274,270.757 13.7607,272.757 15.5,275.5C 12.5726,274.243 10.2393,272.243 8.5,269.5 Z"/></g>
<g><path style="opacity:0.294" fill="#a2a2a2" d="M 298.5,269.5 C 301.427,270.757 303.761,272.757 305.5,275.5C 302.573,274.243 300.239,272.243 298.5,269.5 Z"/></g>
<g><path style="opacity:0.02" fill="#b3b3b3" d="M 197.5,272.5 C 196.738,274.262 195.404,275.262 193.5,275.5C 194.262,273.738 195.596,272.738 197.5,272.5 Z"/></g>
<g><path style="opacity:0.184" fill="#a1a1a1" d="M 485.5,274.5 C 484.71,275.401 483.71,276.068 482.5,276.5C 482.821,274.952 483.821,274.285 485.5,274.5 Z"/></g>
<g><path style="opacity:0.471" fill="#939393" d="M 15.5,275.5 C 17.4044,275.738 18.7377,276.738 19.5,278.5C 17.5956,278.262 16.2623,277.262 15.5,275.5 Z"/></g>
<g><path style="opacity:0.447" fill="#898989" d="M 305.5,275.5 C 307.027,275.427 308.027,276.094 308.5,277.5C 306.973,277.573 305.973,276.906 305.5,275.5 Z"/></g>
<g><path style="opacity:0.133" fill="#aaaaaa" d="M 192.5,276.5 C 190.664,278.588 188.331,279.921 185.5,280.5C 187.336,278.412 189.669,277.079 192.5,276.5 Z"/></g>
<g><path style="opacity:0.196" fill="#9f9f9f" d="M 308.5,277.5 C 310.027,277.427 311.027,278.094 311.5,279.5C 309.973,279.573 308.973,278.906 308.5,277.5 Z"/></g>
<g><path style="opacity:0.047" fill="#b9b9b9" d="M 481.5,277.5 C 480.486,278.674 479.153,279.34 477.5,279.5C 478.287,277.896 479.62,277.229 481.5,277.5 Z"/></g>
<g><path style="opacity:0.176" fill="#c8c8c8" d="M 32.5,283.5 C 36.1817,283.335 39.8484,283.501 43.5,284C 44.8228,284.816 45.4894,285.983 45.5,287.5C 44.3734,286.878 43.3734,286.045 42.5,285C 38.9748,284.821 35.6414,284.321 32.5,283.5 Z"/></g>
<g><path style="opacity:0.176" fill="#afafaf" d="M 82.5,284.5 C 76.31,284.177 70.31,284.51 64.5,285.5C 63.9569,285.44 63.6236,285.107 63.5,284.5C 69.9883,283.183 76.3217,283.183 82.5,284.5 Z"/></g>
<g><path style="opacity:0.176" fill="#b0b0b0" d="M 372.5,284.5 C 366.31,284.177 360.31,284.51 354.5,285.5C 353.957,285.44 353.624,285.107 353.5,284.5C 359.988,283.183 366.322,283.183 372.5,284.5 Z"/></g>
<g><path style="opacity:0.176" fill="#afafaf" d="M 416.5,284.5 C 422.678,283.183 429.012,283.183 435.5,284.5C 435.376,285.107 435.043,285.44 434.5,285.5C 428.69,284.51 422.69,284.177 416.5,284.5 Z"/></g>
<g><path style="opacity:0.153" fill="#cccccc" d="M 466.5,283.5 C 462.399,283.981 458.399,284.981 454.5,286.5C 454.414,285.504 454.748,284.671 455.5,284C 459.152,283.501 462.818,283.335 466.5,283.5 Z"/></g>
<g><path style="opacity:1" fill="#bf9373" d="M 97.5,283.5 C 102.167,283.5 106.833,283.5 111.5,283.5C 111.833,318.506 111.5,353.506 110.5,388.5C 106.235,387.561 101.902,387.228 97.5,387.5C 97.5,352.833 97.5,318.167 97.5,283.5 Z"/></g>
<g><path style="opacity:1" fill="#cf966d" d="M 99.5,284.5 C 103.167,284.5 106.833,284.5 110.5,284.5C 110.5,318.5 110.5,352.5 110.5,386.5C 106.833,386.5 103.167,386.5 99.5,386.5C 98.1667,352.5 98.1667,318.5 99.5,284.5 Z"/></g>
<g><path style="opacity:1" fill="#412e21" d="M 387.5,283.5 C 387.5,318.167 387.5,352.833 387.5,387.5C 390.167,387.5 392.833,387.5 395.5,387.5C 392.713,388.477 389.713,388.81 386.5,388.5C 386.168,353.329 386.502,318.329 387.5,283.5 Z"/></g>
<g><path style="opacity:1" fill="#c19576" d="M 387.5,283.5 C 392.167,283.5 396.833,283.5 401.5,283.5C 401.5,318.167 401.5,352.833 401.5,387.5C 399.5,387.5 397.5,387.5 395.5,387.5C 392.833,387.5 390.167,387.5 387.5,387.5C 387.5,352.833 387.5,318.167 387.5,283.5 Z"/></g>
<g><path style="opacity:1" fill="#d0966e" d="M 389.5,285.5 C 393.106,285.211 396.606,285.544 400,286.5C 400.667,319.167 400.667,351.833 400,384.5C 396.233,385.368 392.399,386.035 388.5,386.5C 388.181,352.79 388.514,319.123 389.5,285.5 Z"/></g>
<g><path style="opacity:0.302" fill="#c2c2c2" d="M 70.5,291.5 C 73.2427,293.239 75.2427,295.573 76.5,298.5C 73.7573,296.761 71.7573,294.427 70.5,291.5 Z"/></g>
<g><path style="opacity:0.314" fill="#bfbfbf" d="M 361.5,292.5 C 363.914,293.911 365.581,295.911 366.5,298.5C 364.086,297.089 362.419,295.089 361.5,292.5 Z"/></g>
<g><path style="opacity:0.204" fill="#bcbcbc" d="M 138.5,291.5 C 137.243,294.427 135.243,296.761 132.5,298.5C 133.757,295.573 135.757,293.239 138.5,291.5 Z"/></g>
<g><path style="opacity:0.184" fill="#bdbdbd" d="M 428.5,291.5 C 427.581,294.089 425.914,296.089 423.5,297.5C 424.419,294.911 426.086,292.911 428.5,291.5 Z"/></g>
<g><path style="opacity:0.282" fill="#b5b5b5" d="M 79.5,301.5 C 80.5,302.167 81.5,302.833 82.5,303.5C 82.631,304.239 82.4643,304.906 82,305.5C 80.5187,304.529 79.6854,303.196 79.5,301.5 Z"/></g>
<g><path style="opacity:0.322" fill="#afafaf" d="M 129.5,301.5 C 129.573,303.027 128.906,304.027 127.5,304.5C 127.427,302.973 128.094,301.973 129.5,301.5 Z"/></g>
<g><path style="opacity:0.306" fill="#b2b2b2" d="M 370.5,302.5 C 371.167,302.833 371.833,303.167 372.5,303.5C 371.699,305.793 371.032,305.46 370.5,302.5 Z"/></g>
<g><path style="opacity:0.278" fill="#bfbfbf" d="M 418.5,302.5 C 417.968,305.46 417.301,305.793 416.5,303.5C 417.167,303.167 417.833,302.833 418.5,302.5 Z"/></g>
<g><path style="opacity:0.004" fill="#c2c2c2" d="M 272.5,335.5 C 276.5,337.5 279.5,340.5 281.5,344.5C 278.167,341.833 275.167,338.833 272.5,335.5 Z"/></g>
<g><path style="opacity:0.192" fill="#b3b3b3" d="M 226.5,335.5 C 223.833,338.833 220.833,341.833 217.5,344.5C 219.5,340.5 222.5,337.5 226.5,335.5 Z"/></g>
<g><path style="opacity:0.376" fill="#a4a4a4" d="M 214.5,347.5 C 214.573,349.027 213.906,350.027 212.5,350.5C 212.427,348.973 213.094,347.973 214.5,347.5 Z"/></g>
<g><path style="opacity:0.388" fill="#949494" d="M 284.5,347.5 C 285.906,347.973 286.573,348.973 286.5,350.5C 285.094,350.027 284.427,349.027 284.5,347.5 Z"/></g>
<g><path style="opacity:0.286" fill="#636363" d="M 277.5,364.5 C 279.997,365.129 281.33,366.796 281.5,369.5C 279.937,368.055 278.604,366.389 277.5,364.5 Z"/></g>
<g><path style="opacity:0.164" fill="#8d8d8d" d="M 273.5,358.5 C 272.834,363.99 272.501,369.657 272.5,375.5C 272.504,381.542 273.171,387.208 274.5,392.5C 273.791,393.404 272.791,393.737 271.5,393.5C 271.168,381.482 271.501,369.482 272.5,357.5C 273.107,357.624 273.44,357.957 273.5,358.5 Z"/></g>
<g><path style="opacity:0.353" fill="#b9b9b9" d="M 151.5,375.5 C 154.243,377.239 156.243,379.573 157.5,382.5C 154.757,380.761 152.757,378.427 151.5,375.5 Z"/></g>
<g><path style="opacity:0.145" fill="#8e8e8e" d="M 225.5,393.5 C 226.833,381.833 226.833,370.167 225.5,358.5C 225.369,357.624 225.702,356.957 226.5,356.5C 227.833,369.167 227.833,381.833 226.5,394.5C 225.893,394.376 225.56,394.043 225.5,393.5 Z"/></g>
<g><path style="opacity:0.196" fill="#b3b3b3" d="M 56.5,376.5 C 55.5806,379.089 53.914,381.089 51.5,382.5C 52.4194,379.911 54.086,377.911 56.5,376.5 Z"/></g>
<g><path style="opacity:0.322" fill="#b1b1b1" d="M 51.5,382.5 C 51.2624,384.404 50.2624,385.738 48.5,386.5C 48.7376,384.596 49.7376,383.262 51.5,382.5 Z"/></g>
<g><path style="opacity:0.314" fill="#b7b7b7" d="M 157.5,382.5 C 159.262,383.262 160.262,384.596 160.5,386.5C 158.738,385.738 157.738,384.404 157.5,382.5 Z"/></g>
<g><path style="opacity:0.314" fill="#a6a6a6" d="M 48.5,386.5 C 48.573,388.027 47.9063,389.027 46.5,389.5C 46.427,387.973 47.0937,386.973 48.5,386.5 Z"/></g>
<g><path style="opacity:0.376" fill="#989898" d="M 5.5,387.5 C 4.48631,388.674 3.15298,389.34 1.5,389.5C 2.28696,387.896 3.6203,387.229 5.5,387.5 Z"/></g>
<g><path style="opacity:0.157" fill="#a8a8a8" d="M 185.5,388.5 C 183.786,389.738 181.786,390.405 179.5,390.5C 181.102,388.926 183.102,388.259 185.5,388.5 Z"/></g>
<g><path style="opacity:0.224" fill="#a6a6a6" d="M 313.5,388.5 C 315.898,388.259 317.898,388.926 319.5,390.5C 317.214,390.405 315.214,389.738 313.5,388.5 Z"/></g>
<g><path style="opacity:0.243" fill="#919191" d="M 319.5,390.5 C 322.754,390.794 325.421,392.127 327.5,394.5C 324.515,393.674 321.849,392.341 319.5,390.5 Z"/></g>
<g><path style="opacity:0.157" fill="#868686" d="M 21.5,391.5 C 23.3797,391.229 24.713,391.896 25.5,393.5C 23.847,393.34 22.5137,392.674 21.5,391.5 Z"/></g>
<g><path style="opacity:0.216" fill="#8f8f8f" d="M 179.5,390.5 C 177.151,392.341 174.485,393.674 171.5,394.5C 173.579,392.127 176.246,390.794 179.5,390.5 Z"/></g>
<g><path style="opacity:0.576" fill="#7d7d7d" d="M 28.5,394.5 C 30.2303,395.026 31.5637,396.026 32.5,397.5C 30.368,397.446 29.0347,396.446 28.5,394.5 Z"/></g>
<g><path style="opacity:0.137" fill="#888888" d="M 59.5,398.5 C 58.6971,399.423 58.5304,400.423 59,401.5C 59.8159,400.177 60.9826,399.511 62.5,399.5C 61.2942,402.139 59.2942,402.972 56.5,402C 56.9743,400.271 57.9743,399.105 59.5,398.5 Z"/></g>
<g><path style="opacity:1" fill="#9bb4bd" d="M 109.5,403.5 C 102.825,403.334 96.1583,403.5 89.5,404C 86.6473,405.43 83.6473,406.263 80.5,406.5C 89.74,401.198 99.4067,400.198 109.5,403.5 Z"/></g>
<g><path style="opacity:1" fill="#c2e8f8" d="M 385.5,404.5 C 392.044,402.868 398.711,402.201 405.5,402.5C 409.263,402.857 412.93,403.69 416.5,405C 423.833,409.333 431.167,413.667 438.5,418C 445.86,421.277 453.194,421.277 460.5,418C 467.726,413.556 475.059,409.39 482.5,405.5C 484.491,431.145 485.158,457.145 484.5,483.5C 327.833,484.833 171.167,484.833 14.5,483.5C 14.1689,457.328 14.5022,431.328 15.5,405.5C 23.7793,409.975 32.1127,414.475 40.5,419C 46.1558,420.919 51.8225,420.919 57.5,419C 65.2207,414.809 72.8874,410.642 80.5,406.5C 83.6473,406.263 86.6473,405.43 89.5,404C 96.1583,403.5 102.825,403.334 109.5,403.5C 111.564,403.687 113.564,404.187 115.5,405C 123.995,409.413 132.328,414.08 140.5,419C 147.26,421.059 153.927,420.725 160.5,418C 167.833,413.667 175.167,409.333 182.5,405C 193.459,400.43 204.459,400.43 215.5,405C 223.995,409.413 232.328,414.08 240.5,419C 246.156,420.919 251.822,420.919 257.5,419C 265.653,415.426 273.32,411.093 280.5,406C 295.3,399.367 309.634,400.367 323.5,409C 329.002,412.585 334.669,415.919 340.5,419C 347.304,421.244 353.971,420.91 360.5,418C 368.6,412.952 376.933,408.452 385.5,404.5 Z"/></g>
<g><path style="opacity:1" fill="#81969e" d="M 405.5,402.5 C 398.711,402.201 392.044,402.868 385.5,404.5C 387.277,403.4 389.277,402.566 391.5,402C 396.352,401.185 401.019,401.352 405.5,402.5 Z"/></g>
<g><path style="opacity:1" fill="#3f525b" d="M 482.5,405.5 C 483.209,404.596 484.209,404.263 485.5,404.5C 485.831,431.005 485.498,457.339 484.5,483.5C 485.158,457.145 484.491,431.145 482.5,405.5 Z"/></g>
<g><path style="opacity:1" fill="#3e5359" d="M 15.5,405.5 C 14.5022,431.328 14.1689,457.328 14.5,483.5C 13.1708,457.33 13.1708,430.997 14.5,404.5C 15.1067,404.624 15.44,404.957 15.5,405.5 Z"/></g>
<g><path style="opacity:1" fill="#71848c" d="M 91.5,436.5 C 96.3158,435.35 101.316,435.184 106.5,436C 109.851,436.057 112.851,436.891 115.5,438.5C 107.581,436.982 99.581,436.315 91.5,436.5 Z"/></g>
<g><path style="opacity:1" fill="#72878f" d="M 207.5,436.5 C 200.798,436.336 194.131,436.669 187.5,437.5C 191.034,435.952 194.867,435.286 199,435.5C 202.021,435.502 204.854,435.836 207.5,436.5 Z"/></g>
<g><path style="opacity:1" fill="#455961" d="M 405.5,436.5 C 399.491,436.701 393.491,437.034 387.5,437.5C 390.886,436.03 394.553,435.363 398.5,435.5C 401.025,435.503 403.359,435.837 405.5,436.5 Z"/></g>
<g><path style="opacity:1" fill="#05080a" d="M 91.5,436.5 C 99.581,436.315 107.581,436.982 115.5,438.5C 120.891,440.363 125.891,443.03 130.5,446.5C 132.356,454.145 129.356,457.645 121.5,457C 109.766,450.062 97.4326,448.729 84.5,453C 75.6611,458.254 66.6611,463.254 57.5,468C 48.0606,471.296 39.894,469.462 33,462.5C 31.6215,458.102 32.7882,454.602 36.5,452C 41.7171,453.26 47.0504,453.926 52.5,454C 60.995,449.587 69.3283,444.92 77.5,440C 82.1084,438.518 86.7751,437.351 91.5,436.5 Z"/></g>
<g><path style="opacity:1" fill="#050709" d="M 207.5,436.5 C 211.655,437.871 215.988,439.038 220.5,440C 228.297,444.066 235.964,448.399 243.5,453C 247.471,454.913 251.471,454.913 255.5,453C 265.272,445.899 275.938,440.566 287.5,437C 302.562,434.702 316.562,437.369 329.5,445C 333.08,453.174 330.414,457.174 321.5,457C 308.975,449.632 295.975,448.632 282.5,454C 274.328,458.92 265.995,463.587 257.5,468C 251.027,470.232 244.694,469.899 238.5,467C 230.996,462.413 223.329,458.08 215.5,454C 201.276,448.54 187.61,449.707 174.5,457.5C 168.059,455.618 166.226,451.618 169,445.5C 170.214,443.951 171.714,442.785 173.5,442C 178.101,440.194 182.767,438.694 187.5,437.5C 194.131,436.669 200.798,436.336 207.5,436.5 Z"/></g>
<g><path style="opacity:1" fill="#050709" d="M 405.5,436.5 C 410.487,437.665 415.487,438.832 420.5,440C 428.963,444.399 437.296,449.066 445.5,454C 450.339,454.827 454.839,453.994 459,451.5C 465.41,452.576 467.743,456.243 466,462.5C 457.804,469.745 448.637,471.245 438.5,467C 431.167,462.667 423.833,458.333 416.5,454C 402.629,448.562 389.296,449.562 376.5,457C 368.643,456.801 366.143,452.967 369,445.5C 370.972,443.768 373.139,442.435 375.5,441.5C 379.767,440.744 383.767,439.411 387.5,437.5C 393.491,437.034 399.491,436.701 405.5,436.5 Z"/></g>
<g><path style="opacity:1" fill="#334349" d="M 387.5,437.5 C 383.767,439.411 379.767,440.744 375.5,441.5C 379.085,439.194 383.085,437.861 387.5,437.5 Z"/></g>
<g><path style="opacity:0.004" fill="#d6e2d3" d="M 1.5,491.5 C 2.90632,491.973 3.57298,492.973 3.5,494.5C 2.09368,494.027 1.42702,493.027 1.5,491.5 Z"/></g>
<g><path style="opacity:0.004" fill="#dddddd" d="M 497.5,491.5 C 497.573,493.027 496.906,494.027 495.5,494.5C 495.427,492.973 496.094,491.973 497.5,491.5 Z"/></g>
<g><path style="opacity:0.188" fill="#cdcdcd" d="M 4.5,495.5 C 6.02694,495.427 7.02694,496.094 7.5,497.5C 5.97306,497.573 4.97306,496.906 4.5,495.5 Z"/></g>
<g><path style="opacity:0.008" fill="#e6e6e6" d="M 494.5,495.5 C 494.027,496.906 493.027,497.573 491.5,497.5C 491.973,496.094 492.973,495.427 494.5,495.5 Z"/></g>
</svg>
