<?xml version="1.0" encoding="UTF-8"?>
<!DOCTYPE svg PUBLIC "-//W3C//DTD SVG 1.1//EN" "http://www.w3.org/Graphics/SVG/1.1/DTD/svg11.dtd">
<svg xmlns="http://www.w3.org/2000/svg" version="1.1" width="500px" height="500px" style="shape-rendering:geometricPrecision; text-rendering:geometricPrecision; image-rendering:optimizeQuality; fill-rule:evenodd; clip-rule:evenodd" xmlns:xlink="http://www.w3.org/1999/xlink">
<g><path style="opacity:0.106" fill="#c7cad3" d="M 176.5,84.5 C 174.5,87.1667 172.167,89.5 169.5,91.5C 170.833,88.1667 173.167,85.8333 176.5,84.5 Z"/></g>
<g><path style="opacity:1" fill="#1acdb8" d="M 313.5,123.5 C 330.562,147.863 334.228,174.196 324.5,202.5C 301.62,166.204 268.953,144.038 226.5,136C 223.146,135.545 219.813,135.045 216.5,134.5C 202.668,131.856 188.668,130.522 174.5,130.5C 170.765,113.854 175.765,100.687 189.5,91C 197.225,87.998 204.892,85.1647 212.5,82.5C 246.742,80.1917 277.076,90.0251 303.5,112C 306.698,116.026 310.032,119.859 313.5,123.5 Z"/></g>
<g><path style="opacity:1" fill="#1f3342" d="M 332.5,129.5 C 330.402,130.914 329.402,130.248 329.5,127.5C 327.058,127.646 326.391,126.813 327.5,125C 325.667,123.5 323.833,122 322,120.5C 321.683,122.301 321.016,122.634 320,121.5C 317.993,122.669 315.827,123.335 313.5,123.5C 310.032,119.859 306.698,116.026 303.5,112C 277.076,90.0251 246.742,80.1917 212.5,82.5C 212.611,81.8826 212.944,81.3826 213.5,81C 229.332,79.2382 244.665,80.9049 259.5,86C 261.899,86.711 264.232,86.5443 266.5,85.5C 267.293,86.3554 266.96,87.1887 265.5,88C 269.224,88.7969 272.89,89.7969 276.5,91C 275.112,91.8893 275.278,92.3893 277,92.5C 278.28,92.3865 279.113,91.7199 279.5,90.5C 277.349,89.1801 275.349,87.6801 273.5,86C 274.949,84.883 276.616,84.2163 278.5,84C 275.658,82.6411 273.325,80.8077 271.5,78.5C 269.43,78.4486 267.597,79.1153 266,80.5C 261.85,79.4152 261.684,78.2485 265.5,77C 261.66,76.5867 257.993,75.7534 254.5,74.5C 249.684,76.4615 244.684,76.4615 239.5,74.5C 240.025,73.8076 240.692,73.3076 241.5,73C 237.288,71.3637 232.954,70.197 228.5,69.5C 228.167,68.5 227.833,67.5 227.5,66.5C 229.35,63.7961 230.35,60.7961 230.5,57.5C 227.43,56.7571 225.764,54.7571 225.5,51.5C 227.492,51.6715 229.158,51.0049 230.5,49.5C 231.086,49.7093 231.586,50.0426 232,50.5C 233.587,47.2441 236.087,45.0774 239.5,44C 239.018,42.9916 238.852,41.825 239,40.5C 237.989,39.6634 236.822,39.33 235.5,39.5C 248.086,31.4725 261.753,29.3059 276.5,33C 299.789,40.7201 312.122,56.8868 313.5,81.5C 312.611,87.8877 311.777,94.2211 311,100.5C 319.639,109.127 326.806,118.794 332.5,129.5 Z"/></g>
<g><path style="opacity:1" fill="#18b1a1" d="M 271.5,78.5 C 258.338,72.1225 244.338,68.7892 229.5,68.5C 229.737,65.3527 230.57,62.3527 232,59.5C 250.93,40.2316 270.597,39.565 291,57.5C 298.869,67.2518 301.369,78.2518 298.5,90.5C 291.406,87.2949 284.406,83.7949 277.5,80C 275.564,79.187 273.564,78.687 271.5,78.5 Z"/></g>
<g><path style="opacity:1" fill="#213241" d="M 235.5,39.5 C 236.822,39.33 237.989,39.6634 239,40.5C 238.852,41.825 239.018,42.9916 239.5,44C 236.087,45.0774 233.587,47.2441 232,50.5C 231.586,50.0426 231.086,49.7093 230.5,49.5C 229.158,51.0049 227.492,51.6715 225.5,51.5C 225.764,54.7571 227.43,56.7571 230.5,57.5C 230.35,60.7961 229.35,63.7961 227.5,66.5C 227.833,67.5 228.167,68.5 228.5,69.5C 232.954,70.197 237.288,71.3637 241.5,73C 240.692,73.3076 240.025,73.8076 239.5,74.5C 244.684,76.4615 249.684,76.4615 254.5,74.5C 257.993,75.7534 261.66,76.5867 265.5,77C 261.684,78.2485 261.85,79.4152 266,80.5C 267.597,79.1153 269.43,78.4486 271.5,78.5C 273.325,80.8077 275.658,82.6411 278.5,84C 276.616,84.2163 274.949,84.883 273.5,86C 275.349,87.6801 277.349,89.1801 279.5,90.5C 279.113,91.7199 278.28,92.3865 277,92.5C 275.278,92.3893 275.112,91.8893 276.5,91C 272.89,89.7969 269.224,88.7969 265.5,88C 266.96,87.1887 267.293,86.3554 266.5,85.5C 264.232,86.5443 261.899,86.711 259.5,86C 244.665,80.9049 229.332,79.2382 213.5,81C 212.944,81.3826 212.611,81.8826 212.5,82.5C 204.892,85.1647 197.225,87.998 189.5,91C 175.765,100.687 170.765,113.854 174.5,130.5C 188.668,130.522 202.668,131.856 216.5,134.5C 216.611,135.117 216.944,135.617 217.5,136C 219.473,136.495 221.473,136.662 223.5,136.5C 223.731,139.9 225.564,141.9 229,142.5C 229.308,141.692 229.808,141.025 230.5,140.5C 231.795,141.098 233.128,141.598 234.5,142C 232.262,146.453 228.595,148.286 223.5,147.5C 215.561,146.177 207.561,145.511 199.5,145.5C 194.599,143.948 189.432,143.281 184,143.5C 179.985,143.501 176.151,143.835 172.5,144.5C 170.049,150.638 168.382,156.972 167.5,163.5C 165.881,176.832 166.715,190.165 170,203.5C 170.414,203.043 170.914,202.709 171.5,202.5C 172.452,204.045 172.785,205.712 172.5,207.5C 174.584,206.752 176.584,206.752 178.5,207.5C 180.731,214.35 181.564,221.35 181,228.5C 179.456,231.905 178.289,235.405 177.5,239C 179.529,239.681 181.529,240.014 183.5,240C 182.203,237.455 182.369,234.955 184,232.5C 184.876,234.635 186.376,235.969 188.5,236.5C 198.684,255.347 214.018,268.013 234.5,274.5C 234.709,275.922 235.209,277.255 236,278.5C 236.741,279.641 237.575,279.641 238.5,278.5C 241.199,280.322 241.032,281.655 238,282.5C 237.667,282.167 237.333,281.833 237,281.5C 236.626,282.416 236.126,283.25 235.5,284C 232.947,284.851 230.614,284.518 228.5,283C 230.301,282.683 230.634,282.016 229.5,281C 230.956,280.577 231.456,279.744 231,278.5C 226.537,279.567 222.371,280.9 218.5,282.5C 218.404,289.642 217.404,296.642 215.5,303.5C 212.34,309.144 208.673,314.477 204.5,319.5C 198.132,324.353 191.132,328.187 183.5,331C 166.429,331.217 149.762,333.883 133.5,339C 131.273,339.941 129.273,341.108 127.5,342.5C 116.167,347.833 107.833,356.167 102.5,367.5C 96.1169,380.703 92.1169,394.703 90.5,409.5C 89.5655,410.568 89.2322,411.901 89.5,413.5C 111.34,413.831 133.006,413.497 154.5,412.5C 153.574,407.537 152.908,402.537 152.5,397.5C 155.421,403.002 156.087,408.835 154.5,415C 133.202,414.557 111.869,414.391 90.5,414.5C 90.6495,415.552 90.4828,416.552 90,417.5C 87.3333,417.5 84.6667,417.5 82,417.5C 80.5619,414.179 80.3952,410.846 81.5,407.5C 80.1171,405.68 79.1171,403.68 78.5,401.5C 80.0516,390.626 82.5516,379.959 86,369.5C 88.4375,363.608 91.6042,358.274 95.5,353.5C 100.805,347.86 106.139,342.193 111.5,336.5C 122.706,328.144 135.372,322.977 149.5,321C 158.141,320.021 166.808,319.354 175.5,319C 197.939,312.643 207.772,297.809 205,274.5C 187.424,261.244 174.758,244.244 167,223.5C 162.536,212.773 158.869,201.773 156,190.5C 151.743,171.222 153.577,152.556 161.5,134.5C 158.331,120.185 160.165,106.518 167,93.5C 167.708,92.6195 168.542,91.9528 169.5,91.5C 172.167,89.5 174.5,87.1667 176.5,84.5C 187.322,76.9305 199.322,71.7638 212.5,69C 216.468,56.2043 224.135,46.3709 235.5,39.5 Z"/></g>
<g><path style="opacity:1" fill="#1f3240" d="M 332.5,129.5 C 343.469,152.257 345.969,175.924 340,200.5C 336.716,210.041 333.216,219.374 329.5,228.5C 328.778,228.918 328.278,229.584 328,230.5C 327.667,230.167 327.333,229.833 327,229.5C 326.077,230.759 325.243,232.092 324.5,233.5C 323.575,234.641 322.741,234.641 322,233.5C 321.367,224.533 318.867,216.199 314.5,208.5C 314.043,207.702 313.376,207.369 312.5,207.5C 296.916,182.942 275.416,165.609 248,155.5C 225.019,162.333 207.519,176 195.5,196.5C 190.622,203.589 186.789,211.256 184,219.5C 183.333,222.5 183.333,225.5 184,228.5C 186.157,230.817 187.657,233.484 188.5,236.5C 186.376,235.969 184.876,234.635 184,232.5C 182.369,234.955 182.203,237.455 183.5,240C 181.529,240.014 179.529,239.681 177.5,239C 178.289,235.405 179.456,231.905 181,228.5C 181.564,221.35 180.731,214.35 178.5,207.5C 176.584,206.752 174.584,206.752 172.5,207.5C 172.785,205.712 172.452,204.045 171.5,202.5C 170.914,202.709 170.414,203.043 170,203.5C 166.715,190.165 165.881,176.832 167.5,163.5C 166.757,178.097 169.257,192.097 175,205.5C 184.976,181.36 201.476,163.194 224.5,151C 224.957,150.586 225.291,150.086 225.5,149.5C 224.757,148.818 224.091,148.151 223.5,147.5C 228.595,148.286 232.262,146.453 234.5,142C 233.128,141.598 231.795,141.098 230.5,140.5C 229.808,141.025 229.308,141.692 229,142.5C 225.564,141.9 223.731,139.9 223.5,136.5C 221.473,136.662 219.473,136.495 217.5,136C 216.944,135.617 216.611,135.117 216.5,134.5C 219.813,135.045 223.146,135.545 226.5,136C 268.953,144.038 301.62,166.204 324.5,202.5C 334.228,174.196 330.562,147.863 313.5,123.5C 315.827,123.335 317.993,122.669 320,121.5C 321.016,122.634 321.683,122.301 322,120.5C 323.833,122 325.667,123.5 327.5,125C 326.391,126.813 327.058,127.646 329.5,127.5C 329.402,130.248 330.402,130.914 332.5,129.5 Z"/></g>
<g><path style="opacity:1" fill="#16716f" d="M 172.5,144.5 C 176.151,143.835 179.985,143.501 184,143.5C 189.432,143.281 194.599,143.948 199.5,145.5C 190.518,144.782 181.518,144.448 172.5,144.5 Z"/></g>
<g><path style="opacity:1" fill="#17b3a1" d="M 172.5,144.5 C 181.518,144.448 190.518,144.782 199.5,145.5C 207.561,145.511 215.561,146.177 223.5,147.5C 224.091,148.151 224.757,148.818 225.5,149.5C 225.291,150.086 224.957,150.586 224.5,151C 201.476,163.194 184.976,181.36 175,205.5C 169.257,192.097 166.757,178.097 167.5,163.5C 168.382,156.972 170.049,150.638 172.5,144.5 Z"/></g>
<g><path style="opacity:1" fill="#f7d2a9" d="M 312.5,207.5 C 313.441,209.05 314.107,210.716 314.5,212.5C 313.504,212.586 312.671,212.252 312,211.5C 309.704,207.702 307.204,204.036 304.5,200.5C 302.253,201.374 299.92,201.708 297.5,201.5C 297.345,204.609 296.678,207.609 295.5,210.5C 294.583,211.127 293.583,211.461 292.5,211.5C 291.448,214.193 290.448,216.86 289.5,219.5C 285.576,221.194 281.409,222.194 277,222.5C 270.874,221.428 264.707,220.594 258.5,220C 256.776,219.552 256.109,218.718 256.5,217.5C 255.219,220.533 253.219,221.533 250.5,220.5C 248.971,220.529 247.804,221.196 247,222.5C 246.021,220.68 244.521,219.513 242.5,219C 249.629,215.204 251.296,209.704 247.5,202.5C 248.265,200.705 248.932,198.872 249.5,197C 247.727,193.779 245.727,193.779 243.5,197C 245.767,201.332 245.934,205.832 244,210.5C 243.184,211.823 242.017,212.489 240.5,212.5C 242.486,208.717 243.319,204.717 243,200.5C 235.514,195.278 230.681,197.111 228.5,206C 225.135,208.157 221.968,207.991 219,205.5C 217.751,198.904 213.917,196.404 207.5,198C 205.556,199.722 204.556,201.889 204.5,204.5C 205.463,207.148 206.463,209.814 207.5,212.5C 205.983,212.489 204.816,211.823 204,210.5C 203.333,206.5 203.333,202.5 204,198.5C 205.589,196.974 207.423,195.807 209.5,195C 207.702,193.495 205.868,193.328 204,194.5C 203.517,193.552 203.351,192.552 203.5,191.5C 202.167,191.5 200.833,191.5 199.5,191.5C 199.631,194.367 198.297,196.033 195.5,196.5C 207.519,176 225.019,162.333 248,155.5C 275.416,165.609 296.916,182.942 312.5,207.5 Z"/></g>
<g><path style="opacity:1" fill="#24313e" d="M 292.5,211.5 C 284.944,220.755 275.61,222.922 264.5,218C 258.811,213.463 256.311,207.63 257,200.5C 260.752,196.623 264.585,196.623 268.5,200.5C 269.5,202.5 270.5,204.5 271.5,206.5C 274.614,208.062 277.447,207.729 280,205.5C 282.377,197.03 287.043,195.364 294,200.5C 294.758,204.357 294.258,208.023 292.5,211.5 Z"/></g>
<g><path style="opacity:1" fill="#f9d3a8" d="M 207.5,212.5 C 214.211,220.49 222.545,222.657 232.5,219C 235.331,216.999 237.997,214.833 240.5,212.5C 242.017,212.489 243.184,211.823 244,210.5C 245.934,205.832 245.767,201.332 243.5,197C 245.727,193.779 247.727,193.779 249.5,197C 248.932,198.872 248.265,200.705 247.5,202.5C 251.296,209.704 249.629,215.204 242.5,219C 244.521,219.513 246.021,220.68 247,222.5C 247.804,221.196 248.971,220.529 250.5,220.5C 253.219,221.533 255.219,220.533 256.5,217.5C 256.109,218.718 256.776,219.552 258.5,220C 264.707,220.594 270.874,221.428 277,222.5C 281.409,222.194 285.576,221.194 289.5,219.5C 290.448,216.86 291.448,214.193 292.5,211.5C 293.583,211.461 294.583,211.127 295.5,210.5C 296.678,207.609 297.345,204.609 297.5,201.5C 299.92,201.708 302.253,201.374 304.5,200.5C 307.204,204.036 309.704,207.702 312,211.5C 312.671,212.252 313.504,212.586 314.5,212.5C 315.931,213.903 317.098,215.569 318,217.5C 305.462,258.867 277.629,277.867 234.5,274.5C 214.018,268.013 198.684,255.347 188.5,236.5C 187.657,233.484 186.157,230.817 184,228.5C 183.333,225.5 183.333,222.5 184,219.5C 186.789,211.256 190.622,203.589 195.5,196.5C 198.297,196.033 199.631,194.367 199.5,191.5C 200.833,191.5 202.167,191.5 203.5,191.5C 203.351,192.552 203.517,193.552 204,194.5C 205.868,193.328 207.702,193.495 209.5,195C 207.423,195.807 205.589,196.974 204,198.5C 203.333,202.5 203.333,206.5 204,210.5C 204.816,211.823 205.983,212.489 207.5,212.5 Z"/></g>
<g><path style="opacity:1" fill="#23313e" d="M 240.5,212.5 C 237.997,214.833 235.331,216.999 232.5,219C 222.545,222.657 214.211,220.49 207.5,212.5C 206.463,209.814 205.463,207.148 204.5,204.5C 204.556,201.889 205.556,199.722 207.5,198C 213.917,196.404 217.751,198.904 219,205.5C 221.968,207.991 225.135,208.157 228.5,206C 230.681,197.111 235.514,195.278 243,200.5C 243.319,204.717 242.486,208.717 240.5,212.5 Z"/></g>
<g><path style="opacity:1" fill="#253340" d="M 312.5,207.5 C 313.376,207.369 314.043,207.702 314.5,208.5C 318.867,216.199 321.367,224.533 322,233.5C 322.741,234.641 323.575,234.641 324.5,233.5C 325.243,232.092 326.077,230.759 327,229.5C 327.333,229.833 327.667,230.167 328,230.5C 328.278,229.584 328.778,228.918 329.5,228.5C 326.153,238.863 320.986,248.196 314,256.5C 307.689,263.143 301.022,269.476 294,275.5C 291.698,294.734 299.198,308.568 316.5,317C 330.852,318.728 345.185,320.728 359.5,323C 385.055,329.551 402.888,345.051 413,369.5C 417.636,383.511 420.802,397.845 422.5,412.5C 442.987,408.481 449.487,416.148 442,435.5C 439.386,442.443 435.553,448.609 430.5,454C 439.167,454.333 447.833,454.667 456.5,455C 460.072,458.515 460.405,462.348 457.5,466.5C 320.833,466.5 184.167,466.5 47.5,466.5C 97.9973,465.501 148.664,465.168 199.5,465.5C 284.167,465.667 368.834,465.5 453.5,465C 456.315,462.878 457.315,460.212 456.5,457C 452.289,455.466 447.956,455.133 443.5,456C 438.851,456.956 434.184,458.123 429.5,459.5C 426.498,458.49 425.332,456.49 426,453.5C 426.414,453.957 426.914,454.291 427.5,454.5C 427.338,452.369 428.671,451.369 431.5,451.5C 431.081,448.974 430.914,446.641 431,444.5C 430.667,444.833 430.333,445.167 430,445.5C 429.252,443.668 428.252,442.001 427,440.5C 425.812,441.563 425.312,442.897 425.5,444.5C 420.519,447.806 415.519,451.139 410.5,454.5C 414.076,456.968 417.742,459.468 421.5,462C 420.333,462.5 419.5,463.333 419,464.5C 418.333,461.833 417.667,461.833 417,464.5C 416.683,462.699 416.016,462.366 415,463.5C 414.383,462.551 414.549,461.718 415.5,461C 412.151,458.501 408.484,456.667 404.5,455.5C 404.833,454.833 405.167,454.167 405.5,453.5C 417.573,449.093 425.573,440.76 429.5,428.5C 430.404,427.791 430.737,426.791 430.5,425.5C 399.662,425.169 368.995,425.502 338.5,426.5C 338.167,426.5 337.833,426.5 337.5,426.5C 337.5,424.833 337.5,423.167 337.5,421.5C 338.833,421.5 340.167,421.5 341.5,421.5C 341.5,422.5 341.5,423.5 341.5,424.5C 366.833,424.5 392.167,424.5 417.5,424.5C 417.5,422.167 417.5,419.833 417.5,417.5C 413.957,417.251 410.79,417.251 408,417.5C 407.167,416 406,414.833 404.5,414C 384.329,413.832 364.329,413.332 344.5,412.5C 365.833,412.5 387.167,412.5 408.5,412.5C 404.626,356.805 374.626,329.972 318.5,332C 299.366,327.029 287.033,315.196 281.5,296.5C 281.483,294.435 281.15,292.435 280.5,290.5C 280.5,287.833 280.5,285.167 280.5,282.5C 260.95,290.123 241.283,290.457 221.5,283.5C 220.791,282.596 219.791,282.263 218.5,282.5C 222.371,280.9 226.537,279.567 231,278.5C 231.456,279.744 230.956,280.577 229.5,281C 230.634,282.016 230.301,282.683 228.5,283C 230.614,284.518 232.947,284.851 235.5,284C 236.126,283.25 236.626,282.416 237,281.5C 237.333,281.833 237.667,282.167 238,282.5C 241.032,281.655 241.199,280.322 238.5,278.5C 237.575,279.641 236.741,279.641 236,278.5C 235.209,277.255 234.709,275.922 234.5,274.5C 277.629,277.867 305.462,258.867 318,217.5C 317.098,215.569 315.931,213.903 314.5,212.5C 314.107,210.716 313.441,209.05 312.5,207.5 Z"/></g>
<g><path style="opacity:1" fill="#efb16f" d="M 218.5,282.5 C 219.791,282.263 220.791,282.596 221.5,283.5C 222.078,285.38 223.412,286.38 225.5,286.5C 236.996,289.568 248.663,290.734 260.5,290C 266.361,287.914 272.361,286.08 278.5,284.5C 278.595,286.786 279.262,288.786 280.5,290.5C 281.15,292.435 281.483,294.435 281.5,296.5C 281.963,299.482 282.296,302.482 282.5,305.5C 266.243,312.509 249.243,314.342 231.5,311C 227.147,308.743 222.48,307.41 217.5,307C 216.027,306.29 215.36,305.124 215.5,303.5C 217.404,296.642 218.404,289.642 218.5,282.5 Z"/></g>
<g><path style="opacity:1" fill="#cda579" d="M 280.5,290.5 C 279.262,288.786 278.595,286.786 278.5,284.5C 272.361,286.08 266.361,287.914 260.5,290C 248.663,290.734 236.996,289.568 225.5,286.5C 223.412,286.38 222.078,285.38 221.5,283.5C 241.283,290.457 260.95,290.123 280.5,282.5C 280.5,285.167 280.5,287.833 280.5,290.5 Z"/></g>
<g><path style="opacity:1" fill="#f9d3a9" d="M 281.5,296.5 C 287.033,315.196 299.366,327.029 318.5,332C 374.626,329.972 404.626,356.805 408.5,412.5C 387.167,412.5 365.833,412.5 344.5,412.5C 347.791,397.939 348.291,383.272 346,368.5C 343.269,365.288 339.769,363.788 335.5,364C 318.668,361.673 302.502,363.839 287,370.5C 282.418,361.005 276.584,352.338 269.5,344.5C 267.934,341.588 265.934,338.921 263.5,336.5C 265.347,335.17 266.847,335.503 268,337.5C 271.802,328.778 269.302,322.778 260.5,319.5C 258.401,321.52 256.067,321.854 253.5,320.5C 254.025,319.808 254.692,319.308 255.5,319C 261.654,318.859 267.154,317.692 272,315.5C 273.512,316.257 274.846,317.257 276,318.5C 276.192,316.423 276.692,314.423 277.5,312.5C 278.736,311.754 280.07,311.421 281.5,311.5C 281.517,309.435 281.85,307.435 282.5,305.5C 282.296,302.482 281.963,299.482 281.5,296.5 Z"/></g>
<g><path style="opacity:1" fill="#fad3a9" d="M 215.5,303.5 C 215.36,305.124 216.027,306.29 217.5,307C 222.48,307.41 227.147,308.743 231.5,311C 249.243,314.342 266.243,312.509 282.5,305.5C 281.85,307.435 281.517,309.435 281.5,311.5C 280.07,311.421 278.736,311.754 277.5,312.5C 276.692,314.423 276.192,316.423 276,318.5C 274.846,317.257 273.512,316.257 272,315.5C 267.154,317.692 261.654,318.859 255.5,319C 254.692,319.308 254.025,319.808 253.5,320.5C 256.067,321.854 258.401,321.52 260.5,319.5C 269.302,322.778 271.802,328.778 268,337.5C 266.847,335.503 265.347,335.17 263.5,336.5C 265.934,338.921 267.934,341.588 269.5,344.5C 264.294,339.127 258.627,334.294 252.5,330C 250.5,329.333 248.5,329.333 246.5,330C 231.192,340.127 220.192,353.627 213.5,370.5C 209.703,370.128 206.37,368.794 203.5,366.5C 202.653,365.034 201.32,364.2 199.5,364C 184.489,362.296 169.489,362.129 154.5,363.5C 153.52,364.981 152.353,366.315 151,367.5C 150.058,382.234 150.558,396.9 152.5,411.5C 132.167,411.5 111.833,411.5 91.5,411.5C 92.2071,408.214 92.5405,404.881 92.5,401.5C 95.5754,401.749 96.2421,400.415 94.5,397.5C 95.3419,389.712 97.5086,382.379 101,375.5C 101.822,372.883 102.322,370.216 102.5,367.5C 107.833,356.167 116.167,347.833 127.5,342.5C 136.441,339.572 145.441,337.072 154.5,335C 165.235,334.66 175.902,333.66 186.5,332C 190.943,329.466 195.61,327.633 200.5,326.5C 200.961,323.697 202.295,321.363 204.5,319.5C 208.673,314.477 212.34,309.144 215.5,303.5 Z"/></g>
<g><path style="opacity:1" fill="#dec7ac" d="M 204.5,319.5 C 202.295,321.363 200.961,323.697 200.5,326.5C 195.61,327.633 190.943,329.466 186.5,332C 175.902,333.66 165.235,334.66 154.5,335C 145.441,337.072 136.441,339.572 127.5,342.5C 129.273,341.108 131.273,339.941 133.5,339C 149.762,333.883 166.429,331.217 183.5,331C 191.132,328.187 198.132,324.353 204.5,319.5 Z"/></g>
<g><path style="opacity:0.482" fill="#7d868f" d="M 111.5,336.5 C 106.139,342.193 100.805,347.86 95.5,353.5C 99.4524,346.547 104.786,340.88 111.5,336.5 Z"/></g>
<g><path style="opacity:1" fill="#1f3140" d="M 269.5,344.5 C 276.584,352.338 282.418,361.005 287,370.5C 302.502,363.839 318.668,361.673 335.5,364C 339.769,363.788 343.269,365.288 346,368.5C 348.291,383.272 347.791,397.939 344.5,412.5C 364.329,413.332 384.329,413.832 404.5,414C 406,414.833 407.167,416 408,417.5C 410.79,417.251 413.957,417.251 417.5,417.5C 417.5,419.833 417.5,422.167 417.5,424.5C 392.167,424.5 366.833,424.5 341.5,424.5C 341.5,423.5 341.5,422.5 341.5,421.5C 340.167,421.5 338.833,421.5 337.5,421.5C 337.5,423.167 337.5,424.833 337.5,426.5C 334.032,434.303 329.032,440.97 322.5,446.5C 321.167,446.5 319.833,446.5 318.5,446.5C 318.715,448.179 318.048,449.179 316.5,449.5C 317.795,447.628 317.628,445.962 316,444.5C 313.457,446.342 311.29,448.509 309.5,451C 306.789,452.805 304.122,452.805 301.5,451C 302.5,450.5 303.5,450 304.5,449.5C 305.833,448.5 305.833,447.5 304.5,446.5C 299.622,449.809 294.289,451.976 288.5,453C 288.043,453.414 287.709,453.914 287.5,454.5C 291.335,455.207 295.002,456.374 298.5,458C 295.321,458.711 292.321,459.878 289.5,461.5C 288.833,461.167 288.167,460.833 287.5,460.5C 288.5,459.667 289.5,458.833 290.5,458C 287.646,455.734 285.813,456.234 285,459.5C 283.256,458.351 283.089,457.017 284.5,455.5C 282.257,454.526 279.924,454.192 277.5,454.5C 314.596,446.716 333.596,423.716 334.5,385.5C 334.476,382.579 334.143,379.746 333.5,377C 323.801,376.302 314.134,376.635 304.5,378C 299.804,379.235 295.304,381.068 291,383.5C 294.224,410.326 286.724,433.659 268.5,453.5C 270.743,454.474 273.076,454.808 275.5,454.5C 273.052,455.473 270.385,455.806 267.5,455.5C 267.5,453.5 267.5,451.5 267.5,449.5C 270.718,449.349 271.051,448.516 268.5,447C 269.938,446.781 271.271,446.281 272.5,445.5C 271.754,444.264 271.421,442.93 271.5,441.5C 270.178,441.33 269.011,441.663 268,442.5C 267.784,444.384 267.117,446.051 266,447.5C 265,446.167 264,446.167 263,447.5C 263.409,445.775 263.242,444.108 262.5,442.5C 261.482,443.193 260.482,443.859 259.5,444.5C 266.01,436.152 271.51,427.152 276,417.5C 282.885,387.301 274.052,362.968 249.5,344.5C 242.489,349.846 236.155,355.846 230.5,362.5C 230.191,359.654 228.525,358.154 225.5,358C 226.669,355.941 227.169,353.441 227,350.5C 225.471,354.701 222.804,358.034 219,360.5C 218.876,362.936 219.376,365.269 220.5,367.5C 218.328,368.801 215.995,369.801 213.5,370.5C 220.192,353.627 231.192,340.127 246.5,330C 248.5,329.333 250.5,329.333 252.5,330C 258.627,334.294 264.294,339.127 269.5,344.5 Z"/></g>
<g><path style="opacity:1" fill="#1bccb7" d="M 259.5,444.5 C 258.5,444.833 257.833,445.5 257.5,446.5C 254.588,448.066 251.921,450.066 249.5,452.5C 238.519,443.36 230.019,432.36 224,419.5C 223.625,415.332 222.625,411.332 221,407.5C 220.333,400.833 220.333,394.167 221,387.5C 223.724,378.885 226.891,370.552 230.5,362.5C 236.155,355.846 242.489,349.846 249.5,344.5C 274.052,362.968 282.885,387.301 276,417.5C 271.51,427.152 266.01,436.152 259.5,444.5 Z"/></g>
<g><path style="opacity:1" fill="#404345" d="M 188.5,364.5 C 181.159,364.334 173.826,364.5 166.5,365C 166.043,365.414 165.709,365.914 165.5,366.5C 162.215,367.324 158.882,367.824 155.5,368C 152.825,377.519 151.825,387.352 152.5,397.5C 151.13,387.956 151.297,378.289 153,368.5C 154.167,367.333 155.333,366.167 156.5,365C 162.254,363.904 168.087,363.404 174,363.5C 179.012,363.501 183.845,363.834 188.5,364.5 Z"/></g>
<g><path style="opacity:1" fill="#17b2a1" d="M 277.5,454.5 C 276.833,454.5 276.167,454.5 275.5,454.5C 273.076,454.808 270.743,454.474 268.5,453.5C 286.724,433.659 294.224,410.326 291,383.5C 295.304,381.068 299.804,379.235 304.5,378C 314.134,376.635 323.801,376.302 333.5,377C 334.143,379.746 334.476,382.579 334.5,385.5C 333.596,423.716 314.596,446.716 277.5,454.5 Z"/></g>
<g><path style="opacity:1" fill="#e8cfb2" d="M 203.5,366.5 C 198.537,365.574 193.537,364.908 188.5,364.5C 183.845,363.834 179.012,363.501 174,363.5C 168.087,363.404 162.254,363.904 156.5,365C 155.333,366.167 154.167,367.333 153,368.5C 151.297,378.289 151.13,387.956 152.5,397.5C 152.908,402.537 153.574,407.537 154.5,412.5C 133.167,412.5 111.833,412.5 90.5,412.5C 90.5,411.5 90.5,410.5 90.5,409.5C 92.1169,394.703 96.1169,380.703 102.5,367.5C 102.322,370.216 101.822,372.883 101,375.5C 97.5086,382.379 95.3419,389.712 94.5,397.5C 96.2421,400.415 95.5754,401.749 92.5,401.5C 92.5405,404.881 92.2071,408.214 91.5,411.5C 111.833,411.5 132.167,411.5 152.5,411.5C 150.558,396.9 150.058,382.234 151,367.5C 152.353,366.315 153.52,364.981 154.5,363.5C 169.489,362.129 184.489,362.296 199.5,364C 201.32,364.2 202.653,365.034 203.5,366.5 Z"/></g>
<g><path style="opacity:1" fill="#2e3231" d="M 70.5,425.5 C 100.664,424.336 130.997,424.169 161.5,425C 162.305,426.113 162.972,427.279 163.5,428.5C 164.989,430.645 165.989,432.978 166.5,435.5C 164.265,432.709 162.265,429.709 160.5,426.5C 130.671,425.502 100.671,425.169 70.5,425.5 Z"/></g>
<g><path style="opacity:1" fill="#786144" d="M 338.5,426.5 C 368.995,425.502 399.662,425.169 430.5,425.5C 430.737,426.791 430.404,427.791 429.5,428.5C 399.518,426.508 369.185,425.841 338.5,426.5 Z"/></g>
<g><path style="opacity:1" fill="#edb06f" d="M 160.5,426.5 C 162.265,429.709 164.265,432.709 166.5,435.5C 171.128,441.463 176.128,447.13 181.5,452.5C 153.005,453.498 124.338,453.831 95.5,453.5C 82.2379,449.904 73.5713,441.571 69.5,428.5C 99.4816,426.508 129.815,425.841 160.5,426.5 Z"/></g>
<g><path style="opacity:1" fill="#eeb06f" d="M 337.5,426.5 C 337.833,426.5 338.167,426.5 338.5,426.5C 369.185,425.841 399.518,426.508 429.5,428.5C 425.573,440.76 417.573,449.093 405.5,453.5C 404.167,453.5 402.833,453.5 401.5,453.5C 373.831,453.667 346.165,453.5 318.5,453C 319.252,452.329 319.586,451.496 319.5,450.5C 320.5,449.167 321.5,447.833 322.5,446.5C 329.032,440.97 334.032,434.303 337.5,426.5 Z"/></g>
<g><path style="opacity:1" fill="#1e313e" d="M 230.5,362.5 C 226.891,370.552 223.724,378.885 221,387.5C 220.333,394.167 220.333,400.833 221,407.5C 222.625,411.332 223.625,415.332 224,419.5C 230.019,432.36 238.519,443.36 249.5,452.5C 251.921,450.066 254.588,448.066 257.5,446.5C 256.352,448.742 255.352,451.076 254.5,453.5C 253.833,453.167 253.167,452.833 252.5,452.5C 249.96,453.402 247.46,454.402 245,455.5C 243.161,454.328 241.661,452.828 240.5,451C 241.308,450.692 241.975,450.192 242.5,449.5C 240.081,445.283 236.748,441.95 232.5,439.5C 231.897,436.114 229.897,434.281 226.5,434C 226.833,433.667 227.167,433.333 227.5,433C 226.91,431.491 226.244,429.991 225.5,428.5C 224.01,430.126 222.51,431.792 221,433.5C 220.002,430.972 219.169,430.972 218.5,433.5C 219.34,435.261 220.34,436.927 221.5,438.5C 222.425,437.359 223.259,437.359 224,438.5C 224,439.833 224,441.167 224,442.5C 225.016,443.634 225.683,443.301 226,441.5C 226.667,442.167 227.333,442.833 228,443.5C 228.998,447.619 230.165,451.619 231.5,455.5C 228.833,455.5 226.167,455.5 223.5,455.5C 223.5,455.167 223.5,454.833 223.5,454.5C 225.924,454.808 228.257,454.474 230.5,453.5C 212.514,433.563 205.014,410.229 208,383.5C 203.319,381.411 198.486,379.744 193.5,378.5C 191.708,377.691 189.708,377.191 187.5,377C 179.841,376.5 172.174,376.334 164.5,376.5C 164.175,383.687 164.509,390.687 165.5,397.5C 170.53,430.62 189.53,449.62 222.5,454.5C 218.429,454.766 214.429,454.433 210.5,453.5C 208.45,454.077 207.45,455.41 207.5,457.5C 210.898,457.18 214.232,457.513 217.5,458.5C 213.173,459.532 208.839,460.032 204.5,460C 202.009,459.374 202.009,458.541 204.5,457.5C 202.234,456.686 199.9,456.186 197.5,456C 200.244,453.484 203.244,452.318 206.5,452.5C 202.87,450.842 199.203,449.508 195.5,448.5C 195.5,449.833 195.5,451.167 195.5,452.5C 193.488,451.986 191.488,451.82 189.5,452C 188.167,453.333 186.833,454.667 185.5,456C 160.167,456.333 134.833,456.667 109.5,457C 131.164,457.5 152.831,457.667 174.5,457.5C 174.5,458.833 174.5,460.167 174.5,461.5C 148.99,462.182 123.657,461.349 98.5,459C 101.3,457.768 104.3,457.101 107.5,457C 103.044,457.102 99.0442,456.268 95.5,454.5C 125.169,454.667 154.835,454.5 184.5,454C 183.756,452.961 182.756,452.461 181.5,452.5C 176.128,447.13 171.128,441.463 166.5,435.5C 165.989,432.978 164.989,430.645 163.5,428.5C 165.311,428.428 166.644,427.595 167.5,426C 166.365,423.559 164.865,421.392 163,419.5C 162.055,419.905 161.388,420.572 161,421.5C 147.556,420.176 133.889,419.509 120,419.5C 106.123,419.508 92.2901,419.842 78.5,420.5C 76.9984,419.917 75.6651,419.084 74.5,418C 76.3795,417.04 78.3795,416.54 80.5,416.5C 79.9017,415.205 79.4017,413.872 79,412.5C 78.2303,411.402 77.397,411.402 76.5,412.5C 76.8084,408.64 77.4751,404.974 78.5,401.5C 79.1171,403.68 80.1171,405.68 81.5,407.5C 80.3952,410.846 80.5619,414.179 82,417.5C 84.6667,417.5 87.3333,417.5 90,417.5C 90.4828,416.552 90.6495,415.552 90.5,414.5C 111.869,414.391 133.202,414.557 154.5,415C 156.087,408.835 155.421,403.002 152.5,397.5C 151.825,387.352 152.825,377.519 155.5,368C 158.882,367.824 162.215,367.324 165.5,366.5C 165.709,365.914 166.043,365.414 166.5,365C 173.826,364.5 181.159,364.334 188.5,364.5C 193.537,364.908 198.537,365.574 203.5,366.5C 206.37,368.794 209.703,370.128 213.5,370.5C 215.995,369.801 218.328,368.801 220.5,367.5C 219.376,365.269 218.876,362.936 219,360.5C 222.804,358.034 225.471,354.701 227,350.5C 227.169,353.441 226.669,355.941 225.5,358C 228.525,358.154 230.191,359.654 230.5,362.5 Z"/></g>
<g><path style="opacity:1" fill="#6d6354" d="M 90.5,409.5 C 90.5,410.5 90.5,411.5 90.5,412.5C 111.833,412.5 133.167,412.5 154.5,412.5C 133.006,413.497 111.34,413.831 89.5,413.5C 89.2322,411.901 89.5655,410.568 90.5,409.5 Z"/></g>
<g><path style="opacity:1" fill="#17b2a1" d="M 193.5,378.5 C 198.486,379.744 203.319,381.411 208,383.5C 205.014,410.229 212.514,433.563 230.5,453.5C 228.257,454.474 225.924,454.808 223.5,454.5C 223.167,454.5 222.833,454.5 222.5,454.5C 189.53,449.62 170.53,430.62 165.5,397.5C 165.5,390.833 165.5,384.167 165.5,377.5C 174.852,377.434 184.185,377.768 193.5,378.5 Z"/></g>
<g><path style="opacity:1" fill="#2a8e8a" d="M 193.5,378.5 C 184.185,377.768 174.852,377.434 165.5,377.5C 165.5,384.167 165.5,390.833 165.5,397.5C 164.509,390.687 164.175,383.687 164.5,376.5C 172.174,376.334 179.841,376.5 187.5,377C 189.708,377.191 191.708,377.691 193.5,378.5 Z"/></g>
<g><path style="opacity:1" fill="#1e2f3f" d="M 257.5,446.5 C 257.833,445.5 258.5,444.833 259.5,444.5C 260.482,443.859 261.482,443.193 262.5,442.5C 263.242,444.108 263.409,445.775 263,447.5C 264,446.167 265,446.167 266,447.5C 267.117,446.051 267.784,444.384 268,442.5C 269.011,441.663 270.178,441.33 271.5,441.5C 271.421,442.93 271.754,444.264 272.5,445.5C 271.271,446.281 269.938,446.781 268.5,447C 271.051,448.516 270.718,449.349 267.5,449.5C 267.5,451.5 267.5,453.5 267.5,455.5C 270.385,455.806 273.052,455.473 275.5,454.5C 276.167,454.5 276.833,454.5 277.5,454.5C 279.924,454.192 282.257,454.526 284.5,455.5C 283.089,457.017 283.256,458.351 285,459.5C 285.813,456.234 287.646,455.734 290.5,458C 289.5,458.833 288.5,459.667 287.5,460.5C 288.167,460.833 288.833,461.167 289.5,461.5C 292.321,459.878 295.321,458.711 298.5,458C 295.002,456.374 291.335,455.207 287.5,454.5C 287.709,453.914 288.043,453.414 288.5,453C 294.289,451.976 299.622,449.809 304.5,446.5C 305.833,447.5 305.833,448.5 304.5,449.5C 303.5,450 302.5,450.5 301.5,451C 304.122,452.805 306.789,452.805 309.5,451C 311.29,448.509 313.457,446.342 316,444.5C 317.628,445.962 317.795,447.628 316.5,449.5C 315.286,450.626 314.286,451.959 313.5,453.5C 313.574,455.739 314.741,456.739 317,456.5C 346.146,455.52 375.312,455.187 404.5,455.5C 408.484,456.667 412.151,458.501 415.5,461C 414.549,461.718 414.383,462.551 415,463.5C 416.016,462.366 416.683,462.699 417,464.5C 417.667,461.833 418.333,461.833 419,464.5C 419.5,463.333 420.333,462.5 421.5,462C 417.742,459.468 414.076,456.968 410.5,454.5C 415.519,451.139 420.519,447.806 425.5,444.5C 425.312,442.897 425.812,441.563 427,440.5C 428.252,442.001 429.252,443.668 430,445.5C 430.333,445.167 430.667,444.833 431,444.5C 430.914,446.641 431.081,448.974 431.5,451.5C 428.671,451.369 427.338,452.369 427.5,454.5C 426.914,454.291 426.414,453.957 426,453.5C 425.332,456.49 426.498,458.49 429.5,459.5C 434.184,458.123 438.851,456.956 443.5,456C 447.956,455.133 452.289,455.466 456.5,457C 457.315,460.212 456.315,462.878 453.5,465C 368.834,465.5 284.167,465.667 199.5,465.5C 208.342,464.833 217.342,464.167 226.5,463.5C 226.709,462.914 227.043,462.414 227.5,462C 230.167,461.667 232.833,461.333 235.5,461C 231.29,459.391 227.29,457.558 223.5,455.5C 226.167,455.5 228.833,455.5 231.5,455.5C 230.165,451.619 228.998,447.619 228,443.5C 227.333,442.833 226.667,442.167 226,441.5C 225.683,443.301 225.016,443.634 224,442.5C 224,441.167 224,439.833 224,438.5C 223.259,437.359 222.425,437.359 221.5,438.5C 220.34,436.927 219.34,435.261 218.5,433.5C 219.169,430.972 220.002,430.972 221,433.5C 222.51,431.792 224.01,430.126 225.5,428.5C 226.244,429.991 226.91,431.491 227.5,433C 227.167,433.333 226.833,433.667 226.5,434C 229.897,434.281 231.897,436.114 232.5,439.5C 236.748,441.95 240.081,445.283 242.5,449.5C 241.975,450.192 241.308,450.692 240.5,451C 241.661,452.828 243.161,454.328 245,455.5C 247.46,454.402 249.96,453.402 252.5,452.5C 253.167,452.833 253.833,453.167 254.5,453.5C 255.352,451.076 256.352,448.742 257.5,446.5 Z"/></g>
<g><path style="opacity:1" fill="#1f3040" d="M 163.5,428.5 C 162.972,427.279 162.305,426.113 161.5,425C 130.997,424.169 100.664,424.336 70.5,425.5C 68.4482,426.053 68.1148,427.053 69.5,428.5C 73.5713,441.571 82.2379,449.904 95.5,453.5C 95.5,453.833 95.5,454.167 95.5,454.5C 99.0442,456.268 103.044,457.102 107.5,457C 104.3,457.101 101.3,457.768 98.5,459C 123.657,461.349 148.99,462.182 174.5,461.5C 174.5,460.167 174.5,458.833 174.5,457.5C 152.831,457.667 131.164,457.5 109.5,457C 134.833,456.667 160.167,456.333 185.5,456C 186.833,454.667 188.167,453.333 189.5,452C 191.488,451.82 193.488,451.986 195.5,452.5C 195.5,451.167 195.5,449.833 195.5,448.5C 199.203,449.508 202.87,450.842 206.5,452.5C 203.244,452.318 200.244,453.484 197.5,456C 199.9,456.186 202.234,456.686 204.5,457.5C 202.009,458.541 202.009,459.374 204.5,460C 208.839,460.032 213.173,459.532 217.5,458.5C 214.232,457.513 210.898,457.18 207.5,457.5C 207.45,455.41 208.45,454.077 210.5,453.5C 214.429,454.433 218.429,454.766 222.5,454.5C 222.833,454.5 223.167,454.5 223.5,454.5C 223.5,454.833 223.5,455.167 223.5,455.5C 227.29,457.558 231.29,459.391 235.5,461C 232.833,461.333 230.167,461.667 227.5,462C 227.043,462.414 226.709,462.914 226.5,463.5C 217.342,464.167 208.342,464.833 199.5,465.5C 148.664,465.168 97.9973,465.501 47.5,466.5C 45.0971,466.552 42.7638,466.219 40.5,465.5C 38.7137,461.494 39.3804,457.994 42.5,455C 51.1667,454.667 59.8333,454.333 68.5,454C 58.2544,443.599 53.7544,431.099 55,416.5C 56.214,414.951 57.714,413.785 59.5,413C 65.1569,412.501 70.8236,412.334 76.5,412.5C 77.397,411.402 78.2303,411.402 79,412.5C 79.4017,413.872 79.9017,415.205 80.5,416.5C 78.3795,416.54 76.3795,417.04 74.5,418C 75.6651,419.084 76.9984,419.917 78.5,420.5C 92.2901,419.842 106.123,419.508 120,419.5C 133.889,419.509 147.556,420.176 161,421.5C 161.388,420.572 162.055,419.905 163,419.5C 164.865,421.392 166.365,423.559 167.5,426C 166.644,427.595 165.311,428.428 163.5,428.5 Z"/></g>
<g><path style="opacity:1" fill="#786144" d="M 70.5,425.5 C 100.671,425.169 130.671,425.502 160.5,426.5C 129.815,425.841 99.4816,426.508 69.5,428.5C 68.1148,427.053 68.4482,426.053 70.5,425.5 Z"/></g>
<g><path style="opacity:1" fill="#b69b7b" d="M 181.5,452.5 C 182.756,452.461 183.756,452.961 184.5,454C 154.835,454.5 125.169,454.667 95.5,454.5C 95.5,454.167 95.5,453.833 95.5,453.5C 124.338,453.831 153.005,453.498 181.5,452.5 Z"/></g>
<g><path style="opacity:1" fill="#b79c7b" d="M 319.5,450.5 C 319.586,451.496 319.252,452.329 318.5,453C 346.165,453.5 373.831,453.667 401.5,453.5C 372.67,454.664 343.67,454.83 314.5,454C 315.846,452.331 317.513,451.164 319.5,450.5 Z"/></g>
<g><path style="opacity:1" fill="#39332b" d="M 322.5,446.5 C 321.5,447.833 320.5,449.167 319.5,450.5C 317.513,451.164 315.846,452.331 314.5,454C 343.67,454.83 372.67,454.664 401.5,453.5C 402.833,453.5 404.167,453.5 405.5,453.5C 405.167,454.167 404.833,454.833 404.5,455.5C 375.312,455.187 346.146,455.52 317,456.5C 314.741,456.739 313.574,455.739 313.5,453.5C 314.286,451.959 315.286,450.626 316.5,449.5C 318.048,449.179 318.715,448.179 318.5,446.5C 319.833,446.5 321.167,446.5 322.5,446.5 Z"/></g>
<g><path style="opacity:0.731" fill="#404a54" d="M 40.5,465.5 C 42.7638,466.219 45.0971,466.552 47.5,466.5C 184.167,466.5 320.833,466.5 457.5,466.5C 319.001,467.666 180.334,467.833 41.5,467C 40.944,466.617 40.6107,466.117 40.5,465.5 Z"/></g>
</svg>
