<?xml version="1.0" encoding="UTF-8"?>
<!DOCTYPE svg PUBLIC "-//W3C//DTD SVG 1.1//EN" "http://www.w3.org/Graphics/SVG/1.1/DTD/svg11.dtd">
<svg xmlns="http://www.w3.org/2000/svg" version="1.1" width="500px" height="500px" style="shape-rendering:geometricPrecision; text-rendering:geometricPrecision; image-rendering:optimizeQuality; fill-rule:evenodd; clip-rule:evenodd" xmlns:xlink="http://www.w3.org/1999/xlink">
<g><path style="opacity:0.858" fill="#60a0c6" d="M 357.5,49.5 C 357.5,49.8333 357.5,50.1667 357.5,50.5C 285.429,50.1701 213.429,50.5034 141.5,51.5C 213.159,49.5032 285.159,48.8365 357.5,49.5 Z"/></g>
<g><path style="opacity:1" fill="#4397d0" d="M 357.5,50.5 C 357.5,55.5 357.5,60.5 357.5,65.5C 349.167,65.5 340.833,65.5 332.5,65.5C 332.5,71.1667 332.5,76.8333 332.5,82.5C 360.664,83.3323 388.997,83.8323 417.5,84C 419.433,84.2511 421.266,84.7511 423,85.5C 423.499,89.8206 423.666,94.1539 423.5,98.5C 415.167,98.5 406.833,98.5 398.5,98.5C 398.5,100.167 398.5,101.833 398.5,103.5C 397.566,102.432 397.232,101.099 397.5,99.5C 376.497,99.3334 355.497,99.5 334.5,100C 333.594,101.699 333.261,103.533 333.5,105.5C 333.5,214.167 333.5,322.833 333.5,431.5C 333.167,431.5 332.833,431.5 332.5,431.5C 319.344,430.504 306.01,430.171 292.5,430.5C 292.167,414.819 292.501,399.152 293.5,383.5C 294.287,382.758 294.953,381.925 295.5,381C 293.616,380.784 291.949,380.117 290.5,379C 281.833,378.333 273.167,378.333 264.5,379C 271.833,379.333 279.167,379.667 286.5,380C 278.5,380.333 270.5,380.667 262.5,381C 260.942,381.21 259.609,381.71 258.5,382.5C 258.167,382.5 257.833,382.5 257.5,382.5C 256.504,398.325 256.17,414.325 256.5,430.5C 251.833,430.5 247.167,430.5 242.5,430.5C 243.151,414.132 242.485,398.132 240.5,382.5C 229.5,382.5 218.5,382.5 207.5,382.5C 207.5,398.833 207.5,415.167 207.5,431.5C 193.833,431.5 180.167,431.5 166.5,431.5C 166.525,315.354 166.525,199.354 166.5,83.5C 166.5,83.1667 166.5,82.8333 166.5,82.5C 166.5,76.8333 166.5,71.1667 166.5,65.5C 158.167,65.5 149.833,65.5 141.5,65.5C 141.5,60.8333 141.5,56.1667 141.5,51.5C 213.429,50.5034 285.429,50.1701 357.5,50.5 Z"/></g>
<g><path style="opacity:1" fill="#4596d4" d="M 143.5,59.5 C 212.837,59.1667 282.17,59.5 351.5,60.5C 316.833,60.8333 282.167,61.1667 247.5,61.5C 212.494,61.4999 177.827,60.8332 143.5,59.5 Z"/></g>
<g><path style="opacity:0.548" fill="#c1e2f3" d="M 358.5,49.5 C 358.167,49.5 357.833,49.5 357.5,49.5C 285.159,48.8365 213.159,49.5032 141.5,51.5C 141.5,56.1667 141.5,60.8333 141.5,65.5C 149.833,65.5 158.167,65.5 166.5,65.5C 166.5,71.1667 166.5,76.8333 166.5,82.5C 166.167,82.5 165.833,82.5 165.5,82.5C 165.5,77.5 165.5,72.5 165.5,67.5C 157.167,67.5 148.833,67.5 140.5,67.5C 140.5,61.1667 140.5,54.8333 140.5,48.5C 213.335,48.1674 286.002,48.5008 358.5,49.5 Z"/></g>
<g><path style="opacity:0.551" fill="#b6d9ee" d="M 357.5,49.5 C 357.833,49.5 358.167,49.5 358.5,49.5C 358.5,55.5 358.5,61.5 358.5,67.5C 350.167,67.5 341.833,67.5 333.5,67.5C 333.5,72.5 333.5,77.5 333.5,82.5C 333.167,82.5 332.833,82.5 332.5,82.5C 332.5,76.8333 332.5,71.1667 332.5,65.5C 340.833,65.5 349.167,65.5 357.5,65.5C 357.5,60.5 357.5,55.5 357.5,50.5C 357.5,50.1667 357.5,49.8333 357.5,49.5 Z"/></g>
<g><path style="opacity:0.671" fill="#83b0d2" d="M 74.5,82.5 C 104.833,82.5 135.167,82.5 165.5,82.5C 165.833,82.5 166.167,82.5 166.5,82.5C 166.5,82.8333 166.5,83.1667 166.5,83.5C 166.167,83.5 165.833,83.5 165.5,83.5C 136.831,83.3334 108.165,83.5 79.5,84C 78.2341,84.3095 77.0674,84.8095 76,85.5C 75.2039,89.7548 75.3705,93.9215 76.5,98C 84.3443,98.171 92.011,98.671 99.5,99.5C 91.1667,99.5 82.8333,99.5 74.5,99.5C 74.5,93.8333 74.5,88.1667 74.5,82.5 Z"/></g>
<g><path style="opacity:1" fill="#116099" d="M 207.5,83.5 C 207.5,91.5 207.5,99.5 207.5,107.5C 202.167,107.5 196.833,107.5 191.5,107.5C 191.5,99.5 191.5,91.5 191.5,83.5C 196.833,83.5 202.167,83.5 207.5,83.5 Z"/></g>
<g><path style="opacity:1" fill="#2d7eb7" d="M 307.5,107.5 C 307.5,99.5 307.5,91.5 307.5,83.5C 302.167,83.5 296.833,83.5 291.5,83.5C 291.5,91.5 291.5,99.5 291.5,107.5C 290.507,99.3501 290.174,91.0168 290.5,82.5C 296.5,82.5 302.5,82.5 308.5,82.5C 308.826,91.0168 308.493,99.3501 307.5,107.5 Z"/></g>
<g><path style="opacity:1" fill="#106099" d="M 307.5,107.5 C 302.167,107.5 296.833,107.5 291.5,107.5C 291.5,99.5 291.5,91.5 291.5,83.5C 296.833,83.5 302.167,83.5 307.5,83.5C 307.5,91.5 307.5,99.5 307.5,107.5 Z"/></g>
<g><path style="opacity:1" fill="#2c7eb8" d="M 207.5,83.5 C 202.167,83.5 196.833,83.5 191.5,83.5C 191.5,91.5 191.5,99.5 191.5,107.5C 196.833,107.5 202.167,107.5 207.5,107.5C 202.025,108.489 196.358,108.822 190.5,108.5C 190.5,99.8333 190.5,91.1667 190.5,82.5C 196.358,82.1778 202.025,82.5111 207.5,83.5 Z"/></g>
<g><path style="opacity:1" fill="#4b98cf" d="M 165.5,83.5 C 165.015,89.2582 165.015,94.9249 165.5,100.5C 145.576,99.5126 125.576,99.1793 105.5,99.5C 105.649,100.552 105.483,101.552 105,102.5C 104.241,100.937 103.074,99.9371 101.5,99.5C 100.833,210.167 100.167,320.833 99.5,431.5C 99.5,320.833 99.5,210.167 99.5,99.5C 92.011,98.671 84.3443,98.171 76.5,98C 75.3705,93.9215 75.2039,89.7548 76,85.5C 77.0674,84.8095 78.2341,84.3095 79.5,84C 108.165,83.5 136.831,83.3334 165.5,83.5 Z"/></g>
<g><path style="opacity:1" fill="#2476ae" d="M 257.5,82.5 C 263.167,82.5 268.833,82.5 274.5,82.5C 274.5,91.1667 274.5,99.8333 274.5,108.5C 268.833,108.5 263.167,108.5 257.5,108.5C 257.5,99.8333 257.5,91.1667 257.5,82.5 Z"/></g>
<g><path style="opacity:1" fill="#105f98" d="M 258.5,83.5 C 263.5,83.5 268.5,83.5 273.5,83.5C 273.5,91.5 273.5,99.5 273.5,107.5C 268.5,107.5 263.5,107.5 258.5,107.5C 258.5,99.5 258.5,91.5 258.5,83.5 Z"/></g>
<g><path style="opacity:1" fill="#2172ac" d="M 240.5,107.5 C 240.5,99.5 240.5,91.5 240.5,83.5C 235.5,83.5 230.5,83.5 225.5,83.5C 225.5,91.5 225.5,99.5 225.5,107.5C 224.507,99.3501 224.174,91.0168 224.5,82.5C 230.167,82.5 235.833,82.5 241.5,82.5C 241.826,91.0168 241.493,99.3501 240.5,107.5 Z"/></g>
<g><path style="opacity:1" fill="#105f99" d="M 240.5,107.5 C 235.5,107.5 230.5,107.5 225.5,107.5C 225.5,99.5 225.5,91.5 225.5,83.5C 230.5,83.5 235.5,83.5 240.5,83.5C 240.5,91.5 240.5,99.5 240.5,107.5 Z"/></g>
<g><path style="opacity:1" fill="#3d8bc6" d="M 398.5,103.5 C 398.5,212.5 398.5,321.5 398.5,430.5C 397.167,430.5 395.833,430.5 394.5,430.5C 394.667,323.833 394.5,217.166 394,110.5C 393.333,111.167 392.667,111.833 392,112.5C 391.5,218.499 391.333,324.499 391.5,430.5C 372.833,430.5 354.167,430.5 335.5,430.5C 334.84,322.027 334.173,213.694 333.5,105.5C 333.261,103.533 333.594,101.699 334.5,100C 355.497,99.5 376.497,99.3334 397.5,99.5C 397.232,101.099 397.566,102.432 398.5,103.5 Z"/></g>
<g><path style="opacity:1" fill="#3d8bc6" d="M 101.5,99.5 C 103.074,99.9371 104.241,100.937 105,102.5C 105.483,101.552 105.649,100.552 105.5,99.5C 125.576,99.1793 145.576,99.5126 165.5,100.5C 165.5,210.5 165.5,320.5 165.5,430.5C 144.167,430.5 122.833,430.5 101.5,430.5C 101.5,320.167 101.5,209.833 101.5,99.5 Z"/></g>
<g><path style="opacity:0.775" fill="#6b9fc8" d="M 332.5,82.5 C 332.833,82.5 333.167,82.5 333.5,82.5C 363.833,82.5 394.167,82.5 424.5,82.5C 424.5,88.1667 424.5,93.8333 424.5,99.5C 416.167,99.5 407.833,99.5 399.5,99.5C 399.5,210.5 399.5,321.5 399.5,432.5C 363.5,432.5 327.5,432.5 291.5,432.5C 291.5,432.167 291.5,431.833 291.5,431.5C 305.167,431.5 318.833,431.5 332.5,431.5C 332.833,431.5 333.167,431.5 333.5,431.5C 355.34,431.831 377.006,431.497 398.5,430.5C 398.5,321.5 398.5,212.5 398.5,103.5C 398.5,101.833 398.5,100.167 398.5,98.5C 406.833,98.5 415.167,98.5 423.5,98.5C 423.666,94.1539 423.499,89.8206 423,85.5C 421.266,84.7511 419.433,84.2511 417.5,84C 388.997,83.8323 360.664,83.3323 332.5,82.5 Z"/></g>
<g><path style="opacity:0.2" fill="#d2ebfa" d="M 424.5,82.5 C 425.49,88.31 425.823,94.31 425.5,100.5C 417.167,100.5 408.833,100.5 400.5,100.5C 400.5,210.833 400.5,321.167 400.5,431.5C 400.5,431.833 400.5,432.167 400.5,432.5C 400.167,432.5 399.833,432.5 399.5,432.5C 399.5,321.5 399.5,210.5 399.5,99.5C 407.833,99.5 416.167,99.5 424.5,99.5C 424.5,93.8333 424.5,88.1667 424.5,82.5 Z"/></g>
<g><path style="opacity:0.2" fill="#d2ebfa" d="M 74.5,82.5 C 74.5,88.1667 74.5,93.8333 74.5,99.5C 82.8333,99.5 91.1667,99.5 99.5,99.5C 99.5,210.167 99.5,320.833 99.5,431.5C 99.5,431.833 99.5,432.167 99.5,432.5C 99.1667,432.5 98.8333,432.5 98.5,432.5C 98.5,432.167 98.5,431.833 98.5,431.5C 98.5,321.167 98.5,210.833 98.5,100.5C 90.1667,100.5 81.8333,100.5 73.5,100.5C 73.1771,94.31 73.5104,88.31 74.5,82.5 Z"/></g>
<g><path style="opacity:1" fill="#408cc2" d="M 333.5,105.5 C 334.173,213.694 334.84,322.027 335.5,430.5C 354.167,430.5 372.833,430.5 391.5,430.5C 392.5,430.5 393.5,430.5 394.5,430.5C 395.833,430.5 397.167,430.5 398.5,430.5C 377.006,431.497 355.34,431.831 333.5,431.5C 333.5,322.833 333.5,214.167 333.5,105.5 Z"/></g>
<g><path style="opacity:1" fill="#4a8cc0" d="M 101.5,99.5 C 101.5,209.833 101.5,320.167 101.5,430.5C 122.833,430.5 144.167,430.5 165.5,430.5C 165.5,431.167 165.833,431.5 166.5,431.5C 180.167,431.5 193.833,431.5 207.5,431.5C 207.5,431.833 207.5,432.167 207.5,432.5C 171.5,432.5 135.5,432.5 99.5,432.5C 99.5,432.167 99.5,431.833 99.5,431.5C 100.167,320.833 100.833,210.167 101.5,99.5 Z"/></g>
<g><path style="opacity:0.784" fill="#5ba7e1" d="M 165.5,83.5 C 165.833,83.5 166.167,83.5 166.5,83.5C 166.525,199.354 166.525,315.354 166.5,431.5C 165.833,431.5 165.5,431.167 165.5,430.5C 165.5,320.5 165.5,210.5 165.5,100.5C 165.015,94.9249 165.015,89.2582 165.5,83.5 Z"/></g>
<g><path style="opacity:1" fill="#3c8cc9" d="M 394.5,430.5 C 393.5,430.5 392.5,430.5 391.5,430.5C 391.333,324.499 391.5,218.499 392,112.5C 392.667,111.833 393.333,111.167 394,110.5C 394.5,217.166 394.667,323.833 394.5,430.5 Z"/></g>
<g><path style="opacity:1" fill="#12609a" d="M 124.5,124.5 C 130.167,124.5 135.833,124.5 141.5,124.5C 141.5,132.833 141.5,141.167 141.5,149.5C 135.833,149.5 130.167,149.5 124.5,149.5C 124.5,141.167 124.5,132.833 124.5,124.5 Z"/></g>
<g><path style="opacity:1" fill="#116099" d="M 191.5,124.5 C 196.833,124.5 202.167,124.5 207.5,124.5C 207.5,132.833 207.5,141.167 207.5,149.5C 202.167,149.5 196.833,149.5 191.5,149.5C 191.5,141.167 191.5,132.833 191.5,124.5 Z"/></g>
<g><path style="opacity:1" fill="#12619a" d="M 224.5,124.5 C 230.167,124.5 235.833,124.5 241.5,124.5C 241.5,132.833 241.5,141.167 241.5,149.5C 235.833,149.5 230.167,149.5 224.5,149.5C 224.5,141.167 224.5,132.833 224.5,124.5 Z"/></g>
<g><path style="opacity:1" fill="#12629a" d="M 257.5,124.5 C 263.167,124.5 268.833,124.5 274.5,124.5C 274.5,132.833 274.5,141.167 274.5,149.5C 268.833,149.5 263.167,149.5 257.5,149.5C 257.5,141.167 257.5,132.833 257.5,124.5 Z"/></g>
<g><path style="opacity:1" fill="#12619b" d="M 291.5,124.5 C 297.167,124.5 302.833,124.5 308.5,124.5C 308.5,132.833 308.5,141.167 308.5,149.5C 302.833,149.5 297.167,149.5 291.5,149.5C 291.5,141.167 291.5,132.833 291.5,124.5 Z"/></g>
<g><path style="opacity:1" fill="#12609a" d="M 357.5,124.5 C 363.167,124.5 368.833,124.5 374.5,124.5C 374.5,132.833 374.5,141.167 374.5,149.5C 368.833,149.5 363.167,149.5 357.5,149.5C 357.5,141.167 357.5,132.833 357.5,124.5 Z"/></g>
<g><path style="opacity:1" fill="#105f98" d="M 124.5,166.5 C 129.833,166.5 135.167,166.5 140.5,166.5C 140.5,174.5 140.5,182.5 140.5,190.5C 135.167,190.5 129.833,190.5 124.5,190.5C 124.5,182.5 124.5,174.5 124.5,166.5 Z"/></g>
<g><path style="opacity:1" fill="#116099" d="M 240.5,166.5 C 240.5,174.5 240.5,182.5 240.5,190.5C 235.167,190.5 229.833,190.5 224.5,190.5C 224.5,182.5 224.5,174.5 224.5,166.5C 229.833,166.5 235.167,166.5 240.5,166.5 Z"/></g>
<g><path style="opacity:1" fill="#116099" d="M 274.5,166.5 C 274.5,174.5 274.5,182.5 274.5,190.5C 269.167,190.5 263.833,190.5 258.5,190.5C 258.5,182.5 258.5,174.5 258.5,166.5C 263.833,166.5 269.167,166.5 274.5,166.5 Z"/></g>
<g><path style="opacity:1" fill="#12619b" d="M 357.5,166.5 C 363.167,166.5 368.833,166.5 374.5,166.5C 374.5,174.833 374.5,183.167 374.5,191.5C 368.833,191.5 363.167,191.5 357.5,191.5C 357.5,183.167 357.5,174.833 357.5,166.5 Z"/></g>
<g><path style="opacity:1" fill="#2473ad" d="M 124.5,166.5 C 129.975,165.511 135.642,165.178 141.5,165.5C 141.5,174.167 141.5,182.833 141.5,191.5C 135.642,191.822 129.975,191.489 124.5,190.5C 129.833,190.5 135.167,190.5 140.5,190.5C 140.5,182.5 140.5,174.5 140.5,166.5C 135.167,166.5 129.833,166.5 124.5,166.5 Z"/></g>
<g><path style="opacity:1" fill="#287ab2" d="M 274.5,166.5 C 269.167,166.5 263.833,166.5 258.5,166.5C 258.5,174.5 258.5,182.5 258.5,190.5C 263.833,190.5 269.167,190.5 274.5,190.5C 269.025,191.489 263.358,191.822 257.5,191.5C 257.5,182.833 257.5,174.167 257.5,165.5C 263.358,165.178 269.025,165.511 274.5,166.5 Z"/></g>
<g><path style="opacity:1" fill="#2d7eb7" d="M 191.5,166.5 C 196.975,165.511 202.642,165.178 208.5,165.5C 208.5,174.167 208.5,182.833 208.5,191.5C 202.5,191.5 196.5,191.5 190.5,191.5C 190.174,182.983 190.507,174.65 191.5,166.5 Z"/></g>
<g><path style="opacity:1" fill="#106098" d="M 191.5,166.5 C 196.833,166.5 202.167,166.5 207.5,166.5C 207.5,174.5 207.5,182.5 207.5,190.5C 202.167,190.5 196.833,190.5 191.5,190.5C 191.5,182.5 191.5,174.5 191.5,166.5 Z"/></g>
<g><path style="opacity:1" fill="#2677b0" d="M 240.5,166.5 C 241.493,174.65 241.826,182.983 241.5,191.5C 235.642,191.822 229.975,191.489 224.5,190.5C 229.833,190.5 235.167,190.5 240.5,190.5C 240.5,182.5 240.5,174.5 240.5,166.5 Z"/></g>
<g><path style="opacity:1" fill="#2c7db6" d="M 291.5,166.5 C 291.5,174.5 291.5,182.5 291.5,190.5C 296.833,190.5 302.167,190.5 307.5,190.5C 307.5,182.5 307.5,174.5 307.5,166.5C 308.493,174.65 308.826,182.983 308.5,191.5C 302.5,191.5 296.5,191.5 290.5,191.5C 290.174,182.983 290.507,174.65 291.5,166.5 Z"/></g>
<g><path style="opacity:1" fill="#106099" d="M 291.5,166.5 C 296.833,166.5 302.167,166.5 307.5,166.5C 307.5,174.5 307.5,182.5 307.5,190.5C 302.167,190.5 296.833,190.5 291.5,190.5C 291.5,182.5 291.5,174.5 291.5,166.5 Z"/></g>
<g><path style="opacity:1" fill="#105f99" d="M 124.5,208.5 C 129.833,208.5 135.167,208.5 140.5,208.5C 140.5,216.5 140.5,224.5 140.5,232.5C 135.167,232.5 129.833,232.5 124.5,232.5C 124.5,224.5 124.5,216.5 124.5,208.5 Z"/></g>
<g><path style="opacity:1" fill="#2d7eb7" d="M 307.5,232.5 C 307.5,224.5 307.5,216.5 307.5,208.5C 302.167,208.5 296.833,208.5 291.5,208.5C 291.5,216.5 291.5,224.5 291.5,232.5C 290.507,224.35 290.174,216.017 290.5,207.5C 296.5,207.5 302.5,207.5 308.5,207.5C 308.826,216.017 308.493,224.35 307.5,232.5 Z"/></g>
<g><path style="opacity:1" fill="#106099" d="M 307.5,232.5 C 302.167,232.5 296.833,232.5 291.5,232.5C 291.5,224.5 291.5,216.5 291.5,208.5C 296.833,208.5 302.167,208.5 307.5,208.5C 307.5,216.5 307.5,224.5 307.5,232.5 Z"/></g>
<g><path style="opacity:1" fill="#12619a" d="M 357.5,207.5 C 363.167,207.5 368.833,207.5 374.5,207.5C 374.5,215.833 374.5,224.167 374.5,232.5C 368.833,232.5 363.167,232.5 357.5,232.5C 357.5,224.167 357.5,215.833 357.5,207.5 Z"/></g>
<g><path style="opacity:1" fill="#2d7eb8" d="M 207.5,232.5 C 207.5,224.5 207.5,216.5 207.5,208.5C 202.167,208.5 196.833,208.5 191.5,208.5C 191.5,216.5 191.5,224.5 191.5,232.5C 190.507,224.35 190.174,216.017 190.5,207.5C 196.5,207.5 202.5,207.5 208.5,207.5C 208.826,216.017 208.493,224.35 207.5,232.5 Z"/></g>
<g><path style="opacity:1" fill="#106099" d="M 207.5,232.5 C 202.167,232.5 196.833,232.5 191.5,232.5C 191.5,224.5 191.5,216.5 191.5,208.5C 196.833,208.5 202.167,208.5 207.5,208.5C 207.5,216.5 207.5,224.5 207.5,232.5 Z"/></g>
<g><path style="opacity:1" fill="#2475ae" d="M 257.5,207.5 C 263.167,207.5 268.833,207.5 274.5,207.5C 274.5,216.167 274.5,224.833 274.5,233.5C 268.833,233.5 263.167,233.5 257.5,233.5C 257.5,224.833 257.5,216.167 257.5,207.5 Z"/></g>
<g><path style="opacity:1" fill="#106098" d="M 258.5,208.5 C 263.5,208.5 268.5,208.5 273.5,208.5C 273.5,216.5 273.5,224.5 273.5,232.5C 268.5,232.5 263.5,232.5 258.5,232.5C 258.5,224.5 258.5,216.5 258.5,208.5 Z"/></g>
<g><path style="opacity:1" fill="#2475ae" d="M 240.5,232.5 C 235.36,233.488 230.026,233.821 224.5,233.5C 224.5,224.833 224.5,216.167 224.5,207.5C 230.167,207.5 235.833,207.5 241.5,207.5C 241.826,216.017 241.493,224.35 240.5,232.5 Z"/></g>
<g><path style="opacity:1" fill="#105f98" d="M 240.5,232.5 C 235.5,232.5 230.5,232.5 225.5,232.5C 225.5,224.5 225.5,216.5 225.5,208.5C 230.5,208.5 235.5,208.5 240.5,208.5C 240.5,216.5 240.5,224.5 240.5,232.5 Z"/></g>
<g><path style="opacity:1" fill="#2372ac" d="M 124.5,208.5 C 129.975,207.511 135.642,207.178 141.5,207.5C 141.5,216.167 141.5,224.833 141.5,233.5C 135.642,233.822 129.975,233.489 124.5,232.5C 129.833,232.5 135.167,232.5 140.5,232.5C 140.5,224.5 140.5,216.5 140.5,208.5C 135.167,208.5 129.833,208.5 124.5,208.5 Z"/></g>
<g><path style="opacity:1" fill="#12609a" d="M 124.5,249.5 C 130.167,249.5 135.833,249.5 141.5,249.5C 141.5,257.833 141.5,266.167 141.5,274.5C 135.833,274.5 130.167,274.5 124.5,274.5C 124.5,266.167 124.5,257.833 124.5,249.5 Z"/></g>
<g><path style="opacity:1" fill="#116099" d="M 191.5,249.5 C 196.833,249.5 202.167,249.5 207.5,249.5C 207.5,257.833 207.5,266.167 207.5,274.5C 202.167,274.5 196.833,274.5 191.5,274.5C 191.5,266.167 191.5,257.833 191.5,249.5 Z"/></g>
<g><path style="opacity:1" fill="#12619a" d="M 224.5,249.5 C 230.167,249.5 235.833,249.5 241.5,249.5C 241.5,257.833 241.5,266.167 241.5,274.5C 235.833,274.5 230.167,274.5 224.5,274.5C 224.5,266.167 224.5,257.833 224.5,249.5 Z"/></g>
<g><path style="opacity:1" fill="#12629a" d="M 257.5,249.5 C 263.167,249.5 268.833,249.5 274.5,249.5C 274.5,257.833 274.5,266.167 274.5,274.5C 268.833,274.5 263.167,274.5 257.5,274.5C 257.5,266.167 257.5,257.833 257.5,249.5 Z"/></g>
<g><path style="opacity:1" fill="#116099" d="M 291.5,249.5 C 296.833,249.5 302.167,249.5 307.5,249.5C 307.5,257.833 307.5,266.167 307.5,274.5C 302.167,274.5 296.833,274.5 291.5,274.5C 291.5,266.167 291.5,257.833 291.5,249.5 Z"/></g>
<g><path style="opacity:1" fill="#12609a" d="M 357.5,249.5 C 363.167,249.5 368.833,249.5 374.5,249.5C 374.5,257.833 374.5,266.167 374.5,274.5C 368.833,274.5 363.167,274.5 357.5,274.5C 357.5,266.167 357.5,257.833 357.5,249.5 Z"/></g>
<g><path style="opacity:1" fill="#89b238" d="M 49.5,289.5 C 50.1667,290.833 50.8333,290.833 51.5,289.5C 52.2623,287.738 53.5956,286.738 55.5,286.5C 57.1789,286.108 58.8455,285.608 60.5,285C 62.8235,282.502 65.1568,280.002 67.5,277.5C 69.5138,277.392 71.1805,278.058 72.5,279.5C 72.7376,281.404 73.7376,282.738 75.5,283.5C 75.7376,285.404 76.7376,286.738 78.5,287.5C 78.5674,288.959 78.2341,290.292 77.5,291.5C 76.8333,291.5 76.1667,291.5 75.5,291.5C 74.7494,290.427 73.7494,290.26 72.5,291C 71.7556,292.815 71.0889,294.648 70.5,296.5C 67.2862,297.388 64.2862,298.721 61.5,300.5C 61.5,301.5 61.5,302.5 61.5,303.5C 59.4496,303.961 57.4496,304.628 55.5,305.5C 54.3861,306.723 54.2195,308.056 55,309.5C 59.5348,312.136 63.7014,315.303 67.5,319C 69.6284,319.655 71.6284,320.489 73.5,321.5C 75.4607,323.798 76.4607,326.465 76.5,329.5C 75.3995,330.605 74.7329,331.938 74.5,333.5C 72.7376,334.262 71.7376,335.596 71.5,337.5C 69.4352,337.483 67.4352,337.15 65.5,336.5C 65.0269,335.094 64.0269,334.427 62.5,334.5C 62.0269,333.094 61.0269,332.427 59.5,332.5C 59.0269,331.094 58.0269,330.427 56.5,330.5C 55.4154,328.413 53.7488,327.08 51.5,326.5C 51.5,326.167 51.5,325.833 51.5,325.5C 50.791,324.596 49.791,324.263 48.5,324.5C 48.5,332.5 48.5,340.5 48.5,348.5C 43.5,348.5 38.5,348.5 33.5,348.5C 33.825,340.981 33.4916,333.648 32.5,326.5C 32.1034,325.475 31.4368,325.308 30.5,326C 27.0595,328.042 24.0595,330.542 21.5,333.5C 19.9731,333.427 18.9731,334.094 18.5,335.5C 16.8439,336.146 15.1772,336.813 13.5,337.5C 11.9271,337.248 10.5938,336.582 9.5,335.5C 8.86446,333.205 7.53112,331.539 5.5,330.5C 4.83333,328.833 4.16667,327.167 3.5,325.5C 4.87344,325.657 6.20677,325.49 7.5,325C 8.6647,323.008 9.99803,321.175 11.5,319.5C 14.8908,318.471 17.5574,316.471 19.5,313.5C 21.7488,312.92 23.4154,311.587 24.5,309.5C 27.1357,307.079 26.469,305.412 22.5,304.5C 21.7377,302.738 20.4044,301.738 18.5,301.5C 17.7377,299.738 16.4044,298.738 14.5,298.5C 13.7377,296.738 12.4044,295.738 10.5,295.5C 9.83333,294.5 9.16667,293.5 8.5,292.5C 6.56356,290.757 6.23023,288.757 7.5,286.5C 8.08605,286.709 8.58605,287.043 9,287.5C 9.49546,285.527 9.66212,283.527 9.5,281.5C 10.4312,279.978 11.5979,278.645 13,277.5C 14.4064,278.414 15.9064,279.08 17.5,279.5C 17.9731,280.906 18.9731,281.573 20.5,281.5C 21.5387,283.531 23.2054,284.864 25.5,285.5C 25.8333,286.5 26.5,287.167 27.5,287.5C 27.5,288.833 27.5,290.167 27.5,291.5C 29.8333,291.5 32.1667,291.5 34.5,291.5C 34.5,283.5 34.5,275.5 34.5,267.5C 39.0986,267.2 43.5986,267.533 48,268.5C 48.1715,275.679 48.6715,282.679 49.5,289.5 Z"/></g>
<g><path style="opacity:1" fill="#89b238" d="M 466.5,289.5 C 467.779,290.715 468.779,290.382 469.5,288.5C 473.615,288.38 476.281,286.38 477.5,282.5C 479.404,282.262 480.738,281.262 481.5,279.5C 483.094,279.08 484.594,278.414 486,277.5C 486.902,277.743 487.735,278.077 488.5,278.5C 488.738,280.404 489.738,281.738 491.5,282.5C 491.5,283.167 491.5,283.833 491.5,284.5C 491.703,286.044 492.37,287.378 493.5,288.5C 488.697,290.838 484.364,293.671 480.5,297C 480.957,297.414 481.291,297.914 481.5,298.5C 479.955,299.452 478.288,299.785 476.5,299.5C 476.5,301.167 476.5,302.833 476.5,304.5C 476.5,305.167 476.167,305.5 475.5,305.5C 472.924,305.722 472.09,307.055 473,309.5C 475.352,311.03 477.519,312.697 479.5,314.5C 480.456,316.516 481.79,318.349 483.5,320C 486.647,320.946 489.647,322.113 492.5,323.5C 492.567,324.959 492.234,326.292 491.5,327.5C 489.896,328.287 489.229,329.62 489.5,331.5C 487.473,331.662 485.473,331.495 483.5,331C 481.064,327.664 478.064,326.831 474.5,328.5C 474.301,326.04 473.635,323.707 472.5,321.5C 470.833,322.833 469.167,322.833 467.5,321.5C 464.732,324.417 463.232,323.75 463,319.5C 460.685,324.169 461.019,328.502 464,332.5C 464.667,337.167 464.667,341.833 464,346.5C 462.686,345.687 461.519,344.687 460.5,343.5C 457.132,346.393 454.466,345.893 452.5,342C 452.645,341.228 452.978,340.561 453.5,340C 451.893,334.946 450.893,329.779 450.5,324.5C 449.209,324.263 448.209,324.596 447.5,325.5C 447.5,325.833 447.5,326.167 447.5,326.5C 445.5,326.5 444.5,327.5 444.5,329.5C 441.197,330.151 438.53,331.818 436.5,334.5C 436.5,335.167 436.167,335.5 435.5,335.5C 432.833,336.167 430.167,336.833 427.5,337.5C 427.262,335.596 426.262,334.262 424.5,333.5C 423.941,331.321 423.274,329.154 422.5,327C 423.124,324.915 424.124,323.082 425.5,321.5C 428.891,320.471 431.557,318.471 433.5,315.5C 437.516,314.049 440.849,311.549 443.5,308C 442.665,304.322 440.332,302.489 436.5,302.5C 435.738,300.738 434.404,299.738 432.5,299.5C 431.738,297.738 430.404,296.738 428.5,296.5C 427.738,294.738 426.404,293.738 424.5,293.5C 423.061,291.412 422.394,289.079 422.5,286.5C 423.11,285.609 423.443,284.609 423.5,283.5C 425.67,282.162 427.336,280.328 428.5,278C 429.448,277.517 430.448,277.351 431.5,277.5C 431.973,278.906 432.973,279.573 434.5,279.5C 435.539,281.531 437.205,282.864 439.5,283.5C 439.973,284.906 440.973,285.573 442.5,285.5C 444.754,286.124 446.421,287.457 447.5,289.5C 447.5,290.167 447.833,290.5 448.5,290.5C 448.56,291.043 448.893,291.376 449.5,291.5C 450.498,283.528 450.831,275.528 450.5,267.5C 455.43,267.197 460.263,267.531 465,268.5C 465.171,275.679 465.671,282.679 466.5,289.5 Z"/></g>
<g><path style="opacity:0.704" fill="#b6cd8d" d="M 49.5,265.5 C 49.5,265.833 49.5,266.167 49.5,266.5C 44.1667,266.5 38.8333,266.5 33.5,266.5C 33.8245,273.687 33.4912,280.687 32.5,287.5C 32.5,280.167 32.5,272.833 32.5,265.5C 38.1667,265.5 43.8333,265.5 49.5,265.5 Z"/></g>
<g><path style="opacity:0.976" fill="#93b254" d="M 49.5,266.5 C 49.5,274.167 49.5,281.833 49.5,289.5C 48.6715,282.679 48.1715,275.679 48,268.5C 43.5986,267.533 39.0986,267.2 34.5,267.5C 34.5,275.5 34.5,283.5 34.5,291.5C 32.1667,291.5 29.8333,291.5 27.5,291.5C 27.5,290.167 27.5,288.833 27.5,287.5C 27.8333,287.5 28.1667,287.5 28.5,287.5C 29.7206,288.028 30.8873,288.695 32,289.5C 32.4643,288.906 32.631,288.239 32.5,287.5C 33.4912,280.687 33.8245,273.687 33.5,266.5C 38.8333,266.5 44.1667,266.5 49.5,266.5 Z"/></g>
<g><path style="opacity:0.118" fill="#ebf7d4" d="M 49.5,265.5 C 50.1667,273.5 50.8333,281.5 51.5,289.5C 50.8333,290.833 50.1667,290.833 49.5,289.5C 49.5,281.833 49.5,274.167 49.5,266.5C 49.5,266.167 49.5,265.833 49.5,265.5 Z"/></g>
<g><path style="opacity:0.118" fill="#e4f6c5" d="M 466.5,266.5 C 460.833,266.5 455.167,266.5 449.5,266.5C 449.826,274.684 449.492,282.684 448.5,290.5C 447.833,290.5 447.5,290.167 447.5,289.5C 448.492,281.684 448.826,273.684 448.5,265.5C 454.69,265.177 460.69,265.51 466.5,266.5 Z"/></g>
<g><path style="opacity:0.841" fill="#9db765" d="M 466.5,266.5 C 466.5,274.167 466.5,281.833 466.5,289.5C 465.671,282.679 465.171,275.679 465,268.5C 460.263,267.531 455.43,267.197 450.5,267.5C 450.831,275.528 450.498,283.528 449.5,291.5C 448.893,291.376 448.56,291.043 448.5,290.5C 449.492,282.684 449.826,274.684 449.5,266.5C 455.167,266.5 460.833,266.5 466.5,266.5 Z"/></g>
<g><path style="opacity:0.722" fill="#d2e3b1" d="M 17.5,279.5 C 15.9064,279.08 14.4064,278.414 13,277.5C 11.5979,278.645 10.4312,279.978 9.5,281.5C 8.83333,281.833 8.16667,282.167 7.5,282.5C 8.76079,279.901 10.4275,277.568 12.5,275.5C 14.7855,276.133 16.4522,277.466 17.5,279.5 Z"/></g>
<g><path style="opacity:0.702" fill="#d2dfb1" d="M 72.5,279.5 C 71.1805,278.058 69.5138,277.392 67.5,277.5C 70.0175,274.926 71.6842,275.592 72.5,279.5 Z"/></g>
<g><path style="opacity:0.306" fill="#d3e2b3" d="M 488.5,278.5 C 487.735,278.077 486.902,277.743 486,277.5C 484.594,278.414 483.094,279.08 481.5,279.5C 482.548,277.466 484.214,276.133 486.5,275.5C 487.919,276.005 488.585,277.005 488.5,278.5 Z"/></g>
<g><path style="opacity:0.38" fill="#d5e6b9" d="M 431.5,277.5 C 430.448,277.351 429.448,277.517 428.5,278C 427.336,280.328 425.67,282.162 423.5,283.5C 424.919,280.9 426.585,278.4 428.5,276C 429.998,275.415 430.998,275.915 431.5,277.5 Z"/></g>
<g><path style="opacity:0.063" fill="#d4e6b7" d="M 431.5,277.5 C 433.027,277.427 434.027,278.094 434.5,279.5C 432.973,279.573 431.973,278.906 431.5,277.5 Z"/></g>
<g><path style="opacity:0.055" fill="#d7eabb" d="M 17.5,279.5 C 19.0269,279.427 20.0269,280.094 20.5,281.5C 18.9731,281.573 17.9731,280.906 17.5,279.5 Z"/></g>
<g><path style="opacity:0.859" fill="#bed595" d="M 434.5,279.5 C 436.754,280.124 438.421,281.457 439.5,283.5C 437.205,282.864 435.539,281.531 434.5,279.5 Z"/></g>
<g><path style="opacity:0.6" fill="#c5d9a1" d="M 481.5,279.5 C 480.738,281.262 479.404,282.262 477.5,282.5C 478.262,280.738 479.596,279.738 481.5,279.5 Z"/></g>
<g><path style="opacity:0.286" fill="#e0f4c9" d="M 488.5,278.5 C 490.262,279.262 491.262,280.596 491.5,282.5C 489.738,281.738 488.738,280.404 488.5,278.5 Z"/></g>
<g><path style="opacity:0.392" fill="#d6e8b6" d="M 72.5,279.5 C 74.2624,280.262 75.2624,281.596 75.5,283.5C 73.7376,282.738 72.7376,281.404 72.5,279.5 Z"/></g>
<g><path style="opacity:0.851" fill="#bed599" d="M 20.5,281.5 C 22.754,282.124 24.4206,283.457 25.5,285.5C 23.2054,284.864 21.5387,283.531 20.5,281.5 Z"/></g>
<g><path style="opacity:0.506" fill="#deedc3" d="M 7.5,282.5 C 7.26242,284.404 6.26242,285.738 4.5,286.5C 4.73758,284.596 5.73758,283.262 7.5,282.5 Z"/></g>
<g><path style="opacity:0.047" fill="#d6ebb6" d="M 439.5,283.5 C 441.027,283.427 442.027,284.094 442.5,285.5C 440.973,285.573 439.973,284.906 439.5,283.5 Z"/></g>
<g><path style="opacity:0.988" fill="#b1c87e" d="M 67.5,277.5 C 65.1568,280.002 62.8235,282.502 60.5,285C 58.8455,285.608 57.1789,286.108 55.5,286.5C 58.9289,282.738 62.9289,279.738 67.5,277.5 Z"/></g>
<g><path style="opacity:0.596" fill="#dde9be" d="M 75.5,283.5 C 77.2624,284.262 78.2624,285.596 78.5,287.5C 76.7376,286.738 75.7376,285.404 75.5,283.5 Z"/></g>
<g><path style="opacity:0.58" fill="#d9ebb9" d="M 423.5,283.5 C 423.443,284.609 423.11,285.609 422.5,286.5C 421.833,286.833 421.167,287.167 420.5,287.5C 420.738,285.596 421.738,284.262 423.5,283.5 Z"/></g>
<g><path style="opacity:0.271" fill="#e2f0c5" d="M 491.5,282.5 C 493.262,283.262 494.262,284.596 494.5,286.5C 493.5,285.833 492.5,285.167 491.5,284.5C 491.5,283.833 491.5,283.167 491.5,282.5 Z"/></g>
<g><path style="opacity:0.043" fill="#d6e9b7" d="M 25.5,285.5 C 27.0269,285.427 28.0269,286.094 28.5,287.5C 28.1667,287.5 27.8333,287.5 27.5,287.5C 26.5,287.167 25.8333,286.5 25.5,285.5 Z"/></g>
<g><path style="opacity:0.992" fill="#aec478" d="M 477.5,282.5 C 476.281,286.38 473.615,288.38 469.5,288.5C 471.8,286.016 474.467,284.016 477.5,282.5 Z"/></g>
<g><path style="opacity:0.996" fill="#a2bc69" d="M 422.5,286.5 C 422.394,289.079 423.061,291.412 424.5,293.5C 422.973,293.573 421.973,292.906 421.5,291.5C 420.766,290.292 420.433,288.959 420.5,287.5C 421.167,287.167 421.833,286.833 422.5,286.5 Z"/></g>
<g><path style="opacity:0.302" fill="#e9f1cb" d="M 4.5,286.5 C 4.16667,287.833 3.83333,289.167 3.5,290.5C 1.14029,289.092 1.47362,287.759 4.5,286.5 Z"/></g>
<g><path style="opacity:1" fill="#8fb04b" d="M 9.5,281.5 C 9.66212,283.527 9.49546,285.527 9,287.5C 8.58605,287.043 8.08605,286.709 7.5,286.5C 6.23023,288.757 6.56356,290.757 8.5,292.5C 7.83333,292.5 7.16667,292.5 6.5,292.5C 6.02694,291.094 5.02694,290.427 3.5,290.5C 3.83333,289.167 4.16667,287.833 4.5,286.5C 6.26242,285.738 7.26242,284.404 7.5,282.5C 8.16667,282.167 8.83333,281.833 9.5,281.5 Z"/></g>
<g><path style="opacity:0.275" fill="#eff5df" d="M 494.5,286.5 C 498.352,288.455 498.352,290.122 494.5,291.5C 494.5,291.167 494.5,290.833 494.5,290.5C 495.354,289.368 495.354,288.035 494.5,286.5 Z"/></g>
<g><path style="opacity:0.6" fill="#cfe2a2" d="M 469.5,288.5 C 468.779,290.382 467.779,290.715 466.5,289.5C 467.391,288.89 468.391,288.557 469.5,288.5 Z"/></g>
<g><path style="opacity:1" fill="#a4c166" d="M 75.5,291.5 C 75.1667,292.167 74.8333,292.833 74.5,293.5C 73.7377,295.262 72.4044,296.262 70.5,296.5C 71.0889,294.648 71.7556,292.815 72.5,291C 73.7494,290.26 74.7494,290.427 75.5,291.5 Z"/></g>
<g><path style="opacity:0.008" fill="#ebf3d8" d="M 78.5,287.5 C 81.2178,289.423 80.8845,290.756 77.5,291.5C 78.2341,290.292 78.5674,288.959 78.5,287.5 Z"/></g>
<g><path style="opacity:0.176" fill="#e9f3d2" d="M 420.5,287.5 C 420.433,288.959 420.766,290.292 421.5,291.5C 418.116,290.756 417.782,289.423 420.5,287.5 Z"/></g>
<g><path style="opacity:0.988" fill="#b9cd8c" d="M 494.5,290.5 C 494.5,290.833 494.5,291.167 494.5,291.5C 494.027,292.906 493.027,293.573 491.5,293.5C 491.5,292.5 491.5,291.5 491.5,290.5C 492.5,290.5 493.5,290.5 494.5,290.5 Z"/></g>
<g><path style="opacity:0.345" fill="#dbeab3" d="M 3.5,290.5 C 5.02694,290.427 6.02694,291.094 6.5,292.5C 4.97306,292.573 3.97306,291.906 3.5,290.5 Z"/></g>
<g><path style="opacity:1" fill="#105f99" d="M 124.5,291.5 C 129.833,291.5 135.167,291.5 140.5,291.5C 140.5,299.5 140.5,307.5 140.5,315.5C 135.167,315.5 129.833,315.5 124.5,315.5C 124.5,307.5 124.5,299.5 124.5,291.5 Z"/></g>
<g><path style="opacity:1" fill="#11609a" d="M 224.5,291.5 C 229.833,291.5 235.167,291.5 240.5,291.5C 240.5,299.5 240.5,307.5 240.5,315.5C 235.167,315.5 229.833,315.5 224.5,315.5C 224.5,307.5 224.5,299.5 224.5,291.5 Z"/></g>
<g><path style="opacity:1" fill="#105f99" d="M 374.5,291.5 C 374.5,299.5 374.5,307.5 374.5,315.5C 369.167,315.5 363.833,315.5 358.5,315.5C 358.5,307.5 358.5,299.5 358.5,291.5C 363.833,291.5 369.167,291.5 374.5,291.5 Z"/></g>
<g><path style="opacity:0.024" fill="#e7f1c0" d="M 75.5,291.5 C 76.1667,291.5 76.8333,291.5 77.5,291.5C 77.0269,292.906 76.0269,293.573 74.5,293.5C 74.8333,292.833 75.1667,292.167 75.5,291.5 Z"/></g>
<g><path style="opacity:0.573" fill="#d0e0a5" d="M 6.5,292.5 C 7.16667,292.5 7.83333,292.5 8.5,292.5C 9.16667,293.5 9.83333,294.5 10.5,295.5C 8.59565,295.262 7.26231,294.262 6.5,292.5 Z"/></g>
<g><path style="opacity:1" fill="#9cbb5a" d="M 491.5,284.5 C 492.5,285.167 493.5,285.833 494.5,286.5C 495.354,288.035 495.354,289.368 494.5,290.5C 493.5,290.5 492.5,290.5 491.5,290.5C 491.5,291.5 491.5,292.5 491.5,293.5C 489.973,293.427 488.973,294.094 488.5,295.5C 485.071,299.262 481.071,302.262 476.5,304.5C 476.5,302.833 476.5,301.167 476.5,299.5C 478.288,299.785 479.955,299.452 481.5,298.5C 481.291,297.914 480.957,297.414 480.5,297C 484.364,293.671 488.697,290.838 493.5,288.5C 492.37,287.378 491.703,286.044 491.5,284.5 Z"/></g>
<g><path style="opacity:0.58" fill="#cadda6" d="M 424.5,293.5 C 426.404,293.738 427.738,294.738 428.5,296.5C 426.596,296.262 425.262,295.262 424.5,293.5 Z"/></g>
<g><path style="opacity:0.024" fill="#e6f2bf" d="M 491.5,293.5 C 491.027,294.906 490.027,295.573 488.5,295.5C 488.973,294.094 489.973,293.427 491.5,293.5 Z"/></g>
<g><path style="opacity:0.745" fill="#cadfaa" d="M 10.5,295.5 C 12.4044,295.738 13.7377,296.738 14.5,298.5C 12.5956,298.262 11.2623,297.262 10.5,295.5 Z"/></g>
<g><path style="opacity:1" fill="#2473ad" d="M 124.5,291.5 C 129.975,290.511 135.642,290.178 141.5,290.5C 141.5,299.167 141.5,307.833 141.5,316.5C 135.642,316.822 129.975,316.489 124.5,315.5C 129.833,315.5 135.167,315.5 140.5,315.5C 140.5,307.5 140.5,299.5 140.5,291.5C 135.167,291.5 129.833,291.5 124.5,291.5 Z"/></g>
<g><path style="opacity:1" fill="#287ab4" d="M 224.5,291.5 C 229.975,290.511 235.642,290.178 241.5,290.5C 241.5,299.167 241.5,307.833 241.5,316.5C 235.642,316.822 229.975,316.489 224.5,315.5C 229.833,315.5 235.167,315.5 240.5,315.5C 240.5,307.5 240.5,299.5 240.5,291.5C 235.167,291.5 229.833,291.5 224.5,291.5 Z"/></g>
<g><path style="opacity:1" fill="#2473ad" d="M 374.5,291.5 C 369.167,291.5 363.833,291.5 358.5,291.5C 358.5,299.5 358.5,307.5 358.5,315.5C 363.833,315.5 369.167,315.5 374.5,315.5C 369.025,316.489 363.358,316.822 357.5,316.5C 357.5,307.833 357.5,299.167 357.5,290.5C 363.358,290.178 369.025,290.511 374.5,291.5 Z"/></g>
<g><path style="opacity:0.957" fill="#b3cb83" d="M 70.5,296.5 C 67.8103,299.185 64.8103,301.518 61.5,303.5C 61.5,302.5 61.5,301.5 61.5,300.5C 64.2862,298.721 67.2862,297.388 70.5,296.5 Z"/></g>
<g><path style="opacity:0.576" fill="#cee0b0" d="M 428.5,296.5 C 430.404,296.738 431.738,297.738 432.5,299.5C 430.596,299.262 429.262,298.262 428.5,296.5 Z"/></g>
<g><path style="opacity:0.58" fill="#cedfa1" d="M 14.5,298.5 C 16.4044,298.738 17.7377,299.738 18.5,301.5C 16.5956,301.262 15.2623,300.262 14.5,298.5 Z"/></g>
<g><path style="opacity:0.722" fill="#c9dba6" d="M 432.5,299.5 C 434.404,299.738 435.738,300.738 436.5,302.5C 434.596,302.262 433.262,301.262 432.5,299.5 Z"/></g>
<g><path style="opacity:0.71" fill="#c8db9f" d="M 18.5,301.5 C 20.4044,301.738 21.7377,302.738 22.5,304.5C 20.5956,304.262 19.2623,303.262 18.5,301.5 Z"/></g>
<g><path style="opacity:0.576" fill="#cee1a4" d="M 22.5,304.5 C 26.469,305.412 27.1357,307.079 24.5,309.5C 24.6107,308.883 24.944,308.383 25.5,308C 24.2899,306.961 23.2899,305.794 22.5,304.5 Z"/></g>
<g><path style="opacity:0.075" fill="#d3e6b0" d="M 475.5,305.5 C 475.047,306.458 474.381,307.292 473.5,308C 476.69,310.364 479.69,312.864 482.5,315.5C 481.391,315.443 480.391,315.11 479.5,314.5C 477.519,312.697 475.352,311.03 473,309.5C 472.09,307.055 472.924,305.722 475.5,305.5 Z"/></g>
<g><path style="opacity:0.427" fill="#bed490" d="M 436.5,302.5 C 440.332,302.489 442.665,304.322 443.5,308C 440.849,311.549 437.516,314.049 433.5,315.5C 436.31,312.864 439.31,310.364 442.5,308C 440.237,306.383 438.237,304.55 436.5,302.5 Z"/></g>
<g><path style="opacity:0.714" fill="#c7db9e" d="M 24.5,309.5 C 23.4154,311.587 21.7488,312.92 19.5,313.5C 20.5846,311.413 22.2512,310.08 24.5,309.5 Z"/></g>
<g><path style="opacity:0.98" fill="#b1c97e" d="M 61.5,303.5 C 59.9062,304.983 58.2395,306.483 56.5,308C 62.3539,312.364 68.0205,316.864 73.5,321.5C 71.6284,320.489 69.6284,319.655 67.5,319C 63.7014,315.303 59.5348,312.136 55,309.5C 54.2195,308.056 54.3861,306.723 55.5,305.5C 57.4496,304.628 59.4496,303.961 61.5,303.5 Z"/></g>
<g><path style="opacity:1" fill="#2374ac" d="M 258.5,291.5 C 258.5,299.5 258.5,307.5 258.5,315.5C 263.5,315.5 268.5,315.5 273.5,315.5C 273.5,307.5 273.5,299.5 273.5,291.5C 274.493,299.65 274.826,307.983 274.5,316.5C 268.833,316.5 263.167,316.5 257.5,316.5C 257.174,307.983 257.507,299.65 258.5,291.5 Z"/></g>
<g><path style="opacity:1" fill="#105f98" d="M 258.5,291.5 C 263.5,291.5 268.5,291.5 273.5,291.5C 273.5,299.5 273.5,307.5 273.5,315.5C 268.5,315.5 263.5,315.5 258.5,315.5C 258.5,307.5 258.5,299.5 258.5,291.5 Z"/></g>
<g><path style="opacity:1" fill="#2c7db6" d="M 291.5,291.5 C 291.5,299.5 291.5,307.5 291.5,315.5C 296.833,315.5 302.167,315.5 307.5,315.5C 307.5,307.5 307.5,299.5 307.5,291.5C 308.493,299.65 308.826,307.983 308.5,316.5C 302.5,316.5 296.5,316.5 290.5,316.5C 290.174,307.983 290.507,299.65 291.5,291.5 Z"/></g>
<g><path style="opacity:1" fill="#106099" d="M 291.5,291.5 C 296.833,291.5 302.167,291.5 307.5,291.5C 307.5,299.5 307.5,307.5 307.5,315.5C 302.167,315.5 296.833,315.5 291.5,315.5C 291.5,307.5 291.5,299.5 291.5,291.5 Z"/></g>
<g><path style="opacity:1" fill="#3587c1" d="M 207.5,291.5 C 208.493,299.984 208.826,308.651 208.5,317.5C 202.5,317.5 196.5,317.5 190.5,317.5C 190.5,308.5 190.5,299.5 190.5,290.5C 196.358,290.178 202.025,290.511 207.5,291.5 Z"/></g>
<g><path style="opacity:1" fill="#115f99" d="M 207.5,291.5 C 207.5,299.5 207.5,307.5 207.5,315.5C 202.167,315.5 196.833,315.5 191.5,315.5C 191.5,307.5 191.5,299.5 191.5,291.5C 196.833,291.5 202.167,291.5 207.5,291.5 Z"/></g>
<g><path style="opacity:0.6" fill="#c6d99e" d="M 433.5,315.5 C 431.557,318.471 428.891,320.471 425.5,321.5C 427.8,319.016 430.467,317.016 433.5,315.5 Z"/></g>
<g><path style="opacity:0.6" fill="#c4da9d" d="M 19.5,313.5 C 17.5574,316.471 14.8908,318.471 11.5,319.5C 13.8003,317.016 16.4669,315.016 19.5,313.5 Z"/></g>
<g><path style="opacity:0.949" fill="#b7cb88" d="M 483.5,315.5 C 485.167,316.5 486.5,317.833 487.5,319.5C 484.858,319.512 483.525,318.179 483.5,315.5 Z"/></g>
<g><path style="opacity:1" fill="#8db142" d="M 491.5,327.5 C 491.5,328.833 491.5,330.167 491.5,331.5C 490.235,335.438 487.568,337.438 483.5,337.5C 483.027,336.094 482.027,335.427 480.5,335.5C 480.027,334.094 479.027,333.427 477.5,333.5C 477.027,332.094 476.027,331.427 474.5,331.5C 473.738,329.738 472.404,328.738 470.5,328.5C 469.625,326.194 468.292,325.527 466.5,326.5C 466.5,333.5 466.5,340.5 466.5,347.5C 466.167,347.5 465.833,347.5 465.5,347.5C 460.595,348.445 455.595,348.779 450.5,348.5C 450.5,340.5 450.5,332.5 450.5,324.5C 450.893,329.779 451.893,334.946 453.5,340C 452.978,340.561 452.645,341.228 452.5,342C 454.466,345.893 457.132,346.393 460.5,343.5C 461.519,344.687 462.686,345.687 464,346.5C 464.667,341.833 464.667,337.167 464,332.5C 461.019,328.502 460.685,324.169 463,319.5C 463.232,323.75 464.732,324.417 467.5,321.5C 469.167,322.833 470.833,322.833 472.5,321.5C 473.635,323.707 474.301,326.04 474.5,328.5C 478.064,326.831 481.064,327.664 483.5,331C 485.473,331.495 487.473,331.662 489.5,331.5C 489.229,329.62 489.896,328.287 491.5,327.5 Z"/></g>
<g><path style="opacity:1" fill="#adc576" d="M 11.5,319.5 C 9.99803,321.175 8.6647,323.008 7.5,325C 6.20677,325.49 4.87344,325.657 3.5,325.5C 5.80028,323.016 8.46694,321.016 11.5,319.5 Z"/></g>
<g><path style="opacity:0.565" fill="#e2ead1" d="M 78.5,324.5 C 81.1667,325.833 81.1667,327.167 78.5,328.5C 78.5,327.167 78.5,325.833 78.5,324.5 Z"/></g>
<g><path style="opacity:1" fill="#9cb95c" d="M 479.5,314.5 C 480.391,315.11 481.391,315.443 482.5,315.5C 482.833,315.5 483.167,315.5 483.5,315.5C 483.525,318.179 484.858,319.512 487.5,319.5C 490.533,321.016 493.2,323.016 495.5,325.5C 494.833,327.167 494.167,328.833 493.5,330.5C 492.833,330.833 492.167,331.167 491.5,331.5C 491.5,330.167 491.5,328.833 491.5,327.5C 492.234,326.292 492.567,324.959 492.5,323.5C 489.647,322.113 486.647,320.946 483.5,320C 481.79,318.349 480.456,316.516 479.5,314.5 Z"/></g>
<g><path style="opacity:0.02" fill="#e6f2c7" d="M 32.5,326.5 C 29.0834,329.255 25.4167,331.588 21.5,333.5C 24.0595,330.542 27.0595,328.042 30.5,326C 31.4368,325.308 32.1034,325.475 32.5,326.5 Z"/></g>
<g><path style="opacity:0.518" fill="#e1eebd" d="M 51.5,326.5 C 53.7488,327.08 55.4154,328.413 56.5,330.5C 54.2512,329.92 52.5846,328.587 51.5,326.5 Z"/></g>
<g><path style="opacity:1" fill="#a5bd6c" d="M 73.5,321.5 C 75.4113,322.075 77.078,323.075 78.5,324.5C 78.5,325.833 78.5,327.167 78.5,328.5C 78.5,329.167 78.1667,329.5 77.5,329.5C 77.1667,329.5 76.8333,329.5 76.5,329.5C 76.4607,326.465 75.4607,323.798 73.5,321.5 Z"/></g>
<g><path style="opacity:0.341" fill="#dbe9bf" d="M 421.5,324.5 C 420.438,326.099 420.438,327.766 421.5,329.5C 417.648,327.545 417.648,325.878 421.5,324.5 Z"/></g>
<g><path style="opacity:0.984" fill="#afc47c" d="M 425.5,321.5 C 424.124,323.082 423.124,324.915 422.5,327C 423.274,329.154 423.941,331.321 424.5,333.5C 422.738,332.738 421.738,331.404 421.5,329.5C 420.438,327.766 420.438,326.099 421.5,324.5C 422.262,322.738 423.596,321.738 425.5,321.5 Z"/></g>
<g><path style="opacity:0.2" fill="#e8f4bf" d="M 466.5,326.5 C 468.292,325.527 469.625,326.194 470.5,328.5C 468.938,328.267 467.605,327.6 466.5,326.5 Z"/></g>
<g><path style="opacity:0.047" fill="#e2f4d1" d="M 447.5,326.5 C 446.833,327.833 445.833,328.833 444.5,329.5C 444.5,327.5 445.5,326.5 447.5,326.5 Z"/></g>
<g><path style="opacity:0.027" fill="#eff6d0" d="M 3.5,325.5 C 4.16667,327.167 4.83333,328.833 5.5,330.5C 3.6614,329.492 2.32807,327.992 1.5,326C 2.09442,325.536 2.76109,325.369 3.5,325.5 Z"/></g>
<g><path style="opacity:0.031" fill="#e4f6d0" d="M 495.5,325.5 C 496.239,325.369 496.906,325.536 497.5,326C 496.672,327.992 495.339,329.492 493.5,330.5C 494.167,328.833 494.833,327.167 495.5,325.5 Z"/></g>
<g><path style="opacity:0.259" fill="#d5e1b9" d="M 447.5,326.5 C 447.5,326.167 447.5,325.833 447.5,325.5C 449.467,333.097 450.134,341.097 449.5,349.5C 449.167,349.5 448.833,349.5 448.5,349.5C 448.825,341.648 448.492,333.982 447.5,326.5 Z"/></g>
<g><path style="opacity:0.2" fill="#eaf8d8" d="M 470.5,328.5 C 472.404,328.738 473.738,329.738 474.5,331.5C 472.596,331.262 471.262,330.262 470.5,328.5 Z"/></g>
<g><path style="opacity:0.259" fill="#d1e1b9" d="M 51.5,325.5 C 51.5,325.833 51.5,326.167 51.5,326.5C 50.5088,333.313 50.1755,340.313 50.5,347.5C 50.1667,347.5 49.8333,347.5 49.5,347.5C 48.8701,339.757 49.5367,332.424 51.5,325.5 Z"/></g>
<g><path style="opacity:0.384" fill="#e3eece" d="M 56.5,330.5 C 58.0269,330.427 59.0269,331.094 59.5,332.5C 57.9731,332.573 56.9731,331.906 56.5,330.5 Z"/></g>
<g><path style="opacity:0.047" fill="#eef6d5" d="M 76.5,329.5 C 76.8333,329.5 77.1667,329.5 77.5,329.5C 77.2624,331.404 76.2624,332.738 74.5,333.5C 74.7329,331.938 75.3995,330.605 76.5,329.5 Z"/></g>
<g><path style="opacity:0.392" fill="#e3edd0" d="M 474.5,331.5 C 476.027,331.427 477.027,332.094 477.5,333.5C 475.973,333.573 474.973,332.906 474.5,331.5 Z"/></g>
<g><path style="opacity:0.031" fill="#dae8b5" d="M 5.5,330.5 C 7.53112,331.539 8.86446,333.205 9.5,335.5C 7.45703,334.421 6.1237,332.754 5.5,330.5 Z"/></g>
<g><path style="opacity:0.557" fill="#d8e6bc" d="M 59.5,332.5 C 61.0269,332.427 62.0269,333.094 62.5,334.5C 60.9731,334.573 59.9731,333.906 59.5,332.5 Z"/></g>
<g><path style="opacity:0.098" fill="#e1edbf" d="M 444.5,329.5 C 442.178,331.664 439.511,333.331 436.5,334.5C 438.53,331.818 441.197,330.151 444.5,329.5 Z"/></g>
<g><path style="opacity:1" fill="#105f99" d="M 124.5,333.5 C 129.833,333.5 135.167,333.5 140.5,333.5C 140.5,341.5 140.5,349.5 140.5,357.5C 135.167,357.5 129.833,357.5 124.5,357.5C 124.5,349.5 124.5,341.5 124.5,333.5 Z"/></g>
<g><path style="opacity:1" fill="#116099" d="M 358.5,332.5 C 363.833,332.5 369.167,332.5 374.5,332.5C 374.5,340.833 374.5,349.167 374.5,357.5C 369.167,357.5 363.833,357.5 358.5,357.5C 358.5,349.167 358.5,340.833 358.5,332.5 Z"/></g>
<g><path style="opacity:0.569" fill="#d2e2b5" d="M 477.5,333.5 C 479.027,333.427 480.027,334.094 480.5,335.5C 478.973,335.573 477.973,334.906 477.5,333.5 Z"/></g>
<g><path style="opacity:0.016" fill="#e5f2b8" d="M 21.5,333.5 C 21.0269,334.906 20.0269,335.573 18.5,335.5C 18.9731,334.094 19.9731,333.427 21.5,333.5 Z"/></g>
<g><path style="opacity:1" fill="#2372ac" d="M 124.5,333.5 C 129.975,332.511 135.642,332.178 141.5,332.5C 141.5,341.167 141.5,349.833 141.5,358.5C 135.642,358.822 129.975,358.489 124.5,357.5C 129.833,357.5 135.167,357.5 140.5,357.5C 140.5,349.5 140.5,341.5 140.5,333.5C 135.167,333.5 129.833,333.5 124.5,333.5 Z"/></g>
<g><path style="opacity:1" fill="#2c7eb7" d="M 307.5,357.5 C 307.5,349.5 307.5,341.5 307.5,333.5C 302.167,333.5 296.833,333.5 291.5,333.5C 291.5,341.5 291.5,349.5 291.5,357.5C 290.507,349.35 290.174,341.017 290.5,332.5C 296.5,332.5 302.5,332.5 308.5,332.5C 308.826,341.017 308.493,349.35 307.5,357.5 Z"/></g>
<g><path style="opacity:1" fill="#106099" d="M 307.5,357.5 C 302.167,357.5 296.833,357.5 291.5,357.5C 291.5,349.5 291.5,341.5 291.5,333.5C 296.833,333.5 302.167,333.5 307.5,333.5C 307.5,341.5 307.5,349.5 307.5,357.5 Z"/></g>
<g><path style="opacity:0.584" fill="#c4d99b" d="M 62.5,334.5 C 64.0269,334.427 65.0269,335.094 65.5,336.5C 63.9731,336.573 62.9731,335.906 62.5,334.5 Z"/></g>
<g><path style="opacity:0.055" fill="#e5f4cf" d="M 74.5,333.5 C 74.2624,335.404 73.2624,336.738 71.5,337.5C 71.7376,335.596 72.7376,334.262 74.5,333.5 Z"/></g>
<g><path style="opacity:1" fill="#2172ac" d="M 240.5,357.5 C 240.5,349.5 240.5,341.5 240.5,333.5C 235.5,333.5 230.5,333.5 225.5,333.5C 225.5,341.5 225.5,349.5 225.5,357.5C 224.507,349.35 224.174,341.017 224.5,332.5C 230.167,332.5 235.833,332.5 241.5,332.5C 241.826,341.017 241.493,349.35 240.5,357.5 Z"/></g>
<g><path style="opacity:1" fill="#105f99" d="M 240.5,357.5 C 235.5,357.5 230.5,357.5 225.5,357.5C 225.5,349.5 225.5,341.5 225.5,333.5C 230.5,333.5 235.5,333.5 240.5,333.5C 240.5,341.5 240.5,349.5 240.5,357.5 Z"/></g>
<g><path style="opacity:1" fill="#2173ab" d="M 273.5,357.5 C 273.5,349.5 273.5,341.5 273.5,333.5C 268.5,333.5 263.5,333.5 258.5,333.5C 258.5,341.5 258.5,349.5 258.5,357.5C 257.507,349.35 257.174,341.017 257.5,332.5C 263.167,332.5 268.833,332.5 274.5,332.5C 274.826,341.017 274.493,349.35 273.5,357.5 Z"/></g>
<g><path style="opacity:1" fill="#106098" d="M 273.5,357.5 C 268.5,357.5 263.5,357.5 258.5,357.5C 258.5,349.5 258.5,341.5 258.5,333.5C 263.5,333.5 268.5,333.5 273.5,333.5C 273.5,341.5 273.5,349.5 273.5,357.5 Z"/></g>
<g><path style="opacity:0.067" fill="#e2f0c7" d="M 424.5,333.5 C 426.262,334.262 427.262,335.596 427.5,337.5C 425.738,336.738 424.738,335.404 424.5,333.5 Z"/></g>
<g><path style="opacity:0.733" fill="#c4d99e" d="M 480.5,335.5 C 482.027,335.427 483.027,336.094 483.5,337.5C 481.973,337.573 480.973,336.906 480.5,335.5 Z"/></g>
<g><path style="opacity:0.878" fill="#93a84f" d="M 447.5,325.5 C 448.209,324.596 449.209,324.263 450.5,324.5C 450.5,332.5 450.5,340.5 450.5,348.5C 455.595,348.779 460.595,348.445 465.5,347.5C 460.604,349.446 455.271,350.113 449.5,349.5C 450.134,341.097 449.467,333.097 447.5,325.5 Z"/></g>
<g><path style="opacity:0.953" fill="#c4d5a0" d="M 9.5,335.5 C 10.5938,336.582 11.9271,337.248 13.5,337.5C 15.1772,336.813 16.8439,336.146 18.5,335.5C 17.3388,337.672 15.5055,339.006 13,339.5C 10.9264,338.928 9.75978,337.595 9.5,335.5 Z"/></g>
<g><path style="opacity:0.753" fill="#bacd90" d="M 435.5,335.5 C 433.871,337.32 431.871,338.653 429.5,339.5C 428.287,339.253 427.62,338.586 427.5,337.5C 430.167,336.833 432.833,336.167 435.5,335.5 Z"/></g>
<g><path style="opacity:0.098" fill="#d4e6b4" d="M 493.5,330.5 C 491.888,333.538 489.888,336.371 487.5,339C 485.648,339.773 484.314,339.273 483.5,337.5C 487.568,337.438 490.235,335.438 491.5,331.5C 492.167,331.167 492.833,330.833 493.5,330.5 Z"/></g>
<g><path style="opacity:0.545" fill="#c8d6aa" d="M 65.5,336.5 C 67.4352,337.15 69.4352,337.483 71.5,337.5C 69.3011,340.132 67.3011,339.799 65.5,336.5 Z"/></g>
<g><path style="opacity:1" fill="#92a652" d="M 51.5,325.5 C 49.5367,332.424 48.8701,339.757 49.5,347.5C 49.5,348.167 49.5,348.833 49.5,349.5C 43.8333,349.5 38.1667,349.5 32.5,349.5C 32.5,341.833 32.5,334.167 32.5,326.5C 33.4916,333.648 33.825,340.981 33.5,348.5C 38.5,348.5 43.5,348.5 48.5,348.5C 48.5,340.5 48.5,332.5 48.5,324.5C 49.791,324.263 50.791,324.596 51.5,325.5 Z"/></g>
<g><path style="opacity:0.999" fill="#74462d" d="M 34.5,350.5 C 39.1667,350.5 43.8333,350.5 48.5,350.5C 48.8312,378.005 48.4979,405.338 47.5,432.5C 42.6367,432.819 37.97,432.486 33.5,431.5C 34.8326,418.517 35.4992,405.184 35.5,391.5C 35.4915,377.76 35.1582,364.094 34.5,350.5 Z"/></g>
<g><path style="opacity:1" fill="#764a33" d="M 465.5,347.5 C 465.833,347.5 466.167,347.5 466.5,347.5C 466.5,375.5 466.5,403.5 466.5,431.5C 466.5,431.833 466.5,432.167 466.5,432.5C 460.741,432.786 455.075,432.452 449.5,431.5C 449.5,404.167 449.5,376.833 449.5,349.5C 455.271,350.113 460.604,349.446 465.5,347.5 Z"/></g>
<g><path style="opacity:0.118" fill="#f2e7e1" d="M 49.5,347.5 C 49.8333,347.5 50.1667,347.5 50.5,347.5C 50.5,375.5 50.5,403.5 50.5,431.5C 66.5,431.5 82.5,431.5 98.5,431.5C 98.5,431.833 98.5,432.167 98.5,432.5C 82.1667,432.5 65.8333,432.5 49.5,432.5C 49.5,404.833 49.5,377.167 49.5,349.5C 49.5,348.833 49.5,348.167 49.5,347.5 Z"/></g>
<g><path style="opacity:0.118" fill="#f8e8e1" d="M 448.5,349.5 C 448.833,349.5 449.167,349.5 449.5,349.5C 449.5,376.833 449.5,404.167 449.5,431.5C 449.5,431.833 449.5,432.167 449.5,432.5C 433.167,432.5 416.833,432.5 400.5,432.5C 400.5,432.167 400.5,431.833 400.5,431.5C 416.5,431.5 432.5,431.5 448.5,431.5C 448.5,404.167 448.5,376.833 448.5,349.5 Z"/></g>
<g><path style="opacity:1" fill="#3082bb" d="M 191.5,357.5 C 190.507,349.35 190.174,341.017 190.5,332.5C 196.5,332.5 202.5,332.5 208.5,332.5C 208.5,341.167 208.5,349.833 208.5,358.5C 202.642,358.822 196.975,358.489 191.5,357.5 Z"/></g>
<g><path style="opacity:1" fill="#106098" d="M 191.5,357.5 C 191.5,349.5 191.5,341.5 191.5,333.5C 196.833,333.5 202.167,333.5 207.5,333.5C 207.5,341.5 207.5,349.5 207.5,357.5C 202.167,357.5 196.833,357.5 191.5,357.5 Z"/></g>
<g><path style="opacity:0.818" fill="#8b796e" d="M 32.5,349.5 C 38.1667,349.5 43.8333,349.5 49.5,349.5C 49.5,377.167 49.5,404.833 49.5,432.5C 65.8333,432.5 82.1667,432.5 98.5,432.5C 98.8333,432.5 99.1667,432.5 99.5,432.5C 135.5,432.5 171.5,432.5 207.5,432.5C 218.5,432.5 229.5,432.5 240.5,432.5C 246.167,432.5 251.833,432.5 257.5,432.5C 268.833,432.5 280.167,432.5 291.5,432.5C 327.5,432.5 363.5,432.5 399.5,432.5C 399.833,432.5 400.167,432.5 400.5,432.5C 416.833,432.5 433.167,432.5 449.5,432.5C 433.008,433.497 416.342,433.83 399.5,433.5C 281.999,433.833 164.665,433.5 47.5,432.5C 48.4979,405.338 48.8312,378.005 48.5,350.5C 43.8333,350.5 39.1667,350.5 34.5,350.5C 33.5021,377.328 33.1688,404.328 33.5,431.5C 33.1667,431.5 32.8333,431.5 32.5,431.5C 32.5,404.167 32.5,376.833 32.5,349.5 Z"/></g>
<g><path style="opacity:1" fill="#724631" d="M 34.5,350.5 C 35.1582,364.094 35.4915,377.76 35.5,391.5C 35.4992,405.184 34.8326,418.517 33.5,431.5C 33.1688,404.328 33.5021,377.328 34.5,350.5 Z"/></g>
<g><path style="opacity:1" fill="#12609a" d="M 124.5,374.5 C 130.167,374.5 135.833,374.5 141.5,374.5C 141.5,382.833 141.5,391.167 141.5,399.5C 135.833,399.5 130.167,399.5 124.5,399.5C 124.5,391.167 124.5,382.833 124.5,374.5 Z"/></g>
<g><path style="opacity:1" fill="#12609a" d="M 357.5,374.5 C 363.167,374.5 368.833,374.5 374.5,374.5C 374.5,382.833 374.5,391.167 374.5,399.5C 368.833,399.5 363.167,399.5 357.5,399.5C 357.5,391.167 357.5,382.833 357.5,374.5 Z"/></g>
<g><path style="opacity:1" fill="#4798ca" d="M 332.5,431.5 C 318.833,431.5 305.167,431.5 291.5,431.5C 291.5,415.5 291.5,399.5 291.5,383.5C 280.679,382.505 269.679,382.172 258.5,382.5C 259.609,381.71 260.942,381.21 262.5,381C 270.5,380.667 278.5,380.333 286.5,380C 279.167,379.667 271.833,379.333 264.5,379C 273.167,378.333 281.833,378.333 290.5,379C 291.949,380.117 293.616,380.784 295.5,381C 294.953,381.925 294.287,382.758 293.5,383.5C 292.501,399.152 292.167,414.819 292.5,430.5C 306.01,430.171 319.344,430.504 332.5,431.5 Z"/></g>
<g><path style="opacity:1" fill="#6ebbd9" d="M 240.5,382.5 C 240.5,382.833 240.5,383.167 240.5,383.5C 229.833,383.5 219.167,383.5 208.5,383.5C 208.5,397.167 208.5,410.833 208.5,424.5C 208.802,427.059 208.468,429.393 207.5,431.5C 207.5,415.167 207.5,398.833 207.5,382.5C 218.5,382.5 229.5,382.5 240.5,382.5 Z"/></g>
<g><path style="opacity:1" fill="#87ced8" d="M 240.5,383.5 C 240.666,392.506 240.5,401.506 240,410.5C 233.061,413.812 226.227,417.312 219.5,421C 215.812,422.182 212.145,423.348 208.5,424.5C 208.5,410.833 208.5,397.167 208.5,383.5C 219.167,383.5 229.833,383.5 240.5,383.5 Z"/></g>
<g><path style="opacity:1" fill="#86ced8" d="M 290.5,383.5 C 290.5,385.5 290.5,387.5 290.5,389.5C 280.006,394.419 269.34,398.752 258.5,402.5C 258.5,396.167 258.5,389.833 258.5,383.5C 269.167,383.5 279.833,383.5 290.5,383.5 Z"/></g>
<g><path style="opacity:1" fill="#71c3d1" d="M 290.5,383.5 C 290.833,383.5 291.167,383.5 291.5,383.5C 291.5,399.5 291.5,415.5 291.5,431.5C 291.5,431.833 291.5,432.167 291.5,432.5C 280.167,432.5 268.833,432.5 257.5,432.5C 257.5,432.167 257.5,431.833 257.5,431.5C 258.494,422.014 258.827,412.348 258.5,402.5C 269.34,398.752 280.006,394.419 290.5,389.5C 290.5,387.5 290.5,385.5 290.5,383.5 Z"/></g>
<g><path style="opacity:1" fill="#63b4d4" d="M 257.5,382.5 C 257.833,382.5 258.167,382.5 258.5,382.5C 269.679,382.172 280.679,382.505 291.5,383.5C 291.167,383.5 290.833,383.5 290.5,383.5C 279.833,383.5 269.167,383.5 258.5,383.5C 258.5,389.833 258.5,396.167 258.5,402.5C 258.827,412.348 258.494,422.014 257.5,431.5C 257.5,415.167 257.5,398.833 257.5,382.5 Z"/></g>
<g><path style="opacity:1" fill="#4d98c6" d="M 240.5,383.5 C 240.5,383.167 240.5,382.833 240.5,382.5C 242.485,398.132 243.151,414.132 242.5,430.5C 247.167,430.5 251.833,430.5 256.5,430.5C 256.17,414.325 256.504,398.325 257.5,382.5C 257.5,398.833 257.5,415.167 257.5,431.5C 257.5,431.833 257.5,432.167 257.5,432.5C 251.833,432.5 246.167,432.5 240.5,432.5C 241.824,416.069 241.824,399.735 240.5,383.5 Z"/></g>
<g><path style="opacity:1" fill="#72c2d0" d="M 240.5,383.5 C 241.824,399.735 241.824,416.069 240.5,432.5C 229.5,432.5 218.5,432.5 207.5,432.5C 207.5,432.167 207.5,431.833 207.5,431.5C 208.468,429.393 208.802,427.059 208.5,424.5C 212.145,423.348 215.812,422.182 219.5,421C 226.227,417.312 233.061,413.812 240,410.5C 240.5,401.506 240.666,392.506 240.5,383.5 Z"/></g>
<g><path style="opacity:0.549" fill="#dbbcb0" d="M -0.5,431.5 C 10.5,431.5 21.5,431.5 32.5,431.5C 21.8842,433.477 10.8842,434.144 -0.5,433.5C -0.5,432.833 -0.5,432.167 -0.5,431.5 Z"/></g>
<g><path style="opacity:0.551" fill="#dabcb1" d="M 466.5,431.5 C 477.5,431.5 488.5,431.5 499.5,431.5C 499.5,432.167 499.5,432.833 499.5,433.5C 488.321,433.828 477.321,433.495 466.5,432.5C 466.5,432.167 466.5,431.833 466.5,431.5 Z"/></g>
<g><path style="opacity:1" fill="#986449" d="M 32.5,431.5 C 32.8333,431.5 33.1667,431.5 33.5,431.5C 37.97,432.486 42.6367,432.819 47.5,432.5C 164.665,433.5 281.999,433.833 399.5,433.5C 399.5,433.833 399.5,434.167 399.5,434.5C 375.833,434.5 352.167,434.5 328.5,434.5C 273.833,434.5 219.167,434.5 164.5,434.5C 145.5,434.5 126.5,434.5 107.5,434.5C 104.833,434.5 102.167,434.5 99.5,434.5C 81.8302,434.333 64.1635,434.5 46.5,435C 42.5787,435.203 38.7454,435.703 35,436.5C 33.9326,435.809 32.7659,435.309 31.5,435C 20.8385,434.5 10.1719,434.333 -0.5,434.5C -0.5,434.167 -0.5,433.833 -0.5,433.5C 10.8842,434.144 21.8842,433.477 32.5,431.5 Z"/></g>
<g><path style="opacity:1" fill="#a2603d" d="M -0.5,434.5 C 10.1719,434.333 20.8385,434.5 31.5,435C 32.7659,435.309 33.9326,435.809 35,436.5C 38.7454,435.703 42.5787,435.203 46.5,435C 64.1635,434.5 81.8302,434.333 99.5,434.5C 98.653,435.966 97.3197,436.8 95.5,437C 84.8333,437.667 74.1667,437.667 63.5,437C 63.8333,436.667 64.1667,436.333 64.5,436C 60.8333,435.333 57.1667,435.333 53.5,436C 52.2845,438.096 51.4512,437.929 51,435.5C 49.5,436.333 48.3333,437.5 47.5,439C 63.0977,438.82 78.7644,439.32 94.5,440.5C 82.8333,441.167 71.1667,441.833 59.5,442.5C 71.5,443.167 83.5,443.833 95.5,444.5C 96.8114,445.258 97.3114,446.258 97,447.5C 86.3333,447.5 75.6667,447.5 65,447.5C 64.196,446.196 63.0293,445.529 61.5,445.5C 59.6822,446.636 57.6822,447.303 55.5,447.5C 36.1345,447.114 17.4679,446.781 -0.5,446.5C -0.5,442.5 -0.5,438.5 -0.5,434.5 Z"/></g>
<g><path style="opacity:1" fill="#ac6f53" d="M 449.5,431.5 C 455.075,432.452 460.741,432.786 466.5,432.5C 477.321,433.495 488.321,433.828 499.5,433.5C 499.5,439.167 499.5,444.833 499.5,450.5C 332.833,450.5 166.167,450.5 -0.5,450.5C -0.5,449.167 -0.5,447.833 -0.5,446.5C 17.4679,446.781 36.1345,447.114 55.5,447.5C 57.6822,447.303 59.6822,446.636 61.5,445.5C 63.0293,445.529 64.196,446.196 65,447.5C 75.6667,447.5 86.3333,447.5 97,447.5C 97.3114,446.258 96.8114,445.258 95.5,444.5C 83.5,443.833 71.5,443.167 59.5,442.5C 71.1667,441.833 82.8333,441.167 94.5,440.5C 78.7644,439.32 63.0977,438.82 47.5,439C 48.3333,437.5 49.5,436.333 51,435.5C 51.4512,437.929 52.2845,438.096 53.5,436C 57.1667,435.333 60.8333,435.333 64.5,436C 64.1667,436.333 63.8333,436.667 63.5,437C 74.1667,437.667 84.8333,437.667 95.5,437C 97.3197,436.8 98.653,435.966 99.5,434.5C 102.167,434.5 104.833,434.5 107.5,434.5C 106.345,436.825 104.345,437.992 101.5,438C 100.624,440.376 98.9575,441.876 96.5,442.5C 99.4459,443.655 102.446,443.821 105.5,443C 106.611,440.376 108.611,438.876 111.5,438.5C 127.5,437.167 143.5,437.167 159.5,438.5C 160.641,439.425 160.641,440.259 159.5,441C 143.156,441.167 126.823,441.667 110.5,442.5C 110.709,443.086 111.043,443.586 111.5,444C 168.684,443.534 221.517,443.034 270,442.5C 271.487,443.253 271.654,444.086 270.5,445C 262.264,445.931 254.097,446.097 246,445.5C 243.5,445.667 241,445.833 238.5,446C 238.833,446.333 239.167,446.667 239.5,447C 253.111,447.986 266.611,447.486 280,445.5C 284.982,446.849 290.149,447.516 295.5,447.5C 298.167,447.167 300.833,446.833 303.5,446.5C 298.208,445.505 292.875,445.172 287.5,445.5C 287.5,444.5 287.5,443.5 287.5,442.5C 318.896,444.528 350.896,445.028 383.5,444C 404.464,442.289 425.464,441.122 446.5,440.5C 433.479,439.854 420.479,439.02 407.5,438C 406.167,437 406.167,436 407.5,435C 404.854,434.503 402.187,434.336 399.5,434.5C 399.5,434.167 399.5,433.833 399.5,433.5C 416.342,433.83 433.008,433.497 449.5,432.5C 449.5,432.167 449.5,431.833 449.5,431.5 Z"/></g>
<g><path style="opacity:1" fill="#a2603c" d="M 107.5,434.5 C 126.5,434.5 145.5,434.5 164.5,434.5C 168.647,435.325 172.981,435.825 177.5,436C 175.845,437.444 175.178,439.278 175.5,441.5C 199.709,442.011 223.876,441.345 248,439.5C 258.034,439.102 268.034,439.768 278,441.5C 281.5,441.333 285,441.167 288.5,441C 287.304,440.346 287.304,439.846 288.5,439.5C 289.216,440.311 290.05,440.978 291,441.5C 292.796,441.087 294.463,441.087 296,441.5C 296.333,440.833 296.667,440.167 297,439.5C 311.453,440.718 326.953,441.385 343.5,441.5C 356.833,441.333 370.167,441.167 383.5,441C 384.641,440.259 384.641,439.425 383.5,438.5C 366.269,437.827 349.103,437.16 332,436.5C 327.55,437.8 323.05,437.8 318.5,436.5C 321.977,435.833 325.311,435.166 328.5,434.5C 352.167,434.5 375.833,434.5 399.5,434.5C 402.187,434.336 404.854,434.503 407.5,435C 406.167,436 406.167,437 407.5,438C 420.479,439.02 433.479,439.854 446.5,440.5C 425.464,441.122 404.464,442.289 383.5,444C 350.896,445.028 318.896,444.528 287.5,442.5C 287.5,443.5 287.5,444.5 287.5,445.5C 292.875,445.172 298.208,445.505 303.5,446.5C 300.833,446.833 298.167,447.167 295.5,447.5C 290.149,447.516 284.982,446.849 280,445.5C 266.611,447.486 253.111,447.986 239.5,447C 239.167,446.667 238.833,446.333 238.5,446C 241,445.833 243.5,445.667 246,445.5C 254.097,446.097 262.264,445.931 270.5,445C 271.654,444.086 271.487,443.253 270,442.5C 221.517,443.034 168.684,443.534 111.5,444C 111.043,443.586 110.709,443.086 110.5,442.5C 126.823,441.667 143.156,441.167 159.5,441C 160.641,440.259 160.641,439.425 159.5,438.5C 143.5,437.167 127.5,437.167 111.5,438.5C 108.611,438.876 106.611,440.376 105.5,443C 102.446,443.821 99.4459,443.655 96.5,442.5C 98.9575,441.876 100.624,440.376 101.5,438C 104.345,437.992 106.345,436.825 107.5,434.5 Z"/></g>
<g><path style="opacity:1" fill="#a35f3f" d="M 164.5,434.5 C 219.167,434.5 273.833,434.5 328.5,434.5C 325.311,435.166 321.977,435.833 318.5,436.5C 323.05,437.8 327.55,437.8 332,436.5C 349.103,437.16 366.269,437.827 383.5,438.5C 384.641,439.425 384.641,440.259 383.5,441C 370.167,441.167 356.833,441.333 343.5,441.5C 326.953,441.385 311.453,440.718 297,439.5C 296.667,440.167 296.333,440.833 296,441.5C 294.463,441.087 292.796,441.087 291,441.5C 290.05,440.978 289.216,440.311 288.5,439.5C 287.304,439.846 287.304,440.346 288.5,441C 285,441.167 281.5,441.333 278,441.5C 268.034,439.768 258.034,439.102 248,439.5C 223.876,441.345 199.709,442.011 175.5,441.5C 175.178,439.278 175.845,437.444 177.5,436C 172.981,435.825 168.647,435.325 164.5,434.5 Z"/></g>
</svg>
