<?xml version="1.0" encoding="UTF-8"?>
<!DOCTYPE svg PUBLIC "-//W3C//DTD SVG 1.1//EN" "http://www.w3.org/Graphics/SVG/1.1/DTD/svg11.dtd">
<svg xmlns="http://www.w3.org/2000/svg" version="1.1" width="500px" height="500px" style="shape-rendering:geometricPrecision; text-rendering:geometricPrecision; image-rendering:optimizeQuality; fill-rule:evenodd; clip-rule:evenodd" xmlns:xlink="http://www.w3.org/1999/xlink">
<g><path style="opacity:0.994" fill="#090909" d="M 241.5,-0.5 C 242.833,-0.5 244.167,-0.5 245.5,-0.5C 251.565,6.53929 259.231,11.0393 268.5,13C 292.252,11.9683 312.086,20.135 328,37.5C 336.709,51.0855 345.542,64.5855 354.5,78C 352.3,81.3713 350.3,84.8713 348.5,88.5C 339.19,89.4983 329.857,89.8316 320.5,89.5C 319.876,89.9169 319.543,90.5836 319.5,91.5C 320.213,95.0434 321.213,98.3767 322.5,101.5C 323.377,105.322 324.044,109.322 324.5,113.5C 323.732,116.154 323.566,118.821 324,121.5C 329.403,117.914 334.903,114.581 340.5,111.5C 343.198,111.155 345.198,109.822 346.5,107.5C 346.842,106.662 347.508,106.328 348.5,106.5C 351.198,106.155 353.198,104.822 354.5,102.5C 354.842,101.662 355.508,101.328 356.5,101.5C 358.027,101.573 359.027,100.906 359.5,99.5C 360.899,98.1103 362.566,97.1103 364.5,96.5C 366.027,96.573 367.027,95.9063 367.5,94.5C 369.794,92.347 372.46,90.6803 375.5,89.5C 377.027,89.573 378.027,88.9063 378.5,87.5C 378.842,86.6618 379.508,86.3284 380.5,86.5C 382.027,86.573 383.027,85.9063 383.5,84.5C 389.353,80.9832 395.187,77.3165 401,73.5C 409.697,58.6625 418.53,43.9959 427.5,29.5C 428.906,29.0269 429.573,28.0269 429.5,26.5C 430.079,23.6689 431.412,21.3356 433.5,19.5C 436.949,17.0886 438.949,13.7553 439.5,9.5C 442.521,6.79385 444.521,3.46052 445.5,-0.5C 451.167,-0.5 456.833,-0.5 462.5,-0.5C 454.316,12.5344 446.649,25.8677 439.5,39.5C 429.857,54.1025 420.69,69.1025 412,84.5C 408.004,86.2368 404.504,88.5701 401.5,91.5C 375.632,106.382 350.299,122.048 325.5,138.5C 322.146,139.261 319.313,140.928 317,143.5C 311.797,155.895 306.631,168.228 301.5,180.5C 299.9,182.414 298.566,184.581 297.5,187C 297.833,187.5 298.167,188 298.5,188.5C 299.901,187.479 301.235,186.479 302.5,185.5C 314.937,177.103 327.27,168.437 339.5,159.5C 347.387,155.274 354.72,150.274 361.5,144.5C 364.381,143.726 367.048,142.393 369.5,140.5C 372.466,141.802 374.799,143.802 376.5,146.5C 377.6,147.605 378.267,148.938 378.5,150.5C 378.167,151.167 377.833,151.833 377.5,152.5C 376.564,153.974 375.23,154.974 373.5,155.5C 371.973,155.427 370.973,156.094 370.5,157.5C 370.5,158.167 370.167,158.5 369.5,158.5C 367.973,158.427 366.973,159.094 366.5,160.5C 364.973,160.427 363.973,161.094 363.5,162.5C 361.973,162.427 360.973,163.094 360.5,164.5C 349.842,171.497 339.175,178.497 328.5,185.5C 326.5,185.5 325.5,186.5 325.5,188.5C 309.505,199.832 293.172,210.665 276.5,221C 268,230.833 259.5,240.667 251,250.5C 247.139,257.562 243.305,264.562 239.5,271.5C 235.804,277.248 233.47,283.581 232.5,290.5C 231.014,297.433 229.847,304.433 229,311.5C 228.832,342.336 228.332,373.003 227.5,403.5C 222.405,403.779 217.405,403.445 212.5,402.5C 207.51,378.192 202.01,353.859 196,329.5C 192.709,337.03 190.209,344.696 188.5,352.5C 186.986,358.595 186.32,364.928 186.5,371.5C 186.294,377.749 186.96,383.749 188.5,389.5C 188.294,392.495 188.96,395.162 190.5,397.5C 193.431,405.278 196.765,412.944 200.5,420.5C 200.427,422.027 201.094,423.027 202.5,423.5C 202.427,425.027 203.094,426.027 204.5,426.5C 204.427,428.027 205.094,429.027 206.5,429.5C 229.72,456.741 258.553,465.741 293,456.5C 296.429,440.516 295.262,424.85 289.5,409.5C 286.041,408.135 282.708,408.469 279.5,410.5C 278.791,411.404 277.791,411.737 276.5,411.5C 273.911,411.461 271.911,412.461 270.5,414.5C 260.782,419.705 252.115,426.371 244.5,434.5C 239.119,416.363 240.952,399.03 250,382.5C 250.708,381.619 251.542,380.953 252.5,380.5C 254.5,379.167 256.167,377.5 257.5,375.5C 266.288,366.896 276.954,362.562 289.5,362.5C 293.064,363.047 296.564,363.714 300,364.5C 300.406,361.258 301.239,358.258 302.5,355.5C 304.397,353.302 305.397,350.636 305.5,347.5C 307.008,345.819 308.008,343.819 308.5,341.5C 310.326,339.853 311.66,337.853 312.5,335.5C 313.833,334.833 314.833,333.833 315.5,332.5C 322.321,324.419 330.988,319.419 341.5,317.5C 353.066,315.867 364.399,316.867 375.5,320.5C 383.854,323.204 391.187,327.538 397.5,333.5C 402.416,339.022 407.083,344.689 411.5,350.5C 412.892,352.273 414.059,354.273 415,356.5C 425.665,399.148 411.831,430.815 373.5,451.5C 371.847,451.66 370.514,452.326 369.5,453.5C 365.576,455.865 361.243,457.365 356.5,458C 348.197,459.018 339.864,459.685 331.5,460C 319.621,466.792 306.955,471.292 293.5,473.5C 290.626,473.451 287.792,473.784 285,474.5C 283.624,474.684 282.791,475.351 282.5,476.5C 281.205,477.488 279.872,478.488 278.5,479.5C 276.821,479.285 275.821,479.952 275.5,481.5C 273.821,481.285 272.821,481.952 272.5,483.5C 260.462,491.179 247.462,496.513 233.5,499.5C 222.5,499.5 211.5,499.5 200.5,499.5C 195.628,498.447 190.961,496.781 186.5,494.5C 182.818,491.992 178.818,489.992 174.5,488.5C 174.027,487.094 173.027,486.427 171.5,486.5C 171.027,485.094 170.027,484.427 168.5,484.5C 158.667,477.672 151,469.005 145.5,458.5C 145.573,456.973 144.906,455.973 143.5,455.5C 142.012,450.533 140.012,445.866 137.5,441.5C 136.596,440.791 136.263,439.791 136.5,438.5C 136.435,435.572 135.768,432.905 134.5,430.5C 134.66,428.801 134.494,427.134 134,425.5C 133.283,426.044 132.783,426.711 132.5,427.5C 129.125,436.459 125.458,445.292 121.5,454C 105.988,461.589 90.655,469.422 75.5,477.5C 72.6689,478.079 70.3356,479.412 68.5,481.5C 68.1583,482.338 67.4916,482.672 66.5,482.5C 64.326,482.75 62.6594,483.75 61.5,485.5C 53.5,490.167 45.5,494.833 37.5,499.5C 26.5,499.5 15.5,499.5 4.5,499.5C 11.4779,495.536 18.4779,491.536 25.5,487.5C 30.8266,485.841 35.4933,483.174 39.5,479.5C 63.558,467.637 87.2247,454.97 110.5,441.5C 120.548,418.083 130.548,394.75 140.5,371.5C 144.242,364.939 147.242,357.939 149.5,350.5C 149.733,348.938 150.4,347.605 151.5,346.5C 156.489,341.197 160.489,335.197 163.5,328.5C 165.748,325.672 167.748,322.672 169.5,319.5C 173.331,314.511 176.664,309.178 179.5,303.5C 182.326,300.516 184.659,297.183 186.5,293.5C 187.634,291.034 187.801,288.367 187,285.5C 186.333,282.167 185.667,278.833 185,275.5C 184.612,274.572 183.945,273.905 183,273.5C 178.532,277.131 175.032,281.464 172.5,286.5C 171.833,286.5 171.5,286.833 171.5,287.5C 166.35,293.093 161.183,298.76 156,304.5C 154.25,306.734 152.75,309.068 151.5,311.5C 140.198,324.308 129.032,337.308 118,350.5C 113.535,360.067 109.369,369.734 105.5,379.5C 99.8776,391.167 94.711,403.167 90,415.5C 88.2927,417.037 86.7927,418.704 85.5,420.5C 79.9586,423.436 74.9586,427.103 70.5,431.5C 53.3129,443.926 36.3129,456.592 19.5,469.5C 12.5748,473.752 5.90818,478.419 -0.5,483.5C -0.5,477.167 -0.5,470.833 -0.5,464.5C -0.166667,464.5 0.166667,464.5 0.5,464.5C 2.02694,464.573 3.02694,463.906 3.5,462.5C 3.5,461.833 3.83333,461.5 4.5,461.5C 6.02694,461.573 7.02694,460.906 7.5,459.5C 18.9501,450.601 30.6168,441.935 42.5,433.5C 44.4044,433.262 45.7377,432.262 46.5,430.5C 48.4044,430.262 49.7377,429.262 50.5,427.5C 52.4044,427.262 53.7377,426.262 54.5,424.5C 57.5331,422.984 60.1997,420.984 62.5,418.5C 64.0269,418.573 65.0269,417.906 65.5,416.5C 69.3549,413.64 73.1882,410.64 77,407.5C 78.597,404.209 80.097,400.875 81.5,397.5C 71.273,396.822 61.1063,396.156 51,395.5C 50.3333,387.167 50.3333,378.833 51,370.5C 51.1829,367.635 51.6829,364.969 52.5,362.5C 54.1628,360.562 54.8294,358.228 54.5,355.5C 54.9925,353.181 55.9925,351.181 57.5,349.5C 61.6702,343.817 66.5035,338.483 72,333.5C 72.6917,332.563 72.525,331.897 71.5,331.5C 70.5084,331.672 69.8417,331.338 69.5,330.5C 69.0269,329.094 68.0269,328.427 66.5,328.5C 66.0269,327.094 65.0269,326.427 63.5,326.5C 62.7377,324.738 61.4044,323.738 59.5,323.5C 55.0887,318.761 50.7554,314.094 46.5,309.5C 46.7148,307.821 46.0481,306.821 44.5,306.5C 41.586,300.554 39.4193,294.22 38,287.5C 36.679,274.872 36.179,262.205 36.5,249.5C 49.8375,249.333 63.1708,249.5 76.5,250C 83.8251,251.502 90.4917,254.335 96.5,258.5C 97.0347,260.446 98.368,261.446 100.5,261.5C 103.785,265.452 107.452,269.119 111.5,272.5C 111.738,274.404 112.738,275.738 114.5,276.5C 114.427,278.027 115.094,279.027 116.5,279.5C 120.226,284.141 122.726,289.474 124,295.5C 124.556,302.843 125.223,310.177 126,317.5C 126.708,316.619 127.542,315.953 128.5,315.5C 130.262,314.738 131.262,313.404 131.5,311.5C 137.247,306.09 142.247,300.09 146.5,293.5C 153.487,284.515 160.821,275.848 168.5,267.5C 169.906,267.027 170.573,266.027 170.5,264.5C 170.833,263.5 171.5,262.833 172.5,262.5C 175.115,260.621 177.281,258.288 179,255.5C 179.805,252.304 179.638,249.304 178.5,246.5C 174.361,223.774 174.694,201.108 179.5,178.5C 180.913,175.781 181.58,172.781 181.5,169.5C 185.576,147.692 194.243,128.025 207.5,110.5C 208.906,110.027 209.573,109.027 209.5,107.5C 209.5,106.833 209.833,106.5 210.5,106.5C 211.906,106.027 212.573,105.027 212.5,103.5C 212.5,102.833 212.833,102.5 213.5,102.5C 215.587,101.415 216.92,99.7488 217.5,97.5C 217.5,96.8333 217.833,96.5 218.5,96.5C 222.167,93.5 225.5,90.1667 228.5,86.5C 230.749,85.9202 232.415,84.5869 233.5,82.5C 235.55,80.4525 237.883,78.7859 240.5,77.5C 241.828,72.5442 242.495,67.2109 242.5,61.5C 242.499,55.9892 242.166,50.6559 241.5,45.5C 235.252,44.4402 229.252,42.7735 223.5,40.5C 221.819,38.9925 219.819,37.9925 217.5,37.5C 217.027,36.0937 216.027,35.427 214.5,35.5C 213.738,33.7376 212.404,32.7376 210.5,32.5C 205.728,29.0644 202.061,24.7311 199.5,19.5C 202.886,15.7936 206.886,12.7936 211.5,10.5C 220.224,22.4132 231.891,28.9132 246.5,30C 248.167,28.3333 249.833,26.6667 251.5,25C 244.733,21.0613 238.733,16.228 233.5,10.5C 235.147,7.52653 237.147,4.85986 239.5,2.5C 240.167,1.5 240.833,0.5 241.5,-0.5 Z M 349.5,363.5 C 353.86,367.194 357.86,371.194 361.5,375.5C 374.637,396.304 374.804,417.304 362,438.5C 359.583,440.128 357.083,441.461 354.5,442.5C 350.139,443.423 345.806,443.423 341.5,442.5C 342.246,441.264 342.579,439.93 342.5,438.5C 349.495,413.816 343.495,392.816 324.5,375.5C 324.167,374.833 323.833,374.167 323.5,373.5C 323.833,373.5 324.167,373.5 324.5,373.5C 326.027,373.573 327.027,372.906 327.5,371.5C 334.9,368.79 342.233,366.124 349.5,363.5 Z"/></g>
<g><path style="opacity:0.992" fill="#0f0b0b" d="M 492.5,-0.5 C 494.833,-0.5 497.167,-0.5 499.5,-0.5C 499.5,5.83333 499.5,12.1667 499.5,18.5C 498.167,20.5 496.833,22.5 495.5,24.5C 493.75,25.6594 492.75,27.326 492.5,29.5C 489.421,32.6505 487.087,36.3171 485.5,40.5C 472.748,62.3404 459.748,84.0071 446.5,105.5C 443.858,109.775 440.525,113.442 436.5,116.5C 423.543,124.434 410.543,132.434 397.5,140.5C 394.763,140.599 392.096,140.265 389.5,139.5C 389.107,136.215 387.774,133.382 385.5,131C 398.001,121.533 411.334,113.199 425.5,106C 428.295,104.207 430.795,102.04 433,99.5C 453.074,66.2709 472.907,32.9376 492.5,-0.5 Z"/></g>
<g><path style="opacity:0.345" fill="#828282" d="M 239.5,2.5 C 237.147,4.85986 235.147,7.52653 233.5,10.5C 233.254,6.6721 235.254,4.00543 239.5,2.5 Z"/></g>
<g><path style="opacity:0.282" fill="#747474" d="M 444.5,-0.5 C 444.833,-0.5 445.167,-0.5 445.5,-0.5C 444.521,3.46052 442.521,6.79385 439.5,9.5C 441.167,6.16667 442.833,2.83333 444.5,-0.5 Z"/></g>
<g><path style="opacity:0.898" fill="#5e5b5d" d="M 439.5,9.5 C 438.949,13.7553 436.949,17.0886 433.5,19.5C 435,15.827 437,12.4937 439.5,9.5 Z"/></g>
<g><path style="opacity:0.063" fill="#c2c2c2" d="M 495.5,24.5 C 495.25,26.674 494.25,28.3406 492.5,29.5C 492.75,27.326 493.75,25.6594 495.5,24.5 Z"/></g>
<g><path style="opacity:0.18" fill="#9e9e9e" d="M 429.5,26.5 C 429.573,28.0269 428.906,29.0269 427.5,29.5C 427.427,27.9731 428.094,26.9731 429.5,26.5 Z"/></g>
<g><path style="opacity:1" fill="#2e8842" d="M 287.5,30.5 C 282.138,30.4724 276.805,30.8058 271.5,31.5C 271.611,30.8826 271.944,30.3826 272.5,30C 277.684,29.1837 282.684,29.3503 287.5,30.5 Z"/></g>
<g><path style="opacity:1" fill="#54df72" d="M 287.5,30.5 C 290.152,30.4095 292.485,31.0762 294.5,32.5C 300.082,36.0705 305.416,40.0705 310.5,44.5C 310.931,45.2935 311.265,46.1268 311.5,47C 310.511,50.4468 309.844,53.9468 309.5,57.5C 308.5,57.5 307.5,57.5 306.5,57.5C 306.442,60.6644 305.776,63.6644 304.5,66.5C 303.5,66.5 302.5,66.5 301.5,66.5C 301.723,68.3417 302.057,70.175 302.5,72C 301.14,74.2702 300.473,76.7702 300.5,79.5C 300.41,82.1522 301.076,84.4855 302.5,86.5C 303.024,93.2751 304.524,99.9417 307,106.5C 307.72,113.536 307.553,120.536 306.5,127.5C 306.225,129.842 305.392,129.842 304,127.5C 299.227,120.278 294.727,112.945 290.5,105.5C 290.5,103.833 290.5,102.167 290.5,100.5C 289.5,100.5 288.5,100.5 287.5,100.5C 286.752,98.4159 286.752,96.4159 287.5,94.5C 286.311,93.5713 284.978,93.238 283.5,93.5C 282.836,90.9854 281.503,88.8187 279.5,87C 275.642,86.1901 271.976,86.3567 268.5,87.5C 267.167,87.5 265.833,87.5 264.5,87.5C 266.091,86.7811 267.591,85.7811 269,84.5C 269.167,68.8227 269.667,53.156 270.5,37.5C 272.316,36.1851 273.983,34.6851 275.5,33C 271.624,32.4254 267.958,32.9254 264.5,34.5C 266.176,32.1663 268.509,31.1663 271.5,31.5C 276.805,30.8058 282.138,30.4724 287.5,30.5 Z"/></g>
<g><path style="opacity:0.2" fill="#bfbfbf" d="M 210.5,32.5 C 212.404,32.7376 213.738,33.7376 214.5,35.5C 212.596,35.2624 211.262,34.2624 210.5,32.5 Z"/></g>
<g><path style="opacity:0.106" fill="#c0c0c0" d="M 214.5,35.5 C 216.027,35.427 217.027,36.0937 217.5,37.5C 215.973,37.573 214.973,36.9063 214.5,35.5 Z"/></g>
<g><path style="opacity:0.067" fill="#c0bfbf" d="M 492.5,29.5 C 490.913,33.6829 488.579,37.3495 485.5,40.5C 487.087,36.3171 489.421,32.6505 492.5,29.5 Z"/></g>
<g><path style="opacity:0.031" fill="#c7c7c7" d="M 217.5,37.5 C 219.819,37.9925 221.819,38.9925 223.5,40.5C 220.911,40.539 218.911,39.539 217.5,37.5 Z"/></g>
<g><path style="opacity:1" fill="#55c06e" d="M 294.5,32.5 C 301.501,35.092 307.668,39.092 313,44.5C 313.167,45.3333 313.333,46.1667 313.5,47C 312.079,50.4902 311.079,54.1568 310.5,58C 307.091,65.1447 303.758,72.3114 300.5,79.5C 300.473,76.7702 301.14,74.2702 302.5,72C 302.057,70.175 301.723,68.3417 301.5,66.5C 302.5,66.5 303.5,66.5 304.5,66.5C 305.776,63.6644 306.442,60.6644 306.5,57.5C 307.5,57.5 308.5,57.5 309.5,57.5C 309.844,53.9468 310.511,50.4468 311.5,47C 311.265,46.1268 310.931,45.2935 310.5,44.5C 305.416,40.0705 300.082,36.0705 294.5,32.5 Z"/></g>
<g><path style="opacity:1" fill="#001d00" d="M 259.5,37.5 C 259.167,38.5 258.5,39.1667 257.5,39.5C 256.833,54.1667 256.167,68.8333 255.5,83.5C 255.333,68.4963 255.5,53.4963 256,38.5C 257.011,37.6634 258.178,37.33 259.5,37.5 Z"/></g>
<g><path style="opacity:1" fill="#097528" d="M 257.5,39.5 C 258.15,54.8706 257.484,69.8706 255.5,84.5C 255.5,84.1667 255.5,83.8333 255.5,83.5C 256.167,68.8333 256.833,54.1667 257.5,39.5 Z"/></g>
<g><path style="opacity:1" fill="#010501" d="M 293.5,52.5 C 293.5,56.8333 293.5,61.1667 293.5,65.5C 288.833,65.5 284.167,65.5 279.5,65.5C 279.5,61.1667 279.5,56.8333 279.5,52.5C 284.167,52.5 288.833,52.5 293.5,52.5 Z"/></g>
<g><path style="opacity:1" fill="#175a25" d="M 293.5,52.5 C 288.833,52.5 284.167,52.5 279.5,52.5C 279.5,56.8333 279.5,61.1667 279.5,65.5C 284.167,65.5 288.833,65.5 293.5,65.5C 288.695,66.4872 283.695,66.8205 278.5,66.5C 278.5,61.5 278.5,56.5 278.5,51.5C 283.695,51.1795 288.695,51.5128 293.5,52.5 Z"/></g>
<g><path style="opacity:0.115" fill="#3b3b3c" d="M 241.5,45.5 C 242.166,50.6559 242.499,55.9892 242.5,61.5C 242.495,67.2109 241.828,72.5442 240.5,77.5C 241.476,66.915 241.809,56.2483 241.5,45.5 Z"/></g>
<g><path style="opacity:1" fill="#efd20d" d="M 327.5,65.5 C 329.192,67.2048 330.525,69.2048 331.5,71.5C 330.666,72.7479 329.333,73.4146 327.5,73.5C 326.167,73.1667 324.833,72.8333 323.5,72.5C 323.782,70.0134 323.782,67.3467 323.5,64.5C 324.959,64.4326 326.292,64.7659 327.5,65.5 Z"/></g>
<g><path style="opacity:1" fill="#a24e26" d="M 439.5,39.5 C 438.302,43.5723 436.802,47.5723 435,51.5C 430.261,55.6715 428.095,61.0048 428.5,67.5C 427.167,67.5 425.833,67.5 424.5,67.5C 426.361,69.7454 427.361,72.4121 427.5,75.5C 426.178,75.33 425.011,75.6634 424,76.5C 423.506,74.8659 423.34,73.1992 423.5,71.5C 422.5,71.5 421.5,71.5 420.5,71.5C 418.327,77.2634 415.327,82.5967 411.5,87.5C 409.089,88.088 407.089,89.2546 405.5,91C 404.207,91.49 402.873,91.6567 401.5,91.5C 404.504,88.5701 408.004,86.2368 412,84.5C 420.69,69.1025 429.857,54.1025 439.5,39.5 Z"/></g>
<g><path style="opacity:1" fill="#d2be26" d="M 327.5,65.5 C 326.292,64.7659 324.959,64.4326 323.5,64.5C 323.782,67.3467 323.782,70.0134 323.5,72.5C 324.833,72.8333 326.167,73.1667 327.5,73.5C 329.333,73.4146 330.666,72.7479 331.5,71.5C 332.401,72.2905 333.068,73.2905 333.5,74.5C 328.381,75.1031 323.715,74.4364 319.5,72.5C 320.62,68.2618 322.287,64.2618 324.5,60.5C 325.952,61.9397 326.952,63.6064 327.5,65.5 Z"/></g>
<g><path style="opacity:1" fill="#b75422" d="M 462.5,-0.5 C 472.5,-0.5 482.5,-0.5 492.5,-0.5C 472.907,32.9376 453.074,66.2709 433,99.5C 430.795,102.04 428.295,104.207 425.5,106C 411.334,113.199 398.001,121.533 385.5,131C 387.774,133.382 389.107,136.215 389.5,139.5C 388.167,138.167 386.833,138.167 385.5,139.5C 382.512,139.439 379.679,140.105 377,141.5C 371.969,138.914 366.969,138.914 362,141.5C 361.517,142.448 361.351,143.448 361.5,144.5C 354.72,150.274 347.387,155.274 339.5,159.5C 336.309,160.72 332.975,161.553 329.5,162C 329.833,162.333 330.167,162.667 330.5,163C 328.321,163.442 327.655,164.442 328.5,166C 323.617,169.083 318.117,172.249 312,175.5C 310.079,174.81 308.245,174.476 306.5,174.5C 308.229,172.149 308.896,169.482 308.5,166.5C 310.331,167.052 311.997,167.052 313.5,166.5C 312.339,164.776 312.505,163.11 314,161.5C 314.914,162.654 315.747,162.487 316.5,161C 315.892,159.769 315.559,158.436 315.5,157C 316.516,152.466 317.682,147.966 319,143.5C 321.641,142.268 323.807,140.602 325.5,138.5C 350.299,122.048 375.632,106.382 401.5,91.5C 402.873,91.6567 404.207,91.49 405.5,91C 407.089,89.2546 409.089,88.088 411.5,87.5C 415.327,82.5967 418.327,77.2634 420.5,71.5C 421.5,71.5 422.5,71.5 423.5,71.5C 423.34,73.1992 423.506,74.8659 424,76.5C 425.011,75.6634 426.178,75.33 427.5,75.5C 427.361,72.4121 426.361,69.7454 424.5,67.5C 425.833,67.5 427.167,67.5 428.5,67.5C 428.095,61.0048 430.261,55.6715 435,51.5C 436.802,47.5723 438.302,43.5723 439.5,39.5C 446.649,25.8677 454.316,12.5344 462.5,-0.5 Z"/></g>
<g><path style="opacity:1" fill="#453703" d="M 319.5,72.5 C 323.715,74.4364 328.381,75.1031 333.5,74.5C 328.695,75.4872 323.695,75.8205 318.5,75.5C 318.263,74.209 318.596,73.209 319.5,72.5 Z"/></g>
<g><path style="opacity:1" fill="#06d13e" d="M 264.5,87.5 C 263.833,87.5 263.5,87.8333 263.5,88.5C 262.596,89.209 262.263,90.209 262.5,91.5C 259.286,92.4404 256.286,93.9404 253.5,96C 238.624,108.21 227.124,123.044 219,140.5C 214.915,149.806 211.582,159.473 209,169.5C 208.667,169.833 208.333,170.167 208,170.5C 206.933,168.308 205.433,166.642 203.5,165.5C 202.326,164.486 201.66,163.153 201.5,161.5C 201.425,157.019 202.092,152.686 203.5,148.5C 204.042,145.088 205.375,142.088 207.5,139.5C 209.074,139.063 210.241,138.063 211,136.5C 213.516,131.99 216.016,127.49 218.5,123C 219.098,121.699 220.098,120.865 221.5,120.5C 222.429,119.311 222.762,117.978 222.5,116.5C 223.925,115.078 224.925,113.411 225.5,111.5C 230.5,107.167 235.167,102.5 239.5,97.5C 239.414,96.5041 239.748,95.6708 240.5,95C 245.398,91.2549 250.398,87.7549 255.5,84.5C 257.484,69.8706 258.15,54.8706 257.5,39.5C 258.5,39.1667 259.167,38.5 259.5,37.5C 260.922,36.075 262.589,35.075 264.5,34.5C 267.958,32.9254 271.624,32.4254 275.5,33C 273.983,34.6851 272.316,36.1851 270.5,37.5C 269.667,53.156 269.167,68.8227 269,84.5C 267.591,85.7811 266.091,86.7811 264.5,87.5 Z"/></g>
<g><path style="opacity:0.424" fill="#8b8b8b" d="M 233.5,82.5 C 232.415,84.5869 230.749,85.9202 228.5,86.5C 229.585,84.4131 231.251,83.0798 233.5,82.5 Z"/></g>
<g><path style="opacity:0.18" fill="#bdbdbd" d="M 383.5,84.5 C 383.027,85.9063 382.027,86.573 380.5,86.5C 380.973,85.0937 381.973,84.427 383.5,84.5 Z"/></g>
<g><path style="opacity:0.173" fill="#bdbdbd" d="M 378.5,87.5 C 378.027,88.9063 377.027,89.573 375.5,89.5C 375.973,88.0937 376.973,87.427 378.5,87.5 Z"/></g>
<g><path style="opacity:0.165" fill="#a2a2a2" d="M 320.5,89.5 C 321.486,93.4432 322.152,97.4432 322.5,101.5C 321.213,98.3767 320.213,95.0434 319.5,91.5C 319.543,90.5836 319.876,89.9169 320.5,89.5 Z"/></g>
<g><path style="opacity:0.184" fill="#b0b0b0" d="M 228.5,86.5 C 225.5,90.1667 222.167,93.5 218.5,96.5C 220.833,92.1667 224.167,88.8333 228.5,86.5 Z"/></g>
<g><path style="opacity:1" fill="#58ca73" d="M 268.5,87.5 C 271.976,86.3567 275.642,86.1901 279.5,87C 281.503,88.8187 282.836,90.9854 283.5,93.5C 284.978,93.238 286.311,93.5713 287.5,94.5C 286.752,96.4159 286.752,98.4159 287.5,100.5C 288.5,100.5 289.5,100.5 290.5,100.5C 290.5,102.167 290.5,103.833 290.5,105.5C 286.243,99.9746 282.243,94.3079 278.5,88.5C 275.375,87.5206 272.042,87.1872 268.5,87.5 Z"/></g>
<g><path style="opacity:1" fill="#449e59" d="M 302.5,86.5 C 305.084,91.8031 306.917,97.4698 308,103.5C 308.667,111.167 308.667,118.833 308,126.5C 307.617,127.056 307.117,127.389 306.5,127.5C 307.553,120.536 307.72,113.536 307,106.5C 304.524,99.9417 303.024,93.2751 302.5,86.5 Z"/></g>
<g><path style="opacity:1" fill="#41884e" d="M 264.5,87.5 C 265.833,87.5 267.167,87.5 268.5,87.5C 272.042,87.1872 275.375,87.5206 278.5,88.5C 273.833,88.5 269.167,88.5 264.5,88.5C 264.829,103.676 264.496,118.676 263.5,133.5C 263.5,118.5 263.5,103.5 263.5,88.5C 263.5,87.8333 263.833,87.5 264.5,87.5 Z"/></g>
<g><path style="opacity:0.29" fill="#7c7c7c" d="M 367.5,94.5 C 367.027,95.9063 366.027,96.573 364.5,96.5C 364.973,95.0937 365.973,94.427 367.5,94.5 Z"/></g>
<g><path style="opacity:0.314" fill="#9a9a9a" d="M 217.5,97.5 C 216.92,99.7488 215.587,101.415 213.5,102.5C 214.08,100.251 215.413,98.5846 217.5,97.5 Z"/></g>
<g><path style="opacity:1" fill="#047726" d="M 239.5,97.5 C 235.167,102.5 230.5,107.167 225.5,111.5C 229.167,105.833 233.833,101.167 239.5,97.5 Z"/></g>
<g><path style="opacity:0.388" fill="#797979" d="M 359.5,99.5 C 359.027,100.906 358.027,101.573 356.5,101.5C 356.973,100.094 357.973,99.427 359.5,99.5 Z"/></g>
<g><path style="opacity:0.38" fill="#747474" d="M 354.5,102.5 C 353.198,104.822 351.198,106.155 348.5,106.5C 350.147,104.674 352.147,103.34 354.5,102.5 Z"/></g>
<g><path style="opacity:0.431" fill="#8c8c8c" d="M 212.5,103.5 C 212.573,105.027 211.906,106.027 210.5,106.5C 210.427,104.973 211.094,103.973 212.5,103.5 Z"/></g>
<g><path style="opacity:0.478" fill="#848484" d="M 209.5,107.5 C 209.573,109.027 208.906,110.027 207.5,110.5C 207.427,108.973 208.094,107.973 209.5,107.5 Z"/></g>
<g><path style="opacity:0.451" fill="#686768" d="M 346.5,107.5 C 345.198,109.822 343.198,111.155 340.5,111.5C 342.147,109.674 344.147,108.34 346.5,107.5 Z"/></g>
<g><path style="opacity:1" fill="#54dd72" d="M 263.5,88.5 C 263.5,103.5 263.5,118.5 263.5,133.5C 261.633,141.068 258.299,147.901 253.5,154C 255.604,158.817 257.604,163.65 259.5,168.5C 259.502,172.165 260.835,175.165 263.5,177.5C 263.584,180.327 264.25,182.994 265.5,185.5C 265.838,189.151 264.172,190.817 260.5,190.5C 244.711,177.589 236.378,160.923 235.5,140.5C 230.695,139.513 225.695,139.179 220.5,139.5C 220.19,142.713 220.523,145.713 221.5,148.5C 221.5,148.833 221.5,149.167 221.5,149.5C 221.336,152.187 221.503,154.854 222,157.5C 224.473,164.418 226.64,171.418 228.5,178.5C 230.272,180.62 232.272,182.287 234.5,183.5C 234.963,186.482 235.296,189.482 235.5,192.5C 240.272,191.603 242.605,193.603 242.5,198.5C 242,198.833 241.5,199.167 241,199.5C 238.151,197.496 234.985,196.496 231.5,196.5C 220.119,188.114 210.786,177.781 203.5,165.5C 205.433,166.642 206.933,168.308 208,170.5C 208.333,170.167 208.667,169.833 209,169.5C 211.582,159.473 214.915,149.806 219,140.5C 227.124,123.044 238.624,108.21 253.5,96C 256.286,93.9404 259.286,92.4404 262.5,91.5C 262.263,90.209 262.596,89.209 263.5,88.5 Z"/></g>
<g><path style="opacity:1" fill="#02671b" d="M 225.5,111.5 C 224.925,113.411 223.925,115.078 222.5,116.5C 222.167,116.5 221.833,116.5 221.5,116.5C 222.08,114.251 223.413,112.585 225.5,111.5 Z"/></g>
<g><path style="opacity:0.063" fill="#afaeaf" d="M 446.5,105.5 C 445.22,111.077 441.887,114.744 436.5,116.5C 440.525,113.442 443.858,109.775 446.5,105.5 Z"/></g>
<g><path style="opacity:1" fill="#0fa139" d="M 221.5,116.5 C 221.833,116.5 222.167,116.5 222.5,116.5C 222.762,117.978 222.429,119.311 221.5,120.5C 220.098,120.865 219.098,121.699 218.5,123C 216.016,127.49 213.516,131.99 211,136.5C 210.241,138.063 209.074,139.063 207.5,139.5C 210.901,131.025 215.568,123.358 221.5,116.5 Z"/></g>
<g><path style="opacity:1" fill="#eb5373" d="M 283.5,122.5 C 289.204,130.736 294.538,139.236 299.5,148C 295.498,160.002 290.165,171.335 283.5,182C 282.004,182.507 280.837,182.007 280,180.5C 278.639,176.657 277.139,172.991 275.5,169.5C 275.114,165.033 274.114,160.699 272.5,156.5C 273.174,153.158 273.84,149.825 274.5,146.5C 275.167,145.833 275.833,145.167 276.5,144.5C 277.458,144.047 278.292,143.381 279,142.5C 279.957,135.522 280.791,128.522 281.5,121.5C 282.183,121.863 282.85,122.196 283.5,122.5 Z"/></g>
<g><path style="opacity:1" fill="#c74f6b" d="M 283.5,122.5 C 282.85,122.196 282.183,121.863 281.5,121.5C 280.791,128.522 279.957,135.522 279,142.5C 278.292,143.381 277.458,144.047 276.5,144.5C 277.588,135.184 278.588,125.851 279.5,116.5C 281.337,118.176 282.67,120.176 283.5,122.5 Z"/></g>
<g><path style="opacity:0.937" fill="#625f61" d="M 389.5,139.5 C 392.096,140.265 394.763,140.599 397.5,140.5C 394.074,144.6 391.407,144.267 389.5,139.5 Z"/></g>
<g><path style="opacity:1" fill="#ae5e3a" d="M 385.5,139.5 C 382.319,141.592 379.319,143.925 376.5,146.5C 374.799,143.802 372.466,141.802 369.5,140.5C 367.048,142.393 364.381,143.726 361.5,144.5C 361.351,143.448 361.517,142.448 362,141.5C 366.969,138.914 371.969,138.914 377,141.5C 379.679,140.105 382.512,139.439 385.5,139.5 Z"/></g>
<g><path style="opacity:1" fill="#3c8c4e" d="M 235.5,140.5 C 230.833,140.5 226.167,140.5 221.5,140.5C 221.5,143.167 221.5,145.833 221.5,148.5C 220.523,145.713 220.19,142.713 220.5,139.5C 225.695,139.179 230.695,139.513 235.5,140.5 Z"/></g>
<g><path style="opacity:0.004" fill="#bfbebe" d="M 378.5,150.5 C 379.757,151.623 379.424,152.289 377.5,152.5C 377.833,151.833 378.167,151.167 378.5,150.5 Z"/></g>
<g><path style="opacity:1" fill="#af445d" d="M 274.5,146.5 C 273.84,149.825 273.174,153.158 272.5,156.5C 274.114,160.699 275.114,165.033 275.5,169.5C 273.919,165.037 272.252,160.537 270.5,156C 271.014,152.389 272.347,149.222 274.5,146.5 Z"/></g>
<g><path style="opacity:0.008" fill="#d2ced0" d="M 373.5,155.5 C 373.027,156.906 372.027,157.573 370.5,157.5C 370.973,156.094 371.973,155.427 373.5,155.5 Z"/></g>
<g><path style="opacity:1" fill="#109535" d="M 203.5,148.5 C 202.092,152.686 201.425,157.019 201.5,161.5C 200.12,161.038 199.453,160.038 199.5,158.5C 200.272,154.833 201.605,151.499 203.5,148.5 Z"/></g>
<g><path style="opacity:0.004" fill="#d8d8d7" d="M 369.5,158.5 C 369.027,159.906 368.027,160.573 366.5,160.5C 366.973,159.094 367.973,158.427 369.5,158.5 Z"/></g>
<g><path style="opacity:0.008" fill="#d6d6d6" d="M 366.5,160.5 C 366.027,161.906 365.027,162.573 363.5,162.5C 363.973,161.094 364.973,160.427 366.5,160.5 Z"/></g>
<g><path style="opacity:0.004" fill="#dcdcdc" d="M 363.5,162.5 C 363.027,163.906 362.027,164.573 360.5,164.5C 360.973,163.094 361.973,162.427 363.5,162.5 Z"/></g>
<g><path style="opacity:1" fill="#378545" d="M 259.5,168.5 C 261.592,171.088 262.925,174.088 263.5,177.5C 260.835,175.165 259.502,172.165 259.5,168.5 Z"/></g>
<g><path style="opacity:0.14" fill="#a8a8a8" d="M 181.5,169.5 C 181.58,172.781 180.913,175.781 179.5,178.5C 179.42,175.219 180.087,172.219 181.5,169.5 Z"/></g>
<g><path style="opacity:1" fill="#a95226" d="M 325.5,138.5 C 323.807,140.602 321.641,142.268 319,143.5C 317.682,147.966 316.516,152.466 315.5,157C 315.559,158.436 315.892,159.769 316.5,161C 315.747,162.487 314.914,162.654 314,161.5C 312.505,163.11 312.339,164.776 313.5,166.5C 311.997,167.052 310.331,167.052 308.5,166.5C 308.896,169.482 308.229,172.149 306.5,174.5C 308.245,174.476 310.079,174.81 312,175.5C 318.117,172.249 323.617,169.083 328.5,166C 327.655,164.442 328.321,163.442 330.5,163C 330.167,162.667 329.833,162.333 329.5,162C 332.975,161.553 336.309,160.72 339.5,159.5C 327.27,168.437 314.937,177.103 302.5,185.5C 301.503,185.53 300.836,185.03 300.5,184C 300.989,182.862 301.322,181.695 301.5,180.5C 306.631,168.228 311.797,155.895 317,143.5C 319.313,140.928 322.146,139.261 325.5,138.5 Z"/></g>
<g><path style="opacity:1" fill="#45a65c" d="M 221.5,149.5 C 224.101,161.391 228.435,172.724 234.5,183.5C 232.272,182.287 230.272,180.62 228.5,178.5C 226.64,171.418 224.473,164.418 222,157.5C 221.503,154.854 221.336,152.187 221.5,149.5 Z"/></g>
<g><path style="opacity:1" fill="#327d44" d="M 263.5,177.5 C 265.951,180.74 267.618,184.407 268.5,188.5C 267.272,187.694 266.272,186.694 265.5,185.5C 264.25,182.994 263.584,180.327 263.5,177.5 Z"/></g>
<g><path style="opacity:1" fill="#66341e" d="M 301.5,180.5 C 301.322,181.695 300.989,182.862 300.5,184C 300.836,185.03 301.503,185.53 302.5,185.5C 301.235,186.479 299.901,187.479 298.5,188.5C 298.167,188 297.833,187.5 297.5,187C 298.566,184.581 299.9,182.414 301.5,180.5 Z"/></g>
<g><path style="opacity:1" fill="#067121" d="M 197.5,183.5 C 199.914,184.911 201.581,186.911 202.5,189.5C 200.086,188.089 198.419,186.089 197.5,183.5 Z"/></g>
<g><path style="opacity:0.051" fill="#a0a0a0" d="M 328.5,185.5 C 327.833,186.833 326.833,187.833 325.5,188.5C 325.5,186.5 326.5,185.5 328.5,185.5 Z"/></g>
<g><path style="opacity:1" fill="#4fbd69" d="M 265.5,185.5 C 266.272,186.694 267.272,187.694 268.5,188.5C 270.472,191.084 271.472,194.084 271.5,197.5C 267.053,196.385 263.387,194.052 260.5,190.5C 264.172,190.817 265.838,189.151 265.5,185.5 Z"/></g>
<g><path style="opacity:1" fill="#055e1b" d="M 193.5,183.5 C 193.5,186.167 193.5,188.833 193.5,191.5C 192.532,193.607 192.198,195.941 192.5,198.5C 192.167,198.5 191.833,198.5 191.5,198.5C 191.444,193.269 192.111,188.269 193.5,183.5 Z"/></g>
<g><path style="opacity:1" fill="#0f9e3b" d="M 197.5,183.5 C 196.85,183.196 196.183,182.863 195.5,182.5C 194.833,185.642 194.166,188.642 193.5,191.5C 193.5,188.833 193.5,186.167 193.5,183.5C 193.5,182.167 193.5,180.833 193.5,179.5C 196.142,179.488 197.475,180.821 197.5,183.5 Z"/></g>
<g><path style="opacity:1" fill="#56cb6e" d="M 234.5,183.5 C 239.769,190.438 245.769,196.771 252.5,202.5C 252.414,203.496 252.748,204.329 253.5,205C 252.906,205.464 252.239,205.631 251.5,205.5C 244.032,204.096 237.366,201.096 231.5,196.5C 234.985,196.496 238.151,197.496 241,199.5C 241.5,199.167 242,198.833 242.5,198.5C 242.605,193.603 240.272,191.603 235.5,192.5C 235.296,189.482 234.963,186.482 234.5,183.5 Z"/></g>
<g><path style="opacity:1" fill="#4eb964" d="M 202.5,189.5 C 206.471,194.303 210.971,198.636 216,202.5C 216.279,204.412 215.446,205.746 213.5,206.5C 214.152,202.44 212.485,200.44 208.5,200.5C 208.532,198.381 207.532,197.048 205.5,196.5C 204.957,193.962 203.957,191.628 202.5,189.5 Z"/></g>
<g><path style="opacity:1" fill="#52dd70" d="M 205.5,196.5 C 207.532,197.048 208.532,198.381 208.5,200.5C 212.485,200.44 214.152,202.44 213.5,206.5C 210.729,210.39 207.729,214.057 204.5,217.5C 204.326,210.465 204.659,203.465 205.5,196.5 Z"/></g>
<g><path style="opacity:1" fill="#519760" d="M 252.5,202.5 C 254.34,204.168 256.34,205.668 258.5,207C 255.788,207.826 253.455,207.326 251.5,205.5C 252.239,205.631 252.906,205.464 253.5,205C 252.748,204.329 252.414,203.496 252.5,202.5 Z"/></g>
<g><path style="opacity:1" fill="#091e03" d="M 240.5,217.5 C 237.378,216.439 234.378,215.105 231.5,213.5C 229.362,212.192 227.362,212.525 225.5,214.5C 225.5,213.5 225.5,212.5 225.5,211.5C 231.842,210.659 236.842,212.659 240.5,217.5 Z"/></g>
<g><path style="opacity:1" fill="#0f7f15" d="M 231.5,213.5 C 228.615,214.382 225.948,215.716 223.5,217.5C 224.167,216.5 224.833,215.5 225.5,214.5C 227.362,212.525 229.362,212.192 231.5,213.5 Z"/></g>
<g><path style="opacity:1" fill="#0a2405" d="M 240.5,217.5 C 245.515,218.085 250.515,218.752 255.5,219.5C 255.768,221.099 255.434,222.432 254.5,223.5C 254.38,222.414 253.713,221.747 252.5,221.5C 248.197,220.732 244.197,219.399 240.5,217.5 Z"/></g>
<g><path style="opacity:1" fill="#016108" d="M 223.5,217.5 C 222.581,220.089 220.914,222.089 218.5,223.5C 219.419,220.911 221.086,218.911 223.5,217.5 Z"/></g>
<g><path style="opacity:1" fill="#02c810" d="M 231.5,213.5 C 234.378,215.105 237.378,216.439 240.5,217.5C 244.197,219.399 248.197,220.732 252.5,221.5C 253.713,221.747 254.38,222.414 254.5,223.5C 249.099,227.898 244.433,232.898 240.5,238.5C 238.856,238.286 237.356,238.62 236,239.5C 234.296,242.052 233.129,245.386 232.5,249.5C 231.5,249.5 230.5,249.5 229.5,249.5C 229.663,251.857 229.497,254.19 229,256.5C 228.167,255.5 227.333,254.5 226.5,253.5C 225.246,255.259 225.579,256.759 227.5,258C 225.343,261.895 224.009,266.061 223.5,270.5C 223.5,270.833 223.5,271.167 223.5,271.5C 221.349,275.497 220.016,279.83 219.5,284.5C 218.208,286.255 217.208,288.255 216.5,290.5C 213.166,276.826 209.833,263.159 206.5,249.5C 208.465,246.675 210.299,243.675 212,240.5C 213.683,234.613 215.85,228.946 218.5,223.5C 220.914,222.089 222.581,220.089 223.5,217.5C 225.948,215.716 228.615,214.382 231.5,213.5 Z"/></g>
<g><path style="opacity:1" fill="#06d03e" d="M 197.5,183.5 C 198.419,186.089 200.086,188.089 202.5,189.5C 203.957,191.628 204.957,193.962 205.5,196.5C 204.659,203.465 204.326,210.465 204.5,217.5C 200.981,222.537 197.981,227.87 195.5,233.5C 194.603,234.598 193.77,234.598 193,233.5C 192.5,221.838 192.333,210.171 192.5,198.5C 192.198,195.941 192.532,193.607 193.5,191.5C 194.166,188.642 194.833,185.642 195.5,182.5C 196.183,182.863 196.85,183.196 197.5,183.5 Z"/></g>
<g><path style="opacity:1" fill="#0b7b26" d="M 191.5,198.5 C 191.833,198.5 192.167,198.5 192.5,198.5C 192.333,210.171 192.5,221.838 193,233.5C 193.77,234.598 194.603,234.598 195.5,233.5C 195.316,236.173 194.149,236.84 192,235.5C 191.5,223.171 191.333,210.838 191.5,198.5 Z"/></g>
<g><path style="opacity:1" fill="#0ab217" d="M 240.5,238.5 C 238.234,242.034 236.234,245.7 234.5,249.5C 232.025,250.687 231.025,252.687 231.5,255.5C 228.98,260.61 226.313,265.61 223.5,270.5C 224.009,266.061 225.343,261.895 227.5,258C 225.579,256.759 225.246,255.259 226.5,253.5C 227.333,254.5 228.167,255.5 229,256.5C 229.497,254.19 229.663,251.857 229.5,249.5C 230.5,249.5 231.5,249.5 232.5,249.5C 233.129,245.386 234.296,242.052 236,239.5C 237.356,238.62 238.856,238.286 240.5,238.5 Z"/></g>
<g><path style="opacity:1" fill="#024e07" d="M 234.5,249.5 C 233.492,251.544 232.492,253.544 231.5,255.5C 231.025,252.687 232.025,250.687 234.5,249.5 Z"/></g>
<g><path style="opacity:0.216" fill="#afafaf" d="M 178.5,246.5 C 179.638,249.304 179.805,252.304 179,255.5C 177.281,258.288 175.115,260.621 172.5,262.5C 174.067,259.717 175.9,257.051 178,254.5C 178.497,251.854 178.664,249.187 178.5,246.5 Z"/></g>
<g><path style="opacity:0.478" fill="#8e8e8e" d="M 96.5,258.5 C 98.2303,259.026 99.5637,260.026 100.5,261.5C 98.368,261.446 97.0347,260.446 96.5,258.5 Z"/></g>
<g><path style="opacity:0.565" fill="#8e8e8e" d="M 100.5,261.5 C 105.188,264.188 108.855,267.855 111.5,272.5C 107.452,269.119 103.785,265.452 100.5,261.5 Z"/></g>
<g><path style="opacity:1" fill="#4e6815" d="M 69.5,264.5 C 74.3951,264.466 78.7284,265.8 82.5,268.5C 79.5979,267.422 76.5979,266.756 73.5,266.5C 72.1667,265.833 70.8333,265.167 69.5,264.5 Z"/></g>
<g><path style="opacity:0.365" fill="#989898" d="M 170.5,264.5 C 170.573,266.027 169.906,267.027 168.5,267.5C 168.427,265.973 169.094,264.973 170.5,264.5 Z"/></g>
<g><path style="opacity:1" fill="#577702" d="M 69.5,264.5 C 63.8333,264.5 58.1667,264.5 52.5,264.5C 52.5,269.5 52.5,274.5 52.5,279.5C 51.5128,274.695 51.1795,269.695 51.5,264.5C 57.5,263.167 63.5,263.167 69.5,264.5 Z"/></g>
<g><path style="opacity:1" fill="#abe409" d="M 69.5,264.5 C 70.8333,265.167 72.1667,265.833 73.5,266.5C 70.4816,266.335 67.4816,266.502 64.5,267C 65.5968,295.264 80.2635,309.431 108.5,309.5C 108.823,313.226 108.489,316.893 107.5,320.5C 102.565,321.448 97.5649,321.781 92.5,321.5C 91.1667,321.5 89.8333,321.5 88.5,321.5C 84.8585,320.351 81.1918,319.184 77.5,318C 75.2528,316.723 73.2528,315.223 71.5,313.5C 70.0892,311.086 68.0892,309.419 65.5,308.5C 60.8586,303.9 57.1919,298.566 54.5,292.5C 53.7255,288.186 53.0588,283.853 52.5,279.5C 52.5,274.5 52.5,269.5 52.5,264.5C 58.1667,264.5 63.8333,264.5 69.5,264.5 Z"/></g>
<g><path style="opacity:1" fill="#0b7d14" d="M 200.5,264.5 C 200.362,272.909 201.029,281.242 202.5,289.5C 199.491,281.337 198.824,273.004 200.5,264.5 Z"/></g>
<g><path style="opacity:0.482" fill="#848484" d="M 111.5,272.5 C 113.262,273.262 114.262,274.596 114.5,276.5C 112.738,275.738 111.738,274.404 111.5,272.5 Z"/></g>
<g><path style="opacity:1" fill="#753c1f" d="M 186.5,293.5 C 186.185,287.592 184.852,281.926 182.5,276.5C 179.16,279.867 175.827,283.2 172.5,286.5C 175.032,281.464 178.532,277.131 183,273.5C 183.945,273.905 184.612,274.572 185,275.5C 185.667,278.833 186.333,282.167 187,285.5C 187.801,288.367 187.634,291.034 186.5,293.5 Z"/></g>
<g><path style="opacity:0.188" fill="#a5a5a5" d="M 239.5,271.5 C 237.409,277.999 235.075,284.332 232.5,290.5C 233.47,283.581 235.804,277.248 239.5,271.5 Z"/></g>
<g><path style="opacity:0.153" fill="#a4a4a4" d="M 114.5,276.5 C 115.906,276.973 116.573,277.973 116.5,279.5C 115.094,279.027 114.427,278.027 114.5,276.5 Z"/></g>
<g><path style="opacity:1" fill="#087a10" d="M 223.5,271.5 C 222.92,276.177 221.587,280.51 219.5,284.5C 220.016,279.83 221.349,275.497 223.5,271.5 Z"/></g>
<g><path style="opacity:1" fill="#c1f636" d="M 73.5,266.5 C 76.5979,266.756 79.5979,267.422 82.5,268.5C 92.7767,273.11 100.443,280.443 105.5,290.5C 106.025,294.533 107.358,298.2 109.5,301.5C 109.5,308.5 109.5,315.5 109.5,322.5C 103.642,322.822 97.9753,322.489 92.5,321.5C 97.5649,321.781 102.565,321.448 107.5,320.5C 108.489,316.893 108.823,313.226 108.5,309.5C 80.2635,309.431 65.5968,295.264 64.5,267C 67.4816,266.502 70.4816,266.335 73.5,266.5 Z"/></g>
<g><path style="opacity:1" fill="#04aa0f" d="M 218.5,223.5 C 215.85,228.946 213.683,234.613 212,240.5C 210.299,243.675 208.465,246.675 206.5,249.5C 209.833,263.159 213.166,276.826 216.5,290.5C 217.208,288.255 218.208,286.255 219.5,284.5C 216.654,295.363 214.654,306.363 213.5,317.5C 212.833,321.5 212.167,325.5 211.5,329.5C 208.07,316.247 205.07,302.914 202.5,289.5C 201.029,281.242 200.362,272.909 200.5,264.5C 202.988,249.199 208.988,235.533 218.5,223.5 Z"/></g>
<g><path style="opacity:1" fill="#172805" d="M 51.5,264.5 C 51.1795,269.695 51.5128,274.695 52.5,279.5C 53.0588,283.853 53.7255,288.186 54.5,292.5C 53.4138,292.38 52.7472,291.713 52.5,290.5C 50.5729,281.731 50.2396,273.064 51.5,264.5 Z"/></g>
<g><path style="opacity:1" fill="#b95523" d="M 186.5,293.5 C 184.659,297.183 182.326,300.516 179.5,303.5C 177.926,303.937 176.759,304.937 176,306.5C 173.56,310.751 171.393,315.085 169.5,319.5C 167.748,322.672 165.748,325.672 163.5,328.5C 161.883,327.411 161.05,325.744 161,323.5C 160.25,322.874 159.416,322.374 158.5,322C 155.954,322.632 153.288,323.132 150.5,323.5C 150.682,321.409 150.348,319.409 149.5,317.5C 150.372,315.55 151.039,313.55 151.5,311.5C 153.546,309.721 155.713,308.054 158,306.5C 161.854,300.8 166.188,295.467 171,290.5C 171.483,289.552 171.649,288.552 171.5,287.5C 171.5,286.833 171.833,286.5 172.5,286.5C 175.827,283.2 179.16,279.867 182.5,276.5C 184.852,281.926 186.185,287.592 186.5,293.5 Z"/></g>
<g><path style="opacity:1" fill="#627d20" d="M 105.5,290.5 C 108,293.66 109.333,297.327 109.5,301.5C 107.358,298.2 106.025,294.533 105.5,290.5 Z"/></g>
<g><path style="opacity:0.169" fill="#9a9a9a" d="M 146.5,293.5 C 142.247,300.09 137.247,306.09 131.5,311.5C 135.753,304.91 140.753,298.91 146.5,293.5 Z"/></g>
<g><path style="opacity:1" fill="#8a4726" d="M 171.5,287.5 C 171.649,288.552 171.483,289.552 171,290.5C 166.188,295.467 161.854,300.8 158,306.5C 155.713,308.054 153.546,309.721 151.5,311.5C 152.75,309.068 154.25,306.734 156,304.5C 161.183,298.76 166.35,293.093 171.5,287.5 Z"/></g>
<g><path style="opacity:1" fill="#8d4a28" d="M 179.5,303.5 C 176.664,309.178 173.331,314.511 169.5,319.5C 171.393,315.085 173.56,310.751 176,306.5C 176.759,304.937 177.926,303.937 179.5,303.5 Z"/></g>
<g><path style="opacity:0.012" fill="#c6c6c6" d="M 44.5,306.5 C 46.0481,306.821 46.7148,307.821 46.5,309.5C 45.5987,308.71 44.9321,307.71 44.5,306.5 Z"/></g>
<g><path style="opacity:1" fill="#75990f" d="M 65.5,308.5 C 68.0892,309.419 70.0892,311.086 71.5,313.5C 68.9108,312.581 66.9108,310.914 65.5,308.5 Z"/></g>
<g><path style="opacity:0.514" fill="#a09da0" d="M 46.5,309.5 C 50.7554,314.094 55.0887,318.761 59.5,323.5C 53.8037,320.136 49.4704,315.469 46.5,309.5 Z"/></g>
<g><path style="opacity:0.494" fill="#818181" d="M 131.5,311.5 C 131.262,313.404 130.262,314.738 128.5,315.5C 128.738,313.596 129.738,312.262 131.5,311.5 Z"/></g>
<g><path style="opacity:0.522" fill="#6e6e6d" d="M 375.5,320.5 C 364.399,316.867 353.066,315.867 341.5,317.5C 351.052,314.924 360.719,315.091 370.5,318C 372.491,318.374 374.158,319.207 375.5,320.5 Z"/></g>
<g><path style="opacity:1" fill="#ad5224" d="M 151.5,311.5 C 151.039,313.55 150.372,315.55 149.5,317.5C 150.348,319.409 150.682,321.409 150.5,323.5C 153.288,323.132 155.954,322.632 158.5,322C 159.416,322.374 160.25,322.874 161,323.5C 161.05,325.744 161.883,327.411 163.5,328.5C 160.489,335.197 156.489,341.197 151.5,346.5C 151.662,344.473 151.495,342.473 151,340.5C 150.085,341.328 149.419,342.328 149,343.5C 148.29,342.027 147.124,341.36 145.5,341.5C 145.178,339.278 145.845,337.444 147.5,336C 146.426,335.261 145.759,334.261 145.5,333C 146.777,331.112 147.777,329.112 148.5,327C 147.175,327.148 146.008,326.982 145,326.5C 144,330.5 143,330.5 142,326.5C 141.316,328.359 140.316,330.026 139,331.5C 134.354,336.477 129.354,341.144 124,345.5C 123.691,346.766 123.191,347.933 122.5,349C 123.833,349.333 125.167,349.667 126.5,350C 125.019,350.98 123.685,352.147 122.5,353.5C 121.749,352.624 121.249,351.624 121,350.5C 116.327,357.499 112.993,365.165 111,373.5C 108.909,375.428 107.076,377.428 105.5,379.5C 109.369,369.734 113.535,360.067 118,350.5C 129.032,337.308 140.198,324.308 151.5,311.5 Z"/></g>
<g><path style="opacity:1" fill="#334d06" d="M 109.5,301.5 C 111.577,308.504 111.91,315.671 110.5,323C 104.167,323.667 97.8333,323.667 91.5,323C 90.2625,322.768 89.2625,322.268 88.5,321.5C 89.8333,321.5 91.1667,321.5 92.5,321.5C 97.9753,322.489 103.642,322.822 109.5,322.5C 109.5,315.5 109.5,308.5 109.5,301.5 Z"/></g>
<g><path style="opacity:0.451" fill="#8f8f8f" d="M 59.5,323.5 C 61.4044,323.738 62.7377,324.738 63.5,326.5C 61.5956,326.262 60.2623,325.262 59.5,323.5 Z"/></g>
<g><path style="opacity:0.373" fill="#858585" d="M 63.5,326.5 C 65.0269,326.427 66.0269,327.094 66.5,328.5C 64.9731,328.573 63.9731,327.906 63.5,326.5 Z"/></g>
<g><path style="opacity:0.055" fill="#b9b9b9" d="M 66.5,328.5 C 68.0269,328.427 69.0269,329.094 69.5,330.5C 67.9731,330.573 66.9731,329.906 66.5,328.5 Z"/></g>
<g><path style="opacity:1" fill="#09470b" d="M 213.5,317.5 C 213.666,322.844 213.499,328.177 213,333.5C 211.812,332.437 211.312,331.103 211.5,329.5C 212.167,325.5 212.833,321.5 213.5,317.5 Z"/></g>
<g><path style="opacity:0.286" fill="#9c9c9c" d="M 315.5,332.5 C 314.833,333.833 313.833,334.833 312.5,335.5C 312.5,333.5 313.5,332.5 315.5,332.5 Z"/></g>
<g><path style="opacity:0.008" fill="#c0c0c0" d="M 397.5,333.5 C 400.394,334.882 402.894,336.882 405,339.5C 407.694,342.892 409.86,346.559 411.5,350.5C 407.083,344.689 402.416,339.022 397.5,333.5 Z"/></g>
<g><path style="opacity:1" fill="#03aa0e" d="M 379.5,338.5 C 379.5,339.833 379.5,341.167 379.5,342.5C 388.516,344.491 388.516,345.491 379.5,345.5C 368.163,343.865 356.83,344.532 345.5,347.5C 337.75,348.323 330.417,350.657 323.5,354.5C 322.5,354.333 321.5,354.167 320.5,354C 322.791,350.853 324.457,347.353 325.5,343.5C 334.359,333.152 345.693,328.986 359.5,331C 366.579,332.595 373.245,335.095 379.5,338.5 Z"/></g>
<g><path style="opacity:1" fill="#b8e342" d="M 104.5,343.5 C 104.5,342.167 104.5,340.833 104.5,339.5C 102.833,339.5 101.167,339.5 99.5,339.5C 99.719,340.675 99.3857,341.675 98.5,342.5C 95.8971,341.438 93.2305,341.272 90.5,342C 86.9331,343.809 83.2664,345.309 79.5,346.5C 79.5,346.167 79.5,345.833 79.5,345.5C 88.3097,338.449 98.3097,336.115 109.5,338.5C 108.145,340.521 106.479,342.188 104.5,343.5 Z"/></g>
<g><path style="opacity:0.251" fill="#8f8f8f" d="M 312.5,335.5 C 311.66,337.853 310.326,339.853 308.5,341.5C 308.845,338.802 310.178,336.802 312.5,335.5 Z"/></g>
<g><path style="opacity:1" fill="#b85522" d="M 151.5,346.5 C 150.4,347.605 149.733,348.938 149.5,350.5C 146.542,354.905 143.876,359.572 141.5,364.5C 140.526,366.743 140.192,369.076 140.5,371.5C 130.548,394.75 120.548,418.083 110.5,441.5C 87.2247,454.97 63.558,467.637 39.5,479.5C 35.2972,480.599 31.2972,482.266 27.5,484.5C 26.3881,485.265 25.7214,486.265 25.5,487.5C 18.4779,491.536 11.4779,495.536 4.5,499.5C 2.83333,499.5 1.16667,499.5 -0.5,499.5C -0.5,494.5 -0.5,489.5 -0.5,484.5C 5.10422,482.692 10.1042,479.858 14.5,476C 16.5389,474.074 18.2055,471.907 19.5,469.5C 36.3129,456.592 53.3129,443.926 70.5,431.5C 76.9116,429.755 81.9116,426.088 85.5,420.5C 87.7157,419.797 89.549,418.464 91,416.5C 93.1452,412.226 95.8119,408.226 99,404.5C 99.539,401.471 100.206,398.471 101,395.5C 102.156,396.993 102.99,396.826 103.5,395C 101.86,392.419 102.194,390.252 104.5,388.5C 105.484,385.572 105.817,382.572 105.5,379.5C 107.076,377.428 108.909,375.428 111,373.5C 112.993,365.165 116.327,357.499 121,350.5C 121.249,351.624 121.749,352.624 122.5,353.5C 123.685,352.147 125.019,350.98 126.5,350C 125.167,349.667 123.833,349.333 122.5,349C 123.191,347.933 123.691,346.766 124,345.5C 129.354,341.144 134.354,336.477 139,331.5C 140.316,330.026 141.316,328.359 142,326.5C 143,330.5 144,330.5 145,326.5C 146.008,326.982 147.175,327.148 148.5,327C 147.777,329.112 146.777,331.112 145.5,333C 145.759,334.261 146.426,335.261 147.5,336C 145.845,337.444 145.178,339.278 145.5,341.5C 147.124,341.36 148.29,342.027 149,343.5C 149.419,342.328 150.085,341.328 151,340.5C 151.495,342.473 151.662,344.473 151.5,346.5 Z"/></g>
<g><path style="opacity:1" fill="#0e8016" d="M 379.5,338.5 C 382.792,340.458 385.792,342.791 388.5,345.5C 385.355,346.803 382.355,346.803 379.5,345.5C 388.516,345.491 388.516,344.491 379.5,342.5C 379.5,341.167 379.5,339.833 379.5,338.5 Z"/></g>
<g><path style="opacity:0.302" fill="#797979" d="M 71.5,331.5 C 72.525,331.897 72.6917,332.563 72,333.5C 66.5035,338.483 61.6702,343.817 57.5,349.5C 58.1283,346.91 59.295,344.577 61,342.5C 64.7039,338.964 68.2039,335.298 71.5,331.5 Z"/></g>
<g><path style="opacity:1" fill="#4b985c" d="M 173.5,348.5 C 173.66,346.801 173.494,345.134 173,343.5C 172.583,344.756 171.75,345.423 170.5,345.5C 171.684,342.139 173.517,339.139 176,336.5C 175.868,340.708 175.034,344.708 173.5,348.5 Z"/></g>
<g><path style="opacity:0.114" fill="#a3a3a3" d="M 308.5,341.5 C 308.008,343.819 307.008,345.819 305.5,347.5C 305.461,344.911 306.461,342.911 308.5,341.5 Z"/></g>
<g><path style="opacity:1" fill="#06700f" d="M 379.5,345.5 C 368.014,344.974 356.681,345.974 345.5,348.5C 345.5,348.167 345.5,347.833 345.5,347.5C 356.83,344.532 368.163,343.865 379.5,345.5 Z"/></g>
<g><path style="opacity:1" fill="#6c8d11" d="M 79.5,345.5 C 79.5,345.833 79.5,346.167 79.5,346.5C 79.1667,347.167 78.8333,347.833 78.5,348.5C 76.8333,349.833 75.1667,351.167 73.5,352.5C 74.7573,349.573 76.7573,347.239 79.5,345.5 Z"/></g>
<g><path style="opacity:1" fill="#c2f637" d="M 104.5,343.5 C 102.824,344.183 102.157,345.517 102.5,347.5C 99.3873,347.065 98.7207,348.065 100.5,350.5C 98.7556,353.97 97.7556,357.637 97.5,361.5C 96.7729,363.954 95.7729,366.287 94.5,368.5C 89.5,368.5 84.5,368.5 79.5,368.5C 79.1903,362.242 79.5236,356.076 80.5,350C 79.9558,349.283 79.2891,348.783 78.5,348.5C 78.8333,347.833 79.1667,347.167 79.5,346.5C 83.2664,345.309 86.9331,343.809 90.5,342C 93.2305,341.272 95.8971,341.438 98.5,342.5C 99.3857,341.675 99.719,340.675 99.5,339.5C 101.167,339.5 102.833,339.5 104.5,339.5C 104.5,340.833 104.5,342.167 104.5,343.5 Z"/></g>
<g><path style="opacity:1" fill="#9ec23a" d="M 104.5,343.5 C 102.938,349.861 100.605,355.861 97.5,361.5C 97.7556,357.637 98.7556,353.97 100.5,350.5C 98.7207,348.065 99.3873,347.065 102.5,347.5C 102.157,345.517 102.824,344.183 104.5,343.5 Z"/></g>
<g><path style="opacity:0.714" fill="#6e7171" d="M 305.5,347.5 C 305.397,350.636 304.397,353.302 302.5,355.5C 302.733,352.458 303.733,349.792 305.5,347.5 Z"/></g>
<g><path style="opacity:1" fill="#0b9215" d="M 325.5,343.5 C 324.457,347.353 322.791,350.853 320.5,354C 321.5,354.167 322.5,354.333 323.5,354.5C 330.417,350.657 337.75,348.323 345.5,347.5C 345.5,347.833 345.5,348.167 345.5,348.5C 341.756,350.132 337.756,351.299 333.5,352C 329.7,353.9 326.033,355.733 322.5,357.5C 321.127,357.657 319.793,357.49 318.5,357C 319.38,355.644 319.714,354.144 319.5,352.5C 320.723,348.951 322.723,345.951 325.5,343.5 Z"/></g>
<g><path style="opacity:1" fill="#abe509" d="M 78.5,348.5 C 79.2891,348.783 79.9558,349.283 80.5,350C 79.5236,356.076 79.1903,362.242 79.5,368.5C 84.5,368.5 89.5,368.5 94.5,368.5C 92.9839,376.698 87.9839,380.698 79.5,380.5C 75.5,380.5 71.5,380.5 67.5,380.5C 67.3341,375.489 67.5007,370.489 68,365.5C 70.8928,361.688 72.7261,357.355 73.5,352.5C 75.1667,351.167 76.8333,349.833 78.5,348.5 Z"/></g>
<g><path style="opacity:1" fill="#095c13" d="M 319.5,352.5 C 319.714,354.144 319.38,355.644 318.5,357C 319.793,357.49 321.127,357.657 322.5,357.5C 321.359,358.339 320.026,359.006 318.5,359.5C 317.164,356.859 317.498,354.526 319.5,352.5 Z"/></g>
<g><path style="opacity:0.502" fill="#707070" d="M 54.5,355.5 C 54.8294,358.228 54.1628,360.562 52.5,362.5C 52.4095,359.848 53.0762,357.515 54.5,355.5 Z"/></g>
<g><path style="opacity:0.284" fill="#808080" d="M 188.5,352.5 C 187.194,364.836 187.194,377.169 188.5,389.5C 186.96,383.749 186.294,377.749 186.5,371.5C 186.32,364.928 186.986,358.595 188.5,352.5 Z"/></g>
<g><path style="opacity:0.514" fill="#919191" d="M 349.5,363.5 C 349.897,362.475 350.563,362.308 351.5,363C 355.831,366.484 359.164,370.651 361.5,375.5C 357.86,371.194 353.86,367.194 349.5,363.5 Z"/></g>
<g><path style="opacity:1" fill="#8f4523" d="M 149.5,350.5 C 147.242,357.939 144.242,364.939 140.5,371.5C 140.192,369.076 140.526,366.743 141.5,364.5C 143.876,359.572 146.542,354.905 149.5,350.5 Z"/></g>
<g><path style="opacity:1" fill="#59d274" d="M 173.5,348.5 C 173.5,350.167 173.5,351.833 173.5,353.5C 172.691,355.292 172.191,357.292 172,359.5C 171.5,367.493 171.334,375.493 171.5,383.5C 170.182,374.295 170.182,364.961 171.5,355.5C 171.167,355.167 170.833,354.833 170.5,354.5C 170.019,359.901 167.686,361.235 163.5,358.5C 162.849,360.847 161.516,362.514 159.5,363.5C 162.381,356.967 166.047,350.967 170.5,345.5C 171.75,345.423 172.583,344.756 173,343.5C 173.494,345.134 173.66,346.801 173.5,348.5 Z"/></g>
<g><path style="opacity:1" fill="#5b90ee" d="M 387.5,361.5 C 387.833,361.5 388.167,361.5 388.5,361.5C 392.309,363.323 396.142,365.323 400,367.5C 400.31,373.847 401.143,379.347 402.5,384C 402.321,387.858 401.987,391.691 401.5,395.5C 399.405,402.362 396.738,409.029 393.5,415.5C 390.8,417.234 388.8,419.568 387.5,422.5C 386.275,421.848 385.608,420.681 385.5,419C 386.376,411.527 386.709,404.027 386.5,396.5C 386.663,394.143 386.497,391.81 386,389.5C 384.368,383.547 382.702,377.547 381,371.5C 380.586,371.957 380.086,372.291 379.5,372.5C 378.355,371.224 378.355,369.891 379.5,368.5C 378.726,367.289 377.893,367.289 377,368.5C 375.914,366.202 374.414,364.202 372.5,362.5C 377.456,361.506 382.456,361.173 387.5,361.5 Z"/></g>
<g><path style="opacity:1" fill="#428f52" d="M 173.5,353.5 C 172.218,363.502 172.218,373.502 173.5,383.5C 172.833,383.5 172.167,383.5 171.5,383.5C 171.334,375.493 171.5,367.493 172,359.5C 172.191,357.292 172.691,355.292 173.5,353.5 Z"/></g>
<g><path style="opacity:1" fill="#22a243" d="M 159.5,363.5 C 159.41,367.214 158.41,370.548 156.5,373.5C 155.347,376.47 153.68,379.137 151.5,381.5C 153.602,375.173 156.269,369.173 159.5,363.5 Z"/></g>
<g><path style="opacity:0.004" fill="#dddddd" d="M 327.5,371.5 C 327.027,372.906 326.027,373.573 324.5,373.5C 324.973,372.094 325.973,371.427 327.5,371.5 Z"/></g>
<g><path style="opacity:0.192" fill="#c0c0c0" d="M 323.5,373.5 C 323.833,374.167 324.167,374.833 324.5,375.5C 322.576,375.289 322.243,374.623 323.5,373.5 Z"/></g>
<g><path style="opacity:1" fill="#547cc6" d="M 388.5,361.5 C 396.381,361.577 401.381,365.243 403.5,372.5C 403.666,379.508 403.5,386.508 403,393.5C 402.722,394.416 402.222,395.082 401.5,395.5C 401.987,391.691 402.321,387.858 402.5,384C 401.143,379.347 400.31,373.847 400,367.5C 396.142,365.323 392.309,363.323 388.5,361.5 Z"/></g>
<g><path style="opacity:1" fill="#85a919" d="M 73.5,352.5 C 72.7261,357.355 70.8928,361.688 68,365.5C 67.5007,370.489 67.3341,375.489 67.5,380.5C 71.5,380.5 75.5,380.5 79.5,380.5C 75.3656,381.485 71.0323,381.818 66.5,381.5C 65.6627,372.838 66.8293,364.505 70,356.5C 70.9487,354.907 72.1154,353.574 73.5,352.5 Z"/></g>
<g><path style="opacity:0.188" fill="#c1c1c1" d="M 257.5,375.5 C 256.167,377.5 254.5,379.167 252.5,380.5C 253.167,377.833 254.833,376.167 257.5,375.5 Z"/></g>
<g><path style="opacity:1" fill="#014006" d="M 299.5,379.5 C 292.833,378.167 286.167,378.167 279.5,379.5C 282.526,377.981 285.859,377.315 289.5,377.5C 293.141,377.315 296.474,377.981 299.5,379.5 Z"/></g>
<g><path style="opacity:1" fill="#53de72" d="M 171.5,383.5 C 172.167,383.5 172.833,383.5 173.5,383.5C 173.5,384.833 173.5,386.167 173.5,387.5C 173.198,391.79 173.864,395.79 175.5,399.5C 176.117,399.611 176.617,399.944 177,400.5C 177.943,403.824 178.776,407.157 179.5,410.5C 179.5,414.167 179.5,417.833 179.5,421.5C 181.322,421.831 182.989,422.498 184.5,423.5C 184.343,424.873 184.51,426.207 185,427.5C 187.276,429.718 188.776,432.385 189.5,435.5C 190.86,436.18 192.193,436.847 193.5,437.5C 202.463,450.465 214.129,460.132 228.5,466.5C 230.033,468.245 232.033,469.245 234.5,469.5C 236.833,470.167 239.167,470.833 241.5,471.5C 244.558,473.132 247.891,474.299 251.5,475C 252.598,475.77 252.598,476.603 251.5,477.5C 249.708,477.366 248.042,477.699 246.5,478.5C 237.022,478.228 227.355,478.228 217.5,478.5C 217.423,477.25 216.756,476.417 215.5,476C 209.255,475.03 203.255,473.363 197.5,471C 182.644,463.143 171.477,451.643 164,436.5C 157.244,423.658 154.078,409.992 154.5,395.5C 155.277,388.171 155.944,380.837 156.5,373.5C 158.41,370.548 159.41,367.214 159.5,363.5C 161.516,362.514 162.849,360.847 163.5,358.5C 167.686,361.235 170.019,359.901 170.5,354.5C 170.833,354.833 171.167,355.167 171.5,355.5C 170.182,364.961 170.182,374.295 171.5,383.5 Z"/></g>
<g><path style="opacity:1" fill="#5884d0" d="M 387.5,361.5 C 382.456,361.173 377.456,361.506 372.5,362.5C 374.414,364.202 375.914,366.202 377,368.5C 377.893,367.289 378.726,367.289 379.5,368.5C 378.355,369.891 378.355,371.224 379.5,372.5C 380.086,372.291 380.586,371.957 381,371.5C 382.702,377.547 384.368,383.547 386,389.5C 386.497,391.81 386.663,394.143 386.5,396.5C 385.869,394.025 384.869,391.691 383.5,389.5C 380.773,378.547 375.773,368.714 368.5,360C 373.5,359.333 378.5,359.333 383.5,360C 385.058,360.21 386.391,360.71 387.5,361.5 Z"/></g>
<g><path style="opacity:1" fill="#04ab0e" d="M 299.5,379.5 C 305.112,381.639 310.446,384.306 315.5,387.5C 316.048,389.394 317.048,391.06 318.5,392.5C 318.291,393.086 317.957,393.586 317.5,394C 313.141,394.534 308.808,394.368 304.5,393.5C 298.167,393.5 291.833,393.5 285.5,393.5C 280.4,393.711 275.734,395.045 271.5,397.5C 270.5,398.167 269.5,398.833 268.5,399.5C 265.921,399.394 263.588,400.061 261.5,401.5C 260.624,401.631 259.957,401.298 259.5,400.5C 260.309,398.929 260.643,397.262 260.5,395.5C 264.081,391.579 267.747,387.579 271.5,383.5C 273.789,381.613 276.455,380.279 279.5,379.5C 286.167,378.167 292.833,378.167 299.5,379.5 Z"/></g>
<g><path style="opacity:1" fill="#056c24" d="M 151.5,382.5 C 151.741,384.898 151.074,386.898 149.5,388.5C 149.259,386.102 149.926,384.102 151.5,382.5 Z"/></g>
<g><path style="opacity:1" fill="#077412" d="M 271.5,383.5 C 267.747,387.579 264.081,391.579 260.5,395.5C 262.777,390.223 266.444,386.223 271.5,383.5 Z"/></g>
<g><path style="opacity:1" fill="#0a7712" d="M 315.5,387.5 C 320.072,390.394 323.072,394.394 324.5,399.5C 317.654,397.793 310.987,395.793 304.5,393.5C 308.808,394.368 313.141,394.534 317.5,394C 317.957,393.586 318.291,393.086 318.5,392.5C 317.048,391.06 316.048,389.394 315.5,387.5 Z"/></g>
<g><path style="opacity:1" fill="#439b57" d="M 173.5,387.5 C 175.136,391.21 175.802,395.21 175.5,399.5C 173.864,395.79 173.198,391.79 173.5,387.5 Z"/></g>
<g><path style="opacity:0.12" fill="#989898" d="M 188.5,389.5 C 189.768,391.905 190.435,394.572 190.5,397.5C 188.96,395.162 188.294,392.495 188.5,389.5 Z"/></g>
<g><path style="opacity:1" fill="#005105" d="M 285.5,393.5 C 281.028,395.201 276.361,396.535 271.5,397.5C 275.734,395.045 280.4,393.711 285.5,393.5 Z"/></g>
<g><path style="opacity:1" fill="#117015" d="M 260.5,395.5 C 260.643,397.262 260.309,398.929 259.5,400.5C 259.957,401.298 260.624,401.631 261.5,401.5C 261.5,401.833 261.5,402.167 261.5,402.5C 260.292,403.234 258.959,403.567 257.5,403.5C 257.415,400.351 258.415,397.684 260.5,395.5 Z"/></g>
<g><path style="opacity:1" fill="#043003" d="M 268.5,399.5 C 266.491,401.065 264.157,402.065 261.5,402.5C 261.5,402.167 261.5,401.833 261.5,401.5C 263.588,400.061 265.921,399.394 268.5,399.5 Z"/></g>
<g><path style="opacity:1" fill="#19294a" d="M 383.5,389.5 C 384.869,391.691 385.869,394.025 386.5,396.5C 386.709,404.027 386.376,411.527 385.5,419C 385.608,420.681 386.275,421.848 387.5,422.5C 386.321,425.476 384.987,425.809 383.5,423.5C 384.786,412.167 384.786,400.834 383.5,389.5 Z"/></g>
<g><path style="opacity:1" fill="#a04e24" d="M 105.5,379.5 C 105.817,382.572 105.484,385.572 104.5,388.5C 102.194,390.252 101.86,392.419 103.5,395C 102.99,396.826 102.156,396.993 101,395.5C 100.206,398.471 99.539,401.471 99,404.5C 95.8119,408.226 93.1452,412.226 91,416.5C 89.549,418.464 87.7157,419.797 85.5,420.5C 86.7927,418.704 88.2927,417.037 90,415.5C 94.711,403.167 99.8776,391.167 105.5,379.5 Z"/></g>
<g><path style="opacity:0.094" fill="#bbbbbc" d="M 212.5,402.5 C 217.405,403.445 222.405,403.779 227.5,403.5C 225.19,404.164 222.69,404.497 220,404.5C 217.071,404.475 214.571,403.809 212.5,402.5 Z"/></g>
<g><path style="opacity:1" fill="#0e1527" d="M 403.5,372.5 C 404.656,380.323 404.823,388.323 404,396.5C 401.435,400.818 399.602,405.485 398.5,410.5C 397.031,412.513 395.364,414.18 393.5,415.5C 396.738,409.029 399.405,402.362 401.5,395.5C 402.222,395.082 402.722,394.416 403,393.5C 403.5,386.508 403.666,379.508 403.5,372.5 Z"/></g>
<g><path style="opacity:1" fill="#037222" d="M 149.5,388.5 C 148.167,402.167 148.167,415.833 149.5,429.5C 145.623,415.815 145.623,402.148 149.5,388.5 Z"/></g>
<g><path style="opacity:0.082" fill="#cdcdcd" d="M 289.5,409.5 C 286.14,409.616 282.807,409.949 279.5,410.5C 282.708,408.469 286.041,408.135 289.5,409.5 Z"/></g>
<g><path style="opacity:0.035" fill="#d3d3d3" d="M 276.5,411.5 C 274.819,413.008 272.819,414.008 270.5,414.5C 271.911,412.461 273.911,411.461 276.5,411.5 Z"/></g>
<g><path style="opacity:1" fill="#5b90ed" d="M 310.5,410.5 C 317.201,412.683 323.534,415.683 329.5,419.5C 330.135,428.28 328.301,436.613 324,444.5C 322.149,447.846 319.316,449.846 315.5,450.5C 314.022,450.762 312.689,450.429 311.5,449.5C 313.57,437.001 312.57,424.834 308.5,413C 308.639,411.699 309.305,410.866 310.5,410.5 Z"/></g>
<g><path style="opacity:0.376" fill="#8a8887" d="M 65.5,416.5 C 65.0269,417.906 64.0269,418.573 62.5,418.5C 62.9731,417.094 63.9731,416.427 65.5,416.5 Z"/></g>
<g><path style="opacity:1" fill="#51bb67" d="M 179.5,410.5 C 181.938,414.403 183.605,418.736 184.5,423.5C 182.989,422.498 181.322,421.831 179.5,421.5C 179.5,417.833 179.5,414.167 179.5,410.5 Z"/></g>
<g><path style="opacity:0.149" fill="#a1a1a1" d="M 62.5,418.5 C 60.1997,420.984 57.5331,422.984 54.5,424.5C 56.4426,421.529 59.1092,419.529 62.5,418.5 Z"/></g>
<g><path style="opacity:0.102" fill="#bfbfbf" d="M 200.5,420.5 C 201.906,420.973 202.573,421.973 202.5,423.5C 201.094,423.027 200.427,422.027 200.5,420.5 Z"/></g>
<g><path style="opacity:0.22" fill="#bfbfbf" d="M 202.5,423.5 C 203.906,423.973 204.573,424.973 204.5,426.5C 203.094,426.027 202.427,425.027 202.5,423.5 Z"/></g>
<g><path style="opacity:0.29" fill="#9b9b9b" d="M 54.5,424.5 C 53.7377,426.262 52.4044,427.262 50.5,427.5C 51.2623,425.738 52.5956,424.738 54.5,424.5 Z"/></g>
<g><path style="opacity:1" fill="#567dc8" d="M 310.5,410.5 C 309.305,410.866 308.639,411.699 308.5,413C 312.57,424.834 313.57,437.001 311.5,449.5C 312.689,450.429 314.022,450.762 315.5,450.5C 314.71,451.401 313.71,452.068 312.5,452.5C 310.712,442.868 309.545,432.868 309,422.5C 308.768,421.263 308.268,420.263 307.5,419.5C 307.54,416.119 307.207,412.786 306.5,409.5C 308.099,409.232 309.432,409.566 310.5,410.5 Z"/></g>
<g><path style="opacity:1" fill="#904923" d="M 85.5,420.5 C 81.9116,426.088 76.9116,429.755 70.5,431.5C 74.9586,427.103 79.9586,423.436 85.5,420.5 Z"/></g>
<g><path style="opacity:0.275" fill="#aeaeae" d="M 204.5,426.5 C 205.906,426.973 206.573,427.973 206.5,429.5C 205.094,429.027 204.427,428.027 204.5,426.5 Z"/></g>
<g><path style="opacity:0.298" fill="#999999" d="M 50.5,427.5 C 49.7377,429.262 48.4044,430.262 46.5,430.5C 47.2623,428.738 48.5956,427.738 50.5,427.5 Z"/></g>
<g><path style="opacity:0.094" fill="#bcbcbc" d="M 134.5,430.5 C 133.833,429.5 133.167,428.5 132.5,427.5C 132.783,426.711 133.283,426.044 134,425.5C 134.494,427.134 134.66,428.801 134.5,430.5 Z"/></g>
<g><path style="opacity:0.329" fill="#979797" d="M 46.5,430.5 C 45.7377,432.262 44.4044,433.262 42.5,433.5C 43.2623,431.738 44.5956,430.738 46.5,430.5 Z"/></g>
<g><path style="opacity:0.092" fill="#bababa" d="M 134.5,430.5 C 135.768,432.905 136.435,435.572 136.5,438.5C 134.96,436.162 134.294,433.495 134.5,430.5 Z"/></g>
<g><path style="opacity:1" fill="#0c1021" d="M 307.5,419.5 C 308.268,420.263 308.768,421.263 309,422.5C 309.545,432.868 310.712,442.868 312.5,452.5C 311.432,453.434 310.099,453.768 308.5,453.5C 308.743,442.136 308.41,430.802 307.5,419.5 Z"/></g>
<g><path style="opacity:1" fill="#49a95d" d="M 184.5,423.5 C 185.458,423.953 186.292,424.619 187,425.5C 189.023,429.66 191.189,433.66 193.5,437.5C 192.193,436.847 190.86,436.18 189.5,435.5C 188.776,432.385 187.276,429.718 185,427.5C 184.51,426.207 184.343,424.873 184.5,423.5 Z"/></g>
<g><path style="opacity:0.447" fill="#555555" d="M 342.5,438.5 C 342.579,439.93 342.246,441.264 341.5,442.5C 345.806,443.423 350.139,443.423 354.5,442.5C 350.177,443.897 345.677,444.897 341,445.5C 340.174,442.788 340.674,440.455 342.5,438.5 Z"/></g>
<g><path style="opacity:1" fill="#024e1a" d="M 153.5,442.5 C 154.906,442.973 155.573,443.973 155.5,445.5C 154.094,445.027 153.427,444.027 153.5,442.5 Z"/></g>
<g><path style="opacity:0.263" fill="#9d9d9d" d="M 137.5,441.5 C 140.012,445.866 142.012,450.533 143.5,455.5C 140.449,451.386 138.449,446.72 137.5,441.5 Z"/></g>
<g><path style="opacity:0.063" fill="#d2d2d2" d="M 373.5,451.5 C 372.713,453.104 371.38,453.771 369.5,453.5C 370.514,452.326 371.847,451.66 373.5,451.5 Z"/></g>
<g><path style="opacity:0.235" fill="#969697" d="M 143.5,455.5 C 144.906,455.973 145.573,456.973 145.5,458.5C 144.094,458.027 143.427,457.027 143.5,455.5 Z"/></g>
<g><path style="opacity:1" fill="#11a73b" d="M 163.5,458.5 C 166.703,458.682 168.536,460.348 169,463.5C 172.396,466.633 175.562,469.966 178.5,473.5C 172.521,469.521 167.521,464.521 163.5,458.5 Z"/></g>
<g><path style="opacity:0.176" fill="#b9b9b9" d="M 7.5,459.5 C 7.02694,460.906 6.02694,461.573 4.5,461.5C 4.97306,460.094 5.97306,459.427 7.5,459.5 Z"/></g>
<g><path style="opacity:0.176" fill="#bebebe" d="M 3.5,462.5 C 3.02694,463.906 2.02694,464.573 0.5,464.5C 0.973056,463.094 1.97306,462.427 3.5,462.5 Z"/></g>
<g><path style="opacity:1" fill="#195e2a" d="M 228.5,466.5 C 230.967,466.755 232.967,467.755 234.5,469.5C 232.033,469.245 230.033,468.245 228.5,466.5 Z"/></g>
<g><path style="opacity:1" fill="#05d23e" d="M 156.5,373.5 C 155.944,380.837 155.277,388.171 154.5,395.5C 154.078,409.992 157.244,423.658 164,436.5C 171.477,451.643 182.644,463.143 197.5,471C 203.255,473.363 209.255,475.03 215.5,476C 216.756,476.417 217.423,477.25 217.5,478.5C 220.122,479.033 222.622,480.033 225,481.5C 227.064,480.409 229.231,480.242 231.5,481C 231.167,481.333 230.833,481.667 230.5,482C 218.728,482.997 207.061,482.497 195.5,480.5C 194.833,480.5 194.167,480.5 193.5,480.5C 192.77,479.288 191.77,478.288 190.5,477.5C 186.434,476.121 182.434,474.788 178.5,473.5C 175.562,469.966 172.396,466.633 169,463.5C 168.536,460.348 166.703,458.682 163.5,458.5C 160.095,454.705 157.429,450.372 155.5,445.5C 155.573,443.973 154.906,442.973 153.5,442.5C 151.887,438.268 150.554,433.935 149.5,429.5C 148.167,415.833 148.167,402.167 149.5,388.5C 151.074,386.898 151.741,384.898 151.5,382.5C 151.5,382.167 151.5,381.833 151.5,381.5C 153.68,379.137 155.347,376.47 156.5,373.5 Z"/></g>
<g><path style="opacity:1" fill="#1f5f2b" d="M 241.5,471.5 C 246.117,472.487 250.784,473.154 255.5,473.5C 255.833,476.5 254.5,477.833 251.5,477.5C 252.598,476.603 252.598,475.77 251.5,475C 247.891,474.299 244.558,473.132 241.5,471.5 Z"/></g>
<g><path style="opacity:0.327" fill="#757575" d="M 293.5,473.5 C 289.954,474.615 286.288,475.615 282.5,476.5C 282.791,475.351 283.624,474.684 285,474.5C 287.792,473.784 290.626,473.451 293.5,473.5 Z"/></g>
<g><path style="opacity:1" fill="#0ca639" d="M 178.5,473.5 C 182.434,474.788 186.434,476.121 190.5,477.5C 191.77,478.288 192.77,479.288 193.5,480.5C 192.833,480.5 192.167,480.5 191.5,480.5C 186.712,478.941 182.379,476.607 178.5,473.5 Z"/></g>
<g><path style="opacity:0.216" fill="#8d8b8b" d="M 75.5,477.5 C 73.6644,479.588 71.3311,480.921 68.5,481.5C 70.3356,479.412 72.6689,478.079 75.5,477.5 Z"/></g>
<g><path style="opacity:1" fill="#914a24" d="M 19.5,469.5 C 18.2055,471.907 16.5389,474.074 14.5,476C 10.1042,479.858 5.10422,482.692 -0.5,484.5C -0.5,484.167 -0.5,483.833 -0.5,483.5C 5.90818,478.419 12.5748,473.752 19.5,469.5 Z"/></g>
<g><path style="opacity:1" fill="#12c844" d="M 246.5,478.5 C 241.422,480.274 236.422,481.94 231.5,483.5C 221.5,484.833 211.5,484.833 201.5,483.5C 199.5,482.5 197.5,481.5 195.5,480.5C 207.061,482.497 218.728,482.997 230.5,482C 230.833,481.667 231.167,481.333 231.5,481C 229.231,480.242 227.064,480.409 225,481.5C 222.622,480.033 220.122,479.033 217.5,478.5C 227.355,478.228 237.022,478.228 246.5,478.5 Z"/></g>
<g><path style="opacity:0.267" fill="#909090" d="M 278.5,479.5 C 277.71,480.401 276.71,481.068 275.5,481.5C 275.821,479.952 276.821,479.285 278.5,479.5 Z"/></g>
<g><path style="opacity:1" fill="#015715" d="M 191.5,480.5 C 192.167,480.5 192.833,480.5 193.5,480.5C 194.167,480.5 194.833,480.5 195.5,480.5C 197.5,481.5 199.5,482.5 201.5,483.5C 197.838,483.277 194.505,482.277 191.5,480.5 Z"/></g>
<g><path style="opacity:1" fill="#03671d" d="M 251.5,477.5 C 245.475,481.154 238.808,483.154 231.5,483.5C 236.422,481.94 241.422,480.274 246.5,478.5C 248.042,477.699 249.708,477.366 251.5,477.5 Z"/></g>
<g><path style="opacity:0.255" fill="#959595" d="M 275.5,481.5 C 274.71,482.401 273.71,483.068 272.5,483.5C 272.821,481.952 273.821,481.285 275.5,481.5 Z"/></g>
<g><path style="opacity:1" fill="#874423" d="M 39.5,479.5 C 35.4933,483.174 30.8266,485.841 25.5,487.5C 25.7214,486.265 26.3881,485.265 27.5,484.5C 31.2972,482.266 35.2972,480.599 39.5,479.5 Z"/></g>
<g><path style="opacity:0.157" fill="#999999" d="M 66.5,482.5 C 65.3406,484.25 63.674,485.25 61.5,485.5C 62.6594,483.75 64.326,482.75 66.5,482.5 Z"/></g>
<g><path style="opacity:1" fill="#00460b" d="M 201.5,483.5 C 211.5,484.833 221.5,484.833 231.5,483.5C 226.923,484.99 222.09,485.656 217,485.5C 211.589,485.621 206.423,484.954 201.5,483.5 Z"/></g>
<g><path style="opacity:0.263" fill="#9c9c9c" d="M 168.5,484.5 C 170.027,484.427 171.027,485.094 171.5,486.5C 169.973,486.573 168.973,485.906 168.5,484.5 Z"/></g>
<g><path style="opacity:0.216" fill="#a4a4a4" d="M 171.5,486.5 C 173.027,486.427 174.027,487.094 174.5,488.5C 172.973,488.573 171.973,487.906 171.5,486.5 Z"/></g>
<g><path style="opacity:0.118" fill="#bbbbbc" d="M 174.5,488.5 C 178.818,489.992 182.818,491.992 186.5,494.5C 181.914,493.54 177.914,491.54 174.5,488.5 Z"/></g>
</svg>
