<?xml version="1.0" encoding="UTF-8"?>
<svg version="1.1" xmlns="http://www.w3.org/2000/svg" width="500" height="500">
<path d="M0 0 C1.2065192 0.60040885 2.40655509 1.2139699 3.60083008 1.83837891 C4.25052765 2.16612808 4.90022522 2.49387726 5.5696106 2.83155823 C7.67592201 3.89788328 9.77299987 4.98113441 11.87036133 6.06494141 C13.33691128 6.81143103 14.80395598 7.55694943 16.27148438 8.30151367 C24.25728804 12.36409254 32.19280523 16.51750401 40.08984375 20.75 C48.34134315 25.12378986 56.77354815 29.13131441 65.18286133 33.18994141 C75.93977453 38.38275973 86.64874635 43.61467422 97.16723633 49.27978516 C100.69342177 51.17893389 104.25202572 53.00629308 107.82348633 54.81884766 C108.87890625 55.35791748 109.93432617 55.8969873 111.02172852 56.45239258 C113.08112116 57.50292459 115.14412129 58.54642384 117.21118164 59.58178711 C118.60481934 60.29661255 118.60481934 60.29661255 120.02661133 61.02587891 C120.85354492 61.44401855 121.68047852 61.8621582 122.5324707 62.29296875 C124.92828438 63.84937722 126.21751733 65.24516149 127.68286133 67.68994141 C127.87036133 70.93994141 127.87036133 70.93994141 127.68286133 73.68994141 C128.37379883 73.78791016 129.06473633 73.88587891 129.77661133 73.98681641 C134.38347715 75.10138072 138.35285001 77.5016644 142.52661133 79.70556641 C145.6707828 81.09209169 145.6707828 81.09209169 148.34692383 79.31103516 C149.1177832 78.77607422 149.88864258 78.24111328 150.68286133 77.68994141 C156.80800638 78.97424601 162.10532591 81.81541818 167.62036133 84.68994141 C168.28342285 85.03387939 168.94648438 85.37781738 169.62963867 85.73217773 C172.86101887 87.47372247 174.61096178 88.58209208 176.68286133 91.68994141 C176.72797852 92.64900391 176.7730957 93.60806641 176.81958008 94.59619141 C177.79608501 98.09570229 178.15977266 98.35012666 181.13989258 100.09619141 C182.5804265 100.81712099 184.03298851 101.51440961 185.49536133 102.18994141 C186.58300781 102.74681641 186.58300781 102.74681641 187.69262695 103.31494141 C189.68118088 104.27556032 191.55206694 105.10886849 193.68286133 105.68994141 C195.85076847 104.98882265 195.85076847 104.98882265 197.68286133 103.68994141 C202.11326357 103.34119141 204.91830608 103.94477074 208.83520508 105.99072266 C209.77686523 106.47347656 210.71852539 106.95623047 211.6887207 107.45361328 C212.65616211 107.96472656 213.62360352 108.47583984 214.62036133 109.00244141 C216.54523591 110.00028609 218.4709981 110.99642069 220.39770508 111.99072266 C221.30633301 112.4633252 222.21496094 112.93592773 223.15112305 113.42285156 C225.30615051 114.50140436 227.45322075 115.45850714 229.68676758 116.35791016 C232.5141719 117.61494389 233.80009844 118.32659682 235.68286133 120.68994141 C236.07727051 122.65623474 236.07727051 122.65623474 236.1027832 124.91430664 C236.11869507 125.76206161 236.13460693 126.60981659 236.15100098 127.48326111 C236.1513031 128.85207176 236.1513031 128.85207176 236.15161133 130.24853516 C236.15922485 131.18923355 236.16683838 132.12993195 236.17468262 133.09913635 C236.18548872 135.08876898 236.18833465 137.07845835 236.18383789 139.06811523 C236.18286596 142.11294152 236.22447276 145.15524503 236.26879883 148.19970703 C236.27400607 150.13264448 236.27669402 152.0655907 236.27661133 153.99853516 C236.29300659 154.90905136 236.30940186 155.81956757 236.32629395 156.75767517 C236.25808027 162.99527666 236.25808027 162.99527666 233.54541016 166.27124023 C230.18683996 167.93577341 228.02653968 168.15143294 224.28833008 168.08056641 C223.0862793 168.06767578 221.88422852 168.05478516 220.64575195 168.04150391 C218.77693359 167.99123047 218.77693359 167.99123047 216.87036133 167.93994141 C215.60514648 167.92189453 214.33993164 167.90384766 213.03637695 167.88525391 C209.91776798 167.83818056 206.80070159 167.77243235 203.68286133 167.68994141 C203.71766602 168.91970703 203.7524707 170.14947266 203.78833008 171.41650391 C203.81648178 173.04930268 203.84378045 174.68211631 203.87036133 176.31494141 C203.89549805 177.12318359 203.92063477 177.93142578 203.9465332 178.76416016 C204.00835875 183.83385523 203.53721495 187.30819759 200.68286133 191.68994141 C198.68286133 192.68994141 198.68286133 192.68994141 192.68286133 192.68994141 C192.68286133 242.18994141 192.68286133 291.68994141 192.68286133 342.68994141 C194.66286133 342.68994141 196.64286133 342.68994141 198.68286133 342.68994141 C201.01098633 344.04931641 201.01098633 344.04931641 202.68286133 346.68994141 C203.30257249 350.10288726 203.37951517 353.477291 203.43286133 356.93994141 C203.47733398 358.34373047 203.47733398 358.34373047 203.52270508 359.77587891 C203.59325937 362.08065233 203.64602385 364.38442308 203.68286133 366.68994141 C204.37323486 366.67423096 205.0636084 366.65852051 205.77490234 366.64233398 C208.93163721 366.57960688 212.08824048 366.54083141 215.24536133 366.50244141 C216.87441406 366.46473633 216.87441406 366.46473633 218.53637695 366.42626953 C224.69443324 366.37011704 229.29946024 366.57164597 234.68286133 369.68994141 C235.84575028 372.01571931 235.81587643 373.37523765 235.83003235 375.96566772 C235.83718765 376.8629509 235.84434296 377.76023407 235.85171509 378.68470764 C235.85440399 379.67176193 235.8570929 380.65881622 235.85986328 381.67578125 C235.86643448 382.71328018 235.87300568 383.75077911 235.879776 384.81971741 C235.89953637 388.26343857 235.91117659 391.70711612 235.92114258 395.15087891 C235.92521811 396.32453632 235.92929363 397.49819374 235.93349266 398.70741653 C235.95436326 404.91708451 235.96866175 411.1267303 235.97802734 417.33642578 C235.98910491 423.76171874 236.02351786 430.18666663 236.06319904 436.61183739 C236.08929562 441.54284323 236.09771291 446.47376591 236.10130882 451.40483475 C236.10619135 453.77397624 236.11785233 456.14311362 236.13634682 458.51218796 C236.16059388 461.82351098 236.15979959 465.13392861 236.15283203 468.4453125 C236.17204712 469.91982124 236.17204712 469.91982124 236.19165039 471.42411804 C236.14129073 477.97251764 236.14129073 477.97251764 234.0164032 481.29788208 C231.10363768 483.03547353 229.26357345 483.19702497 225.8762207 483.20751953 C224.12420349 483.2264325 224.12420349 483.2264325 222.33679199 483.24572754 C220.45075256 483.23358215 220.45075256 483.23358215 218.52661133 483.22119141 C217.23219116 483.22501831 215.937771 483.22884521 214.60412598 483.23278809 C211.86699287 483.23867828 209.13038274 483.23013679 206.39331055 483.21142578 C202.88914106 483.1886351 199.38619699 483.20176095 195.88207245 483.22571564 C192.53432112 483.24366595 189.18689745 483.23108901 185.83911133 483.22119141 C184.58175171 483.22928833 183.32439209 483.23738525 182.02893066 483.24572754 C180.86091919 483.2331189 179.69290771 483.22051025 178.48950195 483.20751953 C177.46232056 483.20433716 176.43513916 483.20115479 175.37683105 483.19787598 C171.97169615 482.55585476 170.75784717 481.4215703 168.68286133 478.68994141 C168.68286133 477.69994141 168.68286133 476.70994141 168.68286133 475.68994141 C161.75286133 475.68994141 154.82286133 475.68994141 147.68286133 475.68994141 C147.35286133 477.33994141 147.02286133 478.98994141 146.68286133 480.68994141 C141.82046029 483.9315421 136.46161669 483.09973742 130.74536133 483.12744141 C129.55233398 483.1603125 128.35930664 483.19318359 127.13012695 483.22705078 C125.98350586 483.23414063 124.83688477 483.24123047 123.65551758 483.24853516 C122.60630127 483.26198975 121.55708496 483.27544434 120.47607422 483.28930664 C117.68286133 482.68994141 117.68286133 482.68994141 115.30957031 480.2800293 C113.68286133 477.68994141 113.68286133 477.68994141 113.68286133 475.68994141 C106.75286133 475.68994141 99.82286133 475.68994141 92.68286133 475.68994141 C92.35286133 477.33994141 92.02286133 478.98994141 91.68286133 480.68994141 C88.28249595 482.95685166 87.11301844 482.94163689 83.12430668 482.94721031 C81.9608296 482.9536592 80.79735252 482.9601081 79.59861857 482.96675241 C78.31439979 482.96365521 77.03018101 482.960558 75.70704651 482.95736694 C74.33374704 482.96110159 72.9604497 482.96570237 71.58715576 482.97109759 C67.80490792 482.98336584 64.02274828 482.98306265 60.24048507 482.98070884 C56.16474463 482.98030164 52.08903284 482.99133048 48.01330566 483.00082397 C40.02530396 483.01745547 32.03733177 483.02293447 24.04931421 483.02404873 C17.55866366 483.02499811 11.06802287 483.02910287 4.57737541 483.03544998 C-13.8120394 483.05306761 -32.20143085 483.06228794 -50.59085416 483.06078903 C-51.58277658 483.06070912 -52.57469901 483.06062921 -53.59667969 483.06054688 C-54.58980866 483.06046511 -55.58293763 483.06038335 -56.60616142 483.06029911 C-72.70819275 483.05948588 -88.8101306 483.0786316 -104.91213488 483.10682361 C-121.43303715 483.13552156 -137.95389379 483.14936564 -154.47482163 483.14763606 C-163.75514519 483.14697112 -173.03537075 483.15250855 -182.31567192 483.17399216 C-190.2158959 483.19216331 -198.11597745 483.19658485 -206.01621323 483.18297331 C-210.04913502 483.17642322 -214.08178323 483.17639949 -218.11467934 483.19367981 C-221.80406374 483.20932608 -225.49295575 483.20663452 -229.18232752 483.18911155 C-231.154617 483.18455568 -233.12692125 483.19976495 -235.09915251 483.21559083 C-236.26523733 483.20639324 -237.43132215 483.19719565 -238.63274288 483.18771935 C-240.14538767 483.18837145 -240.14538767 483.18837145 -241.68859094 483.18903673 C-245.03404872 482.55381816 -246.22231362 481.31867291 -248.31713867 478.68994141 C-248.82050323 476.53786469 -248.82050323 476.53786469 -248.82507324 474.17370605 C-248.83635254 473.27367355 -248.84763184 472.37364105 -248.85925293 471.44633484 C-248.85115601 470.4664711 -248.84305908 469.48660736 -248.8347168 468.47705078 C-248.84172607 467.4392598 -248.84873535 466.40146881 -248.85595703 465.33222961 C-248.87357341 461.89911199 -248.86190078 458.46681753 -248.84838867 455.03369141 C-248.85108252 452.6500228 -248.85496405 450.26635527 -248.85998535 447.88269043 C-248.86588536 442.88587995 -248.85730089 437.88935539 -248.83862305 432.89257812 C-248.81583366 426.48296094 -248.82895398 420.07401368 -248.8529129 413.66442108 C-248.86735703 408.74195291 -248.86277116 403.81964395 -248.85240173 398.89717102 C-248.84973063 396.53363465 -248.8530176 394.1700839 -248.86231995 391.80656433 C-248.8724623 388.50492993 -248.8570156 385.20438513 -248.8347168 381.90283203 C-248.84281372 380.92296829 -248.85091064 379.94310455 -248.85925293 378.93354797 C-248.77651324 372.33132715 -248.77651324 372.33132715 -246.47229004 369.11413574 C-242.79368107 366.68319092 -239.85549226 366.57045738 -235.55541992 366.59228516 C-234.4371582 366.59550781 -233.31889648 366.59873047 -232.16674805 366.60205078 C-230.41587891 366.61461914 -230.41587891 366.61461914 -228.62963867 366.62744141 C-227.45079102 366.63195312 -226.27194336 366.63646484 -225.05737305 366.64111328 C-222.14391079 366.65290868 -219.23055004 366.6693687 -216.31713867 366.68994141 C-216.30779297 366.1050293 -216.29844727 365.52011719 -216.28881836 364.91748047 C-216.23500588 362.25745561 -216.15138418 359.59916918 -216.06713867 356.93994141 C-216.05295898 356.01955078 -216.0387793 355.09916016 -216.02416992 354.15087891 C-215.78035409 347.42156202 -215.78035409 347.42156202 -213.64526367 344.04931641 C-211.31713867 342.68994141 -211.31713867 342.68994141 -205.31713867 342.68994141 C-205.31713867 293.18994141 -205.31713867 243.68994141 -205.31713867 192.68994141 C-207.29713867 192.68994141 -209.27713867 192.68994141 -211.31713867 192.68994141 C-213.9246305 191.06906811 -215.05239905 189.78227042 -215.78198242 186.77197266 C-217.64572517 172.3471144 -217.64572517 172.3471144 -215.31713867 167.68994141 C-216.13915771 167.71088867 -216.96117676 167.73183594 -217.80810547 167.75341797 C-221.54015831 167.8366745 -225.27201561 167.88863387 -229.00463867 167.93994141 C-230.29821289 167.97345703 -231.59178711 168.00697266 -232.92456055 168.04150391 C-234.17172852 168.05439453 -235.41889648 168.06728516 -236.70385742 168.08056641 C-237.85072021 168.10151367 -238.99758301 168.12246094 -240.17919922 168.14404297 C-244.20430864 167.56155612 -245.71727242 166.84393625 -248.31713867 163.68994141 C-249.04046455 160.46849986 -248.99411978 157.32388838 -248.94604492 154.03369141 C-248.94845688 153.09440796 -248.95086884 152.15512451 -248.95335388 151.18737793 C-248.95237541 149.20365167 -248.93898172 147.21989811 -248.9140625 145.23632812 C-248.87975675 142.20039081 -248.89340223 139.16736454 -248.9128418 136.13134766 C-248.90594322 134.20294985 -248.89627073 132.27455956 -248.88354492 130.34619141 C-248.89098473 128.98512268 -248.89098473 128.98512268 -248.89857483 127.59655762 C-248.78205853 121.35973109 -248.78205853 121.35973109 -246.60571289 118.22436523 C-244.15621381 116.58204587 -241.8987746 115.51002334 -239.13354492 114.48291016 C-230.88650878 111.20734087 -223.11798939 107.09343398 -215.25463867 103.00244141 C-213.78415098 102.2422589 -212.31344852 101.4824917 -210.8425293 100.72314453 C-204.8097979 97.60405276 -198.78291744 94.47512207 -192.78833008 91.28320312 C-179.27945906 84.09808421 -165.55533989 77.39377236 -151.78735352 70.72167969 C-139.87548672 64.94383707 -128.05357996 59.04964292 -116.36401367 52.83349609 C-111.64126889 50.32270076 -106.86689148 47.92467557 -102.06713867 45.56494141 C-96.32483247 42.72076708 -90.63253434 39.81644848 -85.00463867 36.75244141 C-78.43011437 33.19013882 -71.70378315 30.00616907 -64.93334961 26.83544922 C-57.55208628 23.33459452 -50.29024686 19.63264663 -43.03979492 15.86962891 C-42.03682373 15.35056473 -41.03385254 14.83150055 -40.00048828 14.29670715 C-35.89258196 12.17028243 -31.78497331 10.04379342 -27.69012451 7.89230347 C-24.77821362 6.36242697 -21.85897996 4.84739312 -18.93823242 3.33447266 C-18.05780777 2.86625092 -17.17738312 2.39802917 -16.27027893 1.9156189 C-10.30150538 -1.15415237 -6.51999464 -2.57498279 0 0 Z " fill="#35363C" transform="translate(256.317138671875,9.31005859375)"/>
<path d="M0 0 C85.8 0 171.6 0 260 0 C260.33 6.27 260.66 12.54 261 19 C264.78687933 23.56186359 264.78687933 23.56186359 271 24 C271 74.16 271 124.32 271 176 C268.69 176.33 266.38 176.66 264 177 C259.14116927 182.70465815 259.14116927 182.70465815 260 200 C235.91 200 211.82 200 187 200 C186.99742187 194.41578125 186.99484375 188.8315625 186.9921875 183.078125 C186.97724093 179.5415835 186.96053907 176.0052254 186.9375 172.46875 C186.90109378 166.8546983 186.87121103 161.24113974 186.87988281 155.62695312 C186.88646754 151.1008055 186.86404083 146.57564819 186.82144547 142.04970551 C186.8102988 140.3225736 186.8096282 138.59534144 186.81957626 136.86820221 C186.8317246 134.4491207 186.80671941 132.03307343 186.77294922 129.61425781 C186.78517014 128.89928131 186.79739105 128.18430481 186.8099823 127.44766235 C186.81674289 125.18138402 186.81674289 125.18138402 186 122 C183.09878424 119.63365885 183.09878424 119.63365885 180 118 C179.23950195 115.57397461 179.23950195 115.57397461 179.23828125 112.90234375 C179.23505859 111.93619141 179.23183594 110.97003906 179.22851562 109.97460938 C179.27008789 108.47124023 179.27008789 108.47124023 179.3125 106.9375 C179.29026367 105.42833008 179.29026367 105.42833008 179.26757812 103.88867188 C179.29866905 101.15084157 179.39673688 98.67126075 180 96 C182.48046875 93.94140625 182.48046875 93.94140625 185 93 C186.99778712 89.00442575 186.22876505 83.95548005 186.25 79.5625 C186.270625 78.49966797 186.29125 77.43683594 186.3125 76.34179688 C186.31765625 75.32279297 186.3228125 74.30378906 186.328125 73.25390625 C186.34214355 71.85120483 186.34214355 71.85120483 186.35644531 70.42016602 C185.92490418 67.49011994 185.29708331 66.80500772 183 65 C180.97139316 64.55394076 180.97139316 64.55394076 178.70445251 64.6257782 C177.82814682 64.61876389 176.95184113 64.61174957 176.04898071 64.60452271 C175.09043182 64.61216644 174.13188293 64.61981018 173.14428711 64.62768555 C172.13269028 64.62403488 171.12109344 64.62038422 170.07884216 64.61662292 C166.72817303 64.60850317 163.37798529 64.62213872 160.02734375 64.63671875 C157.704717 64.63723714 155.38208981 64.63672025 153.0594635 64.63520813 C148.18955952 64.63529792 143.31982087 64.64574105 138.44995117 64.66381836 C132.19608852 64.68651822 125.94246731 64.68704799 119.68857479 64.68030071 C114.8923171 64.67696547 110.09611483 64.68358223 105.29986763 64.69342995 C102.9932948 64.69728897 100.68671582 64.69842727 98.3801403 64.6968441 C95.16207927 64.69647481 91.94433238 64.70905508 88.72631836 64.7253418 C87.76574524 64.72286438 86.80517212 64.72038696 85.81549072 64.71783447 C84.94200485 64.72491928 84.06851898 64.73200409 83.16856384 64.73930359 C82.02677626 64.74238289 82.02677626 64.74238289 80.86192226 64.74552441 C78.75440718 64.8423655 78.75440718 64.8423655 77 67 C76.6850896 69.44165142 76.6850896 69.44165142 76.7215271 72.32766724 C76.71036362 73.45791321 76.69920013 74.58815918 76.68769836 75.75265503 C76.68445808 77.62136765 76.68445808 77.62136765 76.68115234 79.52783203 C76.67110672 80.83510254 76.6610611 82.14237305 76.65071106 83.48925781 C76.62334414 87.07992141 76.60824196 90.67054563 76.59528303 94.26128626 C76.57968163 98.01162911 76.55288196 101.7618912 76.5272522 105.51217651 C76.48041126 112.61652265 76.44369296 119.72088389 76.41057932 126.82530582 C76.36525944 136.42363906 76.30436783 146.02187255 76.24433136 155.62012291 C76.15012753 170.74669868 76.07678527 185.87330257 76 201 C50.92 201 25.84 201 0 201 C-0.33 194.4 -0.66 187.8 -1 181 C-3.55968595 176.66435785 -3.55968595 176.66435785 -7.6875 176.25 C-8.780625 176.1675 -9.87375 176.085 -11 176 C-11.00146656 175.45646976 -11.00293312 174.91293951 -11.00444412 174.35293865 C-11.0414818 161.13293171 -11.1007091 147.91318498 -11.18390274 134.69338512 C-11.22346131 128.30038086 -11.25560868 121.90751606 -11.27099609 115.5144043 C-11.28610742 109.34805988 -11.32045461 103.18209869 -11.36830902 97.01592445 C-11.38317993 94.65996946 -11.39104426 92.30395977 -11.39188385 89.94795799 C-11.39423806 86.65523484 -11.42119364 83.36358425 -11.45410156 80.07104492 C-11.4490712 79.09065247 -11.44404083 78.11026001 -11.43885803 77.10015869 C-11.45277084 76.20413437 -11.46668365 75.30811005 -11.48101807 74.38493347 C-11.48470524 73.6060184 -11.48839241 72.82710333 -11.49219131 72.02458477 C-11.8498246 69.82322777 -11.8498246 69.82322777 -13.87228012 68.24937916 C-16.51228772 66.69918898 -17.98506347 66.53616361 -21 67 C-23.04603332 68.5707477 -23.89821879 69.46443437 -24.38476086 72.02458477 C-24.38936982 72.80349984 -24.39397879 73.58241491 -24.39872742 74.38493347 C-24.41126556 75.28095779 -24.42380371 76.17698212 -24.4367218 77.10015869 C-24.43528671 78.08055115 -24.43385162 79.0609436 -24.43237305 80.07104492 C-24.4425647 81.10536148 -24.45275635 82.13967804 -24.46325684 83.20533752 C-24.49349573 86.63043559 -24.50266956 90.05525449 -24.51171875 93.48046875 C-24.52855732 95.85273679 -24.54670644 98.22499587 -24.56611633 100.59724426 C-24.61371146 106.84598997 -24.64345937 113.09469934 -24.66955566 119.34356689 C-24.69931317 125.71804993 -24.74585998 132.09240761 -24.79101562 138.46679688 C-24.87715712 150.9778136 -24.942903 163.48881697 -25 176 C-34.9 176 -44.8 176 -55 176 C-55 125.84 -55 75.68 -55 24 C-45.1 24 -35.2 24 -25 24 C-24.625 32.375 -24.625 32.375 -24.52197266 35.00927734 C-24.45208915 39.47543818 -24.45208915 39.47543818 -22 43 C-18.54213985 43.50007794 -18.54213985 43.50007794 -15 43 C-11.9160631 40.17425316 -11.59872103 37.39636095 -11.38085938 33.31640625 C-11.35830078 32.63449219 -11.33574219 31.95257813 -11.3125 31.25 C-11.27833984 30.55261719 -11.24417969 29.85523438 -11.20898438 29.13671875 C-11.12691705 27.42502892 -11.06177081 25.7125424 -11 24 C-7.97265625 23.36523438 -7.97265625 23.36523438 -4.9453125 22.73046875 C-2.62953451 22.07691162 -2.62953451 22.07691162 -1 19 C-0.67 12.73 -0.34 6.46 0 0 Z " fill="#DBDBF2" transform="translate(120,177)"/>
<path d="M0 0 C0 0.66 0 1.32 0 2 C0.84087158 2.25668457 1.68174316 2.51336914 2.5480957 2.77783203 C6.27164641 4.09617808 9.72477255 5.75542427 13.23046875 7.5546875 C14.65400308 8.27597481 16.0776738 8.99699299 17.50146484 9.71777344 C18.23911072 10.09268921 18.97675659 10.46760498 19.73675537 10.85388184 C23.49808372 12.75863693 27.27525099 14.63141505 31.05078125 16.5078125 C32.58930487 17.27451456 34.1277158 18.04144279 35.66601562 18.80859375 C37.99954118 19.97228384 40.33335565 21.13537055 42.66821289 22.29638672 C50.78040419 26.33098586 58.8679258 30.37597425 66.78833008 34.77978516 C70.84831527 37.01974608 74.94471107 39.20052445 79.26953125 40.8828125 C82.70740507 42.28943898 86.00124414 43.94810192 89.3125 45.625 C90.73170371 46.339977 92.15097666 47.05481659 93.5703125 47.76953125 C94.66134277 48.31988037 94.66134277 48.31988037 95.77441406 48.88134766 C97.98927997 49.99461176 100.20856423 51.09849816 102.4296875 52.19921875 C103.50029419 52.73071533 103.50029419 52.73071533 104.5925293 53.27294922 C105.9552759 53.9491612 107.31868589 54.62403847 108.68286133 55.29736328 C111.4429226 56.67044656 114.11388531 58.07146385 116.7265625 59.7109375 C119.91682937 61.51985171 122.40262846 61.33937467 126 61 C128.5654594 58.4345406 128.54046087 56.52313332 129 53 C129.33 53 129.66 53 130 53 C130 54.98 130 56.96 130 59 C130.6909375 59.09796875 131.381875 59.1959375 132.09375 59.296875 C136.70061583 60.41143931 140.66998868 62.81172299 144.84375 65.015625 C147.98792147 66.40215029 147.98792147 66.40215029 150.6640625 64.62109375 C151.43492187 64.08613281 152.20578125 63.55117187 153 63 C159.12514506 64.28430461 164.42246458 67.12547677 169.9375 70 C170.60056152 70.34393799 171.26362305 70.68787598 171.94677734 71.04223633 C175.17815754 72.78378106 176.92810045 73.89215068 179 77 C179.04640625 78.44246094 179.04640625 78.44246094 179.09375 79.9140625 C179.66190421 83.01170701 179.66190421 83.01170701 181.65234375 84.19824219 C184.68781799 85.73129592 187.78350552 87.07404917 190.91796875 88.390625 C193.18522429 89.4453415 195.09433449 90.37585326 197 92 C197.5078125 93.93066406 197.5078125 93.93066406 197.59375 96.0390625 C197.7278125 97.34617187 197.861875 98.65328125 198 100 C200.44678932 101.77694586 202.29672908 102.82377766 205 104 C206.2808775 104.6905572 207.55567791 105.39250272 208.82421875 106.10546875 C210.11139166 106.8005682 211.39915483 107.49457571 212.6875 108.1875 C213.66299805 108.72020508 213.66299805 108.72020508 214.65820312 109.26367188 C217.81422706 110.95910981 220.49715852 112.12428963 224 113 C224 121.58 224 130.16 224 139 C73.52 139 -76.96 139 -232 139 C-232 130.75 -232 122.5 -232 114 C-222.05187593 108.71984184 -212.08765449 103.50813768 -202 98.5 C-195.11993219 95.08393428 -188.28390917 91.60330357 -181.5 88 C-171.92960801 82.91993356 -162.24499281 78.08008923 -152.54052734 73.26220703 C-148.89846501 71.45272575 -145.26172275 69.63268034 -141.625 67.8125 C-139.08341598 66.54150136 -136.54170145 65.27076379 -134 64 C-132.81970215 63.40985107 -131.6394043 62.81970215 -130.42333984 62.21166992 C-118.3264974 56.1632487 -106.22965495 50.11482747 -94.1328125 44.06640625 C-92.93625786 43.46812515 -92.93625786 43.46812515 -91.7155304 42.85775757 C-90.11689555 42.05844522 -88.5182526 41.25914909 -86.91960144 40.45986938 C-83.22656654 38.61343549 -79.53363563 36.76679471 -75.84106445 34.91943359 C-69.82144018 31.90817757 -63.8006142 28.8994201 -57.77493286 25.90029907 C-36.05516013 15.09822315 -36.05516013 15.09822315 -14.546875 3.8828125 C-13.64122803 3.4024353 -13.64122803 3.4024353 -12.71728516 2.91235352 C-11.04029608 2.02140836 -9.36774219 1.12213085 -7.6953125 0.22265625 C-4.59101523 -1.18552497 -3.19270446 -1.0329338 0 0 Z " fill="#E8E7F8" transform="translate(254,24)"/>
<path d="M0 0 C48.51 0 97.02 0 147 0 C147 28.05 147 56.1 147 85 C123.6875 85.3125 123.6875 85.3125 116.3347168 85.38793945 C114.41453081 85.42022011 112.49436274 85.4535925 110.57421875 85.48828125 C109.5747522 85.49452515 108.57528564 85.50076904 107.54553223 85.50720215 C106.11473328 85.53711243 106.11473328 85.53711243 104.6550293 85.56762695 C103.82674118 85.57873001 102.99845306 85.58983307 102.14506531 85.60127258 C99.49357805 86.09413434 98.58833608 86.84647188 97 89 C96.71399811 92.43202271 96.90809958 94.72429875 98 98 C97.34 98 96.68 98 96 98 C95.67 96.35 95.34 94.7 95 93 C88.07 93 81.14 93 74 93 C73.67 94.65 73.34 96.3 73 98 C68.13759896 101.24160069 62.77875536 100.40979602 57.0625 100.4375 C55.27295898 100.48680664 55.27295898 100.48680664 53.44726562 100.53710938 C52.30064453 100.54419922 51.15402344 100.55128906 49.97265625 100.55859375 C48.39883179 100.57877563 48.39883179 100.57877563 46.79321289 100.59936523 C44 100 44 100 41.62670898 97.59008789 C40 95 40 95 40 93 C33.07 93 26.14 93 19 93 C18.34 91.35 17.68 89.7 17 88 C11.89662421 85.44831211 5.69311026 86.37954068 0 86 C0 57.62 0 29.24 0 0 Z " fill="#EBEAFC" transform="translate(330,392)"/>
<path d="M0 0 C49.17 0 98.34 0 149 0 C149 28.71 149 57.42 149 87 C99.83 87 50.66 87 0 87 C0 58.29 0 29.58 0 0 Z " fill="#E9E8F9" transform="translate(22,391)"/>
<path d="M0 0 C1.2065192 0.60040885 2.40655509 1.2139699 3.60083008 1.83837891 C4.25052765 2.16612808 4.90022522 2.49387726 5.5696106 2.83155823 C7.67592201 3.89788328 9.77299987 4.98113441 11.87036133 6.06494141 C13.33691128 6.81143103 14.80395598 7.55694943 16.27148438 8.30151367 C24.25728804 12.36409254 32.19280523 16.51750401 40.08984375 20.75 C48.34134315 25.12378986 56.77354815 29.13131441 65.18286133 33.18994141 C76.66951737 38.73503756 88.0684371 44.37663976 99.30151367 50.42285156 C102.14233389 51.93442188 104.99941388 53.41271249 107.85864258 54.88916016 C109.44854004 55.71130005 109.44854004 55.71130005 111.07055664 56.55004883 C113.14540945 57.62177955 115.22153059 58.69105932 117.29907227 59.75756836 C118.69754395 60.48206177 118.69754395 60.48206177 120.12426758 61.22119141 C120.95643799 61.64980469 121.7886084 62.07841797 122.64599609 62.52001953 C124.68286133 63.68994141 124.68286133 63.68994141 126.68286133 65.68994141 C127.23525775 72.65013637 127.23525775 72.65013637 125.62036133 75.68994141 C122.6040535 77.24674545 119.95360547 77.25956333 116.68286133 76.68994141 C112.83522289 75.12654483 109.25007708 73.13823496 105.62036133 71.12744141 C103.55697251 70.01729794 101.49317187 68.90791956 99.42895508 67.79931641 C98.43750488 67.26113281 97.44605469 66.72294922 96.42456055 66.16845703 C87.25114429 61.22151056 77.83393913 56.77866715 68.35083008 52.46337891 C65.77715025 51.25433503 63.30335891 49.93431717 60.83129883 48.52978516 C53.41417026 44.35612689 45.73869005 40.66591015 38.12036133 36.87744141 C36.56232418 36.10093815 35.00438089 35.32424656 33.4465332 34.54736328 C30.3680528 33.01242416 27.28907614 31.4784875 24.2097168 29.9453125 C17.3630925 26.53553778 10.52320224 23.1122979 3.68286133 19.68994141 C1.68288962 18.68988482 -0.31710035 17.68986477 -2.31713867 16.68994141 C-2.31713867 16.02994141 -2.31713867 15.36994141 -2.31713867 14.68994141 C-8.87794502 15.12912107 -13.78711022 17.6176654 -19.56713867 20.62744141 C-20.54021973 21.12397217 -21.51330078 21.62050293 -22.51586914 22.13208008 C-29.27684424 25.59409153 -35.99402872 29.1397584 -42.70214844 32.70288086 C-53.28373254 38.29948955 -64.02666716 43.58262531 -74.74462891 48.91162109 C-78.53674551 50.79925708 -82.32578205 52.69296309 -86.11401367 54.58837891 C-90.95860963 57.01232453 -95.80515069 59.43228049 -100.65486145 61.84597778 C-103.51268683 63.26852795 -106.36965719 64.69279064 -109.2265625 66.1171875 C-110.6633811 66.83307149 -112.10055664 67.54823951 -113.53808594 68.26269531 C-121.12067776 72.03209607 -128.66938679 75.84361862 -136.12573242 79.85791016 C-142.4394541 83.25633656 -148.83462862 86.43903302 -155.31713867 89.50244141 C-156.28780273 89.96585937 -157.2584668 90.42927734 -158.25854492 90.90673828 C-160.93873344 92.18119527 -163.62538728 93.44012387 -166.31713867 94.68994141 C-167.0106543 95.01655762 -167.70416992 95.34317383 -168.41870117 95.6796875 C-171.7150606 97.17795299 -173.60205661 97.68994141 -177.31713867 97.68994141 C-177.31713867 97.02994141 -177.31713867 96.36994141 -177.31713867 95.68994141 C-179.29713867 96.18494141 -179.29713867 96.18494141 -181.31713867 96.68994141 C-180.98713867 95.69994141 -180.65713867 94.70994141 -180.31713867 93.68994141 C-182.94152846 91.94034822 -184.28261495 91.06925687 -187.31713867 90.68994141 C-188.80213867 91.67994141 -188.80213867 91.67994141 -190.31713867 92.68994141 C-192.50463867 92.31494141 -192.50463867 92.31494141 -194.31713867 91.68994141 C-188.79809935 88.91552524 -183.27714606 86.14494801 -177.75463867 83.37744141 C-176.93037384 82.96433716 -176.10610901 82.55123291 -175.25686646 82.12561035 C-165.63166096 77.30509532 -155.99259367 72.52971507 -146.25463867 67.93994141 C-134.665873 62.46214862 -123.32081123 56.53590644 -111.96362305 50.59619141 C-79.10669797 33.41359904 -79.10669797 33.41359904 -64.11914062 26.42822266 C-57.02671067 23.08102523 -50.06285724 19.51300486 -43.10229492 15.90087891 C-42.09537598 15.37984085 -41.08845703 14.8588028 -40.05102539 14.32197571 C-34.91823199 11.66547789 -29.79235591 8.99690613 -24.67602539 6.30883789 C-22.76371063 5.31683727 -20.85112428 4.32536 -18.93823242 3.33447266 C-17.61771629 2.63220047 -17.61771629 2.63220047 -16.27052307 1.91574097 C-10.30165463 -1.15407078 -6.52011004 -2.57502837 0 0 Z " fill="#3B3B41" transform="translate(256.317138671875,9.31005859375)"/>
<path d="M0 0 C9.9 0 19.8 0 30 0 C30.25 8.3125 30.25 8.3125 30.29785156 10.91918945 C30.40869985 15.37552718 30.40869985 15.37552718 32.859375 18.91796875 C33.56578125 19.27503906 34.2721875 19.63210937 35 20 C35.99 20.66 36.98 21.32 38 22 C38.34057617 24.06298828 38.34057617 24.06298828 38.29296875 26.5703125 C38.2784668 27.91416016 38.2784668 27.91416016 38.26367188 29.28515625 C38.23853516 30.22230469 38.21339844 31.15945312 38.1875 32.125 C38.16719727 33.54232422 38.16719727 33.54232422 38.14648438 34.98828125 C38.11106306 37.32608779 38.06167271 39.66276237 38 42 C37.21625 42.28875 36.4325 42.5775 35.625 42.875 C32.90328368 43.84912254 32.90328368 43.84912254 31 46 C30.6868532 47.9718232 30.6868532 47.9718232 30.7215271 50.26467896 C30.71036362 51.15932861 30.69920013 52.05397827 30.68769836 52.97573853 C30.68553818 53.95972626 30.68337799 54.94371399 30.68115234 55.95751953 C30.67110672 56.99169006 30.6610611 58.0258606 30.65071106 59.09136963 C30.61973221 62.52184474 30.60280311 65.95224131 30.5859375 69.3828125 C30.56723768 71.75650719 30.54766518 74.13019516 30.5272522 76.50387573 C30.47579972 82.76084435 30.4362443 89.01783455 30.39910889 95.27490234 C30.35915129 101.65597937 30.30802145 108.03696561 30.2578125 114.41796875 C30.16089793 126.94525524 30.07757503 139.4725788 30 152 C20.1 152 10.2 152 0 152 C0 101.84 0 51.68 0 0 Z " fill="#E8E7F8" transform="translate(65,201)"/>
<path d="M0 0 C9.9 0 19.8 0 30 0 C30 50.16 30 100.32 30 152 C20.1 152 10.2 152 0 152 C0 101.84 0 51.68 0 0 Z " fill="#E8E7F8" transform="translate(405,201)"/>
<path d="M0 0 C11.55 0 23.1 0 35 0 C35.495 6.435 35.495 6.435 36 13 C36.495 14.485 36.495 14.485 37 16 C39.475 16.99 39.475 16.99 42 18 C42 25.26 42 32.52 42 40 C40.35 40.66 38.7 41.32 37 42 C35.48878976 45.02242048 35.82077909 48.16152831 35.79467773 51.47900391 C35.78477814 52.24982803 35.77487854 53.02065216 35.76467896 53.81483459 C35.7330317 56.3687124 35.70829383 58.92260882 35.68359375 61.4765625 C35.663027 63.24490855 35.64203061 65.01324965 35.62062073 66.78158569 C35.56537119 71.44059243 35.51597464 76.09964375 35.46777344 80.75872803 C35.40875762 86.34631233 35.34251381 91.93381499 35.27747345 97.52133179 C35.17942767 106.01417142 35.09059647 114.50706291 35 123 C23.45 123 11.9 123 0 123 C0 82.41 0 41.82 0 0 Z " fill="#686DAC" transform="translate(258,255)"/>
<path d="M0 0 C11.55 0 23.1 0 35 0 C35 40.92 35 81.84 35 124 C23.45 124 11.9 124 0 124 C0 83.08 0 42.16 0 0 Z " fill="#686DAB" transform="translate(209,254)"/>
<path d="M0 0 C43.56 0 87.12 0 132 0 C132 3.96 132 7.92 132 12 C130.88135559 12.01030746 129.76271118 12.02061493 128.61016846 12.03123474 C118.07460018 12.12893664 107.53909139 12.23166776 97.00362015 12.33933926 C91.58706949 12.39453379 86.17051341 12.44794832 80.75390625 12.49731445 C75.52785281 12.54500908 70.30186484 12.59735385 65.07588959 12.65294075 C63.08079404 12.67334117 61.08568056 12.69205807 59.09055328 12.70907402 C56.29890961 12.73316914 53.50738933 12.76321685 50.71582031 12.79467773 C49.47504227 12.80331093 49.47504227 12.80331093 48.209198 12.81211853 C44.64450019 12.85786504 41.43134957 13.04249982 38 14 C36.80011955 19.28199593 36.80011955 19.28199593 39 24 C41.98757271 24.31587913 44.77206548 24.43735192 47.76416016 24.43237305 C48.67153427 24.4425647 49.57890839 24.45275635 50.51377869 24.46325684 C53.52226829 24.49352601 56.53044026 24.50267397 59.5390625 24.51171875 C61.62129791 24.52855512 63.70352309 24.54670393 65.78573608 24.56611633 C71.27332361 24.61373561 76.76086969 24.64346773 82.24859619 24.66955566 C87.84550161 24.69930114 93.44226401 24.74585201 99.0390625 24.79101562 C110.02596704 24.87718438 121.01290091 24.94446916 132 25 C132 28.96 132 32.92 132 37 C88.44 37 44.88 37 0 37 C0 33.04 0 29.08 0 25 C2.5390625 24.8046875 5.078125 24.609375 7.6171875 24.4140625 C10.17941903 24.20431868 10.17941903 24.20431868 12 22 C12.21676408 18.60402937 12.08073852 16.24221555 11 13 C7.37 12.67 3.74 12.34 0 12 C0 8.04 0 4.08 0 0 Z " fill="#686EAD" transform="translate(184,391)"/>
<path d="M0 0 C6.29072852 3.84146947 11.69127906 8.60071851 14.31640625 15.6171875 C16.73415455 26.05673647 14.72374842 35.02879719 9.15625 43.9765625 C3.44397274 49.53016539 -3.61254208 53.40141081 -11.65625 53.6640625 C-19.49934532 53.50932819 -26.42110457 50.74978141 -32.07421875 45.23046875 C-33.61559852 43.27805437 -34.87594546 41.33047269 -36.09375 39.1640625 C-36.7125 38.1328125 -37.33125 37.1015625 -37.96875 36.0390625 C-40.41741511 29.71334429 -40.38827883 20.6427924 -38.03125 14.2890625 C-29.74665876 0.92681857 -15.68577716 -7.11177185 0 0 Z " fill="#32333A" transform="translate(262.09375,41.8359375)"/>
<path d="M0 0 C43.56 0 87.12 0 132 0 C132 3.96 132 7.92 132 12 C130.88135559 12.01030746 129.76271118 12.02061493 128.61016846 12.03123474 C118.07460018 12.12893664 107.53909139 12.23166776 97.00362015 12.33933926 C91.58706949 12.39453379 86.17051341 12.44794832 80.75390625 12.49731445 C75.52785281 12.54500908 70.30186484 12.59735385 65.07588959 12.65294075 C63.08079404 12.67334117 61.08568056 12.69205807 59.09055328 12.70907402 C56.29890961 12.73316914 53.50738933 12.76321685 50.71582031 12.79467773 C49.47504227 12.80331093 49.47504227 12.80331093 48.209198 12.81211853 C42.99486777 12.78033546 42.99486777 12.78033546 38 14 C37.34 15.32 36.68 16.64 36 18 C28.74 18 21.48 18 14 18 C13.67 18.99 13.34 19.98 13 21 C12.34 18.36 11.68 15.72 11 13 C7.37 12.67 3.74 12.34 0 12 C0 8.04 0 4.08 0 0 Z " fill="#4B538E" transform="translate(184,391)"/>
<path d="M0 0 C0.69275528 -0.0038269 1.38551056 -0.00765381 2.09925842 -0.01159668 C3.56089739 -0.01431212 5.02258526 -0.00697639 6.48413086 0.00976562 C8.71253779 0.03115289 10.93770961 0.00997357 13.16601562 -0.015625 C14.58985082 -0.01298102 16.01368401 -0.00785457 17.4375 0 C18.72648193 0.00451172 20.01546387 0.00902344 21.34350586 0.01367188 C25.33161966 0.61343078 27.00550298 1.65207868 29.78515625 4.53125 C30.41015625 7.53125 30.41015625 7.53125 29.78515625 10.53125 C27.53565397 13.24431566 25.73835118 14.4130074 22.21875 14.84960938 C19.12744919 14.92525629 16.06325538 14.87942419 12.97265625 14.78125 C11.89822266 14.76320313 10.82378906 14.74515625 9.71679688 14.7265625 C7.0720016 14.67954392 4.42904036 14.6138416 1.78515625 14.53125 C1.78515625 16.18125 1.78515625 17.83125 1.78515625 19.53125 C2.89375 19.48484375 4.00234375 19.4384375 5.14453125 19.390625 C6.60804593 19.35309898 8.07158981 19.31669971 9.53515625 19.28125 C10.26476562 19.24773437 10.994375 19.21421875 11.74609375 19.1796875 C15.30136257 19.11504625 17.36777797 19.23377076 20.30078125 21.32421875 C21.78515625 23.53125 21.78515625 23.53125 21.78515625 27.09375 C20.78515625 30.53125 20.78515625 30.53125 19.17578125 32.234375 C15.86530205 34.03025587 13.27431362 33.82261548 9.53515625 33.71875 C8.271875 33.69167969 7.00859375 33.66460937 5.70703125 33.63671875 C4.7428125 33.60191406 3.77859375 33.56710938 2.78515625 33.53125 C2.78515625 34.85125 2.78515625 36.17125 2.78515625 37.53125 C3.42541748 37.51030273 4.06567871 37.48935547 4.7253418 37.46777344 C7.640952 37.38435716 10.55631077 37.33251031 13.47265625 37.28125 C14.98375977 37.23097656 14.98375977 37.23097656 16.52539062 37.1796875 C23.98029528 37.08127292 23.98029528 37.08127292 27.9921875 39.32421875 C29.78515625 41.53125 29.78515625 41.53125 29.78515625 45.09375 C28.44239843 49.70948001 28.44239843 49.70948001 25.78515625 51.53125 C23.16322169 51.84155476 20.78306133 51.97555571 18.16015625 51.96484375 C17.04519775 51.97270653 17.04519775 51.97270653 15.90771484 51.98072815 C14.3375778 51.98714608 12.76739267 51.98581424 11.19726562 51.97729492 C8.79340189 51.96877921 6.39191045 51.99755361 3.98828125 52.02929688 C2.4622403 52.03090886 0.93619513 52.0303314 -0.58984375 52.02734375 C-1.30865723 52.03857773 -2.0274707 52.04981171 -2.76806641 52.06138611 C-5.73087992 52.01995173 -7.73975678 51.87913147 -10.16430664 50.10375977 C-11.8080985 46.07851347 -11.66237568 42.18316339 -11.6484375 37.875 C-11.65367935 36.93571655 -11.6589212 35.99643311 -11.6643219 35.02868652 C-11.67073845 33.0450133 -11.66940985 31.06130202 -11.66088867 29.07763672 C-11.65237378 26.04195511 -11.68115299 23.00815222 -11.71289062 19.97265625 C-11.71450262 18.0442714 -11.71392514 16.11588321 -11.7109375 14.1875 C-11.72217148 13.28012085 -11.73340546 12.3727417 -11.74497986 11.43786621 C-11.70290462 7.63587312 -11.65190311 5.2422143 -9.63476562 1.9609375 C-6.31026343 -0.00317518 -3.85233105 0.01349581 0 0 Z " fill="#34353B" transform="translate(265.21484375,102.46875)"/>
<path d="M0 0 C0.76550171 -0.00524185 1.53100342 -0.0104837 2.31970215 -0.0158844 C3.93691801 -0.02230307 5.55418056 -0.02096955 7.17138672 -0.01245117 C9.64765347 -0.00393581 12.12161719 -0.03270903 14.59765625 -0.06445312 C16.16927014 -0.06606511 17.74088812 -0.06548766 19.3125 -0.0625 C20.05318726 -0.07373398 20.79387451 -0.08496796 21.55700684 -0.09654236 C24.66489614 -0.05433875 26.65507221 0.03020827 29.11938477 2.01367188 C31.2740714 7.04245783 30.63377051 12.7407415 30.60229492 18.13256836 C30.59378928 20.36080433 30.62254942 22.58647056 30.65429688 24.81445312 C30.6559093 26.23828049 30.65533057 27.66211236 30.65234375 29.0859375 C30.65512329 31.0194104 30.65512329 31.0194104 30.65795898 32.99194336 C30.05908993 37.10009765 29.3142265 38.73679514 26.15625 41.43359375 C23.45314155 41.93241837 21.38448662 42.11442429 18.6875 42.0625 C17.6115155 42.06611794 17.6115155 42.06611794 16.51379395 42.06980896 C15.00083881 42.06883173 13.48784738 42.05546716 11.97509766 42.03051758 C9.66314893 41.99619617 7.35502242 42.00986165 5.04296875 42.02929688 C3.57029628 42.0223981 2.09763365 42.01272542 0.625 42 C-0.06364136 42.00495987 -0.75228271 42.00991974 -1.46179199 42.01502991 C-4.60920192 41.93804829 -6.60842128 41.58360785 -9.27954102 39.88085938 C-11.41705827 36.53663072 -11.40036744 33.55577871 -11.33984375 29.7109375 C-11.34129898 28.96904678 -11.34275421 28.22715607 -11.34425354 27.46278381 C-11.34259733 25.89857037 -11.33106695 24.33434017 -11.31030273 22.77026367 C-11.28130259 20.37543668 -11.28970644 17.98281833 -11.30273438 15.58789062 C-11.29649788 14.06639549 -11.28810762 12.54490734 -11.27734375 11.0234375 C-11.28027939 10.30776108 -11.28321503 9.59208466 -11.28623962 8.85472107 C-11.23430969 6.12164811 -11.10449395 3.92327912 -9.80688477 1.48632812 C-6.67619538 -0.19250941 -3.46664922 -0.01373971 0 0 Z " fill="#313239" transform="translate(276.84375,187.56640625)"/>
<path d="M0 0 C2.64847945 -0.31693662 5.05903731 -0.44407564 7.7109375 -0.43359375 C8.47548248 -0.4388356 9.24002747 -0.44407745 10.02774048 -0.44947815 C11.6467365 -0.45590659 13.26577918 -0.4545507 14.88476562 -0.44604492 C17.35892416 -0.43755516 19.83075853 -0.46624767 22.3046875 -0.49804688 C23.87760347 -0.49965952 25.45052353 -0.49908015 27.0234375 -0.49609375 C28.13143204 -0.51294472 28.13143204 -0.51294472 29.2618103 -0.53013611 C32.55038986 -0.48568166 34.6736523 -0.20916244 37.46533203 1.58007812 C39.57086005 4.90015348 39.517523 7.29652138 39.53125 11.21484375 C39.5350769 11.90759903 39.53890381 12.60035431 39.54284668 13.31410217 C39.54556212 14.77574114 39.53822639 16.23742901 39.52148438 17.69897461 C39.50009711 19.92738154 39.52127643 22.15255336 39.546875 24.38085938 C39.54423102 25.80469457 39.53910457 27.22852776 39.53125 28.65234375 C39.52673828 29.94132568 39.52222656 31.23030762 39.51757812 32.55834961 C38.8997909 36.66634322 38.16909272 38.30881392 35 41 C32.2179353 41.4977256 30.0537998 41.68048717 27.27734375 41.62890625 C26.53545303 41.63131821 25.79356232 41.63373016 25.02919006 41.63621521 C23.46496216 41.63523793 21.90069916 41.62187232 20.33666992 41.59692383 C17.94135356 41.56255529 15.54971581 41.57628014 13.15429688 41.59570312 C11.63279679 41.58880592 10.11130622 41.57913465 8.58984375 41.56640625 C7.87416733 41.57136612 7.15849091 41.57632599 6.42112732 41.58143616 C3.39092403 41.5095524 1.45672146 41.36336609 -0.95166016 39.44726562 C-2.40180216 36.06202495 -2.4099738 32.89549321 -2.36328125 29.27734375 C-2.36377975 28.53545303 -2.36427826 27.79356232 -2.36479187 27.02919006 C-2.36245674 25.46498935 -2.35276122 23.90078451 -2.33618164 22.33666992 C-2.31254644 19.94220431 -2.31562979 17.54884985 -2.32226562 15.15429688 C-2.31668983 13.63280586 -2.30958057 12.11131953 -2.30078125 10.58984375 C-2.30169266 9.87416733 -2.30260406 9.15849091 -2.30354309 8.42112732 C-2.25091856 4.73560293 -2.09965388 3.14948082 0 0 Z " fill="#31323A" transform="translate(198,188)"/>
<path d="M0 0 C3.55187732 0.88238462 4.89639779 2.72270443 7.234375 5.4921875 C8.01296875 6.39710937 8.7915625 7.30203125 9.59375 8.234375 C11.484375 10.6171875 11.484375 10.6171875 12.484375 12.6171875 C16.12967892 11.14458128 17.85288692 9.18859113 20.171875 6.0546875 C20.77386719 5.24902344 21.37585938 4.44335938 21.99609375 3.61328125 C22.48722656 2.95457031 22.97835937 2.29585938 23.484375 1.6171875 C23.814375 1.2871875 24.144375 0.9571875 24.484375 0.6171875 C30.7808266 1.08359132 30.7808266 1.08359132 33.18469238 2.9067688 C34.78129247 5.0079392 34.87385458 6.11464781 34.90429688 8.73388672 C34.92020874 9.55839325 34.93612061 10.38289978 34.95251465 11.23239136 C34.95271606 12.11992096 34.95291748 13.00745056 34.953125 13.921875 C34.96454529 15.29607101 34.96454529 15.29607101 34.97619629 16.69802856 C34.98700263 18.63638585 34.98984822 20.5748014 34.98535156 22.51318359 C34.98438076 25.47462584 35.02596302 28.43346428 35.0703125 31.39453125 C35.07552071 33.27864043 35.07820767 35.16275862 35.078125 37.046875 C35.1027179 38.37209671 35.1027179 38.37209671 35.12780762 39.72409058 C35.07776844 44.19171185 34.93235354 46.0406498 32.10742188 49.67626953 C29.484375 51.6171875 29.484375 51.6171875 26.921875 52.2421875 C23.34347267 51.32464844 22.45020467 49.70982263 20.484375 46.6171875 C19.88372562 43.8479001 19.78995874 41.13187857 19.734375 38.3046875 C19.70472656 37.56412109 19.67507812 36.82355469 19.64453125 36.06054688 C19.57431655 34.24666704 19.52702452 32.43192472 19.484375 30.6171875 C18.824375 31.2771875 18.164375 31.9371875 17.484375 32.6171875 C14.046875 32.9296875 14.046875 32.9296875 10.484375 32.6171875 C8.76171875 31.09765625 8.76171875 31.09765625 7.484375 29.6171875 C7.44699219 30.88175781 7.40960938 32.14632812 7.37109375 33.44921875 C7.30543667 35.1094048 7.23898924 36.76955972 7.171875 38.4296875 C7.13803711 39.67975586 7.13803711 39.67975586 7.10351562 40.95507812 C7.06806641 41.75751953 7.03261719 42.55996094 6.99609375 43.38671875 C6.96990967 44.12510986 6.94372559 44.86350098 6.91674805 45.62426758 C6.36652229 48.16040132 5.54600056 49.06999629 3.484375 50.6171875 C-0.24437628 51.09175584 -2.52093183 51.27813275 -5.70288086 49.16381836 C-8.39870213 45.37659793 -8.10823312 41.97939281 -8.08203125 37.43359375 C-8.08822983 36.54107407 -8.09442841 35.64855438 -8.10081482 34.72898865 C-8.10791034 32.84366953 -8.10474361 30.95828772 -8.09204102 29.07299805 C-8.07818744 26.19267025 -8.11223282 23.31559966 -8.15039062 20.43554688 C-8.15134198 18.60156171 -8.14948211 16.76757248 -8.14453125 14.93359375 C-8.15778946 14.07512344 -8.17104767 13.21665314 -8.18470764 12.33216858 C-8.11633835 7.92684057 -7.93560713 6.15381937 -5.13354492 2.57348633 C-2.515625 0.6171875 -2.515625 0.6171875 0 0 Z " fill="#323239" transform="translate(114.515625,102.3828125)"/>
<path d="M0 0 C43.89 0 87.78 0 133 0 C133 3.96 133 7.92 133 12 C89.11 12 45.22 12 0 12 C0 8.04 0 4.08 0 0 Z " fill="#4A528D" transform="translate(184,441)"/>
<path d="M0 0 C4.39641618 1.3825509 6.37526639 3.61580118 9.02734375 7.19140625 C9.47271484 7.75923828 9.91808594 8.32707031 10.37695312 8.91210938 C11.46508979 10.30445629 12.52992009 11.71496383 13.58984375 13.12890625 C14.15832031 12.27425781 14.72679687 11.41960937 15.3125 10.5390625 C16.09134416 9.42240642 16.87135431 8.30656297 17.65234375 7.19140625 C18.02294922 6.62744141 18.39355469 6.06347656 18.77539062 5.48242188 C21.02307279 2.32811162 22.40549224 1.18415099 26.1484375 0.0625 C29.58984375 0.12890625 29.58984375 0.12890625 31.77832031 1.04931641 C34.73375767 4.44209477 34.10104218 8.12343062 34.015625 12.46875 C34.01233688 13.38725235 34.00904877 14.3057547 34.00566101 15.25209045 C33.99523665 17.19474364 33.97528077 19.13736554 33.9465332 21.07983398 C33.90256513 24.05144384 33.88511273 27.02224614 33.87304688 29.99414062 C33.85961801 31.88152204 33.84469372 33.76889353 33.828125 35.65625 C33.82073807 36.54489243 33.81335114 37.43353485 33.80574036 38.34910583 C33.79290512 39.17999222 33.78006989 40.0108786 33.7668457 40.86694336 C33.7570015 41.59513779 33.74715729 42.32333221 33.73701477 43.07359314 C33.58295252 45.22514552 33.2880744 47.08617161 32.58984375 49.12890625 C29.54000379 50.65382623 26.94750685 50.36453173 23.58984375 50.12890625 C21.51376024 48.59245455 20.708419 47.67545045 20.1574707 45.13598633 C20.13128662 44.39759521 20.10510254 43.6592041 20.078125 42.8984375 C20.02495117 41.69477539 20.02495117 41.69477539 19.97070312 40.46679688 C19.94814453 39.63341797 19.92558594 38.80003906 19.90234375 37.94140625 C19.86818359 37.09642578 19.83402344 36.25144531 19.79882812 35.38085938 C19.71642904 33.29733976 19.6514573 31.21314409 19.58984375 29.12890625 C19.16832031 29.61746094 18.74679687 30.10601562 18.3125 30.609375 C16.58984375 32.12890625 16.58984375 32.12890625 13.02734375 32.44140625 C9.58984375 32.12890625 9.58984375 32.12890625 7.58984375 30.12890625 C7.56857422 31.77439453 7.56857422 31.77439453 7.546875 33.453125 C7.49995667 34.90759323 7.45170937 36.36201902 7.40234375 37.81640625 C7.39654297 38.53763672 7.39074219 39.25886719 7.38476562 40.00195312 C7.21415729 44.15342252 6.89512994 45.74829619 4.19921875 49.109375 C1.58984375 51.12890625 1.58984375 51.12890625 -0.97265625 51.75390625 C-4.59577734 50.82490084 -5.459268 49.29960611 -7.41015625 46.12890625 C-7.99347293 42.94830379 -7.97108387 39.82047101 -7.94140625 36.59375 C-7.94523315 35.67807755 -7.94906006 34.76240509 -7.95300293 33.81898499 C-7.95571853 31.8883453 -7.94838199 29.95766861 -7.93164062 28.02709961 C-7.91020099 25.07257177 -7.93146647 22.12046871 -7.95703125 19.16601562 C-7.95438839 17.28775505 -7.94926428 15.40949599 -7.94140625 13.53125 C-7.94950317 12.64888168 -7.9576001 11.76651337 -7.96594238 10.85740662 C-7.87307249 4.78499921 -7.87307249 4.78499921 -5.59008789 1.54931641 C-3.41015625 0.12890625 -3.41015625 0.12890625 0 0 Z " fill="#33343A" transform="translate(358.41015625,102.87109375)"/>
<path d="M0 0 C43.56 0 87.12 0 132 0 C132 3.96 132 7.92 132 12 C88.44 12 44.88 12 0 12 C0 8.04 0 4.08 0 0 Z " fill="#656AA6" transform="translate(184,466)"/>
<path d="M0 0 C1.19753906 -0.02900391 2.39507812 -0.05800781 3.62890625 -0.08789062 C4.78003906 -0.09626953 5.93117187 -0.10464844 7.1171875 -0.11328125 C8.17276855 -0.12786377 9.22834961 -0.14244629 10.31591797 -0.1574707 C13.82682233 0.42991769 14.98438523 1.51884306 17.125 4.3125 C17.625 7.3125 17.625 7.3125 17.125 10.3125 C15.0598803 12.95199229 13.90119105 14.17510798 10.55957031 14.76660156 C9.14562988 14.73518066 9.14562988 14.73518066 7.703125 14.703125 C6.16591797 14.68378906 6.16591797 14.68378906 4.59765625 14.6640625 C3.00244141 14.61378906 3.00244141 14.61378906 1.375 14.5625 C0.29605469 14.54445313 -0.78289062 14.52640625 -1.89453125 14.5078125 C-4.55558788 14.46071415 -7.21484254 14.394956 -9.875 14.3125 C-9.545 15.6325 -9.215 16.9525 -8.875 18.3125 C-7.87339844 18.33828125 -6.87179688 18.3640625 -5.83984375 18.390625 C8.04338629 18.90843479 8.04338629 18.90843479 13.125 23.3125 C16.88553717 28.42094055 17.9167722 33.07729394 17.125 39.3125 C14.96768889 44.61588981 12.49122492 47.34232125 7.6171875 50.27172852 C2.70572791 52.32282102 -2.38118929 52.02906829 -7.625 51.9375 C-9.30916016 51.96650391 -9.30916016 51.96650391 -11.02734375 51.99609375 C-19.14499863 51.94760119 -19.14499863 51.94760119 -22.609375 48.93359375 C-24.02898119 45.99360686 -24.53247013 44.51766687 -23.875 41.3125 C-21.7991625 38.70243081 -20.63867803 37.44767712 -17.30957031 36.85839844 C-16.36694336 36.8793457 -15.42431641 36.90029297 -14.453125 36.921875 C-12.91591797 36.94121094 -12.91591797 36.94121094 -11.34765625 36.9609375 C-9.75244141 37.01121094 -9.75244141 37.01121094 -8.125 37.0625 C-7.04605469 37.08054688 -5.96710938 37.09859375 -4.85546875 37.1171875 C-2.19441212 37.16428585 0.46484254 37.230044 3.125 37.3125 C3.125 35.6625 3.125 34.0125 3.125 32.3125 C1.38863281 32.38210937 1.38863281 32.38210937 -0.3828125 32.453125 C-1.92184906 32.49066248 -3.4609137 32.52706051 -5 32.5625 C-5.76054687 32.59601563 -6.52109375 32.62953125 -7.3046875 32.6640625 C-12.65479742 32.75630577 -15.663995 31.914685 -19.875 28.3125 C-22.65921952 24.76894788 -24.11327954 20.74286794 -24.375 16.25 C-23.63249756 10.40279327 -21.69894462 6.96273561 -17.25 2.9375 C-11.85572401 -0.75332042 -6.38184752 0.05119129 0 0 Z " fill="#34353B" transform="translate(228.875,102.6875)"/>
<path d="M0 0 C3.74825959 0.82278869 5.14844189 2.6321877 7.5625 5.5625 C8.19360352 8.75708008 8.19360352 8.75708008 8.19140625 12.33203125 C8.19333984 13.63333984 8.19527344 14.93464844 8.19726562 16.27539062 C8.18477783 16.94932861 8.17229004 17.6232666 8.15942383 18.31762695 C8.12525675 20.35965495 8.13873538 22.39731105 8.15820312 24.43945312 C8.09920821 32.40376703 7.87567649 38.95167837 2.1862793 45.03369141 C-3.6571817 50.2632035 -8.94429903 52.21463128 -16.6875 51.97265625 C-22.77008541 51.06545246 -26.77211121 47.77214564 -30.375 42.9375 C-33.31088609 38.13332276 -33.55781855 35.040544 -33.53515625 29.48828125 C-33.5337413 28.8044487 -33.53232635 28.12061615 -33.53086853 27.4160614 C-33.52527876 25.23566278 -33.51272822 23.05536749 -33.5 20.875 C-33.49498367 19.39518378 -33.490421 17.91536594 -33.48632812 16.43554688 C-33.47531271 12.81116443 -33.45805512 9.1868423 -33.4375 5.5625 C-32.7775 5.5625 -32.1175 5.5625 -31.4375 5.5625 C-30.7775 4.2425 -30.1175 2.9225 -29.4375 1.5625 C-23.98719319 1.19914621 -23.98719319 1.19914621 -21.76806641 2.66601562 C-19.81465169 5.45025885 -20.01762651 7.71821913 -19.9609375 11.09375 C-19.93 12.37894531 -19.8990625 13.66414063 -19.8671875 14.98828125 C-19.84820277 16.34634381 -19.82998188 17.70441726 -19.8125 19.0625 C-19.76437367 21.71894681 -19.707051 24.37499286 -19.6484375 27.03125 C-19.63087402 28.21138672 -19.61331055 29.39152344 -19.59521484 30.60742188 C-19.56537905 33.62089339 -19.56537905 33.62089339 -18.4375 36.5625 C-15.1375 36.5625 -11.8375 36.5625 -8.4375 36.5625 C-7.31807474 33.20422423 -7.29547604 30.60460782 -7.26171875 27.06640625 C-7.23787109 25.78572266 -7.21402344 24.50503906 -7.18945312 23.18554688 C-7.15432808 21.15345255 -7.12497995 19.12196079 -7.11157227 17.08959961 C-7.09607469 15.1233145 -7.05421907 13.15729308 -7.01171875 11.19140625 C-6.99713623 10.01650635 -6.98255371 8.84160645 -6.9675293 7.63110352 C-6.21684633 3.28502605 -4.34357267 1.00236292 0 0 Z " fill="#323339" transform="translate(336.4375,102.4375)"/>
<path d="M0 0 C4.49162037 1.3066532 4.49162037 1.3066532 6.4375 4 C6.82226562 6.73974609 6.82226562 6.73974609 6.84375 10.0234375 C6.86566406 11.209375 6.88757813 12.3953125 6.91015625 13.6171875 C6.91917969 14.85726562 6.92820313 16.09734375 6.9375 17.375 C6.95540599 19.82044662 6.98616687 22.26584092 7.03125 24.7109375 C7.03833984 25.79681152 7.04542969 26.88268555 7.05273438 28.00146484 C7.48177686 31.34505609 8.52057988 33.26108931 10.4375 36 C13.86980448 35.73606499 13.86980448 35.73606499 17.4375 35 C19.79616121 31.46200818 19.70067183 29.8817542 19.74609375 25.6875 C19.77123047 24.44742188 19.79636719 23.20734375 19.82226562 21.9296875 C19.85742121 19.30994533 19.88867142 16.69014784 19.91601562 14.0703125 C19.94244141 12.83023438 19.96886719 11.59015625 19.99609375 10.3125 C20.00954834 9.17425781 20.02300293 8.03601563 20.03686523 6.86328125 C20.4375 4 20.4375 4 21.74633789 2.12890625 C24.60048021 0.22367251 27.12716341 0.64532108 30.4375 1 C32.12915039 2.09887695 32.12915039 2.09887695 33.4375 4 C34.00879588 8.32562459 33.90991293 12.67281267 33.88354492 17.03149414 C33.87509601 19.16327437 33.90368904 21.29231694 33.93554688 23.42382812 C33.97799429 31.5292012 33.8489118 38.30105323 28.02539062 44.50415039 C22.65611797 49.32944904 17.95265968 50.43607487 10.92578125 50.23828125 C4.00067745 49.57512374 0.28934105 46.24204203 -4.08203125 41.23046875 C-8.59794832 34.42680477 -7.92949674 26.77668886 -7.9375 18.9375 C-7.96199219 17.67099609 -7.98648438 16.40449219 -8.01171875 15.09960938 C-8.01751953 13.26946289 -8.01751953 13.26946289 -8.0234375 11.40234375 C-8.03165527 10.29366943 -8.03987305 9.18499512 -8.04833984 8.04272461 C-7.22306413 2.87417626 -5.36793199 0 0 0 Z " fill="#313238" transform="translate(163.5625,103)"/>
<path d="M0 0 C7.24487049 -0.02464113 14.48971682 -0.0428318 21.73461914 -0.05493164 C24.20142033 -0.05997356 26.66821852 -0.06680691 29.13500977 -0.07543945 C32.67204529 -0.08751125 36.20904145 -0.09322956 39.74609375 -0.09765625 C40.85649521 -0.10281754 41.96689667 -0.10797882 43.11094666 -0.11329651 C44.64242088 -0.11340981 44.64242088 -0.11340981 46.20483398 -0.11352539 C47.10862289 -0.115746 48.0124118 -0.11796661 48.94358826 -0.12025452 C51 0 51 0 52 1 C52.09823937 2.66429051 52.12973631 4.33281931 52.125 6 C52.12886719 7.36125 52.12886719 7.36125 52.1328125 8.75 C52 11 52 11 51 12 C49.40389018 12.09333705 47.80366572 12.11745372 46.20483398 12.11352539 C45.18385117 12.11344986 44.16286835 12.11337433 43.11094666 12.11329651 C42.0005452 12.10813522 40.89014374 12.10297394 39.74609375 12.09765625 C38.61551041 12.0962413 37.48492706 12.09482635 36.32008362 12.09336853 C32.69252935 12.08775019 29.06503576 12.07519458 25.4375 12.0625 C22.98502693 12.05748736 20.5325529 12.05292405 18.08007812 12.04882812 C12.05336187 12.0377748 6.02669124 12.02049788 0 12 C0 8.04 0 4.08 0 0 Z " fill="#CFD1FA" transform="translate(394,176)"/>
<path d="M0 0 C1.35568336 0.00333092 1.35568336 0.00333092 2.73875427 0.00672913 C3.75973709 0.00680466 4.78071991 0.00688019 5.8326416 0.00695801 C6.94304306 0.01211929 8.05344452 0.01728058 9.19749451 0.02259827 C10.89336952 0.02472069 10.89336952 0.02472069 12.62350464 0.02688599 C16.25105891 0.03250433 19.8785525 0.04505994 23.50608826 0.05775452 C25.95856133 0.06276715 28.41103536 0.06733047 30.86351013 0.07142639 C36.89022639 0.08247972 42.91689702 0.09975664 48.94358826 0.12025452 C48.94358826 4.08025452 48.94358826 8.04025452 48.94358826 12.12025452 C41.69871776 12.14489564 34.45387143 12.16308631 27.20896912 12.17518616 C24.74216792 12.18022808 22.27536973 12.18706142 19.80857849 12.19569397 C16.27154297 12.20776576 12.7345468 12.21348408 9.19749451 12.21791077 C8.08709305 12.22307205 6.97669159 12.22823334 5.8326416 12.23355103 C4.30116737 12.23366432 4.30116737 12.23366432 2.73875427 12.23377991 C1.38307091 12.23711082 1.38307091 12.23711082 0 12.24050903 C-2.05641174 12.12025452 -2.05641174 12.12025452 -3.05641174 11.12025452 C-3.15465111 9.455964 -3.18614805 7.78743521 -3.18141174 6.12025452 C-3.18398987 5.21275452 -3.18656799 4.30525452 -3.18922424 3.37025452 C-3.01740744 0.45947566 -2.90836445 0.17007487 0 0 Z " fill="#BFC1E6" transform="translate(57.05641174316406,175.87974548339844)"/>
<path d="M0 0 C3.91922461 2.6721986 6.20179624 5.28048391 7.203125 10.01953125 C7.54296484 14.5533037 6.90620164 17.27194978 4 20.8125 C0.6017546 24.44244395 -2.15402021 25.76893744 -7.125 26.25 C-12.62261486 26.09672078 -15.69519236 23.30705966 -19.625 19.6875 C-21.9279472 15.70162985 -22.02739718 12.37279796 -21.25 7.875 C-19.44672394 4.12973434 -17.92282723 2.33374584 -14.5 0 C-9.26797201 -1.81108661 -5.23202799 -1.81108661 0 0 Z " fill="#CCCDF5" transform="translate(257.25,55.125)"/>
<path d="M0 0 C17.16 0 34.32 0 52 0 C52 3.63 52 7.26 52 11 C34.84 11 17.68 11 0 11 C0 7.37 0 3.74 0 0 Z " fill="#C7C8EE" transform="translate(394,367)"/>
<path d="M0 0 C17.16 0 34.32 0 52 0 C52 3.63 52 7.26 52 11 C34.84 11 17.68 11 0 11 C0 7.37 0 3.74 0 0 Z " fill="#C7C8EE" transform="translate(54,367)"/>
<path d="M0 0 C3.2010014 0.95492201 6.05773636 2.30403964 9 3.875 C9.75531006 4.27195068 10.51062012 4.66890137 11.28881836 5.07788086 C14.69128031 7.03888692 16.62935878 8.20482611 18.31640625 11.82421875 C18.54544201 14.37269598 18.50680407 16.49732836 18 19 C14.25612168 21.49591888 11.33433035 21.59823794 7 21 C4.08644176 20.03063432 1.45210487 18.69865698 -1.25 17.25 C-1.94351562 16.90195313 -2.63703125 16.55390625 -3.3515625 16.1953125 C-7.12898322 14.2414742 -10.26418635 12.34377224 -13 9 C-13.64744805 5.76275975 -13.30414195 4.48927182 -11.5625 1.6875 C-7.77875385 -0.80423527 -4.42375375 -0.52907381 0 0 Z " fill="#3E3E44" transform="translate(414,89)"/>
<path d="M0 0 C0.41473981 0.48677625 0.82947962 0.97355249 1.2567873 1.47507954 C4.2388278 4.08369671 8.09473287 3.43869427 11.87768555 3.43237305 C12.78520569 3.4425647 13.69272583 3.45275635 14.62774658 3.46325684 C17.63079936 3.49347833 20.63353365 3.50266678 23.63671875 3.51171875 C25.7175249 3.52855864 27.79832084 3.54670794 29.87910461 3.56611633 C35.35845752 3.6136973 40.83776902 3.64345431 46.31726074 3.66955566 C51.90755392 3.69932035 57.49770429 3.74586469 63.08789062 3.79101562 C74.05851918 3.87714087 85.02917705 3.94444513 96 4 C96 7.96 96 11.92 96 16 C52.44 16 8.88 16 -36 16 C-36 12.04 -36 8.08 -36 4 C-33.36 4 -30.72 4 -28 4 C-28 4.33 -28 4.66 -28 5 C-30.31 5 -32.62 5 -35 5 C-35 7.97 -35 10.94 -35 14 C7.57 14 50.14 14 94 14 C94.33 11.03 94.66 8.06 95 5 C63.98 5 32.96 5 1 5 C0.505 2.525 0.505 2.525 0 0 Z " fill="#5F6191" transform="translate(220,412)"/>
<path d="M0 0 C1.14984375 0.00064453 2.2996875 0.00128906 3.484375 0.00195312 C4.68578125 0.01806641 5.8871875 0.03417969 7.125 0.05078125 C8.32640625 0.04755859 9.5278125 0.04433594 10.765625 0.04101562 C19.72446075 0.09625508 19.72446075 0.09625508 23.125 2.36328125 C23.74150485 7.91182494 23.74150485 7.91182494 23.125 10.36328125 C20.02358162 13.30538788 17.83815022 13.73965781 13.625 13.7265625 C12.573125 13.72591797 11.52125 13.72527344 10.4375 13.72460938 C9.344375 13.70849609 8.25125 13.69238281 7.125 13.67578125 C6.031875 13.67900391 4.93875 13.68222656 3.8125 13.68554688 C-5.05595659 13.62577174 -5.05595659 13.62577174 -8.875 11.36328125 C-9.24319517 3.87664606 -9.24319517 3.87664606 -7.72387695 1.75830078 C-5.11575121 -0.20958916 -3.24279653 -0.00916744 0 0 Z " fill="#313137" transform="translate(379.875,477.63671875)"/>
<path d="M0 0 C1.03833984 0.27457031 1.03833984 0.27457031 2.09765625 0.5546875 C3.9375 1.125 3.9375 1.125 5.9375 2.125 C5.6075 4.105 5.2775 6.085 4.9375 8.125 C5.2675 7.465 5.5975 6.805 5.9375 6.125 C7.2575 6.785 8.5775 7.445 9.9375 8.125 C9.6075 9.775 9.2775 11.425 8.9375 13.125 C8.2775 13.125 7.6175 13.125 6.9375 13.125 C6.9375 14.115 6.9375 15.105 6.9375 16.125 C3.65649462 17.18650174 2.27797439 17.27303235 -0.9375 15.875 C-1.96875 15.2975 -3 14.72 -4.0625 14.125 C-5.32940081 13.61511795 -6.60030344 13.11506739 -7.875 12.625 C-8.926875 12.13 -9.97875 11.635 -11.0625 11.125 C-11.3925 10.135 -11.7225 9.145 -12.0625 8.125 C-11.0725 8.125 -10.0825 8.125 -9.0625 8.125 C-9.289375 7.361875 -9.51625 6.59875 -9.75 5.8125 C-10.0625 3.125 -10.0625 3.125 -8.8125 1.375 C-5.64038191 -0.89079864 -3.61023509 -0.98522303 0 0 Z " fill="#36373C" transform="translate(340.0625,52.875)"/>
<path d="M0 0 C4.62 0 9.24 0 14 0 C14 4.62 14 9.24 14 14 C9.38 14 4.76 14 0 14 C0 9.38 0 4.76 0 0 Z " fill="#686B98" transform="translate(279,201)"/>
<path d="M0 0 C4.62 0 9.24 0 14 0 C14 4.62 14 9.24 14 14 C9.38 14 4.76 14 0 14 C0 9.38 0 4.76 0 0 Z " fill="#676BA4" transform="translate(209,201)"/>
<path d="M0 0 C16.83 0 33.66 0 51 0 C51 0.33 51 0.66 51 1 C34.5 1 18 1 1 1 C1.33 3.64 1.66 6.28 2 9 C2.58437836 9.00808685 3.16875671 9.01617371 3.77084351 9.02450562 C9.83768975 9.11037564 15.90420259 9.20987075 21.97070312 9.31738281 C24.23659682 9.35573271 26.50255265 9.39057483 28.76855469 9.421875 C32.02040867 9.46739527 35.2718326 9.52541076 38.5234375 9.5859375 C39.54118256 9.59748871 40.55892761 9.60903992 41.60751343 9.62094116 C42.54833771 9.64081085 43.48916199 9.66068054 44.45849609 9.68115234 C45.28900482 9.69447601 46.11951355 9.70779968 46.97518921 9.7215271 C49 10 49 10 51 12 C34.17 12 17.34 12 0 12 C0 8.04 0 4.08 0 0 Z " fill="#9293AD" transform="translate(394,176)"/>
<path d="M0 0 C3 2 3 2 3.39440918 3.84603882 C3.40282837 4.59342316 3.41124756 5.3408075 3.41992188 6.11083984 C3.43583374 6.95867035 3.45174561 7.80650085 3.46813965 8.68002319 C3.46834106 9.59772491 3.46854248 10.51542664 3.46875 11.4609375 C3.48017029 12.87410751 3.48017029 12.87410751 3.49182129 14.31582642 C3.50263972 16.31143541 3.50546834 18.30710111 3.50097656 20.30273438 C3.5000059 23.35643199 3.54157198 26.40760414 3.5859375 29.4609375 C3.59114555 31.39843225 3.59383268 33.33593575 3.59375 35.2734375 C3.6183429 36.64391739 3.6183429 36.64391739 3.64343262 38.04208374 C3.57520351 44.30476259 3.57520351 44.30476259 0.86254883 47.58349609 C-2.49567893 49.24528181 -4.65775011 49.46146445 -8.39453125 49.390625 C-9.59658203 49.37773437 -10.79863281 49.36484375 -12.03710938 49.3515625 C-13.28298828 49.31804687 -14.52886719 49.28453125 -15.8125 49.25 C-17.07771484 49.23195312 -18.34292969 49.21390625 -19.64648438 49.1953125 C-22.76464737 49.14824589 -25.88242038 49.07650502 -29 49 C-29 54.94 -29 60.88 -29 67 C-29.33 67 -29.66 67 -30 67 C-30 60.73 -30 54.46 -30 48 C-28.30230469 47.96261719 -26.60460937 47.92523438 -24.85546875 47.88671875 C-22.63279 47.82107001 -20.41013474 47.7546223 -18.1875 47.6875 C-17.06794922 47.66494141 -15.94839844 47.64238281 -14.79492188 47.61914062 C-13.72177734 47.58369141 -12.64863281 47.54824219 -11.54296875 47.51171875 C-10.55321045 47.48553467 -9.56345215 47.45935059 -8.54370117 47.43237305 C-5.59719868 46.93153267 -4.88232577 46.23596862 -3 44 C-2.01 43.34 -1.02 42.68 0 42 C0.35032821 39.06170804 0.51319713 36.32477621 0.546875 33.37890625 C0.56719788 32.52320541 0.58752075 31.66750458 0.60845947 30.78587341 C0.6487043 28.9744952 0.68185685 27.16294774 0.70849609 25.35131836 C0.74978766 22.57676824 0.81240592 19.80334596 0.87890625 17.02929688 C0.91531652 15.27085885 0.95051318 13.51239519 0.984375 11.75390625 C1.0019989 10.92258682 1.0196228 10.0912674 1.03778076 9.23475647 C1.08281761 5.88667655 1.06693534 3.20080602 0 0 Z " fill="#9E9DA0" transform="translate(489,128)"/>
<path d="M0 0 C0.66 0.33 1.32 0.66 2 1 C1.125 4.875 1.125 4.875 0 6 C-0.09740827 7.33389989 -0.12631553 8.67289384 -0.12698364 10.01034546 C-0.12980347 10.87404251 -0.13262329 11.73773956 -0.13552856 12.62760925 C-0.13350433 13.58242691 -0.1314801 14.53724457 -0.12939453 15.52099609 C-0.13114685 16.52094101 -0.13289917 17.52088593 -0.13470459 18.5511322 C-0.139126 21.87525134 -0.13618366 25.19931777 -0.1328125 28.5234375 C-0.13348556 30.82410696 -0.13445561 33.12477634 -0.13571167 35.42544556 C-0.13718912 40.25596796 -0.13503297 45.08647192 -0.13037109 49.91699219 C-0.12468017 56.11695008 -0.12794849 62.31686462 -0.13394356 68.51682091 C-0.13755334 73.27107064 -0.13640854 78.02531005 -0.13381577 82.77956009 C-0.13314732 85.06577179 -0.13397205 87.35198442 -0.13629532 89.63819504 C-0.13882795 92.83222692 -0.13497225 96.02618823 -0.12939453 99.22021484 C-0.13141876 100.17098404 -0.13344299 101.12175323 -0.13552856 102.10133362 C-0.13270874 102.97067032 -0.12988892 103.84000702 -0.12698364 104.73568726 C-0.12660662 105.49118048 -0.12622959 106.2466737 -0.12584114 107.02506065 C-0.07078465 109.21308099 -0.07078465 109.21308099 1 112 C0.34 112 -0.32 112 -1 112 C-2.16546533 109.66906934 -2.12815838 108.31374797 -2.13371277 105.71754456 C-2.13797775 104.81881622 -2.14224274 103.92008789 -2.14663696 102.99412537 C-2.14618378 102.00550003 -2.14573059 101.01687469 -2.14526367 99.99829102 C-2.14862228 98.95918579 -2.1519809 97.92008057 -2.15544128 96.8494873 C-2.16497119 93.40094826 -2.16689538 89.95245766 -2.16796875 86.50390625 C-2.17117977 84.11498494 -2.17454373 81.72606383 -2.17805481 79.33714294 C-2.18405109 74.32428532 -2.18589418 69.31144495 -2.18530273 64.29858398 C-2.18520105 57.86433475 -2.19885737 51.43019572 -2.21607494 44.99597263 C-2.22717423 40.06071969 -2.22922259 35.12549357 -2.22869301 30.19022942 C-2.2298761 27.81749021 -2.23431618 25.44475037 -2.24202538 23.07202339 C-2.25178401 19.7583041 -2.24896359 16.44482641 -2.24291992 13.13110352 C-2.24853943 12.14450241 -2.25415894 11.15790131 -2.25994873 10.1414032 C-2.25575424 9.23985504 -2.25155975 8.33830688 -2.24723816 7.40943909 C-2.24778293 6.62574731 -2.24832769 5.84205553 -2.24888897 5.03461552 C-2 3 -2 3 0 0 Z " fill="#D9DCDE" transform="translate(10,378)"/>
<path d="M0 0 C0.41473981 0.48677625 0.82947962 0.97355249 1.2567873 1.47507954 C4.2388278 4.08369671 8.09473287 3.43869427 11.87768555 3.43237305 C12.78520569 3.4425647 13.69272583 3.45275635 14.62774658 3.46325684 C17.63079936 3.49347833 20.63353365 3.50266678 23.63671875 3.51171875 C25.7175249 3.52855864 27.79832084 3.54670794 29.87910461 3.56611633 C35.35845752 3.6136973 40.83776902 3.64345431 46.31726074 3.66955566 C51.90755392 3.69932035 57.49770429 3.74586469 63.08789062 3.79101562 C74.05851918 3.87714087 85.02917705 3.94444513 96 4 C96 7.63 96 11.26 96 15 C95.67 15 95.34 15 95 15 C95 11.7 95 8.4 95 5 C63.98 5 32.96 5 1 5 C0.67 3.35 0.34 1.7 0 0 Z " fill="#5E618F" transform="translate(220,412)"/>
<path d="M0 0 C-1.32 0.33 -2.64 0.66 -4 1 C-4 1.99 -4 2.98 -4 4 C-4.99 4.33 -5.98 4.66 -7 5 C-7.33 18.86 -7.66 32.72 -8 47 C-8.66 46.67 -9.32 46.34 -10 46 C-10.12377604 40.25260242 -10.21442248 34.50598373 -10.2746582 28.75756836 C-10.29977281 26.80300377 -10.33387131 24.84853283 -10.37719727 22.89428711 C-10.43798434 20.08163332 -10.46623983 17.27022298 -10.48828125 14.45703125 C-10.51408768 13.58601273 -10.5398941 12.7149942 -10.56648254 11.81758118 C-10.56852926 7.37098729 -10.43565789 5.56827495 -7.64526367 1.9284668 C-4.74468582 -0.18613075 -3.49916095 -0.49988014 0 0 Z " fill="#666670" transform="translate(117,103)"/>
<path d="M0 0 C0.66 0.33 1.32 0.66 2 1 C1.525625 1.7425 1.05125 2.485 0.5625 3.25 C-2.07002341 7.88324119 -2.14034798 11.7541494 -2.20532227 17.06347656 C-2.22017166 18.11773834 -2.22017166 18.11773834 -2.23532104 19.19329834 C-2.26682784 21.50904 -2.29165049 23.82480215 -2.31640625 26.140625 C-2.33698513 27.74917118 -2.35798185 29.35771206 -2.37937927 30.96624756 C-2.43450348 35.1944957 -2.48395521 39.42279186 -2.53222656 43.65112305 C-2.58251216 47.96797954 -2.63816135 52.28476652 -2.69335938 56.6015625 C-2.80082286 65.06764951 -2.90229392 73.53379478 -3 82 C-3.33 82 -3.66 82 -4 82 C-4.0926561 71.89922487 -4.16374267 61.79855075 -4.20724869 51.69743729 C-4.22812886 47.00712327 -4.25645422 42.31709987 -4.30175781 37.62695312 C-4.34520044 33.10117484 -4.36913387 28.57567619 -4.37950897 24.04970551 C-4.38690321 22.32249295 -4.40134245 20.5952958 -4.42292023 18.86820221 C-4.45193394 16.44988361 -4.45595697 14.03272229 -4.45410156 11.61425781 C-4.46848267 10.89928131 -4.48286377 10.18430481 -4.49768066 9.44766235 C-4.468423 5.92629402 -4.23804293 4.29056093 -1.97161865 1.52410889 C-1.3209845 1.02115295 -0.67035034 0.51819702 0 0 Z " fill="#2E324D" transform="translate(297,295)"/>
<path d="M0 0 C0.66 0.33 1.32 0.66 2 1 C1.67 26.74 1.34 52.48 1 79 C-0.32 78.67 -1.64 78.34 -3 78 C-2.505 77.505 -2.505 77.505 -2 77 C-1.16189551 72.29327009 -0.88127073 67.76910793 -0.90234375 62.99487305 C-0.90380402 62.33382065 -0.90526428 61.67276825 -0.9067688 60.99168396 C-0.91054664 59.57034736 -0.91663286 58.14901533 -0.92483521 56.72769737 C-0.93768558 54.47924734 -0.94413554 52.23085679 -0.94897461 49.9823761 C-0.96035013 45.21739045 -0.97962209 40.45245452 -1 35.6875 C-1.02360024 30.14685744 -1.04396461 24.6062422 -1.05593872 19.06556129 C-1.0624287 16.84857597 -1.07493049 14.63167573 -1.08764648 12.41471863 C-1.09127718 11.06253128 -1.09462914 9.71034314 -1.09765625 8.3581543 C-1.10289307 7.17569626 -1.10812988 5.99323822 -1.11352539 4.77494812 C-1 2 -1 2 0 0 Z " fill="#6A6E99" transform="translate(292,298)"/>
<path d="M0 0 C0.92470553 4.71599818 1.22923777 7.67265609 -1 12 C-3.64 12 -6.28 12 -9 12 C-8.88590407 10.54077307 -8.75834456 9.08259402 -8.625 7.625 C-8.55539062 6.81289062 -8.48578125 6.00078125 -8.4140625 5.1640625 C-8 3 -8 3 -6 1 C-3.90200436 0.34437636 -2.19959601 0 0 0 Z " fill="#686EAE" transform="translate(290,202)"/>
<path d="M0 0 C1.02903442 0.03927612 1.02903442 0.03927612 2.07885742 0.0793457 C3.20517578 0.10351562 3.20517578 0.10351562 4.35424805 0.12817383 C5.50763672 0.19101563 5.50763672 0.19101563 6.68432617 0.25512695 C7.47258789 0.27768555 8.26084961 0.30024414 9.07299805 0.32348633 C11.00676546 0.38208534 12.93954785 0.47175868 14.87182617 0.56762695 C14.87182617 2.21762695 14.87182617 3.86762695 14.87182617 5.56762695 C7.61182617 5.56762695 0.35182617 5.56762695 -7.12817383 5.56762695 C-2.12817383 0.56762695 -2.12817383 0.56762695 0 0 Z " fill="#C9C9D6" transform="translate(217.128173828125,134.432373046875)"/>
<path d="M0 0 C-1.28519565 2.86697492 -2.57129254 4.97607712 -5 7 C-5.66 7 -6.32 7 -7 7 C-7 14.26 -7 21.52 -7 29 C-7.33 29 -7.66 29 -8 29 C-8.08692074 24.72929442 -8.14036515 20.45881542 -8.1875 16.1875 C-8.21263672 14.97255859 -8.23777344 13.75761719 -8.26367188 12.50585938 C-8.27333984 11.34248047 -8.28300781 10.17910156 -8.29296875 8.98046875 C-8.3086792 7.90692139 -8.32438965 6.83337402 -8.34057617 5.72729492 C-8 3 -8 3 -6.6496582 1.13793945 C-4.38699084 -0.42285566 -2.68342046 -0.21757463 0 0 Z " fill="#3C3C45" transform="translate(192,104)"/>
<path d="M0 0 C1.65172855 3.3034571 2.36856837 5.06431872 2.8125 8.5625 C2.92207031 9.32691406 3.03164063 10.09132812 3.14453125 10.87890625 C3 13 3 13 1.890625 14.7578125 C-0.80235885 16.52716966 -2.86863 16.36294995 -6.0625 16.3125 C-7.12597656 16.30863281 -8.18945312 16.30476563 -9.28515625 16.30078125 C-12 16 -12 16 -14 14 C-9.38 14 -4.76 14 0 14 C0 9.38 0 4.76 0 0 Z " fill="#30324A" transform="translate(293,201)"/>
<path d="M0 0 C1.2065625 0.0309375 1.2065625 0.0309375 2.4375 0.0625 C2.1075 0.68125 1.7775 1.3 1.4375 1.9375 C0.29556765 3.97268344 0.29556765 3.97268344 0.4375 6.0625 C-0.47 6.31 -1.3775 6.5575 -2.3125 6.8125 C-5.66601489 8.10231342 -7.23958236 9.38221042 -9.5625 12.0625 C-10.2225 11.7325 -10.8825 11.4025 -11.5625 11.0625 C-10.25073998 9.41607683 -8.9380713 7.77037757 -7.625 6.125 C-6.89410156 5.20847656 -6.16320312 4.29195313 -5.41015625 3.34765625 C-2.75780453 0.06726353 -2.75780453 0.06726353 0 0 Z " fill="#43434D" transform="translate(141.5625,102.9375)"/>
<path d="M0 0 C3.2578125 -0.29296875 3.2578125 -0.29296875 7.125 -0.1875 C9.04699219 -0.14689453 9.04699219 -0.14689453 11.0078125 -0.10546875 C11.99523437 -0.07066406 12.98265625 -0.03585938 14 0 C14 0.99 14 1.98 14 3 C8.72 3 3.44 3 -2 3 C-1.34 2.01 -0.68 1.02 0 0 Z " fill="#F0EFFC" transform="translate(218,136)"/>
<path d="M0 0 C0 0.66 0 1.32 0 2 C-0.99 2.495 -0.99 2.495 -2 3 C-2.33 3.99 -2.66 4.98 -3 6 C-4.093125 6.12375 -5.18625 6.2475 -6.3125 6.375 C-10.07381802 6.75464801 -10.07381802 6.75464801 -13 9 C-15.1875 8.625 -15.1875 8.625 -17 8 C-14.54429825 6.66161267 -12.08570084 5.32913768 -9.625 4 C-8.92632812 3.6184375 -8.22765625 3.236875 -7.5078125 2.84375 C-2.2265625 0 -2.2265625 0 0 0 Z " fill="#8C8C91" transform="translate(235,15)"/>
<path d="M0 0 C0.99 0.33 1.98 0.66 3 1 C2.67 1.99 2.34 2.98 2 4 C1.65772583 5.33106622 1.32248257 6.66400079 1 8 C-0.32 8.33 -1.64 8.66 -3 9 C-3.36923077 3.46153846 -3.36923077 3.46153846 -1.5 1.125 C-1.005 0.75375 -0.51 0.3825 0 0 Z " fill="#36363D" transform="translate(429,478)"/>
<path d="M0 0 C-0.33 1.32 -0.66 2.64 -1 4 C-2.11375 4.28875 -3.2275 4.5775 -4.375 4.875 C-8.00291092 5.69241329 -8.00291092 5.69241329 -10 8 C-10.99 7.34 -11.98 6.68 -13 6 C-11.21118264 4.99491199 -9.41885304 3.99607264 -7.625 3 C-6.62726563 2.443125 -5.62953125 1.88625 -4.6015625 1.3125 C-2 0 -2 0 0 0 Z " fill="#7E7E82" transform="translate(138,64)"/>
<path d="M0 0 C0 0.33 0 0.66 0 1 C-1.65 1.33 -3.3 1.66 -5 2 C-4.34 2.66 -3.68 3.32 -3 4 C-3.66 4 -4.32 4 -5 4 C-5 4.66 -5 5.32 -5 6 C-5.66 6.66 -6.32 7.32 -7 8 C-7.66 8.99 -8.32 9.98 -9 11 C-9.36180905 3.64321608 -9.36180905 3.64321608 -7.875 1 C-5.21065116 -0.42098605 -2.96508915 -0.19767261 0 0 Z " fill="#505157" transform="translate(460,113)"/>
<path d="M0 0 C0.78375 0.04125 1.5675 0.0825 2.375 0.125 C1.385 0.62 1.385 0.62 0.375 1.125 C0.375 2.775 0.375 4.425 0.375 6.125 C-0.615 5.795 -1.605 5.465 -2.625 5.125 C-4.76755793 5.51432856 -4.76755793 5.51432856 -6.625 6.125 C-3.85227273 0.18344156 -3.85227273 0.18344156 0 0 Z " fill="#484852" transform="translate(336.625,102.875)"/>
<path d="M0 0 C0.33 0 0.66 0 1 0 C0.25 6.75 0.25 6.75 -2 9 C-5.125 9.125 -5.125 9.125 -8 9 C-3 4 -3 4 -1 3 C-0.67 2.01 -0.34 1.02 0 0 Z " fill="#3B3B44" transform="translate(286,126)"/>
<path d="M0 0 C0.66 0.33 1.32 0.66 2 1 C0.125 4.875 0.125 4.875 -1 6 C-2.68608966 6.07205511 -4.37500659 6.08386068 -6.0625 6.0625 C-6.98160156 6.05347656 -7.90070313 6.04445313 -8.84765625 6.03515625 C-9.55792969 6.02355469 -10.26820313 6.01195312 -11 6 C-11 5.67 -11 5.34 -11 5 C-9.9275 4.87625 -8.855 4.7525 -7.75 4.625 C-4.62136385 4.10356064 -2.66519576 3.59911746 0 2 C0 1.34 0 0.68 0 0 Z " fill="#2F3146" transform="translate(195,410)"/>
<path d="M0 0 C0.99 0.33 1.98 0.66 3 1 C3 4.3 3 7.6 3 11 C2.01 11 1.02 11 0 11 C0 7.37 0 3.74 0 0 Z " fill="#2F3247" transform="translate(316,391)"/>
<path d="M0 0 C0.66 0.33 1.32 0.66 2 1 C1.125 4.875 1.125 4.875 0 6 C-0.23363881 7.84891946 -0.41303635 9.70488031 -0.5625 11.5625 C-0.64628906 12.57441406 -0.73007813 13.58632813 -0.81640625 14.62890625 C-0.87699219 15.41136719 -0.93757812 16.19382812 -1 17 C-1.33 17 -1.66 17 -2 17 C-2.05398987 14.72942623 -2.09278742 12.45848712 -2.125 10.1875 C-2.14820313 8.92292969 -2.17140625 7.65835937 -2.1953125 6.35546875 C-2 3 -2 3 0 0 Z " fill="#BCBEC0" transform="translate(10,378)"/>
<path d="M0 0 C2.475 0.99 2.475 0.99 5 2 C4.01 2.495 4.01 2.495 3 3 C3 3.66 3 4.32 3 5 C5.64 5 8.28 5 11 5 C11 5.33 11 5.66 11 6 C9.54257537 6.08096803 8.08387193 6.13917774 6.625 6.1875 C5.81289063 6.22230469 5.00078125 6.25710937 4.1640625 6.29296875 C3.44992188 6.19628906 2.73578125 6.09960938 2 6 C0 3 0 3 0 0 Z " fill="#636366" transform="translate(41,195)"/>
<path d="M0 0 C0 0.66 0 1.32 0 2 C-0.66 2 -1.32 2 -2 2 C-2.66 3.32 -3.32 4.64 -4 6 C-4.33 5.34 -4.66 4.68 -5 4 C-5.66 4 -6.32 4 -7 4 C-7.33 4.66 -7.66 5.32 -8 6 C-8.66 5.34 -9.32 4.68 -10 4 C-8.71086513 3.32845067 -7.41859796 2.66291141 -6.125 2 C-5.40570313 1.62875 -4.68640625 1.2575 -3.9453125 0.875 C-2 0 -2 0 0 0 Z " fill="#8F8F92" transform="translate(100,83)"/>
<path d="M0 0 C2.625 0.375 2.625 0.375 5 1 C5 1.66 5 2.32 5 3 C6.32 3.66 7.64 4.32 9 5 C7.02 5.33 5.04 5.66 3 6 C3 4.68 3 3.36 3 2 C1.35 2 -0.3 2 -2 2 C-1.34 1.34 -0.68 0.68 0 0 Z " fill="#CCCBD8" transform="translate(249,23)"/>
<path d="M0 0 C-0.66 1.65 -1.32 3.3 -2 5 C-2.66 4.34 -3.32 3.68 -4 3 C-4.99 3.495 -4.99 3.495 -6 4 C-6.33 3.01 -6.66 2.02 -7 1 C-3.375 -1.125 -3.375 -1.125 0 0 Z " fill="#E2E1EF" transform="translate(60,121)"/>
<path d="M0 0 C1.32 0.66 2.64 1.32 4 2 C3.01 2.495 3.01 2.495 2 3 C2 3.99 2 4.98 2 6 C2.66 6.33 3.32 6.66 4 7 C3.01 7.33 2.02 7.66 1 8 C1 7.01 1 6.02 1 5 C0.34 4.67 -0.32 4.34 -1 4 C-0.67 2.68 -0.34 1.36 0 0 Z " fill="#D2D1E6" transform="translate(194,224)"/>
<path d="M0 0 C0.66 0.33 1.32 0.66 2 1 C1.34 2.32 0.68 3.64 0 5 C-1.98 5 -3.96 5 -6 5 C-3.375 1.125 -3.375 1.125 0 0 Z " fill="#4C4C51" transform="translate(489,171)"/>
<path d="M0 0 C1.32 0 2.64 0 4 0 C6 3 6 3 5.625 6.1875 C5.41875 7.115625 5.2125 8.04375 5 9 C4.67 9 4.34 9 4 9 C3.87882813 8.43410156 3.75765625 7.86820312 3.6328125 7.28515625 C3.38144531 6.18494141 3.38144531 6.18494141 3.125 5.0625 C2.96257812 4.33160156 2.80015625 3.60070312 2.6328125 2.84765625 C2.17038477 0.79299706 2.17038477 0.79299706 0 0 Z " fill="#484D78" transform="translate(193,403)"/>
<path d="M0 0 C-1.32 0.33 -2.64 0.66 -4 1 C-4 1.99 -4 2.98 -4 4 C-5.65 4.33 -7.3 4.66 -9 5 C-6.81610567 0.16423399 -5.20641855 -0.13701101 0 0 Z " fill="#5B5C65" transform="translate(117,103)"/>
<path d="M0 0 C-0.99 1.485 -0.99 1.485 -2 3 C-3.32 2.67 -4.64 2.34 -6 2 C-6.33 2.66 -6.66 3.32 -7 4 C-7.66 3.34 -8.32 2.68 -9 2 C-3.375 -1.125 -3.375 -1.125 0 0 Z " fill="#D8D7E5" transform="translate(155,73)"/>
<path d="M0 0 C1.98 0.66 3.96 1.32 6 2 C5.401875 2.28875 4.80375 2.5775 4.1875 2.875 C1.80672208 4.04742026 1.80672208 4.04742026 -1 6 C-1.33 5.34 -1.66 4.68 -2 4 C-1.0625 1.875 -1.0625 1.875 0 0 Z " fill="#646567" transform="translate(346,56)"/>
<path d="M0 0 C1.32 0.33 2.64 0.66 4 1 C4 1.66 4 2.32 4 3 C2.125 4.0625 2.125 4.0625 0 5 C-0.66 4.67 -1.32 4.34 -2 4 C-1.34 2.68 -0.68 1.36 0 0 Z " fill="#42424B" transform="translate(327,58)"/>
<path d="M0 0 C0.625 1.875 0.625 1.875 1 4 C0.34 4.66 -0.32 5.32 -1 6 C-2.5 4.625 -2.5 4.625 -4 3 C-4 2.34 -4 1.68 -4 1 C-2.68 0.67 -1.36 0.34 0 0 Z " fill="#C8C9DA" transform="translate(236,185)"/>
<path d="M0 0 C0.99 0.33 1.98 0.66 3 1 C3 1.66 3 2.32 3 3 C3.66 3 4.32 3 5 3 C5.33 2.34 5.66 1.68 6 1 C6 2.32 6 3.64 6 5 C0.25 3.25 0.25 3.25 -2 1 C-1.34 0.67 -0.68 0.34 0 0 Z " fill="#4F4F5A" transform="translate(470,132)"/>
</svg>
