<?xml version="1.0" encoding="UTF-8"?>
<!DOCTYPE svg PUBLIC "-//W3C//DTD SVG 1.1//EN" "http://www.w3.org/Graphics/SVG/1.1/DTD/svg11.dtd">
<svg xmlns="http://www.w3.org/2000/svg" version="1.1" width="500px" height="500px" style="shape-rendering:geometricPrecision; text-rendering:geometricPrecision; image-rendering:optimizeQuality; fill-rule:evenodd; clip-rule:evenodd" xmlns:xlink="http://www.w3.org/1999/xlink">
<g><path style="opacity:0.991" fill="#080808" d="M 144.5,-0.5 C 214.5,-0.5 284.5,-0.5 354.5,-0.5C 355.167,0.166667 355.833,0.833333 356.5,1.5C 357.659,3.25027 359.326,4.25027 361.5,4.5C 363.153,4.6596 364.486,5.32627 365.5,6.5C 365.973,7.90632 366.973,8.57298 368.5,8.5C 370.153,8.6596 371.486,9.32627 372.5,10.5C 372.973,11.9063 373.973,12.573 375.5,12.5C 383.126,15.9795 390.46,19.9795 397.5,24.5C 398.733,26.7964 400.733,28.1298 403.5,28.5C 411.681,33.0906 420.014,37.424 428.5,41.5C 428.821,43.0481 429.821,43.7148 431.5,43.5C 433.483,44.4706 435.483,45.4706 437.5,46.5C 438.035,48.4456 439.368,49.4456 441.5,49.5C 442.492,49.3284 443.158,49.6618 443.5,50.5C 444.659,52.2503 446.326,53.2503 448.5,53.5C 457.446,58.3083 466.446,63.1416 475.5,68C 477.049,69.214 478.215,70.714 479,72.5C 479.667,91.1667 479.667,109.833 479,128.5C 478.167,130.667 476.667,132.167 474.5,133C 470.848,133.499 467.182,133.665 463.5,133.5C 463.5,200.5 463.5,267.5 463.5,334.5C 467.702,334.183 471.702,334.517 475.5,335.5C 478.858,337.7 481.358,340.7 483,344.5C 483.5,361.83 483.667,379.163 483.5,396.5C 483.167,398.833 481.833,400.167 479.5,400.5C 477.143,400.663 474.81,400.497 472.5,400C 471.299,399.097 470.465,397.931 470,396.5C 469.5,381.17 469.333,365.837 469.5,350.5C 447.167,350.5 424.833,350.5 402.5,350.5C 402.5,385.833 402.5,421.167 402.5,456.5C 424.833,456.5 447.167,456.5 469.5,456.5C 469.333,443.496 469.5,430.496 470,417.5C 471.995,415.253 474.495,414.253 477.5,414.5C 480.561,414.444 482.728,415.778 484,418.5C 484.5,430.829 484.667,443.162 484.5,455.5C 489.819,455.12 494.819,456.12 499.5,458.5C 499.5,471.167 499.5,483.833 499.5,496.5C 498.5,497.5 497.5,498.5 496.5,499.5C 331.833,499.5 167.167,499.5 2.5,499.5C 1.83333,498.167 0.833333,497.167 -0.5,496.5C -0.5,483.833 -0.5,471.167 -0.5,458.5C 4.1485,455.98 9.1485,454.98 14.5,455.5C 15.3326,418.669 15.8326,381.669 16,344.5C 17.2734,341.403 19.1067,338.736 21.5,336.5C 21.9175,335.778 22.5842,335.278 23.5,335C 27.4862,334.501 31.4862,334.334 35.5,334.5C 35.5,267.5 35.5,200.5 35.5,133.5C 31.8183,133.665 28.1516,133.499 24.5,133C 22.3333,132.167 20.8333,130.667 20,128.5C 19.3333,109.833 19.3333,91.1667 20,72.5C 20.7845,70.714 21.9512,69.214 23.5,68C 31.3288,63.9199 38.9955,59.5865 46.5,55C 49.9635,52.532 53.6302,52.032 57.5,53.5C 59.0234,55.3237 60.0234,57.4904 60.5,60C 60.4581,61.9674 59.9581,63.8008 59,65.5C 50.9965,70.03 43.1631,74.6967 35.5,79.5C 34.5045,92.3226 34.1712,105.323 34.5,118.5C 177.5,118.667 320.5,118.5 463.5,118C 464.833,105 464.833,92 463.5,79C 426.015,58.5721 388.682,37.5721 351.5,16C 346.264,14.661 340.93,14.161 335.5,14.5C 273.499,14.3333 211.499,14.5 149.5,15C 126.338,27.7468 103.338,40.7468 80.5,54C 73.566,54.2179 70.566,50.7179 71.5,43.5C 71.4142,42.5041 71.7476,41.6708 72.5,41C 91.7262,29.8891 111.059,19.0558 130.5,8.5C 132.674,8.25027 134.341,7.25027 135.5,5.5C 135.842,4.66175 136.508,4.32842 137.5,4.5C 139.674,4.25027 141.341,3.25027 142.5,1.5C 143.167,0.833333 143.833,0.166667 144.5,-0.5 Z M 51.5,133.5 C 57.6412,133.101 57.9746,134.101 52.5,136.5C 51.6143,135.675 51.281,134.675 51.5,133.5 Z M 180.5,192.5 C 181.94,191.054 182.607,189.221 182.5,187C 182.486,185.615 182.152,184.449 181.5,183.5C 173.664,175.229 165.331,167.395 156.5,160C 153.714,157.94 150.714,156.44 147.5,155.5C 145.866,154.839 144.033,154.506 142,154.5C 139.134,154.3 136.634,154.967 134.5,156.5C 124.988,151.8 121.654,144.133 124.5,133.5C 163.5,133.5 202.5,133.5 241.5,133.5C 241.666,137.514 241.499,141.514 241,145.5C 230.661,149.174 225.495,156.507 225.5,167.5C 223.778,174.937 222.778,182.604 222.5,190.5C 221.359,193.64 221.192,196.973 222,200.5C 222.422,202.426 223.589,203.426 225.5,203.5C 226.263,204.268 227.263,204.768 228.5,205C 242.908,205.815 257.241,205.648 271.5,204.5C 274.148,204.262 275.982,202.928 277,200.5C 277.808,196.973 277.641,193.64 276.5,190.5C 275.827,180.45 274.66,170.45 273,160.5C 270.667,152.833 265.667,147.833 258,145.5C 257.501,141.514 257.334,137.514 257.5,133.5C 296.5,133.5 335.5,133.5 374.5,133.5C 376.744,142.932 374.077,150.432 366.5,156C 364.893,155.981 363.226,155.815 361.5,155.5C 358.36,154.359 355.027,154.192 351.5,155C 349.68,155.2 348.347,156.034 347.5,157.5C 345.745,158.072 344.078,158.906 342.5,160C 333.595,167.412 325.262,175.245 317.5,183.5C 316.371,185.628 316.204,187.961 317,190.5C 317.377,191.942 318.21,192.942 319.5,193.5C 329.306,202.468 339.306,211.301 349.5,220C 352.8,221.879 356.134,221.879 359.5,220C 367.288,209.596 374.454,198.762 381,187.5C 383.579,180.174 382.745,173.341 378.5,167C 382.702,163.133 386.535,158.967 390,154.5C 390.5,147.508 390.666,140.508 390.5,133.5C 396.167,133.5 401.833,133.5 407.5,133.5C 408.579,199.753 408.746,266.086 408,332.5C 403.497,333.919 398.997,335.252 394.5,336.5C 391.572,337.591 389.406,339.591 388,342.5C 387.5,380.165 387.333,417.832 387.5,455.5C 381.833,455.5 376.167,455.5 370.5,455.5C 368.686,449.22 366.353,443.22 363.5,437.5C 361.933,431.121 359.6,425.121 356.5,419.5C 356.598,417.447 355.931,415.78 354.5,414.5C 346.675,393.015 338.675,371.681 330.5,350.5C 329.63,345.777 327.964,341.444 325.5,337.5C 325.598,335.447 324.931,333.78 323.5,332.5C 320.737,323.535 317.404,314.868 313.5,306.5C 312.266,301.117 310.266,296.117 307.5,291.5C 307.059,283.725 303.059,279.725 295.5,279.5C 293.967,275.567 292.633,271.567 291.5,267.5C 293.723,265.559 295.056,263.059 295.5,260C 292.697,249.416 289.03,239.25 284.5,229.5C 284.598,227.447 283.931,225.78 282.5,224.5C 282.598,222.447 281.931,220.78 280.5,219.5C 280.667,214.937 278.667,211.937 274.5,210.5C 257.833,209.167 241.167,209.167 224.5,210.5C 222.629,210.859 221.129,211.859 220,213.5C 218.326,217.021 217.16,220.687 216.5,224.5C 215.069,225.78 214.402,227.447 214.5,229.5C 206.462,249.938 198.795,270.605 191.5,291.5C 189.206,294.37 187.872,297.703 187.5,301.5C 186.069,302.78 185.402,304.447 185.5,306.5C 184.662,306.842 184.328,307.508 184.5,308.5C 183.262,310.214 182.595,312.214 182.5,314.5C 179.647,320.22 177.314,326.22 175.5,332.5C 174.069,333.78 173.402,335.447 173.5,337.5C 171.733,339.792 170.733,342.458 170.5,345.5C 169.069,346.78 168.402,348.447 168.5,350.5C 160.325,371.681 152.325,393.015 144.5,414.5C 142.206,417.37 140.872,420.703 140.5,424.5C 138.036,428.444 136.37,432.777 135.5,437.5C 132.647,443.22 130.314,449.22 128.5,455.5C 122.833,455.5 117.167,455.5 111.5,455.5C 111.667,417.832 111.5,380.165 111,342.5C 109.669,340.004 107.836,338.004 105.5,336.5C 101.067,334.699 96.3999,334.033 91.5,334.5C 91.1184,267.592 91.1184,200.592 91.5,133.5C 97.1667,133.5 102.833,133.5 108.5,133.5C 108.334,140.508 108.5,147.508 109,154.5C 112.465,158.967 116.298,163.133 120.5,167C 116.255,173.341 115.421,180.174 118,187.5C 124.546,198.762 131.712,209.596 139.5,220C 142.866,221.879 146.2,221.879 149.5,220C 160.027,210.968 170.361,201.801 180.5,192.5 Z M 427.5,135.5 C 425.973,135.427 424.973,136.094 424.5,137.5C 423.566,136.432 423.232,135.099 423.5,133.5C 425.527,133.338 427.527,133.505 429.5,134C 428.584,134.278 427.918,134.778 427.5,135.5 Z M 74.5,140.5 C 75.8333,148.5 75.8333,156.5 74.5,164.5C 68.9879,160.497 63.3212,156.663 57.5,153C 58.4158,152.722 59.0825,152.222 59.5,151.5C 60.7095,151.068 61.7095,150.401 62.5,149.5C 66.8962,146.975 70.8962,143.975 74.5,140.5 Z M 446.5,141.5 C 447.656,148.989 447.822,156.655 447,164.5C 441.587,160.543 436.087,156.71 430.5,153C 436.077,149.39 441.41,145.557 446.5,141.5 Z M 441.5,180.5 C 437.608,182.062 434.275,184.395 431.5,187.5C 428.628,188.526 426.128,190.192 424,192.5C 423.333,184.167 423.333,175.833 424,167.5C 429.812,171.976 435.645,176.309 441.5,180.5 Z M 67.5,178.5 C 67.6107,179.117 67.944,179.617 68.5,180C 66.6763,180.66 65.343,181.827 64.5,183.5C 60.1355,185.771 55.9688,188.438 52,191.5C 51.3333,183.833 51.3333,176.167 52,168.5C 56.7986,172.477 61.9653,175.81 67.5,178.5 Z M 74.5,195.5 C 75.1655,199.151 75.4988,202.985 75.5,207C 75.4898,211.229 74.8232,215.062 73.5,218.5C 73.5,217.833 73.1667,217.5 72.5,217.5C 72.0269,216.094 71.0269,215.427 69.5,215.5C 69.0269,214.094 68.0269,213.427 66.5,213.5C 66.0269,212.094 65.0269,211.427 63.5,211.5C 63.0269,210.094 62.0269,209.427 60.5,209.5C 59.8333,208.5 59.1667,207.5 58.5,206.5C 60.4044,206.262 61.7377,205.262 62.5,203.5C 64.0269,203.573 65.0269,202.906 65.5,201.5C 67.0269,201.573 68.0269,200.906 68.5,199.5C 70.0269,199.573 71.0269,198.906 71.5,197.5C 72.7095,197.068 73.7095,196.401 74.5,195.5 Z M 445.5,196.5 C 446.75,196.577 447.583,197.244 448,198.5C 448.746,204.551 448.579,210.551 447.5,216.5C 447.672,217.492 447.338,218.158 446.5,218.5C 446.027,217.094 445.027,216.427 443.5,216.5C 440.81,213.815 437.81,211.482 434.5,209.5C 434.167,209.5 433.833,209.5 433.5,209.5C 432.833,208.5 432.167,207.5 431.5,206.5C 434.135,205.189 436.469,203.522 438.5,201.5C 440.404,201.262 441.738,200.262 442.5,198.5C 444.027,198.573 445.027,197.906 445.5,196.5 Z M 51.5,222.5 C 57.0121,226.503 62.6788,230.337 68.5,234C 63.288,238.052 57.9546,241.885 52.5,245.5C 51.508,238.018 51.1746,230.352 51.5,222.5 Z M 436.5,230.5 C 436.973,231.906 437.973,232.573 439.5,232.5C 440.11,233.391 440.443,234.391 440.5,235.5C 434.771,238.784 429.271,242.451 424,246.5C 423.333,238.5 423.333,230.5 424,222.5C 428.068,225.417 432.234,228.083 436.5,230.5 Z M 74.5,249.5 C 75.6561,257.323 75.8228,265.323 75,273.5C 69.4114,269.622 63.9114,265.622 58.5,261.5C 63.8631,257.491 69.1964,253.491 74.5,249.5 Z M 447.5,250.5 C 448.04,254.132 448.373,257.799 448.5,261.5C 448.701,265.373 448.034,269.039 446.5,272.5C 441.027,268.86 435.694,265.027 430.5,261C 436.069,257.248 441.736,253.748 447.5,250.5 Z M 424.5,276.5 C 424.5,277.167 424.833,277.5 425.5,277.5C 425.973,278.906 426.973,279.573 428.5,279.5C 428.973,280.906 429.973,281.573 431.5,281.5C 433.296,283.9 435.63,285.567 438.5,286.5C 438.973,287.906 439.973,288.573 441.5,288.5C 440.205,289.488 438.872,290.488 437.5,291.5C 434.63,292.433 432.296,294.1 430.5,296.5C 428.973,296.427 427.973,297.094 427.5,298.5C 425.973,298.427 424.973,299.094 424.5,300.5C 423.167,292.5 423.167,284.5 424.5,276.5 Z M 51.5,277.5 C 52.8333,278.167 54.1667,278.833 55.5,279.5C 55.9731,280.906 56.9731,281.573 58.5,281.5C 58.9731,282.906 59.9731,283.573 61.5,283.5C 61.9731,284.906 62.9731,285.573 64.5,285.5C 64.9731,286.906 65.9731,287.573 67.5,287.5C 67.6107,288.117 67.944,288.617 68.5,289C 66.6536,290.03 64.9869,291.196 63.5,292.5C 61.9731,292.427 60.9731,293.094 60.5,294.5C 58.9731,294.427 57.9731,295.094 57.5,296.5C 55.9731,296.427 54.9731,297.094 54.5,298.5C 53.8501,298.804 53.1835,299.137 52.5,299.5C 51.5027,292.197 51.1694,284.863 51.5,277.5 Z M 74.5,303.5 C 75.8333,311.5 75.8333,319.5 74.5,327.5C 68.9879,323.497 63.3212,319.663 57.5,316C 63.5899,312.301 69.2566,308.134 74.5,303.5 Z M 446.5,304.5 C 447.532,306.434 448.198,308.6 448.5,311C 447.787,316.476 447.287,321.976 447,327.5C 441.587,323.543 436.087,319.71 430.5,316C 436.077,312.39 441.41,308.557 446.5,304.5 Z M 428.5,333.5 C 427.081,334.451 425.415,334.784 423.5,334.5C 423.351,333.448 423.517,332.448 424,331.5C 425.33,332.582 426.83,333.249 428.5,333.5 Z M 53.5,332.5 C 53.8417,333.338 54.5084,333.672 55.5,333.5C 54.2918,334.782 52.9584,334.782 51.5,333.5C 51.9569,332.702 52.6236,332.369 53.5,332.5 Z M 69.5,374.5 C 70.0193,378.453 68.6859,381.453 65.5,383.5C 60.0187,383.688 57.0187,381.021 56.5,375.5C 60.5485,370.731 64.8819,370.398 69.5,374.5 Z M 433.5,383.5 C 432.71,382.599 431.71,381.932 430.5,381.5C 429.781,379.236 429.448,376.903 429.5,374.5C 433.964,370.318 438.131,370.651 442,375.5C 442.003,380.994 439.17,383.661 433.5,383.5 Z M 69.5,426.5 C 69.6418,432.024 66.9751,435.024 61.5,435.5C 54.5037,430.126 55.1704,425.793 63.5,422.5C 65.7655,423.432 67.7655,424.765 69.5,426.5 Z M 442.5,427.5 C 441.981,433.021 438.981,435.688 433.5,435.5C 433.167,434.5 432.5,433.833 431.5,433.5C 429.832,431.521 429.166,429.188 429.5,426.5C 434.245,421.1 438.579,421.434 442.5,427.5 Z M 471.5,471.5 C 471.5,475.833 471.5,480.167 471.5,484.5C 319.167,484.5 166.833,484.5 14.5,484.5C 14.5,480.167 14.5,475.833 14.5,471.5C 166.833,471.5 319.167,471.5 471.5,471.5 Z"/></g>
<g><path style="opacity:0.012" fill="#c7c7c7" d="M 356.5,1.5 C 358.674,1.74973 360.341,2.74973 361.5,4.5C 359.326,4.25027 357.659,3.25027 356.5,1.5 Z"/></g>
<g><path style="opacity:0.043" fill="#c8c8c8" d="M 142.5,1.5 C 141.341,3.25027 139.674,4.25027 137.5,4.5C 138.659,2.74973 140.326,1.74973 142.5,1.5 Z"/></g>
<g><path style="opacity:0.09" fill="#c6c6c6" d="M 135.5,5.5 C 134.341,7.25027 132.674,8.25027 130.5,8.5C 131.659,6.74973 133.326,5.74973 135.5,5.5 Z"/></g>
<g><path style="opacity:0.082" fill="#c0c0c0" d="M 365.5,6.5 C 367.027,6.42702 368.027,7.09368 368.5,8.5C 366.973,8.57298 365.973,7.90632 365.5,6.5 Z"/></g>
<g><path style="opacity:0.122" fill="#bcbcbc" d="M 372.5,10.5 C 374.027,10.427 375.027,11.0937 375.5,12.5C 373.973,12.573 372.973,11.9063 372.5,10.5 Z"/></g>
<g><path style="opacity:1" fill="#675d66" d="M 335.5,14.5 C 335.937,16.0744 336.937,17.2411 338.5,18C 342.053,19.7046 345.72,21.2046 349.5,22.5C 376.116,38.9698 403.116,54.6365 430.5,69.5C 435.013,74.1778 438.513,79.5112 441,85.5C 441.5,96.1615 441.667,106.828 441.5,117.5C 306.167,117.5 170.833,117.5 35.5,117.5C 35.5,104.833 35.5,92.1667 35.5,79.5C 43.1631,74.6967 50.9965,70.03 59,65.5C 59.9581,63.8008 60.4581,61.9674 60.5,60C 60.0234,57.4904 59.0234,55.3237 57.5,53.5C 58.4822,54.1408 59.4822,54.8075 60.5,55.5C 63.6612,54.0869 66.6612,52.4203 69.5,50.5C 70.1681,48.0312 70.8347,45.6979 71.5,43.5C 70.566,50.7179 73.566,54.2179 80.5,54C 103.338,40.7468 126.338,27.7468 149.5,15C 211.499,14.5 273.499,14.3333 335.5,14.5 Z"/></g>
<g><path style="opacity:0.212" fill="#585858" d="M 397.5,24.5 C 399.882,25.3507 401.882,26.684 403.5,28.5C 400.733,28.1298 398.733,26.7964 397.5,24.5 Z"/></g>
<g><path style="opacity:1" fill="#060404" d="M 243.5,28.5 C 249.324,27.5884 254.49,28.9218 259,32.5C 260.667,36.5057 262.833,40.1724 265.5,43.5C 270.59,44.6968 275.59,46.1968 280.5,48C 286.498,53.3355 286.998,59.1688 282,65.5C 279.64,67.8604 277.306,70.1937 275,72.5C 279.036,95.6504 270.536,102.317 249.5,92.5C 244.376,93.9857 239.376,95.6524 234.5,97.5C 230.707,97.0201 227.54,95.3534 225,92.5C 223.788,85.913 223.121,79.2464 223,72.5C 208.315,56.4394 211.815,46.6061 233.5,43C 236.244,37.757 239.577,32.9237 243.5,28.5 Z"/></g>
<g><path style="opacity:0.012" fill="#cbcbcb" d="M 428.5,41.5 C 429.71,41.9321 430.71,42.5987 431.5,43.5C 429.821,43.7148 428.821,43.0481 428.5,41.5 Z"/></g>
<g><path style="opacity:0.008" fill="#c7c7c7" d="M 437.5,46.5 C 439.23,47.0256 440.564,48.0256 441.5,49.5C 439.368,49.4456 438.035,48.4456 437.5,46.5 Z"/></g>
<g><path style="opacity:0.145" fill="#b0b0b0" d="M 443.5,50.5 C 445.674,50.7497 447.341,51.7497 448.5,53.5C 446.326,53.2503 444.659,52.2503 443.5,50.5 Z"/></g>
<g><path style="opacity:1" fill="#524414" d="M 258.5,56.5 C 261.152,56.4095 263.485,57.0762 265.5,58.5C 262.848,58.5905 260.515,57.9238 258.5,56.5 Z"/></g>
<g><path style="opacity:1" fill="#030203" d="M 139.5,59.5 C 148.839,59.3335 158.173,59.5002 167.5,60C 172.41,63.5681 172.743,67.5681 168.5,72C 158.5,74 148.5,74 138.5,72C 135.598,67.5015 135.932,63.3348 139.5,59.5 Z"/></g>
<g><path style="opacity:1" fill="#030203" d="M 330.5,59.5 C 340.172,59.3335 349.839,59.5002 359.5,60C 362.349,62.5594 363.183,65.7261 362,69.5C 360.992,71.259 359.492,72.4257 357.5,73C 348.833,73.6667 340.167,73.6667 331.5,73C 326.801,68.744 326.468,64.244 330.5,59.5 Z"/></g>
<g><path style="opacity:1" fill="#524c53" d="M 335.5,14.5 C 340.93,14.161 346.264,14.661 351.5,16C 388.682,37.5721 426.015,58.5721 463.5,79C 464.833,92 464.833,105 463.5,118C 320.5,118.5 177.5,118.667 34.5,118.5C 34.1712,105.323 34.5045,92.3226 35.5,79.5C 35.5,92.1667 35.5,104.833 35.5,117.5C 170.833,117.5 306.167,117.5 441.5,117.5C 441.667,106.828 441.5,96.1615 441,85.5C 438.513,79.5112 435.013,74.1778 430.5,69.5C 403.116,54.6365 376.116,38.9698 349.5,22.5C 345.72,21.2046 342.053,19.7046 338.5,18C 336.937,17.2411 335.937,16.0744 335.5,14.5 Z"/></g>
<g><path style="opacity:1" fill="#fbde78" d="M 258.5,56.5 C 260.515,57.9238 262.848,58.5905 265.5,58.5C 266.497,58.4701 267.164,58.9701 267.5,60C 264.931,62.0666 262.931,64.5666 261.5,67.5C 260.883,67.6107 260.383,67.944 260,68.5C 259.824,71.8818 259.324,75.2152 258.5,78.5C 253.503,76.2572 248.336,75.9238 243,77.5C 242.586,77.0426 242.086,76.7093 241.5,76.5C 240.97,72.4709 239.97,68.6376 238.5,65C 240.836,62.1189 239.836,60.9523 235.5,61.5C 235.5,60.5 235.5,59.5 235.5,58.5C 238.267,57.568 240.933,56.4014 243.5,55C 245.389,52.0414 247.389,49.2081 249.5,46.5C 251.58,48.9928 253.414,51.6595 255,54.5C 255.816,55.8228 256.983,56.4894 258.5,56.5 Z"/></g>
<g><path style="opacity:1" fill="#dfc87a" d="M 235.5,58.5 C 235.5,59.5 235.5,60.5 235.5,61.5C 239.836,60.9523 240.836,62.1189 238.5,65C 239.97,68.6376 240.97,72.4709 241.5,76.5C 242.086,76.7093 242.586,77.0426 243,77.5C 248.336,75.9238 253.503,76.2572 258.5,78.5C 259.324,75.2152 259.824,71.8818 260,68.5C 260.383,67.944 260.883,67.6107 261.5,67.5C 260.954,71.8283 260.287,76.1616 259.5,80.5C 252.805,76.5682 246.138,76.5682 239.5,80.5C 238.816,75.7924 237.982,71.1258 237,66.5C 234.955,64.9486 233.455,62.9486 232.5,60.5C 233.005,59.0815 234.005,58.4148 235.5,58.5 Z"/></g>
<g><path style="opacity:0.353" fill="#959595" d="M 427.5,135.5 C 427.027,136.906 426.027,137.573 424.5,137.5C 424.973,136.094 425.973,135.427 427.5,135.5 Z"/></g>
<g><path style="opacity:0.216" fill="#9e9e9e" d="M 62.5,149.5 C 61.7095,150.401 60.7095,151.068 59.5,151.5C 59.8212,149.952 60.8212,149.285 62.5,149.5 Z"/></g>
<g><path style="opacity:0.736" fill="#333333" d="M 74.5,140.5 C 74.56,139.957 74.8933,139.624 75.5,139.5C 76.8333,148.167 76.8333,156.833 75.5,165.5C 74.8933,165.376 74.56,165.043 74.5,164.5C 75.8333,156.5 75.8333,148.5 74.5,140.5 Z"/></g>
<g><path style="opacity:0.454" fill="#4f4f4f" d="M 147.5,155.5 C 143.119,155.372 138.785,155.705 134.5,156.5C 136.634,154.967 139.134,154.3 142,154.5C 144.033,154.506 145.866,154.839 147.5,155.5 Z"/></g>
<g><path style="opacity:0.263" fill="#444444" d="M 361.5,155.5 C 356.673,155.221 352.007,155.887 347.5,157.5C 348.347,156.034 349.68,155.2 351.5,155C 355.027,154.192 358.36,154.359 361.5,155.5 Z"/></g>
<g><path style="opacity:1" fill="#655c65" d="M 259.5,177.5 C 259.5,181.167 259.5,184.833 259.5,188.5C 252.468,188.83 245.468,188.497 238.5,187.5C 239.957,181.602 240.623,175.602 240.5,169.5C 239.875,166.03 240.875,163.196 243.5,161C 247.5,160.333 251.5,160.333 255.5,161C 256.333,161.833 257.167,162.667 258,163.5C 258.994,168.118 259.494,172.785 259.5,177.5 Z"/></g>
<g><path style="opacity:0.175" fill="#989898" d="M 225.5,167.5 C 225.222,175.396 224.222,183.063 222.5,190.5C 222.778,182.604 223.778,174.937 225.5,167.5 Z"/></g>
<g><path style="opacity:1" fill="#645b63" d="M 139.5,169.5 C 141.199,169.34 142.866,169.506 144.5,170C 150.534,175.674 156.534,181.341 162.5,187C 157.618,192.549 152.118,197.382 146,201.5C 140.569,194.567 135.735,187.234 131.5,179.5C 131.68,178.446 132.013,177.446 132.5,176.5C 135.188,174.479 137.521,172.146 139.5,169.5 Z"/></g>
<g><path style="opacity:1" fill="#645b63" d="M 354.5,169.5 C 356.199,169.34 357.866,169.506 359.5,170C 362.792,172.779 365.459,175.946 367.5,179.5C 363.284,187.38 358.284,194.713 352.5,201.5C 348.691,198.858 345.024,196.025 341.5,193C 339.443,191.281 337.776,189.281 336.5,187C 342.33,181.004 348.33,175.17 354.5,169.5 Z"/></g>
<g><path style="opacity:0.408" fill="#626262" d="M 67.5,178.5 C 68.4972,178.47 69.1639,178.97 69.5,180C 68.2302,181.775 66.5635,182.942 64.5,183.5C 65.343,181.827 66.6763,180.66 68.5,180C 67.944,179.617 67.6107,179.117 67.5,178.5 Z"/></g>
<g><path style="opacity:0.478" fill="#6d6d6d" d="M 441.5,180.5 C 438.725,183.605 435.392,185.938 431.5,187.5C 434.275,184.395 437.608,182.062 441.5,180.5 Z"/></g>
<g><path style="opacity:0.39" fill="#6f6f6f" d="M 181.5,183.5 C 182.152,184.449 182.486,185.615 182.5,187C 182.607,189.221 181.94,191.054 180.5,192.5C 181.159,189.545 181.492,186.545 181.5,183.5 Z"/></g>
<g><path style="opacity:1" fill="#423d42" d="M 240.5,169.5 C 240.623,175.602 239.957,181.602 238.5,187.5C 245.468,188.497 252.468,188.83 259.5,188.5C 259.5,184.833 259.5,181.167 259.5,177.5C 260.482,181.316 261.149,185.316 261.5,189.5C 253.5,189.5 245.5,189.5 237.5,189.5C 238.145,182.646 239.145,175.979 240.5,169.5 Z"/></g>
<g><path style="opacity:0.376" fill="#6c6c6c" d="M 317.5,183.5 C 317.31,187.032 317.977,190.365 319.5,193.5C 318.21,192.942 317.377,191.942 317,190.5C 316.204,187.961 316.371,185.628 317.5,183.5 Z"/></g>
<g><path style="opacity:0.147" fill="#b1b1b1" d="M 276.5,190.5 C 277.641,193.64 277.808,196.973 277,200.5C 275.982,202.928 274.148,204.262 271.5,204.5C 273.307,203.164 274.807,201.497 276,199.5C 276.498,196.518 276.665,193.518 276.5,190.5 Z"/></g>
<g><path style="opacity:0.237" fill="#b4b4b4" d="M 222.5,190.5 C 221.839,195.316 222.839,199.649 225.5,203.5C 223.589,203.426 222.422,202.426 222,200.5C 221.192,196.973 221.359,193.64 222.5,190.5 Z"/></g>
<g><path style="opacity:0.024" fill="#adadad" d="M 445.5,196.5 C 445.027,197.906 444.027,198.573 442.5,198.5C 442.973,197.094 443.973,196.427 445.5,196.5 Z"/></g>
<g><path style="opacity:0.008" fill="#c5c5c5" d="M 71.5,197.5 C 71.0269,198.906 70.0269,199.573 68.5,199.5C 68.9731,198.094 69.9731,197.427 71.5,197.5 Z"/></g>
<g><path style="opacity:0.718" fill="#343434" d="M 74.5,195.5 C 74.56,194.957 74.8933,194.624 75.5,194.5C 76.4979,202.807 76.8312,211.14 76.5,219.5C 75.209,219.737 74.209,219.404 73.5,218.5C 74.8232,215.062 75.4898,211.229 75.5,207C 75.4988,202.985 75.1655,199.151 74.5,195.5 Z"/></g>
<g><path style="opacity:0.031" fill="#c2c2c2" d="M 442.5,198.5 C 441.738,200.262 440.404,201.262 438.5,201.5C 439.262,199.738 440.596,198.738 442.5,198.5 Z"/></g>
<g><path style="opacity:0.012" fill="#c8c8c8" d="M 68.5,199.5 C 68.0269,200.906 67.0269,201.573 65.5,201.5C 65.9731,200.094 66.9731,199.427 68.5,199.5 Z"/></g>
<g><path style="opacity:0.016" fill="#c5c5c5" d="M 65.5,201.5 C 65.0269,202.906 64.0269,203.573 62.5,203.5C 62.9731,202.094 63.9731,201.427 65.5,201.5 Z"/></g>
<g><path style="opacity:0.153" fill="#ababab" d="M 58.5,206.5 C 59.1667,207.5 59.8333,208.5 60.5,209.5C 57.9486,209.332 57.2819,208.332 58.5,206.5 Z"/></g>
<g><path style="opacity:0.059" fill="#a7a7a7" d="M 431.5,206.5 C 432.167,207.5 432.833,208.5 433.5,209.5C 430.949,209.332 430.282,208.332 431.5,206.5 Z"/></g>
<g><path style="opacity:0.008" fill="#c6c6c6" d="M 274.5,210.5 C 278.667,211.937 280.667,214.937 280.5,219.5C 279.233,216.075 277.233,213.075 274.5,210.5 Z"/></g>
<g><path style="opacity:0.012" fill="#c1c1c1" d="M 63.5,211.5 C 65.0269,211.427 66.0269,212.094 66.5,213.5C 64.9731,213.573 63.9731,212.906 63.5,211.5 Z"/></g>
<g><path style="opacity:0.027" fill="#b5b5b5" d="M 434.5,209.5 C 437.81,211.482 440.81,213.815 443.5,216.5C 439.567,215.219 436.567,212.886 434.5,209.5 Z"/></g>
<g><path style="opacity:0.043" fill="#c0c0c0" d="M 66.5,213.5 C 68.0269,213.427 69.0269,214.094 69.5,215.5C 67.9731,215.573 66.9731,214.906 66.5,213.5 Z"/></g>
<g><path style="opacity:0.039" fill="#c0c0c0" d="M 69.5,215.5 C 71.0269,215.427 72.0269,216.094 72.5,217.5C 70.9731,217.573 69.9731,216.906 69.5,215.5 Z"/></g>
<g><path style="opacity:0.078" fill="#b1b1b1" d="M 443.5,216.5 C 445.027,216.427 446.027,217.094 446.5,218.5C 444.973,218.573 443.973,217.906 443.5,216.5 Z"/></g>
<g><path style="opacity:0.047" fill="#8f8f8f" d="M 447.5,216.5 C 448.776,217.386 448.776,218.386 447.5,219.5C 446.893,219.376 446.56,219.043 446.5,218.5C 447.338,218.158 447.672,217.492 447.5,216.5 Z"/></g>
<g><path style="opacity:0.043" fill="#bfbfbf" d="M 224.5,210.5 C 221.272,214.857 218.605,219.523 216.5,224.5C 217.16,220.687 218.326,217.021 220,213.5C 221.129,211.859 222.629,210.859 224.5,210.5 Z"/></g>
<g><path style="opacity:0.071" fill="#c3c3c3" d="M 280.5,219.5 C 281.931,220.78 282.598,222.447 282.5,224.5C 281.069,223.22 280.402,221.553 280.5,219.5 Z"/></g>
<g><path style="opacity:1" fill="#cfb969" d="M 267.5,229.5 C 266.733,228.828 266.066,227.995 265.5,227C 262.183,226.502 258.85,226.335 255.5,226.5C 247.833,226.5 240.167,226.5 232.5,226.5C 232.598,228.553 231.931,230.22 230.5,231.5C 230.357,229.738 230.691,228.071 231.5,226.5C 243.482,225.501 255.482,225.168 267.5,225.5C 267.5,226.833 267.5,228.167 267.5,229.5 Z"/></g>
<g><path style="opacity:0.047" fill="#d0d0d0" d="M 216.5,224.5 C 216.598,226.553 215.931,228.22 214.5,229.5C 214.402,227.447 215.069,225.78 216.5,224.5 Z"/></g>
<g><path style="opacity:0.043" fill="#cfcfcf" d="M 282.5,224.5 C 283.931,225.78 284.598,227.447 284.5,229.5C 283.069,228.22 282.402,226.553 282.5,224.5 Z"/></g>
<g><path style="opacity:0.027" fill="#484848" d="M 51.5,222.5 C 51.1746,230.352 51.508,238.018 52.5,245.5C 52.44,246.043 52.1067,246.376 51.5,246.5C 50.1796,238.343 50.1796,230.343 51.5,222.5 Z"/></g>
<g><path style="opacity:0.275" fill="#898989" d="M 436.5,230.5 C 438.027,230.427 439.027,231.094 439.5,232.5C 437.973,232.573 436.973,231.906 436.5,230.5 Z"/></g>
<g><path style="opacity:0.118" fill="#929292" d="M 439.5,232.5 C 441.552,233.053 441.885,234.053 440.5,235.5C 440.443,234.391 440.11,233.391 439.5,232.5 Z"/></g>
<g><path style="opacity:1" fill="#fee077" d="M 255.5,226.5 C 254.964,229.385 255.13,232.385 256,235.5C 276.484,289.61 296.984,343.777 317.5,398C 319.117,400.677 320.951,403.177 323,405.5C 325.203,413.777 327.203,422.11 329,430.5C 333.547,438.469 337.047,446.802 339.5,455.5C 321.833,455.5 304.167,455.5 286.5,455.5C 286.822,449.642 286.489,443.975 285.5,438.5C 283.408,435.083 280.408,432.75 276.5,431.5C 270.69,430.51 264.69,430.177 258.5,430.5C 258.333,409.497 258.5,388.497 259,367.5C 259.903,366.299 261.069,365.465 262.5,365C 266.833,364.667 271.167,364.333 275.5,364C 273.5,363.667 271.5,363.333 269.5,363C 273.167,362.831 275.5,360.997 276.5,357.5C 284.962,356.928 287.628,352.594 284.5,344.5C 283.583,343.873 282.583,343.539 281.5,343.5C 281.5,342.5 281.5,341.5 281.5,340.5C 276.496,340.626 271.663,341.626 267,343.5C 263.354,340.609 259.354,339.609 255,340.5C 253.527,338.993 251.693,338.326 249.5,338.5C 247.667,338.585 246.334,339.252 245.5,340.5C 244.542,340.953 243.708,341.619 243,342.5C 242.501,347.489 242.334,352.489 242.5,357.5C 239.013,357.905 235.68,358.905 232.5,360.5C 228.438,365.255 228.771,369.755 233.5,374C 235.885,374.556 238.218,374.39 240.5,373.5C 241.497,392.659 241.83,411.993 241.5,431.5C 234.159,431.334 226.826,431.5 219.5,432C 216.055,434.273 214.055,437.44 213.5,441.5C 212.514,445.97 212.181,450.637 212.5,455.5C 190.164,455.667 167.831,455.5 145.5,455C 146.38,453.644 146.714,452.144 146.5,450.5C 150.957,445.547 153.291,439.547 153.5,432.5C 162.868,407.778 172.202,383.111 181.5,358.5C 183.897,355.691 185.23,352.358 185.5,348.5C 186.561,343.282 188.561,338.615 191.5,334.5C 194.728,329.662 196.894,324.329 198,318.5C 199.667,317.5 201,316.167 202,314.5C 203.383,309.92 204.383,305.253 205,300.5C 210.625,295.416 213.125,289.25 212.5,282C 213.258,279.908 214.425,278.075 216,276.5C 217.731,271.353 218.897,266.02 219.5,260.5C 222.422,250.416 226.089,240.749 230.5,231.5C 231.931,230.22 232.598,228.553 232.5,226.5C 240.167,226.5 247.833,226.5 255.5,226.5 Z"/></g>
<g><path style="opacity:1" fill="#e2c069" d="M 278.5,256.5 C 279.486,264.154 283.819,267.82 291.5,267.5C 292.633,271.567 293.967,275.567 295.5,279.5C 294.5,280.167 293.5,280.833 292.5,281.5C 292.909,277.501 292.075,273.834 290,270.5C 287.931,269.736 285.764,269.236 283.5,269C 282.695,267.028 281.361,265.528 279.5,264.5C 278.52,261.914 278.187,259.247 278.5,256.5 Z"/></g>
<g><path style="opacity:0.365" fill="#a0a0a0" d="M 425.5,277.5 C 427.027,277.427 428.027,278.094 428.5,279.5C 426.973,279.573 425.973,278.906 425.5,277.5 Z"/></g>
<g><path style="opacity:0.322" fill="#999999" d="M 55.5,279.5 C 57.0269,279.427 58.0269,280.094 58.5,281.5C 56.9731,281.573 55.9731,280.906 55.5,279.5 Z"/></g>
<g><path style="opacity:0.71" fill="#303030" d="M 424.5,276.5 C 423.167,284.5 423.167,292.5 424.5,300.5C 424.44,301.043 424.107,301.376 423.5,301.5C 422.167,292.833 422.167,284.167 423.5,275.5C 424.107,275.624 424.44,275.957 424.5,276.5 Z"/></g>
<g><path style="opacity:0.384" fill="#949494" d="M 428.5,279.5 C 430.027,279.427 431.027,280.094 431.5,281.5C 429.973,281.573 428.973,280.906 428.5,279.5 Z"/></g>
<g><path style="opacity:0.341" fill="#939393" d="M 58.5,281.5 C 60.0269,281.427 61.0269,282.094 61.5,283.5C 59.9731,283.573 58.9731,282.906 58.5,281.5 Z"/></g>
<g><path style="opacity:0.357" fill="#919191" d="M 61.5,283.5 C 63.0269,283.427 64.0269,284.094 64.5,285.5C 62.9731,285.573 61.9731,284.906 61.5,283.5 Z"/></g>
<g><path style="opacity:0.086" fill="#b1b1b1" d="M 431.5,281.5 C 434.37,282.433 436.704,284.1 438.5,286.5C 435.63,285.567 433.296,283.9 431.5,281.5 Z"/></g>
<g><path style="opacity:0.365" fill="#8f8f8f" d="M 64.5,285.5 C 66.0269,285.427 67.0269,286.094 67.5,287.5C 65.9731,287.573 64.9731,286.906 64.5,285.5 Z"/></g>
<g><path style="opacity:0.047" fill="#434343" d="M 51.5,277.5 C 51.1694,284.863 51.5027,292.197 52.5,299.5C 53.1835,299.137 53.8501,298.804 54.5,298.5C 53.8166,300.176 52.4832,300.843 50.5,300.5C 50.1746,292.648 50.508,284.982 51.5,277.5 Z"/></g>
<g><path style="opacity:1" fill="#e8d077" d="M 219.5,260.5 C 218.897,266.02 217.731,271.353 216,276.5C 214.425,278.075 213.258,279.908 212.5,282C 213.125,289.25 210.625,295.416 205,300.5C 204.383,305.253 203.383,309.92 202,314.5C 201,316.167 199.667,317.5 198,318.5C 196.894,324.329 194.728,329.662 191.5,334.5C 199.865,309.398 209.198,284.732 219.5,260.5 Z"/></g>
<g><path style="opacity:0.059" fill="#bebebe" d="M 438.5,286.5 C 440.027,286.427 441.027,287.094 441.5,288.5C 439.973,288.573 438.973,287.906 438.5,286.5 Z"/></g>
<g><path style="opacity:0.329" fill="#919191" d="M 63.5,292.5 C 63.0269,293.906 62.0269,294.573 60.5,294.5C 60.9731,293.094 61.9731,292.427 63.5,292.5 Z"/></g>
<g><path style="opacity:0.263" fill="#7a7a7a" d="M 191.5,291.5 C 190.737,295.137 189.403,298.47 187.5,301.5C 187.872,297.703 189.206,294.37 191.5,291.5 Z"/></g>
<g><path style="opacity:0.18" fill="#afafaf" d="M 437.5,291.5 C 435.704,293.9 433.37,295.567 430.5,296.5C 432.296,294.1 434.63,292.433 437.5,291.5 Z"/></g>
<g><path style="opacity:0.294" fill="#9f9f9f" d="M 60.5,294.5 C 60.0269,295.906 59.0269,296.573 57.5,296.5C 57.9731,295.094 58.9731,294.427 60.5,294.5 Z"/></g>
<g><path style="opacity:0.263" fill="#a2a2a2" d="M 57.5,296.5 C 57.0269,297.906 56.0269,298.573 54.5,298.5C 54.9731,297.094 55.9731,296.427 57.5,296.5 Z"/></g>
<g><path style="opacity:0.329" fill="#a3a3a3" d="M 430.5,296.5 C 430.027,297.906 429.027,298.573 427.5,298.5C 427.973,297.094 428.973,296.427 430.5,296.5 Z"/></g>
<g><path style="opacity:0.184" fill="#828282" d="M 307.5,291.5 C 310.266,296.117 312.266,301.117 313.5,306.5C 310.734,301.883 308.734,296.883 307.5,291.5 Z"/></g>
<g><path style="opacity:0.322" fill="#a7a7a7" d="M 427.5,298.5 C 427.027,299.906 426.027,300.573 424.5,300.5C 424.973,299.094 425.973,298.427 427.5,298.5 Z"/></g>
<g><path style="opacity:0.141" fill="#909090" d="M 187.5,301.5 C 187.598,303.553 186.931,305.22 185.5,306.5C 185.402,304.447 186.069,302.78 187.5,301.5 Z"/></g>
<g><path style="opacity:0.976" fill="#626262" d="M 184.5,308.5 C 184.33,309.822 184.663,310.989 185.5,312C 184.309,312.698 183.309,313.531 182.5,314.5C 182.595,312.214 183.262,310.214 184.5,308.5 Z"/></g>
<g><path style="opacity:0.728" fill="#2e2e2e" d="M 74.5,303.5 C 74.56,302.957 74.8933,302.624 75.5,302.5C 76.8333,311.167 76.8333,319.833 75.5,328.5C 74.8933,328.376 74.56,328.043 74.5,327.5C 75.8333,319.5 75.8333,311.5 74.5,303.5 Z"/></g>
<g><path style="opacity:0.059" fill="#848484" d="M 53.5,332.5 C 52.6236,332.369 51.9569,332.702 51.5,333.5C 52.9584,334.782 54.2918,334.782 55.5,333.5C 56.2891,333.783 56.9558,334.283 57.5,335C 55.1902,335.497 52.8568,335.663 50.5,335.5C 50.2148,333.712 50.5481,332.045 51.5,330.5C 52.5223,330.855 53.189,331.522 53.5,332.5 Z"/></g>
<g><path style="opacity:0.027" fill="#dbdbdb" d="M 428.5,333.5 C 429.289,333.783 429.956,334.283 430.5,335C 427.961,335.796 425.628,335.629 423.5,334.5C 425.415,334.784 427.081,334.451 428.5,333.5 Z"/></g>
<g><path style="opacity:0.075" fill="#cacaca" d="M 175.5,332.5 C 175.598,334.553 174.931,336.22 173.5,337.5C 173.402,335.447 174.069,333.78 175.5,332.5 Z"/></g>
<g><path style="opacity:0.075" fill="#c8c8c8" d="M 323.5,332.5 C 324.931,333.78 325.598,335.447 325.5,337.5C 324.069,336.22 323.402,334.553 323.5,332.5 Z"/></g>
<g><path style="opacity:1" fill="#cead55" d="M 300.5,314.5 C 305.292,326.006 309.625,337.673 313.5,349.5C 309.576,344.307 307.076,338.307 306,331.5C 305.222,328.816 303.889,326.483 302,324.5C 301.39,321.173 300.89,317.839 300.5,314.5 Z"/></g>
<g><path style="opacity:0.043" fill="#cbcbcb" d="M 173.5,337.5 C 173.267,340.542 172.267,343.208 170.5,345.5C 170.733,342.458 171.733,339.792 173.5,337.5 Z"/></g>
<g><path style="opacity:1" fill="#e9d078" d="M 281.5,343.5 C 278.555,342.532 275.555,342.366 272.5,343C 267.397,345.263 262.397,347.763 257.5,350.5C 257.244,342.22 253.244,338.887 245.5,340.5C 246.334,339.252 247.667,338.585 249.5,338.5C 251.693,338.326 253.527,338.993 255,340.5C 259.354,339.609 263.354,340.609 267,343.5C 271.663,341.626 276.496,340.626 281.5,340.5C 281.5,341.5 281.5,342.5 281.5,343.5 Z"/></g>
<g><path style="opacity:0.055" fill="#cfcfcf" d="M 325.5,337.5 C 327.964,341.444 329.63,345.777 330.5,350.5C 328.036,346.556 326.37,342.223 325.5,337.5 Z"/></g>
<g><path style="opacity:1" fill="#d4bf76" d="M 281.5,343.5 C 282.583,343.539 283.583,343.873 284.5,344.5C 287.628,352.594 284.962,356.928 276.5,357.5C 279.429,356.109 281.929,354.109 284,351.5C 284.982,348.225 284.149,345.559 281.5,343.5 Z"/></g>
<g><path style="opacity:0.317" fill="#a7a7a7" d="M 394.5,336.5 C 392.5,338.671 390.666,341.004 389,343.5C 388.833,381.002 388.333,418.336 387.5,455.5C 387.333,417.832 387.5,380.165 388,342.5C 389.406,339.591 391.572,337.591 394.5,336.5 Z"/></g>
<g><path style="opacity:0.255" fill="#a1a1a1" d="M 21.5,336.5 C 19.1067,338.736 17.2734,341.403 16,344.5C 15.8326,381.669 15.3326,418.669 14.5,455.5C 14.3333,418.165 14.5,380.832 15,343.5C 16.0117,339.992 18.1783,337.658 21.5,336.5 Z"/></g>
<g><path style="opacity:0.016" fill="#d4d4d4" d="M 170.5,345.5 C 170.598,347.553 169.931,349.22 168.5,350.5C 168.402,348.447 169.069,346.78 170.5,345.5 Z"/></g>
<g><path style="opacity:0.31" fill="#a8a8a8" d="M 105.5,336.5 C 107.836,338.004 109.669,340.004 111,342.5C 111.5,380.165 111.667,417.832 111.5,455.5C 110.667,418.336 110.167,381.002 110,343.5C 108.25,341.266 106.75,338.932 105.5,336.5 Z"/></g>
<g><path style="opacity:1" fill="#504a51" d="M 29.5,350.5 C 51.8333,350.5 74.1667,350.5 96.5,350.5C 96.5,385.833 96.5,421.167 96.5,456.5C 74.1667,456.5 51.8333,456.5 29.5,456.5C 29.5,421.167 29.5,385.833 29.5,350.5 Z M 69.5,374.5 C 70.0193,378.453 68.6859,381.453 65.5,383.5C 60.0187,383.688 57.0187,381.021 56.5,375.5C 60.5485,370.731 64.8819,370.398 69.5,374.5 Z M 69.5,426.5 C 69.6418,432.024 66.9751,435.024 61.5,435.5C 54.5037,430.126 55.1704,425.793 63.5,422.5C 65.7655,423.432 67.7655,424.765 69.5,426.5 Z"/></g>
<g><path style="opacity:1" fill="#655c65" d="M 83.5,369.5 C 76.5429,356.735 66.2095,352.901 52.5,358C 40.4656,367.174 38.2989,378.341 46,391.5C 53.7214,399.995 62.8881,401.829 73.5,397C 78.1043,394.232 81.4377,390.399 83.5,385.5C 84.659,396.326 84.8257,407.326 84,418.5C 83.6174,419.056 83.1174,419.389 82.5,419.5C 76.6868,409.43 68.0202,405.597 56.5,408C 41.7146,415.355 37.8813,426.522 45,441.5C 55.0231,452.223 66.1898,453.389 78.5,445C 80.3141,442.521 81.9808,440.021 83.5,437.5C 84.4896,443.31 84.8229,449.31 84.5,455.5C 66.5,455.5 48.5,455.5 30.5,455.5C 30.5,420.833 30.5,386.167 30.5,351.5C 48.5,351.5 66.5,351.5 84.5,351.5C 84.8229,357.69 84.4896,363.69 83.5,369.5 Z"/></g>
<g><path style="opacity:1" fill="#87783f" d="M 185.5,348.5 C 185.23,352.358 183.897,355.691 181.5,358.5C 182.267,354.851 183.6,351.518 185.5,348.5 Z"/></g>
<g><path style="opacity:1" fill="#534c53" d="M 479.5,400.5 C 477.652,404.854 476.985,409.52 477.5,414.5C 474.495,414.253 471.995,415.253 470,417.5C 469.5,430.496 469.333,443.496 469.5,456.5C 447.167,456.5 424.833,456.5 402.5,456.5C 402.5,421.167 402.5,385.833 402.5,350.5C 424.833,350.5 447.167,350.5 469.5,350.5C 469.333,365.837 469.5,381.17 470,396.5C 470.465,397.931 471.299,399.097 472.5,400C 474.81,400.497 477.143,400.663 479.5,400.5 Z M 433.5,383.5 C 432.71,382.599 431.71,381.932 430.5,381.5C 429.781,379.236 429.448,376.903 429.5,374.5C 433.964,370.318 438.131,370.651 442,375.5C 442.003,380.994 439.17,383.661 433.5,383.5 Z M 442.5,427.5 C 441.981,433.021 438.981,435.688 433.5,435.5C 433.167,434.5 432.5,433.833 431.5,433.5C 429.832,431.521 429.166,429.188 429.5,426.5C 434.245,421.1 438.579,421.434 442.5,427.5 Z"/></g>
<g><path style="opacity:1" fill="#655c64" d="M 455.5,367.5 C 448.102,356.97 438.102,353.804 425.5,358C 413.775,366.56 411.275,377.393 418,390.5C 425.445,399.798 434.612,401.965 445.5,397C 448.665,394.665 451.665,392.165 454.5,389.5C 455.117,389.389 455.617,389.056 456,388.5C 456.191,398.547 456.691,408.547 457.5,418.5C 457.043,419.298 456.376,419.631 455.5,419.5C 447.348,407.396 436.681,404.563 423.5,411C 412.282,422.068 411.615,433.734 421.5,446C 435.932,454.219 447.598,451.386 456.5,437.5C 457.49,443.31 457.823,449.31 457.5,455.5C 439.5,455.5 421.5,455.5 403.5,455.5C 403.5,420.833 403.5,386.167 403.5,351.5C 421.167,351.5 438.833,351.5 456.5,351.5C 456.821,357.026 456.488,362.36 455.5,367.5 Z"/></g>
<g><path style="opacity:0.251" fill="#a4a4a4" d="M 475.5,335.5 C 479.754,336.585 482.587,339.252 484,343.5C 484.829,361.338 484.662,379.005 483.5,396.5C 483.667,379.163 483.5,361.83 483,344.5C 481.358,340.7 478.858,337.7 475.5,335.5 Z"/></g>
<g><path style="opacity:0.994" fill="#070607" d="M 83.5,369.5 C 84.8333,374.833 84.8333,380.167 83.5,385.5C 81.4377,390.399 78.1043,394.232 73.5,397C 62.8881,401.829 53.7214,399.995 46,391.5C 38.2989,378.341 40.4656,367.174 52.5,358C 66.2095,352.901 76.5429,356.735 83.5,369.5 Z M 69.5,374.5 C 70.0193,378.453 68.6859,381.453 65.5,383.5C 60.0187,383.688 57.0187,381.021 56.5,375.5C 60.5485,370.731 64.8819,370.398 69.5,374.5 Z"/></g>
<g><path style="opacity:1" fill="#fcd05b" d="M 255.5,226.5 C 258.85,226.335 262.183,226.502 265.5,227C 266.066,227.995 266.733,228.828 267.5,229.5C 272.096,237.914 275.762,246.914 278.5,256.5C 278.187,259.247 278.52,261.914 279.5,264.5C 281.361,265.528 282.695,267.028 283.5,269C 285.764,269.236 287.931,269.736 290,270.5C 292.075,273.834 292.909,277.501 292.5,281.5C 290.782,283.926 290.282,286.593 291,289.5C 294.664,297.662 297.831,305.995 300.5,314.5C 300.89,317.839 301.39,321.173 302,324.5C 303.889,326.483 305.222,328.816 306,331.5C 307.076,338.307 309.576,344.307 313.5,349.5C 315.081,351.142 315.747,353.142 315.5,355.5C 316.449,361.294 317.949,366.961 320,372.5C 322.948,376.011 324.281,380.011 324,384.5C 323.282,383.549 322.449,383.383 321.5,384C 324.108,388.098 324.108,392.265 321.5,396.5C 321.833,397.5 322.167,398.5 322.5,399.5C 323.859,397.308 325.692,395.641 328,394.5C 329.404,396.394 330.57,398.394 331.5,400.5C 331.182,401.647 330.516,402.481 329.5,403C 330.729,404.529 332.229,405.696 334,406.5C 336.05,410.539 336.884,414.872 336.5,419.5C 338.124,419.36 339.29,420.027 340,421.5C 340.408,425.949 340.075,430.283 339,434.5C 339.667,435.167 340.333,435.833 341,436.5C 341.494,434.866 341.66,433.199 341.5,431.5C 342.959,431.433 344.292,431.766 345.5,432.5C 345.119,439.71 347.452,445.71 352.5,450.5C 352.5,450.833 352.5,451.167 352.5,451.5C 352.5,452.833 352.5,454.167 352.5,455.5C 348.167,455.5 343.833,455.5 339.5,455.5C 337.047,446.802 333.547,438.469 329,430.5C 327.203,422.11 325.203,413.777 323,405.5C 320.951,403.177 319.117,400.677 317.5,398C 296.984,343.777 276.484,289.61 256,235.5C 255.13,232.385 254.964,229.385 255.5,226.5 Z"/></g>
<g><path style="opacity:0.994" fill="#080708" d="M 455.5,367.5 C 458.376,374.983 458.043,382.316 454.5,389.5C 451.665,392.165 448.665,394.665 445.5,397C 434.612,401.965 425.445,399.798 418,390.5C 411.275,377.393 413.775,366.56 425.5,358C 438.102,353.804 448.102,356.97 455.5,367.5 Z M 433.5,383.5 C 432.71,382.599 431.71,381.932 430.5,381.5C 429.781,379.236 429.448,376.903 429.5,374.5C 433.964,370.318 438.131,370.651 442,375.5C 442.003,380.994 439.17,383.661 433.5,383.5 Z"/></g>
<g><path style="opacity:1" fill="#af9f61" d="M 258.5,365.5 C 257.174,387.264 257.174,408.931 258.5,430.5C 264.69,430.177 270.69,430.51 276.5,431.5C 269.833,431.5 263.167,431.5 256.5,431.5C 255.844,409.141 256.511,387.141 258.5,365.5 Z"/></g>
<g><path style="opacity:1" fill="#f2d982" d="M 276.5,357.5 C 275.5,360.997 273.167,362.831 269.5,363C 271.5,363.333 273.5,363.667 275.5,364C 271.167,364.333 266.833,364.667 262.5,365C 261.069,365.465 259.903,366.299 259,367.5C 258.5,388.497 258.333,409.497 258.5,430.5C 257.174,408.931 257.174,387.264 258.5,365.5C 264.138,362.277 270.138,359.61 276.5,357.5 Z"/></g>
<g><path style="opacity:0.358" fill="#555555" d="M 429.5,374.5 C 429.448,376.903 429.781,379.236 430.5,381.5C 429.007,380.688 428.34,379.355 428.5,377.5C 428.52,376.274 428.853,375.274 429.5,374.5 Z"/></g>
<g><path style="opacity:0.118" fill="#8c8c8c" d="M 56.5,375.5 C 57.0187,381.021 60.0187,383.688 65.5,383.5C 61.0971,385.547 57.9305,384.213 56,379.5C 55.235,377.934 55.4017,376.601 56.5,375.5 Z"/></g>
<g><path style="opacity:0.651" fill="#6b6a68" d="M 69.5,374.5 C 70.8856,377.393 70.5523,380.226 68.5,383C 67.552,383.483 66.552,383.649 65.5,383.5C 68.6859,381.453 70.0193,378.453 69.5,374.5 Z"/></g>
<g><path style="opacity:0.039" fill="#b2b1b1" d="M 430.5,381.5 C 431.71,381.932 432.71,382.599 433.5,383.5C 431.821,383.715 430.821,383.048 430.5,381.5 Z"/></g>
<g><path style="opacity:1" fill="#766a3b" d="M 240.5,373.5 C 240.56,372.957 240.893,372.624 241.5,372.5C 242.828,392.329 242.828,411.996 241.5,431.5C 241.83,411.993 241.497,392.659 240.5,373.5 Z"/></g>
<g><path style="opacity:1" fill="#efc55e" d="M 315.5,355.5 C 325.83,380.787 335.83,406.454 345.5,432.5C 344.292,431.766 342.959,431.433 341.5,431.5C 341.66,433.199 341.494,434.866 341,436.5C 340.333,435.833 339.667,435.167 339,434.5C 340.075,430.283 340.408,425.949 340,421.5C 339.29,420.027 338.124,419.36 336.5,419.5C 336.884,414.872 336.05,410.539 334,406.5C 332.229,405.696 330.729,404.529 329.5,403C 330.516,402.481 331.182,401.647 331.5,400.5C 330.57,398.394 329.404,396.394 328,394.5C 325.692,395.641 323.859,397.308 322.5,399.5C 322.167,398.5 321.833,397.5 321.5,396.5C 324.108,392.265 324.108,388.098 321.5,384C 322.449,383.383 323.282,383.549 324,384.5C 324.281,380.011 322.948,376.011 320,372.5C 317.949,366.961 316.449,361.294 315.5,355.5 Z"/></g>
<g><path style="opacity:0.997" fill="#050505" d="M 82.5,419.5 C 84.7685,425.338 85.1018,431.338 83.5,437.5C 81.9808,440.021 80.3141,442.521 78.5,445C 66.1898,453.389 55.0231,452.223 45,441.5C 37.8813,426.522 41.7146,415.355 56.5,408C 68.0202,405.597 76.6868,409.43 82.5,419.5 Z M 69.5,426.5 C 69.6418,432.024 66.9751,435.024 61.5,435.5C 54.5037,430.126 55.1704,425.793 63.5,422.5C 65.7655,423.432 67.7655,424.765 69.5,426.5 Z"/></g>
<g><path style="opacity:0.997" fill="#040304" d="M 455.5,419.5 C 457.815,425.342 458.149,431.342 456.5,437.5C 447.598,451.386 435.932,454.219 421.5,446C 411.615,433.734 412.282,422.068 423.5,411C 436.681,404.563 447.348,407.396 455.5,419.5 Z M 442.5,427.5 C 441.981,433.021 438.981,435.688 433.5,435.5C 433.167,434.5 432.5,433.833 431.5,433.5C 429.832,431.521 429.166,429.188 429.5,426.5C 434.245,421.1 438.579,421.434 442.5,427.5 Z"/></g>
<g><path style="opacity:0.2" fill="#9a9c9a" d="M 144.5,414.5 C 143.737,418.137 142.403,421.47 140.5,424.5C 140.872,420.703 142.206,417.37 144.5,414.5 Z"/></g>
<g><path style="opacity:0.18" fill="#9a9a9a" d="M 354.5,414.5 C 355.931,415.78 356.598,417.447 356.5,419.5C 355.069,418.22 354.402,416.553 354.5,414.5 Z"/></g>
<g><path style="opacity:0.339" fill="#626060" d="M 429.5,426.5 C 429.166,429.188 429.832,431.521 431.5,433.5C 430.504,433.586 429.671,433.252 429,432.5C 428.211,430.288 428.378,428.288 429.5,426.5 Z"/></g>
<g><path style="opacity:0.153" fill="#a4a4a4" d="M 140.5,424.5 C 139.63,429.223 137.964,433.556 135.5,437.5C 136.37,432.777 138.036,428.444 140.5,424.5 Z"/></g>
<g><path style="opacity:0.127" fill="#a9a9a9" d="M 356.5,419.5 C 359.6,425.121 361.933,431.121 363.5,437.5C 360.4,431.879 358.067,425.879 356.5,419.5 Z"/></g>
<g><path style="opacity:0.259" fill="#605e5f" d="M 69.5,426.5 C 71.3097,430.377 70.3097,433.543 66.5,436C 64.6131,436.78 62.9464,436.613 61.5,435.5C 66.9751,435.024 69.6418,432.024 69.5,426.5 Z"/></g>
<g><path style="opacity:0.369" fill="#686767" d="M 442.5,427.5 C 443.762,430.867 442.762,433.7 439.5,436C 437.288,436.789 435.288,436.622 433.5,435.5C 438.981,435.688 441.981,433.021 442.5,427.5 Z"/></g>
<g><path style="opacity:1" fill="#c1af6b" d="M 153.5,432.5 C 153.291,439.547 150.957,445.547 146.5,450.5C 148.475,444.222 150.808,438.222 153.5,432.5 Z"/></g>
<g><path style="opacity:1" fill="#b89a4d" d="M 345.5,432.5 C 348.204,438.267 350.538,444.267 352.5,450.5C 347.452,445.71 345.119,439.71 345.5,432.5 Z"/></g>
<g><path style="opacity:1" fill="#645b63" d="M 227.5,446.5 C 242.167,446.5 256.833,446.5 271.5,446.5C 271.5,449.833 271.5,453.167 271.5,456.5C 256.833,456.5 242.167,456.5 227.5,456.5C 227.5,453.167 227.5,449.833 227.5,446.5 Z"/></g>
<g><path style="opacity:1" fill="#c9b678" d="M 213.5,441.5 C 213.5,446.5 213.5,451.5 213.5,456.5C 190.5,456.5 167.5,456.5 144.5,456.5C 144.595,454.214 145.262,452.214 146.5,450.5C 146.714,452.144 146.38,453.644 145.5,455C 167.831,455.5 190.164,455.667 212.5,455.5C 212.181,450.637 212.514,445.97 213.5,441.5 Z"/></g>
<g><path style="opacity:1" fill="#cab476" d="M 285.5,438.5 C 286.489,443.975 286.822,449.642 286.5,455.5C 304.167,455.5 321.833,455.5 339.5,455.5C 343.833,455.5 348.167,455.5 352.5,455.5C 352.5,454.167 352.5,452.833 352.5,451.5C 353.931,452.78 354.598,454.447 354.5,456.5C 331.5,456.5 308.5,456.5 285.5,456.5C 285.5,450.5 285.5,444.5 285.5,438.5 Z"/></g>
<g><path style="opacity:1" fill="#dad8e6" d="M 471.5,471.5 C 475.833,471.5 480.167,471.5 484.5,471.5C 484.5,475.833 484.5,480.167 484.5,484.5C 480.167,484.5 475.833,484.5 471.5,484.5C 471.5,480.167 471.5,475.833 471.5,471.5 Z"/></g>
</svg>
