<?xml version="1.0" encoding="UTF-8"?>
<!DOCTYPE svg PUBLIC "-//W3C//DTD SVG 1.1//EN" "http://www.w3.org/Graphics/SVG/1.1/DTD/svg11.dtd">
<svg xmlns="http://www.w3.org/2000/svg" version="1.1" width="500px" height="500px" style="shape-rendering:geometricPrecision; text-rendering:geometricPrecision; image-rendering:optimizeQuality; fill-rule:evenodd; clip-rule:evenodd" xmlns:xlink="http://www.w3.org/1999/xlink">
<g><path style="opacity:1" fill="#8d5935" d="M 231.5,-0.5 C 235.5,-0.5 239.5,-0.5 243.5,-0.5C 243.5,12.1667 243.5,24.8333 243.5,37.5C 238.833,37.5 234.167,37.5 229.5,37.5C 229.5,32.1667 229.5,26.8333 229.5,21.5C 229.334,14.825 229.5,8.15835 230,1.5C 230.717,0.955796 231.217,0.28913 231.5,-0.5 Z"/></g>
<g><path style="opacity:1" fill="#a4683f" d="M 243.5,-0.5 C 251.833,-0.5 260.167,-0.5 268.5,-0.5C 268.833,0.166667 269.167,0.833333 269.5,1.5C 269.5,13.5 269.5,25.5 269.5,37.5C 260.833,37.5 252.167,37.5 243.5,37.5C 243.5,24.8333 243.5,12.1667 243.5,-0.5 Z"/></g>
<g><path style="opacity:0.476" fill="#c4ad9e" d="M 229.5,-0.5 C 230.167,-0.5 230.833,-0.5 231.5,-0.5C 231.217,0.28913 230.717,0.955796 230,1.5C 229.5,8.15835 229.334,14.825 229.5,21.5C 229.167,21.5 228.833,21.5 228.5,21.5C 228.203,14.0796 228.536,6.74629 229.5,-0.5 Z"/></g>
<g><path style="opacity:0.165" fill="#febccd" d="M 474.5,8.5 C 471.455,8.50795 468.455,8.84128 465.5,9.5C 466.946,8.05984 468.779,7.39317 471,7.5C 472.385,7.51428 473.551,7.84761 474.5,8.5 Z"/></g>
<g><path style="opacity:0.169" fill="#ffbbc2" d="M 465.5,9.5 C 463.819,11.0075 461.819,12.0075 459.5,12.5C 460.911,10.461 462.911,9.46095 465.5,9.5 Z"/></g>
<g><path style="opacity:0.322" fill="#e69f9e" d="M 474.5,8.5 C 475.947,9.13419 476.613,10.3009 476.5,12C 476.472,13.0698 476.139,13.9032 475.5,14.5C 475.768,12.901 475.434,11.5676 474.5,10.5C 474.5,9.83333 474.5,9.16667 474.5,8.5 Z"/></g>
<g><path style="opacity:0.996" fill="#e16771" d="M 459.5,12.5 C 458.656,14.7593 456.989,15.7593 454.5,15.5C 455.899,14.1103 457.566,13.1103 459.5,12.5 Z"/></g>
<g><path style="opacity:0.369" fill="#f08890" d="M 475.5,14.5 C 475.248,18.3267 473.915,21.6601 471.5,24.5C 472.314,20.884 473.648,17.5507 475.5,14.5 Z"/></g>
<g><path style="opacity:0.976" fill="#dd5961" d="M 448.5,19.5 C 447.548,23.1201 445.215,24.7868 441.5,24.5C 443.296,22.1 445.63,20.4333 448.5,19.5 Z"/></g>
<g><path style="opacity:1" fill="#fb3844" d="M 474.5,10.5 C 475.434,11.5676 475.768,12.901 475.5,14.5C 473.648,17.5507 472.314,20.884 471.5,24.5C 468.917,25.985 467.584,28.3183 467.5,31.5C 464.703,31.9666 463.369,33.6333 463.5,36.5C 459.988,37.0046 457.655,39.0046 456.5,42.5C 455.624,43.2508 454.624,43.7508 453.5,44C 454.38,45.3561 454.714,46.8561 454.5,48.5C 450.197,48.7352 448.53,51.0685 449.5,55.5C 448.094,55.9731 447.427,56.9731 447.5,58.5C 447.5,59.1667 447.167,59.5 446.5,59.5C 445.5,59.5 444.5,59.5 443.5,59.5C 443.587,62.5983 443.087,62.9316 442,60.5C 441.506,62.1341 441.34,63.8008 441.5,65.5C 441.167,66.5 440.5,67.1667 439.5,67.5C 438.094,67.9731 437.427,68.9731 437.5,70.5C 436.5,72.1667 435.167,73.5 433.5,74.5C 431.858,76.0808 429.858,76.7475 427.5,76.5C 427.167,78.5 426.833,80.5 426.5,82.5C 413.527,96.1396 400.194,109.473 386.5,122.5C 385.178,122.67 384.011,122.337 383,121.5C 382.439,123.725 381.439,125.725 380,127.5C 379.692,126.692 379.192,126.025 378.5,125.5C 377.548,127.045 377.215,128.712 377.5,130.5C 373.172,128.855 370.839,130.522 370.5,135.5C 369.808,134.975 369.308,134.308 369,133.5C 368.505,135.473 368.338,137.473 368.5,139.5C 359.486,147.845 350.153,155.845 340.5,163.5C 339.325,163.719 338.325,163.386 337.5,162.5C 339.303,157.009 338.636,152.009 335.5,147.5C 334.722,146.844 334.056,146.011 333.5,145C 338.861,139.268 343.694,133.101 348,126.5C 350.569,123.38 353.569,120.713 357,118.5C 359,113.833 362.333,110.5 367,108.5C 367.684,106.641 368.684,104.974 370,103.5C 378.345,95.6548 386.178,87.3214 393.5,78.5C 403.668,68.8382 414.334,59.6715 425.5,51C 427.645,49.1825 427.645,47.6825 425.5,46.5C 427.398,45.2655 429.065,45.5989 430.5,47.5C 432.69,45.1443 434.69,42.6443 436.5,40C 446.766,31.5264 457.433,23.5264 468.5,16C 469.406,14.3005 469.739,12.4672 469.5,10.5C 471.167,10.5 472.833,10.5 474.5,10.5 Z"/></g>
<g><path style="opacity:0.443" fill="#ea888c" d="M 471.5,24.5 C 470.404,27.0316 469.071,29.3649 467.5,31.5C 467.584,28.3183 468.917,25.985 471.5,24.5 Z"/></g>
<g><path style="opacity:1" fill="#869fdc" d="M 213.5,23.5 C 217.846,23.3343 222.179,23.501 226.5,24C 227.464,28.0659 227.797,32.2325 227.5,36.5C 216.828,36.3335 206.161,36.5002 195.5,37C 194.531,41.7367 194.197,46.57 194.5,51.5C 177.497,51.6666 160.497,51.4999 143.5,51C 140.81,50.6655 140.143,49.4988 141.5,47.5C 142.833,46.8333 143.833,45.8333 144.5,44.5C 148.622,44.3031 152.622,43.4698 156.5,42C 159.36,39.4459 162.693,37.7793 166.5,37C 170.391,36.5085 173.391,36.8418 175.5,38C 177.792,36.2772 179.958,34.4438 182,32.5C 185.301,31.5553 188.467,30.3886 191.5,29C 195.833,28.6667 200.167,28.3333 204.5,28C 204.167,27.6667 203.833,27.3333 203.5,27C 206.167,26.6667 208.833,26.3333 211.5,26C 212.756,25.5831 213.423,24.7498 213.5,23.5 Z"/></g>
<g><path style="opacity:1" fill="#88a0da" d="M 284.5,23.5 C 309.899,26.636 333.899,33.9694 356.5,45.5C 359.008,47.9236 362.008,49.5903 365.5,50.5C 365.611,51.1174 365.944,51.6174 366.5,52C 345.503,52.5 324.503,52.6666 303.5,52.5C 304.038,47.5329 303.371,42.8662 301.5,38.5C 291.889,36.5257 281.889,35.859 271.5,36.5C 271.334,32.4862 271.501,28.4862 272,24.5C 276.066,23.5363 280.233,23.203 284.5,23.5 Z"/></g>
<g><path style="opacity:0.749" fill="#e36472" d="M 441.5,24.5 C 439.767,28.4192 436.767,30.7525 432.5,31.5C 434.949,28.4442 437.949,26.1108 441.5,24.5 Z"/></g>
<g><path style="opacity:0.467" fill="#e6797f" d="M 467.5,31.5 C 466.876,33.754 465.543,35.4206 463.5,36.5C 463.369,33.6333 464.703,31.9666 467.5,31.5 Z"/></g>
<g><path style="opacity:1" fill="#91a5d7" d="M 213.5,23.5 C 213.423,24.7498 212.756,25.5831 211.5,26C 208.833,26.3333 206.167,26.6667 203.5,27C 203.833,27.3333 204.167,27.6667 204.5,28C 200.167,28.3333 195.833,28.6667 191.5,29C 188.467,30.3886 185.301,31.5553 182,32.5C 179.958,34.4438 177.792,36.2772 175.5,38C 173.391,36.8418 170.391,36.5085 166.5,37C 162.693,37.7793 159.36,39.4459 156.5,42C 152.622,43.4698 148.622,44.3031 144.5,44.5C 166.238,33.7012 189.238,26.7012 213.5,23.5 Z"/></g>
<g><path style="opacity:0.443" fill="#db727d" d="M 432.5,31.5 C 429.54,34.6448 426.207,37.3115 422.5,39.5C 425.095,35.8743 428.428,33.2076 432.5,31.5 Z"/></g>
<g><path style="opacity:1" fill="#9e9bb9" d="M 269.5,1.5 C 270.491,7.97904 270.824,14.6457 270.5,21.5C 275.391,21.5319 280.057,22.1985 284.5,23.5C 280.233,23.203 276.066,23.5363 272,24.5C 271.501,28.4862 271.334,32.4862 271.5,36.5C 281.889,35.859 291.889,36.5257 301.5,38.5C 300.833,38.5 300.167,38.5 299.5,38.5C 289.681,37.506 279.681,37.1726 269.5,37.5C 269.5,25.5 269.5,13.5 269.5,1.5 Z"/></g>
<g><path style="opacity:1" fill="#794b55" d="M 228.5,37.5 C 228.5,37.8333 228.5,38.1667 228.5,38.5C 218.161,38.3335 207.828,38.5002 197.5,39C 196.856,43.9336 196.19,48.767 195.5,53.5C 195.5,53.1667 195.5,52.8333 195.5,52.5C 195.197,47.57 195.531,42.7367 196.5,38C 207.161,37.5002 217.828,37.3335 228.5,37.5 Z"/></g>
<g><path style="opacity:1" fill="#834e54" d="M 269.5,37.5 C 279.681,37.1726 289.681,37.506 299.5,38.5C 289.78,38.1924 280.113,38.5257 270.5,39.5C 269.702,39.0431 269.369,38.3764 269.5,37.5 Z"/></g>
<g><path style="opacity:1" fill="#984333" d="M 228.5,37.5 C 228.833,37.5 229.167,37.5 229.5,37.5C 234.167,37.5 238.833,37.5 243.5,37.5C 252.167,37.5 260.833,37.5 269.5,37.5C 269.369,38.3764 269.702,39.0431 270.5,39.5C 280.113,38.5257 289.78,38.1924 299.5,38.5C 302.1,43.0789 303.1,48.0789 302.5,53.5C 302.5,57.8333 302.5,62.1667 302.5,66.5C 301.5,66.5 300.5,66.5 299.5,66.5C 299.5,67.8333 299.5,69.1667 299.5,70.5C 275.199,71.471 250.866,71.8043 226.5,71.5C 225.548,61.2185 225.214,50.8852 225.5,40.5C 227.179,40.7148 228.179,40.0481 228.5,38.5C 228.5,38.1667 228.5,37.8333 228.5,37.5 Z"/></g>
<g><path style="opacity:0.792" fill="#d06f78" d="M 422.5,39.5 C 421.415,41.5869 419.749,42.9202 417.5,43.5C 418.585,41.4131 420.251,40.0798 422.5,39.5 Z"/></g>
<g><path style="opacity:1" fill="#8b5d65" d="M 299.5,38.5 C 300.167,38.5 300.833,38.5 301.5,38.5C 303.371,42.8662 304.038,47.5329 303.5,52.5C 303.5,52.8333 303.5,53.1667 303.5,53.5C 303.167,53.5 302.833,53.5 302.5,53.5C 303.1,48.0789 302.1,43.0789 299.5,38.5 Z"/></g>
<g><path style="opacity:1" fill="#ed5960" d="M 463.5,36.5 C 459.598,43.4012 454.931,49.7345 449.5,55.5C 448.53,51.0685 450.197,48.7352 454.5,48.5C 454.714,46.8561 454.38,45.3561 453.5,44C 454.624,43.7508 455.624,43.2508 456.5,42.5C 457.655,39.0046 459.988,37.0046 463.5,36.5 Z"/></g>
<g><path style="opacity:1" fill="#87362a" d="M 228.5,38.5 C 228.179,40.0481 227.179,40.7148 225.5,40.5C 225.214,50.8852 225.548,61.2185 226.5,71.5C 216.473,71.6988 206.473,71.3655 196.5,70.5C 195.548,64.9252 195.214,59.2586 195.5,53.5C 196.19,48.767 196.856,43.9336 197.5,39C 207.828,38.5002 218.161,38.3335 228.5,38.5 Z"/></g>
<g><path style="opacity:0.078" fill="#dbe4f9" d="M 356.5,45.5 C 359.992,46.4097 362.992,48.0764 365.5,50.5C 362.008,49.5903 359.008,47.9236 356.5,45.5 Z"/></g>
<g><path style="opacity:0.737" fill="#d8707c" d="M 415.5,44.5 C 414.5,47.5 412.5,49.5 409.5,50.5C 411.167,48.1667 413.167,46.1667 415.5,44.5 Z"/></g>
<g><path style="opacity:1" fill="#8f9dca" d="M 228.5,21.5 C 228.833,21.5 229.167,21.5 229.5,21.5C 229.5,26.8333 229.5,32.1667 229.5,37.5C 229.167,37.5 228.833,37.5 228.5,37.5C 217.828,37.3335 207.161,37.5002 196.5,38C 195.531,42.7367 195.197,47.57 195.5,52.5C 175.497,52.6666 155.497,52.5 135.5,52C 136.563,50.8118 137.897,50.3118 139.5,50.5C 139.285,48.8212 139.952,47.8212 141.5,47.5C 140.143,49.4988 140.81,50.6655 143.5,51C 160.497,51.4999 177.497,51.6666 194.5,51.5C 194.197,46.57 194.531,41.7367 195.5,37C 206.161,36.5002 216.828,36.3335 227.5,36.5C 227.797,32.2325 227.464,28.0659 226.5,24C 222.179,23.501 217.846,23.3343 213.5,23.5C 218.269,22.111 223.269,21.4443 228.5,21.5 Z"/></g>
<g><path style="opacity:1" fill="#acb3cd" d="M 144.5,44.5 C 143.833,45.8333 142.833,46.8333 141.5,47.5C 139.952,47.8212 139.285,48.8212 139.5,50.5C 137.897,50.3118 136.563,50.8118 135.5,52C 155.497,52.5 175.497,52.6666 195.5,52.5C 195.5,52.8333 195.5,53.1667 195.5,53.5C 173.327,53.8307 151.327,53.4974 129.5,52.5C 134.016,49.0734 139.016,46.4068 144.5,44.5 Z"/></g>
<g><path style="opacity:1" fill="#adb4cb" d="M 365.5,50.5 C 367.153,50.6596 368.486,51.3263 369.5,52.5C 347.673,53.4974 325.673,53.8307 303.5,53.5C 303.5,53.1667 303.5,52.8333 303.5,52.5C 324.503,52.6666 345.503,52.5 366.5,52C 365.944,51.6174 365.611,51.1174 365.5,50.5 Z"/></g>
<g><path style="opacity:0.549" fill="#ec8c92" d="M 409.5,50.5 C 408.833,51.8333 407.833,52.8333 406.5,53.5C 406.5,53.1667 406.5,52.8333 406.5,52.5C 406.973,51.0937 407.973,50.427 409.5,50.5 Z"/></g>
<g><path style="opacity:1" fill="#fec987" d="M 100.5,340.5 C 99.8902,341.391 99.5569,342.391 99.5,343.5C 97.058,345.121 95.7247,347.454 95.5,350.5C 93.2336,354.034 91.2336,357.7 89.5,361.5C 86.2763,366.266 83.2763,371.266 80.5,376.5C 78.2152,377.957 76.3819,379.957 75,382.5C 74.833,287.666 74.333,192.999 73.5,98.5C 74.4503,83.8691 74.7836,69.2025 74.5,54.5C 83.5,54.5 92.5,54.5 101.5,54.5C 101.824,149.855 101.49,245.189 100.5,340.5 Z"/></g>
<g><path style="opacity:1" fill="#fee1b7" d="M 74.5,53.5 C 92.6591,52.5032 110.992,52.1698 129.5,52.5C 151.327,53.4974 173.327,53.8307 195.5,53.5C 195.214,59.2586 195.548,64.9252 196.5,70.5C 196.611,71.1174 196.944,71.6174 197.5,72C 231.833,72.6667 266.167,72.6667 300.5,72C 301.667,71.5 302.5,70.6667 303,69.5C 303.499,64.1771 303.666,58.8437 303.5,53.5C 325.673,53.8307 347.673,53.4974 369.5,52.5C 381.833,52.5 394.167,52.5 406.5,52.5C 406.5,52.8333 406.5,53.1667 406.5,53.5C 404.142,55.5293 401.808,57.5293 399.5,59.5C 382.473,74.5271 366.473,90.5271 351.5,107.5C 340.866,118.972 330.366,130.638 320,142.5C 319.517,143.448 319.351,144.448 319.5,145.5C 318.395,146.6 317.062,147.267 315.5,147.5C 305.099,146.701 296.099,149.868 288.5,157C 284.963,160.369 281.629,163.869 278.5,167.5C 277.662,167.842 277.328,168.508 277.5,169.5C 275.204,171.401 273.371,173.734 272,176.5C 264.928,190.027 262.428,204.36 264.5,219.5C 264.918,220.222 265.584,220.722 266.5,221C 268.667,221.167 270.833,221.333 273,221.5C 280.657,220.868 288.157,219.535 295.5,217.5C 296.873,217.657 298.207,217.49 299.5,217C 303.279,215.453 306.946,213.619 310.5,211.5C 311.086,211.709 311.586,212.043 312,212.5C 312.926,210.308 314.093,208.308 315.5,206.5C 315.833,205.833 316.167,205.167 316.5,204.5C 329.917,195.052 336.917,182.052 337.5,165.5C 339.027,165.573 340.027,164.906 340.5,163.5C 350.153,155.845 359.486,147.845 368.5,139.5C 375.131,134.537 381.131,128.87 386.5,122.5C 400.194,109.473 413.527,96.1396 426.5,82.5C 426.214,88.2586 426.548,93.9252 427.5,99.5C 427.167,99.5 426.833,99.5 426.5,99.5C 425.596,100.209 425.263,101.209 425.5,102.5C 425.166,195.005 424.166,287.338 422.5,379.5C 414.999,368.502 407.999,357.168 401.5,345.5C 396.669,335.833 391.336,326.5 385.5,317.5C 374.083,296.996 362.416,276.662 350.5,256.5C 347.406,249.147 343.406,242.314 338.5,236C 334.795,234.687 332.462,235.854 331.5,239.5C 326.666,246.496 322.333,253.829 318.5,261.5C 311.584,272.996 304.917,284.663 298.5,296.5C 296.167,299.833 293.833,303.167 291.5,306.5C 290.5,306.5 289.5,306.5 288.5,306.5C 288.995,310.503 287.495,313.503 284,315.5C 281.935,320.069 280.101,324.735 278.5,329.5C 276.066,333.272 274.066,337.272 272.5,341.5C 270.983,341.489 269.816,340.823 269,339.5C 263.222,329.606 257.722,319.606 252.5,309.5C 250.654,306.119 249.654,302.453 249.5,298.5C 248.5,298.5 247.5,298.5 246.5,298.5C 246.752,295.68 246.252,293.014 245,290.5C 244,290.5 243,290.5 242,290.5C 240.448,286.667 238.615,283 236.5,279.5C 236.043,278.702 235.376,278.369 234.5,278.5C 231.486,273.797 228.486,269.13 225.5,264.5C 220.404,255.299 215.07,246.299 209.5,237.5C 202.82,224.644 195.487,212.144 187.5,200C 184.692,199.08 182.525,199.913 181,202.5C 179.063,206.714 176.896,210.714 174.5,214.5C 167.412,225.002 161.079,236.002 155.5,247.5C 151.731,252.039 148.731,257.039 146.5,262.5C 142.796,264.211 140.796,267.211 140.5,271.5C 138.75,275.335 136.75,279.001 134.5,282.5C 133.417,282.539 132.417,282.873 131.5,283.5C 129.49,288.785 127.157,293.785 124.5,298.5C 123.5,298.5 122.5,298.5 121.5,298.5C 121.5,300.167 121.5,301.833 121.5,303.5C 120.5,303.5 119.5,303.5 118.5,303.5C 118.599,306.237 118.265,308.904 117.5,311.5C 114.233,317.035 111.233,322.702 108.5,328.5C 106.997,331.489 104.997,334.156 102.5,336.5C 102.169,242.459 102.503,148.459 103.5,54.5C 93.8563,53.5016 84.1896,53.1682 74.5,53.5 Z"/></g>
<g><path style="opacity:0.012" fill="#faa7a9" d="M 449.5,55.5 C 449.573,57.0269 448.906,58.0269 447.5,58.5C 447.427,56.9731 448.094,55.9731 449.5,55.5 Z"/></g>
<g><path style="opacity:1" fill="#e92b3d" d="M 474.5,8.5 C 474.5,9.16667 474.5,9.83333 474.5,10.5C 472.833,10.5 471.167,10.5 469.5,10.5C 469.739,12.4672 469.406,14.3005 468.5,16C 457.433,23.5264 446.766,31.5264 436.5,40C 434.69,42.6443 432.69,45.1443 430.5,47.5C 429.065,45.5989 427.398,45.2655 425.5,46.5C 427.645,47.6825 427.645,49.1825 425.5,51C 414.334,59.6715 403.668,68.8382 393.5,78.5C 386.178,87.3214 378.345,95.6548 370,103.5C 368.684,104.974 367.684,106.641 367,108.5C 362.333,110.5 359,113.833 357,118.5C 353.569,120.713 350.569,123.38 348,126.5C 343.694,133.101 338.861,139.268 333.5,145C 334.056,146.011 334.722,146.844 335.5,147.5C 334.167,147.5 332.833,147.5 331.5,147.5C 331.5,146.5 331.5,145.5 331.5,144.5C 328.833,144.5 326.167,144.5 323.5,144.5C 323.561,142.408 324.561,140.908 326.5,140C 329.214,138.206 332.214,137.04 335.5,136.5C 334.617,135.452 333.95,134.285 333.5,133C 335.251,127.572 338.251,122.905 342.5,119C 345.811,119.136 346.144,120.303 343.5,122.5C 345.984,123.894 345.984,125.394 343.5,127C 343.833,127.5 344.167,128 344.5,128.5C 346.058,126.044 348.058,124.044 350.5,122.5C 349.233,120.12 349.566,117.954 351.5,116C 351.05,114.715 350.383,113.548 349.5,112.5C 350.95,111.15 351.617,109.484 351.5,107.5C 354.998,106.219 357.998,104.052 360.5,101C 363.318,100.16 365.484,100.994 367,103.5C 368.188,102.437 368.688,101.103 368.5,99.5C 364.805,98.8128 363.805,96.8128 365.5,93.5C 367.124,93.6399 368.29,92.9733 369,91.5C 369.5,92 370,92.5 370.5,93C 367.572,97.8281 368.239,98.4948 372.5,95C 373.809,93.2493 373.475,91.7493 371.5,90.5C 377.164,81.6656 384.497,74.1656 393.5,68C 394.448,67.5172 395.448,67.3505 396.5,67.5C 396.572,64.4475 397.572,61.7808 399.5,59.5C 401.808,57.5293 404.142,55.5293 406.5,53.5C 407.833,52.8333 408.833,51.8333 409.5,50.5C 412.5,49.5 414.5,47.5 415.5,44.5C 416.167,44.1667 416.833,43.8333 417.5,43.5C 419.749,42.9202 421.415,41.5869 422.5,39.5C 426.207,37.3115 429.54,34.6448 432.5,31.5C 436.767,30.7525 439.767,28.4192 441.5,24.5C 445.215,24.7868 447.548,23.1201 448.5,19.5C 450.147,17.6736 452.147,16.3403 454.5,15.5C 456.989,15.7593 458.656,14.7593 459.5,12.5C 461.819,12.0075 463.819,11.0075 465.5,9.5C 468.455,8.84128 471.455,8.50795 474.5,8.5 Z"/></g>
<g><path style="opacity:0.663" fill="#f38288" d="M 446.5,59.5 C 445.557,62.1092 443.89,64.1092 441.5,65.5C 441.34,63.8008 441.506,62.1341 442,60.5C 443.087,62.9316 443.587,62.5983 443.5,59.5C 444.5,59.5 445.5,59.5 446.5,59.5 Z"/></g>
<g><path style="opacity:1" fill="#fad3a0" d="M 74.5,53.5 C 84.1896,53.1682 93.8563,53.5016 103.5,54.5C 102.503,148.459 102.169,242.459 102.5,336.5C 102.167,337.833 101.833,339.167 101.5,340.5C 101.167,340.5 100.833,340.5 100.5,340.5C 101.49,245.189 101.824,149.855 101.5,54.5C 92.5,54.5 83.5,54.5 74.5,54.5C 74.7836,69.2025 74.4503,83.8691 73.5,98.5C 73.1667,98.5 72.8333,98.5 72.5,98.5C 72.3334,83.8295 72.5001,69.1629 73,54.5C 73.3826,53.944 73.8826,53.6107 74.5,53.5 Z"/></g>
<g><path style="opacity:0.016" fill="#f6a7aa" d="M 439.5,67.5 C 439.573,69.0269 438.906,70.0269 437.5,70.5C 437.427,68.9731 438.094,67.9731 439.5,67.5 Z"/></g>
<g><path style="opacity:1" fill="#8e4933" d="M 302.5,53.5 C 302.833,53.5 303.167,53.5 303.5,53.5C 303.666,58.8437 303.499,64.1771 303,69.5C 302.5,70.6667 301.667,71.5 300.5,72C 266.167,72.6667 231.833,72.6667 197.5,72C 196.944,71.6174 196.611,71.1174 196.5,70.5C 206.473,71.3655 216.473,71.6988 226.5,71.5C 250.866,71.8043 275.199,71.471 299.5,70.5C 299.5,69.1667 299.5,67.8333 299.5,66.5C 300.5,66.5 301.5,66.5 302.5,66.5C 302.5,62.1667 302.5,57.8333 302.5,53.5 Z"/></g>
<g><path style="opacity:1" fill="#ee8081" d="M 433.5,74.5 C 431.906,77.7642 429.573,80.4309 426.5,82.5C 426.833,80.5 427.167,78.5 427.5,76.5C 429.858,76.7475 431.858,76.0808 433.5,74.5 Z"/></g>
<g><path style="opacity:1" fill="#e44346" d="M 399.5,59.5 C 397.572,61.7808 396.572,64.4475 396.5,67.5C 395.448,67.3505 394.448,67.5172 393.5,68C 384.497,74.1656 377.164,81.6656 371.5,90.5C 373.475,91.7493 373.809,93.2493 372.5,95C 368.239,98.4948 367.572,97.8281 370.5,93C 370,92.5 369.5,92 369,91.5C 368.29,92.9733 367.124,93.6399 365.5,93.5C 363.805,96.8128 364.805,98.8128 368.5,99.5C 368.688,101.103 368.188,102.437 367,103.5C 365.484,100.994 363.318,100.16 360.5,101C 357.998,104.052 354.998,106.219 351.5,107.5C 366.473,90.5271 382.473,74.5271 399.5,59.5 Z"/></g>
<g><path style="opacity:1" fill="#eeaf4f" d="M 159.5,97.5 C 151.353,97.0622 143.353,97.7289 135.5,99.5C 137.858,97.8714 140.524,96.7048 143.5,96C 148.5,95.3333 153.5,95.3333 158.5,96C 159.056,96.3826 159.389,96.8826 159.5,97.5 Z"/></g>
<g><path style="opacity:1" fill="#fed381" d="M 163.5,97.5 C 168.422,97.9608 172.422,99.9608 175.5,103.5C 170.947,102.438 166.947,100.438 163.5,97.5 Z"/></g>
<g><path style="opacity:1" fill="#feae11" d="M 160.5,97.5 C 161.5,97.5 162.5,97.5 163.5,97.5C 166.947,100.438 170.947,102.438 175.5,103.5C 177.833,106.5 180.5,109.167 183.5,111.5C 183.308,116.139 184.808,120.139 188,123.5C 189.374,127.547 190.207,131.714 190.5,136C 189.838,141.525 188.838,147.025 187.5,152.5C 187.371,154.216 187.038,155.883 186.5,157.5C 182.766,160.231 179.766,163.564 177.5,167.5C 171.977,171.262 165.977,173.928 159.5,175.5C 156.226,174.12 152.893,172.62 149.5,171C 145.403,168.073 141.737,164.573 138.5,160.5C 123.139,134.445 128.472,113.945 154.5,99C 156.708,98.8091 158.708,98.3091 160.5,97.5 Z"/></g>
<g><path style="opacity:1" fill="#f3cb9d" d="M 73.5,98.5 C 74.333,192.999 74.833,287.666 75,382.5C 76.3819,379.957 78.2152,377.957 80.5,376.5C 78.5675,379.366 76.9009,382.366 75.5,385.5C 73.5024,290.172 72.8357,194.506 73.5,98.5 Z"/></g>
<g><path style="opacity:1" fill="#f5e2c8" d="M 425.5,102.5 C 426.164,196.173 425.498,289.506 423.5,382.5C 422.89,381.609 422.557,380.609 422.5,379.5C 424.166,287.338 425.166,195.005 425.5,102.5 Z"/></g>
<g><path style="opacity:1" fill="#86a0dc" d="M 71.5,367.5 C 71.6664,375.507 71.4997,383.507 71,391.5C 63.9213,392.48 56.7546,392.813 49.5,392.5C 43.8903,385.62 39.557,377.954 36.5,369.5C 34.3127,363.448 31.8127,357.448 29,351.5C 26.1936,344.41 24.1936,337.077 23,329.5C 22.6582,331.619 21.8249,331.953 20.5,330.5C 19.7687,325.562 18.4354,320.895 16.5,316.5C 15.4257,303.814 13.9257,291.147 12,278.5C 11.4403,260.16 11.607,241.827 12.5,223.5C 12.7632,218.23 13.7632,213.23 15.5,208.5C 16.1499,208.196 16.8165,207.863 17.5,207.5C 19.907,202.513 21.0737,197.179 21,191.5C 22.3333,188.833 23.6667,186.167 25,183.5C 25.6692,177.203 27.1692,171.203 29.5,165.5C 33.6432,155.88 38.3099,146.547 43.5,137.5C 45.7339,135.695 48.0672,133.862 50.5,132C 50.1667,131.667 49.8333,131.333 49.5,131C 52.0775,128.213 54.5775,125.38 57,122.5C 58.3876,123.554 59.8876,123.72 61.5,123C 60.0096,122.255 59.0096,121.088 58.5,119.5C 59.4669,117.238 60.1336,114.905 60.5,112.5C 61.8734,112.657 63.2068,112.49 64.5,112C 66.3333,109.5 68.1667,107 70,104.5C 70.167,192.334 70.667,280.001 71.5,367.5 Z"/></g>
<g><path style="opacity:1" fill="#8c9fd1" d="M 68.5,103.5 C 69.5,103.5 70.5,103.5 71.5,103.5C 71.5,191.5 71.5,279.5 71.5,367.5C 70.667,280.001 70.167,192.334 70,104.5C 68.1667,107 66.3333,109.5 64.5,112C 63.2068,112.49 61.8734,112.657 60.5,112.5C 62.4719,108.895 65.1385,105.895 68.5,103.5 Z"/></g>
<g><path style="opacity:1" fill="#86a0dc" d="M 428.5,105.5 C 430.67,107.086 433.004,108.42 435.5,109.5C 440.549,114.588 444.883,120.255 448.5,126.5C 449.761,128.486 449.428,130.319 447.5,132C 448.5,132.333 449.5,132.667 450.5,133C 452.274,136.436 454.608,139.269 457.5,141.5C 464.239,152.978 469.905,164.978 474.5,177.5C 474.861,181.915 476.194,185.915 478.5,189.5C 481.416,197.164 483.416,205.164 484.5,213.5C 487.044,238.085 488.044,262.752 487.5,287.5C 486.105,307.413 481.438,326.413 473.5,344.5C 470.448,350.777 467.281,357.111 464,363.5C 463.51,364.793 463.343,366.127 463.5,367.5C 459.952,376.498 455.285,384.831 449.5,392.5C 441.833,392.5 434.167,392.5 426.5,392.5C 426.5,390.833 426.5,389.167 426.5,387.5C 428.344,385.721 429.01,383.388 428.5,380.5C 429.5,380.5 430.5,380.5 431.5,380.5C 431.799,378.396 431.466,376.396 430.5,374.5C 429.914,374.709 429.414,375.043 429,375.5C 428.5,285.501 428.333,195.501 428.5,105.5 Z"/></g>
<g><path style="opacity:1" fill="#cfc2b3" d="M 71.5,99.5 C 71.5,98.8333 71.8333,98.5 72.5,98.5C 72.8333,98.5 73.1667,98.5 73.5,98.5C 72.8357,194.506 73.5024,290.172 75.5,385.5C 75.1667,386.5 74.5,387.167 73.5,387.5C 72.8357,291.402 72.169,195.402 71.5,99.5 Z"/></g>
<g><path style="opacity:1" fill="#d9d1dc" d="M 426.5,99.5 C 426.5,194.833 426.5,290.167 426.5,385.5C 426.5,386.167 426.167,386.5 425.5,386.5C 424.833,385.167 424.167,383.833 423.5,382.5C 425.498,289.506 426.164,196.173 425.5,102.5C 425.263,101.209 425.596,100.209 426.5,99.5 Z"/></g>
<g><path style="opacity:1" fill="#889ed0" d="M 428.5,105.5 C 428.333,195.501 428.5,285.501 429,375.5C 429.414,375.043 429.914,374.709 430.5,374.5C 431.466,376.396 431.799,378.396 431.5,380.5C 430.5,380.5 429.5,380.5 428.5,380.5C 429.01,383.388 428.344,385.721 426.5,387.5C 425.833,387.5 425.5,387.167 425.5,386.5C 426.167,386.5 426.5,386.167 426.5,385.5C 427.164,291.598 427.831,198.264 428.5,105.5 Z"/></g>
<g><path style="opacity:1" fill="#979bad" d="M 71.5,99.5 C 72.169,195.402 72.8357,291.402 73.5,387.5C 72.8505,389.435 72.5172,391.435 72.5,393.5C 63.5,393.5 54.5,393.5 45.5,393.5C 46.5676,392.566 47.901,392.232 49.5,392.5C 56.7546,392.813 63.9213,392.48 71,391.5C 71.4997,383.507 71.6664,375.507 71.5,367.5C 71.5,279.5 71.5,191.5 71.5,103.5C 70.5,103.5 69.5,103.5 68.5,103.5C 69.0256,101.77 70.0256,100.436 71.5,99.5 Z"/></g>
<g><path style="opacity:1" fill="#989ec2" d="M 426.5,99.5 C 426.833,99.5 427.167,99.5 427.5,99.5C 430.54,102.539 433.206,105.873 435.5,109.5C 433.004,108.42 430.67,107.086 428.5,105.5C 427.831,198.264 427.164,291.598 426.5,385.5C 426.5,290.167 426.5,194.833 426.5,99.5 Z"/></g>
<g><path style="opacity:1" fill="#f34a4c" d="M 386.5,122.5 C 381.131,128.87 375.131,134.537 368.5,139.5C 368.338,137.473 368.505,135.473 369,133.5C 369.308,134.308 369.808,134.975 370.5,135.5C 370.839,130.522 373.172,128.855 377.5,130.5C 377.215,128.712 377.548,127.045 378.5,125.5C 379.192,126.025 379.692,126.692 380,127.5C 381.439,125.725 382.439,123.725 383,121.5C 384.011,122.337 385.178,122.67 386.5,122.5 Z"/></g>
<g><path style="opacity:1" fill="#feda9d" d="M 112.5,124.5 C 109.429,137.487 111.762,149.154 119.5,159.5C 121.5,161.833 123.5,164.167 125.5,166.5C 119.769,163.267 115.603,158.601 113,152.5C 111.107,146.657 110.274,140.657 110.5,134.5C 110.514,130.761 111.18,127.428 112.5,124.5 Z"/></g>
<g><path style="opacity:1" fill="#9bacd7" d="M 60.5,112.5 C 60.1336,114.905 59.4669,117.238 58.5,119.5C 59.0096,121.088 60.0096,122.255 61.5,123C 59.8876,123.72 58.3876,123.554 57,122.5C 54.5775,125.38 52.0775,128.213 49.5,131C 49.8333,131.333 50.1667,131.667 50.5,132C 48.0672,133.862 45.7339,135.695 43.5,137.5C 48.4275,128.639 54.0942,120.305 60.5,112.5 Z"/></g>
<g><path style="opacity:1" fill="#a9b7de" d="M 448.5,126.5 C 452.251,130.995 455.251,135.995 457.5,141.5C 454.608,139.269 452.274,136.436 450.5,133C 449.5,132.667 448.5,132.333 447.5,132C 449.428,130.319 449.761,128.486 448.5,126.5 Z"/></g>
<g><path style="opacity:1" fill="#e13b40" d="M 351.5,107.5 C 351.617,109.484 350.95,111.15 349.5,112.5C 350.383,113.548 351.05,114.715 351.5,116C 349.566,117.954 349.233,120.12 350.5,122.5C 348.058,124.044 346.058,126.044 344.5,128.5C 344.167,128 343.833,127.5 343.5,127C 345.984,125.394 345.984,123.894 343.5,122.5C 346.144,120.303 345.811,119.136 342.5,119C 338.251,122.905 335.251,127.572 333.5,133C 333.95,134.285 334.617,135.452 335.5,136.5C 332.214,137.04 329.214,138.206 326.5,140C 324.561,140.908 323.561,142.408 323.5,144.5C 326.167,144.5 328.833,144.5 331.5,144.5C 331.5,145.5 331.5,146.5 331.5,147.5C 332.833,147.5 334.167,147.5 335.5,147.5C 338.636,152.009 339.303,157.009 337.5,162.5C 338.325,163.386 339.325,163.719 340.5,163.5C 340.027,164.906 339.027,165.573 337.5,165.5C 336.634,160.221 335.8,154.888 335,149.5C 331.085,148.592 327.085,147.925 323,147.5C 321.319,147.392 320.152,146.725 319.5,145.5C 319.351,144.448 319.517,143.448 320,142.5C 330.366,130.638 340.866,118.972 351.5,107.5 Z"/></g>
<g><path style="opacity:1" fill="#eba23a" d="M 116.5,117.5 C 115.531,124.132 114.531,130.798 113.5,137.5C 113.667,139.5 113.833,141.5 114,143.5C 115.588,148.99 117.422,154.323 119.5,159.5C 111.762,149.154 109.429,137.487 112.5,124.5C 113.104,121.782 114.437,119.449 116.5,117.5 Z"/></g>
<g><path style="opacity:1" fill="#f9b83c" d="M 183.5,111.5 C 185.742,116.259 188.242,120.926 191,125.5C 191.667,132.167 191.667,138.833 191,145.5C 190.272,148.187 189.105,150.52 187.5,152.5C 188.838,147.025 189.838,141.525 190.5,136C 190.207,131.714 189.374,127.547 188,123.5C 184.808,120.139 183.308,116.139 183.5,111.5 Z"/></g>
<g><path style="opacity:1" fill="#ee9717" d="M 159.5,97.5 C 159.833,97.5 160.167,97.5 160.5,97.5C 158.708,98.3091 156.708,98.8091 154.5,99C 128.472,113.945 123.139,134.445 138.5,160.5C 141.737,164.573 145.403,168.073 149.5,171C 152.893,172.62 156.226,174.12 159.5,175.5C 146.878,177.883 135.545,174.883 125.5,166.5C 123.5,164.167 121.5,161.833 119.5,159.5C 117.422,154.323 115.588,148.99 114,143.5C 113.833,141.5 113.667,139.5 113.5,137.5C 114.531,130.798 115.531,124.132 116.5,117.5C 120.23,108.771 126.563,102.771 135.5,99.5C 143.353,97.7289 151.353,97.0622 159.5,97.5 Z"/></g>
<g><path style="opacity:1" fill="#a5683f" d="M 319.5,145.5 C 320.152,146.725 321.319,147.392 323,147.5C 327.085,147.925 331.085,148.592 335,149.5C 335.8,154.888 336.634,160.221 337.5,165.5C 336.917,182.052 329.917,195.052 316.5,204.5C 316.818,199.968 316.485,195.634 315.5,191.5C 312.059,190.903 308.725,190.237 305.5,189.5C 305.665,186.15 305.498,182.817 305,179.5C 301.606,178.544 298.106,178.211 294.5,178.5C 294.815,174.629 294.482,170.962 293.5,167.5C 299.451,160.682 306.451,155.015 314.5,150.5C 315.386,149.675 315.719,148.675 315.5,147.5C 317.062,147.267 318.395,146.6 319.5,145.5 Z"/></g>
<g><path style="opacity:1" fill="#8f5c37" d="M 315.5,147.5 C 315.719,148.675 315.386,149.675 314.5,150.5C 306.451,155.015 299.451,160.682 293.5,167.5C 288.5,167.5 283.5,167.5 278.5,167.5C 281.629,163.869 284.963,160.369 288.5,157C 296.099,149.868 305.099,146.701 315.5,147.5 Z"/></g>
<g><path style="opacity:1" fill="#fdcd75" d="M 186.5,157.5 C 184.234,161.436 181.234,164.769 177.5,167.5C 179.766,163.564 182.766,160.231 186.5,157.5 Z"/></g>
<g><path style="opacity:1" fill="#815f58" d="M 293.5,167.5 C 294.482,170.962 294.815,174.629 294.5,178.5C 298.106,178.211 301.606,178.544 305,179.5C 305.498,182.817 305.665,186.15 305.5,189.5C 304.833,186.5 304.167,183.5 303.5,180.5C 300.375,179.521 297.042,179.187 293.5,179.5C 293.5,175.5 293.5,171.5 293.5,167.5 Z"/></g>
<g><path style="opacity:1" fill="#28305b" d="M 277.5,169.5 C 276.042,173.631 275.042,177.964 274.5,182.5C 272.605,183.973 270.939,185.64 269.5,187.5C 268.355,189.635 268.355,191.801 269.5,194C 264.779,200.743 263.279,208.243 265,216.5C 266.049,218.107 267.549,218.773 269.5,218.5C 269.67,217.178 269.337,216.011 268.5,215C 269.025,214.308 269.692,213.808 270.5,213.5C 272.932,215.414 275.598,216.748 278.5,217.5C 279.167,217.833 279.833,218.167 280.5,218.5C 275.36,219.488 270.026,219.821 264.5,219.5C 262.428,204.36 264.928,190.027 272,176.5C 273.371,173.734 275.204,171.401 277.5,169.5 Z"/></g>
<g><path style="opacity:1" fill="#2a3c7a" d="M 278.5,167.5 C 283.5,167.5 288.5,167.5 293.5,167.5C 293.5,171.5 293.5,175.5 293.5,179.5C 297.042,179.187 300.375,179.521 303.5,180.5C 303.448,184.198 303.114,187.865 302.5,191.5C 306.452,192.272 310.452,192.605 314.5,192.5C 314.665,195.518 314.498,198.518 314,201.5C 312.555,204.055 311.389,206.722 310.5,209.5C 306.498,212.276 302.165,214.276 297.5,215.5C 291.814,216.392 286.147,217.392 280.5,218.5C 279.833,218.167 279.167,217.833 278.5,217.5C 278.171,211.463 278.504,205.463 279.5,199.5C 281.339,193.47 283.173,187.47 285,181.5C 286.256,177.984 288.256,174.984 291,172.5C 291.49,171.207 291.657,169.873 291.5,168.5C 286.737,168.226 282.07,168.559 277.5,169.5C 277.328,168.508 277.662,167.842 278.5,167.5 Z"/></g>
<g><path style="opacity:0.173" fill="#b7c3e5" d="M 474.5,177.5 C 476.405,181.216 477.739,185.216 478.5,189.5C 476.194,185.915 474.861,181.915 474.5,177.5 Z"/></g>
<g><path style="opacity:1" fill="#3c3e69" d="M 303.5,180.5 C 304.167,183.5 304.833,186.5 305.5,189.5C 308.725,190.237 312.059,190.903 315.5,191.5C 315.663,196.547 315.329,201.547 314.5,206.5C 313.167,207.5 311.833,208.5 310.5,209.5C 311.389,206.722 312.555,204.055 314,201.5C 314.498,198.518 314.665,195.518 314.5,192.5C 310.452,192.605 306.452,192.272 302.5,191.5C 303.114,187.865 303.448,184.198 303.5,180.5 Z"/></g>
<g><path style="opacity:1" fill="#1a2b64" d="M 278.5,217.5 C 275.598,216.748 272.932,215.414 270.5,213.5C 269.692,213.808 269.025,214.308 268.5,215C 269.337,216.011 269.67,217.178 269.5,218.5C 267.549,218.773 266.049,218.107 265,216.5C 263.279,208.243 264.779,200.743 269.5,194C 268.355,191.801 268.355,189.635 269.5,187.5C 270.939,185.64 272.605,183.973 274.5,182.5C 275.042,177.964 276.042,173.631 277.5,169.5C 282.07,168.559 286.737,168.226 291.5,168.5C 291.657,169.873 291.49,171.207 291,172.5C 288.256,174.984 286.256,177.984 285,181.5C 283.173,187.47 281.339,193.47 279.5,199.5C 278.504,205.463 278.171,211.463 278.5,217.5 Z"/></g>
<g><path style="opacity:1" fill="#5b4d56" d="M 315.5,191.5 C 316.485,195.634 316.818,199.968 316.5,204.5C 316.167,205.167 315.833,205.833 315.5,206.5C 315.167,206.5 314.833,206.5 314.5,206.5C 315.329,201.547 315.663,196.547 315.5,191.5 Z"/></g>
<g><path style="opacity:1" fill="#9fb0db" d="M 29.5,165.5 C 27.1692,171.203 25.6692,177.203 25,183.5C 23.6667,186.167 22.3333,188.833 21,191.5C 21.0737,197.179 19.907,202.513 17.5,207.5C 16.8165,207.863 16.1499,208.196 15.5,208.5C 18.1929,193.423 22.8596,179.09 29.5,165.5 Z"/></g>
<g><path style="opacity:1" fill="#e4d1bf" d="M 314.5,206.5 C 314.833,206.5 315.167,206.5 315.5,206.5C 314.093,208.308 312.926,210.308 312,212.5C 311.586,212.043 311.086,211.709 310.5,211.5C 306.946,213.619 303.279,215.453 299.5,217C 298.207,217.49 296.873,217.657 295.5,217.5C 296.167,216.833 296.833,216.167 297.5,215.5C 302.165,214.276 306.498,212.276 310.5,209.5C 311.833,208.5 313.167,207.5 314.5,206.5 Z"/></g>
<g><path style="opacity:1" fill="#2a3d7b" d="M 193.5,230.5 C 191.515,236.251 189.015,241.918 186,247.5C 176.821,260.824 168.321,274.491 160.5,288.5C 157.171,295.825 153.838,303.158 150.5,310.5C 148.476,312.69 146.643,315.023 145,317.5C 134.376,336.441 123.376,355.108 112,373.5C 108.901,379.415 106.068,385.415 103.5,391.5C 93.8104,391.832 84.1437,391.498 74.5,390.5C 76.4735,388.098 77.9735,385.431 79,382.5C 79.3333,382.833 79.6667,383.167 80,383.5C 80.3333,382.167 80.6667,380.833 81,379.5C 81.414,379.957 81.914,380.291 82.5,380.5C 83.1667,379.5 83.8333,378.5 84.5,377.5C 85.7472,379.006 85.7472,380.506 84.5,382C 85.4491,382.617 86.2825,382.451 87,381.5C 87.4955,379.527 87.6621,377.527 87.5,375.5C 86.5,375.5 85.5,375.5 84.5,375.5C 86.1403,370.874 87.8069,366.207 89.5,361.5C 91.2336,357.7 93.2336,354.034 95.5,350.5C 97.1991,348.434 98.5324,346.1 99.5,343.5C 99.5569,342.391 99.8902,341.391 100.5,340.5C 100.833,340.5 101.167,340.5 101.5,340.5C 105.299,337.598 107.633,333.598 108.5,328.5C 111.458,326.209 114.125,323.542 116.5,320.5C 117.275,317.516 117.941,314.516 118.5,311.5C 123.8,301.853 129.134,292.187 134.5,282.5C 136.75,279.001 138.75,275.335 140.5,271.5C 141.833,269.833 143.167,268.167 144.5,266.5C 146.331,267.052 147.997,267.052 149.5,266.5C 148.515,264.902 148.349,263.235 149,261.5C 151.179,258.599 153.346,256.433 155.5,255C 154.253,252.493 154.253,249.993 155.5,247.5C 161.079,236.002 167.412,225.002 174.5,214.5C 178.108,211.967 180.775,208.634 182.5,204.5C 184.833,205.167 187.167,205.833 189.5,206.5C 190.745,207.955 190.578,209.289 189,210.5C 188.333,212.5 188.333,214.5 189,216.5C 190.507,217.505 191.673,218.838 192.5,220.5C 193.597,218.771 194.763,217.104 196,215.5C 197.14,218.528 196.306,220.695 193.5,222C 194.357,222.689 195.023,223.522 195.5,224.5C 193.914,226.173 193.247,228.173 193.5,230.5 Z"/></g>
<g><path style="opacity:1" fill="#525271" d="M 297.5,215.5 C 296.833,216.167 296.167,216.833 295.5,217.5C 288.157,219.535 280.657,220.868 273,221.5C 270.833,221.333 268.667,221.167 266.5,221C 265.584,220.722 264.918,220.222 264.5,219.5C 270.026,219.821 275.36,219.488 280.5,218.5C 286.147,217.392 291.814,216.392 297.5,215.5 Z"/></g>
<g><path style="opacity:1" fill="#314178" d="M 209.5,237.5 C 207.907,236.652 206.74,235.319 206,233.5C 205.465,235.271 204.631,235.604 203.5,234.5C 205.062,232.099 204.729,230.099 202.5,228.5C 201.833,229.5 201.167,230.5 200.5,231.5C 200.167,228.833 199.833,226.167 199.5,223.5C 197.793,226.198 195.793,228.531 193.5,230.5C 193.247,228.173 193.914,226.173 195.5,224.5C 195.023,223.522 194.357,222.689 193.5,222C 196.306,220.695 197.14,218.528 196,215.5C 194.763,217.104 193.597,218.771 192.5,220.5C 191.673,218.838 190.507,217.505 189,216.5C 188.333,214.5 188.333,212.5 189,210.5C 190.578,209.289 190.745,207.955 189.5,206.5C 187.167,205.833 184.833,205.167 182.5,204.5C 180.775,208.634 178.108,211.967 174.5,214.5C 176.896,210.714 179.063,206.714 181,202.5C 182.525,199.913 184.692,199.08 187.5,200C 195.487,212.144 202.82,224.644 209.5,237.5 Z"/></g>
<g><path style="opacity:1" fill="#2e4b89" d="M 209.5,237.5 C 215.07,246.299 220.404,255.299 225.5,264.5C 226.399,269.451 225.065,270.451 221.5,267.5C 221.167,267.833 220.833,268.167 220.5,268.5C 223.284,270.781 225.951,273.281 228.5,276C 229.448,276.483 230.448,276.649 231.5,276.5C 230.361,279.004 229.694,281.67 229.5,284.5C 230.5,284.5 231.5,284.5 232.5,284.5C 232.5,283.5 232.5,282.5 232.5,281.5C 233.5,281.5 234.5,281.5 235.5,281.5C 238.751,287.001 241.751,292.667 244.5,298.5C 244.715,300.774 245.382,302.941 246.5,305C 246.342,307.149 245.508,308.983 244,310.5C 243.192,312.579 243.359,314.579 244.5,316.5C 245.205,314.328 246.205,312.328 247.5,310.5C 248.002,309.479 248.668,309.312 249.5,310C 252.975,315.857 255.642,322.024 257.5,328.5C 260.541,328.379 262.208,329.879 262.5,333C 261.783,334.531 260.783,335.864 259.5,337C 260.509,338.168 261.509,339.335 262.5,340.5C 261.065,341.929 260.065,343.595 259.5,345.5C 261.327,347.487 262.327,349.821 262.5,352.5C 263.5,352.5 264.5,352.5 265.5,352.5C 265.604,349.91 264.937,347.577 263.5,345.5C 264.115,343.884 265.115,342.551 266.5,341.5C 267.167,343.5 267.833,345.5 268.5,347.5C 269.265,346.388 270.265,345.721 271.5,345.5C 274.055,348.25 276.388,351.25 278.5,354.5C 279.615,359.583 281.948,363.916 285.5,367.5C 289.986,375.399 294.32,383.399 298.5,391.5C 233.5,391.5 168.5,391.5 103.5,391.5C 106.068,385.415 108.901,379.415 112,373.5C 123.376,355.108 134.376,336.441 145,317.5C 146.643,315.023 148.476,312.69 150.5,310.5C 153.838,303.158 157.171,295.825 160.5,288.5C 168.321,274.491 176.821,260.824 186,247.5C 189.015,241.918 191.515,236.251 193.5,230.5C 195.793,228.531 197.793,226.198 199.5,223.5C 199.833,226.167 200.167,228.833 200.5,231.5C 201.167,230.5 201.833,229.5 202.5,228.5C 204.729,230.099 205.062,232.099 203.5,234.5C 204.631,235.604 205.465,235.271 206,233.5C 206.74,235.319 207.907,236.652 209.5,237.5 Z"/></g>
<g><path style="opacity:1" fill="#31385b" d="M 331.5,239.5 C 330.895,242.127 330.395,244.793 330,247.5C 329.667,247.167 329.333,246.833 329,246.5C 326.799,249.813 325.465,253.479 325,257.5C 322.948,259.058 320.781,260.392 318.5,261.5C 322.333,253.829 326.666,246.496 331.5,239.5 Z"/></g>
<g><path style="opacity:0.735" fill="#acbce1" d="M 484.5,213.5 C 487.054,223.204 488.554,233.204 489,243.5C 489.667,254.833 489.667,266.167 489,277.5C 488.821,281.025 488.321,284.359 487.5,287.5C 488.044,262.752 487.044,238.085 484.5,213.5 Z"/></g>
<g><path style="opacity:1" fill="#1b2b63" d="M 350.5,256.5 C 342.849,271.919 334.349,286.919 325,301.5C 323.267,308.042 320.1,313.709 315.5,318.5C 310.961,328.18 305.461,337.18 299,345.5C 295.264,353.306 291.264,360.973 287,368.5C 286.617,367.944 286.117,367.611 285.5,367.5C 281.948,363.916 279.615,359.583 278.5,354.5C 276.388,351.25 274.055,348.25 271.5,345.5C 271.433,344.041 271.766,342.708 272.5,341.5C 274.066,337.272 276.066,333.272 278.5,329.5C 279.593,327.651 280.926,325.984 282.5,324.5C 284.129,322.94 285.296,323.273 286,325.5C 287.294,324.146 287.46,322.812 286.5,321.5C 287.981,320.52 289.315,319.353 290.5,318C 289.614,316.098 289.947,314.265 291.5,312.5C 292.528,314.361 294.028,315.695 296,316.5C 295.309,314.407 294.476,312.24 293.5,310C 293.437,307.058 294.77,306.058 297.5,307C 298.09,308.509 298.756,310.009 299.5,311.5C 300.768,312.428 302.101,312.595 303.5,312C 300.564,307.282 298.897,302.116 298.5,296.5C 304.917,284.663 311.584,272.996 318.5,261.5C 320.781,260.392 322.948,259.058 325,257.5C 325.465,253.479 326.799,249.813 329,246.5C 329.333,246.833 329.667,247.167 330,247.5C 330.395,244.793 330.895,242.127 331.5,239.5C 332.462,235.854 334.795,234.687 338.5,236C 343.406,242.314 347.406,249.147 350.5,256.5 Z"/></g>
<g><path style="opacity:1" fill="#3d4876" d="M 155.5,247.5 C 154.253,249.993 154.253,252.493 155.5,255C 153.346,256.433 151.179,258.599 149,261.5C 148.349,263.235 148.515,264.902 149.5,266.5C 147.997,267.052 146.331,267.052 144.5,266.5C 144.733,264.938 145.4,263.605 146.5,262.5C 148.731,257.039 151.731,252.039 155.5,247.5 Z"/></g>
<g><path style="opacity:1" fill="#293d7b" d="M 350.5,256.5 C 362.416,276.662 374.083,296.996 385.5,317.5C 385.433,319.401 385.767,321.234 386.5,323C 390.532,329.348 394.199,335.848 397.5,342.5C 398.642,343.826 399.976,344.826 401.5,345.5C 407.999,357.168 414.999,368.502 422.5,379.5C 422.557,380.609 422.89,381.609 423.5,382.5C 424.167,383.833 424.833,385.167 425.5,386.5C 425.5,387.167 425.833,387.5 426.5,387.5C 426.5,389.167 426.5,390.833 426.5,392.5C 383.906,391.506 341.239,391.172 298.5,391.5C 294.32,383.399 289.986,375.399 285.5,367.5C 286.117,367.611 286.617,367.944 287,368.5C 291.264,360.973 295.264,353.306 299,345.5C 305.461,337.18 310.961,328.18 315.5,318.5C 320.1,313.709 323.267,308.042 325,301.5C 334.349,286.919 342.849,271.919 350.5,256.5 Z"/></g>
<g><path style="opacity:1" fill="#dbcec3" d="M 146.5,262.5 C 145.4,263.605 144.733,264.938 144.5,266.5C 143.167,268.167 141.833,269.833 140.5,271.5C 140.796,267.211 142.796,264.211 146.5,262.5 Z"/></g>
<g><path style="opacity:1" fill="#415585" d="M 225.5,264.5 C 228.486,269.13 231.486,273.797 234.5,278.5C 235.11,279.391 235.443,280.391 235.5,281.5C 234.5,281.5 233.5,281.5 232.5,281.5C 232.5,282.5 232.5,283.5 232.5,284.5C 231.5,284.5 230.5,284.5 229.5,284.5C 229.694,281.67 230.361,279.004 231.5,276.5C 230.448,276.649 229.448,276.483 228.5,276C 225.951,273.281 223.284,270.781 220.5,268.5C 220.833,268.167 221.167,267.833 221.5,267.5C 225.065,270.451 226.399,269.451 225.5,264.5 Z"/></g>
<g><path style="opacity:0.846" fill="#b1bfe4" d="M 12.5,223.5 C 11.607,241.827 11.4403,260.16 12,278.5C 13.9257,291.147 15.4257,303.814 16.5,316.5C 10.1201,292.015 7.95342,267.015 10,241.5C 10.3818,235.294 11.2151,229.294 12.5,223.5 Z"/></g>
<g><path style="opacity:1" fill="#ecd8c1" d="M 234.5,278.5 C 235.376,278.369 236.043,278.702 236.5,279.5C 238.615,283 240.448,286.667 242,290.5C 243,290.5 244,290.5 245,290.5C 246.252,293.014 246.752,295.68 246.5,298.5C 247.5,298.5 248.5,298.5 249.5,298.5C 249.654,302.453 250.654,306.119 252.5,309.5C 249.833,305.833 247.167,302.167 244.5,298.5C 241.751,292.667 238.751,287.001 235.5,281.5C 235.443,280.391 235.11,279.391 234.5,278.5 Z"/></g>
<g><path style="opacity:1" fill="#e6d6c3" d="M 134.5,282.5 C 129.134,292.187 123.8,301.853 118.5,311.5C 118.167,311.5 117.833,311.5 117.5,311.5C 118.265,308.904 118.599,306.237 118.5,303.5C 119.5,303.5 120.5,303.5 121.5,303.5C 121.5,301.833 121.5,300.167 121.5,298.5C 122.5,298.5 123.5,298.5 124.5,298.5C 127.157,293.785 129.49,288.785 131.5,283.5C 132.417,282.873 133.417,282.539 134.5,282.5 Z"/></g>
<g><path style="opacity:1" fill="#232f5c" d="M 298.5,296.5 C 298.897,302.116 300.564,307.282 303.5,312C 302.101,312.595 300.768,312.428 299.5,311.5C 298.756,310.009 298.09,308.509 297.5,307C 294.77,306.058 293.437,307.058 293.5,310C 294.476,312.24 295.309,314.407 296,316.5C 294.028,315.695 292.528,314.361 291.5,312.5C 289.947,314.265 289.614,316.098 290.5,318C 289.315,319.353 287.981,320.52 286.5,321.5C 287.46,322.812 287.294,324.146 286,325.5C 285.296,323.273 284.129,322.94 282.5,324.5C 285.5,318.5 288.5,312.5 291.5,306.5C 293.833,303.167 296.167,299.833 298.5,296.5 Z"/></g>
<g><path style="opacity:1" fill="#e3d4c2" d="M 291.5,306.5 C 288.5,312.5 285.5,318.5 282.5,324.5C 280.926,325.984 279.593,327.651 278.5,329.5C 280.101,324.735 281.935,320.069 284,315.5C 287.495,313.503 288.995,310.503 288.5,306.5C 289.5,306.5 290.5,306.5 291.5,306.5 Z"/></g>
<g><path style="opacity:0.42" fill="#cbd5f2" d="M 16.5,316.5 C 18.4354,320.895 19.7687,325.562 20.5,330.5C 18.2538,326.195 16.9205,321.529 16.5,316.5 Z"/></g>
<g><path style="opacity:1" fill="#4b5278" d="M 117.5,311.5 C 117.833,311.5 118.167,311.5 118.5,311.5C 117.941,314.516 117.275,317.516 116.5,320.5C 114.125,323.542 111.458,326.209 108.5,328.5C 111.233,322.702 114.233,317.035 117.5,311.5 Z"/></g>
<g><path style="opacity:1" fill="#a2b1db" d="M 36.5,369.5 C 29.2664,357.355 23.9331,344.355 20.5,330.5C 21.8249,331.953 22.6582,331.619 23,329.5C 24.1936,337.077 26.1936,344.41 29,351.5C 31.8127,357.448 34.3127,363.448 36.5,369.5 Z"/></g>
<g><path style="opacity:1" fill="#5a5a79" d="M 108.5,328.5 C 107.633,333.598 105.299,337.598 101.5,340.5C 101.833,339.167 102.167,337.833 102.5,336.5C 104.997,334.156 106.997,331.489 108.5,328.5 Z"/></g>
<g><path style="opacity:1" fill="#385084" d="M 244.5,298.5 C 247.167,302.167 249.833,305.833 252.5,309.5C 257.722,319.606 263.222,329.606 269,339.5C 269.816,340.823 270.983,341.489 272.5,341.5C 271.766,342.708 271.433,344.041 271.5,345.5C 270.265,345.721 269.265,346.388 268.5,347.5C 267.833,345.5 267.167,343.5 266.5,341.5C 265.115,342.551 264.115,343.884 263.5,345.5C 264.937,347.577 265.604,349.91 265.5,352.5C 264.5,352.5 263.5,352.5 262.5,352.5C 262.327,349.821 261.327,347.487 259.5,345.5C 260.065,343.595 261.065,341.929 262.5,340.5C 261.509,339.335 260.509,338.168 259.5,337C 260.783,335.864 261.783,334.531 262.5,333C 262.208,329.879 260.541,328.379 257.5,328.5C 255.642,322.024 252.975,315.857 249.5,310C 248.668,309.312 248.002,309.479 247.5,310.5C 246.205,312.328 245.205,314.328 244.5,316.5C 243.359,314.579 243.192,312.579 244,310.5C 245.508,308.983 246.342,307.149 246.5,305C 245.382,302.941 244.715,300.774 244.5,298.5 Z"/></g>
<g><path style="opacity:1" fill="#4a4e77" d="M 385.5,317.5 C 391.336,326.5 396.669,335.833 401.5,345.5C 399.976,344.826 398.642,343.826 397.5,342.5C 394.199,335.848 390.532,329.348 386.5,323C 385.767,321.234 385.433,319.401 385.5,317.5 Z"/></g>
<g><path style="opacity:1" fill="#9b878a" d="M 99.5,343.5 C 98.5324,346.1 97.1991,348.434 95.5,350.5C 95.7247,347.454 97.058,345.121 99.5,343.5 Z"/></g>
<g><path style="opacity:0.863" fill="#a5b6d8" d="M 473.5,344.5 C 471.318,352.727 467.985,360.394 463.5,367.5C 463.343,366.127 463.51,364.793 464,363.5C 467.281,357.111 470.448,350.777 473.5,344.5 Z"/></g>
<g><path style="opacity:1" fill="#48416c" d="M 89.5,361.5 C 87.8069,366.207 86.1403,370.874 84.5,375.5C 85.5,375.5 86.5,375.5 87.5,375.5C 87.6621,377.527 87.4955,379.527 87,381.5C 86.2825,382.451 85.4491,382.617 84.5,382C 85.7472,380.506 85.7472,379.006 84.5,377.5C 83.8333,378.5 83.1667,379.5 82.5,380.5C 81.914,380.291 81.414,379.957 81,379.5C 80.6667,380.833 80.3333,382.167 80,383.5C 79.6667,383.167 79.3333,382.833 79,382.5C 77.9735,385.431 76.4735,388.098 74.5,390.5C 84.1437,391.498 93.8104,391.832 103.5,391.5C 168.5,391.5 233.5,391.5 298.5,391.5C 341.239,391.172 383.906,391.506 426.5,392.5C 426.5,392.833 426.5,393.167 426.5,393.5C 308.5,393.5 190.5,393.5 72.5,393.5C 72.5172,391.435 72.8505,389.435 73.5,387.5C 74.5,387.167 75.1667,386.5 75.5,385.5C 76.9009,382.366 78.5675,379.366 80.5,376.5C 83.2763,371.266 86.2763,366.266 89.5,361.5 Z"/></g>
<g><path style="opacity:1" fill="#977d93" d="M 426.5,393.5 C 426.5,393.167 426.5,392.833 426.5,392.5C 434.167,392.5 441.833,392.5 449.5,392.5C 451.698,392.12 453.365,392.787 454.5,394.5C 453.833,394.5 453.167,394.5 452.5,394.5C 444.016,393.507 435.349,393.174 426.5,393.5 Z"/></g>
<g><path style="opacity:1" fill="#894c4b" d="M 45.5,393.5 C 54.5,393.5 63.5,393.5 72.5,393.5C 190.5,393.5 308.5,393.5 426.5,393.5C 435.349,393.174 444.016,393.507 452.5,394.5C 330.833,394.5 209.167,394.5 87.5,394.5C 73.8293,394.333 60.1626,394.5 46.5,395C 44.9554,400.505 44.2887,406.172 44.5,412C 44.8333,416.167 45.1667,420.333 45.5,424.5C 46.3081,424.808 46.9747,425.308 47.5,426C 61.1626,426.5 74.8293,426.667 88.5,426.5C 99.0135,426.172 109.347,426.506 119.5,427.5C 95.1644,427.667 70.8311,427.5 46.5,427C 45.7562,425.961 44.7562,425.461 43.5,425.5C 42.3417,415.675 42.1751,405.675 43,395.5C 43.7083,394.619 44.5416,393.953 45.5,393.5 Z"/></g>
<g><path style="opacity:1" fill="#86342a" d="M 87.5,394.5 C 87.1909,405.248 87.5242,415.915 88.5,426.5C 74.8293,426.667 61.1626,426.5 47.5,426C 46.9747,425.308 46.3081,424.808 45.5,424.5C 45.1667,420.333 44.8333,416.167 44.5,412C 44.2887,406.172 44.9554,400.505 46.5,395C 60.1626,394.5 73.8293,394.333 87.5,394.5 Z"/></g>
<g><path style="opacity:1" fill="#984333" d="M 87.5,394.5 C 209.167,394.5 330.833,394.5 452.5,394.5C 453.167,394.5 453.833,394.5 454.5,394.5C 454.819,404.749 454.486,414.916 453.5,425C 428.72,425.12 404.053,425.953 379.5,427.5C 379.5,427.833 379.5,428.167 379.5,428.5C 379.167,428.5 378.833,428.5 378.5,428.5C 378.5,427.5 378.5,426.5 378.5,425.5C 292.855,426.323 207.188,426.823 121.5,427C 120.944,427.383 120.611,427.883 120.5,428.5C 120.167,428.5 119.833,428.5 119.5,428.5C 119.5,428.167 119.5,427.833 119.5,427.5C 109.347,426.506 99.0135,426.172 88.5,426.5C 87.5242,415.915 87.1909,405.248 87.5,394.5 Z"/></g>
<g><path style="opacity:1" fill="#a44b20" d="M 378.5,428.5 C 307.833,428.5 237.167,428.5 166.5,428.5C 151.5,428.5 136.5,428.5 121.5,428.5C 121.167,428.5 120.833,428.5 120.5,428.5C 120.611,427.883 120.944,427.383 121.5,427C 207.188,426.823 292.855,426.323 378.5,425.5C 378.5,426.5 378.5,427.5 378.5,428.5 Z"/></g>
<g><path style="opacity:1" fill="#a1645e" d="M 454.5,394.5 C 455.117,394.611 455.617,394.944 456,395.5C 456.667,405.5 456.667,415.5 456,425.5C 455.167,426.333 454.333,427.167 453.5,428C 442.172,428.5 430.838,428.667 419.5,428.5C 406.344,427.504 393.01,427.171 379.5,427.5C 404.053,425.953 428.72,425.12 453.5,425C 454.486,414.916 454.819,404.749 454.5,394.5 Z"/></g>
<g><path style="opacity:0.609" fill="#8f6569" d="M 43.5,425.5 C 44.7562,425.461 45.7562,425.961 46.5,427C 70.8311,427.5 95.1644,427.667 119.5,427.5C 119.5,427.833 119.5,428.167 119.5,428.5C 106.167,428.5 92.8333,428.5 79.5,428.5C 68.1618,428.667 56.8284,428.5 45.5,428C 44.6195,427.292 43.9528,426.458 43.5,425.5 Z"/></g>
<g><path style="opacity:1" fill="#836378" d="M 379.5,428.5 C 379.5,428.167 379.5,427.833 379.5,427.5C 393.01,427.171 406.344,427.504 419.5,428.5C 419.5,429.167 419.167,429.5 418.5,429.5C 405.579,428.52 392.579,428.186 379.5,428.5 Z"/></g>
<g><path style="opacity:1" fill="#a19cb9" d="M 79.5,428.5 C 92.8333,428.5 106.167,428.5 119.5,428.5C 119.833,428.5 120.167,428.5 120.5,428.5C 120.26,434.227 120.593,439.894 121.5,445.5C 120.5,445.5 119.5,445.5 118.5,445.5C 118.805,440.238 118.471,435.072 117.5,430C 106.833,429.333 96.1667,429.333 85.5,430C 85.0426,430.414 84.7093,430.914 84.5,431.5C 85.6302,432.622 86.2969,433.956 86.5,435.5C 83.8333,433.5 81.5,431.167 79.5,428.5 Z"/></g>
<g><path style="opacity:1" fill="#e89332" d="M 166.5,429.5 C 166.5,429.167 166.5,428.833 166.5,428.5C 237.167,428.5 307.833,428.5 378.5,428.5C 378.666,433.511 378.499,438.511 378,443.5C 377.617,444.056 377.117,444.389 376.5,444.5C 376.5,439.5 376.5,434.5 376.5,429.5C 306.5,429.5 236.5,429.5 166.5,429.5 Z"/></g>
<g><path style="opacity:1" fill="#939fce" d="M 379.5,428.5 C 392.579,428.186 405.579,428.52 418.5,429.5C 414.833,433.833 410.833,437.833 406.5,441.5C 406.678,440.305 407.011,439.138 407.5,438C 405.064,436.668 405.064,435.501 407.5,434.5C 408.736,435.246 410.07,435.579 411.5,435.5C 411.5,434.5 411.5,433.5 411.5,432.5C 412.675,432.719 413.675,432.386 414.5,431.5C 403.802,430.19 393.135,430.19 382.5,431.5C 381.808,430.975 381.308,430.308 381,429.5C 380.825,434.019 380.325,438.353 379.5,442.5C 379.5,437.833 379.5,433.167 379.5,428.5 Z"/></g>
<g><path style="opacity:1" fill="#88a0db" d="M 121.5,445.5 C 124.337,447.402 127.671,448.069 131.5,447.5C 131.296,449.685 130.63,451.685 129.5,453.5C 127.14,455.713 125.306,458.379 124,461.5C 123.329,462.252 122.496,462.586 121.5,462.5C 108.382,455.382 96.7156,446.382 86.5,435.5C 86.2969,433.956 85.6302,432.622 84.5,431.5C 84.7093,430.914 85.0426,430.414 85.5,430C 96.1667,429.333 106.833,429.333 117.5,430C 118.471,435.072 118.805,440.238 118.5,445.5C 119.5,445.5 120.5,445.5 121.5,445.5 Z"/></g>
<g><path style="opacity:1" fill="#ef9614" d="M 166.5,429.5 C 236.5,429.5 306.5,429.5 376.5,429.5C 376.5,434.5 376.5,439.5 376.5,444.5C 372.649,445.029 369.149,444.362 366,442.5C 364.266,443.249 362.433,443.749 360.5,444C 300.829,444.95 241.162,445.283 181.5,445C 180.944,445.383 180.611,445.883 180.5,446.5C 180.167,446.5 179.833,446.5 179.5,446.5C 175.069,446.769 170.735,446.436 166.5,445.5C 165.534,440.003 165.534,434.67 166.5,429.5 Z"/></g>
<g><path style="opacity:1" fill="#879fdb" d="M 406.5,441.5 C 404.833,441.5 403.167,441.5 401.5,441.5C 401.655,436.9 400.988,436.567 399.5,440.5C 399.68,441.554 400.013,442.554 400.5,443.5C 398.711,445.033 396.711,446.033 394.5,446.5C 393.299,450.358 390.633,452.358 386.5,452.5C 386.371,454.216 386.038,455.883 385.5,457.5C 382.202,459.485 378.869,461.485 375.5,463.5C 374.4,460.958 373.067,458.625 371.5,456.5C 370.167,453.503 368.834,450.503 367.5,447.5C 370.518,447.665 373.518,447.498 376.5,447C 378.141,445.871 379.141,444.371 379.5,442.5C 380.325,438.353 380.825,434.019 381,429.5C 381.308,430.308 381.808,430.975 382.5,431.5C 393.135,430.19 403.802,430.19 414.5,431.5C 413.675,432.386 412.675,432.719 411.5,432.5C 411.5,433.5 411.5,434.5 411.5,435.5C 410.07,435.579 408.736,435.246 407.5,434.5C 405.064,435.501 405.064,436.668 407.5,438C 407.011,439.138 406.678,440.305 406.5,441.5 Z"/></g>
<g><path style="opacity:1" fill="#ee8218" d="M 121.5,428.5 C 136.5,428.5 151.5,428.5 166.5,428.5C 166.5,428.833 166.5,429.167 166.5,429.5C 165.534,434.67 165.534,440.003 166.5,445.5C 152.13,445.847 137.797,445.347 123.5,444C 121.787,439.013 121.121,433.846 121.5,428.5 Z"/></g>
<g><path style="opacity:1" fill="#af9a91" d="M 378.5,428.5 C 378.833,428.5 379.167,428.5 379.5,428.5C 379.5,433.167 379.5,437.833 379.5,442.5C 379.141,444.371 378.141,445.871 376.5,447C 373.518,447.498 370.518,447.665 367.5,447.5C 369.969,446.683 372.635,446.183 375.5,446C 376.056,445.617 376.389,445.117 376.5,444.5C 377.117,444.389 377.617,444.056 378,443.5C 378.499,438.511 378.666,433.511 378.5,428.5 Z"/></g>
<g><path style="opacity:1" fill="#d57e2e" d="M 120.5,428.5 C 120.833,428.5 121.167,428.5 121.5,428.5C 121.121,433.846 121.787,439.013 123.5,444C 137.797,445.347 152.13,445.847 166.5,445.5C 170.735,446.436 175.069,446.769 179.5,446.5C 179.5,446.833 179.5,447.167 179.5,447.5C 178.833,447.5 178.167,447.5 177.5,447.5C 167.167,447.5 156.833,447.5 146.5,447.5C 141.5,447.5 136.5,447.5 131.5,447.5C 128.316,446.677 124.983,446.01 121.5,445.5C 120.593,439.894 120.26,434.227 120.5,428.5 Z"/></g>
<g><path style="opacity:1" fill="#de9330" d="M 376.5,444.5 C 376.389,445.117 376.056,445.617 375.5,446C 372.635,446.183 369.969,446.683 367.5,447.5C 352.833,447.5 338.167,447.5 323.5,447.5C 322.833,447.5 322.167,447.5 321.5,447.5C 320.833,447.5 320.167,447.5 319.5,447.5C 303.008,446.503 286.342,446.17 269.5,446.5C 239.833,446.5 210.167,446.5 180.5,446.5C 180.611,445.883 180.944,445.383 181.5,445C 241.162,445.283 300.829,444.95 360.5,444C 362.433,443.749 364.266,443.249 366,442.5C 369.149,444.362 372.649,445.029 376.5,444.5 Z"/></g>
<g><path style="opacity:1" fill="#b39486" d="M 121.5,445.5 C 124.983,446.01 128.316,446.677 131.5,447.5C 127.671,448.069 124.337,447.402 121.5,445.5 Z"/></g>
<g><path style="opacity:1" fill="#a5683e" d="M 146.5,447.5 C 156.833,447.5 167.167,447.5 177.5,447.5C 176.044,451.402 174.377,455.069 172.5,458.5C 171.178,458.67 170.011,458.337 169,457.5C 169.305,459.443 169.305,461.443 169,463.5C 166.053,467.06 163.886,471.06 162.5,475.5C 160.952,475.821 160.285,476.821 160.5,478.5C 158.042,478.773 156.375,477.773 155.5,475.5C 148.447,474.632 141.78,472.632 135.5,469.5C 134.859,468.518 134.193,467.518 133.5,466.5C 134.991,465.756 136.491,465.09 138,464.5C 140.143,458.702 143.31,453.536 147.5,449C 146.944,448.617 146.611,448.117 146.5,447.5 Z"/></g>
<g><path style="opacity:1" fill="#869fdc" d="M 221.5,497.5 C 207.624,494.872 193.624,492.205 179.5,489.5C 178.329,488.655 176.995,487.989 175.5,487.5C 173.373,484.6 170.373,483.1 166.5,483C 165.276,479.85 165.943,477.017 168.5,474.5C 169.478,474.977 170.311,475.643 171,476.5C 171.833,474.833 172.667,473.167 173.5,471.5C 169.461,468.338 169.627,465.338 174,462.5C 174.7,459.169 175.867,456.169 177.5,453.5C 178.965,452.594 179.965,451.261 180.5,449.5C 196.152,448.501 211.819,448.167 227.5,448.5C 227.5,464.833 227.5,481.167 227.5,497.5C 225.5,497.5 223.5,497.5 221.5,497.5 Z"/></g>
<g><path style="opacity:1" fill="#9398b9" d="M 179.5,447.5 C 196.167,447.5 212.833,447.5 229.5,447.5C 229.5,464.833 229.5,482.167 229.5,499.5C 227.167,499.5 224.833,499.5 222.5,499.5C 222.5,498.833 222.167,498.5 221.5,498.5C 221.5,498.167 221.5,497.833 221.5,497.5C 223.5,497.5 225.5,497.5 227.5,497.5C 227.5,481.167 227.5,464.833 227.5,448.5C 211.819,448.167 196.152,448.501 180.5,449.5C 179.965,451.261 178.965,452.594 177.5,453.5C 177.971,451.421 178.637,449.421 179.5,447.5 Z"/></g>
<g><path style="opacity:1" fill="#8c5936" d="M 229.5,447.5 C 234.07,448.441 238.737,448.774 243.5,448.5C 243.5,465.5 243.5,482.5 243.5,499.5C 238.833,499.5 234.167,499.5 229.5,499.5C 229.5,482.167 229.5,464.833 229.5,447.5 Z"/></g>
<g><path style="opacity:1" fill="#a6693f" d="M 179.5,447.5 C 179.5,447.167 179.5,446.833 179.5,446.5C 179.833,446.5 180.167,446.5 180.5,446.5C 210.167,446.5 239.833,446.5 269.5,446.5C 268.514,464.09 268.181,481.757 268.5,499.5C 260.167,499.5 251.833,499.5 243.5,499.5C 243.5,482.5 243.5,465.5 243.5,448.5C 238.737,448.774 234.07,448.441 229.5,447.5C 212.833,447.5 196.167,447.5 179.5,447.5 Z"/></g>
<g><path style="opacity:1" fill="#a47a63" d="M 269.5,446.5 C 286.342,446.17 303.008,446.503 319.5,447.5C 302.991,447.17 286.658,447.504 270.5,448.5C 269.503,464.992 269.17,481.658 269.5,498.5C 269.5,498.833 269.5,499.167 269.5,499.5C 269.167,499.5 268.833,499.5 268.5,499.5C 268.181,481.757 268.514,464.09 269.5,446.5 Z"/></g>
<g><path style="opacity:1" fill="#8e8192" d="M 270.5,448.5 C 269.857,465.239 270.523,481.739 272.5,498C 271.552,498.483 270.552,498.649 269.5,498.5C 269.17,481.658 269.503,464.992 270.5,448.5 Z"/></g>
<g><path style="opacity:1" fill="#98a7d0" d="M 319.5,447.5 C 319.5,447.833 319.5,448.167 319.5,448.5C 303.833,448.5 288.167,448.5 272.5,448.5C 272.5,464.5 272.5,480.5 272.5,496.5C 280.142,495.737 287.809,495.403 295.5,495.5C 288.883,497.112 282.217,498.445 275.5,499.5C 273.5,499.5 271.5,499.5 269.5,499.5C 269.5,499.167 269.5,498.833 269.5,498.5C 270.552,498.649 271.552,498.483 272.5,498C 270.523,481.739 269.857,465.239 270.5,448.5C 286.658,447.504 302.991,447.17 319.5,447.5 Z"/></g>
<g><path style="opacity:1" fill="#86a0dc" d="M 319.5,448.5 C 320.11,450.434 321.11,452.101 322.5,453.5C 322.756,455.792 322.423,457.959 321.5,460C 322.5,460.333 323.5,460.667 324.5,461C 322.153,462.191 321.32,464.024 322,466.5C 322.483,465.552 322.649,464.552 322.5,463.5C 324.144,463.286 325.644,463.62 327,464.5C 325.906,466.594 325.572,468.927 326,471.5C 326.837,469.993 328.004,469.493 329.5,470C 331.135,473.447 333.135,476.613 335.5,479.5C 334.232,481.047 332.565,482.047 330.5,482.5C 329.295,483.577 328.628,484.91 328.5,486.5C 325.855,488.31 322.855,489.31 319.5,489.5C 314.558,488.291 309.891,488.291 305.5,489.5C 304.833,489.833 304.167,490.167 303.5,490.5C 304.376,491.251 305.376,491.751 306.5,492C 305.944,492.383 305.611,492.883 305.5,493.5C 302.411,494.785 299.078,495.451 295.5,495.5C 287.809,495.403 280.142,495.737 272.5,496.5C 272.5,480.5 272.5,464.5 272.5,448.5C 288.167,448.5 303.833,448.5 319.5,448.5 Z"/></g>
<g><path style="opacity:1" fill="#a5683d" d="M 323.5,447.5 C 338.167,447.5 352.833,447.5 367.5,447.5C 368.834,450.503 370.167,453.503 371.5,456.5C 373.101,459.423 372.768,462.09 370.5,464.5C 367.181,466.401 364.015,468.401 361,470.5C 358.536,471.161 356.036,471.661 353.5,472C 352.922,473.417 351.922,474.25 350.5,474.5C 345.571,466.309 340.905,457.976 336.5,449.5C 332.033,448.886 327.7,448.22 323.5,447.5 Z"/></g>
<g><path style="opacity:1" fill="#8d5a35" d="M 131.5,447.5 C 136.5,447.5 141.5,447.5 146.5,447.5C 146.611,448.117 146.944,448.617 147.5,449C 143.31,453.536 140.143,458.702 138,464.5C 136.491,465.09 134.991,465.756 133.5,466.5C 134.193,467.518 134.859,468.518 135.5,469.5C 133.282,467.626 130.949,465.793 128.5,464C 129.711,463.107 129.711,462.274 128.5,461.5C 127.808,462.025 127.308,462.692 127,463.5C 126.333,461.833 126.333,460.167 127,458.5C 128.57,458.306 130.07,458.306 131.5,458.5C 130.544,456.925 129.877,455.258 129.5,453.5C 130.63,451.685 131.296,449.685 131.5,447.5 Z"/></g>
<g><path style="opacity:1" fill="#896962" d="M 319.5,447.5 C 320.167,447.5 320.833,447.5 321.5,447.5C 323.109,451.054 324.442,454.721 325.5,458.5C 324.065,457.087 323.065,455.42 322.5,453.5C 321.11,452.101 320.11,450.434 319.5,448.5C 319.5,448.167 319.5,447.833 319.5,447.5 Z"/></g>
<g><path style="opacity:1" fill="#a4b3dc" d="M 406.5,441.5 C 404.098,444.215 401.432,446.715 398.5,449C 394.266,452.082 389.933,454.916 385.5,457.5C 386.038,455.883 386.371,454.216 386.5,452.5C 390.633,452.358 393.299,450.358 394.5,446.5C 396.711,446.033 398.711,445.033 400.5,443.5C 400.013,442.554 399.68,441.554 399.5,440.5C 400.988,436.567 401.655,436.9 401.5,441.5C 403.167,441.5 404.833,441.5 406.5,441.5 Z"/></g>
<g><path style="opacity:1" fill="#8d5a37" d="M 321.5,447.5 C 322.167,447.5 322.833,447.5 323.5,447.5C 327.7,448.22 332.033,448.886 336.5,449.5C 340.905,457.976 345.571,466.309 350.5,474.5C 350.062,474.435 349.728,474.601 349.5,475C 350.167,475.333 350.833,475.667 351.5,476C 349.866,476.494 348.199,476.66 346.5,476.5C 346.5,477.5 346.5,478.5 346.5,479.5C 344.143,479.663 341.81,479.497 339.5,479C 338.922,477.583 337.922,476.75 336.5,476.5C 332.806,470.483 329.14,464.483 325.5,458.5C 324.442,454.721 323.109,451.054 321.5,447.5 Z"/></g>
<g><path style="opacity:1" fill="#986f58" d="M 177.5,447.5 C 178.167,447.5 178.833,447.5 179.5,447.5C 178.637,449.421 177.971,451.421 177.5,453.5C 176.533,454.806 175.199,455.473 173.5,455.5C 171.394,463.047 167.727,469.713 162.5,475.5C 163.886,471.06 166.053,467.06 169,463.5C 169.305,461.443 169.305,459.443 169,457.5C 170.011,458.337 171.178,458.67 172.5,458.5C 174.377,455.069 176.044,451.402 177.5,447.5 Z"/></g>
<g><path style="opacity:1" fill="#909ed0" d="M 322.5,453.5 C 323.065,455.42 324.065,457.087 325.5,458.5C 329.14,464.483 332.806,470.483 336.5,476.5C 337.73,478.297 338.396,480.297 338.5,482.5C 335.47,484.403 332.137,485.737 328.5,486.5C 328.628,484.91 329.295,483.577 330.5,482.5C 332.565,482.047 334.232,481.047 335.5,479.5C 333.135,476.613 331.135,473.447 329.5,470C 328.004,469.493 326.837,469.993 326,471.5C 325.572,468.927 325.906,466.594 327,464.5C 325.644,463.62 324.144,463.286 322.5,463.5C 322.649,464.552 322.483,465.552 322,466.5C 321.32,464.024 322.153,462.191 324.5,461C 323.5,460.667 322.5,460.333 321.5,460C 322.423,457.959 322.756,455.792 322.5,453.5 Z"/></g>
<g><path style="opacity:1" fill="#a57c60" d="M 371.5,456.5 C 373.067,458.625 374.4,460.958 375.5,463.5C 366.645,470.099 356.979,475.432 346.5,479.5C 346.5,478.5 346.5,477.5 346.5,476.5C 348.199,476.66 349.866,476.494 351.5,476C 350.833,475.667 350.167,475.333 349.5,475C 349.728,474.601 350.062,474.435 350.5,474.5C 351.922,474.25 352.922,473.417 353.5,472C 356.036,471.661 358.536,471.161 361,470.5C 364.015,468.401 367.181,466.401 370.5,464.5C 372.768,462.09 373.101,459.423 371.5,456.5 Z"/></g>
<g><path style="opacity:1" fill="#9d6e51" d="M 129.5,453.5 C 129.877,455.258 130.544,456.925 131.5,458.5C 130.07,458.306 128.57,458.306 127,458.5C 126.333,460.167 126.333,461.833 127,463.5C 127.308,462.692 127.808,462.025 128.5,461.5C 129.711,462.274 129.711,463.107 128.5,464C 130.949,465.793 133.282,467.626 135.5,469.5C 141.78,472.632 148.447,474.632 155.5,475.5C 156.375,477.773 158.042,478.773 160.5,478.5C 160.285,476.821 160.952,475.821 162.5,475.5C 161.81,478.377 160.143,480.377 157.5,481.5C 144.575,476.706 132.575,470.373 121.5,462.5C 122.496,462.586 123.329,462.252 124,461.5C 125.306,458.379 127.14,455.713 129.5,453.5 Z"/></g>
<g><path style="opacity:1" fill="#987b67" d="M 336.5,476.5 C 337.922,476.75 338.922,477.583 339.5,479C 341.81,479.497 344.143,479.663 346.5,479.5C 344.11,481.02 341.443,482.02 338.5,482.5C 338.396,480.297 337.73,478.297 336.5,476.5 Z"/></g>
<g><path style="opacity:1" fill="#8e9fce" d="M 177.5,453.5 C 175.867,456.169 174.7,459.169 174,462.5C 169.627,465.338 169.461,468.338 173.5,471.5C 172.667,473.167 171.833,474.833 171,476.5C 170.311,475.643 169.478,474.977 168.5,474.5C 165.943,477.017 165.276,479.85 166.5,483C 170.373,483.1 173.373,484.6 175.5,487.5C 173.883,486.962 172.216,486.629 170.5,486.5C 165.868,485.404 161.534,483.737 157.5,481.5C 160.143,480.377 161.81,478.377 162.5,475.5C 167.727,469.713 171.394,463.047 173.5,455.5C 175.199,455.473 176.533,454.806 177.5,453.5 Z"/></g>
<g><path style="opacity:0.055" fill="#d9e5fb" d="M 170.5,486.5 C 172.216,486.629 173.883,486.962 175.5,487.5C 176.995,487.989 178.329,488.655 179.5,489.5C 176.084,489.472 173.084,488.472 170.5,486.5 Z"/></g>
<g><path style="opacity:1" fill="#a2b5df" d="M 319.5,489.5 C 315.195,491.746 310.529,493.08 305.5,493.5C 305.611,492.883 305.944,492.383 306.5,492C 305.376,491.751 304.376,491.251 303.5,490.5C 304.167,490.167 304.833,489.833 305.5,489.5C 309.891,488.291 314.558,488.291 319.5,489.5 Z"/></g>
<g><path style="opacity:1" fill="#a6b7db" d="M 179.5,489.5 C 193.624,492.205 207.624,494.872 221.5,497.5C 221.5,497.833 221.5,498.167 221.5,498.5C 207.003,497.269 193.003,494.269 179.5,489.5 Z"/></g>
</svg>
