<?xml version="1.0" encoding="UTF-8"?>
<!DOCTYPE svg PUBLIC "-//W3C//DTD SVG 1.1//EN" "http://www.w3.org/Graphics/SVG/1.1/DTD/svg11.dtd">
<svg xmlns="http://www.w3.org/2000/svg" version="1.1" width="500px" height="500px" style="shape-rendering:geometricPrecision; text-rendering:geometricPrecision; image-rendering:optimizeQuality; fill-rule:evenodd; clip-rule:evenodd" xmlns:xlink="http://www.w3.org/1999/xlink">
<g><path style="opacity:1" fill="#81ae7a" d="M 202.5,42.5 C 202.167,42.5 201.833,42.5 201.5,42.5C 201.666,35.1591 201.5,27.8258 201,20.5C 200.044,19.4214 199.211,18.2547 198.5,17C 190.5,16.3333 182.5,16.3333 174.5,17C 169.716,19.0324 164.716,19.8657 159.5,19.5C 171.982,14.8092 184.982,13.3092 198.5,15C 200.57,15.9476 202.07,17.4476 203,19.5C 203.798,27.246 203.631,34.9127 202.5,42.5 Z"/></g>
<g><path style="opacity:1" fill="#4b9641" d="M 201.5,42.5 C 201.5,43.8333 201.5,45.1667 201.5,46.5C 188.163,46.3334 174.829,46.5001 161.5,47C 142.738,50.1227 128.238,59.6227 118,75.5C 115.189,80.7831 112.689,86.1164 110.5,91.5C 110.84,84.4619 111.507,77.4619 112.5,70.5C 113.5,70.5 114.5,70.5 115.5,70.5C 115.886,65.2634 117.053,60.2634 119,55.5C 123.147,51.2259 126.314,46.2259 128.5,40.5C 134.221,38.4728 138.555,34.8061 141.5,29.5C 146.879,25.1416 152.879,21.8083 159.5,19.5C 164.716,19.8657 169.716,19.0324 174.5,17C 182.5,16.3333 190.5,16.3333 198.5,17C 199.211,18.2547 200.044,19.4214 201,20.5C 201.5,27.8258 201.666,35.1591 201.5,42.5 Z"/></g>
<g><path style="opacity:1" fill="#70a369" d="M 141.5,29.5 C 138.555,34.8061 134.221,38.4728 128.5,40.5C 131.948,35.7131 136.281,32.0464 141.5,29.5 Z"/></g>
<g><path style="opacity:1" fill="#5fa946" d="M 201.5,46.5 C 203.102,48.0739 205.102,48.7406 207.5,48.5C 207.5,50.5 207.5,52.5 207.5,54.5C 208.5,54.5 209.5,54.5 210.5,54.5C 210.5,53.5 210.5,52.5 210.5,51.5C 214.5,52.1667 218.5,52.8333 222.5,53.5C 222.833,53.5 223.167,53.5 223.5,53.5C 223.539,54.5832 223.873,55.5832 224.5,56.5C 228.131,59.0341 231.798,61.3674 235.5,63.5C 238.069,67.9601 240.569,72.6267 243,77.5C 243.671,78.2524 244.504,78.5858 245.5,78.5C 245.61,83.6216 246.944,88.2882 249.5,92.5C 249.818,97.0323 249.485,101.366 248.5,105.5C 223.506,106.824 198.506,106.824 173.5,105.5C 170.498,106.51 169.332,108.51 170,111.5C 173.417,112.531 176.584,113.865 179.5,115.5C 183.212,118.211 186.212,121.544 188.5,125.5C 190.833,130.167 193.167,134.833 195.5,139.5C 196.62,143.1 197.787,146.767 199,150.5C 199.377,151.942 200.21,152.942 201.5,153.5C 201.5,153.833 201.5,154.167 201.5,154.5C 201.967,165.289 201.3,175.956 199.5,186.5C 191.401,187.813 183.401,187.813 175.5,186.5C 176.688,185.636 177.855,184.636 179,183.5C 181.586,160.951 176.253,140.617 163,122.5C 157.86,117.36 152.694,112.194 147.5,107C 140.208,103.354 132.875,99.6874 125.5,96C 120.102,95.4825 114.769,94.6492 109.5,93.5C 109.5,93.1667 109.5,92.8333 109.5,92.5C 110.167,92.5 110.5,92.1667 110.5,91.5C 112.689,86.1164 115.189,80.7831 118,75.5C 128.238,59.6227 142.738,50.1227 161.5,47C 174.829,46.5001 188.163,46.3334 201.5,46.5 Z"/></g>
<g><path style="opacity:0.349" fill="#cae7c0" d="M 56.5,46.5 C 42.8333,46.5 29.1667,46.5 15.5,46.5C 15.5,67.1667 15.5,87.8333 15.5,108.5C 24.8333,108.5 34.1667,108.5 43.5,108.5C 43.5,108.833 43.5,109.167 43.5,109.5C 33.8333,109.5 24.1667,109.5 14.5,109.5C 14.5,88.1667 14.5,66.8333 14.5,45.5C 28.6766,45.1709 42.6766,45.5042 56.5,46.5 Z"/></g>
<g><path style="opacity:1" fill="#6da35a" d="M 56.5,46.5 C 61.5395,46.8504 66.2062,48.1837 70.5,50.5C 66.0855,50.1687 61.7522,49.3353 57.5,48C 43.8374,47.5001 30.1707,47.3334 16.5,47.5C 16.5,67.5 16.5,87.5 16.5,107.5C 25.6822,107.173 34.6822,107.507 43.5,108.5C 34.1667,108.5 24.8333,108.5 15.5,108.5C 15.5,87.8333 15.5,67.1667 15.5,46.5C 29.1667,46.5 42.8333,46.5 56.5,46.5 Z"/></g>
<g><path style="opacity:1" fill="#7fb56b" d="M 201.5,42.5 C 201.833,42.5 202.167,42.5 202.5,42.5C 202.33,43.8221 202.663,44.9887 203.5,46C 210.592,46.89 216.925,49.39 222.5,53.5C 218.5,52.8333 214.5,52.1667 210.5,51.5C 210.5,52.5 210.5,53.5 210.5,54.5C 209.5,54.5 208.5,54.5 207.5,54.5C 207.5,52.5 207.5,50.5 207.5,48.5C 205.102,48.7406 203.102,48.0739 201.5,46.5C 201.5,45.1667 201.5,43.8333 201.5,42.5 Z"/></g>
<g><path style="opacity:1" fill="#90bc81" d="M 70.5,50.5 C 73.4848,51.3257 76.1515,52.659 78.5,54.5C 74.693,55.2259 72.0263,53.8926 70.5,50.5 Z"/></g>
<g><path style="opacity:0.871" fill="#93be83" d="M 223.5,53.5 C 228.279,55.8907 232.279,59.224 235.5,63.5C 231.798,61.3674 228.131,59.0341 224.5,56.5C 223.873,55.5832 223.539,54.5832 223.5,53.5 Z"/></g>
<g><path style="opacity:1" fill="#649a5b" d="M 128.5,40.5 C 126.314,46.2259 123.147,51.2259 119,55.5C 117.053,60.2634 115.886,65.2634 115.5,70.5C 114.5,70.5 113.5,70.5 112.5,70.5C 111.507,77.4619 110.84,84.4619 110.5,91.5C 110.5,92.1667 110.167,92.5 109.5,92.5C 109.5,89.1667 109.5,85.8333 109.5,82.5C 111.224,66.2927 117.558,52.2927 128.5,40.5 Z"/></g>
<g><path style="opacity:1" fill="#6daa57" d="M 79.5,55.5 C 90.3265,61.9928 98.3265,70.9928 103.5,82.5C 103.5,83.1667 103.5,83.8333 103.5,84.5C 101.995,82.0185 100.328,79.5185 98.5,77C 94.9069,77.0334 91.4069,76.8667 88,76.5C 87.3828,75.5509 87.5494,74.7175 88.5,74C 90.6193,73.9024 92.286,73.0691 93.5,71.5C 92.2485,69.9991 91.2485,68.3325 90.5,66.5C 86.6837,64.7971 84.8503,66.1305 85,70.5C 84,71.8333 83,71.8333 82,70.5C 81.3333,69.1667 81.3333,67.8333 82,66.5C 83.0672,65.0569 84.2338,63.7236 85.5,62.5C 84.0552,60.9373 82.3885,59.604 80.5,58.5C 79.6143,57.675 79.281,56.675 79.5,55.5 Z"/></g>
<g><path style="opacity:0.906" fill="#94bc82" d="M 235.5,63.5 C 240.071,67.6312 243.404,72.6312 245.5,78.5C 244.504,78.5858 243.671,78.2524 243,77.5C 240.569,72.6267 238.069,67.9601 235.5,63.5 Z"/></g>
<g><path style="opacity:0.2" fill="#a7cb9c" d="M 103.5,82.5 C 105.656,85.4374 107.156,88.7708 108,92.5C 108.179,88.9748 108.679,85.6414 109.5,82.5C 109.5,85.8333 109.5,89.1667 109.5,92.5C 109.5,92.8333 109.5,93.1667 109.5,93.5C 108.5,93.5 107.5,93.5 106.5,93.5C 106.095,90.2854 105.095,87.2854 103.5,84.5C 103.5,83.8333 103.5,83.1667 103.5,82.5 Z"/></g>
<g><path style="opacity:1" fill="#9fbe8d" d="M 245.5,78.5 C 247.816,82.7938 249.15,87.4605 249.5,92.5C 246.944,88.2882 245.61,83.6216 245.5,78.5 Z"/></g>
<g><path style="opacity:1" fill="#60a945" d="M 70.5,50.5 C 72.0263,53.8926 74.693,55.2259 78.5,54.5C 79.1667,54.5 79.5,54.8333 79.5,55.5C 79.281,56.675 79.6143,57.675 80.5,58.5C 82.3885,59.604 84.0552,60.9373 85.5,62.5C 84.2338,63.7236 83.0672,65.0569 82,66.5C 81.3333,67.8333 81.3333,69.1667 82,70.5C 83,71.8333 84,71.8333 85,70.5C 84.8503,66.1305 86.6837,64.7971 90.5,66.5C 91.2485,68.3325 92.2485,69.9991 93.5,71.5C 92.286,73.0691 90.6193,73.9024 88.5,74C 87.5494,74.7175 87.3828,75.5509 88,76.5C 91.4069,76.8667 94.9069,77.0334 98.5,77C 100.328,79.5185 101.995,82.0185 103.5,84.5C 105.095,87.2854 106.095,90.2854 106.5,93.5C 107.5,93.5 108.5,93.5 109.5,93.5C 108.744,102.447 108.077,111.447 107.5,120.5C 106.578,124.112 105.911,127.779 105.5,131.5C 105.5,132.167 105.5,132.833 105.5,133.5C 102.579,139.906 99.2453,146.239 95.5,152.5C 94.0937,152.973 93.427,153.973 93.5,155.5C 88.5,161.167 83.1667,166.5 77.5,171.5C 74.3197,173.255 71.3197,175.255 68.5,177.5C 68.1667,177.5 67.8333,177.5 67.5,177.5C 60.6957,180.045 54.0291,182.712 47.5,185.5C 45.1667,185.5 42.8333,185.5 40.5,185.5C 38.0512,174.943 37.8845,164.276 40,153.5C 41.7922,148.206 43.4589,142.872 45,137.5C 48.5948,134.238 50.9282,130.238 52,125.5C 58.1622,117.742 65.3289,110.909 73.5,105C 77.6262,103.881 81.2929,101.881 84.5,99C 89.6366,97.7322 94.6366,96.0656 99.5,94C 88.6621,93.1504 77.9955,94.1504 67.5,97C 60.0183,100.574 52.685,104.407 45.5,108.5C 44.8333,108.5 44.1667,108.5 43.5,108.5C 34.6822,107.507 25.6822,107.173 16.5,107.5C 16.5,87.5 16.5,67.5 16.5,47.5C 30.1707,47.3334 43.8374,47.5001 57.5,48C 61.7522,49.3353 66.0855,50.1687 70.5,50.5 Z"/></g>
<g><path style="opacity:1" fill="#91c73c" d="M 109.5,93.5 C 114.769,94.6492 120.102,95.4825 125.5,96C 132.875,99.6874 140.208,103.354 147.5,107C 152.694,112.194 157.86,117.36 163,122.5C 176.253,140.617 181.586,160.951 179,183.5C 177.855,184.636 176.688,185.636 175.5,186.5C 172.219,186.58 169.219,185.913 166.5,184.5C 165.942,183.21 164.942,182.377 163.5,182C 158.796,180.493 154.129,178.993 149.5,177.5C 145.827,176 142.494,174 139.5,171.5C 137.167,167.167 133.833,163.833 129.5,161.5C 126.578,157.399 123.411,153.399 120,149.5C 118.878,147.593 118.045,145.593 117.5,143.5C 117.171,140.173 115.837,137.507 113.5,135.5C 113.5,135.167 113.5,134.833 113.5,134.5C 113.59,131.848 112.924,129.515 111.5,127.5C 110.833,126.167 110.167,124.833 109.5,123.5C 109.657,122.127 109.49,120.793 109,119.5C 108.617,120.056 108.117,120.389 107.5,120.5C 108.077,111.447 108.744,102.447 109.5,93.5 Z"/></g>
<g><path style="opacity:1" fill="#66a650" d="M 248.5,105.5 C 248.167,106.5 247.5,107.167 246.5,107.5C 221.876,108.314 197.209,108.814 172.5,109C 173.044,109.717 173.711,110.217 174.5,110.5C 176.5,111.833 178.167,113.5 179.5,115.5C 176.584,113.865 173.417,112.531 170,111.5C 169.332,108.51 170.498,106.51 173.5,105.5C 198.506,106.824 223.506,106.824 248.5,105.5 Z"/></g>
<g><path style="opacity:0.349" fill="#bce3af" d="M 246.5,107.5 C 246.389,108.117 246.056,108.617 245.5,109C 221.663,109.168 197.996,109.668 174.5,110.5C 173.711,110.217 173.044,109.717 172.5,109C 197.209,108.814 221.876,108.314 246.5,107.5 Z"/></g>
<g><path style="opacity:1" fill="#90c83d" d="M 40.5,185.5 C 32.2818,186.026 24.2818,185.36 16.5,183.5C 16.3808,172.482 16.7141,161.482 17.5,150.5C 21.0164,142.786 24.6831,135.119 28.5,127.5C 29.5,127.5 30.5,127.5 31.5,127.5C 31.5,126.167 31.5,124.833 31.5,123.5C 31.5,122.833 31.8333,122.5 32.5,122.5C 36.2976,119.204 39.9643,115.704 43.5,112C 44.5,111.667 45.5,111.333 46.5,111C 45.7476,110.329 45.4142,109.496 45.5,108.5C 52.685,104.407 60.0183,100.574 67.5,97C 77.9955,94.1504 88.6621,93.1504 99.5,94C 94.6366,96.0656 89.6366,97.7322 84.5,99C 81.2929,101.881 77.6262,103.881 73.5,105C 65.3289,110.909 58.1622,117.742 52,125.5C 50.9282,130.238 48.5948,134.238 45,137.5C 43.4589,142.872 41.7922,148.206 40,153.5C 37.8845,164.276 38.0512,174.943 40.5,185.5 Z"/></g>
<g><path style="opacity:0.784" fill="#9cbf61" d="M 43.5,109.5 C 43.5,109.167 43.5,108.833 43.5,108.5C 44.1667,108.5 44.8333,108.5 45.5,108.5C 45.4142,109.496 45.7476,110.329 46.5,111C 45.5,111.333 44.5,111.667 43.5,112C 39.9643,115.704 36.2976,119.204 32.5,122.5C 35.6012,117.564 39.6012,113.397 44.5,110C 44.2716,109.601 43.9382,109.435 43.5,109.5 Z"/></g>
<g><path style="opacity:0.996" fill="#975f42" d="M 320.5,125.5 C 366.665,124.335 412.998,124.168 459.5,125C 467,130 473.333,136.167 478.5,143.5C 474.276,141.616 470.943,138.616 468.5,134.5C 466.696,133.232 464.696,132.565 462.5,132.5C 462.5,131.167 462.5,129.833 462.5,128.5C 460.169,128.502 458.169,127.669 456.5,126C 415.501,125.5 374.501,125.333 333.5,125.5C 329.167,125.5 324.833,125.5 320.5,125.5 Z"/></g>
<g><path style="opacity:1" fill="#d26d28" d="M 320.5,125.5 C 324.833,125.5 329.167,125.5 333.5,125.5C 339.436,130.261 345.269,135.261 351,140.5C 351.483,141.448 351.649,142.448 351.5,143.5C 352.552,143.351 353.552,143.517 354.5,144C 360.27,149.77 365.937,155.437 371.5,161C 374.763,165.386 378.597,169.219 383,172.5C 383.483,173.448 383.649,174.448 383.5,175.5C 384.552,175.351 385.552,175.517 386.5,176C 390,180.833 394.167,185 399,188.5C 399.483,189.448 399.649,190.448 399.5,191.5C 400.552,191.351 401.552,191.517 402.5,192C 411.279,202.113 420.779,211.613 431,220.5C 431.483,221.448 431.649,222.448 431.5,223.5C 432.552,223.351 433.552,223.517 434.5,224C 441.017,229.852 446.85,236.352 452,243.5C 453.339,251.317 451.172,257.983 445.5,263.5C 457.815,264.499 470.149,264.832 482.5,264.5C 482.5,264.833 482.5,265.167 482.5,265.5C 465.5,265.5 448.5,265.5 431.5,265.5C 431.5,264.167 430.833,263.5 429.5,263.5C 414.167,248.5 398.833,233.5 383.5,218.5C 383.5,216.833 383.5,215.167 383.5,213.5C 379.686,213.349 378.019,211.349 378.5,207.5C 375.033,207.554 372.366,206.054 370.5,203C 369.099,202.59 367.766,202.09 366.5,201.5C 365.206,199.093 363.539,196.926 361.5,195C 353.605,188.926 346.271,182.426 339.5,175.5C 339.5,174.5 339.5,173.5 339.5,172.5C 338.325,172.719 337.325,172.386 336.5,171.5C 334.044,168.542 331.378,165.709 328.5,163C 327.833,162.333 327.167,162.333 326.5,163C 294.123,195.377 261.79,227.71 229.5,260C 224.959,264.033 219.626,265.533 213.5,264.5C 212.788,261.4 210.788,259.566 207.5,259C 202.868,253.318 202.201,247.152 205.5,240.5C 209.537,237.463 212.871,233.797 215.5,229.5C 219.211,227.789 221.878,225.123 223.5,221.5C 225.167,219.167 227.167,217.167 229.5,215.5C 233.833,213.167 237.167,209.833 239.5,205.5C 240.167,204.167 241.167,203.167 242.5,202.5C 242.215,204.288 242.548,205.955 243.5,207.5C 244.59,206.609 244.59,205.609 243.5,204.5C 244.531,203.3 245.365,201.966 246,200.5C 249.663,198.003 252.829,195.003 255.5,191.5C 256.72,190.289 257.887,190.289 259,191.5C 260.634,188.52 262.3,185.52 264,182.5C 265.552,181.034 267.386,180.034 269.5,179.5C 270.768,177.696 271.435,175.696 271.5,173.5C 274.315,172.874 276.815,171.54 279,169.5C 280.608,171.1 282.441,172.433 284.5,173.5C 284.833,173.167 285.167,172.833 285.5,172.5C 284.433,170.441 283.1,168.608 281.5,167C 285.578,160.585 290.745,155.085 297,150.5C 298.094,148.922 298.928,147.255 299.5,145.5C 300.5,143.833 301.833,142.5 303.5,141.5C 304.239,141.631 304.906,141.464 305.5,141C 310.758,135.911 315.758,130.745 320.5,125.5 Z"/></g>
<g><path style="opacity:1" fill="#a45021" d="M 333.5,125.5 C 374.501,125.333 415.501,125.5 456.5,126C 458.169,127.669 460.169,128.502 462.5,128.5C 462.5,129.833 462.5,131.167 462.5,132.5C 464.696,132.565 466.696,133.232 468.5,134.5C 470.943,138.616 474.276,141.616 478.5,143.5C 478.886,145.937 480.053,147.937 482,149.5C 482.5,187.832 482.667,226.165 482.5,264.5C 470.149,264.832 457.815,264.499 445.5,263.5C 451.172,257.983 453.339,251.317 452,243.5C 446.85,236.352 441.017,229.852 434.5,224C 433.552,223.517 432.552,223.351 431.5,223.5C 431.649,222.448 431.483,221.448 431,220.5C 420.779,211.613 411.279,202.113 402.5,192C 401.552,191.517 400.552,191.351 399.5,191.5C 399.649,190.448 399.483,189.448 399,188.5C 394.167,185 390,180.833 386.5,176C 385.552,175.517 384.552,175.351 383.5,175.5C 383.649,174.448 383.483,173.448 383,172.5C 378.597,169.219 374.763,165.386 371.5,161C 365.937,155.437 360.27,149.77 354.5,144C 353.552,143.517 352.552,143.351 351.5,143.5C 351.649,142.448 351.483,141.448 351,140.5C 345.269,135.261 339.436,130.261 333.5,125.5 Z"/></g>
<g><path style="opacity:1" fill="#ac8733" d="M 109.5,123.5 C 108.044,126.068 106.711,128.734 105.5,131.5C 105.911,127.779 106.578,124.112 107.5,120.5C 108.117,120.389 108.617,120.056 109,119.5C 109.49,120.793 109.657,122.127 109.5,123.5 Z"/></g>
<g><path style="opacity:0.635" fill="#ce926e" d="M 320.5,125.5 C 315.758,130.745 310.758,135.911 305.5,141C 304.906,141.464 304.239,141.631 303.5,141.5C 307.996,136.836 312.33,132.002 316.5,127C 317.745,126.209 319.078,125.709 320.5,125.5 Z"/></g>
<g><path style="opacity:1" fill="#bf982d" d="M 111.5,127.5 C 112.924,129.515 113.59,131.848 113.5,134.5C 112.883,134.389 112.383,134.056 112,133.5C 111.505,131.527 111.338,129.527 111.5,127.5 Z"/></g>
<g><path style="opacity:0.086" fill="#cae2be" d="M 188.5,125.5 C 192.402,129.416 195.069,134.083 196.5,139.5C 196.167,139.5 195.833,139.5 195.5,139.5C 193.167,134.833 190.833,130.167 188.5,125.5 Z"/></g>
<g><path style="opacity:0.894" fill="#b2d07c" d="M 31.5,123.5 C 31.5,124.833 31.5,126.167 31.5,127.5C 30.5,127.5 29.5,127.5 28.5,127.5C 24.6831,135.119 21.0164,142.786 17.5,150.5C 19.291,139.915 23.9577,130.915 31.5,123.5 Z"/></g>
<g><path style="opacity:1" fill="#bf8630" d="M 105.5,133.5 C 104.761,138.546 103.094,143.212 100.5,147.5C 99.194,149.473 97.5273,151.139 95.5,152.5C 99.2453,146.239 102.579,139.906 105.5,133.5 Z"/></g>
<g><path style="opacity:1" fill="#b7a535" d="M 113.5,135.5 C 115.837,137.507 117.171,140.173 117.5,143.5C 115.583,141.305 114.249,138.638 113.5,135.5 Z"/></g>
<g><path style="opacity:0.78" fill="#91bd7f" d="M 195.5,139.5 C 195.833,139.5 196.167,139.5 196.5,139.5C 199.332,143.658 200.999,148.324 201.5,153.5C 200.21,152.942 199.377,151.942 199,150.5C 197.787,146.767 196.62,143.1 195.5,139.5 Z"/></g>
<g><path style="opacity:1" fill="#f9a01b" d="M 100.5,147.5 C 107.935,151.946 113.269,158.279 116.5,166.5C 115.472,171.745 114.805,177.079 114.5,182.5C 114.267,184.062 113.6,185.395 112.5,186.5C 109.01,186.151 106.677,187.651 105.5,191C 104.167,191.667 102.833,192.333 101.5,193C 97.3123,193.176 93.3123,193.676 89.5,194.5C 86.0633,194.448 83.0633,193.281 80.5,191C 78,188.5 75.5,186 73,183.5C 71.872,181.655 71.372,179.655 71.5,177.5C 73.8333,175.833 75.8333,173.833 77.5,171.5C 84.5,167.833 89.8333,162.5 93.5,155.5C 93.427,153.973 94.0937,152.973 95.5,152.5C 97.5273,151.139 99.194,149.473 100.5,147.5 Z"/></g>
<g><path style="opacity:1" fill="#955430" d="M 478.5,143.5 C 480.5,144.833 482.167,146.5 483.5,148.5C 483.5,187.5 483.5,226.5 483.5,265.5C 483.167,265.5 482.833,265.5 482.5,265.5C 482.5,265.167 482.5,264.833 482.5,264.5C 482.667,226.165 482.5,187.832 482,149.5C 480.053,147.937 478.886,145.937 478.5,143.5 Z"/></g>
<g><path style="opacity:1" fill="#eb6723" d="M 109.5,123.5 C 110.167,124.833 110.833,126.167 111.5,127.5C 111.338,129.527 111.505,131.527 112,133.5C 112.383,134.056 112.883,134.389 113.5,134.5C 113.5,134.833 113.5,135.167 113.5,135.5C 114.249,138.638 115.583,141.305 117.5,143.5C 118.045,145.593 118.878,147.593 120,149.5C 123.411,153.399 126.578,157.399 129.5,161.5C 132.167,164.5 134.833,167.5 137.5,170.5C 132.797,170.563 128.13,170.229 123.5,169.5C 121.5,168.833 119.5,168.167 117.5,167.5C 117.5,166.833 117.167,166.5 116.5,166.5C 113.269,158.279 107.935,151.946 100.5,147.5C 103.094,143.212 104.761,138.546 105.5,133.5C 105.5,132.833 105.5,132.167 105.5,131.5C 106.711,128.734 108.044,126.068 109.5,123.5 Z"/></g>
<g><path style="opacity:1" fill="#bbac42" d="M 129.5,161.5 C 133.833,163.833 137.167,167.167 139.5,171.5C 138.833,171.5 138.167,171.5 137.5,171.5C 137.5,171.167 137.5,170.833 137.5,170.5C 134.833,167.5 132.167,164.5 129.5,161.5 Z"/></g>
<g><path style="opacity:0.997" fill="#afcf78" d="M 17.5,150.5 C 16.7141,161.482 16.3808,172.482 16.5,183.5C 24.2818,185.36 32.2818,186.026 40.5,185.5C 40.8333,186.167 41.1667,186.833 41.5,187.5C 34.1591,187.666 26.8258,187.5 19.5,187C 18.0692,186.535 16.9025,185.701 16,184.5C 14.396,176.27 14.0627,167.937 15,159.5C 15.4061,156.258 16.2395,153.258 17.5,150.5 Z"/></g>
<g><path style="opacity:1" fill="#bba82e" d="M 93.5,155.5 C 89.8333,162.5 84.5,167.833 77.5,171.5C 83.1667,166.5 88.5,161.167 93.5,155.5 Z"/></g>
<g><path style="opacity:0.997" fill="#9cc38d" d="M 201.5,154.5 C 202.302,155.952 202.802,157.618 203,159.5C 203.667,167.5 203.667,175.5 203,183.5C 201.961,184.71 200.794,185.71 199.5,186.5C 201.3,175.956 201.967,165.289 201.5,154.5 Z"/></g>
<g><path style="opacity:1" fill="#cb7740" d="M 299.5,145.5 C 298.928,147.255 298.094,148.922 297,150.5C 290.745,155.085 285.578,160.585 281.5,167C 283.1,168.608 284.433,170.441 285.5,172.5C 285.167,172.833 284.833,173.167 284.5,173.5C 282.441,172.433 280.608,171.1 279,169.5C 276.815,171.54 274.315,172.874 271.5,173.5C 280.5,163.833 289.833,154.5 299.5,145.5 Z"/></g>
<g><path style="opacity:0.631" fill="#dd8257" d="M 123.5,169.5 C 128.13,170.229 132.797,170.563 137.5,170.5C 137.5,170.833 137.5,171.167 137.5,171.5C 133.486,171.666 129.486,171.499 125.5,171C 124.584,170.722 123.918,170.222 123.5,169.5 Z"/></g>
<g><path style="opacity:0.786" fill="#f0be78" d="M 116.5,166.5 C 117.167,166.5 117.5,166.833 117.5,167.5C 117.665,170.85 117.498,174.183 117,177.5C 116.626,179.491 115.793,181.158 114.5,182.5C 114.805,177.079 115.472,171.745 116.5,166.5 Z"/></g>
<g><path style="opacity:1" fill="#a75223" d="M 339.5,175.5 C 331.175,182.457 323.509,190.124 316.5,198.5C 315.761,198.369 315.094,198.536 314.5,199C 308.662,206.004 302.329,212.504 295.5,218.5C 286.343,229.131 276.51,239.131 266,248.5C 265.501,253.823 265.334,259.156 265.5,264.5C 265.5,264.833 265.5,265.167 265.5,265.5C 265.167,265.5 264.833,265.5 264.5,265.5C 247.325,265.83 230.325,265.497 213.5,264.5C 219.626,265.533 224.959,264.033 229.5,260C 261.79,227.71 294.123,195.377 326.5,163C 327.167,162.333 327.833,162.333 328.5,163C 331.378,165.709 334.044,168.542 336.5,171.5C 337.325,172.386 338.325,172.719 339.5,172.5C 339.5,173.5 339.5,174.5 339.5,175.5 Z"/></g>
<g><path style="opacity:1" fill="#c2a429" d="M 77.5,171.5 C 75.8333,173.833 73.8333,175.833 71.5,177.5C 70.5,177.5 69.5,177.5 68.5,177.5C 71.3197,175.255 74.3197,173.255 77.5,171.5 Z"/></g>
<g><path style="opacity:0.969" fill="#a6c86c" d="M 149.5,177.5 C 154.129,178.993 158.796,180.493 163.5,182C 164.942,182.377 165.942,183.21 166.5,184.5C 160.174,183.496 154.508,181.162 149.5,177.5 Z"/></g>
<g><path style="opacity:1" fill="#fa9e1c" d="M 339.5,175.5 C 346.271,182.426 353.605,188.926 361.5,195C 363.539,196.926 365.206,199.093 366.5,201.5C 349.005,202.662 331.338,202.829 313.5,202C 314.71,200.961 315.71,199.794 316.5,198.5C 323.509,190.124 331.175,182.457 339.5,175.5 Z"/></g>
<g><path style="opacity:1" fill="#a18a36" d="M 67.5,177.5 C 61.9943,182.677 55.3277,185.344 47.5,185.5C 54.0291,182.712 60.6957,180.045 67.5,177.5 Z"/></g>
<g><path style="opacity:1" fill="#d26e28" d="M 67.5,177.5 C 67.8333,177.5 68.1667,177.5 68.5,177.5C 69.5,177.5 70.5,177.5 71.5,177.5C 71.372,179.655 71.872,181.655 73,183.5C 75.5,186 78,188.5 80.5,191C 83.0633,193.281 86.0633,194.448 89.5,194.5C 89.5,194.833 89.5,195.167 89.5,195.5C 88.6772,197.987 87.6772,200.321 86.5,202.5C 84.7868,203.635 84.1201,205.302 84.5,207.5C 83.325,207.281 82.325,207.614 81.5,208.5C 82.046,209.772 82.3793,211.106 82.5,212.5C 80.888,217.032 80.2213,221.699 80.5,226.5C 79.8005,230.798 79.4672,235.131 79.5,239.5C 79.8168,243.702 79.4834,247.702 78.5,251.5C 78.6655,247.486 78.4988,243.486 78,239.5C 77.6667,241.5 77.3333,243.5 77,245.5C 75.3722,243.035 73.5388,240.702 71.5,238.5C 66.1679,233.363 61.0013,233.696 56,239.5C 54.2977,242.377 52.7977,245.377 51.5,248.5C 52.6619,299.792 52.8286,351.126 52,402.5C 50.6012,403.227 49.1012,403.727 47.5,404C 49.8098,404.497 52.1432,404.663 54.5,404.5C 54.5,404.833 54.5,405.167 54.5,405.5C 47.1667,405.5 39.8333,405.5 32.5,405.5C 32.3333,348.499 32.5,291.499 33,234.5C 34.1314,228.888 34.6314,223.221 34.5,217.5C 36.208,207.336 38.5413,197.336 41.5,187.5C 41.1667,186.833 40.8333,186.167 40.5,185.5C 42.8333,185.5 45.1667,185.5 47.5,185.5C 55.3277,185.344 61.9943,182.677 67.5,177.5 Z"/></g>
<g><path style="opacity:0.78" fill="#f0bf6f" d="M 112.5,186.5 C 106.547,193.6 98.8803,196.6 89.5,195.5C 89.5,195.167 89.5,194.833 89.5,194.5C 93.3123,193.676 97.3123,193.176 101.5,193C 102.833,192.333 104.167,191.667 105.5,191C 106.677,187.651 109.01,186.151 112.5,186.5 Z"/></g>
<g><path style="opacity:1" fill="#cd793e" d="M 271.5,173.5 C 271.435,175.696 270.768,177.696 269.5,179.5C 267.386,180.034 265.552,181.034 264,182.5C 262.3,185.52 260.634,188.52 259,191.5C 257.887,190.289 256.72,190.289 255.5,191.5C 252.829,195.003 249.663,198.003 246,200.5C 245.365,201.966 244.531,203.3 243.5,204.5C 244.59,205.609 244.59,206.609 243.5,207.5C 242.548,205.955 242.215,204.288 242.5,202.5C 251.833,192.5 261.5,182.833 271.5,173.5 Z"/></g>
<g><path style="opacity:1" fill="#e56c1c" d="M 316.5,198.5 C 315.71,199.794 314.71,200.961 313.5,202C 331.338,202.829 349.005,202.662 366.5,201.5C 367.766,202.09 369.099,202.59 370.5,203C 372.366,206.054 375.033,207.554 378.5,207.5C 378.019,211.349 379.686,213.349 383.5,213.5C 383.5,215.167 383.5,216.833 383.5,218.5C 354.167,218.5 324.833,218.5 295.5,218.5C 302.329,212.504 308.662,206.004 314.5,199C 315.094,198.536 315.761,198.369 316.5,198.5 Z"/></g>
<g><path style="opacity:1" fill="#f06323" d="M 367.5,203.5 C 369.371,203.859 370.871,204.859 372,206.5C 372.333,210.833 374.667,213.167 379,213.5C 380.615,215.011 380.615,216.344 379,217.5C 353.898,216.699 328.732,216.033 303.5,215.5C 303.351,214.448 303.517,213.448 304,212.5C 306.541,209.481 309.375,206.981 312.5,205C 331.005,204.832 349.338,204.332 367.5,203.5 Z"/></g>
<g><path style="opacity:0.663" fill="#c48154" d="M 239.5,205.5 C 237.167,209.833 233.833,213.167 229.5,215.5C 232.5,211.833 235.833,208.5 239.5,205.5 Z"/></g>
<g><path style="opacity:0.984" fill="#cc8455" d="M 86.5,202.5 C 84.4007,210.436 82.734,218.436 81.5,226.5C 81.1667,226.5 80.8333,226.5 80.5,226.5C 80.2213,221.699 80.888,217.032 82.5,212.5C 82.3793,211.106 82.046,209.772 81.5,208.5C 82.325,207.614 83.325,207.281 84.5,207.5C 84.1201,205.302 84.7868,203.635 86.5,202.5 Z"/></g>
<g><path style="opacity:1" fill="#fba019" d="M 295.5,218.5 C 324.833,218.5 354.167,218.5 383.5,218.5C 398.833,233.5 414.167,248.5 429.5,263.5C 375.003,264.499 320.336,264.832 265.5,264.5C 265.334,259.156 265.501,253.823 266,248.5C 276.51,239.131 286.343,229.131 295.5,218.5 Z"/></g>
<g><path style="opacity:0.616" fill="#c98259" d="M 223.5,221.5 C 221.878,225.123 219.211,227.789 215.5,229.5C 217.833,226.5 220.5,223.833 223.5,221.5 Z"/></g>
<g><path style="opacity:0.671" fill="#c48355" d="M 215.5,229.5 C 212.871,233.797 209.537,237.463 205.5,240.5C 208.101,236.229 211.434,232.563 215.5,229.5 Z"/></g>
<g><path style="opacity:0.043" fill="#feeedc" d="M 80.5,226.5 C 80.8333,226.5 81.1667,226.5 81.5,226.5C 81.2296,231.028 80.5629,235.361 79.5,239.5C 79.4672,235.131 79.8005,230.798 80.5,226.5 Z"/></g>
<g><path style="opacity:1" fill="#a45022" d="M 71.5,238.5 C 73.5388,240.702 75.3722,243.035 77,245.5C 77.3333,243.5 77.6667,241.5 78,239.5C 78.4988,243.486 78.6655,247.486 78.5,251.5C 78.5,251.833 78.5,252.167 78.5,252.5C 77.6576,303.334 76.9909,354.334 76.5,405.5C 69.1667,405.5 61.8333,405.5 54.5,405.5C 54.5,405.167 54.5,404.833 54.5,404.5C 54.3333,351.499 54.5,298.499 55,245.5C 58.5232,238.601 64.0232,236.268 71.5,238.5 Z"/></g>
<g><path style="opacity:1" fill="#cb6a2d" d="M 71.5,238.5 C 64.0232,236.268 58.5232,238.601 55,245.5C 54.5,298.499 54.3333,351.499 54.5,404.5C 52.1432,404.663 49.8098,404.497 47.5,404C 49.1012,403.727 50.6012,403.227 52,402.5C 52.8286,351.126 52.6619,299.792 51.5,248.5C 52.7977,245.377 54.2977,242.377 56,239.5C 61.0013,233.696 66.1679,233.363 71.5,238.5 Z"/></g>
<g><path style="opacity:0.922" fill="#ca8155" d="M 205.5,240.5 C 202.201,247.152 202.868,253.318 207.5,259C 210.788,259.566 212.788,261.4 213.5,264.5C 207.953,263.456 204.453,260.123 203,254.5C 202.333,251.167 202.333,247.833 203,244.5C 203.2,242.68 204.034,241.347 205.5,240.5 Z"/></g>
<g><path style="opacity:1" fill="#c87e4b" d="M 34.5,217.5 C 34.6314,223.221 34.1314,228.888 33,234.5C 32.5,291.499 32.3333,348.499 32.5,405.5C 32.1667,405.5 31.8333,405.5 31.5,405.5C 31.8276,394.986 31.4942,384.653 30.5,374.5C 30.3333,330.165 30.5,285.832 31,241.5C 31.5264,233.265 32.6931,225.265 34.5,217.5 Z"/></g>
<g><path style="opacity:1" fill="#f6881b" d="M 429.5,263.5 C 430.833,263.5 431.5,264.167 431.5,265.5C 376.167,265.5 320.833,265.5 265.5,265.5C 265.5,265.167 265.5,264.833 265.5,264.5C 320.336,264.832 375.003,264.499 429.5,263.5 Z"/></g>
<g><path style="opacity:1" fill="#faa01a" d="M 265.5,280.5 C 265.833,280.5 266.167,280.5 266.5,280.5C 281.235,281.174 296.069,281.841 311,282.5C 311.5,297.496 311.667,312.496 311.5,327.5C 296.167,327.5 280.833,327.5 265.5,327.5C 265.5,311.833 265.5,296.167 265.5,280.5 Z"/></g>
<g><path style="opacity:1" fill="#e96a1c" d="M 265.5,265.5 C 320.833,265.5 376.167,265.5 431.5,265.5C 377.669,266.499 323.669,266.832 269.5,266.5C 269.5,267.5 269.5,268.5 269.5,269.5C 268.5,269.5 267.5,269.5 266.5,269.5C 266.5,272.833 266.5,276.167 266.5,279.5C 281.523,279.522 296.523,279.355 311.5,279C 312.333,279.833 313.167,280.667 314,281.5C 314.667,296.833 314.667,312.167 314,327.5C 313.5,328 313,328.5 312.5,329C 297.19,328.641 281.856,328.475 266.5,328.5C 266.5,332.833 266.5,337.167 266.5,341.5C 271.545,341.208 276.545,340.541 281.5,339.5C 283.208,339.703 284.541,340.536 285.5,342C 295.077,342.18 304.577,342.68 314,343.5C 314.969,359.592 314.636,375.592 313,391.5C 304.585,391.678 296.085,391.845 287.5,392C 284.86,394.338 283.193,393.838 282.5,390.5C 292.167,390.5 301.833,390.5 311.5,390.5C 311.5,374.833 311.5,359.167 311.5,343.5C 301.5,343.5 291.5,343.5 281.5,343.5C 280.833,343.5 280.167,343.5 279.5,343.5C 274.833,343.5 270.167,343.5 265.5,343.5C 265.5,338.167 265.5,332.833 265.5,327.5C 280.833,327.5 296.167,327.5 311.5,327.5C 312.661,312.339 312.828,297.006 312,281.5C 296.911,280.509 281.745,280.176 266.5,280.5C 266.167,280.5 265.833,280.5 265.5,280.5C 265.5,275.5 265.5,270.5 265.5,265.5 Z"/></g>
<g><path style="opacity:1" fill="#f98322" d="M 266.5,280.5 C 281.745,280.176 296.911,280.509 312,281.5C 312.828,297.006 312.661,312.339 311.5,327.5C 311.667,312.496 311.5,297.496 311,282.5C 296.069,281.841 281.235,281.174 266.5,280.5 Z"/></g>
<g><path style="opacity:1" fill="#ee6423" d="M 431.5,265.5 C 448.5,265.5 465.5,265.5 482.5,265.5C 482.833,265.5 483.167,265.5 483.5,265.5C 483.5,312.167 483.5,358.833 483.5,405.5C 473.5,405.5 463.5,405.5 453.5,405.5C 454.155,384.473 453.488,363.806 451.5,343.5C 446.167,343.5 440.833,343.5 435.5,343.5C 430.833,343.5 426.167,343.5 421.5,343.5C 416.167,343.5 410.833,343.5 405.5,343.5C 404.833,343.5 404.167,343.5 403.5,343.5C 399.702,342.517 395.702,342.183 391.5,342.5C 391.83,321.993 391.497,301.66 390.5,281.5C 369.673,280.503 348.673,280.169 327.5,280.5C 326.501,321.997 326.168,363.663 326.5,405.5C 311.5,405.5 296.5,405.5 281.5,405.5C 281.5,400.167 281.5,394.833 281.5,389.5C 281.833,389.5 282.167,389.5 282.5,389.5C 282.5,389.833 282.5,390.167 282.5,390.5C 283.193,393.838 284.86,394.338 287.5,392C 296.085,391.845 304.585,391.678 313,391.5C 314.636,375.592 314.969,359.592 314,343.5C 304.577,342.68 295.077,342.18 285.5,342C 284.541,340.536 283.208,339.703 281.5,339.5C 276.545,340.541 271.545,341.208 266.5,341.5C 266.5,337.167 266.5,332.833 266.5,328.5C 281.856,328.475 297.19,328.641 312.5,329C 313,328.5 313.5,328 314,327.5C 314.667,312.167 314.667,296.833 314,281.5C 313.167,280.667 312.333,279.833 311.5,279C 296.523,279.355 281.523,279.522 266.5,279.5C 266.5,276.167 266.5,272.833 266.5,269.5C 267.5,269.5 268.5,269.5 269.5,269.5C 269.5,268.5 269.5,267.5 269.5,266.5C 323.669,266.832 377.669,266.499 431.5,265.5 Z"/></g>
<g><path style="opacity:1" fill="#e96b18" d="M 405.5,327.5 C 421.167,327.5 436.833,327.5 452.5,327.5C 452.5,311.833 452.5,296.167 452.5,280.5C 436.833,280.5 421.167,280.5 405.5,280.5C 407.771,277.796 410.438,277.296 413.5,279C 425.853,279.774 438.186,279.607 450.5,278.5C 454.074,278.575 455.741,280.408 455.5,284C 454.176,297.502 454.176,311.002 455.5,324.5C 455.61,326.374 454.944,327.874 453.5,329C 437.354,328.926 421.354,328.426 405.5,327.5 Z"/></g>
<g><path style="opacity:1" fill="#5c3736" d="M 327.5,281.5 C 348.167,281.5 368.833,281.5 389.5,281.5C 389.5,291.5 389.5,301.5 389.5,311.5C 389.167,311.5 388.833,311.5 388.5,311.5C 388.5,301.833 388.5,292.167 388.5,282.5C 368.5,282.5 348.5,282.5 328.5,282.5C 328.5,292.167 328.5,301.833 328.5,311.5C 328.5,311.833 328.5,312.167 328.5,312.5C 328.167,312.5 327.833,312.5 327.5,312.5C 327.5,302.167 327.5,291.833 327.5,281.5 Z"/></g>
<g><path style="opacity:1" fill="#463c4b" d="M 388.5,311.5 C 368.5,311.5 348.5,311.5 328.5,311.5C 328.5,301.833 328.5,292.167 328.5,282.5C 348.5,282.5 368.5,282.5 388.5,282.5C 388.5,292.167 388.5,301.833 388.5,311.5 Z"/></g>
<g><path style="opacity:1" fill="#8e462d" d="M 327.5,281.5 C 327.5,281.167 327.5,280.833 327.5,280.5C 348.673,280.169 369.673,280.503 390.5,281.5C 390.83,302.007 390.497,322.34 389.5,342.5C 389.5,332.167 389.5,321.833 389.5,311.5C 389.5,301.5 389.5,291.5 389.5,281.5C 368.833,281.5 348.167,281.5 327.5,281.5 Z"/></g>
<g><path style="opacity:1" fill="#fe9625" d="M 405.5,280.5 C 421.167,280.5 436.833,280.5 452.5,280.5C 452.5,296.167 452.5,311.833 452.5,327.5C 436.833,327.5 421.167,327.5 405.5,327.5C 405.5,311.833 405.5,296.167 405.5,280.5 Z"/></g>
<g><path style="opacity:1" fill="#fba019" d="M 408.5,282.5 C 421.837,282.333 435.171,282.5 448.5,283C 449.025,283.692 449.692,284.192 450.5,284.5C 450.833,290.167 451.167,295.833 451.5,301.5C 451.686,309.793 451.019,317.96 449.5,326C 435.504,326.5 421.504,326.667 407.5,326.5C 406.48,313.516 406.313,300.516 407,287.5C 407.352,285.753 407.852,284.086 408.5,282.5 Z"/></g>
<g><path style="opacity:1" fill="#55596d" d="M 328.5,311.5 C 348.5,311.5 368.5,311.5 388.5,311.5C 388.833,311.5 389.167,311.5 389.5,311.5C 389.5,321.833 389.5,332.167 389.5,342.5C 384.238,342.195 379.072,342.529 374,343.5C 373.5,364.164 373.333,384.831 373.5,405.5C 373.167,405.5 372.833,405.5 372.5,405.5C 358.01,404.504 343.343,404.171 328.5,404.5C 328.5,373.833 328.5,343.167 328.5,312.5C 328.5,312.167 328.5,311.833 328.5,311.5 Z"/></g>
<g><path style="opacity:1" fill="#765550" d="M 327.5,312.5 C 327.833,312.5 328.167,312.5 328.5,312.5C 328.5,343.167 328.5,373.833 328.5,404.5C 343.343,404.171 358.01,404.504 372.5,405.5C 362.652,405.173 352.986,405.506 343.5,406.5C 338.238,406.805 333.072,406.471 328,405.5C 327.5,374.502 327.333,343.502 327.5,312.5 Z"/></g>
<g><path style="opacity:1" fill="#d16d3c" d="M 390.5,281.5 C 391.497,301.66 391.83,321.993 391.5,342.5C 395.702,342.183 399.702,342.517 403.5,343.5C 398.833,343.5 394.167,343.5 389.5,343.5C 389.5,343.167 389.5,342.833 389.5,342.5C 390.497,322.34 390.83,302.007 390.5,281.5 Z"/></g>
<g><path style="opacity:0.208" fill="#efe3b7" d="M 264.5,265.5 C 264.833,265.5 265.167,265.5 265.5,265.5C 265.5,270.5 265.5,275.5 265.5,280.5C 265.5,296.167 265.5,311.833 265.5,327.5C 265.5,332.833 265.5,338.167 265.5,343.5C 260.5,343.5 255.5,343.5 250.5,343.5C 254.97,342.514 259.637,342.181 264.5,342.5C 264.5,316.833 264.5,291.167 264.5,265.5 Z"/></g>
<g><path style="opacity:1" fill="#faa019" d="M 281.5,344.5 C 291.167,344.5 300.833,344.5 310.5,344.5C 310.667,358.504 310.5,372.504 310,386.5C 309.261,387.574 308.261,388.241 307,388.5C 299.22,388.735 291.387,388.402 283.5,387.5C 282.702,387.957 282.369,388.624 282.5,389.5C 282.167,389.5 281.833,389.5 281.5,389.5C 281.5,374.5 281.5,359.5 281.5,344.5 Z"/></g>
<g><path style="opacity:1" fill="#f7a11b" d="M 405.5,343.5 C 410.833,343.5 416.167,343.5 421.5,343.5C 421.5,347.833 421.5,352.167 421.5,356.5C 416.595,357.445 411.595,357.779 406.5,357.5C 406.774,352.737 406.441,348.07 405.5,343.5 Z"/></g>
<g><path style="opacity:1" fill="#91c73d" d="M 390.5,344.5 C 390.5,364.5 390.5,384.5 390.5,404.5C 389.833,404.5 389.5,404.833 389.5,405.5C 385.167,405.5 380.833,405.5 376.5,405.5C 375.347,385.907 375.18,366.24 376,346.5C 380.518,344.593 385.352,343.926 390.5,344.5 Z"/></g>
<g><path style="opacity:1" fill="#fd9724" d="M 281.5,344.5 C 281.5,344.167 281.5,343.833 281.5,343.5C 291.5,343.5 301.5,343.5 311.5,343.5C 311.5,359.167 311.5,374.833 311.5,390.5C 301.833,390.5 292.167,390.5 282.5,390.5C 282.5,390.167 282.5,389.833 282.5,389.5C 282.369,388.624 282.702,387.957 283.5,387.5C 291.387,388.402 299.22,388.735 307,388.5C 308.261,388.241 309.261,387.574 310,386.5C 310.5,372.504 310.667,358.504 310.5,344.5C 300.833,344.5 291.167,344.5 281.5,344.5 Z"/></g>
<g><path style="opacity:1" fill="#60a946" d="M 216.5,344.5 C 221.64,343.512 226.974,343.179 232.5,343.5C 233.4,348.772 233.733,354.105 233.5,359.5C 239.026,359.821 244.36,359.488 249.5,358.5C 249.833,358.5 250.167,358.5 250.5,358.5C 254.981,359.648 259.648,359.815 264.5,359C 265.469,354.263 265.803,349.43 265.5,344.5C 269.833,344.5 274.167,344.5 278.5,344.5C 278.5,363.5 278.5,382.5 278.5,401.5C 277.5,401.5 276.5,401.5 275.5,401.5C 275.5,402.5 275.5,403.5 275.5,404.5C 272.167,404.5 268.833,404.5 265.5,404.5C 265.5,394.5 265.5,384.5 265.5,374.5C 260.5,374.5 255.5,374.5 250.5,374.5C 250.5,384.833 250.5,395.167 250.5,405.5C 250.167,405.5 249.833,405.5 249.5,405.5C 249.828,394.986 249.494,384.653 248.5,374.5C 243.36,373.512 238.026,373.179 232.5,373.5C 232.172,384.014 232.506,394.347 233.5,404.5C 233.5,404.833 233.5,405.167 233.5,405.5C 228.5,405.5 223.5,405.5 218.5,405.5C 218.5,405.167 218.5,404.833 218.5,404.5C 219.675,404.719 220.675,404.386 221.5,403.5C 220.902,402.205 220.402,400.872 220,399.5C 219.167,383.49 219.334,367.49 220.5,351.5C 221.499,367.486 221.833,383.486 221.5,399.5C 224.47,399.746 225.803,401.412 225.5,404.5C 226.833,404.5 228.167,404.5 229.5,404.5C 229.148,392.356 227.815,380.356 225.5,368.5C 228.257,365.684 227.757,365.018 224,366.5C 223.833,365.5 223.667,364.5 223.5,363.5C 225.183,357.289 225.85,350.955 225.5,344.5C 223.167,344.5 220.833,344.5 218.5,344.5C 217.833,344.5 217.167,344.5 216.5,344.5 Z"/></g>
<g><path style="opacity:1" fill="#8ec73d" d="M 265.5,344.5 C 265.803,349.43 265.469,354.263 264.5,359C 259.648,359.815 254.981,359.648 250.5,358.5C 250.5,353.833 250.5,349.167 250.5,344.5C 255.5,344.5 260.5,344.5 265.5,344.5 Z"/></g>
<g><path style="opacity:1" fill="#5fa942" d="M 218.5,344.5 C 220.833,344.5 223.167,344.5 225.5,344.5C 225.85,350.955 225.183,357.289 223.5,363.5C 223.667,364.5 223.833,365.5 224,366.5C 227.757,365.018 228.257,365.684 225.5,368.5C 227.815,380.356 229.148,392.356 229.5,404.5C 228.167,404.5 226.833,404.5 225.5,404.5C 225.803,401.412 224.47,399.746 221.5,399.5C 221.833,383.486 221.499,367.486 220.5,351.5C 219.334,367.49 219.167,383.49 220,399.5C 220.402,400.872 220.902,402.205 221.5,403.5C 220.675,404.386 219.675,404.719 218.5,404.5C 218.5,384.5 218.5,364.5 218.5,344.5 Z"/></g>
<g><path style="opacity:1" fill="#b6a434" d="M 279.5,343.5 C 280.167,343.5 280.833,343.5 281.5,343.5C 281.5,343.833 281.5,344.167 281.5,344.5C 281.5,359.5 281.5,374.5 281.5,389.5C 281.5,394.833 281.5,400.167 281.5,405.5C 281.167,405.5 280.833,405.5 280.5,405.5C 280.821,384.758 280.488,364.091 279.5,343.5 Z"/></g>
<g><path style="opacity:1" fill="#95b661" d="M 389.5,343.5 C 394.167,343.5 398.833,343.5 403.5,343.5C 403.5,343.833 403.5,344.167 403.5,344.5C 399.167,344.5 394.833,344.5 390.5,344.5C 385.352,343.926 380.518,344.593 376,346.5C 375.18,366.24 375.347,385.907 376.5,405.5C 375.833,405.5 375.167,405.5 374.5,405.5C 374.333,385.164 374.5,364.831 375,344.5C 379.737,343.531 384.57,343.197 389.5,343.5 Z"/></g>
<g><path style="opacity:1" fill="#92c73d" d="M 421.5,343.5 C 426.167,343.5 430.833,343.5 435.5,343.5C 436.445,348.405 436.779,353.405 436.5,358.5C 431.5,358.5 426.5,358.5 421.5,358.5C 421.5,357.833 421.5,357.167 421.5,356.5C 421.5,352.167 421.5,347.833 421.5,343.5 Z"/></g>
<g><path style="opacity:1" fill="#61a945" d="M 435.5,343.5 C 440.833,343.5 446.167,343.5 451.5,343.5C 451.5,364.167 451.5,384.833 451.5,405.5C 446.5,405.5 441.5,405.5 436.5,405.5C 436.5,395.167 436.5,384.833 436.5,374.5C 431.5,374.5 426.5,374.5 421.5,374.5C 419.022,373.836 416.355,373.503 413.5,373.5C 410.41,373.522 407.743,374.188 405.5,375.5C 404.506,384.986 404.173,394.652 404.5,404.5C 399.833,404.5 395.167,404.5 390.5,404.5C 390.5,384.5 390.5,364.5 390.5,344.5C 394.833,344.5 399.167,344.5 403.5,344.5C 404.117,344.611 404.617,344.944 405,345.5C 405.499,350.155 405.666,354.821 405.5,359.5C 411.026,359.821 416.36,359.488 421.5,358.5C 426.5,358.5 431.5,358.5 436.5,358.5C 436.779,353.405 436.445,348.405 435.5,343.5 Z"/></g>
<g><path style="opacity:1" fill="#a78736" d="M 451.5,343.5 C 453.488,363.806 454.155,384.473 453.5,405.5C 452.833,405.5 452.167,405.5 451.5,405.5C 451.5,384.833 451.5,364.167 451.5,343.5 Z"/></g>
<g><path style="opacity:1" fill="#7aa53f" d="M 250.5,343.5 C 255.5,343.5 260.5,343.5 265.5,343.5C 270.167,343.5 274.833,343.5 279.5,343.5C 280.488,364.091 280.821,384.758 280.5,405.5C 275.5,405.5 270.5,405.5 265.5,405.5C 265.5,405.167 265.5,404.833 265.5,404.5C 268.833,404.5 272.167,404.5 275.5,404.5C 275.5,403.5 275.5,402.5 275.5,401.5C 276.5,401.5 277.5,401.5 278.5,401.5C 278.5,382.5 278.5,363.5 278.5,344.5C 274.167,344.5 269.833,344.5 265.5,344.5C 260.5,344.5 255.5,344.5 250.5,344.5C 250.5,349.167 250.5,353.833 250.5,358.5C 250.167,358.5 249.833,358.5 249.5,358.5C 249.179,353.305 249.513,348.305 250.5,343.5 Z"/></g>
<g><path style="opacity:1" fill="#516942" d="M 389.5,342.5 C 389.5,342.833 389.5,343.167 389.5,343.5C 384.57,343.197 379.737,343.531 375,344.5C 374.5,364.831 374.333,385.164 374.5,405.5C 374.167,405.5 373.833,405.5 373.5,405.5C 373.333,384.831 373.5,364.164 374,343.5C 379.072,342.529 384.238,342.195 389.5,342.5 Z"/></g>
<g><path style="opacity:1" fill="#c4a42d" d="M 403.5,344.5 C 403.5,344.167 403.5,343.833 403.5,343.5C 404.167,343.5 404.833,343.5 405.5,343.5C 406.441,348.07 406.774,352.737 406.5,357.5C 411.595,357.779 416.595,357.445 421.5,356.5C 421.5,357.167 421.5,357.833 421.5,358.5C 416.36,359.488 411.026,359.821 405.5,359.5C 405.666,354.821 405.499,350.155 405,345.5C 404.617,344.944 404.117,344.611 403.5,344.5 Z"/></g>
<g><path style="opacity:0.624" fill="#aacc9e" d="M 232.5,343.5 C 233.117,343.611 233.617,343.944 234,344.5C 234.499,349.155 234.666,353.821 234.5,358.5C 239.5,358.5 244.5,358.5 249.5,358.5C 244.36,359.488 239.026,359.821 233.5,359.5C 233.733,354.105 233.4,348.772 232.5,343.5 Z"/></g>
<g><path style="opacity:1" fill="#9e9c28" d="M 421.5,374.5 C 416.305,374.179 411.305,374.513 406.5,375.5C 406.5,380.167 406.5,384.833 406.5,389.5C 406.167,389.5 405.833,389.5 405.5,389.5C 405.5,384.833 405.5,380.167 405.5,375.5C 407.743,374.188 410.41,373.522 413.5,373.5C 416.355,373.503 419.022,373.836 421.5,374.5 Z"/></g>
<g><path style="opacity:0.996" fill="#489dc1" d="M 78.5,374.5 C 119.5,374.5 160.5,374.5 201.5,374.5C 201.5,379.833 201.5,385.167 201.5,390.5C 201.167,390.5 200.833,390.5 200.5,390.5C 200.5,385.5 200.5,380.5 200.5,375.5C 160.165,375.333 119.832,375.5 79.5,376C 78.5308,380.737 78.1975,385.57 78.5,390.5C 78.1667,390.5 77.8333,390.5 77.5,390.5C 77.1786,384.974 77.5119,379.64 78.5,374.5 Z"/></g>
<g><path style="opacity:1" fill="#d2af33" d="M 406.5,375.5 C 411.305,374.513 416.305,374.179 421.5,374.5C 421.5,379.5 421.5,384.5 421.5,389.5C 420.514,385.03 420.181,380.363 420.5,375.5C 415.833,375.5 411.167,375.5 406.5,375.5 Z"/></g>
<g><path style="opacity:1" fill="#26a9e2" d="M 234.5,375.5 C 239.167,375.5 243.833,375.5 248.5,375.5C 248.5,380.5 248.5,385.5 248.5,390.5C 243.833,390.5 239.167,390.5 234.5,390.5C 234.5,385.5 234.5,380.5 234.5,375.5 Z"/></g>
<g><path style="opacity:1" fill="#90c73d" d="M 265.5,404.5 C 265.5,404.833 265.5,405.167 265.5,405.5C 260.5,405.5 255.5,405.5 250.5,405.5C 250.5,395.167 250.5,384.833 250.5,374.5C 255.5,374.5 260.5,374.5 265.5,374.5C 265.5,384.5 265.5,394.5 265.5,404.5 Z"/></g>
<g><path style="opacity:1" fill="#f69e1b" d="M 406.5,375.5 C 411.167,375.5 415.833,375.5 420.5,375.5C 420.181,380.363 420.514,385.03 421.5,389.5C 421.5,394.833 421.5,400.167 421.5,405.5C 421.167,405.5 420.833,405.5 420.5,405.5C 420.5,400.5 420.5,395.5 420.5,390.5C 415.833,390.5 411.167,390.5 406.5,390.5C 406.5,390.167 406.5,389.833 406.5,389.5C 406.5,384.833 406.5,380.167 406.5,375.5 Z"/></g>
<g><path style="opacity:1" fill="#25a9e4" d="M 200.5,390.5 C 159.833,390.5 119.167,390.5 78.5,390.5C 78.1975,385.57 78.5308,380.737 79.5,376C 119.832,375.5 160.165,375.333 200.5,375.5C 200.5,380.5 200.5,385.5 200.5,390.5 Z"/></g>
<g><path style="opacity:1" fill="#51a96b" d="M 248.5,374.5 C 243.637,374.181 238.97,374.514 234.5,375.5C 233.506,384.986 233.173,394.652 233.5,404.5C 232.506,394.347 232.172,384.014 232.5,373.5C 238.026,373.179 243.36,373.512 248.5,374.5 Z"/></g>
<g><path style="opacity:1" fill="#92c83c" d="M 421.5,374.5 C 426.5,374.5 431.5,374.5 436.5,374.5C 436.5,384.833 436.5,395.167 436.5,405.5C 431.5,405.5 426.5,405.5 421.5,405.5C 421.5,400.167 421.5,394.833 421.5,389.5C 421.5,384.5 421.5,379.5 421.5,374.5 Z"/></g>
<g><path style="opacity:1" fill="#46b5b8" d="M 234.5,375.5 C 238.97,374.514 243.637,374.181 248.5,374.5C 249.494,384.653 249.828,394.986 249.5,405.5C 249.167,405.5 248.833,405.5 248.5,405.5C 248.5,400.5 248.5,395.5 248.5,390.5C 248.5,385.5 248.5,380.5 248.5,375.5C 243.833,375.5 239.167,375.5 234.5,375.5 Z"/></g>
<g><path style="opacity:1" fill="#94c968" d="M 232.5,343.5 C 226.974,343.179 221.64,343.512 216.5,344.5C 217.167,344.5 217.833,344.5 218.5,344.5C 218.5,364.5 218.5,384.5 218.5,404.5C 218.5,404.833 218.5,405.167 218.5,405.5C 213.167,405.5 207.833,405.5 202.5,405.5C 202.5,395.167 202.5,384.833 202.5,374.5C 202.334,364.161 202.5,353.828 203,343.5C 212.931,342.171 222.765,342.171 232.5,343.5 Z"/></g>
<g><path style="opacity:1" fill="#91c83c" d="M 216.5,344.5 C 217.487,364.424 217.821,384.424 217.5,404.5C 213.167,404.5 208.833,404.5 204.5,404.5C 204.333,384.831 204.5,365.164 205,345.5C 208.73,344.54 212.563,344.207 216.5,344.5 Z"/></g>
<g><path style="opacity:1" fill="#5cd3f2" d="M 234.5,375.5 C 234.5,380.5 234.5,385.5 234.5,390.5C 239.167,390.5 243.833,390.5 248.5,390.5C 248.5,395.5 248.5,400.5 248.5,405.5C 243.5,405.5 238.5,405.5 233.5,405.5C 233.5,405.167 233.5,404.833 233.5,404.5C 233.173,394.652 233.506,384.986 234.5,375.5 Z"/></g>
<g><path style="opacity:1" fill="#b69780" d="M 78.5,252.5 C 78.5,293.167 78.5,333.833 78.5,374.5C 77.5119,379.64 77.1786,384.974 77.5,390.5C 77.5,395.5 77.5,400.5 77.5,405.5C 77.1667,405.5 76.8333,405.5 76.5,405.5C 76.9909,354.334 77.6576,303.334 78.5,252.5 Z"/></g>
<g><path style="opacity:1" fill="#ed6423" d="M 406.5,390.5 C 411.167,390.5 415.833,390.5 420.5,390.5C 420.5,395.5 420.5,400.5 420.5,405.5C 415.833,405.5 411.167,405.5 406.5,405.5C 406.5,400.5 406.5,395.5 406.5,390.5 Z"/></g>
<g><path style="opacity:1" fill="#7d9b3d" d="M 405.5,375.5 C 405.5,380.167 405.5,384.833 405.5,389.5C 405.5,394.833 405.5,400.167 405.5,405.5C 400.167,405.5 394.833,405.5 389.5,405.5C 389.5,404.833 389.833,404.5 390.5,404.5C 395.167,404.5 399.833,404.5 404.5,404.5C 404.173,394.652 404.506,384.986 405.5,375.5 Z"/></g>
<g><path style="opacity:1" fill="#95c3c2" d="M 15.5,374.5 C 15.5,379.833 15.5,385.167 15.5,390.5C 15.5,395.167 15.5,399.833 15.5,404.5C 20.1667,404.5 24.8333,404.5 29.5,404.5C 29.5,399.833 29.5,395.167 29.5,390.5C 30.4881,385.36 30.8214,380.026 30.5,374.5C 31.4942,384.653 31.8276,394.986 31.5,405.5C 30.8333,405.5 30.1667,405.5 29.5,405.5C 24.5,405.5 19.5,405.5 14.5,405.5C 14.1724,394.986 14.5058,384.653 15.5,374.5 Z"/></g>
<g><path style="opacity:1" fill="#5bd6fb" d="M 15.5,390.5 C 20.1667,390.5 24.8333,390.5 29.5,390.5C 29.5,395.167 29.5,399.833 29.5,404.5C 24.8333,404.5 20.1667,404.5 15.5,404.5C 15.5,399.833 15.5,395.167 15.5,390.5 Z"/></g>
<g><path style="opacity:1" fill="#31a7dd" d="M 15.5,374.5 C 20.5,374.5 25.5,374.5 30.5,374.5C 30.8214,380.026 30.4881,385.36 29.5,390.5C 24.8333,390.5 20.1667,390.5 15.5,390.5C 15.5,385.167 15.5,379.833 15.5,374.5 Z"/></g>
<g><path style="opacity:1" fill="#77cbd7" d="M 201.5,374.5 C 201.833,374.5 202.167,374.5 202.5,374.5C 202.5,384.833 202.5,395.167 202.5,405.5C 160.833,405.5 119.167,405.5 77.5,405.5C 77.5,400.5 77.5,395.5 77.5,390.5C 77.8333,390.5 78.1667,390.5 78.5,390.5C 78.5,395.167 78.5,399.833 78.5,404.5C 119.167,404.5 159.833,404.5 200.5,404.5C 200.226,399.737 200.559,395.07 201.5,390.5C 201.5,385.167 201.5,379.833 201.5,374.5 Z"/></g>
<g><path style="opacity:1" fill="#59d6fe" d="M 78.5,390.5 C 119.167,390.5 159.833,390.5 200.5,390.5C 200.833,390.5 201.167,390.5 201.5,390.5C 200.559,395.07 200.226,399.737 200.5,404.5C 159.833,404.5 119.167,404.5 78.5,404.5C 78.5,399.833 78.5,395.167 78.5,390.5 Z"/></g>
<g><path style="opacity:1" fill="#faa019" d="M 29.5,405.5 C 30.1667,405.5 30.8333,405.5 31.5,405.5C 31.8333,405.5 32.1667,405.5 32.5,405.5C 39.8333,405.5 47.1667,405.5 54.5,405.5C 61.8333,405.5 69.1667,405.5 76.5,405.5C 76.8333,405.5 77.1667,405.5 77.5,405.5C 94.3583,406.125 111.358,406.958 128.5,408C 145.549,413.516 159.883,423.016 171.5,436.5C 171.555,439.614 172.888,441.948 175.5,443.5C 176.833,446.5 178.167,449.5 179.5,452.5C 181.346,458.718 183.013,465.051 184.5,471.5C 184.423,475.215 184.756,478.881 185.5,482.5C 130.499,482.667 75.499,482.5 20.5,482C 19.4214,481.044 18.2547,480.211 17,479.5C 16.5,455.502 16.3334,431.502 16.5,407.5C 21.0323,407.818 25.3656,407.485 29.5,406.5C 29.5,406.167 29.5,405.833 29.5,405.5 Z"/></g>
<g><path style="opacity:1" fill="#a45122" d="M 406.5,405.5 C 411.167,405.5 415.833,405.5 420.5,405.5C 420.833,405.5 421.167,405.5 421.5,405.5C 426.5,405.5 431.5,405.5 436.5,405.5C 441.5,405.5 446.5,405.5 451.5,405.5C 452.167,405.5 452.833,405.5 453.5,405.5C 463.5,405.5 473.5,405.5 483.5,405.5C 483.5,415.5 483.5,425.5 483.5,435.5C 467.991,435.17 452.658,435.504 437.5,436.5C 436.504,451.991 436.17,467.658 436.5,483.5C 436.167,483.5 435.833,483.5 435.5,483.5C 435.5,467.833 435.5,452.167 435.5,436.5C 425.652,436.173 415.986,436.506 406.5,437.5C 406.167,437.5 405.833,437.5 405.5,437.5C 405.5,437.167 405.5,436.833 405.5,436.5C 401.03,435.514 396.363,435.181 391.5,435.5C 390.528,426.25 390.195,416.917 390.5,407.5C 392.394,408.048 394.06,409.048 395.5,410.5C 397.987,407.536 400.987,406.869 404.5,408.5C 405.919,407.995 406.585,406.995 406.5,405.5 Z"/></g>
<g><path style="opacity:1" fill="#a45325" d="M 327.5,280.5 C 327.5,280.833 327.5,281.167 327.5,281.5C 327.5,291.833 327.5,302.167 327.5,312.5C 327.333,343.502 327.5,374.502 328,405.5C 333.072,406.471 338.238,406.805 343.5,406.5C 343.5,416.167 343.5,425.833 343.5,435.5C 359.5,435.5 375.5,435.5 391.5,435.5C 396.363,435.181 401.03,435.514 405.5,436.5C 353.5,436.5 301.5,436.5 249.5,436.5C 249.5,452.167 249.5,467.833 249.5,483.5C 249.167,483.5 248.833,483.5 248.5,483.5C 248.5,467.833 248.5,452.167 248.5,436.5C 238.833,436.5 229.167,436.5 219.5,436.5C 219.5,441.833 219.5,447.167 219.5,452.5C 219.167,452.5 218.833,452.5 218.5,452.5C 218.5,447.167 218.5,441.833 218.5,436.5C 203.167,436.5 187.833,436.5 172.5,436.5C 172.167,436.5 171.833,436.5 171.5,436.5C 159.883,423.016 145.549,413.516 128.5,408C 111.358,406.958 94.3583,406.125 77.5,405.5C 119.167,405.5 160.833,405.5 202.5,405.5C 207.833,405.5 213.167,405.5 218.5,405.5C 223.5,405.5 228.5,405.5 233.5,405.5C 238.5,405.5 243.5,405.5 248.5,405.5C 248.833,405.5 249.167,405.5 249.5,405.5C 249.833,405.5 250.167,405.5 250.5,405.5C 255.5,405.5 260.5,405.5 265.5,405.5C 270.5,405.5 275.5,405.5 280.5,405.5C 280.833,405.5 281.167,405.5 281.5,405.5C 296.5,405.5 311.5,405.5 326.5,405.5C 326.168,363.663 326.501,321.997 327.5,280.5 Z"/></g>
<g><path style="opacity:1" fill="#d06e29" d="M 372.5,405.5 C 372.833,405.5 373.167,405.5 373.5,405.5C 373.833,405.5 374.167,405.5 374.5,405.5C 375.167,405.5 375.833,405.5 376.5,405.5C 380.833,405.5 385.167,405.5 389.5,405.5C 389.833,406.167 390.167,406.833 390.5,407.5C 390.195,416.917 390.528,426.25 391.5,435.5C 375.5,435.5 359.5,435.5 343.5,435.5C 343.5,425.833 343.5,416.167 343.5,406.5C 352.986,405.506 362.652,405.173 372.5,405.5 Z"/></g>
<g><path style="opacity:1" fill="#9f6126" d="M 405.5,389.5 C 405.833,389.5 406.167,389.5 406.5,389.5C 406.5,389.833 406.5,390.167 406.5,390.5C 406.5,395.5 406.5,400.5 406.5,405.5C 406.585,406.995 405.919,407.995 404.5,408.5C 400.987,406.869 397.987,407.536 395.5,410.5C 394.06,409.048 392.394,408.048 390.5,407.5C 390.167,406.833 389.833,406.167 389.5,405.5C 394.833,405.5 400.167,405.5 405.5,405.5C 405.5,400.167 405.5,394.833 405.5,389.5 Z"/></g>
<g><path style="opacity:0.349" fill="#f5d49e" d="M 14.5,405.5 C 19.5,405.5 24.5,405.5 29.5,405.5C 29.5,405.833 29.5,406.167 29.5,406.5C 24.8333,406.5 20.1667,406.5 15.5,406.5C 15.5,431.167 15.5,455.833 15.5,480.5C 14.5023,455.672 14.169,430.672 14.5,405.5 Z"/></g>
<g><path style="opacity:1" fill="#b6886f" d="M 483.5,148.5 C 484.499,244.332 484.833,340.332 484.5,436.5C 484.167,436.5 483.833,436.5 483.5,436.5C 468.167,436.5 452.833,436.5 437.5,436.5C 452.658,435.504 467.991,435.17 483.5,435.5C 483.5,425.5 483.5,415.5 483.5,405.5C 483.5,358.833 483.5,312.167 483.5,265.5C 483.5,226.5 483.5,187.5 483.5,148.5 Z"/></g>
<g><path style="opacity:1" fill="#949e8f" d="M 172.5,436.5 C 187.833,436.5 203.167,436.5 218.5,436.5C 218.5,441.833 218.5,447.167 218.5,452.5C 218.828,463.014 218.494,473.347 217.5,483.5C 217.5,468.167 217.5,452.833 217.5,437.5C 202.833,437.5 188.167,437.5 173.5,437.5C 172.833,437.5 172.5,437.167 172.5,436.5 Z"/></g>
<g><path style="opacity:1" fill="#83d3e8" d="M 173.5,437.5 C 188.167,437.5 202.833,437.5 217.5,437.5C 217.5,452.833 217.5,468.167 217.5,483.5C 217.5,483.833 217.5,484.167 217.5,484.5C 207.167,484.5 196.833,484.5 186.5,484.5C 186.5,484.167 186.5,483.833 186.5,483.5C 187.167,482.167 187.833,480.833 188.5,479.5C 188.5,480.5 188.5,481.5 188.5,482.5C 197.833,482.5 207.167,482.5 216.5,482.5C 216.5,467.833 216.5,453.167 216.5,438.5C 202.127,437.851 188.127,438.518 174.5,440.5C 173.596,439.791 173.263,438.791 173.5,437.5 Z"/></g>
<g><path style="opacity:1" fill="#8ec9d7" d="M 405.5,436.5 C 405.5,436.833 405.5,437.167 405.5,437.5C 405.5,453.167 405.5,468.833 405.5,484.5C 353.5,484.5 301.5,484.5 249.5,484.5C 249.5,484.167 249.5,483.833 249.5,483.5C 249.5,467.833 249.5,452.167 249.5,436.5C 301.5,436.5 353.5,436.5 405.5,436.5 Z"/></g>
<g><path style="opacity:1" fill="#5ad6fd" d="M 188.5,479.5 C 188.318,475.511 187.318,471.844 185.5,468.5C 184.16,463.453 182.827,458.453 181.5,453.5C 181.517,448.871 179.517,445.538 175.5,443.5C 175.443,442.391 175.11,441.391 174.5,440.5C 188.127,438.518 202.127,437.851 216.5,438.5C 216.5,453.167 216.5,467.833 216.5,482.5C 207.167,482.5 197.833,482.5 188.5,482.5C 188.5,481.5 188.5,480.5 188.5,479.5 Z"/></g>
<g><path style="opacity:1" fill="#59d6fe" d="M 250.5,438.5 C 301.833,438.5 353.167,438.5 404.5,438.5C 404.5,453.167 404.5,467.833 404.5,482.5C 353.167,482.5 301.833,482.5 250.5,482.5C 250.5,467.833 250.5,453.167 250.5,438.5 Z"/></g>
<g><path style="opacity:1" fill="#bfb370" d="M 171.5,436.5 C 171.833,436.5 172.167,436.5 172.5,436.5C 172.5,437.167 172.833,437.5 173.5,437.5C 173.263,438.791 173.596,439.791 174.5,440.5C 175.11,441.391 175.443,442.391 175.5,443.5C 172.888,441.948 171.555,439.614 171.5,436.5 Z"/></g>
<g><path style="opacity:1" fill="#ed6423" d="M 248.5,483.5 C 243.5,483.5 238.5,483.5 233.5,483.5C 233.5,473.167 233.5,462.833 233.5,452.5C 228.833,452.5 224.167,452.5 219.5,452.5C 219.5,447.167 219.5,441.833 219.5,436.5C 229.167,436.5 238.833,436.5 248.5,436.5C 248.5,452.167 248.5,467.833 248.5,483.5 Z"/></g>
<g><path style="opacity:1" fill="#ee6322" d="M 421.5,482.5 C 421.5,472.5 421.5,462.5 421.5,452.5C 416.833,452.5 412.167,452.5 407.5,452.5C 407.825,447.823 408.159,443.323 408.5,439C 417.12,437.748 425.787,437.248 434.5,437.5C 434.5,452.5 434.5,467.5 434.5,482.5C 430.167,482.5 425.833,482.5 421.5,482.5 Z"/></g>
<g><path style="opacity:1" fill="#9dc2a7" d="M 175.5,443.5 C 179.517,445.538 181.517,448.871 181.5,453.5C 180.833,453.167 180.167,452.833 179.5,452.5C 178.167,449.5 176.833,446.5 175.5,443.5 Z"/></g>
<g><path style="opacity:1" fill="#da662a" d="M 435.5,483.5 C 430.833,483.5 426.167,483.5 421.5,483.5C 421.5,483.167 421.5,482.833 421.5,482.5C 425.833,482.5 430.167,482.5 434.5,482.5C 434.5,467.5 434.5,452.5 434.5,437.5C 425.787,437.248 417.12,437.748 408.5,439C 408.159,443.323 407.825,447.823 407.5,452.5C 407.167,452.5 406.833,452.5 406.5,452.5C 406.5,447.5 406.5,442.5 406.5,437.5C 415.986,436.506 425.652,436.173 435.5,436.5C 435.5,452.167 435.5,467.833 435.5,483.5 Z"/></g>
<g><path style="opacity:1" fill="#a39484" d="M 437.5,436.5 C 452.833,436.5 468.167,436.5 483.5,436.5C 468.342,437.496 453.009,437.83 437.5,437.5C 437.5,452.833 437.5,468.167 437.5,483.5C 437.167,483.5 436.833,483.5 436.5,483.5C 436.17,467.658 436.504,451.991 437.5,436.5 Z"/></g>
<g><path style="opacity:1" fill="#8bdaef" d="M 483.5,436.5 C 483.833,436.5 484.167,436.5 484.5,436.5C 484.967,451.597 484.467,466.597 483,481.5C 482.097,482.701 480.931,483.535 479.5,484C 465.504,484.5 451.504,484.667 437.5,484.5C 437.5,484.167 437.5,483.833 437.5,483.5C 437.5,468.167 437.5,452.833 437.5,437.5C 453.009,437.83 468.342,437.496 483.5,436.5 Z"/></g>
<g><path style="opacity:1" fill="#59d6fe" d="M 438.5,438.5 C 453.167,438.5 467.833,438.5 482.5,438.5C 482.5,452.167 482.5,465.833 482.5,479.5C 481.5,479.5 480.5,479.5 479.5,479.5C 479.5,480.5 479.5,481.5 479.5,482.5C 465.766,482.719 452.1,482.719 438.5,482.5C 438.5,467.833 438.5,453.167 438.5,438.5 Z"/></g>
<g><path style="opacity:1" fill="#d2ad51" d="M 179.5,452.5 C 180.167,452.833 180.833,453.167 181.5,453.5C 182.827,458.453 184.16,463.453 185.5,468.5C 185.5,469.5 185.5,470.5 185.5,471.5C 185.167,471.5 184.833,471.5 184.5,471.5C 183.013,465.051 181.346,458.718 179.5,452.5 Z"/></g>
<g><path style="opacity:1" fill="#f9a01c" d="M 219.5,452.5 C 224.167,452.5 228.833,452.5 233.5,452.5C 233.5,462.833 233.5,473.167 233.5,483.5C 228.833,483.5 224.167,483.5 219.5,483.5C 219.5,473.167 219.5,462.833 219.5,452.5 Z"/></g>
<g><path style="opacity:1" fill="#9dc2a7" d="M 185.5,468.5 C 187.318,471.844 188.318,475.511 188.5,479.5C 187.833,480.833 187.167,482.167 186.5,483.5C 186.354,479.481 186.021,475.481 185.5,471.5C 185.5,470.5 185.5,469.5 185.5,468.5 Z"/></g>
<g><path style="opacity:1" fill="#f9a01b" d="M 406.5,452.5 C 406.833,452.5 407.167,452.5 407.5,452.5C 412.167,452.5 416.833,452.5 421.5,452.5C 421.5,462.5 421.5,472.5 421.5,482.5C 421.5,482.833 421.5,483.167 421.5,483.5C 416.5,483.5 411.5,483.5 406.5,483.5C 406.5,473.167 406.5,462.833 406.5,452.5 Z"/></g>
<g><path style="opacity:1" fill="#f2b158" d="M 29.5,406.5 C 25.3656,407.485 21.0323,407.818 16.5,407.5C 16.3334,431.502 16.5,455.502 17,479.5C 18.2547,480.211 19.4214,481.044 20.5,482C 75.499,482.5 130.499,482.667 185.5,482.5C 184.756,478.881 184.423,475.215 184.5,471.5C 184.833,471.5 185.167,471.5 185.5,471.5C 186.021,475.481 186.354,479.481 186.5,483.5C 186.5,483.833 186.5,484.167 186.5,484.5C 130.832,484.667 75.1657,484.5 19.5,484C 17.6763,483.34 16.343,482.173 15.5,480.5C 15.5,455.833 15.5,431.167 15.5,406.5C 20.1667,406.5 24.8333,406.5 29.5,406.5 Z"/></g>
<g><path style="opacity:0.349" fill="#eac190" d="M 218.5,452.5 C 218.833,452.5 219.167,452.5 219.5,452.5C 219.5,462.833 219.5,473.167 219.5,483.5C 224.167,483.5 228.833,483.5 233.5,483.5C 238.5,483.5 243.5,483.5 248.5,483.5C 248.833,483.5 249.167,483.5 249.5,483.5C 249.5,483.833 249.5,484.167 249.5,484.5C 238.833,484.5 228.167,484.5 217.5,484.5C 217.5,484.167 217.5,483.833 217.5,483.5C 218.494,473.347 218.828,463.014 218.5,452.5 Z"/></g>
<g><path style="opacity:0.349" fill="#e4bd92" d="M 405.5,437.5 C 405.833,437.5 406.167,437.5 406.5,437.5C 406.5,442.5 406.5,447.5 406.5,452.5C 406.5,462.833 406.5,473.167 406.5,483.5C 411.5,483.5 416.5,483.5 421.5,483.5C 426.167,483.5 430.833,483.5 435.5,483.5C 435.833,483.5 436.167,483.5 436.5,483.5C 436.833,483.5 437.167,483.5 437.5,483.5C 437.5,483.833 437.5,484.167 437.5,484.5C 426.833,484.5 416.167,484.5 405.5,484.5C 405.5,468.833 405.5,453.167 405.5,437.5 Z"/></g>
</svg>
