<?xml version="1.0" encoding="UTF-8"?>
<!DOCTYPE svg PUBLIC "-//W3C//DTD SVG 1.1//EN" "http://www.w3.org/Graphics/SVG/1.1/DTD/svg11.dtd">
<svg xmlns="http://www.w3.org/2000/svg" version="1.1" width="500px" height="500px" style="shape-rendering:geometricPrecision; text-rendering:geometricPrecision; image-rendering:optimizeQuality; fill-rule:evenodd; clip-rule:evenodd" xmlns:xlink="http://www.w3.org/1999/xlink">
<g><path style="opacity:0.998" fill="#060607" d="M 354.5,7.5 C 354.973,8.90632 355.973,9.57298 357.5,9.5C 357.973,10.9063 358.973,11.573 360.5,11.5C 360.973,12.9063 361.973,13.573 363.5,13.5C 363.973,14.9063 364.973,15.573 366.5,15.5C 366.973,16.9063 367.973,17.573 369.5,17.5C 382.203,25.8467 394.87,34.18 407.5,42.5C 407.973,43.9063 408.973,44.573 410.5,44.5C 416.795,48.141 422.795,52.141 428.5,56.5C 428.821,58.0481 429.821,58.7148 431.5,58.5C 431.821,60.0481 432.821,60.7148 434.5,60.5C 445.996,68.4153 457.662,76.0819 469.5,83.5C 474.745,85.2923 480.412,86.1256 486.5,86C 487.931,86.4652 489.097,87.2986 490,88.5C 491.462,101.401 491.962,114.401 491.5,127.5C 491.084,129.752 489.751,131.252 487.5,132C 483.848,132.499 480.182,132.665 476.5,132.5C 476.167,193.837 476.5,255.17 477.5,316.5C 489.386,324.303 494.219,335.303 492,349.5C 491.626,351.491 490.793,353.158 489.5,354.5C 487.273,355.401 486.273,357.067 486.5,359.5C 484.45,361.547 482.117,363.214 479.5,364.5C 477.447,364.402 475.78,365.069 474.5,366.5C 449.5,367.833 424.5,367.833 399.5,366.5C 398.365,364.787 396.698,364.12 394.5,364.5C 393.738,362.738 392.404,361.738 390.5,361.5C 389.5,359.833 388.167,358.5 386.5,357.5C 386.573,355.973 385.906,354.973 384.5,354.5C 383.207,353.158 382.374,351.491 382,349.5C 381.228,345.11 381.394,340.777 382.5,336.5C 379.914,335.52 377.247,335.187 374.5,335.5C 374.666,344.839 374.5,354.173 374,363.5C 373.292,364.381 372.458,365.047 371.5,365.5C 358.549,366.463 345.549,366.796 332.5,366.5C 330.248,366.084 328.748,364.751 328,362.5C 327.5,353.506 327.334,344.506 327.5,335.5C 318.318,335.173 309.318,335.507 300.5,336.5C 300.707,339.241 301.707,341.574 303.5,343.5C 308.346,353.872 312.679,364.539 316.5,375.5C 317.403,379.889 319.069,383.889 321.5,387.5C 321.402,389.553 322.069,391.22 323.5,392.5C 323.12,394.698 323.787,396.365 325.5,397.5C 326.338,397.842 326.672,398.508 326.5,399.5C 326.36,401.124 327.027,402.29 328.5,403C 331.482,403.498 334.482,403.665 337.5,403.5C 346.08,404.097 354.413,405.431 362.5,407.5C 367.256,409.118 372.256,410.118 377.5,410.5C 387.848,412.503 398.182,414.67 408.5,417C 417.599,419.308 426.266,422.474 434.5,426.5C 437.751,428.957 441.418,430.624 445.5,431.5C 448.485,432.326 451.151,433.659 453.5,435.5C 453.973,436.906 454.973,437.573 456.5,437.5C 467.296,442.629 476.296,449.962 483.5,459.5C 484.669,462.511 486.336,465.178 488.5,467.5C 488.928,470.785 489.928,473.785 491.5,476.5C 491.665,479.85 491.498,483.183 491,486.5C 490.167,488.667 488.667,490.167 486.5,491C 453.5,491.667 420.5,491.667 387.5,491C 383.385,488.363 381.385,484.529 381.5,479.5C 379.847,475.847 377.18,473.18 373.5,471.5C 366.418,466.626 358.751,462.792 350.5,460C 336.154,455.996 321.82,452.496 307.5,449.5C 302.731,448.111 297.731,447.444 292.5,447.5C 278.182,446.568 263.849,445.901 249.5,445.5C 235.151,445.901 220.818,446.568 206.5,447.5C 199.565,447.585 192.899,448.585 186.5,450.5C 172.072,453.526 157.739,457.359 143.5,462C 133.346,465.396 125.013,471.229 118.5,479.5C 117.028,482.269 115.861,485.269 115,488.5C 114.097,489.701 112.931,490.535 111.5,491C 78.5,491.667 45.5,491.667 12.5,491C 10.3333,490.167 8.83333,488.667 8,486.5C 7.50166,483.183 7.33499,479.85 7.5,476.5C 7.23219,474.901 7.56552,473.568 8.5,472.5C 11.0841,468.334 13.4174,464 15.5,459.5C 22.7042,449.962 31.7042,442.629 42.5,437.5C 44.0269,437.573 45.0269,436.906 45.5,435.5C 47.1815,433.992 49.1815,432.992 51.5,432.5C 56.251,431.29 60.5844,429.29 64.5,426.5C 72.7631,422.549 81.4298,419.382 90.5,417C 114.215,410.89 138.215,406.39 162.5,403.5C 165.187,403.664 167.854,403.497 170.5,403C 171.973,402.29 172.64,401.124 172.5,399.5C 172.328,398.508 172.662,397.842 173.5,397.5C 175.213,396.365 175.88,394.698 175.5,392.5C 178.628,387.233 180.961,381.566 182.5,375.5C 187.147,362.06 192.48,348.893 198.5,336C 189.506,335.5 180.506,335.334 171.5,335.5C 171.666,344.506 171.5,353.506 171,362.5C 170.252,364.751 168.752,366.084 166.5,366.5C 153.451,366.796 140.451,366.463 127.5,365.5C 126.542,365.047 125.708,364.381 125,363.5C 124.5,354.173 124.334,344.839 124.5,335.5C 121.813,335.336 119.146,335.503 116.5,336C 117.823,340.6 117.823,345.1 116.5,349.5C 115.069,350.78 114.402,352.447 114.5,354.5C 114.573,356.027 113.906,357.027 112.5,357.5C 111.094,357.973 110.427,358.973 110.5,360.5C 110.158,361.338 109.492,361.672 108.5,361.5C 105.337,363.246 102.004,364.746 98.5,366C 73.8356,366.5 49.1689,366.667 24.5,366.5C 22.4471,366.598 20.7804,365.931 19.5,364.5C 18.7377,362.738 17.4044,361.738 15.5,361.5C 13.3971,358.28 11.0638,355.28 8.5,352.5C 7.73209,351.737 7.23209,350.737 7,349.5C 5.60884,341.936 6.77551,334.936 10.5,328.5C 11.9063,328.027 12.573,327.027 12.5,325.5C 13.9063,325.027 14.573,324.027 14.5,322.5C 16.7488,321.92 18.4154,320.587 19.5,318.5C 19.811,317.522 20.4777,316.855 21.5,316.5C 22.5,255.17 22.8333,193.837 22.5,132.5C 18.8183,132.665 15.1516,132.499 11.5,132C 9.24896,131.252 7.91563,129.752 7.5,127.5C 7.33346,115.162 7.50012,102.829 8,90.5C 8.83333,88.3333 10.3333,86.8333 12.5,86C 18.0158,85.8267 23.3491,85.3267 28.5,84.5C 39.5591,76.7803 50.8924,69.447 62.5,62.5C 66.3918,60.9379 69.7251,58.6046 72.5,55.5C 75.267,55.1298 77.267,53.7964 78.5,51.5C 80.9754,48.7589 83.9754,46.7589 87.5,45.5C 89.0269,45.573 90.0269,44.9063 90.5,43.5C 103.291,34.5984 116.291,25.9317 129.5,17.5C 131.027,17.573 132.027,16.9063 132.5,15.5C 134.027,15.573 135.027,14.9063 135.5,13.5C 137.027,13.573 138.027,12.9063 138.5,11.5C 140.027,11.573 141.027,10.9063 141.5,9.5C 143.027,9.57298 144.027,8.90632 144.5,7.5C 214.5,6.16667 284.5,6.16667 354.5,7.5 Z"/></g>
<g><path style="opacity:0.341" fill="#949494" d="M 144.5,7.5 C 144.027,8.90632 143.027,9.57298 141.5,9.5C 141.973,8.09368 142.973,7.42702 144.5,7.5 Z"/></g>
<g><path style="opacity:0.086" fill="#b0b0b0" d="M 354.5,7.5 C 356.027,7.42702 357.027,8.09368 357.5,9.5C 355.973,9.57298 354.973,8.90632 354.5,7.5 Z"/></g>
<g><path style="opacity:0.349" fill="#898989" d="M 141.5,9.5 C 141.027,10.9063 140.027,11.573 138.5,11.5C 138.973,10.0937 139.973,9.42702 141.5,9.5 Z"/></g>
<g><path style="opacity:0.09" fill="#a5a5a5" d="M 357.5,9.5 C 359.027,9.42702 360.027,10.0937 360.5,11.5C 358.973,11.573 357.973,10.9063 357.5,9.5 Z"/></g>
<g><path style="opacity:0.353" fill="#8a8a8a" d="M 138.5,11.5 C 138.027,12.9063 137.027,13.573 135.5,13.5C 135.973,12.0937 136.973,11.427 138.5,11.5 Z"/></g>
<g><path style="opacity:0.086" fill="#a4a4a4" d="M 360.5,11.5 C 362.027,11.427 363.027,12.0937 363.5,13.5C 361.973,13.573 360.973,12.9063 360.5,11.5 Z"/></g>
<g><path style="opacity:0.361" fill="#8d8d8d" d="M 135.5,13.5 C 135.027,14.9063 134.027,15.573 132.5,15.5C 132.973,14.0937 133.973,13.427 135.5,13.5 Z"/></g>
<g><path style="opacity:0.082" fill="#a3a3a3" d="M 363.5,13.5 C 365.027,13.427 366.027,14.0937 366.5,15.5C 364.973,15.573 363.973,14.9063 363.5,13.5 Z"/></g>
<g><path style="opacity:0.369" fill="#8f8d90" d="M 132.5,15.5 C 132.027,16.9063 131.027,17.573 129.5,17.5C 129.973,16.0937 130.973,15.427 132.5,15.5 Z"/></g>
<g><path style="opacity:0.063" fill="#9e9e9e" d="M 366.5,15.5 C 368.027,15.427 369.027,16.0937 369.5,17.5C 367.973,17.573 366.973,16.9063 366.5,15.5 Z"/></g>
<g><path style="opacity:1" fill="#253141" d="M 148.5,23.5 C 215.501,23.3333 282.501,23.5 349.5,24C 380.35,43.5897 410.684,63.923 440.5,85C 395.167,85.6667 349.833,85.6667 304.5,85C 287.833,72.6667 271.167,60.3333 254.5,48C 251.634,46.5432 248.634,46.2099 245.5,47C 228.321,59.4231 211.321,72.0897 194.5,85C 148.833,85.6667 103.167,85.6667 57.5,85C 88.0108,64.637 118.344,44.137 148.5,23.5 Z"/></g>
<g><path style="opacity:0.004" fill="#e2e2e2" d="M 407.5,42.5 C 409.027,42.427 410.027,43.0937 410.5,44.5C 408.973,44.573 407.973,43.9063 407.5,42.5 Z"/></g>
<g><path style="opacity:0.267" fill="#757575" d="M 90.5,43.5 C 90.0269,44.9063 89.0269,45.573 87.5,45.5C 87.9731,44.0937 88.9731,43.427 90.5,43.5 Z"/></g>
<g><path style="opacity:0.322" fill="#626262" d="M 78.5,51.5 C 77.267,53.7964 75.267,55.1298 72.5,55.5C 74.1475,53.6736 76.1475,52.3403 78.5,51.5 Z"/></g>
<g><path style="opacity:0.345" fill="#707070" d="M 72.5,55.5 C 69.7251,58.6046 66.3918,60.9379 62.5,62.5C 65.2749,59.3954 68.6082,57.0621 72.5,55.5 Z"/></g>
<g><path style="opacity:0.024" fill="#878787" d="M 428.5,56.5 C 429.71,56.9321 430.71,57.5987 431.5,58.5C 429.821,58.7148 428.821,58.0481 428.5,56.5 Z"/></g>
<g><path style="opacity:0.012" fill="#868686" d="M 431.5,58.5 C 432.71,58.9321 433.71,59.5987 434.5,60.5C 432.821,60.7148 431.821,60.0481 431.5,58.5 Z"/></g>
<g><path style="opacity:1" fill="#737e8d" d="M 248.5,63.5 C 279.657,86.4772 310.99,109.311 342.5,132C 330.167,132.667 317.833,132.667 305.5,132C 288.677,119.422 271.677,107.089 254.5,95C 252.577,94.1922 250.577,93.6922 248.5,93.5C 245.43,94.7054 242.43,96.2054 239.5,98C 224.113,109.721 208.446,121.054 192.5,132C 180.5,132.667 168.5,132.667 156.5,132C 187.413,109.389 218.08,86.5561 248.5,63.5 Z"/></g>
<g><path style="opacity:0.145" fill="#d3d3d3" d="M 28.5,84.5 C 23.3491,85.3267 18.0158,85.8267 12.5,86C 10.3333,86.8333 8.83333,88.3333 8,90.5C 7.50012,102.829 7.33346,115.162 7.5,127.5C 6.33996,115.007 6.17329,102.34 7,89.5C 7.83333,87.3333 9.33333,85.8333 11.5,85C 17.1569,84.5006 22.8236,84.3339 28.5,84.5 Z"/></g>
<g><path style="opacity:0.145" fill="#d1d1d1" d="M 469.5,83.5 C 475.419,84.2908 481.419,84.7908 487.5,85C 488.931,85.4652 490.097,86.2986 491,87.5C 492.131,94.3988 492.631,101.399 492.5,108.5C 492.5,115.009 492.166,121.342 491.5,127.5C 491.962,114.401 491.462,101.401 490,88.5C 489.097,87.2986 487.931,86.4652 486.5,86C 480.412,86.1256 474.745,85.2923 469.5,83.5 Z"/></g>
<g><path style="opacity:1" fill="#202935" d="M 170.5,102.5 C 121.67,101.501 72.6695,101.168 23.5,101.5C 23.5,106.5 23.5,111.5 23.5,116.5C 23.1667,116.5 22.8333,116.5 22.5,116.5C 22.5,111.167 22.5,105.833 22.5,100.5C 72.1711,100.167 121.838,100.5 171.5,101.5C 171.376,102.107 171.043,102.44 170.5,102.5 Z"/></g>
<g><path style="opacity:1" fill="#1f2834" d="M 475.5,101.5 C 426.33,101.168 377.33,101.501 328.5,102.5C 327.957,102.44 327.624,102.107 327.5,101.5C 376.998,100.169 426.332,100.169 475.5,101.5 Z"/></g>
<g><path style="opacity:1" fill="#4e5c78" d="M 328.5,102.5 C 377.33,101.501 426.33,101.168 475.5,101.5C 476.487,106.305 476.821,111.305 476.5,116.5C 433.165,116.667 389.832,116.5 346.5,116C 340.623,111.283 334.623,106.783 328.5,102.5 Z"/></g>
<g><path style="opacity:1" fill="#4e5d78" d="M 170.5,102.5 C 164.525,106.481 158.858,110.814 153.5,115.5C 110.209,116.489 66.8758,116.823 23.5,116.5C 23.5,111.5 23.5,106.5 23.5,101.5C 72.6695,101.168 121.67,101.501 170.5,102.5 Z"/></g>
<g><path style="opacity:1" fill="#0b1020" d="M 153.5,115.5 C 132.01,116.833 110.177,117.5 88,117.5C 65.9974,117.5 44.1641,117.167 22.5,116.5C 22.8333,116.5 23.1667,116.5 23.5,116.5C 66.8758,116.823 110.209,116.489 153.5,115.5 Z"/></g>
<g><path style="opacity:1" fill="#868e9b" d="M 248.5,110.5 C 258.775,117.647 269.109,124.814 279.5,132C 259.5,132.667 239.5,132.667 219.5,132C 229.35,124.97 239.016,117.803 248.5,110.5 Z"/></g>
<g><path style="opacity:1" fill="#a7afba" d="M 90.5,281.5 C 88.6965,280.838 86.6965,280.505 84.5,280.5C 81.1864,280.343 78.1864,281.009 75.5,282.5C 61.2739,277.466 49.1072,280.466 39,291.5C 38.5,238.501 38.3333,185.501 38.5,132.5C 68.5019,132.333 98.5019,132.5 128.5,133C 126.951,134.214 125.785,135.714 125,137.5C 124.5,198.166 124.333,258.832 124.5,319.5C 121.5,319.5 118.5,319.5 115.5,319.5C 118.459,303.919 113.126,292.085 99.5,284C 96.6249,282.698 93.6249,281.865 90.5,281.5 Z"/></g>
<g><path style="opacity:1" fill="#a7afba" d="M 369.5,133.5 C 399.662,132.502 429.995,132.169 460.5,132.5C 460.667,185.501 460.5,238.501 460,291.5C 450.028,281.27 438.195,278.27 424.5,282.5C 403.649,277.509 389.816,285.175 383,305.5C 382.352,310.204 382.519,314.871 383.5,319.5C 380.5,319.5 377.5,319.5 374.5,319.5C 374.667,258.832 374.5,198.166 374,137.5C 373.252,135.249 371.752,133.916 369.5,133.5 Z"/></g>
<g><path style="opacity:1" fill="#2a3342" d="M 140.5,148.5 C 213.331,147.501 286.331,147.167 359.5,147.5C 359.821,153.026 359.488,158.36 358.5,163.5C 358.5,158.5 358.5,153.5 358.5,148.5C 285.833,148.5 213.167,148.5 140.5,148.5 Z"/></g>
<g><path style="opacity:1" fill="#040506" d="M 95.5,225.5 C 82.7836,225.795 70.117,225.462 57.5,224.5C 56.0337,223.653 55.2004,222.32 55,220.5C 54.3333,202.167 54.3333,183.833 55,165.5C 62.7452,147.215 75.2452,143.048 92.5,153C 96.1155,156.619 98.9488,160.786 101,165.5C 101.833,184.176 101.666,202.842 100.5,221.5C 99.3954,223.611 97.7288,224.945 95.5,225.5 Z"/></g>
<g><path style="opacity:1" fill="#030304" d="M 443.5,163.5 C 444.449,182.473 444.782,201.473 444.5,220.5C 443.04,222.463 441.373,224.296 439.5,226C 427.167,226.667 414.833,226.667 402.5,226C 400.93,224.603 399.596,223.103 398.5,221.5C 398.333,203.497 398.5,185.497 399,167.5C 399.977,165.26 400.477,162.927 400.5,160.5C 406.873,149.822 416.206,145.989 428.5,149C 435.35,152.018 440.35,156.851 443.5,163.5 Z"/></g>
<g><path style="opacity:1" fill="#4e5d79" d="M 140.5,148.5 C 213.167,148.5 285.833,148.5 358.5,148.5C 358.5,153.5 358.5,158.5 358.5,163.5C 285.833,163.5 213.167,163.5 140.5,163.5C 140.5,158.5 140.5,153.5 140.5,148.5 Z"/></g>
<g><path style="opacity:1" fill="#dfddd7" d="M 418.5,163.5 C 423.152,162.984 426.652,164.651 429,168.5C 429.5,182.496 429.667,196.496 429.5,210.5C 424.167,210.5 418.833,210.5 413.5,210.5C 413.333,196.496 413.5,182.496 414,168.5C 415.025,166.313 416.525,164.646 418.5,163.5 Z"/></g>
<g><path style="opacity:1" fill="#e0ddd7" d="M 74.5,163.5 C 79.2797,162.641 82.7797,164.308 85,168.5C 85.4999,182.496 85.6666,196.496 85.5,210.5C 80.1667,210.5 74.8333,210.5 69.5,210.5C 69.3334,196.496 69.5001,182.496 70,168.5C 71.025,166.313 72.525,164.646 74.5,163.5 Z"/></g>
<g><path style="opacity:1" fill="#72787e" d="M 443.5,163.5 C 444.222,163.918 444.722,164.584 445,165.5C 445.829,184.005 445.662,202.338 444.5,220.5C 444.782,201.473 444.449,182.473 443.5,163.5 Z"/></g>
<g><path style="opacity:1" fill="#494d54" d="M 400.5,160.5 C 400.477,162.927 399.977,165.26 399,167.5C 398.5,185.497 398.333,203.497 398.5,221.5C 397.338,203.005 397.171,184.338 398,165.5C 398.757,163.685 399.59,162.019 400.5,160.5 Z"/></g>
<g><path style="opacity:1" fill="#e5e3dd" d="M 140.5,179.5 C 145.5,179.5 150.5,179.5 155.5,179.5C 155.5,236.833 155.5,294.167 155.5,351.5C 150.5,351.5 145.5,351.5 140.5,351.5C 140.5,294.167 140.5,236.833 140.5,179.5 Z"/></g>
<g><path style="opacity:1" fill="#e6e3dc" d="M 343.5,179.5 C 348.5,179.5 353.5,179.5 358.5,179.5C 358.5,236.833 358.5,294.167 358.5,351.5C 353.5,351.5 348.5,351.5 343.5,351.5C 343.5,294.167 343.5,236.833 343.5,179.5 Z"/></g>
<g><path style="opacity:1" fill="#a7afba" d="M 327.5,319.5 C 322.5,319.5 317.5,319.5 312.5,319.5C 312.831,295.328 312.498,271.328 311.5,247.5C 304.742,217.411 286.076,200.078 255.5,195.5C 253.022,194.836 250.355,194.503 247.5,194.5C 243.223,194.337 239.223,195.003 235.5,196.5C 214.372,201.625 199.705,214.292 191.5,234.5C 189.135,238.424 187.635,242.757 187,247.5C 186.5,271.498 186.333,295.498 186.5,319.5C 181.5,319.5 176.5,319.5 171.5,319.5C 171.5,272.833 171.5,226.167 171.5,179.5C 223.5,179.5 275.5,179.5 327.5,179.5C 327.5,226.167 327.5,272.833 327.5,319.5 Z"/></g>
<g><path style="opacity:1" fill="#3b3e42" d="M 255.5,195.5 C 248.82,195.612 242.153,195.946 235.5,196.5C 239.223,195.003 243.223,194.337 247.5,194.5C 250.355,194.503 253.022,194.836 255.5,195.5 Z"/></g>
<g><path style="opacity:1" fill="#4a4e53" d="M 57.5,224.5 C 70.117,225.462 82.7836,225.795 95.5,225.5C 83.3403,226.66 71.0069,226.827 58.5,226C 57.944,225.617 57.6107,225.117 57.5,224.5 Z"/></g>
<g><path style="opacity:1" fill="#868f9c" d="M 242.5,210.5 C 270.669,209.521 288.502,222.521 296,249.5C 296.5,272.831 296.667,296.164 296.5,319.5C 291.167,319.5 285.833,319.5 280.5,319.5C 280.667,296.498 280.5,273.498 280,250.5C 275.146,235.003 264.479,227.003 248,226.5C 232.661,227.496 222.994,235.496 219,250.5C 218.5,273.498 218.333,296.498 218.5,319.5C 213.167,319.5 207.833,319.5 202.5,319.5C 202.333,296.164 202.5,272.831 203,249.5C 208.165,228.167 221.332,215.167 242.5,210.5 Z"/></g>
<g><path style="opacity:1" fill="#e3e0d9" d="M 264.5,319.5 C 254.5,319.5 244.5,319.5 234.5,319.5C 234.5,297.167 234.5,274.833 234.5,252.5C 239.936,240.928 248.269,238.428 259.5,245C 262.106,246.938 263.939,249.438 265,252.5C 265.83,275.004 265.663,297.337 264.5,319.5 Z"/></g>
<g><path style="opacity:1" fill="#50535c" d="M 191.5,234.5 C 189.83,239.689 188.663,245.022 188,250.5C 187.832,273.67 187.332,296.67 186.5,319.5C 186.333,295.498 186.5,271.498 187,247.5C 187.635,242.757 189.135,238.424 191.5,234.5 Z"/></g>
<g><path style="opacity:1" fill="#4e5256" d="M 311.5,247.5 C 312.498,271.328 312.831,295.328 312.5,319.5C 317.5,319.5 322.5,319.5 327.5,319.5C 322.36,320.488 317.026,320.821 311.5,320.5C 311.5,296.167 311.5,271.833 311.5,247.5 Z"/></g>
<g><path style="opacity:1" fill="#353a3f" d="M 90.5,281.5 C 85.4635,281.413 80.4635,281.746 75.5,282.5C 78.1864,281.009 81.1864,280.343 84.5,280.5C 86.6965,280.505 88.6965,280.838 90.5,281.5 Z"/></g>
<g><path style="opacity:1" fill="#75a55e" d="M 443.5,298.5 C 439.818,298.335 436.152,298.501 432.5,299C 429.991,300.336 427.324,301.17 424.5,301.5C 421.758,300.386 418.925,299.386 416,298.5C 411.228,300.068 406.395,301.401 401.5,302.5C 404.367,298.055 408.533,296.055 414,296.5C 417.634,297.433 421.301,298.433 425,299.5C 428.247,297.785 431.747,296.785 435.5,296.5C 438.486,296.382 441.152,297.048 443.5,298.5 Z"/></g>
<g><path style="opacity:1" fill="#78b55c" d="M 76.5,299.5 C 80.8076,298.632 85.141,298.466 89.5,299C 91.5159,300.028 92.5159,301.695 92.5,304C 91.7731,313.202 89.6064,322.035 86,330.5C 81.6657,337.646 76.8323,344.313 71.5,350.5C 57.496,350.667 43.496,350.5 29.5,350C 25.1738,346.629 23.5071,342.129 24.5,336.5C 28.2806,329.44 34.2806,326.273 42.5,327C 44.286,326.215 45.786,325.049 47,323.5C 47.5404,319.649 47.3738,315.815 46.5,312C 46.8887,302.613 51.7221,297.446 61,296.5C 66.1591,297.67 71.3258,298.67 76.5,299.5 Z"/></g>
<g><path style="opacity:1" fill="#78b65c" d="M 443.5,298.5 C 445.23,299.026 446.564,300.026 447.5,301.5C 450.725,307.86 451.391,314.526 449.5,321.5C 446.535,328.093 443.035,334.426 439,340.5C 435.984,343.349 433.15,346.349 430.5,349.5C 421.22,350.473 411.887,350.807 402.5,350.5C 400.973,350.573 399.973,349.906 399.5,348.5C 398.38,344.528 398.38,340.528 399.5,336.5C 401.622,333.916 402.956,330.916 403.5,327.5C 402.343,323.198 400.676,319.198 398.5,315.5C 398.121,310.784 399.121,306.45 401.5,302.5C 406.395,301.401 411.228,300.068 416,298.5C 418.925,299.386 421.758,300.386 424.5,301.5C 427.324,301.17 429.991,300.336 432.5,299C 436.152,298.501 439.818,298.335 443.5,298.5 Z"/></g>
<g><path style="opacity:1" fill="#3a5b2b" d="M 401.5,302.5 C 399.121,306.45 398.121,310.784 398.5,315.5C 397.366,313.034 397.199,310.367 398,307.5C 398.223,305.119 399.39,303.453 401.5,302.5 Z"/></g>
<g><path style="opacity:1" fill="#50703e" d="M 98.5,303.5 C 100.894,305.332 101.894,307.832 101.5,311C 101.727,314.358 100.727,317.191 98.5,319.5C 99.7044,314.144 99.7044,308.811 98.5,303.5 Z"/></g>
<g><path style="opacity:1" fill="#62615e" d="M 234.5,252.5 C 234.5,274.833 234.5,297.167 234.5,319.5C 244.5,319.5 254.5,319.5 264.5,319.5C 254.347,320.494 244.014,320.828 233.5,320.5C 233.169,297.661 233.503,274.994 234.5,252.5 Z"/></g>
<g><path style="opacity:0.475" fill="#646466" d="M 19.5,318.5 C 18.4154,320.587 16.7488,321.92 14.5,322.5C 15.5846,320.413 17.2512,319.08 19.5,318.5 Z"/></g>
<g><path style="opacity:0.22" fill="#8a8a8a" d="M 14.5,322.5 C 14.573,324.027 13.9063,325.027 12.5,325.5C 12.427,323.973 13.0937,322.973 14.5,322.5 Z"/></g>
<g><path style="opacity:0.196" fill="#9b9b9b" d="M 12.5,325.5 C 12.573,327.027 11.9063,328.027 10.5,328.5C 10.427,326.973 11.0937,325.973 12.5,325.5 Z"/></g>
<g><path style="opacity:1" fill="#62984c" d="M 449.5,321.5 C 450.451,322.919 450.784,324.585 450.5,326.5C 452.681,326.284 454.347,327.117 455.5,329C 467.929,328.507 474.262,334.34 474.5,346.5C 474.288,348.384 473.288,349.717 471.5,350.5C 448.337,351.829 425.337,351.829 402.5,350.5C 411.887,350.807 421.22,350.473 430.5,349.5C 433.15,346.349 435.984,343.349 439,340.5C 443.035,334.426 446.535,328.093 449.5,321.5 Z"/></g>
<g><path style="opacity:1" fill="#669d50" d="M 98.5,303.5 C 99.7044,308.811 99.7044,314.144 98.5,319.5C 97.4706,321.517 96.4706,323.517 95.5,325.5C 94.5233,328.287 94.19,331.287 94.5,334.5C 95.5,334.5 96.5,334.5 97.5,334.5C 98.3163,339.541 98.3163,344.541 97.5,349.5C 97.1583,350.338 96.4916,350.672 95.5,350.5C 87.5,350.5 79.5,350.5 71.5,350.5C 76.8323,344.313 81.6657,337.646 86,330.5C 89.6064,322.035 91.7731,313.202 92.5,304C 92.5159,301.695 91.5159,300.028 89.5,299C 85.141,298.466 80.8076,298.632 76.5,299.5C 77.0577,298.21 78.0577,297.377 79.5,297C 87.3017,295.249 93.635,297.416 98.5,303.5 Z"/></g>
<g><path style="opacity:1" fill="#60894e" d="M 447.5,301.5 C 449.504,302.673 451.004,304.34 452,306.5C 452.073,312.171 452.073,317.838 452,323.5C 453.167,324.667 454.333,325.833 455.5,327C 463.024,326.198 469.19,328.698 474,334.5C 476.88,338.687 477.046,342.687 474.5,346.5C 474.262,334.34 467.929,328.507 455.5,329C 454.347,327.117 452.681,326.284 450.5,326.5C 450.784,324.585 450.451,322.919 449.5,321.5C 451.391,314.526 450.725,307.86 447.5,301.5 Z"/></g>
<g><path style="opacity:1" fill="#d4cec2" d="M 306.5,393.5 C 306.357,395.262 306.691,396.929 307.5,398.5C 305.604,399.466 303.604,399.799 301.5,399.5C 294.809,399.546 288.143,399.212 281.5,398.5C 253.636,397.013 225.636,397.346 197.5,399.5C 195.5,399.167 193.5,398.833 191.5,398.5C 192.309,396.929 192.643,395.262 192.5,393.5C 199.877,374.408 207.544,355.408 215.5,336.5C 238.399,335.173 261.232,335.173 284,336.5C 291.513,355.521 299.013,374.521 306.5,393.5 Z"/></g>
<g><path style="opacity:1" fill="#587d47" d="M 95.5,325.5 C 95.3385,329.844 96.8385,333.511 100,336.5C 101.405,340.072 101.738,343.739 101,347.5C 99.8873,348.305 98.7206,348.972 97.5,349.5C 98.3163,344.541 98.3163,339.541 97.5,334.5C 96.5,334.5 95.5,334.5 94.5,334.5C 94.19,331.287 94.5233,328.287 95.5,325.5 Z"/></g>
<g><path style="opacity:0.38" fill="#5a5a5a" d="M 300.5,336.5 C 302.293,338.426 303.293,340.759 303.5,343.5C 301.707,341.574 300.707,339.241 300.5,336.5 Z"/></g>
<g><path style="opacity:1" fill="#385127" d="M 399.5,336.5 C 398.38,340.528 398.38,344.528 399.5,348.5C 398.883,348.389 398.383,348.056 398,347.5C 397.833,346 397.667,344.5 397.5,343C 397.336,340.456 398.003,338.29 399.5,336.5 Z"/></g>
<g><path style="opacity:1" fill="#456b34" d="M 24.5,336.5 C 23.5071,342.129 25.1738,346.629 29.5,350C 43.496,350.5 57.496,350.667 71.5,350.5C 79.5,350.5 87.5,350.5 95.5,350.5C 73.0037,351.663 50.3371,351.83 27.5,351C 22.1504,347.013 21.1504,342.179 24.5,336.5 Z"/></g>
<g><path style="opacity:0.153" fill="#b2b2b2" d="M 116.5,349.5 C 116.598,351.553 115.931,353.22 114.5,354.5C 114.402,352.447 115.069,350.78 116.5,349.5 Z"/></g>
<g><path style="opacity:0.141" fill="#acacac" d="M 8.5,352.5 C 11.0638,355.28 13.3971,358.28 15.5,361.5C 13.9826,361.489 12.8159,360.823 12,359.5C 10.295,357.423 9.12835,355.09 8.5,352.5 Z"/></g>
<g><path style="opacity:0.024" fill="#bcbcbc" d="M 384.5,354.5 C 385.906,354.973 386.573,355.973 386.5,357.5C 385.094,357.027 384.427,356.027 384.5,354.5 Z"/></g>
<g><path style="opacity:0.024" fill="#b2b2b2" d="M 489.5,354.5 C 488.89,356.434 487.89,358.101 486.5,359.5C 486.273,357.067 487.273,355.401 489.5,354.5 Z"/></g>
<g><path style="opacity:0.004" fill="#cecece" d="M 112.5,357.5 C 112.573,359.027 111.906,360.027 110.5,360.5C 110.427,358.973 111.094,357.973 112.5,357.5 Z"/></g>
<g><path style="opacity:0.004" fill="#c1c1c1" d="M 386.5,357.5 C 388.167,358.5 389.5,359.833 390.5,361.5C 388.167,361.167 386.833,359.833 386.5,357.5 Z"/></g>
<g><path style="opacity:0.482" fill="#979797" d="M 15.5,361.5 C 17.4044,361.738 18.7377,362.738 19.5,364.5C 17.5956,364.262 16.2623,363.262 15.5,361.5 Z"/></g>
<g><path style="opacity:0.486" fill="#939393" d="M 390.5,361.5 C 392.404,361.738 393.738,362.738 394.5,364.5C 392.596,364.262 391.262,363.262 390.5,361.5 Z"/></g>
<g><path style="opacity:0.573" fill="#767676" d="M 394.5,364.5 C 396.698,364.12 398.365,364.787 399.5,366.5C 397.447,366.598 395.78,365.931 394.5,364.5 Z"/></g>
<g><path style="opacity:0.094" fill="#bebebe" d="M 479.5,364.5 C 478.22,365.931 476.553,366.598 474.5,366.5C 475.78,365.069 477.447,364.402 479.5,364.5 Z"/></g>
<g><path style="opacity:0.145" fill="#cacaca" d="M 108.5,361.5 C 106.2,364.324 103.2,366.157 99.5,367C 74.33,367.83 49.33,367.663 24.5,366.5C 49.1689,366.667 73.8356,366.5 98.5,366C 102.004,364.746 105.337,363.246 108.5,361.5 Z"/></g>
<g><path style="opacity:0.145" fill="#cecece" d="M 127.5,365.5 C 140.451,366.463 153.451,366.796 166.5,366.5C 154.007,367.66 141.34,367.827 128.5,367C 127.944,366.617 127.611,366.117 127.5,365.5 Z"/></g>
<g><path style="opacity:0.145" fill="#cecece" d="M 371.5,365.5 C 371.389,366.117 371.056,366.617 370.5,367C 357.66,367.827 344.993,367.66 332.5,366.5C 345.549,366.796 358.549,366.463 371.5,365.5 Z"/></g>
<g><path style="opacity:0.145" fill="#b1b1b1" d="M 316.5,375.5 C 318.931,379.111 320.597,383.111 321.5,387.5C 319.069,383.889 317.403,379.889 316.5,375.5 Z"/></g>
<g><path style="opacity:0.09" fill="#b0b0b0" d="M 182.5,375.5 C 180.961,381.566 178.628,387.233 175.5,392.5C 177.039,386.434 179.372,380.767 182.5,375.5 Z"/></g>
<g><path style="opacity:0.09" fill="#c5c5c5" d="M 321.5,387.5 C 322.931,388.78 323.598,390.447 323.5,392.5C 322.069,391.22 321.402,389.553 321.5,387.5 Z"/></g>
<g><path style="opacity:0.573" fill="#7e7e7e" d="M 175.5,392.5 C 175.88,394.698 175.213,396.365 173.5,397.5C 173.402,395.447 174.069,393.78 175.5,392.5 Z"/></g>
<g><path style="opacity:0.561" fill="#777777" d="M 323.5,392.5 C 324.931,393.78 325.598,395.447 325.5,397.5C 323.787,396.365 323.12,394.698 323.5,392.5 Z"/></g>
<g><path style="opacity:1" fill="#736f69" d="M 192.5,393.5 C 192.643,395.262 192.309,396.929 191.5,398.5C 193.5,398.833 195.5,399.167 197.5,399.5C 225.636,397.346 253.636,397.013 281.5,398.5C 253.303,398.076 225.137,398.742 197,400.5C 188.932,401.662 187.432,399.329 192.5,393.5 Z"/></g>
<g><path style="opacity:1" fill="#84827d" d="M 306.5,393.5 C 311.035,399.858 309.368,401.858 301.5,399.5C 303.604,399.799 305.604,399.466 307.5,398.5C 306.691,396.929 306.357,395.262 306.5,393.5 Z"/></g>
<g><path style="opacity:0.37" fill="#696969" d="M 172.5,399.5 C 172.64,401.124 171.973,402.29 170.5,403C 167.854,403.497 165.187,403.664 162.5,403.5C 164.631,402.686 166.964,402.186 169.5,402C 170.691,401.302 171.691,400.469 172.5,399.5 Z"/></g>
<g><path style="opacity:0.504" fill="#626262" d="M 326.5,399.5 C 327.309,400.469 328.309,401.302 329.5,402C 332.365,402.183 335.031,402.683 337.5,403.5C 334.482,403.665 331.482,403.498 328.5,403C 327.027,402.29 326.36,401.124 326.5,399.5 Z"/></g>
<g><path style="opacity:0.722" fill="#414141" d="M 362.5,407.5 C 367.794,407.625 372.794,408.625 377.5,410.5C 372.256,410.118 367.256,409.118 362.5,407.5 Z"/></g>
<g><path style="opacity:1" fill="#96928a" d="M 273.5,414.5 C 248.825,414.381 224.158,414.714 199.5,415.5C 214.305,414.016 229.305,413.35 244.5,413.5C 254.339,413.5 264.006,413.834 273.5,414.5 Z"/></g>
<g><path style="opacity:1" fill="#c8c0b4" d="M 273.5,414.5 C 326.294,415.243 377.627,424.076 427.5,441C 439.917,446.374 451.583,453.041 462.5,461C 467.16,464.813 470.827,469.313 473.5,474.5C 448.005,475.498 422.339,475.831 396.5,475.5C 392.869,468.024 387.536,461.857 380.5,457C 372.138,451.984 363.472,447.818 354.5,444.5C 349.218,441.854 343.552,440.187 337.5,439.5C 324.847,436.947 312.181,434.614 299.5,432.5C 296.35,431.293 293.016,430.293 289.5,429.5C 292.434,426.45 291.768,425.283 287.5,426C 290.167,426.667 290.167,427.333 287.5,428C 287.833,428.333 288.167,428.667 288.5,429C 267.005,428.419 245.672,428.586 224.5,429.5C 218.234,430.368 211.9,431.035 205.5,431.5C 198.264,432.373 191.097,432.373 184,431.5C 182.804,433.286 181.304,434.619 179.5,435.5C 171.903,436.589 164.569,438.255 157.5,440.5C 152.297,441.009 147.63,442.676 143.5,445.5C 128.761,449.456 116.261,457.122 106,468.5C 105.109,471.03 103.942,473.363 102.5,475.5C 76.6612,475.831 50.9946,475.498 25.5,474.5C 29.2196,467.942 34.2196,462.442 40.5,458C 59.3518,445.545 79.6852,436.545 101.5,431C 133.727,423.055 166.394,417.888 199.5,415.5C 224.158,414.714 248.825,414.381 273.5,414.5 Z"/></g>
<g><path style="opacity:0.137" fill="#a3a3a3" d="M 434.5,426.5 C 438.582,427.376 442.249,429.043 445.5,431.5C 441.418,430.624 437.751,428.957 434.5,426.5 Z"/></g>
<g><path style="opacity:1" fill="#908b84" d="M 299.5,432.5 C 274.56,430.117 249.56,429.117 224.5,429.5C 245.672,428.586 267.005,428.419 288.5,429C 288.167,428.667 287.833,428.333 287.5,428C 290.167,427.333 290.167,426.667 287.5,426C 291.768,425.283 292.434,426.45 289.5,429.5C 293.016,430.293 296.35,431.293 299.5,432.5 Z"/></g>
<g><path style="opacity:0.224" fill="#979797" d="M 64.5,426.5 C 60.5844,429.29 56.251,431.29 51.5,432.5C 55.4156,429.71 59.749,427.71 64.5,426.5 Z"/></g>
<g><path style="opacity:1" fill="#8c867e" d="M 205.5,431.5 C 196.978,432.941 188.311,434.275 179.5,435.5C 181.304,434.619 182.804,433.286 184,431.5C 191.097,432.373 198.264,432.373 205.5,431.5 Z"/></g>
<g><path style="opacity:0.502" fill="#7c7c7c" d="M 45.5,435.5 C 45.0269,436.906 44.0269,437.573 42.5,437.5C 42.9731,436.094 43.9731,435.427 45.5,435.5 Z"/></g>
<g><path style="opacity:0.227" fill="#878787" d="M 453.5,435.5 C 455.027,435.427 456.027,436.094 456.5,437.5C 454.973,437.573 453.973,436.906 453.5,435.5 Z"/></g>
<g><path style="opacity:1" fill="#5f5b54" d="M 337.5,439.5 C 343.552,440.187 349.218,441.854 354.5,444.5C 348.567,443.408 342.9,441.741 337.5,439.5 Z"/></g>
<g><path style="opacity:1" fill="#48453f" d="M 157.5,440.5 C 153.06,442.538 148.393,444.204 143.5,445.5C 147.63,442.676 152.297,441.009 157.5,440.5 Z"/></g>
<g><path style="opacity:0.186" fill="#b7b7b7" d="M 292.5,447.5 C 297.731,447.444 302.731,448.111 307.5,449.5C 302.269,449.556 297.269,448.889 292.5,447.5 Z"/></g>
<g><path style="opacity:0.055" fill="#c8c8c8" d="M 206.5,447.5 C 200.047,449.042 193.38,450.042 186.5,450.5C 192.899,448.585 199.565,447.585 206.5,447.5 Z"/></g>
<g><path style="opacity:0.243" fill="#afafaf" d="M 483.5,459.5 C 486.164,461.484 487.831,464.151 488.5,467.5C 486.336,465.178 484.669,462.511 483.5,459.5 Z"/></g>
<g><path style="opacity:0.18" fill="#aeaeae" d="M 15.5,459.5 C 13.4174,464 11.0841,468.334 8.5,472.5C 9.54596,467.404 11.8793,463.071 15.5,459.5 Z"/></g>
<g><path style="opacity:0.533" fill="#777777" d="M 373.5,471.5 C 377.18,473.18 379.847,475.847 381.5,479.5C 381.167,479.5 380.833,479.5 380.5,479.5C 378.196,476.859 375.862,474.192 373.5,471.5 Z"/></g>
<g><path style="opacity:0.078" fill="#bababa" d="M 488.5,467.5 C 490.472,470.084 491.472,473.084 491.5,476.5C 489.928,473.785 488.928,470.785 488.5,467.5 Z"/></g>
<g><path style="opacity:1" fill="#716d67" d="M 25.5,474.5 C 50.9946,475.498 76.6612,475.831 102.5,475.5C 76.6636,476.829 50.6636,476.829 24.5,475.5C 24.6236,474.893 24.9569,474.56 25.5,474.5 Z"/></g>
<g><path style="opacity:1" fill="#716c66" d="M 473.5,474.5 C 474.043,474.56 474.376,474.893 474.5,475.5C 448.336,476.829 422.336,476.829 396.5,475.5C 422.339,475.831 448.005,475.498 473.5,474.5 Z"/></g>
<g><path style="opacity:0.145" fill="#cdcdcd" d="M 7.5,476.5 C 7.33499,479.85 7.50166,483.183 8,486.5C 8.83333,488.667 10.3333,490.167 12.5,491C 45.5,491.667 78.5,491.667 111.5,491C 112.931,490.535 114.097,489.701 115,488.5C 115.861,485.269 117.028,482.269 118.5,479.5C 118.067,482.166 117.567,484.832 117,487.5C 116.167,489.667 114.667,491.167 112.5,492C 78.8333,492.667 45.1667,492.667 11.5,492C 9.33333,491.167 7.83333,489.667 7,487.5C 6.19007,483.642 6.35673,479.976 7.5,476.5 Z"/></g>
<g><path style="opacity:0.145" fill="#cdcdcd" d="M 491.5,476.5 C 492.643,479.976 492.81,483.642 492,487.5C 491.167,489.667 489.667,491.167 487.5,492C 453.833,492.667 420.167,492.667 386.5,492C 384.333,491.167 382.833,489.667 382,487.5C 381.433,484.832 380.933,482.166 380.5,479.5C 380.833,479.5 381.167,479.5 381.5,479.5C 381.385,484.529 383.385,488.363 387.5,491C 420.5,491.667 453.5,491.667 486.5,491C 488.667,490.167 490.167,488.667 491,486.5C 491.498,483.183 491.665,479.85 491.5,476.5 Z"/></g>
</svg>
