<?xml version="1.0" encoding="UTF-8"?>
<!DOCTYPE svg PUBLIC "-//W3C//DTD SVG 1.1//EN" "http://www.w3.org/Graphics/SVG/1.1/DTD/svg11.dtd">
<svg xmlns="http://www.w3.org/2000/svg" version="1.1" width="500px" height="500px" style="shape-rendering:geometricPrecision; text-rendering:geometricPrecision; image-rendering:optimizeQuality; fill-rule:evenodd; clip-rule:evenodd" xmlns:xlink="http://www.w3.org/1999/xlink">
<g><path style="opacity:0.997" fill="#090909" d="M 291.5,64.5 C 290.167,65.1667 289.167,66.1667 288.5,67.5C 287.033,67.8938 285.533,68.2272 284,68.5C 278.687,66.2955 273.187,64.6288 267.5,63.5C 266.833,63.8333 266.167,64.1667 265.5,64.5C 272.859,75.5178 280.193,86.5178 287.5,97.5C 296.652,98.4936 305.985,98.8269 315.5,98.5C 315.737,97.209 315.404,96.209 314.5,95.5C 313.557,92.8908 311.89,90.8908 309.5,89.5C 305.548,85.5264 304.548,80.8598 306.5,75.5C 306.918,74.7784 307.584,74.2784 308.5,74C 311.167,73.3333 313.833,73.3333 316.5,74C 320.085,77.0781 323.085,80.5781 325.5,84.5C 325.427,86.0269 326.094,87.0269 327.5,87.5C 327.427,89.0269 328.094,90.0269 329.5,90.5C 336.932,103.127 341.599,116.793 343.5,131.5C 369.145,133.491 395.145,134.158 421.5,133.5C 422.045,135.593 422.878,137.593 424,139.5C 424.17,150.008 424.67,160.341 425.5,170.5C 424.772,172.735 423.439,174.568 421.5,176C 416.599,177.325 411.599,177.825 406.5,177.5C 405.505,188.321 405.172,199.321 405.5,210.5C 435.5,210.5 465.5,210.5 495.5,210.5C 497.062,210.733 498.395,211.4 499.5,212.5C 499.5,225.167 499.5,237.833 499.5,250.5C 498.025,252.41 496.025,253.576 493.5,254C 489.514,254.499 485.514,254.666 481.5,254.5C 481.5,305.833 481.5,357.167 481.5,408.5C 486.179,408.334 490.845,408.501 495.5,409C 496.984,409.662 498.317,410.496 499.5,411.5C 499.5,424.167 499.5,436.833 499.5,449.5C 497.99,450.836 496.323,452.003 494.5,453C 397.833,453.667 301.167,453.667 204.5,453C 201.466,451.809 199.799,449.642 199.5,446.5C 198.822,442.727 200.156,439.894 203.5,438C 297.166,437.5 390.833,437.333 484.5,437.5C 484.5,432.833 484.5,428.167 484.5,423.5C 327.833,423.5 171.167,423.5 14.5,423.5C 14.5,428.167 14.5,432.833 14.5,437.5C 68.1677,437.333 121.834,437.5 175.5,438C 177.041,439.371 178.375,440.871 179.5,442.5C 179.425,445.206 179.092,447.873 178.5,450.5C 177.942,451.79 176.942,452.623 175.5,453C 118.5,453.667 61.5,453.667 4.5,453C 2.67694,452.003 1.01027,450.836 -0.5,449.5C -0.5,436.833 -0.5,424.167 -0.5,411.5C 0.682751,410.496 2.01608,409.662 3.5,409C 8.1548,408.501 12.8215,408.334 17.5,408.5C 17.5,357.167 17.5,305.833 17.5,254.5C 13.4862,254.666 9.48617,254.499 5.5,254C 2.97457,253.576 0.97457,252.41 -0.5,250.5C -0.5,237.833 -0.5,225.167 -0.5,212.5C 1.52743,210.82 3.86077,209.653 6.5,209C 17.8626,208.279 29.1959,208.612 40.5,210C 42.607,211.264 43.607,213.097 43.5,215.5C 43.8879,220.109 41.8879,223.109 37.5,224.5C 29.5,224.5 21.5,224.5 13.5,224.5C 13.1805,229.363 13.5139,234.03 14.5,238.5C 40.6614,239.498 66.9947,239.831 93.5,239.5C 93.5,234.5 93.5,229.5 93.5,224.5C 84.8333,224.5 76.1667,224.5 67.5,224.5C 63.9088,222.218 62.5755,218.884 63.5,214.5C 64.4785,211.029 66.8118,209.195 70.5,209C 77.8239,208.943 85.1572,209.109 92.5,209.5C 92.5,198.833 92.5,188.167 92.5,177.5C 88.4862,177.666 84.4862,177.499 80.5,177C 78.1523,176.654 76.3189,175.487 75,173.5C 73.3982,161.905 73.0648,150.238 74,138.5C 74.2004,136.68 75.0337,135.347 76.5,134.5C 102.488,133.824 128.488,133.158 154.5,132.5C 154.833,132.5 155.167,132.5 155.5,132.5C 157.011,129.456 157.678,126.122 157.5,122.5C 159.285,110.942 163.285,100.276 169.5,90.5C 170.906,90.0269 171.573,89.0269 171.5,87.5C 172.906,87.0269 173.573,86.0269 173.5,84.5C 176.792,79.5399 180.792,75.2066 185.5,71.5C 187.749,70.9202 189.415,69.5869 190.5,67.5C 192.749,66.9202 194.415,65.5869 195.5,63.5C 199.323,60.0843 203.657,57.4176 208.5,55.5C 210.553,55.5979 212.22,54.9313 213.5,53.5C 238.93,42.4825 264.263,42.9825 289.5,55C 291.227,57.9036 291.893,61.0703 291.5,64.5 Z"/></g>
<g><path style="opacity:0.141" fill="#a2a2a2" d="M 213.5,53.5 C 212.22,54.9313 210.553,55.5979 208.5,55.5C 209.78,54.0687 211.447,53.4021 213.5,53.5 Z"/></g>
<g><path style="opacity:0.522" fill="#615f61" d="M 195.5,63.5 C 194.415,65.5869 192.749,66.9202 190.5,67.5C 191.585,65.4131 193.251,64.0798 195.5,63.5 Z"/></g>
<g><path style="opacity:0.784" fill="#b8ceab" d="M 291.5,64.5 C 297.342,67.0078 302.342,70.6745 306.5,75.5C 304.548,80.8598 305.548,85.5264 309.5,89.5C 308.5,89.5 307.5,89.5 306.5,89.5C 305.145,84.562 303.978,79.562 303,74.5C 300.131,71.9755 296.964,69.8089 293.5,68C 291.866,67.5065 290.199,67.3398 288.5,67.5C 289.167,66.1667 290.167,65.1667 291.5,64.5 Z"/></g>
<g><path style="opacity:0.549" fill="#555555" d="M 190.5,67.5 C 189.415,69.5869 187.749,70.9202 185.5,71.5C 186.585,69.4131 188.251,68.0798 190.5,67.5 Z"/></g>
<g><path style="opacity:1" fill="#b9dba9" d="M 288.5,67.5 C 288.586,68.4959 288.252,69.3292 287.5,70C 285.863,70.6012 284.197,71.1012 282.5,71.5C 279.869,70.4467 277.202,69.9467 274.5,70C 275.249,71.7337 275.749,73.567 276,75.5C 277,76.1667 278,76.8333 279,77.5C 279.977,73.5606 282.311,72.5606 286,74.5C 286.127,75.7766 285.627,76.9433 284.5,78C 285.783,79.1357 286.783,80.469 287.5,82C 287.167,82.5 286.833,83 286.5,83.5C 283.078,80.7104 282.411,80.877 284.5,84C 282.415,85.5264 282.415,87.3598 284.5,89.5C 287.635,90.7667 288.968,93.1 288.5,96.5C 296.174,96.6664 303.841,96.4997 311.5,96C 309.771,94.2111 309.104,92.0444 309.5,89.5C 311.89,90.8908 313.557,92.8908 314.5,95.5C 305.895,97.4711 296.895,98.1377 287.5,97.5C 280.193,86.5178 272.859,75.5178 265.5,64.5C 266.167,64.1667 266.833,63.8333 267.5,63.5C 273.187,64.6288 278.687,66.2955 284,68.5C 285.533,68.2272 287.033,67.8938 288.5,67.5 Z"/></g>
<g><path style="opacity:1" fill="#c0e7ae" d="M 288.5,67.5 C 290.199,67.3398 291.866,67.5065 293.5,68C 296.964,69.8089 300.131,71.9755 303,74.5C 303.978,79.562 305.145,84.562 306.5,89.5C 307.5,89.5 308.5,89.5 309.5,89.5C 309.104,92.0444 309.771,94.2111 311.5,96C 303.841,96.4997 296.174,96.6664 288.5,96.5C 288.968,93.1 287.635,90.7667 284.5,89.5C 282.415,87.3598 282.415,85.5264 284.5,84C 282.411,80.877 283.078,80.7104 286.5,83.5C 286.833,83 287.167,82.5 287.5,82C 286.783,80.469 285.783,79.1357 284.5,78C 285.627,76.9433 286.127,75.7766 286,74.5C 282.311,72.5606 279.977,73.5606 279,77.5C 278,76.8333 277,76.1667 276,75.5C 275.749,73.567 275.249,71.7337 274.5,70C 277.202,69.9467 279.869,70.4467 282.5,71.5C 284.197,71.1012 285.863,70.6012 287.5,70C 288.252,69.3292 288.586,68.4959 288.5,67.5 Z"/></g>
<g><path style="opacity:1" fill="#bbdfab" d="M 211.5,97.5 C 202.105,98.1377 193.105,97.4711 184.5,95.5C 195.946,79.5284 211.112,68.8617 230,63.5C 231.167,63.8333 232.333,64.1667 233.5,64.5C 226.141,75.5178 218.807,86.5178 211.5,97.5 Z"/></g>
<g><path style="opacity:1" fill="#abdd93" d="M 262.5,86.5 C 263.024,90.0053 264.024,93.3386 265.5,96.5C 254.147,96.8322 242.814,96.4988 231.5,95.5C 232.127,94.5832 232.461,93.5832 232.5,92.5C 237.757,83.9056 243.424,75.5722 249.5,67.5C 254.242,73.5717 258.576,79.905 262.5,86.5 Z"/></g>
<g><path style="opacity:0.169" fill="#cbcbcb" d="M 325.5,84.5 C 326.906,84.9731 327.573,85.9731 327.5,87.5C 326.094,87.0269 325.427,86.0269 325.5,84.5 Z"/></g>
<g><path style="opacity:0.106" fill="#c9c9c9" d="M 173.5,84.5 C 173.573,86.0269 172.906,87.0269 171.5,87.5C 171.427,85.9731 172.094,84.9731 173.5,84.5 Z"/></g>
<g><path style="opacity:0.173" fill="#c8c8c8" d="M 327.5,87.5 C 328.906,87.9731 329.573,88.9731 329.5,90.5C 328.094,90.0269 327.427,89.0269 327.5,87.5 Z"/></g>
<g><path style="opacity:0.094" fill="#c9c9c9" d="M 171.5,87.5 C 171.573,89.0269 170.906,90.0269 169.5,90.5C 169.427,88.9731 170.094,87.9731 171.5,87.5 Z"/></g>
<g><path style="opacity:1" fill="#94b781" d="M 262.5,86.5 C 265.313,89.4459 267.646,92.7792 269.5,96.5C 256.167,97.8333 242.833,97.8333 229.5,96.5C 230.026,94.7697 231.026,93.4363 232.5,92.5C 232.461,93.5832 232.127,94.5832 231.5,95.5C 242.814,96.4988 254.147,96.8322 265.5,96.5C 264.024,93.3386 263.024,90.0053 262.5,86.5 Z"/></g>
<g><path style="opacity:1" fill="#3d4f37" d="M 184.5,95.5 C 193.105,97.4711 202.105,98.1377 211.5,97.5C 202.348,98.4936 193.015,98.8269 183.5,98.5C 183.263,97.209 183.596,96.209 184.5,95.5 Z"/></g>
<g><path style="opacity:1" fill="#394b2f" d="M 229.5,96.5 C 242.833,97.8333 256.167,97.8333 269.5,96.5C 270.043,96.56 270.376,96.8933 270.5,97.5C 256.5,98.8333 242.5,98.8333 228.5,97.5C 228.624,96.8933 228.957,96.56 229.5,96.5 Z"/></g>
<g><path style="opacity:1" fill="#3e4e38" d="M 314.5,95.5 C 315.404,96.209 315.737,97.209 315.5,98.5C 305.985,98.8269 296.652,98.4936 287.5,97.5C 296.895,98.1377 305.895,97.4711 314.5,95.5 Z"/></g>
<g><path style="opacity:1" fill="#9fc48c" d="M 172.5,124.5 C 172.5,126.833 172.5,129.167 172.5,131.5C 183.833,131.5 195.167,131.5 206.5,131.5C 206.5,125.833 206.5,120.167 206.5,114.5C 196.832,114.577 187.332,114.577 178,114.5C 176.408,116.491 174.908,118.491 173.5,120.5C 173.387,117.951 174.054,115.618 175.5,113.5C 186.146,112.501 196.813,112.168 207.5,112.5C 207.5,119.5 207.5,126.5 207.5,133.5C 195.5,133.5 183.5,133.5 171.5,133.5C 171.19,130.287 171.523,127.287 172.5,124.5 Z"/></g>
<g><path style="opacity:1" fill="#ace193" d="M 172.5,124.5 C 172.232,122.901 172.566,121.568 173.5,120.5C 174.908,118.491 176.408,116.491 178,114.5C 187.332,114.577 196.832,114.577 206.5,114.5C 206.5,120.167 206.5,125.833 206.5,131.5C 195.167,131.5 183.833,131.5 172.5,131.5C 172.5,129.167 172.5,126.833 172.5,124.5 Z"/></g>
<g><path style="opacity:0.2" fill="#555355" d="M 157.5,122.5 C 157.678,126.122 157.011,129.456 155.5,132.5C 155.549,128.922 156.215,125.589 157.5,122.5 Z"/></g>
<g><path style="opacity:1" fill="#acdd94" d="M 327.5,128.5 C 327.5,129.833 327.5,131.167 327.5,132.5C 315.5,132.5 303.5,132.5 291.5,132.5C 291.5,125.833 291.5,119.167 291.5,112.5C 302.187,112.168 312.854,112.501 323.5,113.5C 325.846,118.229 327.179,123.229 327.5,128.5 Z"/></g>
<g><path style="opacity:0.285" fill="#585757" d="M 154.5,132.5 C 128.488,133.158 102.488,133.824 76.5,134.5C 77.6808,132.933 79.3474,132.099 81.5,132C 106.003,131.17 130.337,131.337 154.5,132.5 Z"/></g>
<g><path style="opacity:1" fill="#4c6f3d" d="M 222.5,112.5 C 222.176,119.354 222.509,126.021 223.5,132.5C 239.833,132.5 256.167,132.5 272.5,132.5C 273.833,132.5 275.167,132.5 276.5,132.5C 276.5,125.833 276.5,119.167 276.5,112.5C 277.491,119.313 277.825,126.313 277.5,133.5C 258.833,133.5 240.167,133.5 221.5,133.5C 221.175,126.313 221.509,119.313 222.5,112.5 Z"/></g>
<g><path style="opacity:1" fill="#8ab879" d="M 222.5,112.5 C 240.5,112.5 258.5,112.5 276.5,112.5C 276.5,119.167 276.5,125.833 276.5,132.5C 275.167,132.5 273.833,132.5 272.5,132.5C 273.209,131.596 274.209,131.263 275.5,131.5C 275.5,125.5 275.5,119.5 275.5,113.5C 258.167,113.5 240.833,113.5 223.5,113.5C 223.5,119.833 223.5,126.167 223.5,132.5C 222.509,126.021 222.176,119.354 222.5,112.5 Z"/></g>
<g><path style="opacity:1" fill="#97d97c" d="M 272.5,132.5 C 256.167,132.5 239.833,132.5 223.5,132.5C 223.5,126.167 223.5,119.833 223.5,113.5C 240.833,113.5 258.167,113.5 275.5,113.5C 275.5,119.5 275.5,125.5 275.5,131.5C 274.209,131.263 273.209,131.596 272.5,132.5 Z"/></g>
<g><path style="opacity:1" fill="#6d885e" d="M 327.5,128.5 C 328.451,129.919 328.784,131.585 328.5,133.5C 315.989,133.829 303.655,133.495 291.5,132.5C 303.5,132.5 315.5,132.5 327.5,132.5C 327.5,131.167 327.5,129.833 327.5,128.5 Z"/></g>
<g><path style="opacity:0.292" fill="#595959" d="M 343.5,131.5 C 368.169,131.333 392.836,131.5 417.5,132C 419.058,132.21 420.391,132.71 421.5,133.5C 395.145,134.158 369.145,133.491 343.5,131.5 Z"/></g>
<g><path style="opacity:0.183" fill="#4a494b" d="M 421.5,133.5 C 423.61,134.453 424.777,136.119 425,138.5C 425.5,149.161 425.667,159.828 425.5,170.5C 424.67,160.341 424.17,150.008 424,139.5C 422.878,137.593 422.045,135.593 421.5,133.5 Z"/></g>
<g><path style="opacity:1" fill="#585158" d="M 409.5,161.5 C 409.5,157.167 409.5,152.833 409.5,148.5C 396.167,148.5 382.833,148.5 369.5,148.5C 276.167,148.5 182.833,148.5 89.5,148.5C 89.5,152.833 89.5,157.167 89.5,161.5C 88.5139,157.03 88.1805,152.363 88.5,147.5C 195.833,147.5 303.167,147.5 410.5,147.5C 410.819,152.363 410.486,157.03 409.5,161.5 Z"/></g>
<g><path style="opacity:1" fill="#6b5e69" d="M 369.5,148.5 C 382.833,148.5 396.167,148.5 409.5,148.5C 409.5,152.833 409.5,157.167 409.5,161.5C 302.833,162.833 196.167,162.833 89.5,161.5C 182.833,161.5 276.167,161.5 369.5,161.5C 369.5,159.5 369.5,157.5 369.5,155.5C 369.5,154.833 369.5,154.167 369.5,153.5C 369.5,151.833 369.5,150.167 369.5,148.5 Z"/></g>
<g><path style="opacity:1" fill="#918192" d="M 369.5,153.5 C 369.5,154.167 369.5,154.833 369.5,155.5C 368.711,155.783 368.044,156.283 367.5,157C 321.833,157.167 276.167,157.333 230.5,157.5C 184.456,157.497 138.622,156.831 93,155.5C 91.9966,157.935 91.4966,157.602 91.5,154.5C 91.3056,151.864 92.4723,150.197 95,149.5C 185.461,150.421 275.794,150.421 366,149.5C 366.949,151.093 368.115,152.426 369.5,153.5 Z"/></g>
<g><path style="opacity:1" fill="#8f828e" d="M 369.5,148.5 C 369.5,150.167 369.5,151.833 369.5,153.5C 368.115,152.426 366.949,151.093 366,149.5C 275.794,150.421 185.461,150.421 95,149.5C 92.4723,150.197 91.3056,151.864 91.5,154.5C 91.4966,157.602 91.9966,157.935 93,155.5C 138.622,156.831 184.456,157.497 230.5,157.5C 276.167,157.333 321.833,157.167 367.5,157C 368.044,156.283 368.711,155.783 369.5,155.5C 369.5,157.5 369.5,159.5 369.5,161.5C 276.167,161.5 182.833,161.5 89.5,161.5C 89.5,157.167 89.5,152.833 89.5,148.5C 182.833,148.5 276.167,148.5 369.5,148.5 Z"/></g>
<g><path style="opacity:1" fill="#a599a4" d="M 168.5,358.5 C 167.928,356.745 167.094,355.078 166,353.5C 156.309,344.524 146.309,344.191 136,352.5C 128.767,361.813 128.767,371.146 136,380.5C 138.185,382.54 140.685,383.874 143.5,384.5C 143.5,392.5 143.5,400.5 143.5,408.5C 132.167,408.5 120.833,408.5 109.5,408.5C 109.5,331.5 109.5,254.5 109.5,177.5C 132.833,177.5 156.167,177.5 179.5,177.5C 179.5,237.833 179.5,298.167 179.5,358.5C 175.833,358.5 172.167,358.5 168.5,358.5 Z"/></g>
<g><path style="opacity:1" fill="#a499a4" d="M 369.5,177.5 C 369.5,182.5 369.5,187.5 369.5,192.5C 358.495,192.333 347.495,192.5 336.5,193C 335.944,193.383 335.611,193.883 335.5,194.5C 334.21,195.058 333.377,196.058 333,197.5C 332.333,214.167 332.333,230.833 333,247.5C 334.018,249.928 335.852,251.262 338.5,251.5C 348.653,252.494 358.986,252.828 369.5,252.5C 369.5,256.833 369.5,261.167 369.5,265.5C 358.654,265.172 347.987,265.506 337.5,266.5C 335.376,267.031 333.876,268.365 333,270.5C 332.333,287.167 332.333,303.833 333,320.5C 334.076,323.079 335.909,324.746 338.5,325.5C 348.653,326.494 358.986,326.828 369.5,326.5C 369.666,334.84 369.5,343.173 369,351.5C 368.502,353.544 367.335,354.878 365.5,355.5C 357.349,345.929 347.683,344.096 336.5,350C 333.79,352.628 331.456,355.461 329.5,358.5C 326.167,358.5 322.833,358.5 319.5,358.5C 319.667,333.164 319.5,307.831 319,282.5C 318.617,281.944 318.117,281.611 317.5,281.5C 315.155,278.925 312.155,277.925 308.5,278.5C 309.209,277.596 310.209,277.263 311.5,277.5C 311.5,271.167 311.5,264.833 311.5,258.5C 315.067,257.932 317.401,255.932 318.5,252.5C 319.498,227.672 319.831,202.672 319.5,177.5C 336.167,177.5 352.833,177.5 369.5,177.5 Z"/></g>
<g><path style="opacity:1" fill="#8f8290" d="M 369.5,177.5 C 376.167,177.5 382.833,177.5 389.5,177.5C 389.5,254.5 389.5,331.5 389.5,408.5C 382.833,408.5 376.167,408.5 369.5,408.5C 369.829,395.656 369.495,382.989 368.5,370.5C 368.878,365.15 367.878,360.15 365.5,355.5C 367.335,354.878 368.502,353.544 369,351.5C 369.5,343.173 369.666,334.84 369.5,326.5C 358.986,326.828 348.653,326.494 338.5,325.5C 350.268,325.957 361.935,325.457 373.5,324C 375.049,322.786 376.215,321.286 377,319.5C 377.667,303.5 377.667,287.5 377,271.5C 376.07,269.448 374.57,267.948 372.5,267C 360.838,266.5 349.171,266.333 337.5,266.5C 347.987,265.506 358.654,265.172 369.5,265.5C 369.5,261.167 369.5,256.833 369.5,252.5C 358.986,252.828 348.653,252.494 338.5,251.5C 349.838,251.667 361.172,251.5 372.5,251C 373.931,250.535 375.097,249.701 376,248.5C 377.624,231.567 377.957,214.567 377,197.5C 375.549,195.536 373.716,194.203 371.5,193.5C 371.158,192.662 370.492,192.328 369.5,192.5C 369.5,187.5 369.5,182.5 369.5,177.5 Z"/></g>
<g><path style="opacity:1" fill="#786f78" d="M 389.5,408.5 C 389.5,331.5 389.5,254.5 389.5,177.5C 382.833,177.5 376.167,177.5 369.5,177.5C 352.833,177.5 336.167,177.5 319.5,177.5C 319.831,202.672 319.498,227.672 318.5,252.5C 318.5,227.167 318.5,201.833 318.5,176.5C 342.5,176.5 366.5,176.5 390.5,176.5C 390.833,254.002 390.499,331.335 389.5,408.5 Z"/></g>
<g><path style="opacity:1" fill="#f2f6f7" d="M 304.5,252.5 C 305.291,256.29 307.624,258.29 311.5,258.5C 311.5,264.833 311.5,271.167 311.5,277.5C 310.209,277.263 309.209,277.596 308.5,278.5C 307.167,279.5 305.833,280.5 304.5,281.5C 303.505,292.654 303.172,303.988 303.5,315.5C 267.5,315.5 231.5,315.5 195.5,315.5C 195.5,269.5 195.5,223.5 195.5,177.5C 231.5,177.5 267.5,177.5 303.5,177.5C 303.169,202.672 303.502,227.672 304.5,252.5 Z"/></g>
<g><path style="opacity:1" fill="#807880" d="M 168.5,358.5 C 172.167,358.5 175.833,358.5 179.5,358.5C 179.5,298.167 179.5,237.833 179.5,177.5C 156.167,177.5 132.833,177.5 109.5,177.5C 109.5,254.5 109.5,331.5 109.5,408.5C 108.501,331.335 108.167,254.002 108.5,176.5C 132.5,176.5 156.5,176.5 180.5,176.5C 180.5,237.5 180.5,298.5 180.5,359.5C 176.298,359.817 172.298,359.483 168.5,358.5 Z"/></g>
<g><path style="opacity:1" fill="#858787" d="M 304.5,252.5 C 303.502,227.672 303.169,202.672 303.5,177.5C 267.5,177.5 231.5,177.5 195.5,177.5C 195.5,223.5 195.5,269.5 195.5,315.5C 195.5,315.833 195.5,316.167 195.5,316.5C 194.501,270.003 194.168,223.336 194.5,176.5C 231.167,176.5 267.833,176.5 304.5,176.5C 304.5,201.833 304.5,227.167 304.5,252.5 Z"/></g>
<g><path style="opacity:1" fill="#3d383e" d="M 369.5,192.5 C 370.492,192.328 371.158,192.662 371.5,193.5C 359.45,193.207 347.45,193.541 335.5,194.5C 335.611,193.883 335.944,193.383 336.5,193C 347.495,192.5 358.495,192.333 369.5,192.5 Z"/></g>
<g><path style="opacity:1" fill="#070406" d="M 126.5,192.5 C 138.171,192.333 149.838,192.5 161.5,193C 163.286,193.785 164.786,194.951 166,196.5C 166.667,213.5 166.667,230.5 166,247.5C 165.626,248.416 165.126,249.25 164.5,250C 151.929,251.627 139.262,251.96 126.5,251C 125.069,250.535 123.903,249.701 123,248.5C 121.377,231.9 121.044,215.233 122,198.5C 123.332,196.34 124.832,194.34 126.5,192.5 Z"/></g>
<g><path style="opacity:1" fill="#050203" d="M 371.5,193.5 C 373.716,194.203 375.549,195.536 377,197.5C 377.957,214.567 377.624,231.567 376,248.5C 375.097,249.701 373.931,250.535 372.5,251C 361.172,251.5 349.838,251.667 338.5,251.5C 335.852,251.262 334.018,249.928 333,247.5C 332.333,230.833 332.333,214.167 333,197.5C 333.377,196.058 334.21,195.058 335.5,194.5C 347.45,193.541 359.45,193.207 371.5,193.5 Z"/></g>
<g><path style="opacity:1" fill="#040505" d="M 257.5,252.5 C 256.51,258.645 256.177,264.978 256.5,271.5C 260.5,271.5 264.5,271.5 268.5,271.5C 270.754,272.124 272.421,273.457 273.5,275.5C 273.552,277.903 273.219,280.236 272.5,282.5C 271.942,283.79 270.942,284.623 269.5,285C 256.5,285.667 243.5,285.667 230.5,285C 226.972,282.419 225.806,278.919 227,274.5C 228.129,272.859 229.629,271.859 231.5,271.5C 235.167,271.5 238.833,271.5 242.5,271.5C 242.823,264.978 242.49,258.645 241.5,252.5C 232.543,241.706 223.376,231.039 214,220.5C 209.797,213.179 211.297,207.346 218.5,203C 238.833,202.333 259.167,202.333 279.5,203C 287.482,206.815 289.315,212.649 285,220.5C 275.624,231.039 266.457,241.706 257.5,252.5 Z"/></g>
<g><path style="opacity:1" fill="#a96f73" d="M 137.5,207.5 C 137.5,217.167 137.5,226.833 137.5,236.5C 142.167,236.5 146.833,236.5 151.5,236.5C 146.695,237.487 141.695,237.821 136.5,237.5C 136.173,227.319 136.506,217.319 137.5,207.5 Z"/></g>
<g><path style="opacity:1" fill="#f4959c" d="M 137.5,207.5 C 142.5,207.5 147.5,207.5 152.5,207.5C 152.827,217.348 152.494,227.014 151.5,236.5C 146.833,236.5 142.167,236.5 137.5,236.5C 137.5,226.833 137.5,217.167 137.5,207.5 Z"/></g>
<g><path style="opacity:0.192" fill="#787778" d="M 406.5,177.5 C 406.5,188.167 406.5,198.833 406.5,209.5C 435.15,208.384 463.817,208.217 492.5,209C 493.737,209.232 494.737,209.732 495.5,210.5C 465.5,210.5 435.5,210.5 405.5,210.5C 405.172,199.321 405.505,188.321 406.5,177.5 Z"/></g>
<g><path style="opacity:1" fill="#955e63" d="M 347.5,207.5 C 347.5,217.167 347.5,226.833 347.5,236.5C 352.167,236.5 356.833,236.5 361.5,236.5C 361.5,226.833 361.5,217.167 361.5,207.5C 362.494,217.319 362.827,227.319 362.5,237.5C 357.167,237.5 351.833,237.5 346.5,237.5C 346.173,227.319 346.506,217.319 347.5,207.5 Z"/></g>
<g><path style="opacity:1" fill="#fb9aa0" d="M 347.5,207.5 C 352.167,207.5 356.833,207.5 361.5,207.5C 361.5,217.167 361.5,226.833 361.5,236.5C 356.833,236.5 352.167,236.5 347.5,236.5C 347.5,226.833 347.5,217.167 347.5,207.5 Z"/></g>
<g><path style="opacity:1" fill="#65785c" d="M 267.5,218.5 C 255.5,217.167 243.5,217.167 231.5,218.5C 230.957,218.44 230.624,218.107 230.5,217.5C 243.167,216.167 255.833,216.167 268.5,217.5C 268.376,218.107 268.043,218.44 267.5,218.5 Z"/></g>
<g><path style="opacity:1" fill="#a79ba6" d="M 63.5,214.5 C 62.5755,218.884 63.9088,222.218 67.5,224.5C 68.209,225.404 69.209,225.737 70.5,225.5C 70.5,229.833 70.5,234.167 70.5,238.5C 51.8333,238.5 33.1667,238.5 14.5,238.5C 14.5,234.167 14.5,229.833 14.5,225.5C 22.3516,225.825 30.0182,225.492 37.5,224.5C 41.8879,223.109 43.8879,220.109 43.5,215.5C 50.3681,217.138 57.0348,216.805 63.5,214.5 Z"/></g>
<g><path style="opacity:1" fill="#bee3ae" d="M 267.5,218.5 C 261.152,224.848 255.152,231.515 249.5,238.5C 243.136,232.137 237.136,225.471 231.5,218.5C 243.5,217.167 255.5,217.167 267.5,218.5 Z"/></g>
<g><path style="opacity:1" fill="#554e55" d="M 37.5,224.5 C 30.0182,225.492 22.3516,225.825 14.5,225.5C 14.5,229.833 14.5,234.167 14.5,238.5C 13.5139,234.03 13.1805,229.363 13.5,224.5C 21.5,224.5 29.5,224.5 37.5,224.5 Z"/></g>
<g><path style="opacity:1" fill="#a59aa5" d="M 405.5,225.5 C 418.167,225.5 430.833,225.5 443.5,225.5C 443.5,229.833 443.5,234.167 443.5,238.5C 430.833,238.5 418.167,238.5 405.5,238.5C 405.5,234.167 405.5,229.833 405.5,225.5 Z"/></g>
<g><path style="opacity:1" fill="#827682" d="M 67.5,224.5 C 76.1667,224.5 84.8333,224.5 93.5,224.5C 93.5,229.5 93.5,234.5 93.5,239.5C 66.9947,239.831 40.6614,239.498 14.5,238.5C 33.1667,238.5 51.8333,238.5 70.5,238.5C 70.5,234.167 70.5,229.833 70.5,225.5C 69.209,225.737 68.209,225.404 67.5,224.5 Z"/></g>
<g><path style="opacity:1" fill="#827683" d="M 405.5,225.5 C 431.661,224.502 457.995,224.169 484.5,224.5C 484.5,229.5 484.5,234.5 484.5,239.5C 457.995,239.831 431.661,239.498 405.5,238.5C 418.167,238.5 430.833,238.5 443.5,238.5C 443.5,234.167 443.5,229.833 443.5,225.5C 430.833,225.5 418.167,225.5 405.5,225.5 Z"/></g>
<g><path style="opacity:1" fill="#8dac7e" d="M 92.5,408.5 C 92.5,357.167 92.5,305.833 92.5,254.5C 85.1667,254.5 77.8333,254.5 70.5,254.5C 58.1667,254.5 45.8333,254.5 33.5,254.5C 33.5,258.167 33.5,261.833 33.5,265.5C 45.8333,265.5 58.1667,265.5 70.5,265.5C 71.4916,265.328 72.1583,265.662 72.5,266.5C 59.1667,266.5 45.8333,266.5 32.5,266.5C 32.5,262.167 32.5,257.833 32.5,253.5C 52.8333,253.5 73.1667,253.5 93.5,253.5C 93.8322,305.336 93.4989,357.003 92.5,408.5 Z"/></g>
<g><path style="opacity:1" fill="#8f9190" d="M 241.5,252.5 C 242.49,258.645 242.823,264.978 242.5,271.5C 238.833,271.5 235.167,271.5 231.5,271.5C 234.625,270.521 237.958,270.187 241.5,270.5C 241.5,264.5 241.5,258.5 241.5,252.5 Z"/></g>
<g><path style="opacity:1" fill="#8e9192" d="M 257.5,252.5 C 257.5,258.5 257.5,264.5 257.5,270.5C 261.371,270.185 265.038,270.518 268.5,271.5C 264.5,271.5 260.5,271.5 256.5,271.5C 256.177,264.978 256.51,258.645 257.5,252.5 Z"/></g>
<g><path style="opacity:1" fill="#ade094" d="M 70.5,254.5 C 77.8333,254.5 85.1667,254.5 92.5,254.5C 92.5,305.833 92.5,357.167 92.5,408.5C 85.5,408.5 78.5,408.5 71.5,408.5C 70.8662,404.663 70.1995,400.83 69.5,397C 70.7375,396.768 71.7375,396.268 72.5,395.5C 75.4521,394.641 77.2854,392.641 78,389.5C 78.6667,373.833 78.6667,358.167 78,342.5C 76.8415,339.507 74.6748,337.84 71.5,337.5C 71.5,336.833 71.1667,336.5 70.5,336.5C 70.756,332.731 70.4227,329.064 69.5,325.5C 73.5616,325.276 76.395,323.276 78,319.5C 78.6667,303.5 78.6667,287.5 78,271.5C 76.2502,269.576 74.4169,267.909 72.5,266.5C 72.1583,265.662 71.4916,265.328 70.5,265.5C 70.5,261.833 70.5,258.167 70.5,254.5 Z"/></g>
<g><path style="opacity:1" fill="#bee4ac" d="M 426.5,266.5 C 424.596,266.738 423.262,267.738 422.5,269.5C 421.778,269.918 421.278,270.584 421,271.5C 420.333,287.5 420.333,303.5 421,319.5C 421.996,321.66 423.496,323.327 425.5,324.5C 438.656,325.496 451.99,325.829 465.5,325.5C 465.5,329.167 465.5,332.833 465.5,336.5C 451.99,336.171 438.656,336.504 425.5,337.5C 423.871,338.625 422.371,339.959 421,341.5C 420.043,358.567 420.376,375.567 422,392.5C 422.833,393.333 423.667,394.167 424.5,395C 438.496,395.5 452.496,395.667 466.5,395.5C 466.5,399.833 466.5,404.167 466.5,408.5C 446.5,408.5 426.5,408.5 406.5,408.5C 406.5,357.167 406.5,305.833 406.5,254.5C 426.167,254.5 445.833,254.5 465.5,254.5C 465.5,258.167 465.5,261.833 465.5,265.5C 452.323,265.171 439.323,265.505 426.5,266.5 Z"/></g>
<g><path style="opacity:1" fill="#c1e7b0" d="M 70.5,254.5 C 70.5,258.167 70.5,261.833 70.5,265.5C 58.1667,265.5 45.8333,265.5 33.5,265.5C 33.5,261.833 33.5,258.167 33.5,254.5C 45.8333,254.5 58.1667,254.5 70.5,254.5 Z"/></g>
<g><path style="opacity:1" fill="#91ad83" d="M 466.5,266.5 C 453.167,266.5 439.833,266.5 426.5,266.5C 439.323,265.505 452.323,265.171 465.5,265.5C 465.5,261.833 465.5,258.167 465.5,254.5C 445.833,254.5 426.167,254.5 406.5,254.5C 406.5,305.833 406.5,357.167 406.5,408.5C 405.501,357.003 405.168,305.336 405.5,253.5C 425.833,253.5 446.167,253.5 466.5,253.5C 466.5,257.833 466.5,262.167 466.5,266.5 Z"/></g>
<g><path style="opacity:1" fill="#ade195" d="M 444.5,255.5 C 451.167,255.5 457.833,255.5 464.5,255.5C 464.5,258.5 464.5,261.5 464.5,264.5C 457.5,264.5 450.5,264.5 443.5,264.5C 443.264,261.391 443.597,258.391 444.5,255.5 Z"/></g>
<g><path style="opacity:1" fill="#1f2f17" d="M 426.5,266.5 C 439.833,266.5 453.167,266.5 466.5,266.5C 453.006,267.331 439.339,267.831 425.5,268C 424.756,269.039 423.756,269.539 422.5,269.5C 423.262,267.738 424.596,266.738 426.5,266.5 Z"/></g>
<g><path style="opacity:1" fill="#060606" d="M 125.5,266.5 C 137.505,266.333 149.505,266.5 161.5,267C 162.766,267.309 163.933,267.809 165,268.5C 166.638,285.742 166.971,303.075 166,320.5C 165.535,321.931 164.701,323.097 163.5,324C 151.596,325.625 139.596,325.958 127.5,325C 125.714,324.215 124.214,323.049 123,321.5C 121.363,304.925 121.03,288.258 122,271.5C 122.997,269.677 124.164,268.01 125.5,266.5 Z"/></g>
<g><path style="opacity:1" fill="#060606" d="M 337.5,266.5 C 349.171,266.333 360.838,266.5 372.5,267C 374.57,267.948 376.07,269.448 377,271.5C 377.667,287.5 377.667,303.5 377,319.5C 376.215,321.286 375.049,322.786 373.5,324C 361.935,325.457 350.268,325.957 338.5,325.5C 335.909,324.746 334.076,323.079 333,320.5C 332.333,303.833 332.333,287.167 333,270.5C 333.876,268.365 335.376,267.031 337.5,266.5 Z"/></g>
<g><path style="opacity:1" fill="#919596" d="M 273.5,275.5 C 274.147,276.274 274.48,277.274 274.5,278.5C 274.66,280.355 273.993,281.688 272.5,282.5C 273.219,280.236 273.552,277.903 273.5,275.5 Z"/></g>
<g><path style="opacity:1" fill="#c1e7b0" d="M 137.5,281.5 C 142.167,281.5 146.833,281.5 151.5,281.5C 151.5,290.833 151.5,300.167 151.5,309.5C 146.833,309.5 142.167,309.5 137.5,309.5C 137.5,300.167 137.5,290.833 137.5,281.5 Z"/></g>
<g><path style="opacity:1" fill="#c1e7b0" d="M 361.5,281.5 C 361.5,290.833 361.5,300.167 361.5,309.5C 356.833,309.5 352.167,309.5 347.5,309.5C 347.5,300.167 347.5,290.833 347.5,281.5C 352.167,281.5 356.833,281.5 361.5,281.5 Z"/></g>
<g><path style="opacity:1" fill="#5e7256" d="M 136.5,281.5 C 141.64,280.512 146.974,280.179 152.5,280.5C 152.5,290.833 152.5,301.167 152.5,311.5C 146.974,311.821 141.64,311.488 136.5,310.5C 141.695,310.821 146.695,310.487 151.5,309.5C 151.5,300.167 151.5,290.833 151.5,281.5C 146.833,281.5 142.167,281.5 137.5,281.5C 137.167,281.5 136.833,281.5 136.5,281.5 Z"/></g>
<g><path style="opacity:1" fill="#9aaf8e" d="M 361.5,281.5 C 361.833,281.5 362.167,281.5 362.5,281.5C 362.5,291.167 362.5,300.833 362.5,310.5C 357.5,310.5 352.5,310.5 347.5,310.5C 347.5,310.167 347.5,309.833 347.5,309.5C 352.167,309.5 356.833,309.5 361.5,309.5C 361.5,300.167 361.5,290.833 361.5,281.5 Z"/></g>
<g><path style="opacity:1" fill="#99b18f" d="M 136.5,281.5 C 136.833,281.5 137.167,281.5 137.5,281.5C 137.5,290.833 137.5,300.167 137.5,309.5C 142.167,309.5 146.833,309.5 151.5,309.5C 146.695,310.487 141.695,310.821 136.5,310.5C 136.5,300.833 136.5,291.167 136.5,281.5 Z"/></g>
<g><path style="opacity:1" fill="#697d61" d="M 362.5,281.5 C 362.167,281.5 361.833,281.5 361.5,281.5C 356.833,281.5 352.167,281.5 347.5,281.5C 347.5,290.833 347.5,300.167 347.5,309.5C 347.5,309.833 347.5,310.167 347.5,310.5C 346.506,300.681 346.173,290.681 346.5,280.5C 352.026,280.179 357.36,280.512 362.5,281.5 Z"/></g>
<g><path style="opacity:1" fill="#b6b8ba" d="M 32.5,280.5 C 42.8333,280.5 53.1667,280.5 63.5,280.5C 63.5,290.5 63.5,300.5 63.5,310.5C 53.1667,310.5 42.8333,310.5 32.5,310.5C 32.5,300.5 32.5,290.5 32.5,280.5 Z"/></g>
<g><path style="opacity:1" fill="#f3f7f8" d="M 33.5,281.5 C 43.1667,281.5 52.8333,281.5 62.5,281.5C 62.5,290.833 62.5,300.167 62.5,309.5C 52.8333,309.5 43.1667,309.5 33.5,309.5C 33.5,300.167 33.5,290.833 33.5,281.5 Z"/></g>
<g><path style="opacity:1" fill="#b0b2b5" d="M 435.5,280.5 C 445.833,280.5 456.167,280.5 466.5,280.5C 466.5,290.5 466.5,300.5 466.5,310.5C 456.167,310.5 445.833,310.5 435.5,310.5C 435.5,300.5 435.5,290.5 435.5,280.5 Z"/></g>
<g><path style="opacity:1" fill="#eaeff2" d="M 436.5,281.5 C 446.167,281.5 455.833,281.5 465.5,281.5C 465.5,290.833 465.5,300.167 465.5,309.5C 455.833,309.5 446.167,309.5 436.5,309.5C 436.5,300.167 436.5,290.833 436.5,281.5 Z"/></g>
<g><path style="opacity:1" fill="#a6a8a7" d="M 304.5,281.5 C 304.5,293.167 304.5,304.833 304.5,316.5C 268.167,316.5 231.833,316.5 195.5,316.5C 195.5,316.167 195.5,315.833 195.5,315.5C 231.5,315.5 267.5,315.5 303.5,315.5C 303.172,303.988 303.505,292.654 304.5,281.5 Z"/></g>
<g><path style="opacity:1" fill="#c0e6ae" d="M 33.5,325.5 C 45.5,325.5 57.5,325.5 69.5,325.5C 70.4227,329.064 70.756,332.731 70.5,336.5C 58.1667,336.5 45.8333,336.5 33.5,336.5C 33.5,332.833 33.5,329.167 33.5,325.5 Z"/></g>
<g><path style="opacity:1" fill="#7a7b7c" d="M 241.5,348.5 C 241.5,342.833 241.5,337.167 241.5,331.5C 226.167,331.5 210.833,331.5 195.5,331.5C 195.5,340.5 195.5,349.5 195.5,358.5C 207.167,358.5 218.833,358.5 230.5,358.5C 218.678,359.495 206.678,359.828 194.5,359.5C 194.5,349.833 194.5,340.167 194.5,330.5C 210.5,330.5 226.5,330.5 242.5,330.5C 242.823,336.69 242.49,342.69 241.5,348.5 Z"/></g>
<g><path style="opacity:1" fill="#7a7b7c" d="M 267.5,358.5 C 279.5,358.5 291.5,358.5 303.5,358.5C 303.5,349.5 303.5,340.5 303.5,331.5C 288.167,331.5 272.833,331.5 257.5,331.5C 257.5,337.167 257.5,342.833 257.5,348.5C 256.51,342.69 256.177,336.69 256.5,330.5C 272.5,330.5 288.5,330.5 304.5,330.5C 304.5,340.167 304.5,349.833 304.5,359.5C 291.989,359.829 279.655,359.495 267.5,358.5 Z"/></g>
<g><path style="opacity:1" fill="#aee096" d="M 442.5,326.5 C 449.833,326.5 457.167,326.5 464.5,326.5C 464.5,329.5 464.5,332.5 464.5,335.5C 457.5,335.5 450.5,335.5 443.5,335.5C 443.683,333.064 443.016,330.897 441.5,329C 442.252,328.329 442.586,327.496 442.5,326.5 Z"/></g>
<g><path style="opacity:1" fill="#797279" d="M 317.5,281.5 C 318.117,281.611 318.617,281.944 319,282.5C 319.5,307.831 319.667,333.164 319.5,358.5C 322.833,358.5 326.167,358.5 329.5,358.5C 326.038,359.482 322.371,359.815 318.5,359.5C 318.815,333.455 318.482,307.455 317.5,281.5 Z"/></g>
<g><path style="opacity:1" fill="#f3f6f7" d="M 241.5,348.5 C 236.553,350.448 232.886,353.781 230.5,358.5C 218.833,358.5 207.167,358.5 195.5,358.5C 195.5,349.5 195.5,340.5 195.5,331.5C 210.833,331.5 226.167,331.5 241.5,331.5C 241.5,337.167 241.5,342.833 241.5,348.5 Z"/></g>
<g><path style="opacity:1" fill="#f3f6f8" d="M 267.5,358.5 C 265.188,354.188 261.855,350.855 257.5,348.5C 257.5,342.833 257.5,337.167 257.5,331.5C 272.833,331.5 288.167,331.5 303.5,331.5C 303.5,340.5 303.5,349.5 303.5,358.5C 291.5,358.5 279.5,358.5 267.5,358.5 Z"/></g>
<g><path style="opacity:1" fill="#819a77" d="M 33.5,325.5 C 33.5,329.167 33.5,332.833 33.5,336.5C 45.8333,336.5 58.1667,336.5 70.5,336.5C 71.1667,336.5 71.5,336.833 71.5,337.5C 58.5,337.5 45.5,337.5 32.5,337.5C 32.1832,333.298 32.5166,329.298 33.5,325.5 Z"/></g>
<g><path style="opacity:1" fill="#647e59" d="M 425.5,324.5 C 439.167,324.5 452.833,324.5 466.5,324.5C 466.5,328.833 466.5,333.167 466.5,337.5C 452.833,337.5 439.167,337.5 425.5,337.5C 438.656,336.504 451.99,336.171 465.5,336.5C 465.5,332.833 465.5,329.167 465.5,325.5C 451.99,325.829 438.656,325.496 425.5,324.5 Z"/></g>
<g><path style="opacity:1" fill="#b2b5b6" d="M 32.5,351.5 C 42.8333,351.5 53.1667,351.5 63.5,351.5C 63.5,361.5 63.5,371.5 63.5,381.5C 53.1667,381.5 42.8333,381.5 32.5,381.5C 32.5,371.5 32.5,361.5 32.5,351.5 Z"/></g>
<g><path style="opacity:1" fill="#f4f7f8" d="M 33.5,352.5 C 43.1667,352.5 52.8333,352.5 62.5,352.5C 62.5,361.833 62.5,371.167 62.5,380.5C 52.8333,380.5 43.1667,380.5 33.5,380.5C 33.5,371.167 33.5,361.833 33.5,352.5 Z"/></g>
<g><path style="opacity:1" fill="#adb0b2" d="M 435.5,351.5 C 445.833,351.5 456.167,351.5 466.5,351.5C 466.5,361.5 466.5,371.5 466.5,381.5C 456.167,381.5 445.833,381.5 435.5,381.5C 435.5,371.5 435.5,361.5 435.5,351.5 Z"/></g>
<g><path style="opacity:1" fill="#eaeef2" d="M 436.5,352.5 C 446.167,352.5 455.833,352.5 465.5,352.5C 465.5,361.833 465.5,371.167 465.5,380.5C 455.833,380.5 446.167,380.5 436.5,380.5C 436.5,371.167 436.5,361.833 436.5,352.5 Z"/></g>
<g><path style="opacity:1" fill="#e8959b" d="M 344.5,361.5 C 352.993,360.471 355.327,363.637 351.5,371C 343.779,372.094 341.446,368.927 344.5,361.5 Z"/></g>
<g><path style="opacity:1" fill="#eb959a" d="M 147.5,361.5 C 155.486,360.998 157.486,364.165 153.5,371C 148.248,372.856 145.581,371.022 145.5,365.5C 145.803,363.886 146.47,362.552 147.5,361.5 Z"/></g>
<g><path style="opacity:1" fill="#e7969c" d="M 246.5,361.5 C 254.486,360.998 256.486,364.165 252.5,371C 244.424,371.805 242.424,368.638 246.5,361.5 Z"/></g>
<g><path style="opacity:1" fill="#a398a3" d="M 158.5,408.5 C 158.199,400.414 158.533,392.414 159.5,384.5C 164.302,382.359 167.302,378.693 168.5,373.5C 172.5,373.5 176.5,373.5 180.5,373.5C 180.5,385.167 180.5,396.833 180.5,408.5C 173.167,408.5 165.833,408.5 158.5,408.5 Z"/></g>
<g><path style="opacity:1" fill="#f3f7f8" d="M 231.5,375.5 C 233.556,379.888 236.889,382.888 241.5,384.5C 241.5,392.5 241.5,400.5 241.5,408.5C 226.167,408.5 210.833,408.5 195.5,408.5C 195.5,397.167 195.5,385.833 195.5,374.5C 207.58,374.188 219.58,374.521 231.5,375.5 Z"/></g>
<g><path style="opacity:1" fill="#f2f5f6" d="M 303.5,408.5 C 287.833,408.5 272.167,408.5 256.5,408.5C 256.334,400.826 256.5,393.159 257,385.5C 261.563,383.161 265.063,379.828 267.5,375.5C 279.42,374.521 291.42,374.188 303.5,374.5C 303.5,385.833 303.5,397.167 303.5,408.5 Z"/></g>
<g><path style="opacity:1" fill="#7e8080" d="M 303.5,408.5 C 303.5,397.167 303.5,385.833 303.5,374.5C 291.42,374.188 279.42,374.521 267.5,375.5C 279.455,373.52 291.788,372.854 304.5,373.5C 304.828,385.345 304.495,397.012 303.5,408.5 Z"/></g>
<g><path style="opacity:1" fill="#a096a0" d="M 318.5,373.5 C 322.182,373.335 325.848,373.501 329.5,374C 332,379.167 335.833,383 341,385.5C 341.5,393.159 341.666,400.826 341.5,408.5C 333.833,408.5 326.167,408.5 318.5,408.5C 318.5,396.833 318.5,385.167 318.5,373.5 Z"/></g>
<g><path style="opacity:1" fill="#a296a2" d="M 368.5,370.5 C 369.495,382.989 369.829,395.656 369.5,408.5C 364.833,408.5 360.167,408.5 355.5,408.5C 355.169,400.472 355.502,392.472 356.5,384.5C 362.371,381.416 366.371,376.749 368.5,370.5 Z"/></g>
<g><path style="opacity:1" fill="#808181" d="M 231.5,375.5 C 219.58,374.521 207.58,374.188 195.5,374.5C 195.5,385.833 195.5,397.167 195.5,408.5C 194.505,397.012 194.172,385.345 194.5,373.5C 207.212,372.854 219.545,373.52 231.5,375.5 Z"/></g>
<g><path style="opacity:1" fill="#5e585e" d="M 159.5,384.5 C 158.533,392.414 158.199,400.414 158.5,408.5C 157.834,404.681 157.501,400.681 157.5,396.5C 157.509,392.107 158.176,388.107 159.5,384.5 Z"/></g>
<g><path style="opacity:1" fill="#b9dca9" d="M 72.5,395.5 C 71.7375,396.268 70.7375,396.768 69.5,397C 70.1995,400.83 70.8662,404.663 71.5,408.5C 58.5,408.5 45.5,408.5 32.5,408.5C 32.5,404.167 32.5,399.833 32.5,395.5C 45.8333,395.5 59.1667,395.5 72.5,395.5 Z"/></g>
<g><path style="opacity:1" fill="#ade095" d="M 443.5,397.5 C 450.5,397.5 457.5,397.5 464.5,397.5C 464.384,400.86 464.051,404.193 463.5,407.5C 457.158,407.666 450.825,407.5 444.5,407C 443.549,403.943 443.216,400.777 443.5,397.5 Z"/></g>
<g><path style="opacity:1" fill="#4c4d4e" d="M 241.5,384.5 C 242.493,392.65 242.826,400.983 242.5,409.5C 226.658,409.83 210.991,409.496 195.5,408.5C 210.833,408.5 226.167,408.5 241.5,408.5C 241.5,400.5 241.5,392.5 241.5,384.5 Z"/></g>
<g><path style="opacity:1" fill="#e4e9ed" d="M 199.5,446.5 C 193.256,445.542 186.923,445.209 180.5,445.5C 180.737,444.209 180.404,443.209 179.5,442.5C 178.375,440.871 177.041,439.371 175.5,438C 121.834,437.5 68.1677,437.333 14.5,437.5C 14.5,432.833 14.5,428.167 14.5,423.5C 171.167,423.5 327.833,423.5 484.5,423.5C 484.5,428.167 484.5,432.833 484.5,437.5C 390.833,437.333 297.166,437.5 203.5,438C 200.156,439.894 198.822,442.727 199.5,446.5 Z"/></g>
<g><path style="opacity:0.376" fill="#737374" d="M 179.5,442.5 C 180.404,443.209 180.737,444.209 180.5,445.5C 180.598,447.553 179.931,449.22 178.5,450.5C 179.092,447.873 179.425,445.206 179.5,442.5 Z"/></g>
</svg>
