<?xml version="1.0" encoding="UTF-8"?>
<!DOCTYPE svg PUBLIC "-//W3C//DTD SVG 1.1//EN" "http://www.w3.org/Graphics/SVG/1.1/DTD/svg11.dtd">
<svg xmlns="http://www.w3.org/2000/svg" version="1.1" width="500px" height="500px" style="shape-rendering:geometricPrecision; text-rendering:geometricPrecision; image-rendering:optimizeQuality; fill-rule:evenodd; clip-rule:evenodd" xmlns:xlink="http://www.w3.org/1999/xlink">
<g><path style="opacity:0.996" fill="#070605" d="M 45.5,-0.5 C 49.5,-0.5 53.5,-0.5 57.5,-0.5C 57.5,-0.166667 57.5,0.166667 57.5,0.5C 57.427,2.02694 58.0937,3.02694 59.5,3.5C 59.8333,5.5 60.1667,7.5 60.5,9.5C 59.3733,12.8573 59.3733,16.1906 60.5,19.5C 60.427,21.0269 61.0937,22.0269 62.5,22.5C 62.8333,22.5 63.1667,22.5 63.5,22.5C 63.5774,23.7498 64.244,24.5831 65.5,25C 68.367,25.8007 71.0336,25.6341 73.5,24.5C 76.2372,24.4013 78.9039,24.7347 81.5,25.5C 84.7304,28.0205 85.8971,31.3538 85,35.5C 83.6277,42.9341 79.7944,48.6008 73.5,52.5C 70.0878,53.0421 67.0878,54.3754 64.5,56.5C 63.6993,58.0418 63.366,59.7085 63.5,61.5C 67.3472,64.5926 71.6805,66.9259 76.5,68.5C 84.6504,72.7429 92.317,77.7429 99.5,83.5C 102.836,88.1751 106.169,92.8418 109.5,97.5C 109.721,100.067 110.388,102.401 111.5,104.5C 112.833,105.833 112.833,107.167 111.5,108.5C 110.419,111.627 109.753,114.96 109.5,118.5C 108.326,119.514 107.66,120.847 107.5,122.5C 104.899,126.771 101.566,130.437 97.5,133.5C 96.9033,133.735 96.5699,134.235 96.5,135C 98.2142,140.017 98.8808,145.183 98.5,150.5C 97.412,152.516 96.412,154.683 95.5,157C 95.5699,157.765 95.9033,158.265 96.5,158.5C 98.0682,160.811 98.9016,163.478 99,166.5C 99.7752,208.177 99.6086,249.843 98.5,291.5C 112.833,291.5 127.167,291.5 141.5,291.5C 141.985,280.564 142.985,269.564 144.5,258.5C 146.326,256.853 147.66,254.853 148.5,252.5C 150.731,249.608 153.564,247.274 157,245.5C 157.483,244.552 157.649,243.552 157.5,242.5C 156.878,235.539 157.878,228.873 160.5,222.5C 161.028,221.153 161.195,219.819 161,218.5C 156.665,215.331 152.832,211.664 149.5,207.5C 145.737,202.41 142.403,197.077 139.5,191.5C 139.405,189.214 138.738,187.214 137.5,185.5C 136.037,182.797 135.204,179.797 135,176.5C 133.075,164.886 135.242,154.22 141.5,144.5C 142.906,144.027 143.573,143.027 143.5,141.5C 145.262,140.738 146.262,139.404 146.5,137.5C 150.784,134.248 154.118,130.248 156.5,125.5C 161.259,122.247 165.592,118.413 169.5,114C 172.72,111.563 176.053,109.397 179.5,107.5C 182.37,106.567 184.704,104.9 186.5,102.5C 188.674,102.25 190.341,101.25 191.5,99.5C 191.973,98.0937 192.973,97.427 194.5,97.5C 196.027,97.573 197.027,96.9063 197.5,95.5C 197.842,94.6618 198.508,94.3284 199.5,94.5C 201.027,94.573 202.027,93.9063 202.5,92.5C 203.514,91.3263 204.847,90.6596 206.5,90.5C 208.027,90.573 209.027,89.9063 209.5,88.5C 210.514,87.3263 211.847,86.6596 213.5,86.5C 215.153,86.3404 216.486,85.6737 217.5,84.5C 225.529,80.4028 233.696,76.4028 242,72.5C 242.688,71.6683 242.521,71.0016 241.5,70.5C 238.493,69.6633 235.826,68.3299 233.5,66.5C 233.027,65.0937 232.027,64.427 230.5,64.5C 228.761,61.7573 226.427,59.7573 223.5,58.5C 222.5,58.1667 221.833,57.5 221.5,56.5C 221.715,54.8212 221.048,53.8212 219.5,53.5C 215.921,47.7575 213.921,41.4241 213.5,34.5C 214.011,29.4828 215.344,24.8161 217.5,20.5C 219.588,18.6644 220.921,16.3311 221.5,13.5C 224.5,11.1667 227.167,8.5 229.5,5.5C 231.027,5.57298 232.027,4.90632 232.5,3.5C 234.027,3.57298 235.027,2.90632 235.5,1.5C 236.5,0.833333 237.5,0.166667 238.5,-0.5C 242.5,-0.5 246.5,-0.5 250.5,-0.5C 255.173,4.90045 255.839,10.9004 252.5,17.5C 255.825,30.9129 263.992,35.2462 277,30.5C 282.735,31.2365 286.235,34.4032 287.5,40C 285.857,49.1263 281.524,56.6263 274.5,62.5C 272.821,62.2852 271.821,62.9519 271.5,64.5C 268.078,67.4329 264.078,69.4329 259.5,70.5C 258.479,71.0016 258.312,71.6683 259,72.5C 273.813,78.8097 287.98,86.1431 301.5,94.5C 302.344,96.7593 304.011,97.7593 306.5,97.5C 307.492,97.3284 308.158,97.6618 308.5,98.5C 309.035,100.446 310.368,101.446 312.5,101.5C 315.511,102.669 318.178,104.336 320.5,106.5C 321.539,108.531 323.205,109.864 325.5,110.5C 332.102,115.095 338.435,120.095 344.5,125.5C 344.5,127.5 345.5,128.5 347.5,128.5C 349.262,129.262 350.262,130.596 350.5,132.5C 351.08,134.749 352.413,136.415 354.5,137.5C 354.738,139.404 355.738,140.738 357.5,141.5C 357.427,143.027 358.094,144.027 359.5,144.5C 360.338,144.842 360.672,145.508 360.5,146.5C 360.425,149.206 360.092,151.873 359.5,154.5C 359.5,155.167 359.167,155.5 358.5,155.5C 355.555,156.468 352.555,156.634 349.5,156C 344.792,148.267 339.126,141.267 332.5,135C 309.071,115.945 283.405,100.445 255.5,88.5C 253.954,87.1402 252.12,86.1402 250,85.5C 221.181,97.6509 194.681,113.484 170.5,133C 161.914,140.357 155.414,149.19 151,159.5C 148.46,185.629 159.293,203.796 183.5,214C 228.002,214.831 272.335,214.665 316.5,213.5C 333.879,207.787 345.212,196.12 350.5,178.5C 352.51,176.829 354.843,176.162 357.5,176.5C 360.135,177.473 362.135,179.14 363.5,181.5C 364.833,182.833 364.833,184.167 363.5,185.5C 362.262,187.214 361.595,189.214 361.5,191.5C 358.562,196.376 355.896,201.376 353.5,206.5C 348.721,211.106 343.721,215.606 338.5,220C 340.495,222.157 341.828,224.657 342.5,227.5C 342.337,233.724 342.337,239.724 342.5,245.5C 344.969,246.569 347.302,247.902 349.5,249.5C 351.587,253.344 353.92,257.011 356.5,260.5C 356.802,263.373 357.469,266.039 358.5,268.5C 358.5,276.5 358.5,284.5 358.5,292.5C 373.01,292.829 387.343,292.496 401.5,291.5C 401.36,250.04 401.526,208.374 402,166.5C 402.279,163.543 403.113,160.877 404.5,158.5C 405.097,158.265 405.43,157.765 405.5,157C 404.588,154.683 403.588,152.516 402.5,150.5C 402.413,145.463 402.746,140.463 403.5,135.5C 400.167,131.167 396.833,126.833 393.5,122.5C 391.714,117.498 390.381,112.498 389.5,107.5C 388.957,107.44 388.624,107.107 388.5,106.5C 389.067,104.018 389.734,101.684 390.5,99.5C 392.858,96.4541 394.858,93.1208 396.5,89.5C 398.833,87.8333 400.833,85.8333 402.5,83.5C 408.459,77.8513 415.125,73.1846 422.5,69.5C 424.674,69.2503 426.341,68.2503 427.5,66.5C 430.276,64.6076 433.276,62.9409 436.5,61.5C 437.747,59.9936 437.747,58.4936 436.5,57C 418.171,49.5117 411.838,36.345 417.5,17.5C 419.083,15.3374 420.416,13.0041 421.5,10.5C 421.5,9.83333 421.833,9.5 422.5,9.5C 424.5,8.16667 426.167,6.5 427.5,4.5C 429.027,4.57298 430.027,3.90632 430.5,2.5C 431.833,1.5 433.167,0.5 434.5,-0.5C 438.5,-0.5 442.5,-0.5 446.5,-0.5C 446.833,0.166667 447.167,0.833333 447.5,1.5C 449.178,4.55159 449.845,7.88492 449.5,11.5C 449.368,14.5701 449.701,17.5701 450.5,20.5C 450.916,22.7525 452.249,24.2525 454.5,25C 457.367,25.8007 460.034,25.6341 462.5,24.5C 467.351,22.3924 471.017,23.7258 473.5,28.5C 473.731,32.993 473.064,37.3263 471.5,41.5C 468.833,47.5 464.5,51.8333 458.5,54.5C 456.152,54.5923 454.486,55.5923 453.5,57.5C 452.861,58.0968 452.528,58.9302 452.5,60C 452.684,61.3756 453.351,62.2089 454.5,62.5C 468.376,68.2618 480.709,76.2618 491.5,86.5C 491.738,88.4044 492.738,89.7377 494.5,90.5C 496.167,92.5 497.833,94.5 499.5,96.5C 499.5,104.167 499.5,111.833 499.5,119.5C 496.258,125.411 491.925,130.411 486.5,134.5C 487.623,143.082 487.623,151.416 486.5,159.5C 487.404,160.209 487.737,161.209 487.5,162.5C 487.167,270.169 487.5,377.835 488.5,485.5C 489.622,486.63 490.956,487.297 492.5,487.5C 493.167,487.5 493.5,487.833 493.5,488.5C 493.632,491.57 493.299,494.57 492.5,497.5C 491.833,498.167 491.167,498.833 490.5,499.5C 330.5,499.5 170.5,499.5 10.5,499.5C 10.0269,498.094 9.02694,497.427 7.5,497.5C 6.70105,494.57 6.36772,491.57 6.5,488.5C 6.5,487.167 7.16667,486.5 8.5,486.5C 10.1172,485.962 11.7839,485.629 13.5,485.5C 13.5,377.833 13.5,270.167 13.5,162.5C 13.2627,161.209 13.596,160.209 14.5,159.5C 15.8674,156.988 15.534,154.655 13.5,152.5C 13.3032,146.455 13.6365,140.455 14.5,134.5C 7.0008,128.824 2.0008,121.491 -0.5,112.5C -0.5,108.833 -0.5,105.167 -0.5,101.5C 0.166667,100.5 0.833333,99.5 1.5,98.5C 2.67373,97.4863 3.3404,96.153 3.5,94.5C 4.90632,94.0269 5.57298,93.0269 5.5,91.5C 7.58689,90.4154 8.92022,88.7488 9.5,86.5C 20.2911,76.2618 32.6244,68.2618 46.5,62.5C 47.6491,62.2089 48.3158,61.3756 48.5,60C 48.472,58.9302 48.1386,58.0968 47.5,57.5C 26.7421,47.8596 21.2421,32.5262 31,11.5C 35.0992,6.56333 39.9325,2.56333 45.5,-0.5 Z"/></g>
<g><path style="opacity:0.333" fill="#9b9b9b" d="M 57.5,0.5 C 58.9063,0.973056 59.573,1.97306 59.5,3.5C 58.0937,3.02694 57.427,2.02694 57.5,0.5 Z"/></g>
<g><path style="opacity:0.188" fill="#a4a4a4" d="M 235.5,1.5 C 235.027,2.90632 234.027,3.57298 232.5,3.5C 232.973,2.09368 233.973,1.42702 235.5,1.5 Z"/></g>
<g><path style="opacity:0.255" fill="#a3a3a3" d="M 430.5,2.5 C 430.027,3.90632 429.027,4.57298 427.5,4.5C 427.973,3.09368 428.973,2.42702 430.5,2.5 Z"/></g>
<g><path style="opacity:0.353" fill="#7f7f7f" d="M 232.5,3.5 C 232.027,4.90632 231.027,5.57298 229.5,5.5C 229.973,4.09368 230.973,3.42702 232.5,3.5 Z"/></g>
<g><path style="opacity:0.137" fill="#c8c8c8" d="M 447.5,1.5 C 448.458,1.9528 449.292,2.61947 450,3.5C 450.801,6.36695 450.634,9.03362 449.5,11.5C 449.845,7.88492 449.178,4.55159 447.5,1.5 Z"/></g>
<g><path style="opacity:0.055" fill="#8f8f8f" d="M 59.5,3.5 C 61.4611,5.32003 61.7944,7.32003 60.5,9.5C 60.1667,7.5 59.8333,5.5 59.5,3.5 Z"/></g>
<g><path style="opacity:0.208" fill="#b9b9b9" d="M 427.5,4.5 C 426.167,6.5 424.5,8.16667 422.5,9.5C 423.167,6.83333 424.833,5.16667 427.5,4.5 Z"/></g>
<g><path style="opacity:0.392" fill="#8d8d8d" d="M 229.5,5.5 C 227.167,8.5 224.5,11.1667 221.5,13.5C 223.167,9.83333 225.833,7.16667 229.5,5.5 Z"/></g>
<g><path style="opacity:0.01" fill="#cfcfcf" d="M 421.5,10.5 C 420.416,13.0041 419.083,15.3374 417.5,17.5C 417.555,14.3855 418.888,12.0522 421.5,10.5 Z"/></g>
<g><path style="opacity:0.196" fill="#a0a0a0" d="M 221.5,13.5 C 220.921,16.3311 219.588,18.6644 217.5,20.5C 217.998,17.6737 219.331,15.3403 221.5,13.5 Z"/></g>
<g><path style="opacity:0.275" fill="#797b76" d="M 60.5,19.5 C 61.9063,19.9731 62.573,20.9731 62.5,22.5C 61.0937,22.0269 60.427,21.0269 60.5,19.5 Z"/></g>
<g><path style="opacity:0.31" fill="#757575" d="M 73.5,24.5 C 74.4486,23.8476 75.6153,23.5143 77,23.5C 79.0081,23.3068 80.5081,23.9735 81.5,25.5C 78.9039,24.7347 76.2372,24.4013 73.5,24.5 Z"/></g>
<g><path style="opacity:0.149" fill="#646464" d="M 63.5,22.5 C 66.582,24.181 69.9153,24.8476 73.5,24.5C 71.0336,25.6341 68.367,25.8007 65.5,25C 64.244,24.5831 63.5774,23.7498 63.5,22.5 Z"/></g>
<g><path style="opacity:0.494" fill="#6c6c6c" d="M 450.5,20.5 C 453.729,23.9249 457.729,25.2582 462.5,24.5C 460.034,25.6341 457.367,25.8007 454.5,25C 452.249,24.2525 450.916,22.7525 450.5,20.5 Z"/></g>
<g><path style="opacity:1" fill="#d89627" d="M 435.5,39.5 C 430.816,35.2187 429.316,29.8854 431,23.5C 433.729,18.4427 435.396,19.1093 436,25.5C 440.177,32.8421 446.343,37.6755 454.5,40C 447.962,44.7976 441.629,44.631 435.5,39.5 Z"/></g>
<g><path style="opacity:1" fill="#cf922a" d="M 49.5,30.5 C 47.4885,29.659 46.1552,28.159 45.5,26C 44.552,25.5172 43.552,25.3505 42.5,25.5C 42.6311,29.285 43.2978,32.9517 44.5,36.5C 42.0728,34.4924 41.0728,31.8257 41.5,28.5C 41.143,25.0234 42.143,22.0234 44.5,19.5C 45.9838,23.2999 47.6505,26.9666 49.5,30.5 Z"/></g>
<g><path style="opacity:1" fill="#f7a61a" d="M 49.5,30.5 C 51.5,32.1667 53.5,33.8333 55.5,35.5C 56.7196,37.2821 57.3862,39.2821 57.5,41.5C 54.8333,41.5 52.1667,41.5 49.5,41.5C 46.8106,40.8106 45.1439,39.144 44.5,36.5C 43.2978,32.9517 42.6311,29.285 42.5,25.5C 43.552,25.3505 44.552,25.5172 45.5,26C 46.1552,28.159 47.4885,29.659 49.5,30.5 Z"/></g>
<g><path style="opacity:0.592" fill="#6c6c6c" d="M 473.5,28.5 C 474.638,31.3035 474.805,34.3035 474,37.5C 473.8,39.3197 472.966,40.653 471.5,41.5C 473.064,37.3263 473.731,32.993 473.5,28.5 Z"/></g>
<g><path style="opacity:1" fill="#fca715" d="M 435.5,39.5 C 434.664,35.8166 434.164,32.1499 434,28.5C 436.652,29.5902 438.152,31.5902 438.5,34.5C 440.045,35.4519 441.712,35.7852 443.5,35.5C 443.5,36.8333 443.5,38.1667 443.5,39.5C 444.675,39.281 445.675,39.6143 446.5,40.5C 446,40.8333 445.5,41.1667 445,41.5C 441.906,40.4345 438.74,39.7678 435.5,39.5 Z"/></g>
<g><path style="opacity:1" fill="#916210" d="M 231.5,25.5 C 230.232,31.1749 230.232,36.8416 231.5,42.5C 230.778,42.0825 230.278,41.4158 230,40.5C 229.333,36.1667 229.333,31.8333 230,27.5C 230.278,26.5842 230.778,25.9175 231.5,25.5 Z"/></g>
<g><path style="opacity:1" fill="#d49938" d="M 55.5,35.5 C 58.2752,37.4443 61.2752,38.9443 64.5,40C 59.728,43.9479 54.728,44.4479 49.5,41.5C 52.1667,41.5 54.8333,41.5 57.5,41.5C 57.3862,39.2821 56.7196,37.2821 55.5,35.5 Z"/></g>
<g><path style="opacity:1" fill="#faa618" d="M 240.5,53.5 C 237.025,51.5882 234.192,48.9215 232,45.5C 231.517,44.552 231.351,43.552 231.5,42.5C 230.232,36.8416 230.232,31.1749 231.5,25.5C 232.815,24.5244 234.148,23.5244 235.5,22.5C 235.833,22.8333 236.167,23.1667 236.5,23.5C 237.592,27.8055 238.592,32.1389 239.5,36.5C 240.425,35.3595 241.259,35.3595 242,36.5C 241.106,42.235 241.773,42.5683 244,37.5C 245.63,43.2152 248.13,48.5485 251.5,53.5C 247.861,54.4603 244.195,54.4603 240.5,53.5 Z"/></g>
<g><path style="opacity:1" fill="#efab39" d="M 240.5,53.5 C 244.195,54.4603 247.861,54.4603 251.5,53.5C 248.13,48.5485 245.63,43.2152 244,37.5C 241.773,42.5683 241.106,42.235 242,36.5C 241.259,35.3595 240.425,35.3595 239.5,36.5C 238.592,32.1389 237.592,27.8055 236.5,23.5C 236.167,23.1667 235.833,22.8333 235.5,22.5C 234.148,23.5244 232.815,24.5244 231.5,25.5C 232.878,22.1219 235.211,19.7886 238.5,18.5C 240.524,35.1942 249.857,45.1942 266.5,48.5C 264.583,51.5833 261.916,53.75 258.5,55C 253.5,55.6667 248.5,55.6667 243.5,55C 242.263,54.7679 241.263,54.2679 240.5,53.5 Z"/></g>
<g><path style="opacity:0.353" fill="#606060" d="M 73.5,52.5 C 70.9122,54.6246 67.9122,55.9579 64.5,56.5C 67.0878,54.3754 70.0878,53.0421 73.5,52.5 Z"/></g>
<g><path style="opacity:0.016" fill="#949494" d="M 219.5,53.5 C 221.048,53.8212 221.715,54.8212 221.5,56.5C 220.599,55.7095 219.932,54.7095 219.5,53.5 Z"/></g>
<g><path style="opacity:0.416" fill="#7e7e7e" d="M 458.5,54.5 C 457.232,56.047 455.565,57.047 453.5,57.5C 454.486,55.5923 456.152,54.5923 458.5,54.5 Z"/></g>
<g><path style="opacity:0.059" fill="#c7c7c7" d="M 453.5,57.5 C 453.366,59.2915 453.699,60.9582 454.5,62.5C 453.351,62.2089 452.684,61.3756 452.5,60C 452.528,58.9302 452.861,58.0968 453.5,57.5 Z"/></g>
<g><path style="opacity:0.596" fill="#757779" d="M 223.5,58.5 C 226.427,59.7573 228.761,61.7573 230.5,64.5C 227.573,63.2427 225.239,61.2427 223.5,58.5 Z"/></g>
<g><path style="opacity:0.063" fill="#b6b6b6" d="M 47.5,57.5 C 48.1386,58.0968 48.472,58.9302 48.5,60C 48.3158,61.3756 47.6491,62.2089 46.5,62.5C 47.3007,60.9582 47.634,59.2915 47.5,57.5 Z"/></g>
<g><path style="opacity:0.224" fill="#858585" d="M 274.5,62.5 C 273.71,63.4013 272.71,64.0679 271.5,64.5C 271.821,62.9519 272.821,62.2852 274.5,62.5 Z"/></g>
<g><path style="opacity:0.325" fill="#737373" d="M 63.5,61.5 C 68.3195,63.0741 72.6528,65.4074 76.5,68.5C 71.6805,66.9259 67.3472,64.5926 63.5,61.5 Z"/></g>
<g><path style="opacity:0.247" fill="#888888" d="M 230.5,64.5 C 232.027,64.427 233.027,65.0937 233.5,66.5C 231.973,66.573 230.973,65.9063 230.5,64.5 Z"/></g>
<g><path style="opacity:0.224" fill="#777777" d="M 427.5,66.5 C 426.341,68.2503 424.674,69.2503 422.5,69.5C 423.659,67.7497 425.326,66.7497 427.5,66.5 Z"/></g>
<g><path style="opacity:1" fill="#544d55" d="M 63.5,78.5 C 74.4292,83.5481 84.2625,90.2148 93,98.5C 99.0004,109.171 96.5004,117.337 85.5,123C 71.504,123.5 57.504,123.667 43.5,123.5C 35.4622,113.012 35.6289,102.679 44,92.5C 47.7881,90.3795 50.9548,87.5462 53.5,84C 56.6487,81.7292 59.9821,79.8958 63.5,78.5 Z"/></g>
<g><path style="opacity:1" fill="#544d55" d="M 454.5,79.5 C 466.538,84.707 476.704,92.3736 485,102.5C 486.399,111.869 482.899,118.702 474.5,123C 460.837,123.5 447.171,123.667 433.5,123.5C 426.044,113.99 425.544,103.99 432,93.5C 437.221,88.2886 443.054,83.7886 449.5,80C 451.134,79.5065 452.801,79.3398 454.5,79.5 Z"/></g>
<g><path style="opacity:0.141" fill="#c0c0c0" d="M 217.5,84.5 C 216.486,85.6737 215.153,86.3404 213.5,86.5C 214.287,84.8958 215.62,84.2291 217.5,84.5 Z"/></g>
<g><path style="opacity:0.275" fill="#929292" d="M 402.5,83.5 C 400.833,85.8333 398.833,87.8333 396.5,89.5C 397.5,86.5 399.5,84.5 402.5,83.5 Z"/></g>
<g><path style="opacity:1" fill="#423e42" d="M 454.5,79.5 C 452.801,79.3398 451.134,79.5065 449.5,80C 443.054,83.7886 437.221,88.2886 432,93.5C 425.544,103.99 426.044,113.99 433.5,123.5C 427.491,123.666 421.491,123.499 415.5,123C 404.679,117.227 402.179,109.06 408,98.5C 418.546,88.8042 430.379,80.9709 443.5,75C 447.47,75.6049 451.136,77.1049 454.5,79.5 Z"/></g>
<g><path style="opacity:0.259" fill="#b4b4b4" d="M 491.5,86.5 C 493.262,87.2623 494.262,88.5956 494.5,90.5C 492.738,89.7377 491.738,88.4044 491.5,86.5 Z"/></g>
<g><path style="opacity:1" fill="#544d55" d="M 255.5,88.5 C 283.405,100.445 309.071,115.945 332.5,135C 339.126,141.267 344.792,148.267 349.5,156C 352.555,156.634 355.555,156.468 358.5,155.5C 358.844,160.532 358.844,165.532 358.5,170.5C 357.539,172.265 357.205,174.265 357.5,176.5C 354.843,176.162 352.51,176.829 350.5,178.5C 345.212,196.12 333.879,207.787 316.5,213.5C 276.165,213.667 235.832,213.5 195.5,213C 181.385,201.272 173.719,186.106 172.5,167.5C 173.37,157.961 176.536,149.295 182,141.5C 203.204,119.31 227.704,101.643 255.5,88.5 Z"/></g>
<g><path style="opacity:0.208" fill="#b9b9b9" d="M 9.5,86.5 C 8.92022,88.7488 7.58689,90.4154 5.5,91.5C 6.07978,89.2512 7.41311,87.5846 9.5,86.5 Z"/></g>
<g><path style="opacity:0.208" fill="#797979" d="M 209.5,88.5 C 209.027,89.9063 208.027,90.573 206.5,90.5C 206.973,89.0937 207.973,88.427 209.5,88.5 Z"/></g>
<g><path style="opacity:0.2" fill="#9c9c9c" d="M 99.5,83.5 C 104.319,87.1488 107.652,91.8155 109.5,97.5C 106.169,92.8418 102.836,88.1751 99.5,83.5 Z"/></g>
<g><path style="opacity:0.114" fill="#b6b6b6" d="M 5.5,91.5 C 5.57298,93.0269 4.90632,94.0269 3.5,94.5C 3.42702,92.9731 4.09368,91.9731 5.5,91.5 Z"/></g>
<g><path style="opacity:0.31" fill="#7b7b7b" d="M 202.5,92.5 C 202.027,93.9063 201.027,94.573 199.5,94.5C 199.973,93.0937 200.973,92.427 202.5,92.5 Z"/></g>
<g><path style="opacity:1" fill="#423e42" d="M 63.5,78.5 C 59.9821,79.8958 56.6487,81.7292 53.5,84C 50.9548,87.5462 47.7881,90.3795 44,92.5C 35.6289,102.679 35.4622,113.012 43.5,123.5C 37.1067,123.793 30.7734,123.46 24.5,122.5C 12.1819,112.046 12.5152,101.879 25.5,92C 35.1119,85.275 45.2786,79.4416 56,74.5C 58.498,75.9968 60.998,77.3302 63.5,78.5 Z"/></g>
<g><path style="opacity:0.337" fill="#7c7c7c" d="M 396.5,89.5 C 394.858,93.1208 392.858,96.4541 390.5,99.5C 391.272,95.4023 393.272,92.069 396.5,89.5 Z"/></g>
<g><path style="opacity:0.024" fill="#c5c5c5" d="M 3.5,94.5 C 3.3404,96.153 2.67373,97.4863 1.5,98.5C 1.22911,96.6203 1.89578,95.287 3.5,94.5 Z"/></g>
<g><path style="opacity:0.302" fill="#818181" d="M 197.5,95.5 C 197.027,96.9063 196.027,97.573 194.5,97.5C 194.973,96.0937 195.973,95.427 197.5,95.5 Z"/></g>
<g><path style="opacity:0.616" fill="#626262" d="M 301.5,94.5 C 303.434,95.1103 305.101,96.1103 306.5,97.5C 304.011,97.7593 302.344,96.7593 301.5,94.5 Z"/></g>
<g><path style="opacity:0.596" fill="#797979" d="M 308.5,98.5 C 310.23,99.0256 311.564,100.026 312.5,101.5C 310.368,101.446 309.035,100.446 308.5,98.5 Z"/></g>
<g><path style="opacity:0.125" fill="#a5a5a5" d="M 109.5,97.5 C 111.163,99.4385 111.829,101.772 111.5,104.5C 110.388,102.401 109.721,100.067 109.5,97.5 Z"/></g>
<g><path style="opacity:0.2" fill="#7d7d7d" d="M 191.5,99.5 C 190.341,101.25 188.674,102.25 186.5,102.5C 187.659,100.75 189.326,99.7497 191.5,99.5 Z"/></g>
<g><path style="opacity:0.396" fill="#717171" d="M 186.5,102.5 C 184.704,104.9 182.37,106.567 179.5,107.5C 181.296,105.1 183.63,103.433 186.5,102.5 Z"/></g>
<g><path style="opacity:0.663" fill="#6b6b6b" d="M 320.5,106.5 C 322.754,107.124 324.421,108.457 325.5,110.5C 323.205,109.864 321.539,108.531 320.5,106.5 Z"/></g>
<g><path style="opacity:0.271" fill="#999999" d="M 111.5,108.5 C 111.841,112.16 111.175,115.493 109.5,118.5C 109.753,114.96 110.419,111.627 111.5,108.5 Z"/></g>
<g><path style="opacity:0.333" fill="#959595" d="M 389.5,107.5 C 390.381,112.498 391.714,117.498 393.5,122.5C 390.177,118.174 388.844,113.174 389.5,107.5 Z"/></g>
<g><path style="opacity:0.082" fill="#9f9f9f" d="M 109.5,118.5 C 109.771,120.38 109.104,121.713 107.5,122.5C 107.66,120.847 108.326,119.514 109.5,118.5 Z"/></g>
<g><path style="opacity:0.227" fill="#9d9d9d" d="M 344.5,125.5 C 345.833,126.167 346.833,127.167 347.5,128.5C 345.5,128.5 344.5,127.5 344.5,125.5 Z"/></g>
<g><path style="opacity:0.561" fill="#888888" d="M 350.5,132.5 C 352.587,133.585 353.92,135.251 354.5,137.5C 352.413,136.415 351.08,134.749 350.5,132.5 Z"/></g>
<g><path style="opacity:0.455" fill="#7d7d7d" d="M 156.5,125.5 C 154.118,130.248 150.784,134.248 146.5,137.5C 149.359,133.122 152.692,129.122 156.5,125.5 Z"/></g>
<g><path style="opacity:0.49" fill="#828282" d="M 146.5,137.5 C 146.262,139.404 145.262,140.738 143.5,141.5C 143.738,139.596 144.738,138.262 146.5,137.5 Z"/></g>
<g><path style="opacity:0.51" fill="#828282" d="M 354.5,137.5 C 356.262,138.262 357.262,139.596 357.5,141.5C 355.738,140.738 354.738,139.404 354.5,137.5 Z"/></g>
<g><path style="opacity:1" fill="#f5d4a2" d="M 49.5,138.5 C 60.505,138.333 71.505,138.5 82.5,139C 85.4485,143.341 85.1151,147.341 81.5,151C 63.9951,151.829 46.6618,151.662 29.5,150.5C 36.5,150.5 43.5,150.5 50.5,150.5C 50.7633,146.4 50.4299,142.4 49.5,138.5 Z"/></g>
<g><path style="opacity:1" fill="#f9d7a4" d="M 470.5,150.5 C 459.167,150.5 447.833,150.5 436.5,150.5C 438.273,147.512 438.94,144.179 438.5,140.5C 432.043,139.001 425.71,139.334 419.5,141.5C 417.664,145.55 418.664,148.55 422.5,150.5C 420.784,150.371 419.117,150.038 417.5,149.5C 415.905,145.769 416.238,142.269 418.5,139C 436.167,138.333 453.833,138.333 471.5,139C 473.504,141.841 474.004,145.007 473,148.5C 472.292,149.381 471.458,150.047 470.5,150.5 Z"/></g>
<g><path style="opacity:0.243" fill="#6f6f6f" d="M 97.5,133.5 C 99.5615,139.198 99.8948,144.864 98.5,150.5C 98.8808,145.183 98.2142,140.017 96.5,135C 96.5699,134.235 96.9033,133.735 97.5,133.5 Z"/></g>
<g><path style="opacity:0.224" fill="#616161" d="M 403.5,135.5 C 402.746,140.463 402.413,145.463 402.5,150.5C 401.838,148.696 401.505,146.696 401.5,144.5C 401.343,141.186 402.009,138.186 403.5,135.5 Z"/></g>
<g><path style="opacity:1" fill="#fdcf86" d="M 436.5,150.5 C 431.833,150.5 427.167,150.5 422.5,150.5C 418.664,148.55 417.664,145.55 419.5,141.5C 425.71,139.334 432.043,139.001 438.5,140.5C 438.94,144.179 438.273,147.512 436.5,150.5 Z"/></g>
<g><path style="opacity:0.278" fill="#a0a0a0" d="M 486.5,134.5 C 487.222,134.918 487.722,135.584 488,136.5C 488.923,144.309 488.423,151.976 486.5,159.5C 487.623,151.416 487.623,143.082 486.5,134.5 Z"/></g>
<g><path style="opacity:0.165" fill="#9f9f9f" d="M 143.5,141.5 C 143.573,143.027 142.906,144.027 141.5,144.5C 141.427,142.973 142.094,141.973 143.5,141.5 Z"/></g>
<g><path style="opacity:1" fill="#423d41" d="M 255.5,88.5 C 227.704,101.643 203.204,119.31 182,141.5C 176.536,149.295 173.37,157.961 172.5,167.5C 173.719,186.106 181.385,201.272 195.5,213C 235.832,213.5 276.165,213.667 316.5,213.5C 272.335,214.665 228.002,214.831 183.5,214C 159.293,203.796 148.46,185.629 151,159.5C 155.414,149.19 161.914,140.357 170.5,133C 194.681,113.484 221.181,97.6509 250,85.5C 252.12,86.1402 253.954,87.1402 255.5,88.5 Z"/></g>
<g><path style="opacity:0.184" fill="#9b9e9b" d="M 357.5,141.5 C 358.906,141.973 359.573,142.973 359.5,144.5C 358.094,144.027 357.427,143.027 357.5,141.5 Z"/></g>
<g><path style="opacity:0.325" fill="#8f8f8f" d="M 14.5,134.5 C 13.6365,140.455 13.3032,146.455 13.5,152.5C 12.3493,147.35 12.1826,142.016 13,136.5C 13.2784,135.584 13.7784,134.918 14.5,134.5 Z"/></g>
<g><path style="opacity:1" fill="#f9cc89" d="M 49.5,138.5 C 50.4299,142.4 50.7633,146.4 50.5,150.5C 43.5,150.5 36.5,150.5 29.5,150.5C 28.8826,150.389 28.3826,150.056 28,149.5C 26.9766,145.683 27.4766,142.183 29.5,139C 36.1583,138.5 42.825,138.334 49.5,138.5 Z"/></g>
<g><path style="opacity:0.133" fill="#aeaeae" d="M 360.5,146.5 C 361.917,149.34 361.584,152.007 359.5,154.5C 360.092,151.873 360.425,149.206 360.5,146.5 Z"/></g>
<g><path style="opacity:1" fill="#b99f76" d="M 417.5,149.5 C 419.117,150.038 420.784,150.371 422.5,150.5C 427.167,150.5 431.833,150.5 436.5,150.5C 447.833,150.5 459.167,150.5 470.5,150.5C 453.338,151.662 436.005,151.829 418.5,151C 417.944,150.617 417.611,150.117 417.5,149.5 Z"/></g>
<g><path style="opacity:0.498" fill="#595959" d="M 402.5,150.5 C 403.588,152.516 404.588,154.683 405.5,157C 405.43,157.765 405.097,158.265 404.5,158.5C 403.25,155.994 402.584,153.327 402.5,150.5 Z"/></g>
<g><path style="opacity:0.184" fill="#9f9f9f" d="M 13.5,152.5 C 15.534,154.655 15.8674,156.988 14.5,159.5C 14.3259,157.139 13.9926,154.806 13.5,152.5 Z"/></g>
<g><path style="opacity:0.351" fill="#646464" d="M 98.5,150.5 C 98.4162,153.327 97.7496,155.994 96.5,158.5C 95.9033,158.265 95.5699,157.765 95.5,157C 96.412,154.683 97.412,152.516 98.5,150.5 Z"/></g>
<g><path style="opacity:0.272" fill="#aaaaaa" d="M 13.5,162.5 C 13.5,270.167 13.5,377.833 13.5,485.5C 11.7839,485.629 10.1172,485.962 8.5,486.5C 9.28696,484.896 10.6203,484.229 12.5,484.5C 12.1672,376.999 12.5005,269.665 13.5,162.5 Z"/></g>
<g><path style="opacity:0.223" fill="#b5b5b5" d="M 487.5,162.5 C 488.167,269.667 488.833,377.001 489.5,484.5C 490.855,485.188 491.855,486.188 492.5,487.5C 490.956,487.297 489.622,486.63 488.5,485.5C 487.5,377.835 487.167,270.169 487.5,162.5 Z"/></g>
<g><path style="opacity:1" fill="#f6e2c3" d="M 49.5,166.5 C 60.8333,166.5 72.1667,166.5 83.5,166.5C 83.5,272.5 83.5,378.5 83.5,484.5C 65.1667,484.5 46.8333,484.5 28.5,484.5C 28.5,483.5 28.5,482.5 28.5,481.5C 35.5556,483.41 42.889,484.076 50.5,483.5C 50.7105,474.8 50.3772,466.133 49.5,457.5C 56.175,457.666 62.8417,457.5 69.5,457C 72.9371,455.895 75.4371,453.728 77,450.5C 77.1667,433.833 77.3333,417.167 77.5,400.5C 77.6469,382.77 77.1469,365.103 76,347.5C 70.257,337.181 61.4236,332.847 49.5,334.5C 50.4128,328.559 50.7461,322.559 50.5,316.5C 48.2646,316.795 46.2646,316.461 44.5,315.5C 53.0168,315.826 61.3501,315.493 69.5,314.5C 73.3383,313.654 75.8383,311.321 77,307.5C 77.6667,274.167 77.6667,240.833 77,207.5C 73.7569,199.42 67.9235,194.42 59.5,192.5C 57.0521,191.527 54.3854,191.194 51.5,191.5C 52.0882,182.897 51.4215,174.564 49.5,166.5 Z"/></g>
<g><path style="opacity:0.247" fill="#aba9ab" d="M 358.5,170.5 C 358.34,172.199 358.506,173.866 359,175.5C 361.874,176.532 363.374,178.532 363.5,181.5C 362.135,179.14 360.135,177.473 357.5,176.5C 357.205,174.265 357.539,172.265 358.5,170.5 Z"/></g>
<g><path style="opacity:1" fill="#927e5e" d="M 83.5,166.5 C 72.1667,166.5 60.8333,166.5 49.5,166.5C 42.5,166.5 35.5,166.5 28.5,166.5C 28.5,271.5 28.5,376.5 28.5,481.5C 28.5,482.5 28.5,483.5 28.5,484.5C 46.8333,484.5 65.1667,484.5 83.5,484.5C 65.0075,485.497 46.3408,485.83 27.5,485.5C 27.5,378.833 27.5,272.167 27.5,165.5C 46.3408,165.17 65.0075,165.503 83.5,166.5 Z"/></g>
<g><path style="opacity:0.18" fill="#aeaeae" d="M 363.5,185.5 C 363.741,187.898 363.074,189.898 361.5,191.5C 361.595,189.214 362.262,187.214 363.5,185.5 Z"/></g>
<g><path style="opacity:0.016" fill="#a1a1a1" d="M 137.5,185.5 C 138.738,187.214 139.405,189.214 139.5,191.5C 137.926,189.898 137.259,187.898 137.5,185.5 Z"/></g>
<g><path style="opacity:1" fill="#776a5a" d="M 51.5,191.5 C 54.3854,191.194 57.0521,191.527 59.5,192.5C 55.4659,192.505 51.4659,192.838 47.5,193.5C 48.6715,192.655 50.0048,191.989 51.5,191.5 Z"/></g>
<g><path style="opacity:1" fill="#090503" d="M 59.5,192.5 C 67.9235,194.42 73.7569,199.42 77,207.5C 77.6667,240.833 77.6667,274.167 77,307.5C 75.8383,311.321 73.3383,313.654 69.5,314.5C 59.4478,314.784 49.4478,314.45 39.5,313.5C 36.4445,311.737 34.6111,309.07 34,305.5C 33.3333,273.167 33.3333,240.833 34,208.5C 36.2836,201.389 40.7836,196.389 47.5,193.5C 51.4659,192.838 55.4659,192.505 59.5,192.5 Z"/></g>
<g><path style="opacity:1" fill="#0a0705" d="M 441.5,192.5 C 453.992,191.495 462.492,196.828 467,208.5C 467.667,241.5 467.667,274.5 467,307.5C 465.305,310.695 462.805,313.028 459.5,314.5C 452.866,315.497 446.2,315.83 439.5,315.5C 431.999,317.167 426.832,314.5 424,307.5C 423.333,274.167 423.333,240.833 424,207.5C 425.602,202.123 428.769,197.956 433.5,195C 435.909,193.293 438.575,192.46 441.5,192.5 Z"/></g>
<g><path style="opacity:0.11" fill="#a0a0a0" d="M 361.5,191.5 C 360.122,197.26 357.455,202.26 353.5,206.5C 355.896,201.376 358.562,196.376 361.5,191.5 Z"/></g>
<g><path style="opacity:0.122" fill="#979797" d="M 139.5,191.5 C 142.403,197.077 145.737,202.41 149.5,207.5C 144.251,203.54 140.918,198.207 139.5,191.5 Z"/></g>
<g><path style="opacity:1" fill="#fccf8b" d="M 452.5,299.5 C 447.833,299.5 443.167,299.5 438.5,299.5C 438.5,269.833 438.5,240.167 438.5,210.5C 442.875,205.193 447.375,205.193 452,210.5C 452.5,240.165 452.667,269.831 452.5,299.5 Z"/></g>
<g><path style="opacity:1" fill="#b19263" d="M 438.5,210.5 C 438.5,240.167 438.5,269.833 438.5,299.5C 443.167,299.5 447.833,299.5 452.5,299.5C 447.695,300.487 442.695,300.821 437.5,300.5C 437.169,270.329 437.502,240.329 438.5,210.5 Z"/></g>
<g><path style="opacity:1" fill="#f8d094" d="M 62.5,210.5 C 62.5,240.167 62.5,269.833 62.5,299.5C 57.8333,299.5 53.1667,299.5 48.5,299.5C 48.3334,269.831 48.5,240.165 49,210.5C 53.5445,205.234 58.0445,205.234 62.5,210.5 Z"/></g>
<g><path style="opacity:1" fill="#fecf84" d="M 53.5,209.5 C 54.9187,208.549 56.5853,208.216 58.5,208.5C 60.4357,238.404 61.1023,268.404 60.5,298.5C 57.1667,298.5 53.8333,298.5 50.5,298.5C 50.1668,269.826 50.5002,241.159 51.5,212.5C 52.5095,215.337 54.5095,216.67 57.5,216.5C 57.8132,213.163 56.4799,210.829 53.5,209.5 Z"/></g>
<g><path style="opacity:1" fill="#ab9472" d="M 62.5,210.5 C 63.4981,240.329 63.8314,270.329 63.5,300.5C 58.3054,300.821 53.3054,300.487 48.5,299.5C 53.1667,299.5 57.8333,299.5 62.5,299.5C 62.5,269.833 62.5,240.167 62.5,210.5 Z"/></g>
<g><path style="opacity:1" fill="#958363" d="M 326.5,229.5 C 282.167,229.5 237.833,229.5 193.5,229.5C 186.443,229.24 179.443,229.573 172.5,230.5C 172.611,229.883 172.944,229.383 173.5,229C 224.668,228.168 275.668,228.335 326.5,229.5 Z"/></g>
<g><path style="opacity:1" fill="#fcce8a" d="M 193.5,229.5 C 196.399,233.145 196.732,236.978 194.5,241C 187.508,241.5 180.508,241.666 173.5,241.5C 173.167,240.5 172.5,239.833 171.5,239.5C 171.264,236.391 171.597,233.391 172.5,230.5C 179.443,229.573 186.443,229.24 193.5,229.5 Z"/></g>
<g><path style="opacity:0.69" fill="#434343" d="M 342.5,227.5 C 343.766,233.37 343.766,239.37 342.5,245.5C 342.337,239.724 342.337,233.724 342.5,227.5 Z"/></g>
<g><path style="opacity:0.403" fill="#403f40" d="M 160.5,222.5 C 157.878,228.873 156.878,235.539 157.5,242.5C 156.352,238.019 156.185,233.352 157,228.5C 157.424,225.975 158.59,223.975 160.5,222.5 Z"/></g>
<g><path style="opacity:1" fill="#f5d4a4" d="M 193.5,229.5 C 237.833,229.5 282.167,229.5 326.5,229.5C 327.222,229.918 327.722,230.584 328,231.5C 328.497,234.146 328.664,236.813 328.5,239.5C 327.373,240.122 326.373,240.955 325.5,242C 274.665,242.832 223.998,242.665 173.5,241.5C 180.508,241.666 187.508,241.5 194.5,241C 196.732,236.978 196.399,233.145 193.5,229.5 Z"/></g>
<g><path style="opacity:1" fill="#1a1001" d="M 171.5,239.5 C 172.5,239.833 173.167,240.5 173.5,241.5C 223.998,242.665 274.665,242.832 325.5,242C 326.373,240.955 327.373,240.122 328.5,239.5C 328.725,241.716 327.892,243.383 326,244.5C 275.667,243.167 225.333,243.167 175,244.5C 173.933,243.809 172.766,243.309 171.5,243C 172.171,242.014 172.171,240.847 171.5,239.5 Z"/></g>
<g><path style="opacity:0.349" fill="#a0a0a0" d="M 349.5,249.5 C 353.096,252.357 355.429,256.024 356.5,260.5C 353.92,257.011 351.587,253.344 349.5,249.5 Z"/></g>
<g><path style="opacity:0.357" fill="#848684" d="M 148.5,252.5 C 147.66,254.853 146.326,256.853 144.5,258.5C 144.845,255.802 146.178,253.802 148.5,252.5 Z"/></g>
<g><path style="opacity:1" fill="#fece85" d="M 167.5,257.5 C 222.497,258.095 277.497,258.762 332.5,259.5C 334.865,260.085 336.865,261.252 338.5,263C 337.692,263.308 337.025,263.808 336.5,264.5C 337.833,265.167 339.167,265.833 340.5,266.5C 340.291,267.086 339.957,267.586 339.5,268C 315.816,268.804 292.15,268.637 268.5,267.5C 265.488,268.172 262.488,268.839 259.5,269.5C 259.915,272.368 258.915,274.535 256.5,276C 251.511,276.499 246.511,276.666 241.5,276.5C 243.819,272.145 242.486,270.145 237.5,270.5C 236.833,270.5 236.167,270.5 235.5,270.5C 210.005,269.502 184.339,269.169 158.5,269.5C 158.5,267.833 158.5,266.167 158.5,264.5C 159.167,261.833 160.833,260.167 163.5,259.5C 164.287,257.896 165.62,257.229 167.5,257.5 Z"/></g>
<g><path style="opacity:0.116" fill="#9f9f9f" d="M 356.5,260.5 C 358.223,262.78 358.889,265.447 358.5,268.5C 357.469,266.039 356.802,263.373 356.5,260.5 Z"/></g>
<g><path style="opacity:1" fill="#fdc265" d="M 163.5,259.5 C 169.501,258.357 175.501,258.357 181.5,259.5C 179.949,262.359 178.949,265.359 178.5,268.5C 172.167,268.5 165.833,268.5 159.5,268.5C 159.517,264.808 160.85,261.808 163.5,259.5 Z"/></g>
<g><path style="opacity:1" fill="#dbb77f" d="M 167.5,257.5 C 222.332,256.335 277.332,256.168 332.5,257C 336.878,258.677 340.212,261.511 342.5,265.5C 342.5,266.833 342.5,268.167 342.5,269.5C 316.661,269.169 290.995,269.502 265.5,270.5C 263.973,270.427 262.973,271.094 262.5,272.5C 261.599,273.29 260.932,274.29 260.5,275.5C 254.118,277.399 247.451,278.066 240.5,277.5C 240.608,275.486 239.942,273.82 238.5,272.5C 238.167,271.833 237.833,271.167 237.5,270.5C 242.486,270.145 243.819,272.145 241.5,276.5C 246.511,276.666 251.511,276.499 256.5,276C 258.915,274.535 259.915,272.368 259.5,269.5C 262.488,268.839 265.488,268.172 268.5,267.5C 292.15,268.637 315.816,268.804 339.5,268C 339.957,267.586 340.291,267.086 340.5,266.5C 339.167,265.833 337.833,265.167 336.5,264.5C 337.025,263.808 337.692,263.308 338.5,263C 336.865,261.252 334.865,260.085 332.5,259.5C 277.497,258.762 222.497,258.095 167.5,257.5 Z"/></g>
<g><path style="opacity:0.415" fill="#848484" d="M 144.5,258.5 C 142.985,269.564 141.985,280.564 141.5,291.5C 141.334,282.161 141.5,272.827 142,263.5C 142.374,261.509 143.207,259.842 144.5,258.5 Z"/></g>
<g><path style="opacity:1" fill="#b79768" d="M 158.5,264.5 C 158.5,266.167 158.5,267.833 158.5,269.5C 184.339,269.169 210.005,269.502 235.5,270.5C 209.167,270.5 182.833,270.5 156.5,270.5C 156.259,268.102 156.926,266.102 158.5,264.5 Z"/></g>
<g><path style="opacity:1" fill="#b7986d" d="M 342.5,265.5 C 343.451,266.919 343.784,268.585 343.5,270.5C 317.5,270.5 291.5,270.5 265.5,270.5C 290.995,269.502 316.661,269.169 342.5,269.5C 342.5,268.167 342.5,266.833 342.5,265.5 Z"/></g>
<g><path style="opacity:1" fill="#402d12" d="M 156.5,270.5 C 182.833,270.5 209.167,270.5 235.5,270.5C 236.167,270.5 236.833,270.5 237.5,270.5C 237.833,271.167 238.167,271.833 238.5,272.5C 211.039,271.85 183.706,271.183 156.5,270.5 Z"/></g>
<g><path style="opacity:1" fill="#402d14" d="M 265.5,270.5 C 291.5,270.5 317.5,270.5 343.5,270.5C 316.628,271.183 289.628,271.85 262.5,272.5C 262.973,271.094 263.973,270.427 265.5,270.5 Z"/></g>
<g><path style="opacity:1" fill="#fde8c8" d="M 260.5,275.5 C 259.813,280.494 261.813,283.494 266.5,284.5C 291.661,285.498 316.995,285.831 342.5,285.5C 342.5,351.833 342.5,418.167 342.5,484.5C 331.167,484.5 319.833,484.5 308.5,484.5C 308.832,444.33 308.499,404.33 307.5,364.5C 303.345,340.517 289.679,324.85 266.5,317.5C 261.039,315.118 255.205,314.118 249,314.5C 245.833,314.667 242.667,314.833 239.5,315C 238.263,315.232 237.263,315.732 236.5,316.5C 221.542,320.243 209.709,328.576 201,341.5C 198.117,346.599 195.783,351.933 194,357.5C 192.522,399.786 192.022,442.119 192.5,484.5C 187.833,484.5 183.167,484.5 178.5,484.5C 179.496,418.238 179.83,351.904 179.5,285.5C 198.008,285.83 216.341,285.497 234.5,284.5C 238.59,283.998 240.59,281.665 240.5,277.5C 247.451,278.066 254.118,277.399 260.5,275.5 Z"/></g>
<g><path style="opacity:1" fill="#a9977b" d="M 234.5,284.5 C 216.341,285.497 198.008,285.83 179.5,285.5C 172.167,285.5 164.833,285.5 157.5,285.5C 157.5,351.833 157.5,418.167 157.5,484.5C 164.5,484.5 171.5,484.5 178.5,484.5C 183.167,484.5 187.833,484.5 192.5,484.5C 180.678,485.495 168.678,485.828 156.5,485.5C 156.5,418.5 156.5,351.5 156.5,284.5C 182.5,284.5 208.5,284.5 234.5,284.5 Z"/></g>
<g><path style="opacity:1" fill="#fedba8" d="M 179.5,285.5 C 179.83,351.904 179.496,418.238 178.5,484.5C 171.5,484.5 164.5,484.5 157.5,484.5C 157.5,418.167 157.5,351.833 157.5,285.5C 164.833,285.5 172.167,285.5 179.5,285.5 Z"/></g>
<g><path style="opacity:1" fill="#bfb19c" d="M 266.5,284.5 C 292.167,284.5 317.833,284.5 343.5,284.5C 343.5,351.167 343.5,417.833 343.5,484.5C 343.167,484.5 342.833,484.5 342.5,484.5C 342.5,418.167 342.5,351.833 342.5,285.5C 316.995,285.831 291.661,285.498 266.5,284.5 Z"/></g>
<g><path style="opacity:0.027" fill="#b0b0b0" d="M 358.5,268.5 C 359.492,275.982 359.825,283.648 359.5,291.5C 373.5,291.5 387.5,291.5 401.5,291.5C 387.343,292.496 373.01,292.829 358.5,292.5C 358.5,284.5 358.5,276.5 358.5,268.5 Z"/></g>
<g><path style="opacity:1" fill="#786c5c" d="M 39.5,313.5 C 49.4478,314.45 59.4478,314.784 69.5,314.5C 61.3501,315.493 53.0168,315.826 44.5,315.5C 42.302,315.88 40.6354,315.213 39.5,313.5 Z"/></g>
<g><path style="opacity:1" fill="#655a4a" d="M 266.5,317.5 C 256.565,315.337 246.565,315.004 236.5,316.5C 237.263,315.732 238.263,315.232 239.5,315C 242.667,314.833 245.833,314.667 249,314.5C 255.205,314.118 261.039,315.118 266.5,317.5 Z"/></g>
<g><path style="opacity:1" fill="#fec264" d="M 114.5,307.5 C 114.5,307.833 114.5,308.167 114.5,308.5C 115.488,366.804 115.822,425.137 115.5,483.5C 115.5,483.833 115.5,484.167 115.5,484.5C 110.167,484.5 104.833,484.5 99.5,484.5C 99.5,425.5 99.5,366.5 99.5,307.5C 104.5,307.5 109.5,307.5 114.5,307.5 Z"/></g>
<g><path style="opacity:1" fill="#c7a675" d="M 114.5,308.5 C 114.5,308.167 114.5,307.833 114.5,307.5C 123.5,307.5 132.5,307.5 141.5,307.5C 142.833,366.5 142.833,425.5 141.5,484.5C 132.833,484.5 124.167,484.5 115.5,484.5C 115.5,484.167 115.5,483.833 115.5,483.5C 123.833,483.5 132.167,483.5 140.5,483.5C 140.5,425.167 140.5,366.833 140.5,308.5C 131.833,308.5 123.167,308.5 114.5,308.5 Z"/></g>
<g><path style="opacity:1" fill="#fece85" d="M 114.5,308.5 C 123.167,308.5 131.833,308.5 140.5,308.5C 140.5,366.833 140.5,425.167 140.5,483.5C 132.167,483.5 123.833,483.5 115.5,483.5C 115.822,425.137 115.488,366.804 114.5,308.5 Z"/></g>
<g><path style="opacity:1" fill="#ac8a52" d="M 141.5,307.5 C 132.5,307.5 123.5,307.5 114.5,307.5C 109.5,307.5 104.5,307.5 99.5,307.5C 99.5,366.5 99.5,425.5 99.5,484.5C 104.833,484.5 110.167,484.5 115.5,484.5C 124.167,484.5 132.833,484.5 141.5,484.5C 127.343,485.496 113.01,485.829 98.5,485.5C 98.5,425.833 98.5,366.167 98.5,306.5C 113.01,306.171 127.343,306.504 141.5,307.5 Z"/></g>
<g><path style="opacity:1" fill="#58401a" d="M 402.5,484.5 C 402.5,425.5 402.5,366.5 402.5,307.5C 393.833,307.5 385.167,307.5 376.5,307.5C 370.833,307.5 365.167,307.5 359.5,307.5C 358.501,366.331 358.168,425.331 358.5,484.5C 357.501,425.336 357.168,366.002 357.5,306.5C 372.833,306.5 388.167,306.5 403.5,306.5C 403.832,366.002 403.499,425.336 402.5,484.5 Z"/></g>
<g><path style="opacity:1" fill="#facb83" d="M 359.5,307.5 C 359.5,366.167 359.5,424.833 359.5,483.5C 365.167,483.5 370.833,483.5 376.5,483.5C 376.5,424.833 376.5,366.167 376.5,307.5C 385.167,307.5 393.833,307.5 402.5,307.5C 402.5,366.5 402.5,425.5 402.5,484.5C 387.833,484.5 373.167,484.5 358.5,484.5C 358.168,425.331 358.501,366.331 359.5,307.5 Z"/></g>
<g><path style="opacity:1" fill="#fec266" d="M 359.5,307.5 C 365.167,307.5 370.833,307.5 376.5,307.5C 376.5,366.167 376.5,424.833 376.5,483.5C 370.833,483.5 365.167,483.5 359.5,483.5C 359.5,424.833 359.5,366.167 359.5,307.5 Z"/></g>
<g><path style="opacity:1" fill="#fedba6" d="M 251.5,329.5 C 261.406,329.908 270.073,333.242 277.5,339.5C 278.877,342.898 280.877,345.898 283.5,348.5C 283.167,349.167 282.833,349.833 282.5,350.5C 283.991,351.244 285.491,351.91 287,352.5C 288.043,355.757 288.543,359.09 288.5,362.5C 289.5,362.5 290.5,362.5 291.5,362.5C 291.5,402.5 291.5,442.5 291.5,482.5C 290.167,482.5 288.833,482.5 287.5,482.5C 287.667,460.164 287.5,437.831 287,415.5C 284.611,411.808 284.445,408.142 286.5,404.5C 285.282,404.891 284.448,404.224 284,402.5C 283.282,403.451 282.449,403.617 281.5,403C 280.292,400.75 278.959,398.583 277.5,396.5C 277.709,395.914 278.043,395.414 278.5,395C 276.275,394.439 274.275,393.439 272.5,392C 273.662,391.173 274.829,390.34 276,389.5C 276.5,389.667 277,389.833 277.5,390C 279.675,392.525 281.342,395.358 282.5,398.5C 285.846,396.438 286.346,393.772 284,390.5C 281.333,388.5 278.667,386.5 276,384.5C 272.169,385.992 269.002,388.326 266.5,391.5C 265.167,390.833 264.167,389.833 263.5,388.5C 262.167,388.167 260.833,387.833 259.5,387.5C 252.501,386.535 245.501,386.369 238.5,387C 237.061,386.009 236.061,384.676 235.5,383C 234.207,382.51 232.873,382.343 231.5,382.5C 231.236,386.492 230.236,390.159 228.5,393.5C 228.567,391.599 228.233,389.766 227.5,388C 227.63,386.941 228.13,386.108 229,385.5C 229.005,375.386 230.005,365.386 232,355.5C 233.682,352.136 235.349,348.802 237,345.5C 241.693,339.977 246.526,334.644 251.5,329.5 Z"/></g>
<g><path style="opacity:1" fill="#040201" d="M 49.5,334.5 C 61.4236,332.847 70.257,337.181 76,347.5C 77.1469,365.103 77.6469,382.77 77.5,400.5C 77.3333,417.167 77.1667,433.833 77,450.5C 75.4371,453.728 72.9371,455.895 69.5,457C 62.8417,457.5 56.175,457.666 49.5,457.5C 43.2723,458.711 38.6057,456.711 35.5,451.5C 34.528,418.191 34.1947,384.858 34.5,351.5C 37.0115,343.654 42.0115,337.987 49.5,334.5 Z"/></g>
<g><path style="opacity:1" fill="#060301" d="M 439.5,334.5 C 450.688,332.93 459.022,336.93 464.5,346.5C 464.372,348.655 464.872,350.655 466,352.5C 466.5,384.498 466.667,416.498 466.5,448.5C 465.424,452.745 462.758,455.578 458.5,457C 451.842,457.5 445.175,457.666 438.5,457.5C 431.872,458.769 427.039,456.436 424,450.5C 423.333,416.833 423.333,383.167 424,349.5C 427.106,342.225 432.272,337.225 439.5,334.5 Z"/></g>
<g><path style="opacity:1" fill="#fbdaaa" d="M 49.5,166.5 C 51.4215,174.564 52.0882,182.897 51.5,191.5C 50.0048,191.989 48.6715,192.655 47.5,193.5C 40.7836,196.389 36.2836,201.389 34,208.5C 33.3333,240.833 33.3333,273.167 34,305.5C 34.6111,309.07 36.4445,311.737 39.5,313.5C 40.6354,315.213 42.302,315.88 44.5,315.5C 46.2646,316.461 48.2646,316.795 50.5,316.5C 50.7461,322.559 50.4128,328.559 49.5,334.5C 42.0115,337.987 37.0115,343.654 34.5,351.5C 33.3359,383.664 33.1693,415.997 34,448.5C 34.2321,449.737 34.7321,450.737 35.5,451.5C 38.6057,456.711 43.2723,458.711 49.5,457.5C 50.3772,466.133 50.7105,474.8 50.5,483.5C 42.889,484.076 35.5556,483.41 28.5,481.5C 28.5,376.5 28.5,271.5 28.5,166.5C 35.5,166.5 42.5,166.5 49.5,166.5 Z"/></g>
<g><path style="opacity:1" fill="#fce7c8" d="M 439.5,166.5 C 450.5,166.5 461.5,166.5 472.5,166.5C 472.5,272.5 472.5,378.5 472.5,484.5C 461.5,484.5 450.5,484.5 439.5,484.5C 439.703,475.202 439.369,466.202 438.5,457.5C 445.175,457.666 451.842,457.5 458.5,457C 462.758,455.578 465.424,452.745 466.5,448.5C 467.664,416.336 467.831,384.003 467,351.5C 466.626,349.509 465.793,347.842 464.5,346.5C 459.022,336.93 450.688,332.93 439.5,334.5C 439.397,327.956 439.397,321.623 439.5,315.5C 446.2,315.83 452.866,315.497 459.5,314.5C 462.805,313.028 465.305,310.695 467,307.5C 467.667,274.5 467.667,241.5 467,208.5C 462.492,196.828 453.992,191.495 441.5,192.5C 439.575,184.101 438.908,175.434 439.5,166.5 Z"/></g>
<g><path style="opacity:1" fill="#f4c883" d="M 251.5,329.5 C 246.526,334.644 241.693,339.977 237,345.5C 235.349,348.802 233.682,352.136 232,355.5C 230.005,365.386 229.005,375.386 229,385.5C 228.13,386.108 227.63,386.941 227.5,388C 228.233,389.766 228.567,391.599 228.5,393.5C 227.533,394.806 226.199,395.473 224.5,395.5C 224.5,396.833 224.5,398.167 224.5,399.5C 220.855,402.774 218.188,406.774 216.5,411.5C 214.955,412.23 214.122,413.563 214,415.5C 213.5,438.498 213.333,461.498 213.5,484.5C 211.5,484.5 209.5,484.5 207.5,484.5C 206.335,445.669 206.169,406.669 207,367.5C 211.879,343.118 226.712,330.451 251.5,329.5 Z"/></g>
<g><path style="opacity:1" fill="#8c7d6a" d="M 417.5,166.5 C 435.993,165.503 454.659,165.17 473.5,165.5C 473.5,272.167 473.5,378.833 473.5,485.5C 454.659,485.83 435.993,485.497 417.5,484.5C 424.833,484.5 432.167,484.5 439.5,484.5C 450.5,484.5 461.5,484.5 472.5,484.5C 472.5,378.5 472.5,272.5 472.5,166.5C 461.5,166.5 450.5,166.5 439.5,166.5C 432.167,166.5 424.833,166.5 417.5,166.5 Z"/></g>
<g><path style="opacity:1" fill="#2d2116" d="M 59.5,349.5 C 61.0443,349.703 62.3777,350.37 63.5,351.5C 64.8297,381.997 64.8297,412.331 63.5,442.5C 63.8314,412.329 63.4981,382.329 62.5,352.5C 61.1667,351.833 60.1667,350.833 59.5,349.5 Z"/></g>
<g><path style="opacity:1" fill="#392c1b" d="M 34.5,351.5 C 34.1947,384.858 34.528,418.191 35.5,451.5C 34.7321,450.737 34.2321,449.737 34,448.5C 33.1693,415.997 33.3359,383.664 34.5,351.5 Z"/></g>
<g><path style="opacity:1" fill="#fdce85" d="M 59.5,349.5 C 60.1667,350.833 61.1667,351.833 62.5,352.5C 62.5,352.833 62.5,353.167 62.5,353.5C 61.5019,382.662 61.1686,411.995 61.5,441.5C 57.5,441.5 53.5,441.5 49.5,441.5C 49.5,411.833 49.5,382.167 49.5,352.5C 51.8829,348.542 55.2163,347.542 59.5,349.5 Z"/></g>
<g><path style="opacity:1" fill="#463a31" d="M 464.5,346.5 C 465.793,347.842 466.626,349.509 467,351.5C 467.831,384.003 467.664,416.336 466.5,448.5C 466.667,416.498 466.5,384.498 466,352.5C 464.872,350.655 464.372,348.655 464.5,346.5 Z"/></g>
<g><path style="opacity:1" fill="#e6cda3" d="M 452.5,442.5 C 451.5,442.5 450.5,442.5 449.5,442.5C 449.783,441.711 450.283,441.044 451,440.5C 451.667,411.5 451.667,382.5 451,353.5C 450.667,354.167 450.333,354.833 450,355.5C 449.727,353.671 448.893,352.171 447.5,351C 444.779,350.398 442.113,350.565 439.5,351.5C 443.753,347.44 447.92,347.774 452,352.5C 452.5,382.498 452.667,412.498 452.5,442.5 Z"/></g>
<g><path style="opacity:1" fill="#f5d4a1" d="M 49.5,352.5 C 49.5,382.167 49.5,411.833 49.5,441.5C 53.5,441.5 57.5,441.5 61.5,441.5C 61.1686,411.995 61.5019,382.662 62.5,353.5C 62.5,383.167 62.5,412.833 62.5,442.5C 57.8333,442.5 53.1667,442.5 48.5,442.5C 48.1686,412.329 48.5019,382.329 49.5,352.5 Z"/></g>
<g><path style="opacity:1" fill="#9e8666" d="M 62.5,352.5 C 63.4981,382.329 63.8314,412.329 63.5,442.5C 58.5,443.833 53.5,443.833 48.5,442.5C 53.1667,442.5 57.8333,442.5 62.5,442.5C 62.5,412.833 62.5,383.167 62.5,353.5C 62.5,353.167 62.5,352.833 62.5,352.5 Z"/></g>
<g><path style="opacity:1" fill="#a38557" d="M 439.5,351.5 C 438.515,381.79 438.182,412.123 438.5,442.5C 442.167,442.5 445.833,442.5 449.5,442.5C 450.5,442.5 451.5,442.5 452.5,442.5C 447.695,443.487 442.695,443.821 437.5,443.5C 437.333,413.165 437.5,382.832 438,352.5C 438.383,351.944 438.883,351.611 439.5,351.5 Z"/></g>
<g><path style="opacity:1" fill="#fecf87" d="M 449.5,442.5 C 445.833,442.5 442.167,442.5 438.5,442.5C 438.182,412.123 438.515,381.79 439.5,351.5C 442.113,350.565 444.779,350.398 447.5,351C 448.893,352.171 449.727,353.671 450,355.5C 450.333,354.833 450.667,354.167 451,353.5C 451.667,382.5 451.667,411.5 451,440.5C 450.283,441.044 449.783,441.711 449.5,442.5 Z"/></g>
<g><path style="opacity:1" fill="#f2d3a4" d="M 277.5,339.5 C 285.845,346.192 290.845,354.858 292.5,365.5C 292.5,405.167 292.5,444.833 292.5,484.5C 290.5,484.5 288.5,484.5 286.5,484.5C 286.831,462.66 286.497,440.994 285.5,419.5C 282.466,402.631 272.466,392.464 255.5,389C 243.363,387.412 233.029,390.912 224.5,399.5C 224.5,398.167 224.5,396.833 224.5,395.5C 226.199,395.473 227.533,394.806 228.5,393.5C 230.236,390.159 231.236,386.492 231.5,382.5C 232.873,382.343 234.207,382.51 235.5,383C 236.061,384.676 237.061,386.009 238.5,387C 245.501,386.369 252.501,386.535 259.5,387.5C 260.833,387.833 262.167,388.167 263.5,388.5C 264.167,389.833 265.167,390.833 266.5,391.5C 269.002,388.326 272.169,385.992 276,384.5C 278.667,386.5 281.333,388.5 284,390.5C 286.346,393.772 285.846,396.438 282.5,398.5C 281.342,395.358 279.675,392.525 277.5,390C 277,389.833 276.5,389.667 276,389.5C 274.829,390.34 273.662,391.173 272.5,392C 274.275,393.439 276.275,394.439 278.5,395C 278.043,395.414 277.709,395.914 277.5,396.5C 278.959,398.583 280.292,400.75 281.5,403C 282.449,403.617 283.282,403.451 284,402.5C 284.448,404.224 285.282,404.891 286.5,404.5C 284.445,408.142 284.611,411.808 287,415.5C 287.5,437.831 287.667,460.164 287.5,482.5C 288.833,482.5 290.167,482.5 291.5,482.5C 291.5,442.5 291.5,402.5 291.5,362.5C 290.5,362.5 289.5,362.5 288.5,362.5C 288.543,359.09 288.043,355.757 287,352.5C 285.491,351.91 283.991,351.244 282.5,350.5C 282.833,349.833 283.167,349.167 283.5,348.5C 280.877,345.898 278.877,342.898 277.5,339.5 Z"/></g>
<g><path style="opacity:1" fill="#93703c" d="M 246.5,403.5 C 250.265,402.226 253.931,402.559 257.5,404.5C 256.833,404.5 256.167,404.5 255.5,404.5C 252.518,404.037 249.518,403.704 246.5,403.5 Z"/></g>
<g><path style="opacity:1" fill="#fdce85" d="M 255.5,404.5 C 256.167,404.5 256.833,404.5 257.5,404.5C 259.882,405.351 261.882,406.684 263.5,408.5C 265.874,411.897 267.874,415.564 269.5,419.5C 270.5,441.156 270.833,462.823 270.5,484.5C 263.5,484.5 256.5,484.5 249.5,484.5C 251.305,464.063 252.139,443.396 252,422.5C 252.333,419.5 252.667,416.5 253,413.5C 255.803,410.941 256.636,407.941 255.5,404.5 Z"/></g>
<g><path style="opacity:1" fill="#fdc266" d="M 246.5,403.5 C 249.518,403.704 252.518,404.037 255.5,404.5C 256.636,407.941 255.803,410.941 253,413.5C 252.667,416.5 252.333,419.5 252,422.5C 252.139,443.396 251.305,464.063 249.5,484.5C 242.833,484.5 236.167,484.5 229.5,484.5C 229.333,463.497 229.5,442.497 230,421.5C 230.44,419.134 230.94,416.801 231.5,414.5C 234.525,408.142 239.525,404.475 246.5,403.5 Z"/></g>
<g><path style="opacity:1" fill="#b29a70" d="M 216.5,411.5 C 215.815,413.414 215.315,415.414 215,417.5C 214.5,440.164 214.333,462.831 214.5,485.5C 211.941,485.802 209.607,485.468 207.5,484.5C 209.5,484.5 211.5,484.5 213.5,484.5C 213.333,461.498 213.5,438.498 214,415.5C 214.122,413.563 214.955,412.23 216.5,411.5 Z"/></g>
<g><path style="opacity:1" fill="#7e6135" d="M 231.5,414.5 C 230.94,416.801 230.44,419.134 230,421.5C 229.5,442.497 229.333,463.497 229.5,484.5C 236.167,484.5 242.833,484.5 249.5,484.5C 256.5,484.5 263.5,484.5 270.5,484.5C 270.833,484.5 271.167,484.5 271.5,484.5C 257.343,485.496 243.01,485.829 228.5,485.5C 228.333,463.164 228.5,440.831 229,418.5C 229.2,416.68 230.034,415.347 231.5,414.5 Z"/></g>
<g><path style="opacity:1" fill="#b08f60" d="M 263.5,408.5 C 266.889,410.725 269.389,413.725 271,417.5C 271.5,439.831 271.667,462.164 271.5,484.5C 271.167,484.5 270.833,484.5 270.5,484.5C 270.833,462.823 270.5,441.156 269.5,419.5C 267.874,415.564 265.874,411.897 263.5,408.5 Z"/></g>
<g><path style="opacity:1" fill="#978264" d="M 292.5,365.5 C 293.499,405.33 293.832,445.33 293.5,485.5C 290.833,485.5 288.167,485.5 285.5,485.5C 285.5,463.5 285.5,441.5 285.5,419.5C 286.497,440.994 286.831,462.66 286.5,484.5C 288.5,484.5 290.5,484.5 292.5,484.5C 292.5,444.833 292.5,405.167 292.5,365.5 Z"/></g>
<g><path style="opacity:1" fill="#f5d4a3" d="M 417.5,166.5 C 424.833,166.5 432.167,166.5 439.5,166.5C 438.908,175.434 439.575,184.101 441.5,192.5C 438.575,192.46 435.909,193.293 433.5,195C 428.769,197.956 425.602,202.123 424,207.5C 423.333,240.833 423.333,274.167 424,307.5C 426.832,314.5 431.999,317.167 439.5,315.5C 439.397,321.623 439.397,327.956 439.5,334.5C 432.272,337.225 427.106,342.225 424,349.5C 423.333,383.167 423.333,416.833 424,450.5C 427.039,456.436 431.872,458.769 438.5,457.5C 439.369,466.202 439.703,475.202 439.5,484.5C 432.167,484.5 424.833,484.5 417.5,484.5C 417.5,378.5 417.5,272.5 417.5,166.5 Z"/></g>
<g><path style="opacity:1" fill="#6f6353" d="M 307.5,364.5 C 308.499,404.33 308.832,444.33 308.5,484.5C 319.833,484.5 331.167,484.5 342.5,484.5C 342.833,484.5 343.167,484.5 343.5,484.5C 331.678,485.495 319.678,485.828 307.5,485.5C 307.5,445.167 307.5,404.833 307.5,364.5 Z"/></g>
<g><path style="opacity:0.137" fill="#c4c4c4" d="M 493.5,488.5 C 494.634,490.966 494.801,493.633 494,496.5C 493.617,497.056 493.117,497.389 492.5,497.5C 493.299,494.57 493.632,491.57 493.5,488.5 Z"/></g>
<g><path style="opacity:0.02" fill="#c0c0c0" d="M 6.5,488.5 C 6.36772,491.57 6.70105,494.57 7.5,497.5C 6.88258,497.389 6.38258,497.056 6,496.5C 5.19927,493.633 5.36594,490.966 6.5,488.5 Z"/></g>
<g><path style="opacity:0.216" fill="#b8b8b8" d="M 7.5,497.5 C 9.02694,497.427 10.0269,498.094 10.5,499.5C 9.83333,499.5 9.16667,499.5 8.5,499.5C 8.16667,498.833 7.83333,498.167 7.5,497.5 Z"/></g>
</svg>
