<?xml version="1.0" encoding="UTF-8"?>
<!DOCTYPE svg PUBLIC "-//W3C//DTD SVG 1.1//EN" "http://www.w3.org/Graphics/SVG/1.1/DTD/svg11.dtd">
<svg xmlns="http://www.w3.org/2000/svg" version="1.1" width="500px" height="500px" style="shape-rendering:geometricPrecision; text-rendering:geometricPrecision; image-rendering:optimizeQuality; fill-rule:evenodd; clip-rule:evenodd" xmlns:xlink="http://www.w3.org/1999/xlink">
<g><path style="opacity:0.994" fill="#090807" d="M 266.5,14.5 C 267.845,16.6968 269.011,19.0302 270,21.5C 271.388,21.2144 272.888,21.5477 274.5,22.5C 283.918,31.9232 293.585,40.9232 303.5,49.5C 303.5,51.5 304.5,52.5 306.5,52.5C 308.5,56.5 311.5,59.5 315.5,61.5C 322.131,67.6306 328.631,73.964 335,80.5C 335.5,78 336,75.5 336.5,73C 335.242,66.0142 335.242,59.1808 336.5,52.5C 337.537,51.0697 338.204,49.403 338.5,47.5C 338.5,46.8333 338.833,46.5 339.5,46.5C 343.312,45.9736 346.979,45.3069 350.5,44.5C 375.833,44.5 401.167,44.5 426.5,44.5C 431.698,45.2588 437.031,45.9254 442.5,46.5C 443.594,48.3594 444.427,50.3594 445,52.5C 445.5,61.8274 445.666,71.1607 445.5,80.5C 445.759,84.2368 444.093,86.5702 440.5,87.5C 438.143,87.6633 435.81,87.4966 433.5,87C 432.934,86.0053 432.267,85.172 431.5,84.5C 430.56,76.2212 430.227,67.8878 430.5,59.5C 404.328,59.1689 378.328,59.5022 352.5,60.5C 352.333,73.1711 352.5,85.8377 353,98.5C 378.036,122.371 403.203,146.038 428.5,169.5C 428.56,170.043 428.893,170.376 429.5,170.5C 430.5,151.512 430.833,132.512 430.5,113.5C 431.744,109.588 434.411,107.588 438.5,107.5C 443.19,108.026 445.69,110.692 446,115.5C 446.744,138.18 446.577,160.847 445.5,183.5C 444.285,184.779 444.618,185.779 446.5,186.5C 454.2,194.202 462.2,201.535 470.5,208.5C 470.833,210.833 472.167,212.167 474.5,212.5C 477.167,217.167 480.833,220.833 485.5,223.5C 490.167,227.833 494.833,232.167 499.5,236.5C 499.5,238.5 499.5,240.5 499.5,242.5C 488.315,252.78 476.648,262.614 464.5,272C 461.697,272.755 459.03,272.422 456.5,271C 452.333,266.833 448.167,262.667 444,258.5C 443.814,300.15 443.647,341.816 443.5,383.5C 443.5,396.167 443.5,408.833 443.5,421.5C 459.833,421.5 476.167,421.5 492.5,421.5C 495.652,421.571 497.986,422.905 499.5,425.5C 499.5,448.167 499.5,470.833 499.5,493.5C 497.99,494.836 496.323,496.003 494.5,497C 331.167,497.667 167.833,497.667 4.5,497C 2.67694,496.003 1.01027,494.836 -0.5,493.5C -0.5,470.833 -0.5,448.167 -0.5,425.5C 1.01439,422.905 3.34772,421.571 6.5,421.5C 22.8333,421.5 39.1667,421.5 55.5,421.5C 55.5,394.833 55.5,368.167 55.5,341.5C 55.5,341.167 55.5,340.833 55.5,340.5C 56.5512,338.071 57.8845,335.738 59.5,333.5C 63.4331,332.857 66.7664,333.857 69.5,336.5C 70.4836,365.123 70.8169,393.789 70.5,422.5C 75.5,422.5 80.5,422.5 85.5,422.5C 88.617,422.642 91.117,423.976 93,426.5C 93.4999,444.497 93.6666,462.497 93.5,480.5C 95.9479,481.473 98.6146,481.806 101.5,481.5C 101.5,412.5 101.5,343.5 101.5,274.5C 101.932,273.29 102.599,272.29 103.5,271.5C 104.756,271.539 105.756,271.039 106.5,270C 148.832,269.5 191.165,269.333 233.5,269.5C 236.189,270.189 237.856,271.856 238.5,274.5C 238.5,343.833 238.5,413.167 238.5,482.5C 245.687,482.825 252.687,482.491 259.5,481.5C 260.497,463.341 260.83,445.008 260.5,426.5C 262.052,423.888 264.386,422.555 267.5,422.5C 321.167,422.5 374.833,422.5 428.5,422.5C 428.832,362.331 428.499,302.331 427.5,242.5C 368.437,185.435 309.104,128.768 249.5,72.5C 190.15,128.518 131.15,184.851 72.5,241.5C 71.8826,241.611 71.3826,241.944 71,242.5C 70.8124,264.876 70.3124,287.209 69.5,309.5C 68.9423,310.79 67.9423,311.623 66.5,312C 64.1902,312.497 61.8568,312.663 59.5,312.5C 57.5891,312.426 56.4224,311.426 56,309.5C 55.6667,306.833 55.3333,304.167 55,301.5C 55.3231,286.957 55.3231,272.623 55,258.5C 50.8333,262.667 46.6667,266.833 42.5,271C 39.9699,272.422 37.3033,272.755 34.5,272C 22.3516,262.614 10.6849,252.78 -0.5,242.5C -0.5,240.5 -0.5,238.5 -0.5,236.5C 3.83333,232.5 8.16667,228.5 12.5,224.5C 18.7762,219.893 24.4428,214.559 29.5,208.5C 37.4735,200.861 45.4735,193.194 53.5,185.5C 60.11,180.559 66.11,174.892 71.5,168.5C 79.1402,161.194 86.8069,153.861 94.5,146.5C 101.833,141.167 108.167,134.833 113.5,127.5C 121.133,121.203 128.466,114.536 135.5,107.5C 142.778,101.891 149.444,95.5577 155.5,88.5C 162.474,81.8611 169.474,75.1944 176.5,68.5C 184.111,62.5573 191.111,55.8906 197.5,48.5C 204.891,40.954 212.558,33.6206 220.5,26.5C 226.489,22.177 231.822,17.177 236.5,11.5C 239.71,6.61362 244.043,3.28029 249.5,1.5C 251.791,1.6221 253.791,2.45543 255.5,4C 259.062,7.73163 262.729,11.2316 266.5,14.5 Z"/></g>
<g><path style="opacity:0.498" fill="#6e7070" d="M 236.5,11.5 C 231.822,17.177 226.489,22.177 220.5,26.5C 225.204,20.7949 230.537,15.7949 236.5,11.5 Z"/></g>
<g><path style="opacity:1" fill="#454847" d="M 266.5,14.5 C 269.5,16.8333 272.167,19.5 274.5,22.5C 272.888,21.5477 271.388,21.2144 270,21.5C 269.011,19.0302 267.845,16.6968 266.5,14.5 Z"/></g>
<g><path style="opacity:1" fill="#4f1019" d="M 255.5,25.5 C 258.427,26.7573 260.761,28.7573 262.5,31.5C 259.573,30.2427 257.239,28.2427 255.5,25.5 Z"/></g>
<g><path style="opacity:1" fill="#872f39" d="M 251.5,21.5 C 250.448,21.3505 249.448,21.5172 248.5,22C 244.592,26.4134 240.259,30.2467 235.5,33.5C 235.369,32.7611 235.536,32.0944 236,31.5C 240.133,28.3689 243.966,24.8689 247.5,21C 249.066,20.235 250.399,20.4017 251.5,21.5 Z"/></g>
<g><path style="opacity:0.098" fill="#bebebe" d="M 350.5,44.5 C 346.979,45.3069 343.312,45.9736 339.5,46.5C 339.611,45.8826 339.944,45.3826 340.5,45C 343.817,44.5017 347.15,44.335 350.5,44.5 Z"/></g>
<g><path style="opacity:0.098" fill="#c8c8c8" d="M 426.5,44.5 C 431.511,44.3341 436.511,44.5007 441.5,45C 442.056,45.3826 442.389,45.8826 442.5,46.5C 437.031,45.9254 431.698,45.2588 426.5,44.5 Z"/></g>
<g><path style="opacity:1" fill="#c3434e" d="M 233.5,35.5 C 230.474,38.5787 228.474,42.2453 227.5,46.5C 223.478,48.5394 219.478,50.5394 215.5,52.5C 220.89,46.1078 226.89,40.4412 233.5,35.5 Z"/></g>
<g><path style="opacity:0.047" fill="#cdcdcd" d="M 338.5,47.5 C 338.204,49.403 337.537,51.0697 336.5,52.5C 336.12,50.302 336.787,48.6354 338.5,47.5 Z"/></g>
<g><path style="opacity:0.239" fill="#858585" d="M 303.5,49.5 C 304.833,50.1667 305.833,51.1667 306.5,52.5C 304.5,52.5 303.5,51.5 303.5,49.5 Z"/></g>
<g><path style="opacity:0.337" fill="#868686" d="M 306.5,52.5 C 309.833,55.1667 312.833,58.1667 315.5,61.5C 311.5,59.5 308.5,56.5 306.5,52.5 Z"/></g>
<g><path style="opacity:1" fill="#4a5456" d="M 352.5,60.5 C 378.328,59.5022 404.328,59.1689 430.5,59.5C 430.227,67.8878 430.56,76.2212 431.5,84.5C 430.883,84.3893 430.383,84.056 430,83.5C 429.5,75.8406 429.334,68.1739 429.5,60.5C 403.833,60.5 378.167,60.5 352.5,60.5 Z"/></g>
<g><path style="opacity:1" fill="#9db0b6" d="M 352.5,60.5 C 378.167,60.5 403.833,60.5 429.5,60.5C 429.334,68.1739 429.5,75.8406 430,83.5C 430.383,84.056 430.883,84.3893 431.5,84.5C 432.267,85.172 432.934,86.0053 433.5,87C 435.81,87.4966 438.143,87.6633 440.5,87.5C 438.601,93.8824 437.934,100.549 438.5,107.5C 434.411,107.588 431.744,109.588 430.5,113.5C 429.833,132.167 429.167,150.833 428.5,169.5C 403.203,146.038 378.036,122.371 353,98.5C 352.5,85.8377 352.333,73.1711 352.5,60.5 Z"/></g>
<g><path style="opacity:0.584" fill="#726f6f" d="M 197.5,48.5 C 191.111,55.8906 184.111,62.5573 176.5,68.5C 182.889,61.1094 189.889,54.4427 197.5,48.5 Z"/></g>
<g><path style="opacity:1" fill="#872c35" d="M 215.5,52.5 C 209.465,59.5361 202.798,65.8695 195.5,71.5C 195.511,69.9826 196.177,68.8159 197.5,68C 203.392,62.601 209.392,57.4343 215.5,52.5 Z"/></g>
<g><path style="opacity:0.027" fill="#b9b9b9" d="M 442.5,46.5 C 444.614,47.3602 445.78,49.0268 446,51.5C 446.825,61.3422 446.658,71.0089 445.5,80.5C 445.666,71.1607 445.5,61.8274 445,52.5C 444.427,50.3594 443.594,48.3594 442.5,46.5 Z"/></g>
<g><path style="opacity:1" fill="#d14756" d="M 287.5,56.5 C 297.827,65.4945 307.827,74.8278 317.5,84.5C 318.5,85.8333 319.5,87.1667 320.5,88.5C 318.883,87.962 317.216,87.6287 315.5,87.5C 315.833,84.5 314.5,83.1667 311.5,83.5C 311.5,82.5 311.5,81.5 311.5,80.5C 310.5,80.5 309.5,80.5 308.5,80.5C 308.241,76.9319 306.241,75.5985 302.5,76.5C 302.5,75.1667 302.5,73.8333 302.5,72.5C 297.796,70.296 294.463,71.6293 292.5,76.5C 291.675,77.3857 290.675,77.719 289.5,77.5C 289.351,76.448 289.517,75.448 290,74.5C 295.24,72.6259 296.573,69.2926 294,64.5C 292.053,63.8903 290.219,63.0569 288.5,62C 288.833,61.6667 289.167,61.3333 289.5,61C 288.418,59.6703 287.751,58.1703 287.5,56.5 Z"/></g>
<g><path style="opacity:1" fill="#511319" d="M 317.5,84.5 C 322.105,87.4357 326.105,91.1024 329.5,95.5C 326.233,93.5727 323.233,91.2394 320.5,88.5C 319.5,87.1667 318.5,85.8333 317.5,84.5 Z"/></g>
<g><path style="opacity:1" fill="#98363f" d="M 195.5,71.5 C 182.358,85.9815 168.358,99.3148 153.5,111.5C 153.414,110.504 153.748,109.671 154.5,109C 168.357,96.6404 182.023,84.1404 195.5,71.5 Z"/></g>
<g><path style="opacity:1" fill="#e7e8ed" d="M 427.5,261.5 C 427.5,314.833 427.5,368.167 427.5,421.5C 373.997,421.168 320.664,421.501 267.5,422.5C 264.386,422.555 262.052,423.888 260.5,426.5C 259.732,427.263 259.232,428.263 259,429.5C 258.5,446.497 258.333,463.497 258.5,480.5C 252.5,480.5 246.5,480.5 240.5,480.5C 240.833,411.998 240.499,343.665 239.5,275.5C 239.5,274.833 239.167,274.5 238.5,274.5C 237.856,271.856 236.189,270.189 233.5,269.5C 191.002,268.335 148.335,268.169 105.5,269C 104.619,269.708 103.953,270.542 103.5,271.5C 102.599,272.29 101.932,273.29 101.5,274.5C 100.501,342.998 100.167,411.665 100.5,480.5C 98.1667,480.5 95.8333,480.5 93.5,480.5C 93.6666,462.497 93.4999,444.497 93,426.5C 91.117,423.976 88.617,422.642 85.5,422.5C 81.03,421.514 76.3633,421.181 71.5,421.5C 71.6666,393.498 71.5,365.498 71,337.5C 70.6174,336.944 70.1174,336.611 69.5,336.5C 66.7664,333.857 63.4331,332.857 59.5,333.5C 60.209,332.596 61.209,332.263 62.5,332.5C 62.5,326.167 62.5,319.833 62.5,313.5C 61.209,313.737 60.209,313.404 59.5,312.5C 61.8568,312.663 64.1902,312.497 66.5,312C 67.9423,311.623 68.9423,310.79 69.5,309.5C 70.1174,309.389 70.6174,309.056 71,308.5C 71.4999,292.503 71.6666,276.503 71.5,260.5C 88.6528,245.181 105.319,229.347 121.5,213C 130.953,204.091 140.62,195.424 150.5,187C 183.201,154.665 216.201,122.831 249.5,91.5C 309.157,147.823 368.49,204.49 427.5,261.5 Z"/></g>
<g><path style="opacity:0.412" fill="#7b7a7b" d="M 155.5,88.5 C 149.444,95.5577 142.778,101.891 135.5,107.5C 141.556,100.442 148.222,94.1089 155.5,88.5 Z"/></g>
<g><path style="opacity:1" fill="#5d181f" d="M 343.5,109.5 C 346.427,110.757 348.761,112.757 350.5,115.5C 347.573,114.243 345.239,112.243 343.5,109.5 Z"/></g>
<g><path style="opacity:1" fill="#6c777b" d="M 430.5,113.5 C 430.833,132.512 430.5,151.512 429.5,170.5C 428.893,170.376 428.56,170.043 428.5,169.5C 429.167,150.833 429.833,132.167 430.5,113.5 Z"/></g>
<g><path style="opacity:1" fill="#993640" d="M 153.5,111.5 C 143.078,123.259 131.745,133.926 119.5,143.5C 130.272,133.229 140.938,122.729 151.5,112C 152.094,111.536 152.761,111.369 153.5,111.5 Z"/></g>
<g><path style="opacity:1" fill="#e64655" d="M 251.5,21.5 C 253.167,22.5 254.5,23.8333 255.5,25.5C 257.239,28.2427 259.573,30.2427 262.5,31.5C 271.086,39.4188 279.419,47.7522 287.5,56.5C 287.751,58.1703 288.418,59.6703 289.5,61C 289.167,61.3333 288.833,61.6667 288.5,62C 290.219,63.0569 292.053,63.8903 294,64.5C 296.573,69.2926 295.24,72.6259 290,74.5C 289.517,75.448 289.351,76.448 289.5,77.5C 290.675,77.719 291.675,77.3857 292.5,76.5C 294.463,71.6293 297.796,70.296 302.5,72.5C 302.5,73.8333 302.5,75.1667 302.5,76.5C 306.241,75.5985 308.241,76.9319 308.5,80.5C 309.5,80.5 310.5,80.5 311.5,80.5C 311.5,81.5 311.5,82.5 311.5,83.5C 314.5,83.1667 315.833,84.5 315.5,87.5C 317.216,87.6287 318.883,87.962 320.5,88.5C 323.233,91.2394 326.233,93.5727 329.5,95.5C 333.86,100.527 338.527,105.194 343.5,109.5C 345.239,112.243 347.573,114.243 350.5,115.5C 364.374,128.806 378.374,142.14 392.5,155.5C 393.783,157.606 394.616,159.94 395,162.5C 398.773,164.968 402.606,167.301 406.5,169.5C 408.5,170.833 410.167,172.5 411.5,174.5C 413.551,180.215 417.551,183.882 423.5,185.5C 425.239,188.243 427.573,190.243 430.5,191.5C 431.5,194.5 433.5,196.5 436.5,197.5C 447.527,208.194 458.527,218.861 469.5,229.5C 471.239,232.243 473.573,234.243 476.5,235.5C 479.157,236.479 479.823,238.146 478.5,240.5C 472.833,245.167 467.167,249.833 461.5,254.5C 450.815,244.697 440.482,234.697 430.5,224.5C 428.1,221.097 425.1,218.43 421.5,216.5C 416.5,212.167 411.833,207.5 407.5,202.5C 403.441,197.438 398.774,193.105 393.5,189.5C 391.833,188.5 390.5,187.167 389.5,185.5C 385.441,180.438 380.774,176.105 375.5,172.5C 371.167,168.833 367.167,164.833 363.5,160.5C 360.105,156.102 356.105,152.436 351.5,149.5C 349.856,149.19 348.856,148.19 348.5,146.5C 344.833,142.5 341.167,138.5 337.5,134.5C 336.098,132.517 334.264,130.851 332,129.5C 330.505,127.89 330.339,126.224 331.5,124.5C 329.892,123.758 328.225,123.591 326.5,124C 323.17,119.184 318.837,115.684 313.5,113.5C 313.167,112.5 312.5,111.833 311.5,111.5C 308.784,106.939 305.451,102.772 301.5,99C 300.5,98.6667 299.5,98.3333 298.5,98C 295.019,93.685 291.353,89.5184 287.5,85.5C 285.978,84.438 284.312,83.7713 282.5,83.5C 280.167,81.8333 278.167,79.8333 276.5,77.5C 271.443,71.4405 265.776,66.1072 259.5,61.5C 256.081,55.7953 251.081,53.962 244.5,56C 243.748,56.6708 243.414,57.5041 243.5,58.5C 237.417,63.4051 231.417,68.5718 225.5,74C 217.69,82.1424 209.523,89.9758 201,97.5C 200.487,98.5266 199.987,99.5266 199.5,100.5C 194.895,103.436 190.895,107.102 187.5,111.5C 177.193,121.473 166.86,131.473 156.5,141.5C 152.9,143.43 149.9,146.097 147.5,149.5C 146.833,149.833 146.167,150.167 145.5,150.5C 145.631,149.624 145.298,148.957 144.5,148.5C 143.614,149.325 143.281,150.325 143.5,151.5C 140.074,151.757 137.574,153.423 136,156.5C 133.175,154.916 131.008,155.582 129.5,158.5C 130.853,159.524 131.52,160.857 131.5,162.5C 130.178,162.67 129.011,162.337 128,161.5C 127.506,163.134 127.34,164.801 127.5,166.5C 126.167,166.5 124.833,166.5 123.5,166.5C 123.5,167.833 123.5,169.167 123.5,170.5C 122.167,170.5 120.833,170.5 119.5,170.5C 119.5,171.833 119.5,173.167 119.5,174.5C 118.07,174.421 116.736,174.754 115.5,175.5C 113.997,177.586 112.664,179.752 111.5,182C 107.267,181.056 105.267,182.889 105.5,187.5C 100.364,188.303 97.6975,191.303 97.5,196.5C 96.8333,196.5 96.5,196.833 96.5,197.5C 93.1518,198.076 90.4852,199.076 88.5,200.5C 88.5,201.5 88.5,202.5 88.5,203.5C 84.5,202.833 82.8333,204.5 83.5,208.5C 82.5,208.5 81.5,208.5 80.5,208.5C 80.5,209.833 80.5,211.167 80.5,212.5C 78.712,212.215 77.0453,212.548 75.5,213.5C 73.1213,214.846 71.788,216.513 71.5,218.5C 67.8377,218.479 64.171,218.145 60.5,217.5C 60.5,218.5 60.5,219.5 60.5,220.5C 61.9305,220.421 63.2638,220.754 64.5,221.5C 68.5237,218.371 69.8571,219.038 68.5,223.5C 67.1667,223.5 65.8333,223.5 64.5,223.5C 64.6495,224.552 64.4828,225.552 64,226.5C 63.6667,226.167 63.3333,225.833 63,225.5C 61.4301,226.614 60.0968,227.947 59,229.5C 58.6667,229.167 58.3333,228.833 58,228.5C 57.5065,230.134 57.3398,231.801 57.5,233.5C 55.549,233.227 54.049,233.893 53,235.5C 52.6667,235.167 52.3333,234.833 52,234.5C 50.872,236.345 50.372,238.345 50.5,240.5C 48.6693,239.948 47.0026,239.948 45.5,240.5C 45.8333,241.167 46.1667,241.833 46.5,242.5C 44.9951,243.842 44.3285,245.508 44.5,247.5C 42.5768,250.465 39.9101,252.465 36.5,253.5C 32.7735,251.306 29.4402,248.639 26.5,245.5C 24.2332,243.633 23.0665,241.3 23,238.5C 36.1124,224.222 49.6124,210.556 63.5,197.5C 67.1667,194.5 70.5,191.167 73.5,187.5C 79.7762,182.893 85.4428,177.559 90.5,171.5C 91.5,169.833 92.8333,168.5 94.5,167.5C 98.1002,165.57 101.1,162.903 103.5,159.5C 103.5,159.167 103.5,158.833 103.5,158.5C 107.752,156.892 111.752,154.892 115.5,152.5C 115.343,151.127 115.51,149.793 116,148.5C 117.802,147.211 118.969,145.544 119.5,143.5C 131.745,133.926 143.078,123.259 153.5,111.5C 168.358,99.3148 182.358,85.9815 195.5,71.5C 202.798,65.8695 209.465,59.5361 215.5,52.5C 219.478,50.5394 223.478,48.5394 227.5,46.5C 228.474,42.2453 230.474,38.5787 233.5,35.5C 233.833,34.5 234.5,33.8333 235.5,33.5C 240.259,30.2467 244.592,26.4134 248.5,22C 249.448,21.5172 250.448,21.3505 251.5,21.5 Z"/></g>
<g><path style="opacity:1" fill="#651921" d="M 335.5,134.5 C 336.167,134.5 336.833,134.5 337.5,134.5C 341.167,138.5 344.833,142.5 348.5,146.5C 343.56,143.23 339.227,139.23 335.5,134.5 Z"/></g>
<g><path style="opacity:1" fill="#b83f4b" d="M 313.5,113.5 C 318.837,115.684 323.17,119.184 326.5,124C 328.225,123.591 329.892,123.758 331.5,124.5C 330.339,126.224 330.505,127.89 332,129.5C 334.264,130.851 336.098,132.517 337.5,134.5C 336.833,134.5 336.167,134.5 335.5,134.5C 328.167,127.5 320.833,120.5 313.5,113.5 Z"/></g>
<g><path style="opacity:1" fill="#3a0d10" d="M 199.5,100.5 C 196.105,104.898 192.105,108.564 187.5,111.5C 190.895,107.102 194.895,103.436 199.5,100.5 Z"/></g>
<g><path style="opacity:1" fill="#a83c48" d="M 282.5,83.5 C 284.312,83.7713 285.978,84.438 287.5,85.5C 291.353,89.5184 295.019,93.685 298.5,98C 299.5,98.3333 300.5,98.6667 301.5,99C 305.451,102.772 308.784,106.939 311.5,111.5C 301.093,102.756 291.426,93.4231 282.5,83.5 Z"/></g>
<g><path style="opacity:1" fill="#7b282f" d="M 259.5,61.5 C 265.776,66.1072 271.443,71.4405 276.5,77.5C 270.224,72.8928 264.557,67.5595 259.5,61.5 Z"/></g>
<g><path style="opacity:1" fill="#301011" d="M 259.5,61.5 C 256.944,60.4566 254.777,58.7899 253,56.5C 252.316,57.7839 252.483,58.9505 253.5,60C 251.066,60.3329 250.066,59.1662 250.5,56.5C 247.812,56.1658 245.479,56.8325 243.5,58.5C 243.414,57.5041 243.748,56.6708 244.5,56C 251.081,53.962 256.081,55.7953 259.5,61.5 Z"/></g>
<g><path style="opacity:1" fill="#d0d1d5" d="M 427.5,242.5 C 427.5,248.833 427.5,255.167 427.5,261.5C 368.49,204.49 309.157,147.823 249.5,91.5C 216.201,122.831 183.201,154.665 150.5,187C 140.62,195.424 130.953,204.091 121.5,213C 105.319,229.347 88.6528,245.181 71.5,260.5C 71.2487,254.108 71.582,247.775 72.5,241.5C 131.15,184.851 190.15,128.518 249.5,72.5C 309.104,128.768 368.437,185.435 427.5,242.5 Z"/></g>
<g><path style="opacity:1" fill="#8f8f92" d="M 259.5,141.5 C 252.044,139.845 244.711,140.178 237.5,142.5C 238.058,141.21 239.058,140.377 240.5,140C 246.167,139.333 251.833,139.333 257.5,140C 258.416,140.278 259.082,140.778 259.5,141.5 Z"/></g>
<g><path style="opacity:1" fill="#040405" d="M 259.5,141.5 C 261.515,142.924 263.848,143.59 266.5,143.5C 290.87,158.3 296.704,178.633 284,204.5C 276.464,215.016 266.297,221.016 253.5,222.5C 249.818,222.665 246.152,222.499 242.5,222C 239.28,220.648 235.947,219.814 232.5,219.5C 213.761,209.019 205.927,193.019 209,171.5C 212.795,158.702 220.629,149.202 232.5,143C 234.134,142.506 235.801,142.34 237.5,142.5C 244.711,140.178 252.044,139.845 259.5,141.5 Z"/></g>
<g><path style="opacity:1" fill="#7c7d81" d="M 259.5,141.5 C 262.152,141.41 264.485,142.076 266.5,143.5C 263.848,143.59 261.515,142.924 259.5,141.5 Z"/></g>
<g><path style="opacity:0.525" fill="#797a7a" d="M 113.5,127.5 C 108.167,134.833 101.833,141.167 94.5,146.5C 100.5,139.833 106.833,133.5 113.5,127.5 Z"/></g>
<g><path style="opacity:1" fill="#470e15" d="M 156.5,141.5 C 154.1,144.903 151.1,147.57 147.5,149.5C 149.9,146.097 152.9,143.43 156.5,141.5 Z"/></g>
<g><path style="opacity:1" fill="#76262d" d="M 351.5,149.5 C 356.105,152.436 360.105,156.102 363.5,160.5C 358.895,157.564 354.895,153.898 351.5,149.5 Z"/></g>
<g><path style="opacity:1" fill="#af3a48" d="M 119.5,143.5 C 118.969,145.544 117.802,147.211 116,148.5C 115.51,149.793 115.343,151.127 115.5,152.5C 111.752,154.892 107.752,156.892 103.5,158.5C 108.532,153.133 113.865,148.133 119.5,143.5 Z"/></g>
<g><path style="opacity:1" fill="#d44655" d="M 145.5,150.5 C 143.001,153.169 140.668,156.002 138.5,159C 129.615,165.548 121.615,173.214 114.5,182C 113.473,182.513 112.473,183.013 111.5,183.5C 108.5,185.833 105.833,188.5 103.5,191.5C 101.5,193.167 99.5,194.833 97.5,196.5C 97.6975,191.303 100.364,188.303 105.5,187.5C 105.267,182.889 107.267,181.056 111.5,182C 112.664,179.752 113.997,177.586 115.5,175.5C 116.736,174.754 118.07,174.421 119.5,174.5C 119.5,173.167 119.5,171.833 119.5,170.5C 120.833,170.5 122.167,170.5 123.5,170.5C 123.5,169.167 123.5,167.833 123.5,166.5C 124.833,166.5 126.167,166.5 127.5,166.5C 127.34,164.801 127.506,163.134 128,161.5C 129.011,162.337 130.178,162.67 131.5,162.5C 131.52,160.857 130.853,159.524 129.5,158.5C 131.008,155.582 133.175,154.916 136,156.5C 137.574,153.423 140.074,151.757 143.5,151.5C 143.281,150.325 143.614,149.325 144.5,148.5C 145.298,148.957 145.631,149.624 145.5,150.5 Z"/></g>
<g><path style="opacity:1" fill="#40363f" d="M 244.5,154.5 C 266.883,155.043 277.05,166.377 275,188.5C 268.165,205.166 255.999,210.999 238.5,206C 223.976,197.127 219.81,184.627 226,168.5C 230.487,161.518 236.653,156.851 244.5,154.5 Z"/></g>
<g><path style="opacity:1" fill="#983540" d="M 103.5,159.5 C 101.1,162.903 98.1002,165.57 94.5,167.5C 96.8998,164.097 99.8998,161.43 103.5,159.5 Z"/></g>
<g><path style="opacity:1" fill="#b8414d" d="M 392.5,155.5 C 397.184,160.252 401.85,164.919 406.5,169.5C 402.606,167.301 398.773,164.968 395,162.5C 394.616,159.94 393.783,157.606 392.5,155.5 Z"/></g>
<g><path style="opacity:1" fill="#712129" d="M 375.5,172.5 C 380.774,176.105 385.441,180.438 389.5,185.5C 384.226,181.895 379.559,177.562 375.5,172.5 Z"/></g>
<g><path style="opacity:1" fill="#7f2932" d="M 90.5,171.5 C 85.4428,177.559 79.7762,182.893 73.5,187.5C 78.5572,181.441 84.2238,176.107 90.5,171.5 Z"/></g>
<g><path style="opacity:0.357" fill="#858586" d="M 71.5,168.5 C 66.11,174.892 60.11,180.559 53.5,185.5C 58.89,179.108 64.89,173.441 71.5,168.5 Z"/></g>
<g><path style="opacity:1" fill="#b4404c" d="M 411.5,174.5 C 416.126,177.458 420.126,181.124 423.5,185.5C 417.551,183.882 413.551,180.215 411.5,174.5 Z"/></g>
<g><path style="opacity:1" fill="#50101a" d="M 423.5,185.5 C 426.427,186.757 428.761,188.757 430.5,191.5C 427.573,190.243 425.239,188.243 423.5,185.5 Z"/></g>
<g><path style="opacity:0.137" fill="#828282" d="M 445.5,183.5 C 446.11,184.391 446.443,185.391 446.5,186.5C 444.618,185.779 444.285,184.779 445.5,183.5 Z"/></g>
<g><path style="opacity:1" fill="#4b0c15" d="M 111.5,183.5 C 109.833,187.167 107.167,189.833 103.5,191.5C 105.833,188.5 108.5,185.833 111.5,183.5 Z"/></g>
<g><path style="opacity:1" fill="#681c25" d="M 73.5,187.5 C 70.5,191.167 67.1667,194.5 63.5,197.5C 65.8333,193.167 69.1667,189.833 73.5,187.5 Z"/></g>
<g><path style="opacity:1" fill="#7c262f" d="M 393.5,189.5 C 398.774,193.105 403.441,197.438 407.5,202.5C 402.226,198.895 397.559,194.562 393.5,189.5 Z"/></g>
<g><path style="opacity:1" fill="#6c1d25" d="M 430.5,191.5 C 432.833,193.167 434.833,195.167 436.5,197.5C 433.5,196.5 431.5,194.5 430.5,191.5 Z"/></g>
<g><path style="opacity:1" fill="#cc4655" d="M 96.5,197.5 C 91.796,203.205 86.4626,208.205 80.5,212.5C 80.5,211.167 80.5,209.833 80.5,208.5C 81.5,208.5 82.5,208.5 83.5,208.5C 82.8333,204.5 84.5,202.833 88.5,203.5C 88.5,202.5 88.5,201.5 88.5,200.5C 90.4852,199.076 93.1518,198.076 96.5,197.5 Z"/></g>
<g><path style="opacity:0.2" fill="#a6a6a6" d="M 470.5,208.5 C 472.167,209.5 473.5,210.833 474.5,212.5C 472.167,212.167 470.833,210.833 470.5,208.5 Z"/></g>
<g><path style="opacity:0.322" fill="#969696" d="M 474.5,212.5 C 478.5,215.833 482.167,219.5 485.5,223.5C 480.833,220.833 477.167,217.167 474.5,212.5 Z"/></g>
<g><path style="opacity:1" fill="#722129" d="M 421.5,216.5 C 425.1,218.43 428.1,221.097 430.5,224.5C 426.9,222.57 423.9,219.903 421.5,216.5 Z"/></g>
<g><path style="opacity:0.42" fill="#898989" d="M 29.5,208.5 C 24.4428,214.559 18.7762,219.893 12.5,224.5C 17.5572,218.441 23.2238,213.107 29.5,208.5 Z"/></g>
<g><path style="opacity:1" fill="#6a6a6c" d="M 232.5,219.5 C 235.947,219.814 239.28,220.648 242.5,222C 246.152,222.499 249.818,222.665 253.5,222.5C 246.151,224.302 239.151,223.302 232.5,219.5 Z"/></g>
<g><path style="opacity:1" fill="#9c363f" d="M 63.5,197.5 C 49.6124,210.556 36.1124,224.222 23,238.5C 23.0665,241.3 24.2332,243.633 26.5,245.5C 22.1183,244.072 20.285,241.072 21,236.5C 34.757,222.903 48.9237,209.903 63.5,197.5 Z"/></g>
<g><path style="opacity:1" fill="#5d1720" d="M 469.5,229.5 C 472.427,230.757 474.761,232.757 476.5,235.5C 473.573,234.243 471.239,232.243 469.5,229.5 Z"/></g>
<g><path style="opacity:1" fill="#450e15" d="M 69.5,224.5 C 66.1053,228.898 62.1053,232.564 57.5,235.5C 60.8947,231.102 64.8947,227.436 69.5,224.5 Z"/></g>
<g><path style="opacity:1" fill="#d74757" d="M 80.5,212.5 C 76.8333,216.5 73.1667,220.5 69.5,224.5C 64.8947,227.436 60.8947,231.102 57.5,235.5C 53.1407,239.528 48.8073,243.528 44.5,247.5C 44.3285,245.508 44.9951,243.842 46.5,242.5C 46.1667,241.833 45.8333,241.167 45.5,240.5C 47.0026,239.948 48.6693,239.948 50.5,240.5C 50.372,238.345 50.872,236.345 52,234.5C 52.3333,234.833 52.6667,235.167 53,235.5C 54.049,233.893 55.549,233.227 57.5,233.5C 57.3398,231.801 57.5065,230.134 58,228.5C 58.3333,228.833 58.6667,229.167 59,229.5C 60.0968,227.947 61.4301,226.614 63,225.5C 63.3333,225.833 63.6667,226.167 64,226.5C 64.4828,225.552 64.6495,224.552 64.5,223.5C 65.8333,223.5 67.1667,223.5 68.5,223.5C 69.8571,219.038 68.5237,218.371 64.5,221.5C 63.2638,220.754 61.9305,220.421 60.5,220.5C 60.5,219.5 60.5,218.5 60.5,217.5C 64.171,218.145 67.8377,218.479 71.5,218.5C 71.788,216.513 73.1213,214.846 75.5,213.5C 77.0453,212.548 78.712,212.215 80.5,212.5 Z"/></g>
<g><path style="opacity:1" fill="#a0a1a3" d="M 72.5,241.5 C 71.582,247.775 71.2487,254.108 71.5,260.5C 71.6666,276.503 71.4999,292.503 71,308.5C 70.6174,309.056 70.1174,309.389 69.5,309.5C 70.3124,287.209 70.8124,264.876 71,242.5C 71.3826,241.944 71.8826,241.611 72.5,241.5 Z"/></g>
<g><path style="opacity:1" fill="#757579" d="M 233.5,269.5 C 191.165,269.333 148.832,269.5 106.5,270C 105.756,271.039 104.756,271.539 103.5,271.5C 103.953,270.542 104.619,269.708 105.5,269C 148.335,268.169 191.002,268.335 233.5,269.5 Z"/></g>
<g><path style="opacity:1" fill="#020202" d="M 410.5,405.5 C 362.208,406.657 313.874,406.824 265.5,406C 263.677,405.003 262.01,403.836 260.5,402.5C 260.333,359.165 260.5,315.832 261,272.5C 261.833,271.667 262.667,270.833 263.5,270C 312.167,269.333 360.833,269.333 409.5,270C 411.286,270.785 412.786,271.951 414,273.5C 414.667,316.167 414.667,358.833 414,401.5C 413.34,403.324 412.173,404.657 410.5,405.5 Z"/></g>
<g><path style="opacity:1" fill="#c6c7cb" d="M 239.5,275.5 C 240.499,343.665 240.833,411.998 240.5,480.5C 246.5,480.5 252.5,480.5 258.5,480.5C 258.333,463.497 258.5,446.497 259,429.5C 259.232,428.263 259.732,427.263 260.5,426.5C 260.83,445.008 260.497,463.341 259.5,481.5C 252.833,481.5 246.167,481.5 239.5,481.5C 239.5,412.833 239.5,344.167 239.5,275.5 Z"/></g>
<g><path style="opacity:1" fill="#afb0b4" d="M 101.5,274.5 C 101.5,343.5 101.5,412.5 101.5,481.5C 98.6146,481.806 95.9479,481.473 93.5,480.5C 95.8333,480.5 98.1667,480.5 100.5,480.5C 100.167,411.665 100.501,342.998 101.5,274.5 Z"/></g>
<g><path style="opacity:1" fill="#6d4118" d="M 223.5,481.5 C 223.5,481.167 223.5,480.833 223.5,480.5C 223.5,415.167 223.5,349.833 223.5,284.5C 190.167,284.5 156.833,284.5 123.5,284.5C 121.5,284.5 119.5,284.5 117.5,284.5C 116.501,349.998 116.168,415.665 116.5,481.5C 115.501,415.669 115.168,349.669 115.5,283.5C 151.833,283.5 188.167,283.5 224.5,283.5C 224.832,349.669 224.499,415.669 223.5,481.5 Z"/></g>
<g><path style="opacity:1" fill="#c97424" d="M 117.5,284.5 C 119.5,284.5 121.5,284.5 123.5,284.5C 124.261,285.391 125.261,286.058 126.5,286.5C 158.456,285.507 190.456,285.174 222.5,285.5C 222.5,350.5 222.5,415.5 222.5,480.5C 187.594,480.829 152.76,480.496 118,479.5C 117.5,414.501 117.333,349.501 117.5,284.5 Z"/></g>
<g><path style="opacity:1" fill="#bd7630" d="M 123.5,284.5 C 156.833,284.5 190.167,284.5 223.5,284.5C 223.5,349.833 223.5,415.167 223.5,480.5C 223.167,480.5 222.833,480.5 222.5,480.5C 222.5,415.5 222.5,350.5 222.5,285.5C 190.456,285.174 158.456,285.507 126.5,286.5C 125.261,286.058 124.261,285.391 123.5,284.5 Z"/></g>
<g><path style="opacity:1" fill="#6c6c6e" d="M 238.5,274.5 C 239.167,274.5 239.5,274.833 239.5,275.5C 239.5,344.167 239.5,412.833 239.5,481.5C 246.167,481.5 252.833,481.5 259.5,481.5C 252.687,482.491 245.687,482.825 238.5,482.5C 238.5,413.167 238.5,343.833 238.5,274.5 Z"/></g>
<g><path style="opacity:1" fill="#a2662d" d="M 117.5,284.5 C 117.333,349.501 117.5,414.501 118,479.5C 152.76,480.496 187.594,480.829 222.5,480.5C 222.833,480.5 223.167,480.5 223.5,480.5C 223.5,480.833 223.5,481.167 223.5,481.5C 187.833,481.5 152.167,481.5 116.5,481.5C 116.168,415.665 116.501,349.998 117.5,284.5 Z"/></g>
<g><path style="opacity:1" fill="#7b4d22" d="M 399.5,305.5 C 358.003,306.499 316.337,306.832 274.5,306.5C 274.5,298.833 274.5,291.167 274.5,283.5C 316.5,283.5 358.5,283.5 400.5,283.5C 400.825,291.019 400.492,298.352 399.5,305.5 Z"/></g>
<g><path style="opacity:1" fill="#bd752f" d="M 399.5,305.5 C 358.167,305.5 316.833,305.5 275.5,305.5C 275.5,298.5 275.5,291.5 275.5,284.5C 316.833,284.5 358.167,284.5 399.5,284.5C 399.5,291.5 399.5,298.5 399.5,305.5 Z"/></g>
<g><path style="opacity:1" fill="#c97524" d="M 277.5,285.5 C 317.833,285.5 358.167,285.5 398.5,285.5C 398.5,291.833 398.5,298.167 398.5,304.5C 357.833,304.5 317.167,304.5 276.5,304.5C 276.209,298.077 276.542,291.744 277.5,285.5 Z"/></g>
<g><path style="opacity:1" fill="#a0d9f1" d="M 275.5,322.5 C 316.5,322.5 357.5,322.5 398.5,322.5C 398.5,345.167 398.5,367.833 398.5,390.5C 357.5,390.5 316.5,390.5 275.5,390.5C 275.5,367.833 275.5,345.167 275.5,322.5 Z"/></g>
<g><path style="opacity:1" fill="#55707a" d="M 399.5,321.5 C 357.997,321.168 316.663,321.501 275.5,322.5C 275.5,345.167 275.5,367.833 275.5,390.5C 316.663,391.499 357.997,391.832 399.5,391.5C 358.003,392.499 316.337,392.832 274.5,392.5C 274.5,368.5 274.5,344.5 274.5,320.5C 316.337,320.168 358.003,320.501 399.5,321.5 Z"/></g>
<g><path style="opacity:0.165" fill="#acacac" d="M 59.5,333.5 C 57.8845,335.738 56.5512,338.071 55.5,340.5C 55.0764,336.998 56.4098,334.665 59.5,333.5 Z"/></g>
<g><path style="opacity:1" fill="#a4a3a6" d="M 69.5,336.5 C 70.1174,336.611 70.6174,336.944 71,337.5C 71.5,365.498 71.6666,393.498 71.5,421.5C 76.3633,421.181 81.03,421.514 85.5,422.5C 80.5,422.5 75.5,422.5 70.5,422.5C 70.8169,393.789 70.4836,365.123 69.5,336.5 Z"/></g>
<g><path style="opacity:1" fill="#b17232" d="M 214.5,385.5 C 215.186,381.713 214.186,378.546 211.5,376C 202.876,374.169 194.21,374.002 185.5,375.5C 189.783,374.173 194.449,373.507 199.5,373.5C 204.167,373.667 208.833,373.833 213.5,374C 216.6,377.944 216.933,381.778 214.5,385.5 Z"/></g>
<g><path style="opacity:1" fill="#0d0301" d="M 214.5,385.5 C 213.185,386.476 211.852,387.476 210.5,388.5C 202.139,389.773 193.805,389.773 185.5,388.5C 181.695,384.452 181.695,380.452 185.5,376.5C 185.5,376.167 185.5,375.833 185.5,375.5C 194.21,374.002 202.876,374.169 211.5,376C 214.186,378.546 215.186,381.713 214.5,385.5 Z"/></g>
<g><path style="opacity:1" fill="#875321" d="M 185.5,376.5 C 181.695,380.452 181.695,384.452 185.5,388.5C 182.414,387.346 181.081,385.012 181.5,381.5C 181.307,378.467 182.641,376.801 185.5,376.5 Z"/></g>
<g><path style="opacity:1" fill="#91becf" d="M 275.5,322.5 C 316.663,321.501 357.997,321.168 399.5,321.5C 399.5,344.833 399.5,368.167 399.5,391.5C 357.997,391.832 316.663,391.499 275.5,390.5C 316.5,390.5 357.5,390.5 398.5,390.5C 398.5,367.833 398.5,345.167 398.5,322.5C 357.5,322.5 316.5,322.5 275.5,322.5 Z"/></g>
<g><path style="opacity:1" fill="#b8b9bb" d="M 260.5,402.5 C 262.01,403.836 263.677,405.003 265.5,406C 313.874,406.824 362.208,406.657 410.5,405.5C 410.389,406.117 410.056,406.617 409.5,407C 360.186,407.486 311.02,407.653 262,407.5C 260.731,406.095 260.231,404.429 260.5,402.5 Z"/></g>
<g><path style="opacity:0.011" fill="#e0e0e0" d="M 55.5,341.5 C 55.5,368.167 55.5,394.833 55.5,421.5C 39.1667,421.5 22.8333,421.5 6.5,421.5C 22.3246,420.504 38.3246,420.17 54.5,420.5C 54.1688,393.995 54.5022,367.661 55.5,341.5 Z"/></g>
<g><path style="opacity:0.009" fill="#e4e4e4" d="M 443.5,383.5 C 444.495,395.655 444.829,407.989 444.5,420.5C 460.675,420.17 476.675,420.504 492.5,421.5C 476.167,421.5 459.833,421.5 443.5,421.5C 443.5,408.833 443.5,396.167 443.5,383.5 Z"/></g>
<g><path style="opacity:1" fill="#9d9da0" d="M 427.5,242.5 C 428.499,302.331 428.832,362.331 428.5,422.5C 374.833,422.5 321.167,422.5 267.5,422.5C 320.664,421.501 373.997,421.168 427.5,421.5C 427.5,368.167 427.5,314.833 427.5,261.5C 427.5,255.167 427.5,248.833 427.5,242.5 Z"/></g>
<g><path style="opacity:1" fill="#3c5509" d="M 484.5,437.5 C 484.167,437.5 483.833,437.5 483.5,437.5C 414.167,437.5 344.833,437.5 275.5,437.5C 275.171,452.01 275.504,466.343 276.5,480.5C 345.665,481.499 414.998,481.833 484.5,481.5C 414.669,482.499 344.669,482.833 274.5,482.5C 274.5,467.167 274.5,451.833 274.5,436.5C 344.669,436.167 414.669,436.501 484.5,437.5 Z"/></g>
<g><path style="opacity:1" fill="#2e4505" d="M 78.5,437.5 C 78.1667,437.5 77.8333,437.5 77.5,437.5C 56.8333,437.5 36.1667,437.5 15.5,437.5C 14.504,451.99 14.1707,466.657 14.5,481.5C 13.5039,466.676 13.1706,451.676 13.5,436.5C 35.3398,436.169 57.0064,436.503 78.5,437.5 Z"/></g>
<g><path style="opacity:1" fill="#88bc1e" d="M 483.5,437.5 C 483.5,451.833 483.5,466.167 483.5,480.5C 414.5,480.5 345.5,480.5 276.5,480.5C 275.504,466.343 275.171,452.01 275.5,437.5C 344.833,437.5 414.167,437.5 483.5,437.5 Z"/></g>
<g><path style="opacity:1" fill="#86c10d" d="M 276.5,438.5 C 345.167,438.5 413.833,438.5 482.5,438.5C 482.5,452.167 482.5,465.833 482.5,479.5C 413.833,479.5 345.167,479.5 276.5,479.5C 276.5,465.833 276.5,452.167 276.5,438.5 Z"/></g>
<g><path style="opacity:1" fill="#6d941e" d="M 15.5,437.5 C 15.5,451.833 15.5,466.167 15.5,480.5C 36.1667,480.5 56.8333,480.5 77.5,480.5C 77.5,466.167 77.5,451.833 77.5,437.5C 77.8333,437.5 78.1667,437.5 78.5,437.5C 78.5,452.167 78.5,466.833 78.5,481.5C 57.1667,481.5 35.8333,481.5 14.5,481.5C 14.1707,466.657 14.504,451.99 15.5,437.5 Z"/></g>
<g><path style="opacity:1" fill="#86c00e" d="M 15.5,437.5 C 36.1667,437.5 56.8333,437.5 77.5,437.5C 77.5,451.833 77.5,466.167 77.5,480.5C 56.8333,480.5 36.1667,480.5 15.5,480.5C 15.5,466.167 15.5,451.833 15.5,437.5 Z"/></g>
<g><path style="opacity:1" fill="#6f981a" d="M 483.5,437.5 C 483.833,437.5 484.167,437.5 484.5,437.5C 484.5,452.167 484.5,466.833 484.5,481.5C 414.998,481.833 345.665,481.499 276.5,480.5C 345.5,480.5 414.5,480.5 483.5,480.5C 483.5,466.167 483.5,451.833 483.5,437.5 Z"/></g>
</svg>
